<?xml version="1.0" encoding="UTF-8" standalone="no"?>
<svg
   xmlns:dc="http://purl.org/dc/elements/1.1/"
   xmlns:cc="http://creativecommons.org/ns#"
   xmlns:rdf="http://www.w3.org/1999/02/22-rdf-syntax-ns#"
   xmlns:svg="http://www.w3.org/2000/svg"
   xmlns="http://www.w3.org/2000/svg"
   xmlns:sodipodi="http://sodipodi.sourceforge.net/DTD/sodipodi-0.dtd"
   xmlns:inkscape="http://www.inkscape.org/namespaces/inkscape"
   width="139"
   height="20"
   viewBox="0 0 139 20"
   version="1.1"
   id="svg3739"
   sodipodi:docname="system.svg"
   inkscape:version="0.92.4 (5da689c313, 2019-01-14)">
  <metadata
     id="metadata3743">
    <rdf:RDF>
      <cc:Work
         rdf:about="">
        <dc:format>image/svg+xml</dc:format>
        <dc:type
           rdf:resource="http://purl.org/dc/dcmitype/StillImage" />
        <dc:title>system</dc:title>
      </cc:Work>
    </rdf:RDF>
  </metadata>
  <sodipodi:namedview
     pagecolor="#ffffff"
     bordercolor="#666666"
     borderopacity="1"
     objecttolerance="10"
     gridtolerance="10"
     guidetolerance="10"
     inkscape:pageopacity="0"
     inkscape:pageshadow="2"
     inkscape:window-width="1920"
     inkscape:window-height="1137"
     id="namedview3741"
     showgrid="false"
     inkscape:zoom="7.5183342"
     inkscape:cx="75.814667"
     inkscape:cy="8.1535411"
     inkscape:window-x="-8"
     inkscape:window-y="344"
     inkscape:window-maximized="1"
     inkscape:current-layer="svg3739"
     scale-x="2" />
  <!-- Generator: Sketch 45 (43475) - http://www.bohemiancoding.com/sketch -->
  <title
     id="title3729">system</title>
  <desc
     id="desc3731">Created with Sketch.</desc>
  <defs
     id="defs3733" />
  <g
     inkscape:groupmode="layer"
     id="layer1"
     inkscape:label="Layer 1"
     transform="translate(0,2)" />
  <g
     inkscape:groupmode="layer"
     id="layer2"
     inkscape:label="Layer 2"
     transform="translate(0,2)" />
  <g
     aria-label="LAST PLAYED"
     style="font-style:normal;font-variant:normal;font-weight:normal;font-stretch:normal;font-size:21.33333397px;line-height:1.25;font-family:Arial;-inkscape-font-specification:Arial;letter-spacing:0px;word-spacing:0px;fill:none;fill-opacity:1;stroke:#ffffff;stroke-width:0.5;stroke-miterlimit:4;stroke-dasharray:none;stroke-opacity:1"
     id="text4643"
     transform="translate(-0.93105731,-24.606515)">
    <path
       d="M 2.4001008,16.27577 V 3.8682176 H 4.0420279 V 14.811577 h 6.1106771 v 1.464193 z"
       style="font-size:17.33333397px;fill:none;fill-opacity:1;stroke:#ffffff;stroke-width:0.5;stroke-miterlimit:4;stroke-dasharray:none;stroke-opacity:1"
       id="path5567"
       inkscape:connector-curvature="0" />
    <path
       d="M 10.753616,16.27577 15.51859,3.8682176 h 1.768881 L 22.365596,16.27577 h -1.870443 l -1.447266,-3.757812 h -5.188151 l -1.36263,3.757812 z m 3.580079,-5.095052 h 4.20638 L 17.245153,7.7445199 q -0.592448,-1.5657553 -0.880208,-2.5729168 -0.23698,1.1933594 -0.66862,2.3697918 z"
       style="font-size:17.33333397px;fill:none;fill-opacity:1;stroke:#ffffff;stroke-width:0.5;stroke-miterlimit:4;stroke-dasharray:none;stroke-opacity:1"
       id="path5569"
       inkscape:connector-curvature="0" />
    <path
       d="m 23.135778,12.289442 1.548828,-0.135417 q 0.110026,0.93099 0.507813,1.531901 0.40625,0.592448 1.252604,0.964844 0.846354,0.363932 1.904297,0.363932 0.939453,0 1.658854,-0.279296 0.719401,-0.279297 1.066406,-0.761719 0.355469,-0.490886 0.355469,-1.066407 0,-0.583984 -0.338542,-1.015625 Q 30.752966,11.451551 29.97432,11.155327 29.474971,10.960666 27.765335,10.554416 26.0557,10.139702 25.370153,9.7757699 24.481481,9.3102751 24.041377,8.6247282 23.609736,7.9307178 23.609736,7.0759001 q 0,-0.9394532 0.533203,-1.7519532 0.533203,-0.8209636 1.557292,-1.2441407 1.024089,-0.4231771 2.276693,-0.4231771 1.379557,0 2.429036,0.4485677 1.057943,0.4401042 1.625,1.3033855 0.567058,0.8632813 0.609375,1.9550782 L 31.066117,7.4821501 Q 30.939164,6.3057177 30.202835,5.7048063 29.474971,5.1038948 28.044632,5.1038948 q -1.489583,0 -2.17513,0.5501302 -0.677083,0.5416667 -0.677083,1.311849 0,0.6686198 0.482421,1.1002605 0.473959,0.4316406 2.471355,0.8886719 2.005859,0.4485677 2.750651,0.7871094 1.083333,0.4993492 1.599609,1.2695312 0.516276,0.761719 0.516276,1.760417 0,0.990234 -0.567057,1.870443 -0.567057,0.871744 -1.633464,1.36263 -1.057942,0.482422 -2.386718,0.482422 -1.684245,0 -2.826823,-0.490886 -1.134115,-0.490885 -1.785808,-1.472656 -0.643229,-0.990234 -0.677083,-2.234375 z"
       style="font-size:17.33333397px;fill:none;fill-opacity:1;stroke:#ffffff;stroke-width:0.5;stroke-miterlimit:4;stroke-dasharray:none;stroke-opacity:1"
       id="path5571"
       inkscape:connector-curvature="0" />
    <path
       d="M 38.429398,16.27577 V 5.3324104 H 34.341507 V 3.8682176 h 9.834636 V 5.3324104 H 40.071325 V 16.27577 Z"
       style="font-size:17.33333397px;fill:none;fill-opacity:1;stroke:#ffffff;stroke-width:0.5;stroke-miterlimit:4;stroke-dasharray:none;stroke-opacity:1"
       id="path5573"
       inkscape:connector-curvature="0" />
    <path
       d="M 50.371457,16.27577 V 3.8682176 h 4.680339 q 1.235677,0 1.88737,0.1184896 0.914063,0.1523438 1.531901,0.5839844 0.617839,0.4231771 0.990235,1.1933595 0.380859,0.7701823 0.380859,1.6927083 0,1.5826824 -1.007162,2.6829426 -1.007161,1.091797 -3.639323,1.091797 h -3.182291 v 5.044271 z m 1.641928,-6.5084636 h 3.207682 q 1.591146,0 2.259766,-0.5924479 0.66862,-0.592448 0.66862,-1.6673178 0,-0.7786459 -0.397787,-1.3287761 Q 57.362343,5.6201708 56.719114,5.4424365 56.3044,5.3324104 55.187213,5.3324104 h -3.173828 z"
       style="font-size:17.33333397px;fill:none;fill-opacity:1;stroke:#ffffff;stroke-width:0.5;stroke-miterlimit:4;stroke-dasharray:none;stroke-opacity:1"
       id="path5575"
       inkscape:connector-curvature="0" />
    <path
       d="M 61.881874,16.27577 V 3.8682176 h 1.641927 V 14.811577 h 6.110678 v 1.464193 z"
       style="font-size:17.33333397px;fill:none;fill-opacity:1;stroke:#ffffff;stroke-width:0.5;stroke-miterlimit:4;stroke-dasharray:none;stroke-opacity:1"
       id="path5577"
       inkscape:connector-curvature="0" />
    <path
       d="M 70.23539,16.27577 75.000364,3.8682176 h 1.76888 L 81.847369,16.27577 H 79.976927 L 78.529661,12.517958 H 73.34151 l -1.362631,3.757812 z m 3.580078,-5.095052 h 4.20638 L 76.726926,7.7445199 Q 76.134478,6.1787646 75.846718,5.1716031 75.609739,6.3649625 75.178098,7.5413949 Z"
       style="font-size:17.33333397px;fill:none;fill-opacity:1;stroke:#ffffff;stroke-width:0.5;stroke-miterlimit:4;stroke-dasharray:none;stroke-opacity:1"
       id="path5579"
       inkscape:connector-curvature="0" />
    <path
       d="M 85.385127,16.27577 V 11.019911 L 80.603226,3.8682176 h 1.997396 l 2.445963,3.7408856 q 0.677084,1.0494792 1.261068,2.0989584 0.558594,-0.9733073 1.354167,-2.1920574 l 2.403646,-3.6477866 h 1.91276 l -4.951172,7.1516934 v 5.255859 z"
       style="font-size:17.33333397px;fill:none;fill-opacity:1;stroke:#ffffff;stroke-width:0.5;stroke-miterlimit:4;stroke-dasharray:none;stroke-opacity:1"
       id="path5581"
       inkscape:connector-curvature="0" />
    <path
       d="M 93.501663,16.27577 V 3.8682176 h 8.971357 v 1.4641928 h -7.32943 v 3.8001304 h 6.86393 V 10.58827 h -6.86393 v 4.223307 h 7.61719 v 1.464193 z"
       style="font-size:17.33333397px;fill:none;fill-opacity:1;stroke:#ffffff;stroke-width:0.5;stroke-miterlimit:4;stroke-dasharray:none;stroke-opacity:1"
       id="path5583"
       inkscape:connector-curvature="0" />
    <path
       d="M 105.04593,16.27577 V 3.8682176 h 4.27409 q 1.44727,0 2.20899,0.1777344 1.0664,0.2454427 1.81966,0.8886719 0.98177,0.8294272 1.46419,2.1243491 0.49089,1.2864584 0.49089,2.945313 0,1.413411 -0.33008,2.505208 -0.33008,1.091797 -0.84636,1.811198 -0.51627,0.710938 -1.13411,1.125651 -0.60938,0.40625 -1.48112,0.617839 -0.86328,0.211588 -1.98893,0.211588 z m 1.64193,-1.464193 h 2.64909 q 1.22721,0 1.92122,-0.228515 0.70248,-0.228516 1.11719,-0.643229 0.58399,-0.583985 0.9056,-1.565756 0.33008,-0.990234 0.33008,-2.395182 0,-1.9466147 -0.64323,-2.9876304 -0.63477,-1.0494792 -1.54883,-1.4049479 -0.66016,-0.2539063 -2.12435,-0.2539063 h -2.60677 z"
       style="font-size:17.33333397px;fill:none;fill-opacity:1;stroke:#ffffff;stroke-width:0.5;stroke-miterlimit:4;stroke-dasharray:none;stroke-opacity:1"
       id="path5585"
       inkscape:connector-curvature="0" />
  </g>
  <g
     aria-label="SUPER FAMICOM"
     style="font-style:normal;font-variant:normal;font-weight:normal;font-stretch:normal;font-size:21.33333397px;line-height:1.25;font-family:Arial;-inkscape-font-specification:Arial;letter-spacing:0px;word-spacing:0px;fill:none;fill-opacity:1;stroke:#ffffff;stroke-width:0.5;stroke-miterlimit:4;stroke-dasharray:none;stroke-opacity:1"
     id="text4531">
    <path
       d="m 3.9168999,12.330067 1.4296875,-0.125 q 0.1015625,0.859375 0.46875,1.414062 0.375,0.546875 1.15625,0.890625 0.78125,0.335938 1.7578125,0.335938 0.8671875,0 1.5312501,-0.257813 0.664062,-0.257812 0.984375,-0.703125 0.328125,-0.453125 0.328125,-0.984375 0,-0.539062 -0.3125,-0.9375 -0.3125,-0.40625 -1.03125,-0.679687 Q 9.7684624,11.103504 8.1903374,10.728504 6.6122124,10.345692 5.9793999,10.009754 5.1590874,9.5800667 4.7528374,8.9472542 4.3543999,8.3066292 4.3543999,7.5175667 q 0,-0.8671875 0.4921875,-1.6171875 0.4921875,-0.7578125 1.4375,-1.1484375 0.9453125,-0.390625 2.1015625,-0.390625 1.2734375,0 2.2421871,0.4140625 0.976563,0.40625 1.5,1.203125 0.523438,0.796875 0.5625,1.8046875 l -1.453125,0.109375 Q 11.120025,6.8066292 10.440337,6.2519417 9.7684624,5.6972542 8.4481499,5.6972542 q -1.375,0 -2.0078125,0.5078125 -0.625,0.5 -0.625,1.2109375 0,0.6171875 0.4453125,1.015625 0.4375,0.3984375 2.28125,0.8203125 1.8515621,0.4140625 2.5390621,0.7265625 1,0.4609378 1.476563,1.1718748 0.476562,0.703125 0.476562,1.625 0,0.914063 -0.523437,1.726563 -0.523438,0.804687 -1.507813,1.257812 -0.976562,0.445313 -2.2031246,0.445313 -1.5546875,0 -2.609375,-0.453125 -1.046875,-0.453125 -1.6484375,-1.359375 -0.59375,-0.914063 -0.625,-2.0625 z"
       style="font-size:16px;fill:none;stroke:#ffffff;stroke-width:0.5;stroke-miterlimit:4;stroke-dasharray:none;stroke-opacity:1"
       id="path4575"
       inkscape:connector-curvature="0" />
    <path
       d="m 22.63565,4.5566292 h 1.515625 v 6.6171878 q 0,1.726562 -0.390625,2.742187 -0.390625,1.015625 -1.414063,1.65625 -1.015625,0.632813 -2.671875,0.632813 -1.609375,0 -2.632812,-0.554688 -1.023438,-0.554687 -1.460938,-1.601562 -0.4375,-1.054688 -0.4375,-2.875 V 4.5566292 h 1.515625 v 6.6093748 q 0,1.492188 0.273438,2.203125 0.28125,0.703125 0.953125,1.085938 0.679687,0.382812 1.65625,0.382812 1.671875,0 2.382812,-0.757812 0.710938,-0.757813 0.710938,-2.914063 z"
       style="font-size:16px;fill:none;stroke:#ffffff;stroke-width:0.5;stroke-miterlimit:4;stroke-dasharray:none;stroke-opacity:1"
       id="path4577"
       inkscape:connector-curvature="0" />
    <path
       d="M 26.682525,16.009754 V 4.5566292 h 4.320312 q 1.140625,0 1.742188,0.109375 0.84375,0.140625 1.414062,0.5390625 0.570313,0.390625 0.914063,1.1015625 0.351562,0.7109375 0.351562,1.5625 0,1.4609375 -0.929687,2.4765628 -0.929688,1.007812 -3.359375,1.007812 h -2.9375 v 4.65625 z m 1.515625,-6.007812 h 2.960937 q 1.46875,0 2.085938,-0.5468753 0.617187,-0.546875 0.617187,-1.5390625 0,-0.71875 -0.367187,-1.2265625 Q 33.13565,6.1738167 32.5419,6.0097542 32.159087,5.9081917 31.127837,5.9081917 H 28.19815 Z"
       style="font-size:16px;fill:none;stroke:#ffffff;stroke-width:0.5;stroke-miterlimit:4;stroke-dasharray:none;stroke-opacity:1"
       id="path4579"
       inkscape:connector-curvature="0" />
    <path
       d="M 37.401275,16.009754 V 4.5566292 h 8.28125 V 5.9081917 H 38.9169 v 3.5078125 h 6.335937 V 10.759754 H 38.9169 v 3.898438 h 7.03125 v 1.351562 z"
       style="font-size:16px;fill:none;stroke:#ffffff;stroke-width:0.5;stroke-miterlimit:4;stroke-dasharray:none;stroke-opacity:1"
       id="path4581"
       inkscape:connector-curvature="0" />
    <path
       d="M 48.080962,16.009754 V 4.5566292 h 5.078125 q 1.53125,0 2.328125,0.3125 0.796875,0.3046875 1.273438,1.0859375 0.476562,0.78125 0.476562,1.7265625 0,1.21875 -0.789062,2.0546875 -0.789063,0.8359373 -2.4375,1.0625003 0.601562,0.289062 0.914062,0.570312 0.664063,0.609375 1.257813,1.523438 l 1.992187,3.117187 h -1.90625 l -1.515625,-2.382812 q -0.664062,-1.03125 -1.09375,-1.578125 -0.429687,-0.546875 -0.773437,-0.765625 -0.335938,-0.21875 -0.6875,-0.304688 -0.257813,-0.05469 -0.84375,-0.05469 h -1.757813 v 5.085937 z M 49.596587,9.6113167 H 52.8544 q 1.039062,0 1.625,-0.2109375 0.585937,-0.21875 0.890625,-0.6875 0.304687,-0.4765625 0.304687,-1.03125 0,-0.8125 -0.59375,-1.3359375 -0.585937,-0.5234375 -1.859375,-0.5234375 h -3.625 z"
       style="font-size:16px;fill:none;stroke:#ffffff;stroke-width:0.5;stroke-miterlimit:4;stroke-dasharray:none;stroke-opacity:1"
       id="path4583"
       inkscape:connector-curvature="0" />
    <path
       d="M 64.13565,16.009754 V 4.5566292 h 7.726562 v 1.3515625 h -6.210937 v 3.546875 h 5.375 v 1.3515623 h -5.375 v 5.203125 z"
       style="font-size:16px;fill:none;stroke:#ffffff;stroke-width:0.5;stroke-miterlimit:4;stroke-dasharray:none;stroke-opacity:1"
       id="path4585"
       inkscape:connector-curvature="0" />
    <path
       d="M 71.705962,16.009754 76.1044,4.5566292 h 1.632812 l 4.6875,11.4531248 H 80.69815 l -1.335938,-3.46875 H 74.57315 l -1.257813,3.46875 z m 3.304688,-4.703125 h 3.882812 L 77.69815,8.1347542 q -0.546875,-1.4453125 -0.8125,-2.375 -0.21875,1.1015625 -0.617188,2.1875 z"
       style="font-size:16px;fill:none;stroke:#ffffff;stroke-width:0.5;stroke-miterlimit:4;stroke-dasharray:none;stroke-opacity:1"
       id="path4587"
       inkscape:connector-curvature="0" />
    <path
       d="M 83.6044,16.009754 V 4.5566292 h 2.28125 l 2.710937,8.1093748 q 0.375,1.132813 0.546875,1.695313 0.195313,-0.625 0.609375,-1.835938 l 2.742188,-7.9687498 h 2.039062 V 16.009754 H 93.07315 V 6.4238167 l -3.328125,9.5859373 h -1.367188 l -3.3125,-9.7499998 v 9.7499998 z"
       style="font-size:16px;fill:none;stroke:#ffffff;stroke-width:0.5;stroke-miterlimit:4;stroke-dasharray:none;stroke-opacity:1"
       id="path4589"
       inkscape:connector-curvature="0" />
    <path
       d="M 97.252837,16.009754 V 4.5566292 h 1.515625 V 16.009754 Z"
       style="font-size:16px;fill:none;stroke:#ffffff;stroke-width:0.5;stroke-miterlimit:4;stroke-dasharray:none;stroke-opacity:1"
       id="path4591"
       inkscape:connector-curvature="0" />
    <path
       d="m 109.6044,11.994129 1.51562,0.382813 q -0.47656,1.867187 -1.71875,2.851562 -1.23437,0.976563 -3.02343,0.976563 -1.85157,0 -3.01563,-0.75 -1.15625,-0.757813 -1.76562,-2.1875 -0.60157,-1.429688 -0.60157,-3.070313 0,-1.7890623 0.67969,-3.1171873 0.6875,-1.3359375 1.94531,-2.0234375 1.26563,-0.6953125 2.78125,-0.6953125 1.71875,0 2.89063,0.875 1.17187,0.875 1.63281,2.4609375 l -1.49219,0.3515625 q -0.39843,-1.25 -1.15625,-1.8203125 -0.75781,-0.5703125 -1.90625,-0.5703125 -1.32031,0 -2.21093,0.6328125 -0.88282,0.6328125 -1.24219,1.703125 -0.35938,1.0625 -0.35938,2.1953128 0,1.460937 0.42188,2.554687 0.42969,1.085938 1.32812,1.625 0.89844,0.539063 1.94532,0.539063 1.27343,0 2.15625,-0.734375 0.88281,-0.734375 1.19531,-2.179688 z"
       style="font-size:16px;fill:none;stroke:#ffffff;stroke-width:0.5;stroke-miterlimit:4;stroke-dasharray:none;stroke-opacity:1"
       id="path4593"
       inkscape:connector-curvature="0" />
    <path
       d="m 112.53409,10.431629 q 0,-2.8515623 1.53125,-4.4609373 1.53125,-1.6171875 3.95312,-1.6171875 1.58594,0 2.85938,0.7578125 1.27343,0.7578125 1.9375,2.1171875 0.67187,1.3515625 0.67187,3.0703128 0,1.742187 -0.70312,3.117187 -0.70313,1.375 -1.99219,2.085938 -1.28906,0.703125 -2.78125,0.703125 -1.61719,0 -2.89063,-0.78125 -1.27343,-0.78125 -1.92968,-2.132813 -0.65625,-1.351562 -0.65625,-2.859375 z m 1.5625,0.02344 q 0,2.070312 1.10937,3.265625 1.11719,1.1875 2.79688,1.1875 1.71093,0 2.8125,-1.203125 1.10937,-1.203125 1.10937,-3.414063 0,-1.3984373 -0.47656,-2.4374998 -0.46875,-1.046875 -1.38281,-1.6171875 -0.90625,-0.578125 -2.03907,-0.578125 -1.60937,0 -2.77343,1.109375 -1.15625,1.1015625 -1.15625,3.6875003 z"
       style="font-size:16px;fill:none;stroke:#ffffff;stroke-width:0.5;stroke-miterlimit:4;stroke-dasharray:none;stroke-opacity:1"
       id="path4595"
       inkscape:connector-curvature="0" />
    <path
       d="M 125.38565,16.009754 V 4.5566292 h 2.28125 l 2.71094,8.1093748 q 0.375,1.132813 0.54687,1.695313 0.19531,-0.625 0.60938,-1.835938 l 2.74218,-7.9687498 h 2.03907 V 16.009754 H 134.8544 V 6.4238167 l -3.32813,9.5859373 h -1.36718 l -3.3125,-9.7499998 v 9.7499998 z"
       style="font-size:16px;fill:none;stroke:#ffffff;stroke-width:0.5;stroke-miterlimit:4;stroke-dasharray:none;stroke-opacity:1"
       id="path4597"
       inkscape:connector-curvature="0" />
  </g>
</svg>
