<?xml version="1.0" encoding="UTF-8" standalone="no"?>
<svg
   xmlns:dc="http://purl.org/dc/elements/1.1/"
   xmlns:cc="http://creativecommons.org/ns#"
   xmlns:rdf="http://www.w3.org/1999/02/22-rdf-syntax-ns#"
   xmlns:svg="http://www.w3.org/2000/svg"
   xmlns="http://www.w3.org/2000/svg"
   xmlns:sodipodi="http://sodipodi.sourceforge.net/DTD/sodipodi-0.dtd"
   xmlns:inkscape="http://www.inkscape.org/namespaces/inkscape"
   id="Layer_1"
   data-name="Layer 1"
   viewBox="0 0 1000 114"
   version="1.1"
   sodipodi:docname="system.svg"
   inkscape:version="0.92.4 (5da689c313, 2019-01-14)">
  <metadata
     id="metadata57">
    <rdf:RDF>
      <cc:Work
         rdf:about="">
        <dc:format>image/svg+xml</dc:format>
        <dc:type
           rdf:resource="http://purl.org/dc/dcmitype/StillImage" />
        <dc:title>logo</dc:title>
      </cc:Work>
    </rdf:RDF>
  </metadata>
  <defs
     id="defs55" />
  <sodipodi:namedview
     pagecolor="#ffffff"
     bordercolor="#666666"
     borderopacity="1"
     objecttolerance="10"
     gridtolerance="10"
     guidetolerance="10"
     inkscape:pageopacity="0"
     inkscape:pageshadow="2"
     inkscape:window-width="1920"
     inkscape:window-height="1017"
     id="namedview53"
     showgrid="false"
     inkscape:pagecheckerboard="true"
     inkscape:zoom="4.544"
     inkscape:cx="728.5481"
     inkscape:cy="57"
     inkscape:window-x="-8"
     inkscape:window-y="-8"
     inkscape:window-maximized="1"
     inkscape:current-layer="Layer_1" />
  <title
     id="title2">logo</title>
  <path
     d="m 705.75037,23.627547 c 29.17196,-0.013 48.15196,30.685361 35.10443,56.776261 -13.04753,26.090902 -48.99464,29.321342 -66.48443,5.973739 -0.39,-0.53 -0.77,-1.06 -1.14,-1.61 -15.82763,-23.772676 -1.83126,-55.956362 26.35,-60.59 v 0 c 2.0414,-0.317248 4.1041,-0.477717 6.17,-0.48 m -26.08,27 h 4.22 v 24.52 h -4.18 v 4.57 h 13.08 v -4.57 h -4.24 v -29.15 h -7.1 -1.78 v 4.54 m 17.15,-1.63 v 0 c 0,9.19 -0.06,18.39 0,27.6 0.90243,1.107411 1.88867,2.143799 2.95,3.1 h 29.25 c 1.07,-1.39 3.34,-2.33 3,-4.38 v -11.81 c -0.71327,-0.979727 -1.5389,-1.872483 -2.46,-2.66 h -28.54 c -0.06,-3.42 0,-6.85 0,-10.27 h 27 v 4.29 h 4.07 v -6.1 c -0.84,-0.92 -1.72,-1.76 -2.58,-2.62 h -29.84 c -1.01148,0.886461 -1.96354,1.838518 -2.85,2.85 m 8.93,-32.35 c -2.43116,4.92e-4 -4.85855,0.191073 -7.26,0.57 -0.19538,0.02938 -0.389,0.06944 -0.58,0.12 -32.89877,5.805716 -49.02011,43.469723 -30.51,71.28 0.46,0.67 0.91,1.31 1.37,1.93 15.38117,20.521123 44.49082,24.677083 65,9.28 v 0 c 15.78475,-12.03919 22.14265,-32.798413 15.80724,-51.612314 -6.33541,-18.8139 -23.95532,-31.498817 -43.80724,-31.537686 z m -1.47316,48.680187 23.50316,-0.06019 0.19665,4.732453 -0.19665,5.207547 h -26.52 v -9.94 z"
     id="path4"
     style="fill:none;fill-opacity:1;stroke:#00ffff;stroke-opacity:1"
     inkscape:connector-curvature="0"
     sodipodi:nodetypes="cscccccccccccccccccccccccccccccccccccccccccsccccccccc" />
  <path
     inkscape:connector-curvature="0"
     d="m 307.86037,25.697547 v 63.79 a 20.07,20.07 0 0 1 -0.25,4.58 7.52,7.52 0 0 1 -7.18,5.66 h -9.2 a 7.77,7.77 0 0 1 -7.32,-7.78 c 0,-22.06 0.05,-44.16 0,-66.25 h 7.62 c 0,22.19 0,44.38 0,66.56 h 8.57 v -66.56 h 7.73 m 0,-7 h -7.73 a 7,7 0 0 0 -4.29,1.46 6.94,6.94 0 0 0 -4.28,-1.46 h -7.62 a 7,7 0 0 0 -7,7 q 0,19.35 0,38.7 0,13.78 0,27.55 a 14.77,14.77 0 0 0 13.9,14.770003 h 9.73 a 14.55,14.55 0 0 0 13.85,-10.940003 4.88,4.88 0 0 0 0.12,-0.55 26.88,26.88 0 0 0 0.35,-5.94 v -63.59 a 7,7 0 0 0 -7,-7 z"
     id="path6"
     style="fill:none;fill-opacity:1;stroke:#00ffff;stroke-opacity:1" />
  <path
     inkscape:connector-curvature="0"
     d="m 337.83037,25.667547 q 2.64,0 5.28,0 c 3.74,0 7.75,2.88 7.79,6.87 v 24.31 c 0,3.51 -2.37,7.15 -6,7.8 2.5,11.7 5,23.39 7.45,35.08 h -7.17 q -4,-17.32 -8,-34.64 h -2.63 v 34.64 h -7.31 v -74 c 3.52,0 7,0 10.57,0 m -2.94,31.5 h 8.47 v -24.24 h -8.47 v 24.18 m 2.94,-38.5 h -5.29 -5.26 a 7,7 0 0 0 -7,7 v 74 a 7,7 0 0 0 7,7.000003 h 7.31 a 7,7 0 0 0 5.31,-2.44 7,7 0 0 0 5.31,2.44 h 7.17 a 7,7 0 0 0 6.85,-8.470003 q -2.08,-9.7 -4.13,-19.41 l -2.25,-10.61 a 15.37,15.37 0 0 0 5.06,-11.39 v -24.3 c -0.1,-8.41 -7.71,-13.71 -14.7,-13.79 h -5.37 z"
     id="path8"
     style="fill:none;fill-opacity:1;stroke:#00ffff;stroke-opacity:1" />
  <path
     inkscape:connector-curvature="0"
     d="m 382.78037,25.687547 c 1.85,0 3.7,0 5.54,0 a 7,7 0 0 1 6.94,6.46 v 23.47 c 0,2.17 -1.53,3.89 -3.05,5.24 1.47,1.23 2.9,2.82 3,4.84 0.23,3.18 0.09,6.4 0.12,9.57 0,4.87 0.09,9.75 -0.1,14.63 -0.06,2.06 0.32,4.28 -0.71,6.19 a 7,7 0 0 1 -6.14,3.65 h -16.64 c -0.05,-24.65 0,-49.34 0,-74 h 11.07 m -3.42,31.51 h 8.47 v -24.21 c -1.4,0 -2.81,0 -4.23,0 h -4.24 v 24.16 m 0,35.26 h 8.49 v -27.51 c -2.83,0 -5.67,0 -8.48,0 v 0 27.51 m 3.42,-73.77 h -11.11 a 7,7 0 0 0 -7,7 c 0,12.8 0,25.81 0,38.39 0,11.69 0,23.76 0,35.64 a 7,7 0 0 0 7,7.000003 h 16.67 a 14,14 0 0 0 12.3,-7.320003 15.66,15.66 0 0 0 1.56,-8.16 c 0,-0.42 0,-0.81 0,-1.12 0.15,-3.83 0.13,-7.65 0.11,-11.34 0,-1.18 0,-2.35 0,-3.53 v -0.08 c 0,-1 0,-2 0,-3 0,-2.25 0,-4.58 -0.14,-7 a 11.9,11.9 0 0 0 -1.19,-4.35 11.86,11.86 0 0 0 1.21,-5.2 v -23.45 c 0,-0.19 0,-0.37 0,-0.56 a 13.94,13.94 0 0 0 -13.87,-12.9 c -1.84,0 -3.71,0 -5.59,0 z"
     id="path10"
     style="fill:none;fill-opacity:1;stroke:#00ffff;stroke-opacity:1" />
  <path
     inkscape:connector-curvature="0"
     d="m 429.41037,25.657547 a 10.25,10.25 0 0 1 5.09,1 c 2.33,1.28 4.37,3.57 4.3,6.33 v 57 c 0,1.65 0.19,3.4 -0.57,4.94 a 8.28,8.28 0 0 1 -6.32,4.85 q -1.26,0 -2.52,0 h -5 a 9.58,9.58 0 0 1 -1.07,0.05 11.29,11.29 0 0 1 -3.31,-0.49 c -2.94,-1.15 -5.35,-4 -5.26,-7.31 v -56.93 a 11.07,11.07 0 0 1 0.49,-4.58 8.18,8.18 0 0 1 4.71,-4.41 13.56,13.56 0 0 1 3.81,-0.43 h 2.37 0.76 c 0.83,0 1.68,0 2.54,0 m -6.62,66.37 h 8.17 v -58.92 h -8.17 v 58.9 m 6.62,-73.37 h -1.43 -1.11 -0.76 -1.07 -1.3 a 20.59,20.59 0 0 0 -5.74,0.72 l -0.44,0.14 a 15.24,15.24 0 0 0 -8.73,8.18 15.49,15.49 0 0 0 -1.1,6.78 c 0,0.21 0,0.41 0,0.62 v 56.83 a 14.87,14.87 0 0 0 9.71,13.910003 5.34,5.34 0 0 0 0.52,0.18 18.22,18.22 0 0 0 5.34,0.79 c 0.45,0 0.91,0 1.36,-0.05 h 2.17 2.56 q 1.33,0 2.67,0 a 7,7 0 0 0 0.91,-0.08 15.18,15.18 0 0 0 11.61,-8.820003 15.36,15.36 0 0 0 1.23,-7.19 c 0,-0.24 0,-0.47 0,-0.7 v -56.9 c 0.09,-5 -2.94,-9.8 -7.93,-12.54 a 17.17,17.17 0 0 0 -8.46,-1.87 z"
     id="path12"
     style="fill:none;fill-opacity:1;stroke:#00ffff;stroke-opacity:1" />
  <path
     inkscape:connector-curvature="0"
     d="m 268.02037,10.667547 v 7.43 h -7.19 v 81.61 h -8.64 v -81.61 h -7.17 v -7.43 h 23 m 0,-7.0000002 h -23 a 7,7 0 0 0 -7,7.0000002 v 7.43 a 7,7 0 0 0 7,7 h 0.19 v 74.61 a 7,7 0 0 0 7,7.000003 h 8.64 a 7,7 0 0 0 7,-7.000003 v -74.61 h 0.17 a 7,7 0 0 0 7,-7 v -7.43 a 7,7 0 0 0 -7,-7.0000002 z"
     id="path16"
     style="fill:none;fill-opacity:1;stroke:#00ffff;stroke-opacity:1" />
  <path
     inkscape:connector-curvature="0"
     d="m 470.14037,10.717547 c 2,0 4.07,0.06 6.09,0.06 a 5.27,5.27 0 0 1 0.68,0 7.93,7.93 0 0 1 7.59,8.07 v 13.05 h -7.85 v -13.3 h -8.75 v 73.88 h 9 c -0.05,-11.88 0,-23.84 0,-35.76 h -4 v -7.17 h 11.59 c 0,16.71 0.05,33.43 0,50.14 h -16.13 a 8.11,8.11 0 0 1 -7.46,-4.91 c -0.62,-1.54 -0.41,-3.22 -0.44,-4.84 q 0,-35.58 0,-71.16 a 8.06,8.06 0 0 1 6.64,-8 c 1,0 2,-0.06 3.05,-0.06 m 0,-7.0000002 c -1.23,0 -2.32,0 -3.32,0.06 a 6.26,6.26 0 0 0 -1,0.11 15,15 0 0 0 -12.4,14.9100002 q 0,35.57 0,71.14 v 0.12 c 0,0.28 0,0.57 0,0.86 a 15.81,15.81 0 0 0 1,6.49 l 0.06,0.14 a 15.11,15.11 0 0 0 13.89,9.140003 h 16.19 a 7,7 0 0 0 7,-7.000003 c 0,-11.15 0,-22.49 0,-33.45 q 0,-8.35 0,-16.71 a 7,7 0 0 0 -7,-7 h -9.65 v -3.85 a 6.77,6.77 0 0 0 1.75,0.22 h 7.85 a 7,7 0 0 0 7,-7 v -12.93 a 14.68,14.68 0 0 0 -4.12,-10.5900002 14.55,14.55 0 0 0 -10.48,-4.64 h -1 -2.65 c -1,0 -2.09,0 -3.14,0 z"
     id="path18"
     style="fill:none;fill-opacity:1;stroke:#00ffff;stroke-opacity:1" />
  <path
     inkscape:connector-curvature="0"
     d="m 520.43037,25.687547 a 8.44,8.44 0 0 1 7.51,4.58 8,8 0 0 1 0.43,3.55 v 23.43 c -0.17,3.31 -2.52,6.68 -5.93,7.26 2.53,11.69 5,23.4 7.46,35.11 h -7.18 q -4,-17.37 -8,-34.74 h -2.55 v 34.85 h -7.31 q 0,-37 0,-74 h 15.61 m -8.22,31.25 h 8.58 v -24.06 h -8.58 v 24.06 m 8.18,-38.29 h -15.61 a 7,7 0 0 0 -7,7 q 0,37 0,74 a 7,7 0 0 0 7,7.000003 h 7.31 a 7,7 0 0 0 5.33,-2.46 7,7 0 0 0 5.24,2.35 h 7.18 a 7,7 0 0 0 6.85,-8.440003 l -0.71,-3.67 c -1.83,-8.64 -3.7,-17.53 -5.59,-26.36 a 15.15,15.15 0 0 0 5,-10.5 c 0,-0.12 0,-0.24 0,-0.36 v -23.12 a 15.12,15.12 0 0 0 -0.84,-6.22 6.55,6.55 0 0 0 -0.37,-0.86 15.41,15.41 0 0 0 -13.73,-8.36 z"
     id="path20"
     style="fill:none;fill-opacity:1;stroke:#00ffff;stroke-opacity:1" />
  <path
     inkscape:connector-curvature="0"
     d="m 557.85037,25.827547 h 6.69 0.37 a 7.35,7.35 0 0 1 4.48,1.55 6.73,6.73 0 0 1 2.39,5.24 v 67.1 h -7.21 v -35.18 h -9 v 35.18 h -7.31 q 0,-33.6 0,-67.11 a 6.91,6.91 0 0 1 6.23,-6.76 h 3.37 m -2.08,31.31 h 8.57 v -23.78 q -4.27,0 -8.57,0 v 23.76 m 2.08,-38.31 h -3.46 a 5.85,5.85 0 0 0 -0.59,0 13.9,13.9 0 0 0 -12.56,13.65 v 0.13 q 0,33.53 0,67.11 a 7,7 0 0 0 7,7.000003 h 7.31 a 7,7 0 0 0 4.49,-1.64 7,7 0 0 0 4.49,1.63 h 7.21 a 7,7 0 0 0 7,-7.000003 v -67.06 a 13.67,13.67 0 0 0 -4.89,-10.64 l -0.22,-0.18 a 14.41,14.41 0 0 0 -8.76,-3 h -7.06 z"
     id="path22"
     style="fill:none;fill-opacity:1;stroke:#00ffff;stroke-opacity:1" />
  <path
     inkscape:connector-curvature="0"
     d="m 608.72037,25.757547 v 6.62 h -11.06 c -0.06,8.23 0,16.54 0,24.82 h 9.14 v 7.28 h -9.14 v 35.16 h -7.43 v -67.48 a 6.56,6.56 0 0 1 6.16,-6.4 h 12.33 m 0,-7 h -12.79 a 13.63,13.63 0 0 0 -12.72,13.24 0.76,0.76 0 0 0 0,0.15 v 67.49 a 7,7 0 0 0 7,7.000003 h 7.43 a 7,7 0 0 0 7,-7.000003 v -28.16 h 2.14 a 7,7 0 0 0 7,-7 v -7.31 a 7,7 0 0 0 -7,-7 h -2.15 c 0,-0.44 0,-0.87 0,-1.3 0,-3.13 0,-6.33 0,-9.52 h 4.09 a 7,7 0 0 0 7,-7 v -6.59 a 7,7 0 0 0 -7,-7 z"
     id="path24"
     style="fill:none;fill-opacity:1;stroke:#00ffff;stroke-opacity:1" />
  <path
     inkscape:connector-curvature="0"
     d="m 651.07037,25.787547 v 14.75 c 0,2.29 0.22,4.65 -0.62,6.83 a 76,76 0 0 1 -6.87,12.9 c 2.92,4.68 6.08,9.42 7.41,14.84 0.16,8.23 0,16.46 0.06,24.69 h -7.2 v -24.76 c -1.21,-2.5 -3,-4.68 -4.49,-7.06 -1.5,2.3 -3.08,4.57 -4.58,6.82 v 25 h -7.6 v -23.22 c 0,-2.11 1,-4 1.83,-5.9 a 94.56,94.56 0 0 1 6.17,-10.45 c -3,-4.64 -6.4,-9.26 -7.87,-14.63 -0.3,-6.59 -0.1,-13.22 -0.17,-19.8 h 7.74 c 0,6.84 -0.1,13.71 0.07,20.53 1.31,2.2 2.84,4.26 4.21,6.4 1.36,-2.11 2.93,-4.09 4.15,-6.29 0.11,-6.88 0,-13.77 0,-20.65 h 7.76 m 0,-7 h -7.76 a 7,7 0 0 0 -4.23,1.41 7,7 0 0 0 -4.2,-1.4 h -7.74 a 7,7 0 0 0 -7,7.06 c 0,2.23 0,4.53 0,6.75 0,4.34 0,8.82 0.16,13.3 a 7.28,7.28 0 0 0 0.25,1.54 45.89,45.89 0 0 0 6.26,12.81 c -1.45,2.37 -2.81,4.79 -4.06,7.25 l -0.12,0.25 -0.19,0.42 a 19.56,19.56 0 0 0 -2.27,8.4 v 23.23 a 7,7 0 0 0 7,7.000003 h 7.6 a 7,7 0 0 0 4.54,-1.67 7,7 0 0 0 4.53,1.66 h 7.18 a 7,7 0 0 0 7,-7.000003 c 0,-2.54 0,-5.07 0,-7.61 0,-5.62 0,-11.44 -0.07,-17.2 a 6.63,6.63 0 0 0 -0.2,-1.54 47.16,47.16 0 0 0 -6,-13.17 83.14,83.14 0 0 0 5.09,-10.22 l 0.06,-0.16 a 21.06,21.06 0 0 0 1.1,-8.28 c 0,-0.36 0,-0.71 0,-1.07 v -14.76 a 7,7 0 0 0 -7,-7 z"
     id="path26"
     style="fill:none;fill-opacity:1;stroke:#00ffff;stroke-opacity:1" />
  <path
     inkscape:connector-curvature="0"
     d="m 283.94037,25.697547 h 7.62 c 0,22.19 0,44.38 0,66.56 h 8.57 v -66.56 h 7.73 v 63.79 a 20.07,20.07 0 0 1 -0.25,4.58 7.52,7.52 0 0 1 -7.18,5.66 h -9.2 a 7.77,7.77 0 0 1 -7.32,-7.78 c 0,-22.06 0.05,-44.16 0.03,-66.25 z"
     id="path30"
     style="fill:#ffffff;fill-opacity:1;stroke:#00ffff;stroke-opacity:1" />
  <path
     inkscape:connector-curvature="0"
     d="m 327.26037,25.697547 c 5.28,0 10.57,-0.06 15.85,0 3.74,0 7.75,2.88 7.79,6.87 v 24.28 c 0,3.51 -2.37,7.15 -6,7.8 2.5,11.7 5,23.39 7.45,35.08 h -7.17 q -4,-17.32 -8,-34.64 h -2.63 v 34.64 h -7.31 z m 7.63,7.31 v 24.16 h 8.47 v -24.18 z"
     id="path32"
     style="fill:#ffffff;fill-opacity:1;stroke:#00ffff;stroke-opacity:1" />
  <path
     inkscape:connector-curvature="0"
     d="m 371.71037,25.707547 c 5.54,0 11.07,-0.06 16.61,0 a 7,7 0 0 1 6.94,6.46 v 23.45 c 0,2.17 -1.53,3.89 -3.05,5.24 1.47,1.23 2.9,2.82 3,4.84 0.23,3.18 0.09,6.4 0.12,9.57 0,4.87 0.09,9.75 -0.1,14.63 -0.06,2.06 0.32,4.28 -0.71,6.19 a 7,7 0 0 1 -6.19,3.65 h -16.59 c -0.05,-24.65 0.03,-49.36 -0.03,-74.03 z m 7.65,7.32 v 24.17 h 8.47 v -24.16 c -2.81,0 -5.65,0 -8.47,0 z m 0,31.91 v 27.52 h 8.49 v -27.51 c -2.83,0 -5.67,0 -8.48,0 z"
     id="path34"
     style="fill:#ffffff;fill-opacity:1;stroke:#00ffff;stroke-opacity:1" />
  <path
     inkscape:connector-curvature="0"
     d="m 419.93037,26.107547 c 2.25,-0.65 4.62,-0.35 6.94,-0.41 2.54,0 5.3,-0.31 7.63,1 2.33,1.31 4.37,3.57 4.3,6.33 v 57 c 0,1.65 0.19,3.4 -0.57,4.94 a 8.28,8.28 0 0 1 -6.32,4.85 c -2.52,0.06 -5,0 -7.54,0 a 11.4,11.4 0 0 1 -4.38,-0.44 c -2.94,-1.15 -5.35,-4 -5.26,-7.31 v -56.98 a 11,11 0 0 1 0.49,-4.57 8.18,8.18 0 0 1 4.71,-4.41 z m 2.86,7 v 58.9 h 8.17 v -58.88 z"
     id="path36"
     style="fill:#ffffff;fill-opacity:1;stroke:#00ffff;stroke-opacity:1" />
  <path
     inkscape:connector-curvature="0"
     id="polygon40"
     d="m 252.21037,18.097547 h -7.19 v -7.43 h 23.02 v 7.43 h -7.2 v 81.61 h -8.63 z"
     style="fill:#ffffff;fill-opacity:1;stroke:#00ffff;stroke-opacity:1" />
  <path
     inkscape:connector-curvature="0"
     d="m 460.45037,18.777547 a 8.06,8.06 0 0 1 6.64,-8 c 3.05,-0.12 6.11,0 9.14,0 4.4,-0.47 8.51,3.65 8.27,8 v 13.12 h -7.85 v -13.3 h -8.75 v 73.88 h 9 c -0.05,-11.88 0,-23.84 0,-35.76 h -4 v -7.17 h 11.59 c 0,16.71 0.05,33.43 0,50.14 h -16.13 a 8.11,8.11 0 0 1 -7.46,-4.91 c -0.62,-1.54 -0.41,-3.22 -0.44,-4.84 q 0,-35.56 -0.01,-71.16 z"
     id="path42"
     style="fill:#ffffff;fill-opacity:1;stroke:#00ffff;stroke-opacity:1" />
  <path
     inkscape:connector-curvature="0"
     d="m 504.82037,25.697547 h 15.38 a 8.44,8.44 0 0 1 7.74,4.57 8,8 0 0 1 0.43,3.55 v 23.43 c -0.17,3.31 -2.52,6.68 -5.93,7.26 2.53,11.69 5,23.4 7.46,35.11 h -7.18 q -4,-17.37 -8,-34.74 h -2.55 v 34.85 h -7.31 q -0.02,-37 -0.04,-74.03 z m 7.43,7.22 v 24.06 h 8.58 v -24.06 z"
     id="path44"
     style="fill:#ffffff;fill-opacity:1;stroke:#00ffff;stroke-opacity:1" />
  <path
     inkscape:connector-curvature="0"
     d="m 548.25037,32.607547 a 6.91,6.91 0 0 1 6.23,-6.76 c 3.37,0 6.73,0 10.06,0 a 7.32,7.32 0 0 1 4.85,1.53 6.73,6.73 0 0 1 2.39,5.24 v 67.1 h -7.21 v -35.18 h -9 v 35.18 h -7.31 q -0.01,-33.6 -0.01,-67.11 z m 7.52,0.76 v 23.77 h 8.57 v -23.76 q -4.27,0 -8.57,0 z"
     id="path46"
     style="fill:#ffffff;fill-opacity:1;stroke:#00ffff;stroke-opacity:1" />
  <path
     inkscape:connector-curvature="0"
     d="m 590.20037,32.157547 a 6.56,6.56 0 0 1 6.16,-6.4 h 12.36 v 6.62 h -11.06 c -0.06,8.23 0,16.54 0,24.82 h 9.14 v 7.28 h -9.14 v 35.16 h -7.43 z"
     id="path48"
     style="fill:#ffffff;fill-opacity:1;stroke:#00ffff;stroke-opacity:1" />
  <path
     inkscape:connector-curvature="0"
     d="m 627.14037,25.797547 h 7.74 c 0,6.84 -0.1,13.71 0.07,20.53 1.31,2.2 2.84,4.26 4.21,6.4 1.36,-2.11 2.93,-4.09 4.15,-6.29 0.11,-6.88 0,-13.77 0,-20.65 h 7.76 v 14.75 c 0,2.29 0.22,4.65 -0.62,6.83 a 76,76 0 0 1 -6.87,12.9 c 2.92,4.68 6.08,9.42 7.41,14.84 0.16,8.23 0,16.46 0.06,24.69 h -7.2 v -24.76 c -1.21,-2.5 -3,-4.68 -4.49,-7.06 -1.5,2.3 -3.08,4.57 -4.58,6.82 v 25 h -7.6 v -23.22 c 0,-2.11 1,-4 1.83,-5.9 a 94.56,94.56 0 0 1 6.17,-10.45 c -3,-4.64 -6.4,-9.26 -7.87,-14.63 -0.29,-6.59 -0.1,-13.22 -0.17,-19.8 z"
     id="path50"
     style="fill:#ffffff;fill-opacity:1;stroke:#00ffff;stroke-opacity:1" />
  <path
     style="opacity:1;vector-effect:none;fill:#fffffe;fill-opacity:1;stroke:none;stroke-width:0.41588113;stroke-linecap:butt;stroke-linejoin:miter;stroke-miterlimit:4;stroke-dasharray:none;stroke-dashoffset:0;stroke-opacity:1"
     d="m 698.71804,77.835 -1.24388,-1.304087 V 62.807675 49.084437 l 1.16229,-1.147853 1.16229,-1.147852 h 14.74531 14.74532 l 1.14785,1.16229 1.14785,1.16229 v 2.578907 2.578908 h -1.54049 -1.54049 V 52.068794 49.86646 l -14.02949,0.05665 -14.02949,0.05665 -0.0587,5.666814 -0.0587,5.666813 h 14.49825 14.49825 l 1.02043,1.090924 1.02043,1.090924 v 6.55168 6.551681 l -1.35578,1.270247 -1.35577,1.270249 H 714.30776 699.962 Z m 29.6461,-3.018004 c 0.1813,-1.322773 0.1813,-7.858754 0,-9.181527 l -0.13995,-1.021032 H 714.4997 700.77521 v 5.611795 5.611796 h 13.72449 13.72449 z"
     id="path907"
     inkscape:connector-curvature="0" />
  <path
     style="opacity:1;vector-effect:none;fill:#fffffe;fill-opacity:1;stroke:none;stroke-width:0.41588113;stroke-linecap:butt;stroke-linejoin:miter;stroke-miterlimit:4;stroke-dasharray:none;stroke-dashoffset:0;stroke-opacity:1"
     d="m 680.30866,77.488556 v -1.650528 h 2.09067 2.09067 V 62.963908 50.089789 h -2.09067 -2.09067 v -1.760564 -1.760563 h 3.85124 3.85123 v 14.634683 14.634683 h 2.09067 2.09067 v 1.650528 1.650529 h -5.94191 -5.9419 z"
     id="path909"
     inkscape:connector-curvature="0" />
</svg>
