<?xml version="1.0" encoding="UTF-8" standalone="no"?>
<svg
   xmlns:dc="http://purl.org/dc/elements/1.1/"
   xmlns:cc="http://creativecommons.org/ns#"
   xmlns:rdf="http://www.w3.org/1999/02/22-rdf-syntax-ns#"
   xmlns:svg="http://www.w3.org/2000/svg"
   xmlns="http://www.w3.org/2000/svg"
   xmlns:sodipodi="http://sodipodi.sourceforge.net/DTD/sodipodi-0.dtd"
   xmlns:inkscape="http://www.inkscape.org/namespaces/inkscape"
   id="Layer_1"
   data-name="Layer 1"
   viewBox="0 0 1000 114"
   version="1.1"
   sodipodi:docname="logo.svg"
   inkscape:version="0.92.4 (5da689c313, 2019-01-14)">
  <metadata
     id="metadata57">
    <rdf:RDF>
      <cc:Work
         rdf:about="">
        <dc:format>image/svg+xml</dc:format>
        <dc:type
           rdf:resource="http://purl.org/dc/dcmitype/StillImage" />
        <dc:title>logo</dc:title>
      </cc:Work>
    </rdf:RDF>
  </metadata>
  <defs
     id="defs55" />
  <sodipodi:namedview
     pagecolor="#ffffff"
     bordercolor="#666666"
     borderopacity="1"
     objecttolerance="10"
     gridtolerance="10"
     guidetolerance="10"
     inkscape:pageopacity="0"
     inkscape:pageshadow="2"
     inkscape:window-width="1920"
     inkscape:window-height="1017"
     id="namedview53"
     showgrid="false"
     inkscape:pagecheckerboard="true"
     inkscape:zoom="1.6065466"
     inkscape:cx="426.86834"
     inkscape:cy="57"
     inkscape:window-x="-8"
     inkscape:window-y="-8"
     inkscape:window-maximized="1"
     inkscape:current-layer="Layer_1" />
  <title
     id="title2">logo</title>
  <g
     id="g903">
    <path
       sodipodi:nodetypes="cscccccccccccccccccccccccccccccccccccccccccsccccccccc"
       inkscape:connector-curvature="0"
       style="fill:none;fill-opacity:1;stroke:#28ffff;stroke-opacity:1"
       id="path4"
       d="m 710.73,24.25 c 29.17196,-0.013 48.15196,30.685361 35.10443,56.776261 C 732.7869,107.11716 696.83979,110.3476 679.35,87 678.96,86.47 678.58,85.94 678.21,85.39 662.38237,61.617324 676.37874,29.433638 704.56,24.8 v 0 c 2.0414,-0.317248 4.1041,-0.477717 6.17,-0.48 m -26.08,27 h 4.22 v 24.52 h -4.18 v 4.57 h 13.08 v -4.57 h -4.24 V 46.69 h -7.1 -1.78 v 4.54 M 701.8,49.6 v 0 c 0,9.19 -0.06,18.39 0,27.6 0.90243,1.107411 1.88867,2.143799 2.95,3.1 H 734 c 1.07,-1.39 3.34,-2.33 3,-4.38 V 64.11 c -0.71327,-0.979727 -1.5389,-1.872483 -2.46,-2.66 H 706 c -0.06,-3.42 0,-6.85 0,-10.27 h 27 v 4.29 h 4.07 v -6.1 c -0.84,-0.92 -1.72,-1.76 -2.58,-2.62 h -29.84 c -1.01148,0.886461 -1.96354,1.838518 -2.85,2.85 m 8.93,-32.35 c -2.43116,4.92e-4 -4.85855,0.191073 -7.26,0.57 -0.19538,0.02938 -0.389,0.06944 -0.58,0.12 -32.89877,5.805716 -49.02011,43.469723 -30.51,71.28 0.46,0.67 0.91,1.31 1.37,1.93 15.38117,20.52112 44.49082,24.67708 65,9.28 v 0 C 754.53475,88.39081 760.89265,67.631587 754.55724,48.817686 748.22183,30.003786 730.60192,17.318869 710.75,17.28 Z M 709.25684,65.930187 732.76,65.87 732.95665,70.602453 732.76,75.81 h -26.52 v -9.94 z" />
    <path
       style="fill:none;stroke:#28ffff;stroke-opacity:1;fill-opacity:1"
       id="path6"
       fill="#fff"
       d="M312.84,26.32V90.11a20.07,20.07,0,0,1-.25,4.58,7.52,7.52,0,0,1-7.18,5.66h-9.2a7.77,7.77,0,0,1-7.32-7.78c0-22.06.05-44.16,0-66.25h7.62c0,22.19,0,44.38,0,66.56h8.57V26.32h7.73m0-7h-7.73a7,7,0,0,0-4.29,1.46,6.94,6.94,0,0,0-4.28-1.46h-7.62a7,7,0,0,0-7,7q0,19.35,0,38.7,0,13.78,0,27.55a14.77,14.77,0,0,0,13.9,14.77h9.73a14.55,14.55,0,0,0,13.85-10.94,4.88,4.88,0,0,0,.12-.55,26.88,26.88,0,0,0,.35-5.94V26.32a7,7,0,0,0-7-7Z" />
    <path
       style="fill:none;stroke:#28ffff;stroke-opacity:1;fill-opacity:1"
       id="path8"
       fill="#fff"
       d="M342.81,26.29q2.64,0,5.28,0c3.74,0,7.75,2.88,7.79,6.87V57.47c0,3.51-2.37,7.15-6,7.8,2.5,11.7,5,23.39,7.45,35.08h-7.17q-4-17.32-8-34.64h-2.63v34.64h-7.31v-74c3.52,0,7,0,10.57,0m-2.94,31.5h8.47V33.61l-8.47,0V57.79m2.94-38.5H337.5l-5.26,0a7,7,0,0,0-7,7v74a7,7,0,0,0,7,7h7.31a7,7,0,0,0,5.31-2.44,7,7,0,0,0,5.31,2.44h7.17a7,7,0,0,0,6.85-8.47q-2.08-9.7-4.13-19.41l-2.25-10.61a15.37,15.37,0,0,0,5.06-11.39V33.11c-.1-8.41-7.71-13.71-14.7-13.79l-5.37,0Z" />
    <path
       style="fill:none;stroke:#28ffff;stroke-opacity:1;fill-opacity:1"
       id="path10"
       fill="#fff"
       d="M387.76,26.31c1.85,0,3.7,0,5.54,0a7,7,0,0,1,6.94,6.46V56.24c0,2.17-1.53,3.89-3.05,5.24,1.47,1.23,2.9,2.82,3,4.84.23,3.18.09,6.4.12,9.57,0,4.87.09,9.75-.1,14.63-.06,2.06.32,4.28-.71,6.19a7,7,0,0,1-6.14,3.65H376.72c-.05-24.65,0-49.34,0-74l11.07,0m-3.42,31.51h8.47V33.66c-1.4,0-2.81,0-4.23,0h-4.24V57.82m0,35.26h8.49V65.57c-2.83,0-5.67,0-8.48,0h0V93.08m3.42-73.77H376.69a7,7,0,0,0-7,7c0,12.8,0,25.81,0,38.39,0,11.69,0,23.76,0,35.64a7,7,0,0,0,7,7h16.67a14,14,0,0,0,12.3-7.32,15.66,15.66,0,0,0,1.56-8.16c0-.42,0-.81,0-1.12.15-3.83.13-7.65.11-11.34,0-1.18,0-2.35,0-3.53v-.08c0-1,0-2,0-3,0-2.25,0-4.58-.14-7A11.9,11.9,0,0,0,406,61.44a11.86,11.86,0,0,0,1.21-5.2V32.79c0-.19,0-.37,0-.56a13.94,13.94,0,0,0-13.87-12.9c-1.84,0-3.71,0-5.59,0Z" />
    <path
       style="fill:none;stroke:#28ffff;stroke-opacity:1;fill-opacity:1"
       id="path12"
       fill="#fff"
       d="M434.39,26.28a10.25,10.25,0,0,1,5.09,1c2.33,1.28,4.37,3.57,4.3,6.33v57c0,1.65.19,3.4-.57,4.94a8.28,8.28,0,0,1-6.32,4.85q-1.26,0-2.52,0l-5,0a9.58,9.58,0,0,1-1.07.05,11.29,11.29,0,0,1-3.31-.49c-2.94-1.15-5.35-4-5.26-7.31V35.72a11.07,11.07,0,0,1,.49-4.58,8.18,8.18,0,0,1,4.71-4.41,13.56,13.56,0,0,1,3.81-.43l2.37,0h.76c.83,0,1.68,0,2.54,0m-6.62,66.37h8.17V33.75h-8.17v58.9m6.62-73.37-1.43,0-1.11,0h-.76l-1.07,0h-1.3A20.59,20.59,0,0,0,423,20l-.44.14a15.24,15.24,0,0,0-8.73,8.18,15.49,15.49,0,0,0-1.1,6.78c0,.21,0,.41,0,.62V92.55a14.87,14.87,0,0,0,9.71,13.91,5.34,5.34,0,0,0,.52.18,18.22,18.22,0,0,0,5.34.79c.45,0,.91,0,1.36-.05h2.17l2.56,0q1.33,0,2.67,0a7,7,0,0,0,.91-.08,15.18,15.18,0,0,0,11.61-8.82,15.36,15.36,0,0,0,1.23-7.19c0-.24,0-.47,0-.7V33.69c.09-5-2.94-9.8-7.93-12.54a17.17,17.17,0,0,0-8.46-1.87Z" />
    <path
       style="fill:none;stroke:#28ffff;stroke-opacity:1;fill-opacity:1"
       id="path16"
       fill="#fff"
       d="M273,11.29v7.43h-7.19v81.61h-8.64V18.72H250V11.29h23m0-7H250a7,7,0,0,0-7,7v7.43a7,7,0,0,0,7,7h.19v74.61a7,7,0,0,0,7,7h8.64a7,7,0,0,0,7-7V25.72H273a7,7,0,0,0,7-7V11.29a7,7,0,0,0-7-7Z" />
    <path
       style="fill:none;stroke:#28ffff;stroke-opacity:1;fill-opacity:1"
       id="path18"
       fill="#fff"
       d="M475.12,11.34c2,0,4.07.06,6.09.06a5.27,5.27,0,0,1,.68,0,7.93,7.93,0,0,1,7.59,8.07V32.52h-7.85V19.22h-8.75V93.1h9c-.05-11.88,0-23.84,0-35.76h-4V50.17h11.59c0,16.71.05,33.43,0,50.14H473.34a8.11,8.11,0,0,1-7.46-4.91c-.62-1.54-.41-3.22-.44-4.84q0-35.58,0-71.16a8.06,8.06,0,0,1,6.64-8c1,0,2-.06,3.05-.06m0-7c-1.23,0-2.32,0-3.32.06a6.26,6.26,0,0,0-1,.11,15,15,0,0,0-12.4,14.91q0,35.57,0,71.14v.12c0,.28,0,.57,0,.86a15.81,15.81,0,0,0,1,6.49l.06.14a15.11,15.11,0,0,0,13.89,9.14h16.19a7,7,0,0,0,7-7c0-11.15,0-22.49,0-33.45q0-8.35,0-16.71a7,7,0,0,0-7-7h-9.65V39.3a6.77,6.77,0,0,0,1.75.22h7.85a7,7,0,0,0,7-7V19.59A14.68,14.68,0,0,0,492.38,9,14.55,14.55,0,0,0,481.9,4.36l-1,0-2.65,0c-1,0-2.09,0-3.14,0Z" />
    <path
       style="fill:none;stroke:#28ffff;stroke-opacity:1;fill-opacity:1"
       id="path20"
       fill="#fff"
       d="M525.41,26.31a8.44,8.44,0,0,1,7.51,4.58,8,8,0,0,1,.43,3.55V57.87c-.17,3.31-2.52,6.68-5.93,7.26,2.53,11.69,5,23.4,7.46,35.11H527.7q-4-17.37-8-34.74h-2.55v34.85h-7.31q0-37,0-74h15.61M517.23,57.6h8.58V33.54h-8.58V57.6m8.18-38.29H509.8a7,7,0,0,0-7,7q0,37,0,74a7,7,0,0,0,7,7h7.31a7,7,0,0,0,5.33-2.46,7,7,0,0,0,5.24,2.35h7.18a7,7,0,0,0,6.85-8.44L541,95.09c-1.83-8.64-3.7-17.53-5.59-26.36a15.15,15.15,0,0,0,5-10.5c0-.12,0-.24,0-.36V34.75a15.12,15.12,0,0,0-.84-6.22,6.55,6.55,0,0,0-.37-.86,15.41,15.41,0,0,0-13.73-8.36Z" />
    <path
       style="fill:none;stroke:#28ffff;stroke-opacity:1;fill-opacity:1"
       id="path22"
       fill="#fff"
       d="M562.83,26.45l6.69,0h.37A7.35,7.35,0,0,1,574.37,28a6.73,6.73,0,0,1,2.39,5.24v67.1h-7.21V65.16h-9v35.18h-7.31q0-33.6,0-67.11a6.91,6.91,0,0,1,6.23-6.76l3.37,0m-2.08,31.31h8.57V34q-4.27,0-8.57,0V57.76m2.08-38.31-3.46,0a5.85,5.85,0,0,0-.59,0A13.9,13.9,0,0,0,546.23,33.1v.13q0,33.53,0,67.11a7,7,0,0,0,7,7h7.31a7,7,0,0,0,4.49-1.64,7,7,0,0,0,4.49,1.63h7.21a7,7,0,0,0,7-7V33.27a13.67,13.67,0,0,0-4.89-10.64l-.22-.18a14.41,14.41,0,0,0-8.76-3h-7.06Z" />
    <path
       style="fill:none;stroke:#28ffff;stroke-opacity:1;fill-opacity:1"
       id="path24"
       fill="#fff"
       d="M613.7,26.38V33H602.64c-.06,8.23,0,16.54,0,24.82h9.14V65.1h-9.14v35.16h-7.43l0-67.48a6.56,6.56,0,0,1,6.16-6.4H613.7m0-7H600.91a13.63,13.63,0,0,0-12.72,13.24.76.76,0,0,0,0,.15l0,67.49a7,7,0,0,0,7,7h7.43a7,7,0,0,0,7-7V72.1h2.14a7,7,0,0,0,7-7V57.79a7,7,0,0,0-7-7h-2.15c0-.44,0-.87,0-1.3,0-3.13,0-6.33,0-9.52h4.09a7,7,0,0,0,7-7V26.38a7,7,0,0,0-7-7Z" />
    <path
       style="fill:none;stroke:#28ffff;stroke-opacity:1;fill-opacity:1"
       id="path26"
       fill="#fff"
       d="M656.05,26.41V41.16c0,2.29.22,4.65-.62,6.83a76,76,0,0,1-6.87,12.9c2.92,4.68,6.08,9.42,7.41,14.84.16,8.23,0,16.46.06,24.69h-7.2V75.66c-1.21-2.5-3-4.68-4.49-7.06-1.5,2.3-3.08,4.57-4.58,6.82v25h-7.6V77.2c0-2.11,1-4,1.83-5.9a94.56,94.56,0,0,1,6.17-10.45c-3-4.64-6.4-9.26-7.87-14.63-.3-6.59-.1-13.22-.17-19.8h7.74c0,6.84-.1,13.71.07,20.53,1.31,2.2,2.84,4.26,4.21,6.4,1.36-2.11,2.93-4.09,4.15-6.29.11-6.88,0-13.77,0-20.65h7.76m0-7h-7.76a7,7,0,0,0-4.23,1.41,7,7,0,0,0-4.2-1.4h-7.74a7,7,0,0,0-7,7.06c0,2.23,0,4.53,0,6.75,0,4.34,0,8.82.16,13.3a7.28,7.28,0,0,0,.25,1.54,45.89,45.89,0,0,0,6.26,12.81c-1.45,2.37-2.81,4.79-4.06,7.25l-.12.25-.19.42a19.56,19.56,0,0,0-2.27,8.4v23.23a7,7,0,0,0,7,7h7.6a7,7,0,0,0,4.54-1.67,7,7,0,0,0,4.53,1.66H656a7,7,0,0,0,7-7c0-2.54,0-5.07,0-7.61,0-5.62,0-11.44-.07-17.2a6.63,6.63,0,0,0-.2-1.54,47.16,47.16,0,0,0-6-13.17,83.14,83.14,0,0,0,5.09-10.22l.06-.16a21.06,21.06,0,0,0,1.1-8.28c0-.36,0-.71,0-1.07V26.41a7,7,0,0,0-7-7Z" />
    <path
       style="fill:#fffff3;stroke:#28ffff;stroke-opacity:1;fill-opacity:1"
       id="path28"
       fill="#f79226"
       d="M704.56,24.73A39.27,39.27,0,1,1,679.35,87c-.39-.53-.77-1.06-1.14-1.61a39.32,39.32,0,0,1,26.35-60.59Zm-19.91,22v4.57h4.22V75.84h-4.18v4.57h13.08V75.84h-4.24V46.69c-2.94,0-5.91.05-8.88,0Zm17.15,2.89c0,9.19-.06,18.39,0,27.6a27.87,27.87,0,0,0,2.95,3.1H734c1.07-1.39,3.34-2.33,3-4.38,0-3.94,0-7.88,0-11.81a15.51,15.51,0,0,0-2.46-2.66H706c-.06-3.42,0-6.85,0-10.27h27v4.29h4.07V49.37c-.84-.92-1.72-1.76-2.58-2.62H704.65a30.66,30.66,0,0,0-2.85,2.85Z" />
    <path
       style="fill:#fffff3;stroke:#28ffff;stroke-opacity:1;fill-opacity:1"
       id="path30"
       fill="#f79226"
       d="M288.92,26.32h7.62c0,22.19,0,44.38,0,66.56h8.57V26.32h7.73V90.11a20.07,20.07,0,0,1-.25,4.58,7.52,7.52,0,0,1-7.18,5.66h-9.2a7.77,7.77,0,0,1-7.32-7.78C288.89,70.51,288.94,48.41,288.92,26.32Z" />
    <path
       style="fill:#fffff3;stroke:#28ffff;stroke-opacity:1;fill-opacity:1"
       id="path32"
       fill="#f79226"
       d="M332.24,26.32c5.28,0,10.57-.06,15.85,0,3.74,0,7.75,2.88,7.79,6.87V57.47c0,3.51-2.37,7.15-6,7.8,2.5,11.7,5,23.39,7.45,35.08h-7.17q-4-17.32-8-34.64h-2.63v34.64h-7.31Zm7.63,7.31V57.79h8.47V33.61Z" />
    <path
       style="fill:#fffff3;stroke:#28ffff;stroke-opacity:1;fill-opacity:1"
       id="path34"
       fill="#f79226"
       d="M376.69,26.33c5.54,0,11.07-.06,16.61,0a7,7,0,0,1,6.94,6.46V56.24c0,2.17-1.53,3.89-3.05,5.24,1.47,1.23,2.9,2.82,3,4.84.23,3.18.09,6.4.12,9.57,0,4.87.09,9.75-.1,14.63-.06,2.06.32,4.28-.71,6.19a7,7,0,0,1-6.19,3.65H376.72C376.67,75.71,376.75,51,376.69,26.33Zm7.65,7.32V57.82h8.47V33.66c-2.81,0-5.65,0-8.47,0Zm0,31.91V93.08h8.49V65.57c-2.83,0-5.67,0-8.48,0Z" />
    <path
       style="fill:#fffff3;stroke:#28ffff;stroke-opacity:1;fill-opacity:1"
       id="path36"
       fill="#f79226"
       d="M424.91,26.73c2.25-.65,4.62-.35,6.94-.41,2.54,0,5.3-.31,7.63,1s4.37,3.57,4.3,6.33v57c0,1.65.19,3.4-.57,4.94a8.28,8.28,0,0,1-6.32,4.85c-2.52.06-5,0-7.54,0a11.4,11.4,0,0,1-4.38-.44c-2.94-1.15-5.35-4-5.26-7.31V35.71a11,11,0,0,1,.49-4.57A8.18,8.18,0,0,1,424.91,26.73Zm2.86,7v58.9h8.17V33.75Z" />
    <path
       style="fill:#fffff3;stroke:#28ffff;stroke-opacity:1;fill-opacity:1"
       id="path38"
       fill="#f79226"
       d="M706.24,65.87h26.52v9.94H706.24C706.24,72.48,706.19,69.18,706.24,65.87Z" />
    <path
       style="fill:#fffff3;fill-opacity:1;stroke:#28ffff;stroke-opacity:1"
       d="M 257.19,18.72 H 250 v -7.43 h 23.02 v 7.43 h -7.2 v 81.61 h -8.63 z"
       id="polygon40" />
    <path
       style="fill:#fffff3;stroke:#28ffff;stroke-opacity:1;fill-opacity:1"
       id="path42"
       fill="#d5e14d"
       d="M465.43,19.4a8.06,8.06,0,0,1,6.64-8c3.05-.12,6.11,0,9.14,0,4.4-.47,8.51,3.65,8.27,8V32.52h-7.85V19.22h-8.75V93.1h9c-.05-11.88,0-23.84,0-35.76h-4V50.17h11.59c0,16.71.05,33.43,0,50.14H473.34a8.11,8.11,0,0,1-7.46-4.91c-.62-1.54-.41-3.22-.44-4.84Q465.44,55,465.43,19.4Z" />
    <path
       style="fill:#fffff3;stroke:#28ffff;stroke-opacity:1;fill-opacity:1"
       id="path44"
       fill="#d5e14d"
       d="M509.8,26.32h15.38a8.44,8.44,0,0,1,7.74,4.57,8,8,0,0,1,.43,3.55V57.87c-.17,3.31-2.52,6.68-5.93,7.26,2.53,11.69,5,23.4,7.46,35.11H527.7q-4-17.37-8-34.74h-2.55v34.85h-7.31Q509.82,63.35,509.8,26.32Zm7.43,7.22V57.6h8.58V33.54Z" />
    <path
       style="fill:#fffff3;stroke:#28ffff;stroke-opacity:1;fill-opacity:1"
       id="path46"
       fill="#d5e14d"
       d="M553.23,33.23a6.91,6.91,0,0,1,6.23-6.76c3.37,0,6.73,0,10.06,0A7.32,7.32,0,0,1,574.37,28a6.73,6.73,0,0,1,2.39,5.24v67.1h-7.21V65.16h-9v35.18h-7.31Q553.23,66.74,553.23,33.23Zm7.52.76V57.76h8.57V34q-4.27,0-8.57,0Z" />
    <path
       style="fill:#fffff3;stroke:#28ffff;stroke-opacity:1;fill-opacity:1"
       id="path48"
       fill="#d5e14d"
       d="M595.18,32.78a6.56,6.56,0,0,1,6.16-6.4H613.7V33H602.64c-.06,8.23,0,16.54,0,24.82h9.14V65.1h-9.14v35.16h-7.43Z" />
    <path
       style="fill:#fffff3;stroke:#28ffff;stroke-opacity:1;fill-opacity:1"
       id="path50"
       fill="#d5e14d"
       d="M632.12,26.42h7.74c0,6.84-.1,13.71.07,20.53,1.31,2.2,2.84,4.26,4.21,6.4,1.36-2.11,2.93-4.09,4.15-6.29.11-6.88,0-13.77,0-20.65h7.76V41.16c0,2.29.22,4.65-.62,6.83a76,76,0,0,1-6.87,12.9c2.92,4.68,6.08,9.42,7.41,14.84.16,8.23,0,16.46.06,24.69h-7.2V75.66c-1.21-2.5-3-4.68-4.49-7.06-1.5,2.3-3.08,4.57-4.58,6.82v25h-7.6V77.2c0-2.11,1-4,1.83-5.9a94.56,94.56,0,0,1,6.17-10.45c-3-4.64-6.4-9.26-7.87-14.63C632,39.63,632.19,33,632.12,26.42Z" />
  </g>
</svg>
