<?xml version="1.0" encoding="UTF-8" standalone="no"?>
<svg
   xmlns:dc="http://purl.org/dc/elements/1.1/"
   xmlns:cc="http://creativecommons.org/ns#"
   xmlns:rdf="http://www.w3.org/1999/02/22-rdf-syntax-ns#"
   xmlns:svg="http://www.w3.org/2000/svg"
   xmlns="http://www.w3.org/2000/svg"
   xmlns:sodipodi="http://sodipodi.sourceforge.net/DTD/sodipodi-0.dtd"
   xmlns:inkscape="http://www.inkscape.org/namespaces/inkscape"
   width="127"
   height="20"
   viewBox="0 0 127 20"
   version="1.1"
   id="svg3739"
   sodipodi:docname="system.svg"
   inkscape:version="0.92.4 (5da689c313, 2019-01-14)">
  <metadata
     id="metadata3743">
    <rdf:RDF>
      <cc:Work
         rdf:about="">
        <dc:format>image/svg+xml</dc:format>
        <dc:type
           rdf:resource="http://purl.org/dc/dcmitype/StillImage" />
        <dc:title>system</dc:title>
      </cc:Work>
    </rdf:RDF>
  </metadata>
  <sodipodi:namedview
     pagecolor="#ffffff"
     bordercolor="#666666"
     borderopacity="1"
     objecttolerance="10"
     gridtolerance="10"
     guidetolerance="10"
     inkscape:pageopacity="0"
     inkscape:pageshadow="2"
     inkscape:window-width="1920"
     inkscape:window-height="1137"
     id="namedview3741"
     showgrid="false"
     inkscape:zoom="7.5183342"
     inkscape:cx="98.492563"
     inkscape:cy="8.1535411"
     inkscape:window-x="-8"
     inkscape:window-y="344"
     inkscape:window-maximized="1"
     inkscape:current-layer="svg3739"
     scale-x="2" />
  <!-- Generator: Sketch 45 (43475) - http://www.bohemiancoding.com/sketch -->
  <title
     id="title3729">system</title>
  <desc
     id="desc3731">Created with Sketch.</desc>
  <defs
     id="defs3733" />
  <g
     inkscape:groupmode="layer"
     id="layer1"
     inkscape:label="Layer 1"
     transform="translate(0,2)" />
  <g
     inkscape:groupmode="layer"
     id="layer2"
     inkscape:label="Layer 2"
     transform="translate(0,2)" />
  <g
     aria-label="SUPER GRAFX"
     style="font-style:normal;font-variant:normal;font-weight:normal;font-stretch:normal;font-size:21.33333397px;line-height:1.25;font-family:Arial;-inkscape-font-specification:Arial;letter-spacing:0px;word-spacing:0px;fill:none;fill-opacity:1;stroke:#ffffff;stroke-width:0.5;stroke-miterlimit:4;stroke-dasharray:none;stroke-opacity:1"
     id="text4643">
    <path
       d="m 1.9092153,12.289442 1.5488282,-0.135417 q 0.110026,0.93099 0.5078125,1.531901 0.40625,0.592448 1.2526042,0.964844 0.8463542,0.363932 1.904297,0.363932 0.9394531,0 1.6588542,-0.279296 0.7194011,-0.279297 1.0664063,-0.761719 0.3554683,-0.490886 0.3554683,-1.066407 0,-0.583984 -0.3385412,-1.015625 Q 9.5264031,11.451551 8.7477572,11.155327 8.2484083,10.960666 6.5387728,10.554416 4.8291373,10.139702 4.1435904,9.7757699 3.2549185,9.3102751 2.8148143,8.6247282 2.3831737,7.9307178 2.3831737,7.0759001 q 0,-0.9394532 0.5332031,-1.7519532 Q 3.44958,4.5029833 4.4736685,4.0798062 5.4977571,3.6566291 6.7503613,3.6566291 q 1.3795574,0 2.4290366,0.4485677 1.0579431,0.4401042 1.6250001,1.3033855 0.567057,0.8632813 0.609375,1.9550782 L 9.8395542,7.4821501 Q 9.712601,6.3057177 8.9762729,5.7048063 8.2484083,5.1038948 6.8180697,5.1038948 q -1.4895834,0 -2.1751303,0.5501302 -0.6770834,0.5416667 -0.6770834,1.311849 0,0.6686198 0.4824219,1.1002605 0.4739584,0.4316406 2.4713543,0.8886719 2.0058594,0.4485677 2.7506511,0.7871094 1.0833337,0.4993492 1.5996097,1.2695312 0.516276,0.761719 0.516276,1.760417 0,0.990234 -0.567058,1.870443 -0.567057,0.871744 -1.6334631,1.36263 -1.0579428,0.482422 -2.3867188,0.482422 -1.6842449,0 -2.8268231,-0.490886 Q 3.2379914,15.505588 2.5862987,14.523817 1.9430695,13.533583 1.9092153,12.289442 Z"
       style="font-size:17.33333397px;fill:none;fill-opacity:1;stroke:#ffffff;stroke-width:0.5;stroke-miterlimit:4;stroke-dasharray:none;stroke-opacity:1"
       id="path5404"
       inkscape:connector-curvature="0" />
    <path
       d="m 22.187861,3.8682176 h 1.641928 v 7.1686204 q 0,1.870442 -0.423177,2.970703 -0.423178,1.10026 -1.531902,1.794271 -1.10026,0.685547 -2.894531,0.685547 -1.74349,0 -2.852214,-0.600912 -1.108724,-0.600911 -1.582682,-1.735026 -0.473958,-1.142578 -0.473958,-3.114583 V 3.8682176 h 1.641927 v 7.1601564 q 0,1.616537 0.296224,2.386719 0.304687,0.761719 1.032552,1.176432 0.736328,0.414714 1.794271,0.414714 1.811198,0 2.58138,-0.820964 0.770182,-0.820963 0.770182,-3.156901 z"
       style="font-size:17.33333397px;fill:none;fill-opacity:1;stroke:#ffffff;stroke-width:0.5;stroke-miterlimit:4;stroke-dasharray:none;stroke-opacity:1"
       id="path5406"
       inkscape:connector-curvature="0" />
    <path
       d="M 26.571977,16.27577 V 3.8682176 h 4.680339 q 1.235677,0 1.88737,0.1184896 0.914062,0.1523438 1.531901,0.5839844 0.617838,0.4231771 0.990234,1.1933595 0.38086,0.7701823 0.38086,1.6927083 0,1.5826824 -1.007162,2.6829426 -1.007161,1.091797 -3.639323,1.091797 h -3.182292 v 5.044271 z m 1.641927,-6.5084636 h 3.207683 q 1.591145,0 2.259765,-0.5924479 0.66862,-0.592448 0.66862,-1.6673178 0,-0.7786459 -0.397786,-1.3287761 Q 33.562863,5.6201708 32.919634,5.4424365 32.50492,5.3324104 31.387732,5.3324104 h -3.173828 z"
       style="font-size:17.33333397px;fill:none;fill-opacity:1;stroke:#ffffff;stroke-width:0.5;stroke-miterlimit:4;stroke-dasharray:none;stroke-opacity:1"
       id="path5408"
       inkscape:connector-curvature="0" />
    <path
       d="M 38.183956,16.27577 V 3.8682176 h 8.971355 v 1.4641928 h -7.329428 v 3.8001304 h 6.863933 V 10.58827 h -6.863933 v 4.223307 h 7.617188 v 1.464193 z"
       style="font-size:17.33333397px;fill:none;fill-opacity:1;stroke:#ffffff;stroke-width:0.5;stroke-miterlimit:4;stroke-dasharray:none;stroke-opacity:1"
       id="path5410"
       inkscape:connector-curvature="0" />
    <path
       d="M 49.753618,16.27577 V 3.8682176 h 5.501302 q 1.658854,0 2.522135,0.3385417 0.863282,0.3300782 1.379558,1.1764324 0.516276,0.8463542 0.516276,1.8704427 0,1.3203126 -0.854818,2.2259116 -0.854818,0.905599 -2.640625,1.151042 0.651693,0.313151 0.990234,0.617838 0.719401,0.660157 1.362631,1.650391 l 2.158203,3.376953 H 58.62341 l -1.641927,-2.58138 q -0.719402,-1.117188 -1.184896,-1.709636 -0.465495,-0.592448 -0.837891,-0.829427 -0.363932,-0.236979 -0.744792,-0.330078 -0.279297,-0.05924 -0.914062,-0.05924 h -1.904297 v 5.509766 z m 1.641927,-6.9316407 h 3.529297 q 1.125651,0 1.760417,-0.2285156 0.634765,-0.2369792 0.964843,-0.7447917 0.330078,-0.5162761 0.330078,-1.1171876 0,-0.8802083 -0.643229,-1.4472656 -0.634765,-0.5670574 -2.014323,-0.5670574 h -3.927083 z"
       style="font-size:17.33333397px;fill:none;fill-opacity:1;stroke:#ffffff;stroke-width:0.5;stroke-miterlimit:4;stroke-dasharray:none;stroke-opacity:1"
       id="path5412"
       inkscape:connector-curvature="0" />
    <path
       d="M 72.867549,11.409234 V 9.9535043 l 5.255859,-0.00846 v 4.6041677 q -1.210286,0.964843 -2.496744,1.455729 -1.286459,0.482422 -2.640626,0.482422 -1.828125,0 -3.326172,-0.778646 -1.489583,-0.78711 -2.251302,-2.268229 -0.761718,-1.48112 -0.761718,-3.309245 0,-1.8111988 0.753255,-3.376954 0.761719,-1.5742188 2.183594,-2.3359376 1.421875,-0.7617188 3.27539,-0.7617188 1.345704,0 2.429037,0.4401042 1.091797,0.4316406 1.709635,1.2102865 0.617839,0.7786458 0.939454,2.0312501 l -1.48112,0.40625 Q 76.176794,6.7966032 75.76208,6.2549365 75.347367,5.7132698 74.577184,5.3916552 73.807002,5.0615771 72.867549,5.0615771 q -1.125651,0 -1.946615,0.3470052 -0.820963,0.3385417 -1.328776,0.8971354 -0.499349,0.5585938 -0.778646,1.2272136 -0.473958,1.1510417 -0.473958,2.4967447 0,1.658854 0.567057,2.776042 0.575521,1.117188 1.667318,1.658854 1.091797,0.541667 2.319011,0.541667 1.066406,0 2.082031,-0.40625 1.015625,-0.414714 1.540364,-0.880208 v -2.310547 z"
       style="font-size:17.33333397px;fill:none;fill-opacity:1;stroke:#ffffff;stroke-width:0.5;stroke-miterlimit:4;stroke-dasharray:none;stroke-opacity:1"
       id="path5414"
       inkscape:connector-curvature="0" />
    <path
       d="M 80.560911,16.27577 V 3.8682176 h 5.501302 q 1.658854,0 2.522135,0.3385417 0.863282,0.3300782 1.379558,1.1764324 0.516276,0.8463542 0.516276,1.8704427 0,1.3203126 -0.854818,2.2259116 -0.854818,0.905599 -2.640625,1.151042 0.651693,0.313151 0.990234,0.617838 0.719401,0.660157 1.362631,1.650391 l 2.158203,3.376953 H 89.430703 L 87.788775,13.69439 Q 87.069374,12.577202 86.60388,11.984754 86.138385,11.392306 85.765989,11.155327 85.402057,10.918348 85.021197,10.825249 84.7419,10.766004 84.107135,10.766004 h -1.904297 v 5.509766 z m 1.641927,-6.9316407 h 3.529297 q 1.125651,0 1.760416,-0.2285156 0.634766,-0.2369792 0.964844,-0.7447917 0.330078,-0.5162761 0.330078,-1.1171876 0,-0.8802083 -0.643229,-1.4472656 -0.634765,-0.5670574 -2.014323,-0.5670574 h -3.927083 z"
       style="font-size:17.33333397px;fill:none;fill-opacity:1;stroke:#ffffff;stroke-width:0.5;stroke-miterlimit:4;stroke-dasharray:none;stroke-opacity:1"
       id="path5416"
       inkscape:connector-curvature="0" />
    <path
       d="M 91.698929,16.27577 96.463903,3.8682176 h 1.76888 L 103.31091,16.27577 h -1.87044 L 99.9932,12.517958 h -5.188151 l -1.362631,3.757812 z m 3.580078,-5.095052 h 4.20638 L 98.190466,7.7445199 Q 97.598018,6.1787646 97.310257,5.1716031 97.073278,6.3649625 96.641637,7.5413949 Z"
       style="font-size:17.33333397px;fill:none;fill-opacity:1;stroke:#ffffff;stroke-width:0.5;stroke-miterlimit:4;stroke-dasharray:none;stroke-opacity:1"
       id="path5418"
       inkscape:connector-curvature="0" />
    <path
       d="M 104.72432,16.27577 V 3.8682176 h 8.37044 v 1.4641928 h -6.72851 v 3.8424481 h 5.82291 v 1.4641925 h -5.82291 v 5.636719 z"
       style="font-size:17.33333397px;fill:none;fill-opacity:1;stroke:#ffffff;stroke-width:0.5;stroke-miterlimit:4;stroke-dasharray:none;stroke-opacity:1"
       id="path5420"
       inkscape:connector-curvature="0" />
    <path
       d="m 113.97498,16.27577 4.79882,-6.4661459 -4.23177,-5.9414065 h 1.95508 l 2.2513,3.1822918 q 0.70248,0.9902344 0.9987,1.5234376 0.41471,-0.6770834 0.98177,-1.4134115 l 2.49675,-3.2923179 h 1.7858 l -4.35872,5.8483076 4.69727,6.5592448 h -2.03125 l -3.12305,-4.426432 q -0.26237,-0.38086 -0.54167,-0.829427 -0.41471,0.677083 -0.59245,0.930989 l -3.11458,4.32487 z"
       style="font-size:17.33333397px;fill:none;fill-opacity:1;stroke:#ffffff;stroke-width:0.5;stroke-miterlimit:4;stroke-dasharray:none;stroke-opacity:1"
       id="path5422"
       inkscape:connector-curvature="0" />
  </g>
</svg>
