<?xml version="1.0" encoding="UTF-8" standalone="no"?>
<svg
   xmlns:dc="http://purl.org/dc/elements/1.1/"
   xmlns:cc="http://creativecommons.org/ns#"
   xmlns:rdf="http://www.w3.org/1999/02/22-rdf-syntax-ns#"
   xmlns:svg="http://www.w3.org/2000/svg"
   xmlns="http://www.w3.org/2000/svg"
   xmlns:sodipodi="http://sodipodi.sourceforge.net/DTD/sodipodi-0.dtd"
   xmlns:inkscape="http://www.inkscape.org/namespaces/inkscape"
   id="Capa_1"
   data-name="Capa 1"
   viewBox="0 0 1000 113.99998"
   version="1.1"
   sodipodi:docname="logo.svg"
   inkscape:version="0.92.4 (5da689c313, 2019-01-14)">
  <metadata
     id="metadata52">
    <rdf:RDF>
      <cc:Work
         rdf:about="">
        <dc:format>image/svg+xml</dc:format>
        <dc:type
           rdf:resource="http://purl.org/dc/dcmitype/StillImage" />
        <dc:title>logo</dc:title>
      </cc:Work>
    </rdf:RDF>
  </metadata>
  <sodipodi:namedview
     pagecolor="#ffffff"
     bordercolor="#666666"
     borderopacity="1"
     objecttolerance="10"
     gridtolerance="10"
     guidetolerance="10"
     inkscape:pageopacity="0"
     inkscape:pageshadow="2"
     inkscape:window-width="1920"
     inkscape:window-height="1017"
     id="namedview50"
     showgrid="false"
     inkscape:pagecheckerboard="true"
     inkscape:zoom="2.272"
     inkscape:cx="500"
     inkscape:cy="156.59249"
     inkscape:window-x="-8"
     inkscape:window-y="-8"
     inkscape:window-maximized="1"
     inkscape:current-layer="Capa_1" />
  <defs
     id="defs9">
    <linearGradient
       id="linear-gradient"
       x1="484.95174"
       y1="107.00002"
       x2="484.95174"
       y2="14.39138"
       gradientUnits="userSpaceOnUse">
      <stop
         offset="0.3"
         stop-color="#f2e500"
         id="stop2" />
      <stop
         offset="0.6"
         stop-color="#f39519"
         id="stop4" />
      <stop
         offset="1"
         stop-color="#e6680b"
         id="stop6" />
    </linearGradient>
  </defs>
  <title
     id="title11">logo</title>
  <g
     id="g872">
    <path
       style="fill:none;stroke:#00ffff;stroke-opacity:1;stroke-width:1.88976378;stroke-miterlimit:4;stroke-dasharray:none"
       id="path15"
       fill="#fff"
       d="M378.69268,14.42022l105.78143,92.57043L347.92241,23.77147a6.06974,6.06974,0,0,1-2.35376-4.87921c0-3.282,4.27356-4.472,4.27356-4.472h28.85047m6.73285,23.36839h3.9646c1.52386,0,2.24237-1.20335.40969-2.68957l-13.89471-11.4295h-6.8533c-1.52417,0-1.27808,1.20368.55432,2.68526l15.8194,11.43381M378.69268,7.42022H349.84221a7.00078,7.00078,0,0,0-1.87787.25658c-4.67675,1.30235-9.39569,5.27535-9.39569,11.21546a13.10662,13.10662,0,0,0,5.43109,10.67685q.13779.09323.27982.17979l136.55167,83.21919a7,7,0,0,0,8.25271-11.24518L383.30251,9.15247a6.9999,6.9999,0,0,0-4.60983-1.73225Z" />
    <path
       style="fill:none;stroke:#00ffff;stroke-opacity:1;stroke-width:1.88976378;stroke-miterlimit:4;stroke-dasharray:none"
       id="path19"
       fill="#fff"
       d="M417.49587,14.40594a9.71117,9.71117,0,0,1,6.61917,3.079,32.33422,32.33422,0,0,1,5.54645,7.22167l54.81262,82.284L399.15184,27.36829h12.84327l9.89184,9.4945h1.97266c1.505,0,1.6734-1.20338.37591-2.68932L415.453,23.83641h-19.9812l-10.05115-9.41618h31.73523a3.20976,3.20976,0,0,1,.34-.01429m0-7c-.21256,0-.40457.00565-.57391.01429H385.42064a7,7,0,0,0-4.78576,12.10847L390.686,28.94488a6.99812,6.99812,0,0,0,2.11158,1.36059A6.9888,6.9888,0,0,0,394.376,32.486l85.32226,79.62235a7,7,0,0,0,10.60163-8.99849L435.65328,21.0751a39.68673,39.68673,0,0,0-6.66031-8.61066,16.69923,16.69923,0,0,0-11.4971-5.0585Z" />
    <path
       style="fill:none;stroke:#00ffff;stroke-opacity:1;stroke-width:1.88976378;stroke-miterlimit:4;stroke-dasharray:none"
       id="path23"
       fill="#fff"
       d="M460.43212,14.42023l5.57977,19.92882c.362,1.54156-.3905,2.46277-2.77759,2.51374h-2.46l24.65955,70.12785L447.627,36.86279h-3.4627c-2.89869-.051-3.55957-1.384-4.47077-2.86553l-11.9613-19.577h13.67322l4.94354,9.791a4.21384,4.21384,0,0,0,3.47241,2.33783c1.32629,0,1.92438-1.04612,1.33606-2.33783l-3.97894-9.791h13.2536m0-7h-13.2536A6.99623,6.99623,0,0,0,444.292,8.043a6.99149,6.99149,0,0,0-2.88659-.62282H427.73223a7,7,0,0,0-5.9733,10.64962l11.9613,19.577.13215.21609a11.19347,11.19347,0,0,0,9.58334,5.97639l35.83655,66.4731a7,7,0,0,0,12.76523-5.6439L469.90761,41.73464a8.46872,8.46872,0,0,0,1.41458-1.43282,8.80071,8.80071,0,0,0,1.50431-7.553q-.03389-.14427-.07386-.28706l-5.57977-19.92882a6.99993,6.99993,0,0,0-6.74075-5.11268Z" />
    <path
       style="fill:none;stroke:#00ffff;stroke-opacity:1;stroke-width:1.88976378;stroke-miterlimit:4;stroke-dasharray:none"
       id="path27"
       fill="#fff"
       d="M585.75084,14.40654,576.0811,23.4473H560.59948a1.0961,1.0961,0,0,0-.9646.6943l-.65119,1.6065a.48516.48516,0,0,0,.48249.69432h13.49444L563.99,34.502H550.66875a1.09619,1.09619,0,0,0-.96429.69459l-.36652,1.66156a.48519.48519,0,0,0,.48248.69426h11.33374l-73.79107,69.43823,65.592-92.58411h32.79571M561.15416,37.55242h.005M585.75084,7.40654H552.95513A7,7,0,0,0,547.24331,10.36l-65.592,92.58412a7,7,0,0,0,10.509,9.14441L565.874,42.723a7.02518,7.02518,0,0,0,1.598-2.14844,6.99857,6.99857,0,0,0,1.19623-.86544l8.97068-8.05959a6.99081,6.99081,0,0,0,1.49255-1.90178,6.99722,6.99722,0,0,0,1.73028-1.18719l9.66974-9.04076a7,7,0,0,0-4.78064-12.11324Zm0,14h0Z" />
    <path
       style="fill:none;stroke:#00ffff;stroke-opacity:1;stroke-width:1.88976378;stroke-miterlimit:4;stroke-dasharray:none"
       id="path31"
       fill="#fff"
       d="M624.33483,14.40653h.005m-.005,0L600.07525,33.60847c-2.17988,1.48156-4.43708,2.86553-5.9657,2.86553h-5.402l-99.41522,70.51667L575.5219,36.474h-4.3985q-.03987.00117-.07818.00117c-2.71,0,.34478-4.34395,2.00744-5.86654l17.52155-16.2021,10.813.1203L590.603,24.51677c-1.69318,1.29163.26031,2.66163,1.59149,2.66163.13421,0,.27514.00084.42242.00084a8.2508,8.2508,0,0,0,5.05634-1.40344l13.90954-11.36927h12.752m-33.76068-7a6.9998,6.9998,0,0,0-4.75238,1.86054l-17.52155,16.2021c-.68335.62563-6.52881,6.1954-5.10358,12.04151l-78.33572,64.06123a7,7,0,0,0,8.48123,11.12829L590.9381,43.474h3.17145c3.2503,0,6.198-1.55966,9.90057-4.07613q.21012-.14285.40955-.3007l24.17-19.131a6.99949,6.99949,0,0,0-4.24982-12.55962h-12.757a7.00009,7.00009,0,0,0-4.43005,1.58013l-.77374.63249a6.99843,6.99843,0,0,0-4.91388-2.09188l-10.813-.1203-.07794-.00044Zm33.76068,14h0Z" />
    <path
       style="fill:none;stroke:#00ffff;stroke-opacity:1;stroke-width:1.88976378;stroke-miterlimit:4;stroke-dasharray:none"
       id="path35"
       fill="#fff"
       d="M516.12578,14.405a2.64471,2.64471,0,0,1,.31476.0152h30.72272l-6.04346,9.041H521.00292a1.20257,1.20257,0,0,0-1.1427.92586l-.53552,2.069a.74926.74926,0,0,0,.77191.92615H538.4627l-51.94831,79.55743,19.1037-69.37794H521.4323a1.92283,1.92283,0,0,0,1.28259-.69432l.99891-1.66183c.30865-.38414.23638-.69432-.15961-.69432H506.17278l3.45758-13.61006s1.0083-3.58744,2.9566-5.16134a5.69187,5.69187,0,0,1,3.53882-1.33485M538.4627,27.38226h.005M516.12578,7.405a12.67528,12.67528,0,0,0-7.94427,2.895c-3.41214,2.75641-4.91184,7.3615-5.29,8.70711q-.02385.085-.04563.17048L499.38826,32.7877a6.99837,6.99837,0,0,0-.209,2.02691,7.032,7.032,0,0,0-.31.88882l-19.1037,69.37794a6.99984,6.99984,0,0,0,12.61,5.68544l51.85574-79.41565a6.96563,6.96563,0,0,0,1.018-2.23763,6.995,6.995,0,0,0,1.69-1.76219l6.04349-9.04105a7,7,0,0,0-5.81958-10.89006H516.6939c-.17041-.00927-.36057-.01521-.56812-.01521Z" />
    <path
       style="fill:none;stroke:#00ffff;stroke-opacity:1;stroke-width:1.88976378;stroke-miterlimit:4;stroke-dasharray:none"
       id="path39"
       fill="#fff"
       d="M470.64144,14.39134a2.9017,2.9017,0,0,1,.32394.0152h34.72528L503.882,23.4473H481.7445a.705.705,0,0,0-.72339.92586l.31341,2.06926a1.31536,1.31536,0,0,0,1.20557.92586h20.382L485.90661,107,470.74816,37.55242H488.569a1.09638,1.09638,0,0,0,.9646-.69426l.36658-1.66156a.48531.48531,0,0,0-.48249-.69459H470.02446l-2.91778-13.61476s-.64118-3.58751.58862-5.16136a3.71611,3.71611,0,0,1,2.94614-1.33455m32.28067,12.97694h.005M470.64144,7.39133a10.62581,10.62581,0,0,0-8.46189,4.0245c-2.84753,3.64421-2.32186,8.69889-1.96371,10.703q.02115.11807.04623.23533l2.91782,13.61476a7.0007,7.0007,0,0,0,.56842,1.63485,6.99722,6.99722,0,0,0,.16089,1.44145l15.15845,69.44755A7,7,0,0,0,485.90642,114l.01554,0a7,7,0,0,0,6.83013-5.53723l16.96653-79.4026a7.01164,7.01164,0,0,0,.206-1.69184q0-.18582-.00958-.36947a6.98777,6.98777,0,0,0,.83087-2.17827l1.80875-9.04076a7,7,0,0,0-6.864-8.37324H471.21474c-.17087-.00921-.36288-.01521-.5733-.01521Z" />
    <path
       inkscape:connector-curvature="0"
       style="fill:#ffffff;fill-opacity:1"
       id="path45"
       d="m 369.6061,26.35477 c -1.8324,-1.48156 -2.07849,-2.68528 -0.55435,-2.68528 h 6.85328 l 13.89473,11.42947 c 1.83272,1.48622 1.11417,2.68962 -0.40964,2.68962 h -3.96464 z m -21.68373,-2.58333 136.55173,83.21922 -54.81266,-82.284 a 32.333,32.333 0 0 0 -5.54641,-7.22164 c -3.5641,-3.46724 -6.95917,-3.06476 -6.95917,-3.06476 h -31.73524 l 10.05116,9.41617 h 19.98119 l 8.78249,10.33706 c 1.29748,1.48591 1.1291,2.68931 -0.37593,2.68931 h -1.97256 l -9.89184,-9.49449 H 399.15179 L 484.4741,106.9907 378.69265,14.42022 h -28.85049 c 0,0 -4.27354,1.19 -4.27354,4.472 a 6.0697,6.0697 0 0 0 2.35375,4.87922 z m 137.51148,83.21922 -24.65951,-70.1279 h 2.45993 c 2.38711,-0.051 3.13959,-0.97217 2.77758,-2.51371 l -5.57977,-19.92883 h -13.25356 l 3.97888,9.791 c 0.58835,1.29167 -0.01,2.33781 -1.336,2.33781 a 4.214,4.214 0 0 1 -3.47246,-2.33781 l -4.94349,-9.791 h -13.67322 l 11.96127,19.577 c 0.91118,1.48156 1.57206,2.81456 4.47074,2.86553 h 3.46273 z m 3.85843,0 99.41517,-70.5167 h 5.402 c 1.52863,0 3.78586,-1.384 5.9657,-2.86554 l 24.25961,-19.20187 h -12.752 l -13.90954,11.36921 a 8.66189,8.66189 0 0 1 -5.47874,1.40262 c -1.33115,0 -3.28466,-1.37 -1.59149,-2.66166 l 10.78424,-9.9899 -10.81306,-0.12027 -17.52156,16.20208 c -1.67831,1.53688 -4.77516,5.94862 -1.92926,5.86533 h 4.39853 z m -3.38568,0.009 17.0155,-79.63171 h -20.382 a 1.31529,1.31529 0 0 1 -1.20555,-0.92586 l -0.31344,-2.06927 a 0.705,0.705 0 0 1 0.72337,-0.92586 h 22.13745 l 1.80873,-9.04073 h -34.72528 a 3.82869,3.82869 0 0 0 -3.27008,1.31932 c -1.22981,1.57387 -0.58868,5.16138 -0.58868,5.16138 l 2.91779,13.61473 h 19.39322 a 0.48531,0.48531 0 0 1 0.48247,0.69463 l -0.36659,1.66151 a 1.09636,1.09636 0 0 1 -0.9646,0.69432 h -17.8208 z m 0.60778,-0.0603 51.9483,-79.55742 h -18.36609 a 0.74929,0.74929 0 0 1 -0.77194,-0.92617 l 0.53557,-2.069 a 1.20247,1.20247 0 0 1 1.1427,-0.92586 h 20.11688 l 6.04345,-9.041 h -30.72271 a 5.46333,5.46333 0 0 0 -3.85357,1.31965 c -1.94832,1.57387 -2.95664,5.16138 -2.95664,5.16138 l -3.45756,13.61 h 17.3814 c 0.396,0 0.46826,0.31018 0.15963,0.69432 l -0.99893,1.66183 a 1.92282,1.92282 0 0 1 -1.28258,0.69431 h -15.8142 z m 0.84869,0.051 73.791,-69.43824 h -11.33369 a 0.48522,0.48522 0 0 1 -0.48247,-0.69432 l 0.36654,-1.66151 a 1.09611,1.09611 0 0 1 0.96429,-0.69463 h 13.32123 l 8.97062,-8.05955 h -13.49446 a 0.48515,0.48515 0 0 1 -0.48246,-0.69431 l 0.65116,-1.60651 a 1.09612,1.09612 0 0 1 0.96461,-0.69431 h 15.48165 l 9.66972,-9.04073 h -32.7957 z" />
    <path
       style="stroke:#00ffff;fill:none;stroke-opacity:1;stroke-width:1.88976378;stroke-miterlimit:4;stroke-dasharray:none"
       id="path43"
       fill="#fff"
       d="M652.52959,7c.73279,0,1.67346.20825,1.77966.60638a1.182,1.182,0,0,1-.25067,1.41656,36.33586,36.33586,0,0,1-2.69629,2.93456c-1.7456,1.72675-4.66827,2.29646-5.60888,2.69892a21.74468,21.74468,0,0,1-4.95319.48146l-4.07544.22685-3.26031,2.82391h7.25866c.40052,0,.63172.11128.69422.3288.0628.2126-.0625.47675-.38111.77766-.32281.31482-2.3388,2.51836-2.73413,2.51836H623.457s8.68146-7.27727,9.40485-7.97191a6.0689,6.0689,0,0,1,3.11078-1.3097l8.00573-.028s2.48413-.42577,3.12043-1.30073c.63171-.87017-1.14759-1.361-1.14759-1.361l-9.65057.01869c-.41968,0,1.98681-1.43994,2.31451-1.75478a4.06554,4.06554,0,0,1,1.23047-.78228A3.50867,3.50867,0,0,1,641.23443,7h11.29516m0-7H641.23443a10.46053,10.46053,0,0,0-4.17383.90173A11.16719,11.16719,0,0,0,634.16228,2.697c-.117.07953-.25537.17056-.39837.2659-.41456.27635-.85364.57179-1.18549.81229a7.81227,7.81227,0,0,0-2.9411,3.75974,10.45,10.45,0,0,0-1.58045,1.21613c-.66046.59905-5.12536,4.36882-9.09674,7.69784A7,7,0,0,0,623.457,28.81346h14.84509c3.31079,0,5.22834-2.00407,7.44861-4.32456l.20514-.21346a8.351,8.351,0,0,0,1.98126-2.96693q.23109-.07794.442-.16323c.11645-.04.25494-.082.40894-.13057a17.96733,17.96733,0,0,0,7.497-4.08067c1.58478-1.571,2.63434-2.80054,3.062-3.3196A8.039,8.039,0,0,0,661.07464,5.808C660.1325,2.27746,656.7791,0,652.52959,0Z" />
    <path
       fill="#e6680b"
       style="fill:#ffffff;fill-opacity:1;stroke:none;stroke-opacity:1"
       id="path47"
       d="M638.3021,21.81346H623.457s8.68147-7.27727,9.40485-7.9719a6.06934,6.06934,0,0,1,3.11077-1.30969l8.00574-.028s2.48417-.42579,3.12044-1.30068c.63174-.87023-1.14756-1.361-1.14756-1.361l-9.65061.01865c-.41965,0,1.98685-1.43991,2.31454-1.75475a4.0656,4.0656,0,0,1,1.23045-.78227A3.508,3.508,0,0,1,641.23441,7h11.29521c.73276,0,1.67341.20823,1.77962.60636a1.1821,1.1821,0,0,1-.25063,1.41661,36.34536,36.34536,0,0,1-2.6963,2.93453c-1.74562,1.72678-4.66826,2.29647-5.60891,2.699a21.74675,21.74675,0,0,1-4.95321.48142l-4.07538.22688-3.26032,2.82389h7.25864c.40054,0,.63174.11126.69423.32882.06282.21258-.06249.47676-.38112.77761C640.71341,19.60992,638.69742,21.81346,638.3021,21.81346Z" />
  </g>
</svg>
