<?xml version="1.0" encoding="UTF-8" standalone="no"?>
<svg
   xmlns:dc="http://purl.org/dc/elements/1.1/"
   xmlns:cc="http://creativecommons.org/ns#"
   xmlns:rdf="http://www.w3.org/1999/02/22-rdf-syntax-ns#"
   xmlns:svg="http://www.w3.org/2000/svg"
   xmlns="http://www.w3.org/2000/svg"
   xmlns:sodipodi="http://sodipodi.sourceforge.net/DTD/sodipodi-0.dtd"
   xmlns:inkscape="http://www.inkscape.org/namespaces/inkscape"
   id="Capa_1"
   data-name="Capa 1"
   viewBox="0 0 1000 113.99998"
   version="1.1"
   sodipodi:docname="system.svg"
   inkscape:version="0.92.4 (5da689c313, 2019-01-14)"
   inkscape:export-filename="D:\Redman\Desktop\logo-png\odyssey2.png"
   inkscape:export-xdpi="238.89999"
   inkscape:export-ydpi="238.89999">
  <metadata
     id="metadata52">
    <rdf:RDF>
      <cc:Work
         rdf:about="">
        <dc:format>image/svg+xml</dc:format>
        <dc:type
           rdf:resource="http://purl.org/dc/dcmitype/StillImage" />
        <dc:title>logo</dc:title>
      </cc:Work>
    </rdf:RDF>
  </metadata>
  <sodipodi:namedview
     pagecolor="#ffffff"
     bordercolor="#666666"
     borderopacity="1"
     objecttolerance="10"
     gridtolerance="10"
     guidetolerance="10"
     inkscape:pageopacity="0"
     inkscape:pageshadow="2"
     inkscape:window-width="1920"
     inkscape:window-height="1017"
     id="namedview50"
     showgrid="false"
     inkscape:pagecheckerboard="true"
     inkscape:zoom="3.2130932"
     inkscape:cx="451.24606"
     inkscape:cy="44.550922"
     inkscape:window-x="-8"
     inkscape:window-y="-8"
     inkscape:window-maximized="1"
     inkscape:current-layer="Capa_1" />
  <defs
     id="defs9">
    <linearGradient
       id="linear-gradient"
       x1="484.95174"
       y1="107.00002"
       x2="484.95174"
       y2="14.39138"
       gradientUnits="userSpaceOnUse">
      <stop
         offset="0.3"
         stop-color="#f2e500"
         id="stop2" />
      <stop
         offset="0.6"
         stop-color="#f39519"
         id="stop4" />
      <stop
         offset="1"
         stop-color="#e6680b"
         id="stop6" />
    </linearGradient>
  </defs>
  <title
     id="title11">logo</title>
  <g
     id="g857">
    <path
       style="fill:none;stroke:#00ffff;stroke-width:2.33786845;stroke-miterlimit:4;stroke-dasharray:none;stroke-opacity:1"
       id="path15"
       d="M 342.18388,11.293402 483.60473,117.26596 301.04663,21.998503 a 8.1147301,6.9485024 0 0 1 -3.14678,-5.58561 c 0,-3.75716 5.71339,-5.119445 5.71339,-5.119445 h 38.57064 m 9.00125,26.751609 h 5.30034 c 2.03727,0 2.99786,-1.377568 0.54772,-3.07896 L 338.45714,21.881862 h -9.16229 c -2.03768,0 -1.70868,1.377946 0.74108,3.074025 l 21.1492,13.08917 M 342.18388,3.2799585 h -38.57064 a 9.359452,8.0143361 0 0 0 -2.51056,0.2937271 c -6.25242,1.4909011 -12.56124,6.0391025 -12.56124,12.8392074 a 17.522445,15.004165 0 0 0 7.26091,12.222619 q 0.18421,0.106727 0.37409,0.205819 L 478.7345,124.1088 a 9.3584092,8.0134432 0 0 0 11.03318,-12.87323 L 348.34684,5.2629995 a 9.3582755,8.0133287 0 0 0 -6.16296,-1.983041 z"
       inkscape:connector-curvature="0" />
    <path
       style="fill:none;stroke:#00ffff;stroke-width:2.33786845;stroke-miterlimit:4;stroke-dasharray:none;stroke-opacity:1"
       id="path19"
       d="m 394.06047,11.277054 a 12.983015,11.11713 0 0 1 8.84927,3.524771 43.228123,37.015491 0 0 1 7.41514,8.267206 L 483.60473,117.26591 369.53605,26.116062 h 17.17037 l 13.22455,10.869091 h 2.63728 c 2.01206,0 2.2372,-1.377602 0.50256,-3.078673 L 391.32933,22.072845 H 364.61615 L 351.17861,11.293413 h 42.42732 a 4.2911782,3.6744613 0 0 1 0.45455,-0.01636 m 0,-8.0134429 c -0.28417,0 -0.54087,0.00647 -0.76726,0.016359 H 351.1786 a 9.3584092,8.0134432 0 0 0 -6.39816,13.8615049 l 13.4375,10.779432 a 9.3558958,8.011291 0 0 0 2.823,1.557573 9.3434357,8.0006217 0 0 0 2.11022,2.496222 L 477.21982,123.12458 A 9.3584092,8.0134432 0 0 0 491.3933,112.82331 L 418.3354,18.911759 A 53.057808,45.43248 0 0 0 409.43112,9.0544686 22.325461,19.116904 0 0 0 394.06047,3.2636111 Z"
       inkscape:connector-curvature="0" />
    <path
       style="fill:none;stroke:#00ffff;stroke-width:2.33786845;stroke-miterlimit:4;stroke-dasharray:none;stroke-opacity:1"
       id="path23"
       d="m 451.46261,11.293413 7.45969,22.814067 c 0.48396,1.764743 -0.52207,2.819324 -3.71341,2.877673 h -3.28881 l 32.96774,80.280787 -50.54457,-80.280787 h -4.62934 c -3.8753,-0.05838 -4.75884,-1.584372 -5.97704,-3.280394 L 407.74562,11.293448 h 18.27994 l 6.6091,11.208517 a 5.6335484,4.8239096 0 0 0 4.64232,2.676295 c 1.77313,0 2.57273,-1.197574 1.7862,-2.676295 l -5.31951,-11.208517 h 17.71894 m 0,-8.0134437 h -17.71894 a 9.353369,8.0091274 0 0 0 -3.85903,0.7128988 9.347032,8.0037011 0 0 0 -3.85913,-0.7129903 h -18.27989 a 9.3584092,8.0134432 0 0 0 -7.9858,12.1914462 l 15.99125,22.411311 0.17667,0.247375 a 14.964725,12.814034 0 0 0 12.81212,6.841638 L 476.6503,121.0686 a 9.3584092,8.0134432 0 0 0 17.06604,-6.46101 l -29.5858,-72.045252 a 11.321964,9.694801 0 0 0 1.89118,-1.64026 11.765806,10.074856 0 0 0 2.01113,-8.646506 q -0.0453,-0.165157 -0.0988,-0.328619 L 460.47437,9.1328859 a 9.3583156,8.0133631 0 0 0 -9.01181,-5.8528816 z"
       inkscape:connector-curvature="0" />
    <path
       style="fill:none;stroke:#00ffff;stroke-width:2.33786845;stroke-miterlimit:4;stroke-dasharray:none;stroke-opacity:1"
       id="path27"
       d="m 619.00317,11.277741 -12.92763,10.34966 h -20.69762 a 1.4653932,1.2547907 0 0 0 -1.28959,0.794819 l -0.87058,1.839085 a 0.64861797,0.5554003 0 0 0 0.64504,0.794842 h 18.04093 l -11.99296,9.226427 h -17.80939 a 1.4655135,1.2548938 0 0 0 -1.28917,0.795151 l -0.49001,1.902116 a 0.64865808,0.55543464 0 0 0 0.64504,0.794774 h 15.15225 L 487.46705,117.26594 575.15802,11.27773 h 43.84509 m -32.88363,26.496896 h 0.007 m 32.877,-34.510328 h -43.8451 a 9.3584092,8.0134432 0 0 0 -7.63622,3.3810548 L 479.83088,112.63358 a 9.3584092,8.0134432 0 0 0 14.04965,10.46832 l 98.54898,-79.40811 a 9.3920727,8.0422687 0 0 0 2.13639,-2.459486 9.3564974,8.0118062 0 0 0 1.59926,-0.990736 L 608.1582,31.01713 a 9.3461229,8.0029227 0 0 0 1.99541,-2.177115 9.3546926,8.0102607 0 0 0 2.31324,-1.359069 L 625.39448,17.131287 A 9.3584092,8.0134432 0 0 0 619.00317,3.2643209 Z m 0,16.026886 z"
       inkscape:connector-curvature="0" />
    <path
       style="fill:none;stroke:#00ffff;stroke-width:2.33786845;stroke-miterlimit:4;stroke-dasharray:none;stroke-opacity:1"
       id="path31"
       d="m 670.5867,11.27773 h 0.007 m -0.007,0 -32.43301,21.981951 c -2.91431,1.696056 -5.932,3.280394 -7.97563,3.280394 h -7.22202 L 490.04628,117.26598 605.32794,36.540075 h -5.88043 q -0.0533,0.0014 -0.10454,0.0014 c -3.62305,0 0.46094,-4.972857 2.68377,-6.715884 l 23.42484,-18.547801 14.45607,0.137717 -14.41758,11.436259 c -2.26364,1.478629 0.34801,3.046975 2.12769,3.046975 0.17942,0 0.36783,9.61e-4 0.56474,9.61e-4 a 11.030623,9.445331 0 0 0 6.75989,-1.606626 L 653.53828,11.27779 h 17.04834 M 625.45144,3.2643209 a 9.3581418,8.0132142 0 0 0 -6.35353,2.1299045 L 595.67308,23.942027 c -0.91358,0.716207 -8.72847,7.092355 -6.82306,13.78485 L 484.12178,111.06274 a 9.3584092,8.0134432 0 0 0 11.33869,12.73942 L 625.93809,44.553518 h 4.23997 c 4.34537,0 8.2862,-1.785464 13.23622,-4.666262 q 0.28091,-0.163532 0.54754,-0.344235 l 32.31325,-21.90074 A 9.3577274,8.0128594 0 0 0 670.59342,3.2643094 h -17.05504 a 9.3585295,8.0135462 0 0 0 -5.9226,1.8088975 l -1.03443,0.7240603 A 9.3563102,8.0116459 0 0 0 640.01191,3.4025299 L 625.55584,3.2648131 625.4517,3.2643094 Z m 45.13518,16.0268861 z"
       inkscape:connector-curvature="0" />
    <path
       style="fill:none;stroke:#00ffff;stroke-width:2.33786845;stroke-miterlimit:4;stroke-dasharray:none;stroke-opacity:1"
       id="path35"
       d="m 525.92034,11.275978 a 3.5357541,3.0276048 0 0 1 0.4208,0.0174 h 41.07369 l -8.0796,10.349934 h -26.89457 a 1.6077346,1.3766752 0 0 0 -1.52769,1.059904 l -0.71595,2.368545 a 1.0016974,0.85773606 0 0 0 1.03198,1.060236 h 24.55391 l -69.4505,91.075563 25.54003,-79.422311 h 21.14227 a 2.5706614,2.2012127 0 0 0 1.71471,-0.794842 l 1.33546,-1.902426 c 0.41264,-0.439755 0.31602,-0.794842 -0.21339,-0.794842 h -23.23747 l 4.62249,-15.580492 c 0,0 1.34801,-4.106821 3.95272,-5.908586 a 7.6095498,6.5159253 0 0 1 4.73111,-1.528107 m 29.86257,14.8561 h 0.007 M 525.92034,3.262535 a 16.94578,14.510377 0 0 0 -10.62082,3.3141312 c -4.56174,3.1554764 -6.56672,8.4272798 -7.07229,9.9677048 q -0.0318,0.09731 -0.061,0.195161 l -4.62254,15.580549 a 9.35623,8.0115772 0 0 0 -0.27942,2.320362 9.4011905,8.0500761 0 0 0 -0.41444,1.017501 l -25.54004,79.422316 a 9.3581953,8.01326 0 0 0 16.85851,6.50856 L 563.495,30.675563 a 9.3124594,7.9740972 0 0 0 1.36099,-2.561589 9.3517246,8.0077193 0 0 0 2.25938,-2.017316 l 8.07964,-10.349991 A 9.3584092,8.0134432 0 0 0 567.41476,3.27997 h -40.73489 c -0.22783,-0.010612 -0.48206,-0.017412 -0.75953,-0.017412 z"
       inkscape:connector-curvature="0" />
    <path
       style="fill:none;stroke:#00ffff;stroke-width:2.33786845;stroke-miterlimit:4;stroke-dasharray:none;stroke-opacity:1"
       id="path39"
       d="m 465.11161,11.260341 a 3.879328,3.3218012 0 0 1 0.43308,0.0174 h 46.42477 l -2.41802,10.34966 h -29.59597 a 0.9425255,0.80706821 0 0 0 -0.96711,1.059904 l 0.419,2.368842 a 1.7585253,1.5057947 0 0 0 1.61174,1.059904 h 27.24902 L 485.51986,117.27666 465.25429,37.774626 h 23.82496 a 1.4657675,1.2551113 0 0 0 1.28959,-0.794773 l 0.49008,-1.902117 a 0.64881851,0.55557202 0 0 0 -0.64505,-0.795151 h -25.92711 l -3.90082,-15.585872 c 0,0 -0.85721,-4.106901 0.78693,-5.908609 a 4.9681254,4.2541195 0 0 1 3.93874,-1.527763 m 43.15653,14.85571 h 0.007 M 465.11161,3.2468859 a 14.205811,12.164189 0 0 0 -11.31283,4.6071575 c -3.80691,4.1718096 -3.10413,9.9582946 -2.62531,12.2525546 q 0.0282,0.135164 0.0618,0.269401 l 3.90088,15.585872 a 9.359345,8.0142445 0 0 0 0.75993,1.871539 9.3546926,8.0102607 0 0 0 0.2151,1.65014 l 20.26556,79.502 a 9.3584092,8.0134432 0 0 0 9.1429,6.30455 h 0.0207 a 9.3584092,8.0134432 0 0 0 9.1313,-6.33889 l 22.68282,-90.898321 a 9.3739709,8.0267684 0 0 0 0.27541,-1.936781 q 0,-0.212723 -0.0134,-0.422961 a 9.3420587,7.9994426 0 0 0 1.1108,-2.493635 l 2.41815,-10.349659 a 9.3584092,8.0134432 0 0 0 -9.17659,-9.5854978 h -46.0914 c -0.22844,-0.010543 -0.48514,-0.017412 -0.76645,-0.017412 z"
       inkscape:connector-curvature="0" />
    <path
       inkscape:connector-curvature="0"
       style="fill:#ffffff;fill-opacity:1;stroke-width:1.23712206;stroke:none"
       id="path45"
       d="m 330.03589,24.955807 c -2.44976,-1.696056 -2.77876,-3.074048 -0.74112,-3.074048 h 9.16226 l 18.57608,13.084201 c 2.45019,1.701391 1.48955,3.079017 -0.54765,3.079017 h -5.30039 z m -28.98932,-2.957338 182.55814,95.267501 -73.2799,-94.196882 a 43.226492,37.014094 0 0 0 -7.41508,-8.267172 c -4.7649,-3.969219 -9.30382,-3.508468 -9.30382,-3.508468 h -42.42734 l 13.43755,10.77942 h 26.71317 l 11.74144,11.833635 c 1.73463,1.701036 1.50952,3.078662 -0.50258,3.078662 H 399.931 L 386.70645,26.116085 H 369.53598 L 483.60471,117.26601 342.18384,11.293402 h -38.57067 c 0,0 -5.71336,1.362285 -5.71336,5.119445 a 8.1146766,6.9484566 0 0 0 3.14676,5.585622 z M 484.88782,117.26597 451.92013,36.985119 h 3.28872 c 3.19137,-0.05838 4.19737,-1.112919 3.71339,-2.877639 l -7.45968,-22.814078 h -17.71889 l 5.31943,11.208517 c 0.78657,1.478675 -0.0134,2.676273 -1.78612,2.676273 a 5.6337623,4.8240928 0 0 1 -4.64239,-2.676273 l -6.60903,-11.208517 h -18.27994 l 15.99121,22.411311 c 1.21817,1.696057 2.10171,3.222045 5.977,3.280394 h 4.62938 z m 5.15839,0 132.90969,-80.725941 h 7.22202 c 2.04365,0 5.06138,-1.584372 7.97564,-3.280406 l 32.43305,-21.98187 H 653.53826 L 634.94238,24.29297 a 11.580216,9.9159376 0 0 1 -7.32461,1.605688 c -1.77964,0 -4.39131,-1.568346 -2.12769,-3.047009 L 639.9077,11.415435 625.45155,11.277753 602.0267,29.825531 c -2.24375,1.759386 -6.38398,6.809847 -2.57925,6.714498 h 5.88046 z m -4.52637,0.0103 22.74829,-91.160597 h -27.24901 a 1.7584317,1.5057145 0 0 1 -1.61172,-1.059904 l -0.41904,-2.368854 a 0.9425255,0.80706821 0 0 1 0.96708,-1.059904 h 29.5959 l 2.41812,-10.349625 h -46.42477 a 5.1186354,4.3829985 0 0 0 -4.37182,1.510328 c -1.64415,1.801731 -0.78701,5.908632 -0.78701,5.908632 l 3.90084,15.585838 h 25.92709 a 0.64881851,0.55557202 0 0 1 0.64503,0.795197 l -0.4901,1.90206 a 1.4657408,1.2550884 0 0 1 -1.28959,0.794842 h -23.82491 z m 0.81255,-0.069 69.4505,-91.075552 h -24.55392 a 1.0017375,0.85777041 0 0 1 -1.03201,-1.060258 l 0.71601,-2.368545 a 1.6076009,1.3765607 0 0 1 1.52769,-1.059904 h 26.89457 l 8.07958,-10.349934 h -41.07367 a 7.3040111,6.2542978 0 0 0 -5.15189,1.510706 c -2.60474,1.801731 -3.95278,5.908632 -3.95278,5.908632 L 512.614,34.292808 h 23.23747 c 0.52942,0 0.62602,0.355087 0.21341,0.794842 l -1.33549,1.902426 a 2.5706481,2.2012013 0 0 1 -1.7147,0.79483 h -21.14225 z m 1.13463,0.0584 98.65234,-79.491337 h -15.15219 a 0.64869819,0.55546899 0 0 1 -0.64502,-0.794842 l 0.49003,-1.90206 a 1.4654066,1.2548022 0 0 1 1.28918,-0.795197 h 17.80936 l 11.99296,-9.226392 h -18.04095 a 0.6486046,0.55538885 0 0 1 -0.64501,-0.79483 l 0.87054,-1.839097 a 1.4654199,1.2548136 0 0 1 1.28961,-0.794831 h 20.69766 l 12.9276,-10.349625 h -43.84509 z" />
    <path
       style="fill:none;stroke:#00ffff;stroke-width:2.33786845;stroke-miterlimit:4;stroke-dasharray:none;stroke-opacity:1"
       id="path43"
       d="m 708.28072,2.7989001 c 0.97968,0 2.23727,0.2383999 2.37925,0.6941702 a 1.5802342,1.3531271 0 0 1 -0.33512,1.6216462 48.577978,41.596479 0 0 1 -3.60471,3.3594186 c -2.33372,1.9767449 -6.24109,2.6289359 -7.4986,3.0896629 a 29.070802,24.892823 0 0 1 -6.622,0.551165 l -5.44852,0.259693 -4.35876,3.232749 h 9.70422 c 0.53546,0 0.84455,0.12739 0.92811,0.376402 0.084,0.24338 -0.0836,0.545773 -0.50951,0.890248 -0.43157,0.360399 -3.12678,2.882962 -3.6553,2.882962 h -19.84666 c 0,0 11.60638,-8.330855 12.57349,-9.126064 a 8.1136071,6.9475408 0 0 1 4.15885,-1.4993149 l 10.70299,-0.032054 c 0,0 3.32107,-0.487412 4.17175,-1.4890466 0.84454,-0.9961511 -1.53423,-1.5580423 -1.53423,-1.5580423 l -12.902,0.021396 c -0.56108,0 2.6562,-1.6484111 3.0943,-2.0088328 A 5.4352838,4.6541391 0 0 1 691.32331,3.1695217 4.6907957,4.0166468 0 0 1 693.18004,2.7989 h 15.10068 m 0,-8.0134432 h -15.10068 a 13.984846,11.97498 0 0 0 -5.58006,1.0322803 14.929591,12.783949 0 0 0 -3.8748,2.0551849 c -0.15642,0.091044 -0.34141,0.1952533 -0.53259,0.3043964 -0.55423,0.3163592 -1.14125,0.6545723 -1.5849,0.92989135 a 10.444346,8.9433117 0 0 0 -3.932,4.30406615 13.970768,11.962926 0 0 0 -2.11293,1.3921984 c -0.88298,0.685779 -6.85218,5.0013272 -12.16158,8.8123147 a 9.3584092,8.0134432 0 0 0 6.01194,14.154671 h 19.84663 c 4.42625,0 6.98985,-2.294214 9.95816,-4.950659 l 0.27426,-0.244364 a 11.164582,9.5600377 0 0 0 2.64878,-3.396475 q 0.30894,-0.08922 0.59091,-0.186862 c 0.15569,-0.04579 0.34084,-0.09387 0.54672,-0.149474 a 24.020804,20.568597 0 0 0 10.02286,-4.671459 c 2.11872,-1.798446 3.52189,-3.205996 4.09363,-3.800204 a 10.747465,9.2028671 0 0 0 2.30966,-8.9366379 c -1.25956,-4.0416831 -5.74278,-6.6488683 -11.42401,-6.6488683 z"
       inkscape:connector-curvature="0" />
    <path
       style="fill:#ffffff;fill-opacity:1;stroke:none;stroke-width:1.23712206;stroke-opacity:1"
       id="path47"
       d="m 689.25977,19.757017 h -19.84665 c 0,0 11.60639,-8.330855 12.57349,-9.126052 a 8.1141953,6.9480445 0 0 1 4.15884,-1.499304 l 10.703,-0.032054 c 0,0 3.32112,-0.4874349 4.17176,-1.4889893 0.84458,-0.9962199 -1.53419,-1.5580424 -1.53419,-1.5580424 l -12.90205,0.02135 c -0.56104,0 2.65625,-1.6483767 3.09434,-2.0087984 a 5.4353641,4.6542078 0 0 1 1.64501,-0.8955252 4.6898999,4.0158798 0 0 1 1.8567,-0.3707019 h 15.10074 c 0.97964,0 2.23721,0.238377 2.3792,0.6941473 a 1.5803679,1.3532416 0 0 1 -0.33507,1.6217034 48.590679,41.607354 0 0 1 -3.60473,3.3593843 c -2.33374,1.9767792 -6.24107,2.6289472 -7.49864,3.0897552 a 29.073569,24.895192 0 0 1 -6.62202,0.551119 l -5.44844,0.259727 -4.35877,3.232726 h 9.70419 c 0.53549,0 0.84458,0.127368 0.92812,0.376426 0.084,0.243356 -0.0836,0.545784 -0.50952,0.89019 -0.4316,0.360376 -3.12681,2.882939 -3.65531,2.882939 z"
       inkscape:connector-curvature="0" />
  </g>
</svg>
