<?xml version="1.0" encoding="UTF-8" standalone="no"?>
<svg
   xmlns:osb="http://www.openswatchbook.org/uri/2009/osb"
   xmlns:dc="http://purl.org/dc/elements/1.1/"
   xmlns:cc="http://creativecommons.org/ns#"
   xmlns:rdf="http://www.w3.org/1999/02/22-rdf-syntax-ns#"
   xmlns:svg="http://www.w3.org/2000/svg"
   xmlns="http://www.w3.org/2000/svg"
   xmlns:sodipodi="http://sodipodi.sourceforge.net/DTD/sodipodi-0.dtd"
   xmlns:inkscape="http://www.inkscape.org/namespaces/inkscape"
   id="Calque_2"
   data-name="Calque 2"
   viewBox="0 0 1000 114"
   version="1.1"
   sodipodi:docname="system.svg"
   inkscape:version="0.92.4 (5da689c313, 2019-01-14)"
   inkscape:export-filename="D:\Redman\Desktop\logo-png\allgames.png"
   inkscape:export-xdpi="241.94"
   inkscape:export-ydpi="241.94">
  <metadata
     id="metadata133">
    <rdf:RDF>
      <cc:Work
         rdf:about="">
        <dc:format>image/svg+xml</dc:format>
        <dc:type
           rdf:resource="http://purl.org/dc/dcmitype/StillImage" />
        <dc:title>logo</dc:title>
      </cc:Work>
    </rdf:RDF>
  </metadata>
  <defs
     id="defs131">
    <linearGradient
       id="linearGradient1126"
       osb:paint="solid">
      <stop
         style="stop-color:#00ffff;stop-opacity:1;"
         offset="0"
         id="stop1124" />
    </linearGradient>
  </defs>
  <sodipodi:namedview
     pagecolor="#000000"
     bordercolor="#666666"
     borderopacity="1"
     objecttolerance="10"
     gridtolerance="10"
     guidetolerance="10"
     inkscape:pageopacity="0.34901961"
     inkscape:pageshadow="2"
     inkscape:window-width="1920"
     inkscape:window-height="1017"
     id="namedview129"
     showgrid="false"
     inkscape:zoom="1.136"
     inkscape:cx="350.98497"
     inkscape:cy="30.591549"
     inkscape:window-x="-8"
     inkscape:window-y="-8"
     inkscape:window-maximized="1"
     inkscape:current-layer="Calque_2"
     inkscape:pagecheckerboard="true"
     inkscape:snap-global="false"
     showguides="false"
     inkscape:snap-bbox="false"
     inkscape:snap-intersection-paths="true" />
  <title
     id="title2">logo</title>
  <g
     id="g4861">
    <g
       style="stroke:#00ffff;stroke-width:1.5;stroke-miterlimit:4;stroke-dasharray:none;stroke-opacity:1"
       transform="matrix(1.0678632,0,0,1.1480361,25.890814,-6.3148487)"
       id="g4835">
      <g
         aria-label="L"
         transform="matrix(0.92287916,0,0,1.0551721,-0.11981249,2.4776995)"
         style="font-style:normal;font-variant:normal;font-weight:normal;font-stretch:normal;font-size:102.97362518px;line-height:1.25;font-family:'Open Sans Condensed';-inkscape-font-specification:'Open Sans Condensed, ';letter-spacing:0px;word-spacing:0px;fill:none;fill-opacity:1;stroke:#00ffff;stroke-width:1.52004766;stroke-miterlimit:4;stroke-dasharray:none;stroke-opacity:1"
         id="text4679">
        <path
           d="m 353.42324,19.729141 0.16868,52.500372 20.65396,0.287121 c 2.41312,0.03355 3.91969,0.443041 5.19345,1.616244 1.30729,1.173202 1.62358,2.791645 1.62358,4.568207 0,1.810084 0.0378,4.289889 -1.23594,5.429571 -1.27376,1.106162 -4.82096,1.673341 -7.26787,1.659243 l -24.91807,-0.14356 c -3.25137,-0.01873 -5.59785,-0.720681 -7.03921,-2.162043 -1.40785,-1.441363 -2.11177,-3.771007 -2.11177,-6.988933 V 19.729141 c 0,-3.016805 0.6704,-5.279409 2.01121,-6.787812 1.37432,-1.508403 3.16764,-2.262604 5.37996,-2.262604 2.24585,0 4.05593,0.754201 5.43025,2.262604 1.40785,1.474883 2.11177,3.737487 2.11177,6.787812 z"
           style="font-style:normal;font-variant:normal;font-weight:normal;font-stretch:normal;font-family:'Arial Rounded MT Bold';-inkscape-font-specification:'Arial Rounded MT Bold, ';fill:none;stroke:#00ffff;stroke-width:1.52004766;stroke-miterlimit:4;stroke-dasharray:none;stroke-opacity:1"
           id="path4685"
           inkscape:connector-curvature="0"
           sodipodi:nodetypes="scscscsscsscscs" />
      </g>
      <g
         aria-label="A"
         transform="matrix(0.86667735,0,0,1.0198259,17.645689,5.4940266)"
         style="font-style:normal;font-variant:normal;font-weight:normal;font-stretch:normal;font-size:103.99170685px;line-height:1.25;font-family:'Open Sans Condensed';-inkscape-font-specification:'Open Sans Condensed, ';letter-spacing:0px;word-spacing:0px;fill:#000000;fill-opacity:1;stroke:#00ffff;stroke-width:1.59551001;stroke-miterlimit:4;stroke-dasharray:none;stroke-opacity:1"
         id="text4675">
        <path
           d="m 318.78207,78.773489 -2.88013,-6.326261 -13.57503,-0.287309 -1.19445,3.368971 c -1.38791,3.723661 -4.25839,7.96945 -5.24008,9.289657 -0.98169,1.286355 -12.36656,0.780297 -14.60076,0.780297 -1.89568,0 -3.57133,-0.693955 -5.02694,-2.081865 -1.45561,-1.38791 -2.18342,-2.962003 -2.18342,-4.722279 0,-1.015545 0.16926,-2.06494 0.50777,-3.148187 0.33851,-1.083247 0.89706,-2.589637 1.67565,-4.519171 l 19.04145,-48.339895 c 0.54162,-1.38791 1.1848,-3.046632 1.92953,-4.976165 0.77859,-1.963385 1.59102,-3.588256 2.43731,-4.874612 0.88014,-1.286355 2.01416,-2.318825 3.40207,-3.0974089 1.42176,-0.8124352 3.16511,-1.2186528 5.23005,-1.2186528 2.09879,0 3.84214,0.4062176 5.23005,1.2186528 1.42177,0.7785839 2.55579,1.7941279 3.40208,3.0466319 0.88013,1.252505 1.60794,2.606563 2.18342,4.062176 0.60933,1.421762 1.37098,3.33437 2.28497,5.737824 l 19.44767,48.035232 c 1.52331,3.655958 2.28497,6.313298 2.28497,7.97202 0,1.726425 -0.72781,3.317444 -2.18342,4.773057 -1.42176,1.421761 -1.12639,0.835193 -5.17927,2.132642 -4.72672,0.497437 -13.02868,0.378122 -15.14928,-2.239338 -0.64318,-1.523316 -1.37029,-3.435067 -1.84421,-4.586017 z m -13.91277,-23.11153 7.70305,0.215867 -4.14192,-13.625322 z"
           style="font-style:normal;font-variant:normal;font-weight:bold;font-stretch:normal;font-family:'Arial Rounded MT Bold';-inkscape-font-specification:'Arial Rounded MT Bold, Bold';fill:none;fill-opacity:1;stroke:#00ffff;stroke-width:1.59551001;stroke-miterlimit:4;stroke-dasharray:none;stroke-opacity:1"
           id="path4691"
           inkscape:connector-curvature="0"
           sodipodi:nodetypes="cccccsssscccccscccccssccccccc" />
      </g>
      <g
         aria-label="a"
         transform="scale(1.0311079,0.96983065)"
         style="font-style:normal;font-variant:normal;font-weight:normal;font-stretch:normal;font-size:132.1809845px;line-height:1.25;font-family:'SF Atarian System';-inkscape-font-specification:'SF Atarian System';letter-spacing:0px;word-spacing:0px;fill:#ffffff;fill-opacity:1;stroke:#00ffff;stroke-width:1.5;stroke-miterlimit:4;stroke-dasharray:none;stroke-opacity:1"
         id="text4591">
        <path
           inkscape:connector-curvature="0"
           d="m 301.8013,92.585503 h -10.97205 l -4.45336,-15.877208 h -19.68516 l -4.5179,15.877208 h -10.90752 l 17.74891,-63.444291 q 2.00079,-7.035023 7.48682,-7.035023 5.48603,0 7.48681,7.035023 z m -18.39432,-26.462014 -6.90594,-24.396685 -6.8414,24.396685 z"
           style="fill:#ffffff;fill-opacity:1;stroke:#00ffff;stroke-width:1.5;stroke-miterlimit:4;stroke-dasharray:none;stroke-opacity:1"
           id="path4688" />
      </g>
      <g
         aria-label="l"
         transform="scale(0.93356308,1.0711649)"
         style="font-style:normal;font-variant:normal;font-weight:normal;font-stretch:normal;font-size:122.75889587px;line-height:1.25;font-family:'SF Atarian System';-inkscape-font-specification:'SF Atarian System';letter-spacing:0px;word-spacing:0px;fill:#ffffff;fill-opacity:1;stroke:#00ffff;stroke-width:1.5;stroke-miterlimit:4;stroke-dasharray:none;stroke-opacity:1"
         id="text4595">
        <path
           d="m 369.06958,85.059441 h -25.35499 q -2.57746,0 -4.61544,-1.978049 -1.97805,-2.037989 -1.97805,-4.555506 V 19.604014 h 9.8303 v 55.625124 h 22.11818 z"
           style="stroke:#00ffff;stroke-width:1.5;stroke-miterlimit:4;stroke-dasharray:none;stroke-opacity:1"
           id="path4863" />
      </g>
      <g
         aria-label="L"
         transform="matrix(0.92287916,0,0,1.0551721,35.217038,2.2595669)"
         style="font-style:normal;font-variant:normal;font-weight:normal;font-stretch:normal;font-size:102.97362518px;line-height:1.25;font-family:'Open Sans Condensed';-inkscape-font-specification:'Open Sans Condensed, ';letter-spacing:0px;word-spacing:0px;fill:none;fill-opacity:1;stroke:#00ffff;stroke-width:1.52004766;stroke-miterlimit:4;stroke-dasharray:none;stroke-opacity:1"
         id="text4679-0">
        <path
           d="m 353.42324,19.729141 0.16868,52.500372 20.65396,0.287121 c 2.41312,0.03355 3.91969,0.443041 5.19345,1.616244 1.30729,1.173202 1.62358,2.791645 1.62358,4.568207 0,1.810084 0.0378,4.289889 -1.23594,5.429571 -1.27376,1.106162 -4.82096,1.673341 -7.26787,1.659243 l -24.91807,-0.14356 c -3.25137,-0.01873 -5.59785,-0.720681 -7.03921,-2.162043 -1.40785,-1.441363 -2.11177,-3.771007 -2.11177,-6.988933 V 19.729141 c 0,-3.016805 0.6704,-5.279409 2.01121,-6.787812 1.37432,-1.508403 3.16764,-2.262604 5.37996,-2.262604 2.24585,0 4.05593,0.754201 5.43025,2.262604 1.40785,1.474883 2.11177,3.737487 2.11177,6.787812 z"
           style="font-style:normal;font-variant:normal;font-weight:normal;font-stretch:normal;font-family:'Arial Rounded MT Bold';-inkscape-font-specification:'Arial Rounded MT Bold, ';fill:none;stroke:#00ffff;stroke-width:1.52004766;stroke-miterlimit:4;stroke-dasharray:none;stroke-opacity:1"
           id="path4685-1"
           inkscape:connector-curvature="0"
           sodipodi:nodetypes="scscscsscsscscs" />
      </g>
      <g
         aria-label="l"
         transform="scale(0.93356308,1.0711649)"
         style="font-style:normal;font-variant:normal;font-weight:normal;font-stretch:normal;font-size:122.75889587px;line-height:1.25;font-family:'SF Atarian System';-inkscape-font-specification:'SF Atarian System';letter-spacing:0px;word-spacing:0px;fill:#ffffff;fill-opacity:1;stroke:#00ffff;stroke-width:1.5;stroke-miterlimit:4;stroke-dasharray:none;stroke-opacity:1"
         id="text4595-6">
        <path
           d="m 406.92117,84.855804 h -25.35498 q -2.57746,0 -4.61545,-1.978048 -1.97805,-2.03799 -1.97805,-4.555506 V 19.400378 h 9.8303 v 55.625124 h 22.11818 z"
           style="stroke:#00ffff;stroke-width:1.5;stroke-miterlimit:4;stroke-dasharray:none;stroke-opacity:1"
           id="path4866" />
      </g>
      <g
         aria-label="G"
         transform="matrix(1.023794,0,0,0.94174596,4.3572504,0.39928517)"
         style="font-style:normal;font-variant:normal;font-weight:normal;font-stretch:normal;font-size:117.4286499px;line-height:1.25;font-family:'SF Atarian System';-inkscape-font-specification:'SF Atarian System';letter-spacing:0px;word-spacing:0px;fill:none;fill-opacity:1;stroke:#00ffff;stroke-width:1.52762961;stroke-miterlimit:4;stroke-dasharray:none;stroke-opacity:1"
         id="text4759">
        <path
           d="m 453.27056,99.823203 h -11.75434 l -1.17128,-3.330341 c -15.28087,7.592728 -22.28925,-0.419594 -27.28536,-4.97158 -2.13026,-5.766904 -1.97154,-7.866405 -2.42091,-12.01722 -1.56184,-14.426791 -1.36765,-31.325013 0.1581,-44.894819 3.62034,-8.763041 1.78549,-6.821298 6.10497,-11.460586 4.35771,-4.680344 9.1714,-7.386899 14.86699,-7.386899 5.61915,0 10.58846,2.340172 14.90793,7.020517 4.28125,4.598233 6.17805,19.28257 6.29273,25.399862 0.30117,11.67339 0.2215,5.795241 0.30117,11.67339 z"
           style="stroke:#00ffff;stroke-width:1.52762961;stroke-miterlimit:4;stroke-dasharray:none;stroke-opacity:1"
           id="path4761"
           inkscape:connector-curvature="0"
           sodipodi:nodetypes="ccccscsscccc" />
      </g>
      <path
         d="m 496.7861,86.567462 -2.41461,-6.44944 -11.38087,-0.29291 -1.00139,3.43457 c -1.16358,3.79617 -3.57009,8.12464 -4.39311,9.47055 -0.82302,1.3114 -10.36773,0.79549 -12.24081,0.79549 -1.58927,0 -2.99409,-0.70746 -4.21442,-2.1224 -1.22034,-1.41494 -1.83051,-3.01968 -1.83051,-4.81423 0,-1.03532 0.14189,-2.10515 0.42569,-3.20949 0.2838,-1.10434 0.75208,-2.64006 1.40482,-4.60717 l 15.96373,-49.281177 c 0.45408,-1.414935 0.99331,-3.105956 1.61766,-5.073062 0.65274,-2.001616 1.33386,-3.658127 2.04336,-4.969531 0.73789,-1.311403 1.68862,-2.363978 2.85218,-3.157722 1.19197,-0.828255 2.65353,-1.242383 4.38472,-1.242383 1.75956,0 3.22112,0.414128 4.38469,1.242383 1.19197,0.793744 2.14269,1.829063 2.8522,3.105956 0.73787,1.276894 1.34804,2.657319 1.83051,4.141276 0.51084,1.449447 1.14939,3.399297 1.91565,5.849552 l 16.30429,48.970578 c 1.2771,3.72715 1.91565,6.43623 1.91565,8.12725 0,1.76005 -0.61017,3.38205 -1.83051,4.866 -1.19196,1.44945 -0.94433,0.85146 -4.34213,2.17417 -3.96273,0.50713 -10.92283,0.38549 -12.70066,-2.28294 -0.53922,-1.55298 -1.14881,-3.50196 -1.54613,-4.67532 z m -11.66403,-23.561557 6.45799,0.22007 -3.47244,-13.890635 z"
         style="font-style:normal;font-variant:normal;font-weight:bold;font-stretch:normal;font-size:103.99170685px;line-height:1.25;font-family:'Arial Rounded MT Bold';-inkscape-font-specification:'Arial Rounded MT Bold, Bold';letter-spacing:0px;word-spacing:0px;fill:none;fill-opacity:1;stroke:#00ffff;stroke-width:1.5;stroke-miterlimit:4;stroke-dasharray:none;stroke-opacity:1"
         id="path4691-4"
         inkscape:connector-curvature="0"
         sodipodi:nodetypes="cccccsssscccccscccccssccccccc" />
      <g
         aria-label="m"
         transform="scale(0.94699823,1.0559682)"
         style="font-style:normal;font-variant:normal;font-weight:normal;font-stretch:normal;font-size:139.86720276px;line-height:1.25;font-family:'SF Atarian System';-inkscape-font-specification:'SF Atarian System';letter-spacing:0px;word-spacing:0px;fill:none;fill-opacity:1;stroke:#00ffff;stroke-width:1.5;stroke-miterlimit:4;stroke-dasharray:none;stroke-opacity:1"
         id="text4785">
        <path
           d="M 601.33646,90.517036 H 585.7208 l 0.46477,-28.447682 -8.6156,21.003578 c -1.77566,4.962736 -4.25703,7.444104 -7.44411,7.444104 -3.18707,0 -5.69121,-2.481368 -7.5124,-7.444104 l -8.15083,-20.169953 0.23239,27.614057 H 538.84697 V 23.383511 c 0,-2.003307 0.70571,-3.733435 2.11713,-5.190385 1.41142,-1.502479 3.05049,-2.253719 4.9172,-2.253719 3.00496,0 8.90384,2.064555 10.72503,7.027291 l 13.75192,32.739671 12.58998,-33.781702 c 1.77566,-4.962736 8.3717,-5.98526 11.42219,-5.98526 1.86672,0 3.48302,0.75124 4.84891,2.253719 1.41142,1.45695 2.11713,3.187078 2.11713,5.190385 z"
           style="stroke:#00ffff;stroke-width:1.5;stroke-miterlimit:4;stroke-dasharray:none;stroke-opacity:1"
           id="path4795"
           inkscape:connector-curvature="0"
           sodipodi:nodetypes="ccccsccccscscccscsc" />
      </g>
      <g
         aria-label="e"
         transform="scale(1.0282658,0.97251122)"
         style="font-style:normal;font-variant:normal;font-weight:normal;font-stretch:normal;font-size:145.71185303px;line-height:1.25;font-family:'SF Atarian System';-inkscape-font-specification:'SF Atarian System';letter-spacing:0px;word-spacing:0px;fill:none;fill-opacity:1;stroke:#00ffff;stroke-width:1.5;stroke-miterlimit:4;stroke-dasharray:none;stroke-opacity:1"
         id="text4800">
        <path
           d="m 595.66073,96.869347 h -30.09576 c -2.03959,0 -3.86573,-0.782632 -5.47842,-2.347896 -1.56527,-1.612697 -2.3479,-3.415122 -2.3479,-5.407276 V 26.930503 c 0,-2.039587 0.78263,-3.842012 2.3479,-5.407276 1.61269,-1.565264 3.43883,-2.347896 5.47842,-2.347896 h 30.09576 v 20.267386 l -23.25746,-0.226291 v 10.708838 h 13.51013 l -0.21402,16.420441 -12.226,0.226291 v 12.971747 h 21.75931 z"
           style="stroke:#00ffff;stroke-width:1.5;stroke-miterlimit:4;stroke-dasharray:none;stroke-opacity:1"
           id="path4802"
           inkscape:connector-curvature="0"
           sodipodi:nodetypes="cscsscscccccccccc" />
      </g>
      <g
         aria-label="games"
         transform="scale(0.97695138,1.0235924)"
         style="font-style:normal;font-variant:normal;font-weight:normal;font-stretch:normal;font-size:121.20628357px;line-height:1.25;font-family:'SF Atarian System';-inkscape-font-specification:'SF Atarian System';letter-spacing:0px;word-spacing:0px;fill:#fffff4;fill-opacity:1;stroke:#00ffff;stroke-width:1.5;stroke-miterlimit:4;stroke-dasharray:none;stroke-opacity:1"
         id="text4587">
        <path
           d="m 473.95316,87.974548 h -9.70597 v -2.012213 q -3.7877,2.012213 -8.04886,2.012213 -7.04274,0 -12.42837,-5.38563 -5.38564,-5.385631 -5.38564,-12.369196 V 41.101806 q 0,-6.983565 5.38564,-12.369196 5.38563,-5.385631 12.42837,-5.385631 6.92439,0 12.25083,5.385631 5.32645,5.326448 5.504,12.369196 h -9.70597 q -0.23673,-3.195869 -2.60404,-5.622362 -2.30813,-2.426493 -5.44482,-2.426493 -3.25505,0 -5.68154,2.426493 -2.42649,2.426493 -2.42649,5.622362 v 29.117916 q 0,3.195868 2.42649,5.622361 2.42649,2.426493 5.68154,2.426493 3.19587,0 5.62237,-2.426493 2.42649,-2.426493 2.42649,-5.622361 V 60.51375 h -8.04886 v -9.705972 h 11.30391 q 2.54486,0 4.49789,2.012213 1.95303,1.953031 1.95303,4.438707 z"
           style="fill:#fffff4;fill-opacity:1;stroke:#00ffff;stroke-width:1.5;stroke-miterlimit:4;stroke-dasharray:none;stroke-opacity:1"
           id="path4869" />
        <path
           d="M 522.95648,87.974548 H 512.89541 L 508.8118,73.41559 h -18.05074 l -4.14279,14.558958 H 476.61638 L 492.89164,29.7979 q 1.83467,-6.450921 6.8652,-6.450921 5.03054,0 6.8652,6.450921 z M 506.0894,63.709619 499.75684,41.338537 493.48347,63.709619 Z"
           style="fill:#fffff4;fill-opacity:1;stroke:#00ffff;stroke-width:1.5;stroke-miterlimit:4;stroke-dasharray:none;stroke-opacity:1"
           id="path4871" />
        <path
           d="m 579.65357,87.974548 h -9.70598 V 51.222057 l -10.88962,30.301571 q -2.30813,6.45092 -6.45092,6.45092 -4.1428,0 -6.51011,-6.45092 L 535.20732,51.222057 v 36.752491 h -9.70598 V 29.7979 q 0,-2.604042 1.83467,-4.49789 1.83467,-1.953031 4.26116,-1.953031 3.90606,0 6.27337,6.450921 l 14.73651,41.013649 14.7365,-41.013649 q 2.30813,-6.450921 6.27337,-6.450921 2.4265,0 4.20198,1.953031 1.83467,1.893848 1.83467,4.49789 z"
           style="fill:#fffff4;fill-opacity:1;stroke:#00ffff;stroke-width:1.5;stroke-miterlimit:4;stroke-dasharray:none;stroke-opacity:1"
           id="path4873" />
        <path
           d="m 621.19985,87.974548 h -25.0343 q -2.54486,0 -4.55708,-1.953031 -1.95303,-2.012213 -1.95303,-4.497889 V 29.7979 q 0,-2.544859 1.95303,-4.49789 2.01222,-1.953031 4.55708,-1.953031 h 25.0343 v 9.705972 h -21.83844 v 17.754827 h 13.7304 v 9.705972 h -13.7304 v 17.754826 h 21.83844 z"
           style="fill:#fffff4;fill-opacity:1;stroke:#00ffff;stroke-width:1.5;stroke-miterlimit:4;stroke-dasharray:none;stroke-opacity:1"
           id="path4875" />
        <path
           d="m 666.88895,70.219722 q 0,6.924382 -5.44481,12.369196 -5.38563,5.38563 -12.31002,5.38563 -6.98356,0 -12.31001,-5.326448 -5.26726,-5.38563 -5.50399,-12.428378 h 9.70597 q 0.47346,3.255051 2.66322,5.622361 2.30813,2.426493 5.44481,2.426493 3.61015,0 5.91828,-3.136686 2.13058,-2.840772 2.13058,-6.569286 0,-3.195868 -2.42649,-5.622361 -2.4265,-2.426493 -5.62237,-2.426493 -7.57539,0 -12.72429,-5.859093 -5.08971,-5.918276 -5.08971,-13.552851 0,-6.983565 5.38563,-12.369196 5.38563,-5.385631 12.42837,-5.385631 6.92439,0 12.25084,5.385631 5.32644,5.326448 5.50399,12.369196 h -9.70597 q -0.41428,-3.195869 -2.66322,-5.622362 -2.24895,-2.426493 -5.38564,-2.426493 -3.66933,0 -5.91827,2.959138 -2.18976,2.899955 -2.18976,6.687651 0,3.255052 2.42649,5.681545 2.42649,2.426493 5.68154,2.426493 7.51621,0 12.78348,5.977458 4.97135,5.79991 4.97135,13.434486 z"
           style="fill:#fffff4;fill-opacity:1;stroke:#00ffff;stroke-width:1.5;stroke-miterlimit:4;stroke-dasharray:none;stroke-opacity:1"
           id="path4877" />
      </g>
      <g
         aria-label="s"
         transform="scale(0.99061219,1.0094768)"
         style="font-style:normal;font-variant:normal;font-weight:normal;font-stretch:normal;font-size:140.54907227px;line-height:1.25;font-family:'SF Atarian System';-inkscape-font-specification:'SF Atarian System';letter-spacing:0px;word-spacing:0px;fill:none;fill-opacity:1;stroke:#00ffff;stroke-width:1.5;stroke-miterlimit:4;stroke-dasharray:none;stroke-opacity:1"
         id="text4807">
        <path
           d="m 661.01326,72.998023 c 0,5.352943 -2.10457,10.13399 -6.31372,14.343142 -4.1634,4.163401 -8.92157,6.245101 -14.27452,6.245101 -5.39869,0 -10.15686,-2.058824 -14.27451,-6.176473 -4.0719,-4.163401 -7.31013,-14.853444 -7.49314,-20.29789 h 16.14234 c 0.36602,2.516341 0.72897,4.689543 3.97685,8.045641 7.66405,0.10587 8.99795,-11.072425 -2.12819,-11.234384 -6.07838,-0.872018 -7.88649,-2.046702 -12.97766,-7.012124 -3.93464,-4.575165 -3.90256,-11.775769 -3.90256,-17.677732 0,-5.398695 2.0817,-10.179742 6.2451,-14.343143 4.1634,-4.1634 8.96732,-6.2451 14.41177,-6.2451 5.35295,0 10.08824,2.0817 14.20589,6.2451 4.11765,4.117649 6.46726,15.438829 6.60451,20.883276 l -12.58784,0.872018 c -2.68339,-5.532722 -1.83022,-3.628646 -5.77884,-9.769346 -12.24471,-0.362905 -7.0195,11.677676 -1.77725,12.08607 5.81046,0 10.08517,3.836489 14.15707,8.457406 3.84313,4.483662 5.7647,9.676475 5.7647,15.578438 z"
           style="stroke:#00ffff;stroke-width:1.5;stroke-miterlimit:4;stroke-dasharray:none;stroke-opacity:1"
           id="path4809"
           inkscape:connector-curvature="0"
           sodipodi:nodetypes="sssccccccsssccccccs" />
      </g>
    </g>
  </g>
  <path
     style="fill:#ffffff;fill-opacity:1;stroke:none;stroke-width:1.66352451;stroke-miterlimit:4;stroke-dasharray:none;stroke-opacity:1"
     d=""
     id="path866"
     inkscape:connector-curvature="0" />
  <g
     id="text932"
     style="font-style:normal;font-variant:normal;font-weight:normal;font-stretch:normal;font-size:156.87864685px;line-height:1.25;font-family:'SF Atarian System';-inkscape-font-specification:'SF Atarian System';letter-spacing:0px;word-spacing:0px;fill:none;fill-opacity:1;stroke:#00ffff;stroke-width:2.0641861;stroke-miterlimit:4;stroke-dasharray:none;stroke-opacity:1"
     transform="matrix(1.2414734,0,0,0.9834324,-42.385144,-2.8454495)"
     aria-label="l" />
  <g
     aria-label="G"
     transform="scale(0.76751629,1.3029039)"
     style="font-style:normal;font-variant:normal;font-weight:normal;font-stretch:normal;font-size:79.98577118px;line-height:1.25;font-family:'Arial Rounded MT Bold';-inkscape-font-specification:'Arial Rounded MT Bold, ';letter-spacing:0px;word-spacing:0px;fill:none;fill-opacity:1;stroke:#00ffff;stroke-width:0.83318514;stroke-opacity:1"
     id="text4720" />
  <text
     xml:space="preserve"
     style="font-style:normal;font-variant:normal;font-weight:normal;font-stretch:normal;font-size:96px;line-height:1.25;font-family:'SF Atarian System';-inkscape-font-specification:'SF Atarian System';letter-spacing:0px;word-spacing:0px;fill:#000000;fill-opacity:1;stroke:none"
     x="421.71201"
     y="91.59169"
     id="text4727"><tspan
       sodipodi:role="line"
       id="tspan4725"
       x="421.71201"
       y="191.39069" /></text>
  <text
     xml:space="preserve"
     style="font-style:normal;font-variant:normal;font-weight:normal;font-stretch:normal;font-size:74.66666667px;line-height:1.25;font-family:'SF Atarian System';-inkscape-font-specification:'SF Atarian System';letter-spacing:0px;word-spacing:0px;fill:#000000;fill-opacity:1;stroke:none"
     x="411.44153"
     y="80.076302"
     id="text4747"><tspan
       sodipodi:role="line"
       id="tspan4745"
       x="411.44153"
       y="179.87529" /></text>
  <text
     xml:space="preserve"
     style="font-style:normal;font-variant:normal;font-weight:normal;font-stretch:normal;font-size:74.66666667px;line-height:1.25;font-family:'SF Atarian System';-inkscape-font-specification:'SF Atarian System';letter-spacing:0px;word-spacing:0px;fill:#000000;fill-opacity:1;stroke:none"
     x="418.28851"
     y="92.214142"
     id="text4751"><tspan
       sodipodi:role="line"
       id="tspan4749"
       x="418.28851"
       y="192.01314" /></text>
  <text
     xml:space="preserve"
     style="font-style:normal;font-variant:normal;font-weight:normal;font-stretch:normal;font-size:74.66666412px;line-height:1.25;font-family:'SF Atarian System';-inkscape-font-specification:'SF Atarian System';letter-spacing:0px;word-spacing:0px;fill:#000000;fill-opacity:1;stroke:none"
     x="419.53342"
     y="85.367157"
     id="text4755"><tspan
       sodipodi:role="line"
       id="tspan4753"
       x="419.53342"
       y="162.9886" /></text>
</svg>
