<?xml version="1.0" encoding="UTF-8" standalone="no"?>
<svg
   xmlns:osb="http://www.openswatchbook.org/uri/2009/osb"
   xmlns:dc="http://purl.org/dc/elements/1.1/"
   xmlns:cc="http://creativecommons.org/ns#"
   xmlns:rdf="http://www.w3.org/1999/02/22-rdf-syntax-ns#"
   xmlns:svg="http://www.w3.org/2000/svg"
   xmlns="http://www.w3.org/2000/svg"
   xmlns:sodipodi="http://sodipodi.sourceforge.net/DTD/sodipodi-0.dtd"
   xmlns:inkscape="http://www.inkscape.org/namespaces/inkscape"
   id="Calque_2"
   data-name="Calque 2"
   viewBox="0 0 1000 114"
   version="1.1"
   sodipodi:docname="system.svg"
   inkscape:version="0.92.4 (5da689c313, 2019-01-14)">
  <metadata
     id="metadata133">
    <rdf:RDF>
      <cc:Work
         rdf:about="">
        <dc:format>image/svg+xml</dc:format>
        <dc:type
           rdf:resource="http://purl.org/dc/dcmitype/StillImage" />
        <dc:title>logo</dc:title>
      </cc:Work>
    </rdf:RDF>
  </metadata>
  <defs
     id="defs131">
    <linearGradient
       id="linearGradient1126"
       osb:paint="solid">
      <stop
         style="stop-color:#00ffff;stop-opacity:1;"
         offset="0"
         id="stop1124" />
    </linearGradient>
  </defs>
  <sodipodi:namedview
     pagecolor="#000000"
     bordercolor="#666666"
     borderopacity="1"
     objecttolerance="10"
     gridtolerance="10"
     guidetolerance="10"
     inkscape:pageopacity="0.34901961"
     inkscape:pageshadow="2"
     inkscape:window-width="1920"
     inkscape:window-height="1017"
     id="namedview129"
     showgrid="false"
     inkscape:zoom="2.272"
     inkscape:cx="504.34515"
     inkscape:cy="57"
     inkscape:window-x="-8"
     inkscape:window-y="-8"
     inkscape:window-maximized="1"
     inkscape:current-layer="Calque_2"
     inkscape:pagecheckerboard="true" />
  <title
     id="title2">logo</title>
  <path
     style="fill:#ffffff;fill-opacity:1;stroke:none;stroke-width:1.66352451;stroke-miterlimit:4;stroke-dasharray:none;stroke-opacity:1"
     d=""
     id="path866"
     inkscape:connector-curvature="0" />
  <g
     id="g851">
    <g
       aria-label="a"
       transform="scale(1.0219585,0.97851334)"
       style="font-style:normal;font-variant:normal;font-weight:normal;font-stretch:normal;font-size:146.55964661px;line-height:1.25;font-family:'SF Atarian System';-inkscape-font-specification:'SF Atarian System';letter-spacing:0px;word-spacing:0px;fill:none;fill-opacity:1;stroke:#00ffff;stroke-width:2.10840344;stroke-miterlimit:4;stroke-dasharray:none;stroke-opacity:1"
       id="text928">
      <path
         d="m 347.0467,93.463493 h -12.1656 l -4.9378,-17.604332 h -21.82651 l -5.00936,17.604332 h -12.09404 l 19.67964,-70.345768 q 2.21844,-7.800293 8.30123,-7.800293 6.0828,0 8.30123,7.800293 z m -20.39527,-29.340554 -7.65717,-27.05056 -7.5856,27.05056 z"
         style="fill:none;stroke:#00ffff;stroke-width:2.10840344;stroke-miterlimit:4;stroke-dasharray:none;stroke-opacity:1"
         id="path853" />
    </g>
    <g
       aria-label="l"
       transform="scale(1.0963026,0.9121569)"
       style="font-style:normal;font-variant:normal;font-weight:normal;font-stretch:normal;font-size:156.87864685px;line-height:1.25;font-family:'SF Atarian System';-inkscape-font-specification:'SF Atarian System';letter-spacing:0px;word-spacing:0px;fill:none;fill-opacity:1;stroke:#00ffff;stroke-width:2.0641861;stroke-miterlimit:4;stroke-dasharray:none;stroke-opacity:1"
       id="text932">
      <path
         d="m 354.82807,100.27156 h -32.40219 q -3.29383,0 -5.89827,-2.527829 -2.52782,-2.604431 -2.52782,-5.821669 V 16.623376 h 12.56254 v 71.085637 h 28.26574 z"
         style="fill:none;stroke:#00ffff;stroke-width:2.0641861;stroke-miterlimit:4;stroke-dasharray:none;stroke-opacity:1"
         id="path856" />
    </g>
    <g
       aria-label="g"
       transform="scale(1.0644157,0.93948258)"
       style="font-style:normal;font-variant:normal;font-weight:normal;font-stretch:normal;font-size:156.45744324px;line-height:1.25;font-family:'SF Atarian System';-inkscape-font-specification:'SF Atarian System';letter-spacing:0px;word-spacing:0px;fill:none;fill-opacity:1;stroke:#00ffff;stroke-width:2.2459197;stroke-miterlimit:4;stroke-dasharray:none;stroke-opacity:1"
       id="text940">
      <path
         d="m 452.94067,97.997955 h -12.52882 v -2.597438 q -4.88929,2.597438 -10.38975,2.597438 -9.09103,0 -16.043,-6.951966 -6.95197,-6.951967 -6.95197,-15.966604 V 37.492928 q 0,-9.014637 6.95197,-15.966604 6.95197,-6.951966 16.043,-6.951966 8.93824,0 15.81381,6.951966 6.87557,6.875571 7.10476,15.966604 h -12.52882 q -0.30558,-4.125342 -3.36139,-7.257547 -2.97941,-3.132205 -7.02836,-3.132205 -4.20174,0 -7.33394,3.132205 -3.13221,3.132205 -3.13221,7.257547 v 37.586457 q 0,4.125342 3.13221,7.257547 3.1322,3.132205 7.33394,3.132205 4.12534,0 7.25755,-3.132205 3.1322,-3.132205 3.1322,-7.257547 V 62.550566 H 430.0221 V 50.021747 h 14.59149 q 3.285,0 5.80604,2.597438 2.52104,2.521043 2.52104,5.729643 z"
         style="fill:none;stroke:#00ffff;stroke-width:2.2459197;stroke-miterlimit:4;stroke-dasharray:none;stroke-opacity:1"
         id="path859" />
    </g>
    <g
       aria-label="m"
       transform="scale(1.0096948,0.99039828)"
       style="font-style:normal;font-variant:normal;font-weight:normal;font-stretch:normal;font-size:145.35597229px;line-height:1.25;font-family:'SF Atarian System';-inkscape-font-specification:'SF Atarian System';letter-spacing:0px;word-spacing:0px;fill:none;fill-opacity:1;stroke:#00ffff;stroke-width:2.1317749;stroke-miterlimit:4;stroke-dasharray:none;stroke-opacity:1"
       id="text948">
      <path
         d="M 580.7357,92.902496 H 569.09587 V 48.827272 l -13.05933,36.338993 q -2.768,7.736231 -7.73623,7.736231 -4.96822,0 -7.8072,-7.736231 L 527.43378,48.827272 V 92.902496 H 515.79395 V 23.134469 q 0,-3.122883 2.20021,-5.39407 2.20021,-2.342161 5.11017,-2.342161 4.68433,0 7.52331,7.736231 l 17.67267,49.185395 17.67268,-49.185395 q 2.76801,-7.736231 7.52331,-7.736231 2.90995,0 5.03919,2.342161 2.20021,2.271187 2.20021,5.39407 z"
         style="fill:none;stroke:#00ffff;stroke-width:2.1317749;stroke-miterlimit:4;stroke-dasharray:none;stroke-opacity:1"
         id="path862" />
    </g>
    <g
       aria-label="e"
       transform="scale(1.1253803,0.8885885)"
       style="font-style:normal;font-variant:normal;font-weight:normal;font-stretch:normal;font-size:168.0859375px;line-height:1.25;font-family:'SF Atarian System';-inkscape-font-specification:'SF Atarian System';letter-spacing:0px;word-spacing:0px;fill:none;fill-opacity:1;stroke:#00ffff;stroke-width:2.43444991;stroke-miterlimit:4;stroke-dasharray:none;stroke-opacity:1"
       id="text952">
      <path
         d="m 560.56539,105.23074 h -34.71697 q -3.52915,0 -6.31963,-2.70841 -2.70842,-2.790492 -2.70842,-6.237567 V 24.552776 q 0,-3.529148 2.70842,-6.237564 2.79048,-2.708416 6.31963,-2.708416 h 34.71697 v 13.460007 h -30.28501 v 24.621963 h 19.04098 v 13.460007 h -19.04098 v 24.621964 h 30.28501 z"
         style="fill:none;stroke:#00ffff;stroke-width:2.43444991;stroke-miterlimit:4;stroke-dasharray:none;stroke-opacity:1"
         id="path865" />
    </g>
    <g
       aria-label="s"
       transform="scale(1.0490095,0.95328025)"
       style="font-style:normal;font-variant:normal;font-weight:normal;font-stretch:normal;font-size:166.50767517px;line-height:1.25;font-family:'SF Atarian System';-inkscape-font-specification:'SF Atarian System';letter-spacing:0px;word-spacing:0px;fill:none;fill-opacity:1;stroke:#00ffff;stroke-width:2.34923029;stroke-miterlimit:4;stroke-dasharray:none;stroke-opacity:1"
       id="text956">
      <path
         d="m 641.23121,76.224454 q 0,9.512401 -7.47984,16.992238 -7.39853,7.398538 -16.91093,7.398538 -9.59371,0 -16.91094,-7.317235 -7.23593,-7.398534 -7.56114,-17.073541 h 13.33362 q 0.65042,4.471642 3.65862,7.723745 3.1708,3.333405 7.47984,3.333405 4.95945,0 8.13025,-4.309036 2.9269,-3.902524 2.9269,-9.024586 0,-4.390339 -3.33341,-7.723745 -3.33341,-3.333405 -7.72374,-3.333405 -10.40673,0 -17.48006,-8.048955 -6.99202,-8.130258 -6.99202,-18.61829 0,-9.593704 7.39853,-16.992239 7.39854,-7.398534 17.07355,-7.398534 9.5124,0 16.82963,7.398534 7.31723,7.317232 7.56114,16.992239 h -13.33362 q -0.56912,-4.390339 -3.65862,-7.723745 -3.0895,-3.333406 -7.39853,-3.333406 -5.04076,0 -8.13026,4.065129 -3.0082,3.983826 -3.0082,9.187191 0,4.471642 3.33341,7.805048 3.3334,3.333405 7.80505,3.333405 10.32542,0 17.56135,8.21156 6.82942,7.967653 6.82942,18.455685 z"
         style="fill:none;stroke:#00ffff;stroke-width:2.34923029;stroke-miterlimit:4;stroke-dasharray:none;stroke-opacity:1"
         id="path868" />
    </g>
    <g
       aria-label="l"
       transform="scale(1.0962854,0.91217119)"
       style="font-style:normal;font-variant:normal;font-weight:normal;font-stretch:normal;font-size:156.87796021px;line-height:1.25;font-family:'SF Atarian System';-inkscape-font-specification:'SF Atarian System';letter-spacing:0px;word-spacing:0px;fill:none;fill-opacity:1;stroke:#00ffff;stroke-width:2.06417727;stroke-miterlimit:4;stroke-dasharray:none;stroke-opacity:1"
       id="text932-4">
      <path
         d="M 389.18964,100.54166 H 356.7876 q -3.29382,0 -5.89824,-2.527822 -2.52782,-2.604419 -2.52782,-5.821643 V 16.893838 h 12.5625 v 71.085326 h 28.2656 z"
         style="fill:none;stroke:#00ffff;stroke-width:2.06417727;stroke-miterlimit:4;stroke-dasharray:none;stroke-opacity:1"
         id="path871" />
    </g>
    <g
       aria-label="a"
       transform="scale(0.99583477,1.0041826)"
       style="font-style:normal;font-variant:normal;font-weight:normal;font-stretch:normal;font-size:143.96290588px;line-height:1.25;font-family:'SF Atarian System';-inkscape-font-specification:'SF Atarian System';letter-spacing:0px;word-spacing:0px;fill:none;fill-opacity:1;stroke:#00ffff;stroke-width:2.07104707;stroke-miterlimit:4;stroke-dasharray:none;stroke-opacity:1"
       id="text928-7">
      <path
         d="M 530.06585,92.269295 H 518.1158 l -4.85031,-17.29242 H 491.8257 l -4.92061,17.29242 H 475.02534 L 494.3563,23.169912 q 2.17912,-7.662089 8.15415,-7.662089 5.97502,0 8.15414,7.662089 z m -20.03391,-28.820699 -7.52149,-26.571279 -7.45121,26.571279 z"
         style="fill:none;stroke:#00ffff;stroke-width:2.07104707;stroke-miterlimit:4;stroke-dasharray:none;stroke-opacity:1"
         id="path874" />
    </g>
    <path
       inkscape:connector-curvature="0"
       d="m 664.20991,68.126705 q 0,7.140123 -5.32997,12.754577 -5.27201,5.553429 -12.05033,5.553429 -6.83625,0 -12.05034,-5.492402 -5.15615,-5.553428 -5.38789,-12.815604 h 9.50123 q 0.46347,3.356468 2.60705,5.797535 2.25943,2.502095 5.32995,2.502095 3.53399,0 5.79343,-3.234415 2.08563,-2.929281 2.08563,-6.773962 0,-3.295441 -2.3753,-5.797536 -2.37531,-2.502093 -5.50376,-2.502093 -7.41559,0 -12.45588,-6.041643 -4.98235,-6.102667 -4.98235,-13.97511 0,-7.201149 5.27202,-12.754578 5.27202,-5.553428 12.16621,-5.553428 6.77832,0 11.9924,5.553428 5.21409,5.492403 5.3879,12.754578 h -9.50124 q -0.40553,-3.295441 -2.60704,-5.797536 -2.2015,-2.502094 -5.27202,-2.502094 -3.59193,0 -5.79343,3.051335 -2.14357,2.990308 -2.14357,6.896015 0,3.356468 2.37531,5.858562 2.3753,2.502095 5.56169,2.502095 7.35766,0 12.51381,6.163694 4.86649,5.980616 4.86649,13.853058 z m -44.72528,18.308006 h -24.50622 q -2.49117,0 -4.46094,-2.013881 -1.91183,-2.074907 -1.91183,-4.638028 V 26.445479 q 0,-2.624148 1.91183,-4.638028 1.96977,-2.013881 4.46094,-2.013881 h 24.50622 v 10.008376 h -21.37777 v 18.308007 h 13.44077 v 10.008376 h -13.44077 v 18.308006 h 21.37777 z m -40.66991,0 h -9.50123 V 48.537139 l -10.65991,31.245663 q -2.25944,6.651909 -6.31484,6.651909 -4.05541,0 -6.37278,-6.651909 L 535.30605,48.537139 v 37.897572 h -9.50123 V 26.445479 q 0,-2.685175 1.79596,-4.638028 1.79597,-2.013881 4.17127,-2.013881 3.82367,0 6.14105,6.651909 l 14.42564,42.291492 14.42564,-42.291492 q 2.25944,-6.651909 6.14104,-6.651909 2.37531,0 4.11334,2.013881 1.79596,1.952853 1.79596,4.638028 z m -55.50107,0 h -9.84883 l -3.99747,-15.012565 h -17.66996 l -4.0554,15.012565 h -9.79091 l 15.93194,-59.989232 q 1.79597,-6.651909 6.72038,-6.651909 4.92442,0 6.72038,6.651909 z M 506.80238,61.41377 500.6034,38.345683 494.46236,61.41377 Z m -31.45834,25.020941 h -9.50122 v -2.074908 q -3.70779,2.074908 -7.87906,2.074908 -6.89419,0 -12.16621,-5.553429 -5.27203,-5.553428 -5.27203,-12.754577 V 38.101576 q 0,-7.201149 5.27203,-12.754578 5.27202,-5.553428 12.16621,-5.553428 6.77831,0 11.9924,5.553428 5.21408,5.492403 5.38788,12.754578 h -9.50122 q -0.23174,-3.295441 -2.54911,-5.797536 -2.25943,-2.502094 -5.32995,-2.502094 -3.18639,0 -5.5617,2.502094 -2.37531,2.502095 -2.37531,5.797536 v 30.025129 q 0,3.295441 2.37531,5.797535 2.37531,2.502095 5.5617,2.502095 3.12845,0 5.50375,-2.502095 2.37531,-2.502094 2.37531,-5.797535 V 58.118329 h -7.87906 V 48.109953 h 11.06545 q 2.49117,0 4.40301,2.074906 1.91182,2.013882 1.91182,4.577002 z m -55.23745,0.314598 h -24.50623 q -2.49117,0 -4.46094,-2.013881 Q 389.2276,82.660521 389.2276,80.0974 V 20.108168 h 9.50122 v 56.632765 h 21.37777 z m -38.23665,0 h -24.50623 q -2.49117,0 -4.46094,-2.013881 -1.91182,-2.074907 -1.91182,-4.638028 V 20.108168 h 9.50122 v 56.632765 h 21.37777 z m -33.37017,0 h -9.84883 L 334.65347,71.736744 H 316.9835 l -4.0554,15.012565 h -9.7909 l 15.93193,-59.989232 q 1.79597,-6.651909 6.72039,-6.651909 4.92441,0 6.72038,6.651909 z m -16.51128,-25.020941 -6.19897,-23.068087 -6.14104,23.068087 z m 332.22142,6.398337 q 0,7.140124 -5.32996,12.754578 -5.27202,5.553429 -12.05034,5.553429 -6.83624,0 -12.05034,-5.492403 -5.15615,-5.553428 -5.38788,-12.815604 h 9.50122 q 0.46347,3.356468 2.60705,5.797535 2.25944,2.502096 5.32995,2.502096 3.53399,0 5.79344,-3.234416 2.08563,-2.92928 2.08563,-6.773962 0,-3.29544 -2.3753,-5.797535 -2.37532,-2.502093 -5.50377,-2.502093 -7.41559,0 -12.45588,-6.041643 -4.98234,-6.102668 -4.98234,-13.97511 0,-7.201149 5.27201,-12.754578 5.27203,-5.553429 12.16621,-5.553429 6.77832,0 11.9924,5.553429 5.2141,5.492402 5.3879,12.754578 h -9.50123 q -0.40554,-3.295442 -2.60704,-5.797536 -2.20151,-2.502094 -5.27203,-2.502094 -3.59193,0 -5.79343,3.051335 -2.14357,2.990307 -2.14357,6.896015 0,3.356468 2.37531,5.858562 2.37531,2.502094 5.56169,2.502094 7.35766,0 12.51382,6.163695 4.86648,5.980615 4.86648,13.853057 z m -44.72528,18.308007 h -24.50621 q -2.49118,0 -4.46094,-2.013882 -1.91184,-2.074906 -1.91184,-4.638028 V 26.445479 q 0,-2.624147 1.91184,-4.638027 1.96976,-2.013882 4.46094,-2.013882 h 24.50621 v 10.008377 h -21.37776 v 18.308006 h 13.44076 V 58.11833 h -13.44076 v 18.308006 h 21.37776 z m -40.6699,0 h -9.50124 V 48.53714 l -10.65991,31.245662 q -2.25944,6.65191 -6.31484,6.65191 -4.0554,0 -6.37277,-6.65191 L 535.30605,48.53714 v 37.897572 h -9.50122 V 26.445479 q 0,-2.685174 1.79596,-4.638027 1.79596,-2.013882 4.17127,-2.013882 3.82366,0 6.14104,6.651909 l 14.42564,42.291493 14.42565,-42.291493 q 2.25943,-6.651909 6.14103,-6.651909 2.37531,0 4.11334,2.013882 1.79597,1.952853 1.79597,4.638027 z m -55.50107,0 h -9.84883 l -3.99747,-15.012566 h -17.66997 l -4.0554,15.012566 h -9.79091 l 15.93195,-59.989233 q 1.79596,-6.651909 6.72037,-6.651909 4.92443,0 6.72039,6.651909 z M 506.80238,61.41377 500.6034,38.345683 494.46237,61.41377 Z m -31.45832,25.020942 h -9.50124 v -2.074909 q -3.70779,2.074909 -7.87906,2.074909 -6.89419,0 -12.16621,-5.553429 -5.27202,-5.553428 -5.27202,-12.754578 V 38.101577 q 0,-7.201149 5.27202,-12.754578 5.27202,-5.553429 12.16621,-5.553429 6.77831,0 11.9924,5.553429 5.21409,5.492402 5.3879,12.754578 h -9.50124 q -0.23173,-3.295442 -2.54911,-5.797536 -2.25943,-2.502094 -5.32995,-2.502094 -3.18639,0 -5.56169,2.502094 -2.37531,2.502094 -2.37531,5.797536 v 30.025128 q 0,3.295441 2.37531,5.797535 2.3753,2.502096 5.56169,2.502096 3.12845,0 5.50376,-2.502096 2.3753,-2.502094 2.3753,-5.797535 V 58.11833 h -7.87906 V 48.109953 h 11.06545 q 2.49118,0 4.40301,2.074907 1.91184,2.013881 1.91184,4.577001 z m -55.99349,0 h -24.50621 q -2.49118,0 -4.46095,-2.013882 -1.91183,-2.074906 -1.91183,-4.638028 V 19.79357 h 9.50122 v 56.632766 h 21.37777 z m -38.23665,0 h -24.50621 q -2.49118,0 -4.46095,-2.013882 -1.91183,-2.074906 -1.91183,-4.638028 V 19.79357 h 9.50123 v 56.632766 h 21.37776 z m -33.37017,0 h -9.84883 l -3.99747,-15.012566 h -17.66997 l -4.0554,15.012566 h -9.79089 l 15.93193,-59.989233 q 1.79596,-6.651909 6.72038,-6.651909 4.92442,0 6.72038,6.651909 z M 331.23247,61.41377 325.0335,38.345683 318.89247,61.41377 Z"
       style="font-style:normal;font-variant:normal;font-weight:normal;font-stretch:normal;font-size:133.33332825px;line-height:1.25;font-family:'SF Atarian System';-inkscape-font-specification:'SF Atarian System';letter-spacing:0px;word-spacing:0px;fill:#ffffff;fill-opacity:1;stroke:#f0ffff;stroke-width:1.78173113;stroke-miterlimit:4;stroke-dasharray:none;stroke-opacity:1"
       id="path1580" />
    <path
       inkscape:connector-curvature="0"
       d="m 664.20991,68.126704 q 0,7.140123 -5.32997,12.754578 -5.27201,5.553425 -12.05033,5.553425 -6.83625,0 -12.05034,-5.4924 -5.15615,-5.553427 -5.38789,-12.815603 h 9.50123 q 0.46347,3.356468 2.60705,5.797535 2.25943,2.502096 5.32995,2.502096 3.53399,0 5.79343,-3.234416 2.08563,-2.929281 2.08563,-6.773961 0,-3.295441 -2.3753,-5.797536 -2.37531,-2.502093 -5.50376,-2.502093 -7.41559,0 -12.45588,-6.041643 -4.98235,-6.102667 -4.98235,-13.97511 0,-7.201149 5.27202,-12.754578 5.27202,-5.553428 12.16621,-5.553428 6.77832,0 11.9924,5.553428 5.21409,5.492403 5.3879,12.754578 h -9.50124 q -0.40553,-3.295441 -2.60704,-5.797536 -2.2015,-2.502094 -5.27202,-2.502094 -3.59193,0 -5.79343,3.051335 -2.14357,2.990308 -2.14357,6.896015 0,3.356468 2.37531,5.858562 2.3753,2.502095 5.56169,2.502095 7.35766,0 12.51381,6.163694 4.86649,5.980616 4.86649,13.853057 z m -44.72528,18.308003 h -24.50622 q -2.49117,0 -4.46094,-2.013879 -1.91183,-2.074904 -1.91183,-4.638026 V 26.445479 q 0,-2.624148 1.91183,-4.638028 1.96977,-2.013881 4.46094,-2.013881 h 24.50622 v 10.008375 h -21.37777 v 18.308007 h 13.44077 v 10.008376 h -13.44077 v 18.308006 h 21.37777 z m -40.66991,0 h -9.50123 V 48.537138 l -10.65991,31.245664 q -2.25944,6.651905 -6.31484,6.651905 -4.05541,0 -6.37278,-6.651905 L 535.30605,48.537138 v 37.897569 h -9.50123 V 26.445479 q 0,-2.685175 1.79596,-4.638028 1.79597,-2.013881 4.17127,-2.013881 3.82367,0 6.14105,6.651909 l 14.42564,42.291492 14.42564,-42.291492 q 2.25944,-6.651909 6.14104,-6.651909 2.37531,0 4.11334,2.013881 1.79596,1.952853 1.79596,4.638028 z m -55.50107,0 h -9.84883 l -3.99747,-15.012562 h -17.66996 l -4.0554,15.012562 h -9.79091 l 15.93194,-59.989228 q 1.79597,-6.651909 6.72038,-6.651909 4.92442,0 6.72038,6.651909 z M 506.80238,61.413769 500.6034,38.345682 494.46236,61.413769 Z m -31.45834,25.020938 h -9.50122 v -2.074904 q -3.70779,2.074904 -7.87906,2.074904 -6.89419,0 -12.16621,-5.553425 -5.27203,-5.553429 -5.27203,-12.754578 V 38.101575 q 0,-7.201149 5.27203,-12.754577 5.27202,-5.553428 12.16621,-5.553428 6.77831,0 11.9924,5.553428 5.21408,5.492402 5.38788,12.754577 h -9.50122 q -0.23174,-3.29544 -2.54911,-5.797536 -2.25943,-2.502094 -5.32995,-2.502094 -3.18639,0 -5.5617,2.502094 -2.37531,2.502096 -2.37531,5.797536 v 30.025129 q 0,3.295441 2.37531,5.797535 2.37531,2.502096 5.5617,2.502096 3.12845,0 5.50375,-2.502096 2.37531,-2.502094 2.37531,-5.797535 V 58.118328 h -7.87906 V 48.109952 h 11.06545 q 2.49117,0 4.40301,2.074906 1.91182,2.013882 1.91182,4.577002 z m -55.23745,0.314602 h -24.50623 q -2.49117,0 -4.46094,-2.013879 -1.91182,-2.074913 -1.91182,-4.63803 V 20.108168 h 9.50122 v 56.632764 h 21.37777 z m -38.23665,0 h -24.50623 q -2.49117,0 -4.46094,-2.013879 -1.91182,-2.074913 -1.91182,-4.63803 V 20.108168 h 9.50122 v 56.632764 h 21.37777 z m -33.37017,0 h -9.84883 L 334.65347,71.736743 H 316.9835 l -4.0554,15.012566 h -9.7909 l 15.93193,-59.989232 q 1.79597,-6.651909 6.72039,-6.651909 4.92441,0 6.72038,6.651909 z M 331.98849,61.728367 325.78952,38.66028 319.64848,61.728367 Z m 332.22142,6.398337 q 0,7.140124 -5.32996,12.754578 -5.27202,5.553433 -12.05034,5.553433 -6.83624,0 -12.05034,-5.492408 -5.15615,-5.553427 -5.38788,-12.815603 h 9.50122 q 0.46347,3.356468 2.60705,5.797535 2.25944,2.502096 5.32995,2.502096 3.53399,0 5.79344,-3.234416 2.08563,-2.92928 2.08563,-6.773962 0,-3.29544 -2.3753,-5.797535 -2.37532,-2.502093 -5.50377,-2.502093 -7.41559,0 -12.45588,-6.041643 -4.98234,-6.102668 -4.98234,-13.97511 0,-7.201149 5.27201,-12.754577 5.27203,-5.553429 12.16621,-5.553429 6.77832,0 11.9924,5.553429 5.2141,5.492401 5.3879,12.754577 h -9.50123 q -0.40554,-3.295441 -2.60704,-5.797536 -2.20151,-2.502094 -5.27203,-2.502094 -3.59193,0 -5.79343,3.051335 -2.14357,2.990307 -2.14357,6.896015 0,3.356468 2.37531,5.858562 2.37531,2.502095 5.56169,2.502095 7.35766,0 12.51382,6.163695 4.86648,5.980614 4.86648,13.853056 z m -44.72528,18.308011 h -24.50621 q -2.49118,0 -4.46094,-2.013887 -1.91184,-2.074904 -1.91184,-4.638026 V 26.445479 q 0,-2.624147 1.91184,-4.638027 1.96976,-2.013882 4.46094,-2.013882 h 24.50621 v 10.008376 h -21.37776 v 18.308007 h 13.44076 v 10.008376 h -13.44076 v 18.308006 h 21.37776 z m -40.6699,0 h -9.50124 V 48.537139 l -10.65991,31.245663 q -2.25944,6.651913 -6.31484,6.651913 -4.0554,0 -6.37277,-6.651913 L 535.30605,48.537139 v 37.897576 h -9.50122 V 26.445479 q 0,-2.685174 1.79596,-4.638027 1.79596,-2.013882 4.17127,-2.013882 3.82366,0 6.14104,6.651909 l 14.42564,42.291492 14.42565,-42.291492 q 2.25943,-6.651909 6.14103,-6.651909 2.37531,0 4.11334,2.013882 1.79597,1.952853 1.79597,4.638027 z m -55.50107,0 h -9.84883 l -3.99747,-15.01257 h -17.66997 l -4.0554,15.01257 h -9.79091 l 15.93195,-59.989236 q 1.79596,-6.651909 6.72037,-6.651909 4.92443,0 6.72039,6.651909 z M 506.80238,61.413769 500.6034,38.345682 494.46237,61.413769 Z m -31.45832,25.020946 h -9.50124 v -2.074912 q -3.70779,2.074912 -7.87906,2.074912 -6.89419,0 -12.16621,-5.553433 -5.27202,-5.553428 -5.27202,-12.754578 V 38.101576 q 0,-7.201149 5.27202,-12.754577 5.27202,-5.553429 12.16621,-5.553429 6.77831,0 11.9924,5.553429 5.21409,5.492401 5.3879,12.754577 h -9.50124 q -0.23173,-3.295441 -2.54911,-5.797536 -2.25943,-2.502094 -5.32995,-2.502094 -3.18639,0 -5.56169,2.502094 -2.37531,2.502095 -2.37531,5.797536 v 30.025128 q 0,3.295441 2.37531,5.797535 2.3753,2.502097 5.56169,2.502097 3.12845,0 5.50376,-2.502097 2.3753,-2.502094 2.3753,-5.797535 V 58.118329 h -7.87906 V 48.109953 h 11.06545 q 2.49118,0 4.40301,2.074906 1.91184,2.013882 1.91184,4.577001 z m -55.99349,0 h -24.50621 q -2.49118,0 -4.46095,-2.013887 -1.91183,-2.074904 -1.91183,-4.638026 V 19.79357 h 9.50122 v 56.632765 h 21.37777 z m -38.23665,0 h -24.50621 q -2.49118,0 -4.46095,-2.013887 -1.91183,-2.074904 -1.91183,-4.638026 V 19.79357 h 9.50123 v 56.632765 h 21.37776 z m -33.37017,0 h -9.84883 l -3.99747,-15.01257 h -17.66997 l -4.0554,15.01257 h -9.79089 l 15.93193,-59.989236 q 1.79596,-6.651909 6.72038,-6.651909 4.92442,0 6.72038,6.651909 z M 331.23247,61.413769 325.0335,38.345682 318.89247,61.413769 Z"
       style="font-style:normal;font-variant:normal;font-weight:normal;font-stretch:normal;font-size:133.33332825px;line-height:1.25;font-family:'SF Atarian System';-inkscape-font-specification:'SF Atarian System';letter-spacing:0px;word-spacing:0px;fill:#ffffff;fill-opacity:1;stroke:#f0ffff;stroke-width:1.78173113;stroke-miterlimit:4;stroke-dasharray:none;stroke-opacity:1"
       id="path1580-6" />
  </g>
</svg>
