<?xml version="1.0" encoding="UTF-8" standalone="no"?>
<svg
   xmlns:dc="http://purl.org/dc/elements/1.1/"
   xmlns:cc="http://creativecommons.org/ns#"
   xmlns:rdf="http://www.w3.org/1999/02/22-rdf-syntax-ns#"
   xmlns:svg="http://www.w3.org/2000/svg"
   xmlns="http://www.w3.org/2000/svg"
   xmlns:sodipodi="http://sodipodi.sourceforge.net/DTD/sodipodi-0.dtd"
   xmlns:inkscape="http://www.inkscape.org/namespaces/inkscape"
   viewBox="0 0 1000 114"
   version="1.1"
   id="svg123"
   sodipodi:docname="logo.svg"
   inkscape:version="0.92.4 (5da689c313, 2019-01-14)">
  <metadata
     id="metadata129">
    <rdf:RDF>
      <cc:Work
         rdf:about="">
        <dc:format>image/svg+xml</dc:format>
        <dc:type
           rdf:resource="http://purl.org/dc/dcmitype/StillImage" />
        <dc:title>logo</dc:title>
      </cc:Work>
    </rdf:RDF>
  </metadata>
  <defs
     id="defs127" />
  <sodipodi:namedview
     pagecolor="#ffffff"
     bordercolor="#666666"
     borderopacity="1"
     objecttolerance="10"
     gridtolerance="10"
     guidetolerance="10"
     inkscape:pageopacity="0"
     inkscape:pageshadow="2"
     inkscape:window-width="1920"
     inkscape:window-height="1017"
     id="namedview125"
     showgrid="false"
     inkscape:pagecheckerboard="true"
     inkscape:zoom="2.272"
     inkscape:cx="417.37933"
     inkscape:cy="17.387324"
     inkscape:window-x="-8"
     inkscape:window-y="-8"
     inkscape:window-maximized="1"
     inkscape:current-layer="svg123" />
  <title
     id="title2">logo</title>
  <g
     id="g1011">
    <path
       d="m 387.342,15.42054 c 0.94776,0 2.95716,2.16986 2.78447,3.1319 l -3.6896,17.46686 c -0.1717,0.9041 -1.39174,2.99072 -2.29384,2.99072 h -5.35974 l -0.0701,-0.06812 h -0.27838 v -0.07006 h -0.13915 l -0.0711,-0.06806 h -0.0691 l -0.069,-0.07012 -0.0691,-0.069 h -0.0691 v -0.0711 l -0.07,-0.0691 -0.0701,-0.07012 v -0.069 l -0.0691,-0.06908 -0.0711,-0.07014 v -0.14021 l -0.0691,-0.069 v -0.1382 l -0.0711,-0.06908 v -0.0691 c 0,-0.11578 -0.0122,-0.28949 0,-0.41852 l 4.1762,-21.3637 a 2.168,2.168 0 0 1 1.32264,-0.55768 h 4.31532 m 0,-7 h -4.31543 a 9.02732,9.02732 0 0 0 -5.77728,2.158 7,7 0 0 0 -2.41531,4.05672 L 370.6578,35.999 q -0.0663,0.33885 -0.0989,0.683 a 9.12951,9.12951 0 0 0 -0.0312,1.14244 v 0.0051 a 6.99783,6.99783 0 0 0 0.4151,2.37467 q 0.0214,0.06588 0.0442,0.13142 a 7.00278,7.00278 0 0 0 0.94508,1.92308 q 0.053,0.08188 0.10826,0.16221 a 7.93593,7.93593 0 0 0 3.1245,2.71188 8.62772,8.62772 0 0 0 3.61836,0.87722 h 5.35971 c 5.60188,0 8.548,-5.68519 9.1464,-8.56148 l 3.68592,-17.44938 q 0.0222,-0.1047 0.041,-0.21 a 8.93363,8.93363 0 0 0 -2.33069,-7.4684 c -1.21845,-1.4566 -3.79269,-3.9002 -7.34368,-3.9002 z"
       id="path25"
       inkscape:connector-curvature="0"
       style="fill:#ffffff" />
    <path
       d="m 442.80332,15.42055 c 0.94879,0 2.96832,2.16986 2.78142,3.13188 l -3.6906,17.39674 c -0.16052,0.91126 -2.42694,3.06182 -3.33716,3.06182 h -3.8288 a 1.32136,1.32136 0 0 1 -1.39074,-1.2495 3.37777,3.37777 0 0 1 0,-0.41853 l 4.10614,-21.36371 0.067,-0.06909 0.0711,-0.0691 0.13709,-0.07006 h 0.0681 l 0.0701,-0.0691 0.0691,-0.06907 h 0.069 l 0.0691,-0.07009 h 0.0711 l 0.13715,-0.068 h 0.2052 V 15.4246 h 0.009 v -0.004 h 4.31642 m 0,-7 h -4.31637 a 6.985,6.985 0 0 0 -2.45073,0.441 l -0.0412,0.014 a 8.23609,8.23609 0 0 0 -1.86226,0.87417 6.99976,6.99976 0 0 0 -1.42751,1.06944 l -0.0712,0.0691 q -0.0749,0.07271 -0.14758,0.14762 l -0.067,0.06908 a 7.0001,7.0001 0 0 0 -1.8501,3.55299 l -4.10614,21.36371 q -0.042,0.2186 -0.0701,0.43955 a 8.53635,8.53635 0 0 0 -0.0543,1.44263 q 0.004,0.20073 0.0197,0.401 a 8.31536,8.31536 0 0 0 8.36962,7.706 h 3.8288 c 4.49625,0 9.34342,-4.74921 10.18407,-8.60929 l 7e-4,1.5e-4 3.6906,-17.39675 q 0.0125,-0.05872 0.0239,-0.11767 A 8.856,8.856 0 0 0 450.213,12.39522 c -1.2238,-1.48445 -3.81381,-3.97477 -7.41,-3.97477 z"
       id="path29"
       inkscape:connector-curvature="0"
       style="fill:#ffffff" />
    <path
       d="m 655.53818,15.14215 a 3.89707,3.89707 0 0 1 3.96393,4.7309 L 650.73417,66.151 a 6.00581,6.00581 0 0 1 -5.63709,4.802 h -4.036 l 10.37,-55.81081 h 4.10711 m 0,-7 h -4.10711 a 7,7 0 0 0 -6.88221,5.72124 l -10.37,55.81081 a 7,7 0 0 0 6.8822,8.27876 h 4.036 a 13.05989,13.05989 0 0 0 12.52216,-10.5382 l 8.7605,-46.23866 q 0.0107,-0.05636 0.0204,-0.11288 a 10.89073,10.89073 0 0 0 -10.862,-12.92107 z"
       id="path33"
       inkscape:connector-curvature="0"
       style="fill:#ffffff" />
    <path
       d="m 687.54715,15.14215 a 3.8521,3.8521 0 0 1 3.8949,4.7309 L 683.09464,66.151 a 5.86515,5.86515 0 0 1 -5.49786,4.802 c -2.62909,0 -3.72419,-2.176 -3.27411,-4.802 l 8.28133,-46.27795 0.0671,-0.20923 0.0711,-0.20929 0.0671,-0.27733 0.0691,-0.20924 0.0711,-0.27838 0.067,-0.20929 0.0712,-0.20923 0.13715,-0.20727 0.069,-0.20924 0.14123,-0.20928 0.0691,-0.20824 0.13916,-0.20931 0.14118,-0.13914 0.13721,-0.20826 0.14117,-0.20924 0.20825,-0.1402 0.13916,-0.14019 0.14124,-0.13916 0.20624,-0.14019 0.21026,-0.13922 0.14124,-0.13916 0.20617,-0.14019 0.21033,-0.069 0.20819,-0.13922 0.14124,-0.07006 0.27527,-0.07013 0.20825,-0.06806 h 0.20825 l 0.20825,-0.07007 h 0.27936 l 0.21326,-0.064 h 0.27935 m 0,-7 h -0.27935 a 13.12955,13.12955 0 0 0 -3.07044,0.47612 l -0.0502,0.01279 a 6.99927,6.99927 0 0 0 -1.38306,0.51269 l -0.14123,0.07006 q -0.10854,0.05385 -0.21509,0.1114 a 6.99993,6.99993 0 0 0 -1.0282,0.57882 l -0.2062,0.14019 q -0.27937,0.19 -0.53922,0.406 l -0.0179,0.01216 a 6.998,6.998 0 0 0 -0.86435,0.69363 6.99961,6.99961 0 0 0 -1.482,1.58539 6.99452,6.99452 0 0 0 -0.45581,0.61063 l -0.13916,0.20931 a 6.99691,6.99691 0 0 0 -0.52411,0.937 q -0.12354,0.2261 -0.23022,0.46088 a 7.00319,7.00319 0 0 0 -0.46021,1.05785 l -0.0712,0.20923 q -0.0202,0.05937 -0.0393,0.1191 l -0.067,0.20929 q -0.0639,0.19938 -0.11569,0.40228 l -0.0117,0.04559 q -0.0819,0.25063 -0.14477,0.50691 l -0.006,0.01764 -0.0671,0.20924 a 7.00032,7.00032 0 0 0 -0.22464,0.90372 l -8.28131,46.2779 -0.009,0.05057 a 11.36455,11.36455 0 0 0 2.283,9.42791 10.11586,10.11586 0 0 0 7.89051,3.55657 12.80794,12.80794 0 0 0 12.394,-10.60052 l 8.34012,-46.23682 0.009,-0.05 a 11.10554,11.10554 0 0 0 -2.363,-9.08414 10.95769,10.95769 0 0 0 -8.42954,-3.83936 z"
       id="path37"
       inkscape:connector-curvature="0"
       style="fill:#ffffff" />
    <path
       d="M 694.29557,83.826 V 107 H 297.08623 V 83.826 h 397.20934 m -5.35968,2.43507 -2.50412,0.07006 -3.968,8.97721 -0.41446,-9.04727 h -2.57521 l -2.99579,15.6576 h 2.29791 l 1.532,-8.49067 0.4144,8.49067 h 1.39279 l 3.48041,-8.2794 -1.2496,8.2794 h 1.94839 l 2.64133,-15.6576 m -29.71506,15.6576 h 4.45453 l 0.27527,-1.94853 H 661.796 l 0.90313,-5.28854 h 2.15866 l 0.34946,-1.599 h -2.22571 l 0.97211,-4.9412 h 2.15668 l 0.34945,-1.88033 h -4.17419 l -3.06479,15.6576 m -10.50214,-15.6576 h -4.66485 l -0.34741,1.88033 h 1.18246 l -2.434,13.7782 h 2.29587 l 2.434,-13.7782 h 1.18448 l 0.34945,-1.88033 m -21.43988,14.1988 a 0.89866,0.89866 0 0 1 -0.835,-1.11247 l 0.4866,-2.85346 h -2.01953 l -0.69693,3.96386 a 1.1815,1.1815 0 0 0 1.18659,1.4608 h 2.98968 a 1.862,1.862 0 0 0 1.74219,-1.4608 c 0,0 0.60141,-3.455 0.69687,-3.96386 a 0.5454,0.5454 0 0 0 -0.0711,-0.27947 32.00411,32.00411 0 0 0 -2.71438,-4.5216 0.94751,0.94751 0 0 1 -0.20627,-0.69687 l 0.34747,-1.8804 a 1.304,1.304 0 0 1 1.25153,-1.04433 0.83261,0.83261 0 0 1 0.835,1.04433 l -0.41846,2.57527 h 1.87934 l 0.76593,-3.89894 a 1.24158,1.24158 0 0 0 -1.25147,-1.53086 h -3.40533 l -0.0914,0.08327 H 627.544 l -0.0691,0.06806 h -0.0671 l -0.0711,0.06807 h -0.0691 l -0.0691,0.06907 -0.0691,0.06706 -0.0691,0.07107 -0.0691,0.06707 -0.0691,0.07113 -0.065,0.06907 H 626.786 V 86.962 l -0.0691,0.07107 -0.0692,0.06813 v 0.07207 l -0.069,0.06806 v 0.06807 l -0.0691,0.07107 v 0.06807 l -0.0691,0.1402 v 0.1362 l -0.067,0.069 c 0,0 -0.53646,2.57933 -0.55774,2.9928 a 2.00741,2.00741 0 0 0 0.13913,0.9742 c 0.16056,0.831 2.61081,4.32966 2.99183,5.2896 l -0.41654,2.29686 a 1.39388,1.39388 0 0 1 -1.25162,1.11247 m -13.633,-14.1988 h -2.50819 l -3.2,5.9164 -0.34738,-5.9164 h -2.50614 l 1.04932,8.55873 -1.11539,7.09887 h 2.2258 l 1.25153,-6.61033 5.15039,-9.04727 m -25.12748,14.19773 a 0.8869,0.8869 0 0 1 -0.83094,-1.11233 l 0.48355,-2.85253 h -2.01754 l -0.69886,3.96386 a 1.17975,1.17975 0 0 0 1.18445,1.4608 h 2.92267 a 1.85,1.85 0 0 0 1.73816,-1.4608 c 0,0 0.69693,-3.455 0.766,-3.96386 0.0243,-0.05594 -0.009,-0.12907 -0.0671,-0.27947 a 30.88919,30.88919 0 0 0 -2.71438,-4.5216 1.1296,1.1296 0 0 1 -0.20627,-0.69687 l 0.3454,-1.8804 a 1.30928,1.30928 0 0 1 1.25158,-1.04433 0.8327,0.8327 0 0 1 0.835,1.04433 l -0.41449,2.57527 h 1.8774 l 0.766,-3.89894 a 1.23506,1.23506 0 0 0 -1.25159,-1.53086 h -3.40521 l -0.0873,0.08327 h -0.20819 l -0.0691,0.06806 h -0.069 l -0.0692,0.06807 h -0.071 l -0.0671,0.06907 -0.0671,0.06706 h -0.069 v 0.07107 l -0.0691,0.06707 -0.0671,0.07113 -0.0711,0.06907 h -0.067 V 86.962 l -0.0711,0.07107 -0.069,0.06813 v 0.07107 l -0.0691,0.06807 v 0.06806 l -0.0671,0.07114 v 0.06806 l -0.067,0.1402 v 0.2052 h -0.0721 c 0,0 -0.53439,2.57927 -0.55576,2.99274 a 1.966,1.966 0 0 0 0.13715,0.9742 c 0.15854,0.831 2.621,4.3296 2.99381,5.2896 l -0.41654,2.29693 a 1.39137,1.39137 0 0 1 -1.25561,1.11233 m -29.5018,-13.639 h -4.66279 l -0.34446,1.9464 h 1.2516 l -2.43814,13.7792 h 2.2278 l 2.43614,-13.7792 h 1.1824 l 0.34745,-1.9464 m -18.58226,0 h -2.22573 l -1.52994,8.2112 -1.04527,-8.2112 h -1.94853 l -2.99272,15.7246 h 2.29576 l 1.81126,-9.1184 0.766,9.1184 h 1.94839 l 2.9206,-15.7246 m -29.98847,15.7276 h 4.38248 l 0.34746,-1.94733 H 512.952 l 0.90512,-5.28967 h 2.22368 l 0.27939,-1.67113 h -2.15666 l 0.90313,-4.87307 h 2.22574 l 0.27933,-1.9464 h -4.10507 l -3.06087,15.7276 m -25.12439,0 h 2.2278 l 1.52992,-8.48853 0.41648,8.48853 h 1.39073 l 3.4824,-8.28126 -1.25154,8.28126 h 1.94841 l 2.64327,-15.65653 h -2.50208 l -3.97,9.04527 -0.41446,-9.11634 h -2.57521 l -2.92572,15.7276 M 471.96276,86.8198 H 469.737 l -1.534,8.2112 -1.04126,-8.2112 h -1.95041 l -2.99079,15.7246 h 2.2938 l 1.81133,-9.1184 0.69693,9.1184 h 2.01747 l 2.92267,-15.7246 m -27.62854,15.7246 h 1.94841 l 2.9938,-15.7246 h -2.01754 l -2.92467,15.7246 m -21.36166,0 h 2.36393 l 1.32367,-3.61953 h 1.599 l -0.34747,3.61953 h 2.64533 l 0.83506,-15.7246 h -2.64534 l -5.77419,15.7246 M 410.23562,86.8198 h -4.66186 l -0.3464,1.9464 h 1.25153 l -2.435,13.7792 h 2.22681 l 2.50612,-13.7792 h 1.18148 l 0.27732,-1.9464 m -27.55539,15.72254 h 2.01846 l 1.32167,-7.0978 h 1.39273 a 0.94239,0.94239 0 0 1 0.20927,0.6278 2.9821,2.9821 0 0 1 0.0691,0.76486 c -0.0365,0.22554 -1.11434,5.70514 -1.11434,5.70514 h 2.01741 c 0,0 1.11446,-6.10027 1.11446,-6.19367 a 2.54136,2.54136 0 0 0 -0.1382,-0.765 h -0.069 V 95.5126 h -0.1402 v -0.06813 h -0.20933 l -0.069,-0.06807 h -0.27841 v -0.06806 h -0.28039 c 0.56586,-0.22854 1.62546,-0.7202 1.74126,-1.32367 L 391.309,88.4188 a 1.24991,1.24991 0 0 0 -1.18347,-1.599 H 385.673 l -2.99273,15.72254 m -19.69267,0.005 h 4.4536 l 0.27734,-1.94733 h -2.15667 l 0.90406,-5.28967 h 2.15673 l 0.27834,-1.67113 h -2.15767 l 0.97414,-4.87307 h 2.15773 l 0.34846,-1.9464 h -4.17526 l -3.0608,15.7276 M 350.39082,86.8198 h -4.59273 l -0.41653,1.9464 h 1.2526 l -2.43407,13.7792 h 2.2248 L 348.93,88.7662 h 1.18347 l 0.27733,-1.9464 m -18.65033,0 h -2.29786 l -1.52994,8.2112 -1.04326,-8.2112 H 324.921 l -2.9938,15.7246 h 2.29793 l 1.8082,-9.1184 0.76593,9.1184 h 1.94747 l 2.99373,-15.7246 m -29.1564,15.7276 h 4.45354 l 0.34846,-1.94733 h -2.15666 l 0.834,-5.28967 h 2.2268 l 0.27933,-1.67113 h -2.15773 l 0.9042,-4.87307 h 2.22573 l 0.2794,-1.9464 H 305.715 l -3.13094,15.7276 m 342.3048,-14.406 h 0.005 m -89.633,0.6248 h 0.005 m -148.787,0 h 0.005 m -59.84973,0 h 0.005 M 694.29557,76.826 H 297.08623 a 7,7 0 0 0 -7,7 V 107 a 7,7 0 0 0 7,7 h 397.20934 a 7,7 0 0 0 7,-7 V 83.826 a 7,7 0 0 0 -7,-7 z m -266.03641,29.09887 z"
       id="path71"
       inkscape:connector-curvature="0"
       style="fill:none;stroke:#00ffff;stroke-opacity:1" />
    <path
       d="m 369.94426,7 -11.89784,64.16223 a 8.35023,8.35023 0 0 1 -7.93292,6.54016 H 336.82187 A 5.37137,5.37137 0 0 1 331.324,71.16223 L 342.45689,7 H 351.365 L 340.29818,69.35089 A 1.38327,1.38327 0 0 0 341.691,71.023 h 6.61226 a 2.09814,2.09814 0 0 0 1.94745,-1.67213 L 361.59482,7 h 8.34944 M 351.365,7 h 0.005 M 369.94424,0 H 361.5948 A 6.99261,6.99261 0 0 0 356.48162,2.219 6.97643,6.97643 0 0 0 351.37,0 h -8.91313 A 7,7 0 0 0 335.56,5.80331 l -11.1329,64.16221 a 12.36186,12.36186 0 0 0 12.39482,14.73687 H 350.1135 A 15.24457,15.24457 0 0 0 364.92705,72.44947 L 376.82692,8.27631 A 7,7 0 0 0 369.94426,0 Z m 0,14 z"
       id="path59"
       inkscape:connector-curvature="0"
       style="fill:none;stroke:#00ffff;stroke-opacity:1" />
    <path
       d="m 330.6271,7 c 3.81763,0 6.30653,3.139 5.566,7.02576 l -3.2711,17.4668 h -9.39374 l 2.01753,-11.62047 c 0.45208,-2.62606 -0.64406,-4.7309 -3.27008,-4.7309 a 5.85633,5.85633 0 0 0 -5.567,4.7309 c 0,0 -1.48314,7.32945 -1.46185,8.42052 0.0153,1.09814 0.41755,2.91447 0.90619,3.2 1.13471,0.68269 12.24726,19.02619 12.24726,20.3905 0,0 0.33324,0.13008 0.34642,1.32269 0.0162,1.18444 -3.40924,17.95442 -3.40924,17.95442 a 8.26379,8.26379 0 0 1 -7.86181,6.54016 h -13.29261 a 5.37074,5.37074 0 0 1 -5.49687,-6.54016 l 3.1319,-17.95442 h 9.32471 l -2.366,12.94313 a 3.89463,3.89463 0 0 0 3.96692,4.72992 c 2.625,0 4.417,-2.1039 4.8701,-4.72992 0,0 1.472,-7.79169 1.80927,-10.439 0.35955,-2.64026 -12.12848,-19.98213 -12.804,-23.72863 -0.53029,-0.43177 -0.767,-2.753 -0.69587,-4.45461 v -0.13818 l 0.07,-0.13915 v -0.27935 l 0.0691,-0.20929 v -0.34839 l 0.0681,-0.13924 V 26.0638 l 0.0701,-0.48664 0.14013,-0.41749 0.0701,-0.48664 0.0701,-0.55668 0.13819,-0.55768 0.14018,-0.55566 0.068,-0.55671 0.13916,-0.55574 0.14021,-0.62676 0.20824,-1.18348 0.14021,-0.55668 0.13813,-0.62581 0.14018,-0.55669 0.0701,-0.55566 0.14018,-0.48658 0.0681,-0.48663 0.13916,-0.48658 0.0691,-0.4165 0.0701,-0.20928 0.0701,-0.20827 v -0.20929 l 0.069,-0.13915 v -0.20929 l 0.0701,-0.13916 v -0.14019 l 0.0701,-0.13919 v -0.21026 l 0.0691,-0.06907 V 14.02777 A 8.73333,8.73333 0 0 1 316.84989,7 h 13.77721 m -19.48429,46.20575 h 0.005 M 330.6271,0 h -13.77721 a 15.779,15.779 0 0 0 -15.05478,12.54238 q -0.0715,0.27485 -0.12077,0.55587 -0.0873,0.32131 -0.14384,0.65005 -0.0359,0.15973 -0.0643,0.32107 a 6.99671,6.99671 0 0 0 -0.15176,0.69447 l -0.004,0.0216 -0.0292,0.102 a 7.005,7.005 0 0 0 -0.20165,0.95022 l -0.003,0.0099 a 7.0006,7.0006 0 0 0 -0.21847,1.06134 l -0.017,0.13447 -0.0365,0.14505 q -0.0252,0.1 -0.0474,0.20063 l -0.11589,0.52506 -0.115,0.4565 q -0.0621,0.24631 -0.10611,0.49663 l -0.18044,1.0255 -0.0858,0.38374 -0.11756,0.46947 a 7.00174,7.00174 0 0 0 -0.15795,0.851 l -0.0147,0.12018 -0.0326,0.12921 -0.14537,0.58648 a 6.99678,6.99678 0 0 0 -0.15065,0.80923 l -0.0413,0.32839 a 6.99887,6.99887 0 0 0 -0.22224,1.00825 l -0.0498,0.34588 a 7.00277,7.00277 0 0 0 -0.13574,0.90639 q -0.0159,0.09644 -0.0291,0.19321 a 6.99977,6.99977 0 0 0 -0.13424,1.36428 v 0.0024 a 15.3245,15.3245 0 0 0 1.26665,7.52943 c 0.85684,2.43383 2.72876,5.64278 6.19665,11.2855 h -4.56841 a 7,7 0 0 0 -6.89587,5.7971 l -3.13189,17.95442 a 12.36139,12.36139 0 0 0 12.39273,14.74306 h 13.29261 a 15.18619,15.18619 0 0 0 14.73081,-12.19117 c 3.5663,-17.46172 3.55081,-18.58124 3.53958,-19.39936 a 9.43882,9.43882 0 0 0 -0.89591,-4.09284 c -0.68974,-1.76138 -2.2441,-4.69085 -5.74721,-10.5244 h 3.819 a 7,7 0 0 0 6.88039,-5.71147 L 343.0735,15.3143 A 13.04392,13.04392 0 0 0 340.44244,4.5063 12.64984,12.64984 0 0 0 330.6271,0 Z"
       id="path63"
       inkscape:connector-curvature="0"
       style="fill:none;stroke:#00ffff;stroke-opacity:1" />
    <path
       d="m 394.5811,7 c 3.81657,0 6.29937,3.1319 5.56389,7.02779 l -4.87108,25.12237 a 8.2799,8.2799 0 0 1 -7.86181,6.54016 h -11.34316 l -6.12468,32.01105 h -8.90711 L 374.46786,7 h 20.11324 m -16.63282,31.66463 h 0.0691 l 0.0691,0.069 0.069,0.07013 h 0.0691 l 0.0711,0.068 h 0.13916 v 0.07005 h 0.27836 l 0.0701,0.06814 h 5.35972 c 0.90211,0 2.12213,-2.08664 2.29382,-2.99074 l 3.68963,-17.46684 c 0.17269,-0.96206 -1.83671,-3.13193 -2.78447,-3.13193 h -4.31543 a 2.16792,2.16792 0 0 0 -1.32263,0.55769 l -4.17621,21.36371 c -0.0122,0.129 0,0.30274 0,0.41852 v 0.06909 l 0.0711,0.06911 v 0.13818 l 0.0691,0.069 V 38.246 l 0.0711,0.07013 0.0691,0.0691 v 0.069 l 0.07,0.07013 0.0701,0.06908 v 0.07113 M 394.5811,0 h -20.11324 a 7,7 0 0 0 -6.877,5.6936 L 354.16012,76.395 a 7,7 0 0 0 6.877,8.3064 h 8.90711 a 7,7 0 0 0 6.87528,-5.68455 l 5.03706,-26.3265 h 5.5555 A 15.197,15.197 0 0 0 402.14983,40.46241 L 407.017,15.36024 A 13.09459,13.09459 0 0 0 404.38581,4.495 12.64568,12.64568 0 0 0 394.5811,0 Z"
       id="path67"
       inkscape:connector-curvature="0"
       style="fill:none;stroke:#00ffff;stroke-opacity:1" />
    <path
       d="m 697.22025,7 c 3.80951,0 6.30554,3.139 5.56494,7.02779 l -10.78338,57.13342 a 8.35608,8.35608 0 0 1 -7.93494,6.54016 H 669.3845 a 5.32684,5.32684 0 0 1 -5.43085,-6.54016 L 673.9061,14.02779 A 8.6589,8.6589 0 0 1 682.04929,7 h 15.171 m -19.62351,63.953 a 5.86513,5.86513 0 0 0 5.49786,-4.802 l 8.34741,-46.2779 a 3.85209,3.85209 0 0 0 -3.8949,-4.73089 h -0.27935 l -0.21326,0.064 h -0.27936 l -0.20825,0.07008 h -0.20825 l -0.20825,0.068 -0.27527,0.07014 -0.14124,0.07005 -0.20819,0.13924 -0.21033,0.069 -0.20617,0.14019 -0.14124,0.13916 -0.21026,0.13923 -0.20624,0.14019 -0.14124,0.13916 -0.13916,0.14021 -0.20825,0.14018 -0.14117,0.20924 -0.13721,0.20826 -0.14118,0.13916 -0.13916,0.20929 -0.0691,0.20823 -0.14123,0.20929 -0.069,0.20924 -0.13715,0.20727 -0.0712,0.20923 -0.067,0.20929 -0.0711,0.27839 -0.0691,0.20922 -0.0671,0.27734 -0.0711,0.20929 -0.0671,0.20923 -8.28135,46.27799 c -0.45008,2.626 0.645,4.802 3.27411,4.802 M 697.22025,0 h -15.171 A 15.733,15.733 0 0 0 667.0115,12.81742 l -9.954,57.1425 a 12.31559,12.31559 0 0 0 12.327,14.74145 h 14.68237 A 15.252,15.252 0 0 0 698.88141,72.45392 L 709.66373,15.32605 A 13.05169,13.05169 0 0 0 707.03251,4.50713 12.64739,12.64739 0 0 0 697.22025,0 Z"
       id="path79"
       inkscape:connector-curvature="0"
       style="fill:none;stroke:#00fff3;stroke-opacity:1" />
    <path
       d="m 424.98906,7 -1.38868,8.768 H 413.718 l -4.38347,21.92039 h 9.87934 l -1.39076,7.37722 h -9.88134 l -4.03706,23.86784 h 9.88129 l -1.39171,8.76892 H 392.35427 L 406.27067,7 h 18.71839 M 413.786,68.93341 h 0.005 M 424.98906,0 h -18.71839 a 7,7 0 0 0 -6.86821,5.64813 l -13.9164,70.70231 a 7,7 0 0 0 6.86821,8.35187 h 20.04005 a 7,7 0 0 0 6.91348,-5.90276 l 1.3563,-8.5458 a 7.00582,7.00582 0 0 0 -6.87306,-8.32036 h -1.60292 l 1.66906,-9.86784 h 3.96591 a 7,7 0 0 0 6.87884,-5.70319 l 1.39076,-7.3772 a 7,7 0 0 0 -6.87884,-8.29683 h -1.34094 l 1.58386,-7.92039 h 4.14361 a 7,7 0 0 0 6.91382,-5.905 l 1.38868,-8.768 A 7,7 0 0 0 424.98906,0 Z m 0,14 z"
       id="path83"
       inkscape:connector-curvature="0"
       style="fill:none;stroke:#00ffff;stroke-opacity:1" />
    <path
       d="m 582.32767,7 -1.39276,8.769 h -5.35663 l -11.202,61.93334 H 554.21352 L 565.20933,15.769 h -5.567 L 561.31443,7 h 21.01324 m 0,-7 h -21.01324 a 7,7 0 0 0 -6.87612,5.68884 l -1.6721,8.769 a 7,7 0 0 0 4.18628,7.77372 l -9.63118,54.24712 a 7,7 0 0 0 6.89221,8.22366 h 10.16274 a 7,7 0 0 0 6.88824,-5.7541 l 10.1644,-56.19651 a 7.00057,7.00057 0 0 0 6.41937,-5.88471 l 1.39276,-8.769 A 7,7 0 0 0 582.32767,0 Z m 0,14 z"
       id="path91"
       inkscape:connector-curvature="0"
       style="fill:none;stroke:#00ffff;stroke-opacity:1" />
    <path
       d="M 639.18479,7 625.753,77.70233 h -8.9072 l -3.27008,-40.98718 -8.28339,40.98718 H 594.99454 L 608.42533,7 h 8.97619 L 621.99424,43.9522 628.88486,7 h 10.29993 m 0,-7 H 628.88486 A 6.99951,6.99951 0 0 0 623.14319,2.99464 6.99806,6.99806 0 0 0 617.40152,0 h -8.97619 a 7,7 0 0 0 -6.87705,5.69363 L 588.1175,76.396 a 7,7 0 0 0 6.877,8.30637 h 10.29779 a 7.00033,7.00033 0 0 0 5.77671,-3.04537 6.9963,6.9963 0 0 0 5.77676,3.04536 h 8.90724 a 7,7 0 0 0 6.877,-5.69353 L 646.0618,8.30649 A 7,7 0 0 0 639.18479,0 Z m 0,14 z"
       id="path95"
       inkscape:connector-curvature="0"
       style="fill:none;stroke:#00fff3;stroke-opacity:1" />
    <path
       d="m 604.52842,7 -1.3927,8.76794 h -9.88343 L 588.941,37.68835 h 9.88135 l -1.39276,7.37722 h -9.87933 l -4.10712,23.86784 h 9.88135 l -1.39276,8.76892 h -20.04 L 585.808,7 h 18.7204 m -11.204,61.93339 h 0.005 M 604.52842,0 H 585.808 a 6.99994,6.99994 0 0 0 -6.8682,5.64813 l -13.91639,70.70233 a 7,7 0 0 0 6.86823,8.35187 h 20.04 a 7,7 0 0 0 6.91336,-5.90195 l 1.3573,-8.54571 a 7.00583,7.00583 0 0 0 -6.8729,-8.32126 h -1.57895 l 1.69806,-9.86784 h 3.981 a 7,7 0 0 0 6.87848,-5.7014 l 1.39276,-7.37721 a 7,7 0 0 0 -6.87848,-8.29861 h -1.37045 l 1.5578,-7.92039 h 4.12607 a 7,7 0 0 0 6.91333,-5.90186 l 1.39273,-8.768 A 7,7 0 0 0 604.52842,0 Z m 0,14 z"
       id="path99"
       inkscape:connector-curvature="0"
       style="fill:none;stroke:#00fff3;stroke-opacity:1" />
    <path
       d="m 450.32071,7 c 3.81763,0 6.30547,3.1319 5.56495,7.02674 l -4.86908,25.12245 c -0.512,2.6981 -5.315,4.35294 -7.8669,5.35663 h 0.62884 a 16.07824,16.07824 0 0 1 2.64534,1.32468 7.13059,7.13059 0 0 1 1.53392,2.0165 5.29925,5.29925 0 0 1 0.48464,2.57421 c 0,0.43074 -5.01032,27.27911 -5.01032,27.27911 h -8.9091 c 0,0 4.75832,-24.64392 4.87311,-25.67705 a 13.33829,13.33829 0 0 0 -0.21031,-3.41029 4.97086,4.97086 0 0 0 -1.04126,-2.92266 h -6.33287 l -6.05459,32.01105 h -8.90813 L 430.20858,7 h 20.11213 m -15.59253,32.011 h 3.8288 c 0.91023,0 3.17662,-2.15058 3.33716,-3.06184 l 3.69063,-17.39671 c 0.18686,-0.96206 -1.83266,-3.13193 -2.78145,-3.13193 h -4.31639 v 0.0041 h -0.009 v 0.0701 h -0.20518 l -0.13715,0.06809 h -0.0711 l -0.0691,0.07005 h -0.069 l -0.0691,0.0691 -0.07,0.06908 h -0.0681 l -0.13709,0.07008 -0.0711,0.06908 -0.067,0.0691 -4.10622,21.36374 a 3.37532,3.37532 0 0 0 0,0.4185 1.32133,1.32133 0 0 0 1.39073,1.24953 M 450.32071,0 h -20.11213 a 7,7 0 0 0 -6.87829,5.70029 l -13.35966,70.70137 a 7,7 0 0 0 6.87829,8.29971 h 8.90813 a 6.98636,6.98636 0 0 0 4.38358,-1.54251 7.00067,7.00067 0 0 0 4.38234,1.54146 h 8.90913 a 7,7 0 0 0 6.88121,-5.71587 c 4.62447,-24.78074 5.07946,-27.40451 5.12423,-28.30382 h 7e-5 l 2.2e-4,-0.006 c 0.002,-0.04238 0.003,-0.081 0.004,-0.118 a 13.03748,13.03748 0 0 0 -0.64793,-4.52114 10.29873,10.29873 0 0 0 3.10015,-5.58135 l 4.86391,-25.0955 A 13.07638,13.07638 0 0 0 460.13471,4.50272 12.64966,12.64966 0 0 0 450.32071,0 Z"
       id="path103"
       inkscape:connector-curvature="0"
       style="fill:none;stroke:#00ffff;stroke-opacity:1" />
    <path
       d="m 663.88663,7 c 3.81763,0 6.29737,3.13189 5.56592,7.02874 L 658.6691,71.16217 a 8.347,8.347 0 0 1 -7.93493,6.54016 H 630.41276 L 643.84757,7 h 20.03906 m -22.82556,63.95294 h 4.036 a 6.00579,6.00579 0 0 0 5.63709,-4.802 l 8.76794,-46.2779 a 3.89706,3.89706 0 0 0 -3.96393,-4.73089 h -4.10711 l -10.37,55.81079 M 663.88663,0 h -20.03906 a 7,7 0 0 0 -6.87695,5.69323 L 623.5358,76.39557 a 7,7 0 0 0 6.877,8.30676 h 20.32141 A 15.252,15.252 0 0 0 665.54875,72.45486 L 676.33112,15.327 A 13.0882,13.0882 0 0 0 673.6868,4.48975 12.646,12.646 0 0 0 663.88663,0 Z"
       id="path107"
       inkscape:connector-curvature="0"
       style="fill:none;stroke:#00fff3;stroke-opacity:1" />
    <path
       d="m 508.5665,7 -13.43078,70.70233 h -8.90911 L 482.9545,36.71515 474.67513,77.70233 H 464.44535 L 477.87813,7 h 8.90613 L 491.37803,43.9522 498.33672,7 h 10.22978 m 0,-7 H 498.33672 A 7.00014,7.00014 0 0 0 492.56052,3.0446 6.99834,6.99834 0 0 0 486.78426,0 h -8.90613 a 7,7 0 0 0 -6.877,5.69345 l -13.43275,70.70233 a 6.99995,6.99995 0 0 0 6.877,8.30655 h 10.22978 a 7.00043,7.00043 0 0 0 5.77571,-3.0439 6.99694,6.99694 0 0 0 5.77577,3.0439 h 8.90911 a 7,7 0 0 0 6.877,-5.69363 L 515.44353,8.30638 A 7,7 0 0 0 508.5665,0 Z m 0,14 z"
       id="path111"
       inkscape:connector-curvature="0"
       style="fill:none;stroke:#00fff3;stroke-opacity:1" />
    <path
       d="m 522.13346,7 h 0.005 m -0.005,0 -13.42774,70.70233 h -8.90716 L 513.22733,7 h 8.90613 m 0.005,-7 h -8.91113 a 7,7 0 0 0 -6.87706,5.69381 l -13.42876,70.70234 a 7,7 0 0 0 6.877,8.30618 h 8.90716 a 7,7 0 0 0 6.87708,-5.69392 L 528.96738,8.53335 A 7.0057,7.0057 0 0 0 522.13846,0 Z m -0.005,14 z"
       id="path115"
       inkscape:connector-curvature="0"
       style="fill:none;stroke:#00ffff;stroke-opacity:1" />
    <path
       d="M 557.5557,7 544.126,77.70233 h -8.9091 l -3.27008,-40.98718 -8.28141,40.98718 H 513.3655 L 526.79421,7 h 8.98029 L 540.36721,43.9522 547.25585,7 h 10.29985 m 0,-7 H 547.25585 A 6.9991,6.9991 0 0 0 541.51517,2.99322 6.99717,6.99717 0 0 0 535.7745,0 h -8.98029 a 7,7 0 0 0 -6.877,5.69381 l -13.42876,70.70234 a 7,7 0 0 0 6.877,8.30618 h 10.29986 a 6.99982,6.99982 0 0 0 5.77572,-3.0439 6.99652,6.99652 0 0 0 5.77577,3.0439 h 8.9091 a 7,7 0 0 0 6.877,-5.69371 L 564.43274,8.3063 A 7,7 0 0 0 557.5557,0 Z m 0,14 z"
       id="path119"
       inkscape:connector-curvature="0"
       style="fill:none;stroke:#00fff3;stroke-opacity:1" />
    <path
       id="polyline2177"
       d="m 316.84999,6.99998 a 8.73337,8.73337 0 0 0 -8.21126,7.02777 v 0.20823 l -0.0691,0.06908 v 0.21028 l -0.0701,0.13917 v 0.14019 l -0.0701,0.13918 v 0.20927 l -0.0691,0.13917 v 0.20927 l -0.0701,0.20825 -0.0701,0.20927 -0.0691,0.41651 -0.13917,0.4866 -0.0681,0.4866 -0.14019,0.4866 -0.0701,0.55568 -0.14019,0.5567 -0.13816,0.62577 -0.14019,0.5567 -0.20826,1.18348 -0.14019,0.62679 -0.13917,0.55568 -0.0681,0.5567 -0.14017,0.55567 -0.13816,0.55772 -0.0701,0.55669 -0.0701,0.4866 -0.14019,0.41752 -0.0701,0.4866 v 0.20926 l -0.0681,0.13918 v 0.34844 l -0.0691,0.20926 v 0.27937 l -0.0701,0.13917 v 0.13816 c -0.0711,1.70158 0.16559,4.02283 0.69587,4.45458 0.67555,3.74652 13.16362,21.0884 12.804,23.72864 -0.33727,2.64735 -1.80926,10.43906 -1.80926,10.43906 -0.45307,2.626 -2.24506,4.72988 -4.87006,4.72988 a 3.89465,3.89465 0 0 1 -3.967,-4.72988 l 2.366,-12.94317 h -9.32465 l -3.13193,17.95449 a 5.37073,5.37073 0 0 0 5.49686,6.54016 h 13.29263 a 8.26378,8.26378 0 0 0 7.8618,-6.54016 c 0,0 3.42551,-16.76995 3.40926,-17.95445 -0.0132,-1.19263 -0.34642,-1.32266 -0.34642,-1.32266 0,-1.36431 -11.11258,-19.70783 -12.2473,-20.3905 -0.48863,-0.28546 -0.89091,-2.10183 -0.90615,-3.2 -0.0213,-1.091 1.46183,-8.42053 1.46183,-8.42053 a 5.85635,5.85635 0 0 1 5.567,-4.7309 c 2.626,0 3.72215,2.10488 3.27008,4.7309 l -2.01751,11.62051 h 9.39372 l 3.2711,-17.46683 c 0.74074,-3.88672 -1.74814,-7.02572 -5.56576,-7.02572 z m 25.607,0 -11.13291,64.16222 a 5.37139,5.37139 0 0 0 5.49788,6.54016 h 13.29161 a 8.35019,8.35019 0 0 0 7.93291,-6.54016 L 369.94433,6.99998 h -8.34941 l -11.3442,62.35092 a 2.0981,2.0981 0 0 1 -1.94741,1.67212 h -6.61229 A 1.38325,1.38325 0 0 1 340.29826,69.3509 L 351.36508,6.99998 Z m 32.011,0 -13.43079,70.70135 h 8.90713 l 6.12468,-32.011 h 11.34318 a 8.27994,8.27994 0 0 0 7.8618,-6.54016 l 4.87109,-25.12242 c 0.73546,-3.89585 -1.7473,-7.02777 -5.56392,-7.02777 h -20.11318 z m 31.80277,0 -13.91639,70.70237 h 20.04 l 1.39174,-8.769 h -9.88135 l 4.037,-23.86782 h 9.88135 l 1.39073,-7.37723 h -9.87932 l 4.38356,-21.92032 h 9.88236 l 1.38869,-8.768 z m 23.93791,0 -13.35969,70.70135 h 8.9081 l 6.05458,-32.011 h 6.33291 a 4.97086,4.97086 0 0 1 1.04126,2.92265 13.33767,13.33767 0 0 1 0.21029,3.41027 c -0.1148,1.03313 -4.87312,25.67707 -4.87312,25.67707 h 8.90917 c 0,0 5.01026,-26.84837 5.01026,-27.2791 a 5.29945,5.29945 0 0 0 -0.48457,-2.57421 7.13076,7.13076 0 0 0 -1.534,-2.0165 16.07491,16.07491 0 0 0 -2.64532,-1.32469 h -0.62883 c 2.55186,-1.00368 7.35489,-2.65853 7.86689,-5.35667 l 4.86905,-25.12241 c 0.74064,-3.89484 -1.74721,-7.02676 -5.56484,-7.02676 z m 47.6696,0 -13.43283,70.70237 h 10.2298 l 8.27932,-40.98722 3.27212,40.98722 h 8.90915 L 508.56659,6.99998 H 498.3368 l -6.95872,36.95219 -4.59371,-36.95219 z m 35.34915,0 -13.42876,70.70237 h 8.90713 L 522.13352,6.99998 Z m 13.56692,0 -13.42876,70.70237 h 10.29989 l 8.28137,-40.98722 3.27007,40.98722 h 8.90917 L 557.5558,6.99998 H 547.25591 L 540.3673,43.95217 535.7746,6.99998 Z m 34.52019,0 -1.67211,8.769 h 5.567 l -10.99576,61.9334 h 10.16274 l 11.202,-61.9334 h 5.35668 l 1.39267,-8.769 z m 24.49355,0 -13.91635,70.70237 h 20.04 l 1.39276,-8.769 h -9.88134 l 4.10715,-23.86782 h 9.87933 l 1.39275,-7.37723 h -9.8813 l 4.31131,-21.92032 h 9.88338 l 1.39276,-8.768 z m 22.61728,0 -13.43076,70.70237 h 10.29784 l 8.28338,-40.98722 3.27007,40.98722 h 8.90719 L 639.18485,6.99998 H 628.88496 L 621.99433,43.95217 617.4016,6.99998 Z m 35.42232,0 -13.43486,70.70237 h 20.32142 a 8.34707,8.34707 0 0 0 7.93494,-6.54016 l 10.78343,-57.13343 c 0.73147,-3.89686 -1.74828,-7.02878 -5.56591,-7.02878 z m 38.20172,0 a 8.65883,8.65883 0 0 0 -8.14319,7.02777 l -9.95245,57.13343 a 5.32682,5.32682 0 0 0 5.43083,6.54016 h 14.68234 a 8.35609,8.35609 0 0 0 7.93495,-6.54016 l 10.7834,-57.13343 c 0.74057,-3.88877 -1.75542,-7.02777 -5.56492,-7.02777 z m -30.61827,8.14218 h 4.10715 a 3.89707,3.89707 0 0 1 3.96392,4.7309 l -8.768,46.27786 a 6.00582,6.00582 0 0 1 -5.63707,4.802 h -4.036 z m 35.83677,0 h 0.27936 a 3.852,3.852 0 0 1 3.89485,4.7309 l -8.34739,46.27786 a 5.86514,5.86514 0 0 1 -5.49787,4.802 c -2.62908,0 -3.72415,-2.176 -3.27413,-4.802 l 8.28136,-46.27786 0.0671,-0.20927 0.0711,-0.20927 0.067,-0.27733 0.0691,-0.20927 0.0711,-0.27835 0.0671,-0.20927 0.0711,-0.20927 0.13715,-0.20723 0.0691,-0.20927 0.14122,-0.20927 0.0691,-0.20826 0.13917,-0.20926 0.14121,-0.13918 0.13715,-0.20825 0.14121,-0.20927 0.20824,-0.14019 0.13917,-0.14019 0.14121,-0.13917 0.20623,-0.14019 0.21028,-0.13918 0.14122,-0.13917 0.20622,-0.14019 0.21029,-0.06908 0.20824,-0.13917 0.14121,-0.0701 0.2753,-0.07009 0.20823,-0.06807 h 0.20824 l 0.20824,-0.07009 h 0.27936 z m -304.24123,0.27835 h 4.31541 c 0.9478,0 2.95718,2.16989 2.78449,3.13192 l -3.68964,17.46683 c -0.17169,0.90412 -1.39173,2.99071 -2.29382,2.99071 h -5.35971 l -0.0701,-0.06806 h -0.27835 v -0.0701 h -0.13917 l -0.0711,-0.06806 h -0.0691 l -0.0691,-0.0701 -0.0691,-0.06908 h -0.0691 v -0.0711 l -0.0701,-0.06908 -0.0701,-0.0701 v -0.06908 l -0.0691,-0.06908 -0.0711,-0.07009 v -0.14019 l -0.0691,-0.06908 v -0.13816 l -0.0711,-0.06908 v -0.06908 c 0,-0.1158 -0.0122,-0.28952 0,-0.41854 l 4.17624,-21.3637 a 2.16788,2.16788 0 0 1 1.32262,-0.5577 z m 55.46029,0 h 4.31642 c 0.94883,0 2.96836,2.16989 2.78145,3.13192 l -3.69064,17.39673 c -0.16051,0.91124 -2.42692,3.06183 -3.33713,3.06183 h -3.8288 a 1.32135,1.32135 0 0 1 -1.39073,-1.24951 3.37989,3.37989 0 0 1 0,-0.41854 l 4.10613,-21.3637 0.067,-0.06908 0.0711,-0.06908 0.13714,-0.0701 h 0.0681 l 0.0701,-0.06908 0.0691,-0.06907 h 0.0691 l 0.0691,-0.0701 h 0.0711 l 0.13714,-0.06806 h 0.2052 v -0.0701 h 0.009 z M 297.08629,83.82598 v 23.174 h 397.20939 v -23.174 z m 291.996,2.435 h 3.40521 a 1.235,1.235 0 0 1 1.25154,1.53091 l -0.766,3.89889 h -1.87732 l 0.41447,-2.57522 a 0.83266,0.83266 0 0 0 -0.835,-1.04432 1.30926,1.30926 0 0 0 -1.25154,1.04432 l -0.34539,1.88037 a 1.1295,1.1295 0 0 0 0.20622,0.69688 30.8881,30.8881 0 0 1 2.7144,4.52162 c 0.0579,0.15035 0.0914,0.22349 0.0671,0.27937 -0.0691,0.50895 -0.766,3.96391 -0.766,3.96391 a 1.85,1.85 0 0 1 -1.73814,1.46082 h -2.92276 a 1.17975,1.17975 0 0 1 -1.18449,-1.46082 l 0.69891,-3.96391 h 2.0175 l -0.48356,2.85257 a 0.887,0.887 0 0 0 0.831,1.11237 1.39131,1.39131 0 0 0 1.2556,-1.11237 l 0.41651,-2.29688 c -0.37282,-0.96 -2.83527,-4.45864 -2.99375,-5.28963 a 1.96483,1.96483 0 0 1 -0.13715,-0.97421 c 0.0213,-0.41346 0.55568,-2.99275 0.55568,-2.99275 h 0.0721 v -0.20521 l 0.067,-0.14019 v -0.06806 l 0.0671,-0.07111 v -0.06807 l 0.0691,-0.06806 v -0.0711 l 0.0691,-0.06807 0.0711,-0.07111 v -0.06694 h 0.0671 l 0.0711,-0.06908 0.067,-0.07111 0.0691,-0.06705 v -0.07116 h 0.0691 l 0.0671,-0.06705 0.067,-0.06908 h 0.0711 l 0.0691,-0.06806 h 0.0691 l 0.0691,-0.06807 h 0.20824 z m 16.002,0 h 2.50616 l 0.34744,5.91641 3.2,-5.91641 h 2.50818 l -5.15046,9.04731 -1.25154,6.61026 h -2.22578 l 1.11541,-7.09888 z m 22.75748,0 h 3.40524 a 1.24164,1.24164 0 0 1 1.25155,1.53091 l -0.766,3.89889 h -1.87936 l 0.41853,-2.57522 a 0.83266,0.83266 0 0 0 -0.835,-1.04432 1.304,1.304 0 0 0 -1.25154,1.04432 l -0.34744,1.88037 a 0.94732,0.94732 0 0 0 0.20623,0.69688 31.99627,31.99627 0 0 1 2.71439,4.52162 0.54543,0.54543 0 0 1 0.0711,0.27937 c -0.0955,0.50895 -0.69689,3.96391 -0.69689,3.96391 a 1.86193,1.86193 0 0 1 -1.74221,1.46082 h -2.98969 a 1.18149,1.18149 0 0 1 -1.18653,-1.46082 l 0.69689,-3.96391 h 2.01955 l -0.48661,2.85357 a 0.89858,0.89858 0 0 0 0.835,1.11237 1.39378,1.39378 0 0 0 1.25154,-1.11237 l 0.41651,-2.29688 c -0.38095,-0.96 -2.83121,-4.45865 -2.99174,-5.28963 a 2.00774,2.00774 0 0 1 -0.13917,-0.97421 c 0.0213,-0.41346 0.55773,-2.99275 0.55773,-2.99275 l 0.067,-0.06908 v -0.13613 l 0.0691,-0.14019 v -0.06806 l 0.0691,-0.07111 v -0.06807 l 0.0691,-0.06806 v -0.0721 l 0.0691,-0.06807 0.0691,-0.07111 v -0.06694 h 0.0711 l 0.065,-0.06908 0.0691,-0.07111 0.0691,-0.06705 0.0691,-0.07111 0.0691,-0.06705 0.0691,-0.06908 h 0.0691 l 0.0711,-0.06806 h 0.0671 l 0.0691,-0.06807 h 0.20623 z m 16.21222,0 h 4.66488 l -0.34946,1.88037 h -1.18448 l -2.434,13.77821 h -2.29587 l 2.434,-13.77822 h -1.18248 z m 18.2318,0 H 666.46 l -0.34945,1.88037 h -2.15667 l -0.97219,4.94118 h 2.22578 l -0.34946,1.599 h -2.15872 l -0.90311,5.28861 h 2.15466 l -0.2753,1.94843 h -4.45459 z m 17.18847,0 h 2.57523 l 0.41446,9.04731 3.968,-8.97722 2.50411,-0.07009 -2.64127,15.65757 h -1.94843 l 1.24953,-8.27932 -3.48036,8.27932 h -1.39276 l -0.41446,-8.49062 -1.53192,8.49062 h -2.29789 z m -373.7591,0.55872 h 4.10613 l -0.27936,1.9464 h -2.22585 l -0.90412,4.87312 h 2.1577 l -0.27936,1.6711 h -2.22679 l -0.834,5.28962 h 2.15669 l -0.34845,1.94742 h -4.45356 z m 19.206,0 h 1.94844 l 1.04329,8.21126 1.5299,-8.21126 h 2.29789 l -2.99376,15.72462 h -1.94742 l -0.766,-9.11843 -1.80824,9.11843 h -2.2979 z m 20.8771,0 h 4.59275 l -0.27734,1.9464 h -1.18359 l -2.50513,13.77924 h -2.22475 l 2.434,-13.77924 h -1.25256 z m 20.25031,0 h 4.17522 l -0.34845,1.9464 h -2.15769 l -0.97422,4.87312 h 2.1577 l -0.27835,1.6711 h -2.15669 l -0.90422,5.28966 h 2.15669 l -0.27733,1.94742 h -4.45357 z m 19.62454,0 h 4.45255 a 1.2499,1.2499 0 0 1 1.18348,1.599 l -1.04329,5.56594 c -0.11581,0.60343 -1.17536,1.09511 -1.7412,1.32368 h 0.28038 v 0.0681 h 0.27835 l 0.0691,0.0681 h 0.20926 v 0.0681 h 0.14019 v 0.0711 h 0.0691 a 2.54146,2.54146 0 0 1 0.13816,0.76495 c 0,0.0935 -1.1144,6.19374 -1.1144,6.19374 h -2.01771 c 0,0 1.07784,-5.47958 1.11441,-5.70511 a 2.98251,2.98251 0 0 0 -0.0691,-0.76494 0.94275,0.94275 0 0 0 -0.20927,-0.62781 h -1.39275 l -1.32164,7.09787 h -2.01853 z m 19.90085,0 h 4.66182 l -0.27732,1.9464 h -1.18145 l -2.50614,13.77924 h -2.22689 l 2.435,-13.77924 h -1.2515 z m 23.173,0 h 2.64532 l -0.835,15.72462 h -2.6455 l 0.34742,-3.61954 h -1.599 l -1.32367,3.61954 h -2.36392 z m 18.51215,0 h 2.0175 l -2.99376,15.72462 h -1.94857 z m 17.95241,0 h 1.95047 l 1.04109,8.21128 1.534,-8.21126 h 2.22576 l -2.92266,15.72466 h -2.01751 l -0.69689,-9.1184 -1.81129,9.11843 h -2.29383 z m 23.03583,0 h 2.57523 l 0.41446,9.1164 3.97,-9.04529 h 2.5021 l -2.64328,15.65656 h -1.94843 l 1.25154,-8.28136 -3.4824,8.28136 h -1.39071 l -0.41651,-8.4886 -1.52991,8.4886 h -2.22779 z m 25.25954,0 h 4.10511 l -0.27936,1.9464 h -2.22577 l -0.90312,4.87312 h 2.15668 l -0.27936,1.6711 h -2.22373 l -0.90526,5.28966 h 2.22373 l -0.34744,1.94742 h -4.38245 z m 20.17819,0 h 1.94844 l 1.04532,8.21126 1.52991,-8.21126 h 2.22577 l -2.92062,15.72462 h -1.94843 l -0.766,-9.11843 -1.81139,9.11849 h -2.29587 z m 20.66886,0 h 4.66283 l -0.34744,1.9464 h -1.18247 l -2.43606,13.77924 h -2.22792 l 2.43807,-13.77924 h -1.25154 z m -166.80158,1.87637 a 0.41709,0.41709 0 0 0 -0.28038,0.1412 l -0.90412,4.72988 v 0.0711 a 0.26745,0.26745 0 0 0 0.27835,0.27734 h 0.834 a 1.26734,1.26734 0 0 0 0.767,-0.62679 l 0.76292,-3.89687 c 0.0366,-0.2245 -0.34742,-0.69789 -0.55567,-0.69789 l -0.90211,0.002 z m 41.19447,4.73191 -1.46082,3.967 h 1.11338 z"
       inkscape:connector-curvature="0"
       style="fill:#f9ffff;fill-opacity:1;stroke:none" />
  </g>
</svg>
