<?xml version="1.0" encoding="UTF-8" standalone="no"?>
<svg
   xmlns:dc="http://purl.org/dc/elements/1.1/"
   xmlns:cc="http://creativecommons.org/ns#"
   xmlns:rdf="http://www.w3.org/1999/02/22-rdf-syntax-ns#"
   xmlns:svg="http://www.w3.org/2000/svg"
   xmlns="http://www.w3.org/2000/svg"
   xmlns:sodipodi="http://sodipodi.sourceforge.net/DTD/sodipodi-0.dtd"
   xmlns:inkscape="http://www.inkscape.org/namespaces/inkscape"
   width="158"
   height="20"
   viewBox="0 0 158 20"
   version="1.1"
   id="svg3739"
   sodipodi:docname="system.svg"
   inkscape:version="0.92.4 (5da689c313, 2019-01-14)">
  <metadata
     id="metadata3743">
    <rdf:RDF>
      <cc:Work
         rdf:about="">
        <dc:format>image/svg+xml</dc:format>
        <dc:type
           rdf:resource="http://purl.org/dc/dcmitype/StillImage" />
        <dc:title>system</dc:title>
      </cc:Work>
    </rdf:RDF>
  </metadata>
  <sodipodi:namedview
     pagecolor="#ffffff"
     bordercolor="#666666"
     borderopacity="1"
     objecttolerance="10"
     gridtolerance="10"
     guidetolerance="10"
     inkscape:pageopacity="0"
     inkscape:pageshadow="2"
     inkscape:window-width="1920"
     inkscape:window-height="1137"
     id="namedview3741"
     showgrid="false"
     inkscape:zoom="7.5183342"
     inkscape:cx="98.492563"
     inkscape:cy="8.1535411"
     inkscape:window-x="-8"
     inkscape:window-y="344"
     inkscape:window-maximized="1"
     inkscape:current-layer="svg3739"
     scale-x="2" />
  <!-- Generator: Sketch 45 (43475) - http://www.bohemiancoding.com/sketch -->
  <title
     id="title3729">system</title>
  <desc
     id="desc3731">Created with Sketch.</desc>
  <defs
     id="defs3733" />
  <g
     inkscape:groupmode="layer"
     id="layer1"
     inkscape:label="Layer 1"
     transform="translate(0,2)" />
  <g
     inkscape:groupmode="layer"
     id="layer2"
     inkscape:label="Layer 2"
     transform="translate(0,2)" />
  <g
     aria-label="SUPER NINTENDO"
     style="font-style:normal;font-variant:normal;font-weight:normal;font-stretch:normal;font-size:21.33333397px;line-height:1.25;font-family:Arial;-inkscape-font-specification:Arial;letter-spacing:0px;word-spacing:0px;fill:none;fill-opacity:1;stroke:#ffffff;stroke-width:0.5;stroke-miterlimit:4;stroke-dasharray:none;stroke-opacity:1"
     id="text4643">
    <path
       d="m 1.9092153,12.289442 1.5488282,-0.135417 q 0.110026,0.93099 0.5078125,1.531901 0.40625,0.592448 1.2526042,0.964844 0.8463542,0.363932 1.904297,0.363932 0.9394531,0 1.6588542,-0.279296 0.7194011,-0.279297 1.0664063,-0.761719 0.3554683,-0.490886 0.3554683,-1.066407 0,-0.583984 -0.3385412,-1.015625 Q 9.5264031,11.451551 8.7477572,11.155327 8.2484083,10.960666 6.5387728,10.554416 4.8291373,10.139702 4.1435904,9.7757699 3.2549185,9.3102751 2.8148143,8.6247282 2.3831737,7.9307178 2.3831737,7.0759001 q 0,-0.9394532 0.5332031,-1.7519532 Q 3.44958,4.5029833 4.4736685,4.0798062 5.4977571,3.6566291 6.7503613,3.6566291 q 1.3795574,0 2.4290366,0.4485677 1.0579431,0.4401042 1.6250001,1.3033855 0.567057,0.8632813 0.609375,1.9550782 L 9.8395542,7.4821501 Q 9.712601,6.3057177 8.9762729,5.7048063 8.2484083,5.1038948 6.8180697,5.1038948 q -1.4895834,0 -2.1751303,0.5501302 -0.6770834,0.5416667 -0.6770834,1.311849 0,0.6686198 0.4824219,1.1002605 0.4739584,0.4316406 2.4713543,0.8886719 2.0058594,0.4485677 2.7506511,0.7871094 1.0833337,0.4993492 1.5996097,1.2695312 0.516276,0.761719 0.516276,1.760417 0,0.990234 -0.567058,1.870443 -0.567057,0.871744 -1.6334631,1.36263 -1.0579428,0.482422 -2.3867188,0.482422 -1.6842449,0 -2.8268231,-0.490886 Q 3.2379914,15.505588 2.5862987,14.523817 1.9430695,13.533583 1.9092153,12.289442 Z"
       style="font-size:17.33333397px;fill:none;fill-opacity:1;stroke:#ffffff;stroke-width:0.5;stroke-miterlimit:4;stroke-dasharray:none;stroke-opacity:1"
       id="path5504"
       inkscape:connector-curvature="0" />
    <path
       d="m 22.187861,3.8682176 h 1.641928 v 7.1686204 q 0,1.870442 -0.423177,2.970703 -0.423178,1.10026 -1.531902,1.794271 -1.10026,0.685547 -2.894531,0.685547 -1.74349,0 -2.852214,-0.600912 -1.108724,-0.600911 -1.582682,-1.735026 -0.473958,-1.142578 -0.473958,-3.114583 V 3.8682176 h 1.641927 v 7.1601564 q 0,1.616537 0.296224,2.386719 0.304687,0.761719 1.032552,1.176432 0.736328,0.414714 1.794271,0.414714 1.811198,0 2.58138,-0.820964 0.770182,-0.820963 0.770182,-3.156901 z"
       style="font-size:17.33333397px;fill:none;fill-opacity:1;stroke:#ffffff;stroke-width:0.5;stroke-miterlimit:4;stroke-dasharray:none;stroke-opacity:1"
       id="path5506"
       inkscape:connector-curvature="0" />
    <path
       d="M 26.571977,16.27577 V 3.8682176 h 4.680339 q 1.235677,0 1.88737,0.1184896 0.914062,0.1523438 1.531901,0.5839844 0.617838,0.4231771 0.990234,1.1933595 0.38086,0.7701823 0.38086,1.6927083 0,1.5826824 -1.007162,2.6829426 -1.007161,1.091797 -3.639323,1.091797 h -3.182292 v 5.044271 z m 1.641927,-6.5084636 h 3.207683 q 1.591145,0 2.259765,-0.5924479 0.66862,-0.592448 0.66862,-1.6673178 0,-0.7786459 -0.397786,-1.3287761 Q 33.562863,5.6201708 32.919634,5.4424365 32.50492,5.3324104 31.387732,5.3324104 h -3.173828 z"
       style="font-size:17.33333397px;fill:none;fill-opacity:1;stroke:#ffffff;stroke-width:0.5;stroke-miterlimit:4;stroke-dasharray:none;stroke-opacity:1"
       id="path5508"
       inkscape:connector-curvature="0" />
    <path
       d="M 38.183956,16.27577 V 3.8682176 h 8.971355 v 1.4641928 h -7.329428 v 3.8001304 h 6.863933 V 10.58827 h -6.863933 v 4.223307 h 7.617188 v 1.464193 z"
       style="font-size:17.33333397px;fill:none;fill-opacity:1;stroke:#ffffff;stroke-width:0.5;stroke-miterlimit:4;stroke-dasharray:none;stroke-opacity:1"
       id="path5510"
       inkscape:connector-curvature="0" />
    <path
       d="M 49.753618,16.27577 V 3.8682176 h 5.501302 q 1.658854,0 2.522135,0.3385417 0.863282,0.3300782 1.379558,1.1764324 0.516276,0.8463542 0.516276,1.8704427 0,1.3203126 -0.854818,2.2259116 -0.854818,0.905599 -2.640625,1.151042 0.651693,0.313151 0.990234,0.617838 0.719401,0.660157 1.362631,1.650391 l 2.158203,3.376953 H 58.62341 l -1.641927,-2.58138 q -0.719402,-1.117188 -1.184896,-1.709636 -0.465495,-0.592448 -0.837891,-0.829427 -0.363932,-0.236979 -0.744792,-0.330078 -0.279297,-0.05924 -0.914062,-0.05924 h -1.904297 v 5.509766 z m 1.641927,-6.9316407 h 3.529297 q 1.125651,0 1.760417,-0.2285156 0.634765,-0.2369792 0.964843,-0.7447917 0.330078,-0.5162761 0.330078,-1.1171876 0,-0.8802083 -0.643229,-1.4472656 -0.634765,-0.5670574 -2.014323,-0.5670574 h -3.927083 z"
       style="font-size:17.33333397px;fill:none;fill-opacity:1;stroke:#ffffff;stroke-width:0.5;stroke-miterlimit:4;stroke-dasharray:none;stroke-opacity:1"
       id="path5512"
       inkscape:connector-curvature="0" />
    <path
       d="M 67.044632,16.27577 V 3.8682176 h 1.684245 l 6.516927,9.7415364 V 3.8682176 h 1.574219 V 16.27577 H 75.135778 L 68.618851,6.5257698 V 16.27577 Z"
       style="font-size:17.33333397px;fill:none;fill-opacity:1;stroke:#ffffff;stroke-width:0.5;stroke-miterlimit:4;stroke-dasharray:none;stroke-opacity:1"
       id="path5514"
       inkscape:connector-curvature="0" />
    <path
       d="M 79.866903,16.27577 V 3.8682176 H 81.50883 V 16.27577 Z"
       style="font-size:17.33333397px;fill:none;fill-opacity:1;stroke:#ffffff;stroke-width:0.5;stroke-miterlimit:4;stroke-dasharray:none;stroke-opacity:1"
       id="path5516"
       inkscape:connector-curvature="0" />
    <path
       d="M 84.377968,16.27577 V 3.8682176 h 1.684245 L 92.57914,13.609754 V 3.8682176 h 1.574219 V 16.27577 H 92.469114 L 85.952187,6.5257698 V 16.27577 Z"
       style="font-size:17.33333397px;fill:none;fill-opacity:1;stroke:#ffffff;stroke-width:0.5;stroke-miterlimit:4;stroke-dasharray:none;stroke-opacity:1"
       id="path5518"
       inkscape:connector-curvature="0" />
    <path
       d="M 100.07784,16.27577 V 5.3324104 H 95.989944 V 3.8682176 h 9.834636 v 1.4641928 h -4.10482 V 16.27577 Z"
       style="font-size:17.33333397px;fill:none;fill-opacity:1;stroke:#ffffff;stroke-width:0.5;stroke-miterlimit:4;stroke-dasharray:none;stroke-opacity:1"
       id="path5520"
       inkscape:connector-curvature="0" />
    <path
       d="M 107.55115,16.27577 V 3.8682176 h 8.97135 v 1.4641928 h -7.32943 v 3.8001304 h 6.86394 V 10.58827 h -6.86394 v 4.223307 h 7.61719 v 1.464193 z"
       style="font-size:17.33333397px;fill:none;fill-opacity:1;stroke:#ffffff;stroke-width:0.5;stroke-miterlimit:4;stroke-dasharray:none;stroke-opacity:1"
       id="path5522"
       inkscape:connector-curvature="0" />
    <path
       d="M 119.07849,16.27577 V 3.8682176 h 1.68425 l 6.51692,9.7415364 V 3.8682176 h 1.57422 V 16.27577 h -1.68424 L 120.65271,6.5257698 V 16.27577 Z"
       style="font-size:17.33333397px;fill:none;fill-opacity:1;stroke:#ffffff;stroke-width:0.5;stroke-miterlimit:4;stroke-dasharray:none;stroke-opacity:1"
       id="path5524"
       inkscape:connector-curvature="0" />
    <path
       d="M 131.62147,16.27577 V 3.8682176 h 4.27408 q 1.44727,0 2.20899,0.1777344 1.0664,0.2454427 1.81966,0.8886719 0.98177,0.8294272 1.46419,2.1243491 0.49089,1.2864584 0.49089,2.945313 0,1.413411 -0.33008,2.505208 -0.33008,1.091797 -0.84635,1.811198 -0.51628,0.710938 -1.13412,1.125651 -0.60937,0.40625 -1.48112,0.617839 -0.86328,0.211588 -1.98893,0.211588 z m 1.64192,-1.464193 h 2.64909 q 1.22721,0 1.92122,-0.228515 0.70248,-0.228516 1.11719,-0.643229 0.58399,-0.583985 0.9056,-1.565756 0.33008,-0.990234 0.33008,-2.395182 0,-1.9466147 -0.64323,-2.9876304 -0.63477,-1.0494792 -1.54883,-1.4049479 -0.66015,-0.2539063 -2.12435,-0.2539063 h -2.60677 z"
       style="font-size:17.33333397px;fill:none;fill-opacity:1;stroke:#ffffff;stroke-width:0.5;stroke-miterlimit:4;stroke-dasharray:none;stroke-opacity:1"
       id="path5526"
       inkscape:connector-curvature="0" />
    <path
       d="m 143.64815,10.232801 q 0,-3.0891926 1.65885,-4.8326823 1.65886,-1.7519531 4.28255,-1.7519531 1.7181,0 3.09766,0.8209635 1.37956,0.8209636 2.09896,2.2936199 0.72786,1.4641928 0.72786,3.326172 0,1.88737 -0.76172,3.376953 -0.76171,1.489584 -2.1582,2.259766 -1.39648,0.761719 -3.01302,0.761719 -1.75195,0 -3.13151,-0.846354 -1.37956,-0.846355 -2.09049,-2.310547 -0.71094,-1.464193 -0.71094,-3.097657 z m 1.69271,0.02539 q 0,2.242838 1.20182,3.53776 1.21029,1.286459 3.02995,1.286459 1.85351,0 3.04687,-1.303386 1.20183,-1.303385 1.20183,-3.698568 0,-1.5149736 -0.51628,-2.6406246 -0.50781,-1.1341147 -1.49805,-1.7519532 -0.98177,-0.6263021 -2.20898,-0.6263021 -1.74349,0 -3.00456,1.2018229 -1.2526,1.1933594 -1.2526,3.994792 z"
       style="font-size:17.33333397px;fill:none;fill-opacity:1;stroke:#ffffff;stroke-width:0.5;stroke-miterlimit:4;stroke-dasharray:none;stroke-opacity:1"
       id="path5528"
       inkscape:connector-curvature="0" />
  </g>
</svg>
