<?xml version="1.0" encoding="UTF-8" standalone="no"?>
<svg
   xmlns:dc="http://purl.org/dc/elements/1.1/"
   xmlns:cc="http://creativecommons.org/ns#"
   xmlns:rdf="http://www.w3.org/1999/02/22-rdf-syntax-ns#"
   xmlns:svg="http://www.w3.org/2000/svg"
   xmlns="http://www.w3.org/2000/svg"
   xmlns:sodipodi="http://sodipodi.sourceforge.net/DTD/sodipodi-0.dtd"
   xmlns:inkscape="http://www.inkscape.org/namespaces/inkscape"
   width="61"
   height="20"
   viewBox="0 0 61 20"
   version="1.1"
   id="svg3739"
   sodipodi:docname="system.svg"
   inkscape:version="0.92.4 (5da689c313, 2019-01-14)">
  <metadata
     id="metadata3743">
    <rdf:RDF>
      <cc:Work
         rdf:about="">
        <dc:format>image/svg+xml</dc:format>
        <dc:type
           rdf:resource="http://purl.org/dc/dcmitype/StillImage" />
        <dc:title>system</dc:title>
      </cc:Work>
    </rdf:RDF>
  </metadata>
  <sodipodi:namedview
     pagecolor="#ffffff"
     bordercolor="#666666"
     borderopacity="1"
     objecttolerance="10"
     gridtolerance="10"
     guidetolerance="10"
     inkscape:pageopacity="0"
     inkscape:pageshadow="2"
     inkscape:window-width="1920"
     inkscape:window-height="1137"
     id="namedview3741"
     showgrid="false"
     inkscape:zoom="7.5183342"
     inkscape:cx="98.492563"
     inkscape:cy="8.1535411"
     inkscape:window-x="-8"
     inkscape:window-y="344"
     inkscape:window-maximized="1"
     inkscape:current-layer="svg3739"
     scale-x="2" />
  <!-- Generator: Sketch 45 (43475) - http://www.bohemiancoding.com/sketch -->
  <title
     id="title3729">system</title>
  <desc
     id="desc3731">Created with Sketch.</desc>
  <defs
     id="defs3733" />
  <g
     inkscape:groupmode="layer"
     id="layer1"
     inkscape:label="Layer 1"
     transform="translate(0,2)" />
  <g
     inkscape:groupmode="layer"
     id="layer2"
     inkscape:label="Layer 2"
     transform="translate(0,2)" />
  <g
     aria-label="PORTS"
     style="font-style:normal;font-variant:normal;font-weight:normal;font-stretch:normal;font-size:21.33333397px;line-height:1.25;font-family:Arial;-inkscape-font-specification:Arial;letter-spacing:0px;word-spacing:0px;fill:none;fill-opacity:1;stroke:#ffffff;stroke-width:0.5;stroke-miterlimit:4;stroke-dasharray:none;stroke-opacity:1"
     id="text4643">
    <path
       d="M 2.4678091,16.27577 V 3.8682176 h 4.6803387 q 1.2356771,0 1.8873699,0.1184896 0.9140625,0.1523438 1.5319013,0.5839844 0.617838,0.4231771 0.990234,1.1933595 0.38086,0.7701823 0.38086,1.6927083 0,1.5826824 -1.007162,2.6829426 -1.0071614,1.091797 -3.639323,1.091797 H 4.1097362 V 16.27577 Z M 4.1097362,9.7673064 h 3.2076824 q 1.5911459,0 2.2597658,-0.5924479 0.6686196,-0.592448 0.6686196,-1.6673178 0,-0.7786459 -0.3977863,-1.3287761 Q 9.4586948,5.6201708 8.8154656,5.4424365 8.400752,5.3324104 7.2835645,5.3324104 H 4.1097362 Z"
       style="font-size:17.33333397px;fill:none;fill-opacity:1;stroke:#ffffff;stroke-width:0.5;stroke-miterlimit:4;stroke-dasharray:none;stroke-opacity:1"
       id="path5425"
       inkscape:connector-curvature="0" />
    <path
       d="m 13.546585,10.232801 q 0,-3.0891926 1.658854,-4.8326823 1.658855,-1.7519531 4.282553,-1.7519531 1.718099,0 3.097656,0.8209635 1.379557,0.8209636 2.098958,2.2936199 0.727865,1.4641928 0.727865,3.326172 0,1.88737 -0.761719,3.376953 -0.761719,1.489584 -2.158203,2.259766 -1.396484,0.761719 -3.013021,0.761719 -1.751953,0 -3.13151,-0.846354 -1.379558,-0.846355 -2.090495,-2.310547 -0.710938,-1.464193 -0.710938,-3.097657 z m 1.692709,0.02539 q 0,2.242838 1.201822,3.53776 1.210287,1.286459 3.029948,1.286459 1.853516,0 3.046876,-1.303386 1.201823,-1.303385 1.201823,-3.698568 0,-1.5149736 -0.516276,-2.6406246 Q 22.695674,6.3057177 21.70544,5.6878792 20.723669,5.0615771 19.496455,5.0615771 q -1.74349,0 -3.004557,1.2018229 -1.252604,1.1933594 -1.252604,3.994791 z"
       style="font-size:17.33333397px;fill:none;fill-opacity:1;stroke:#ffffff;stroke-width:0.5;stroke-miterlimit:4;stroke-dasharray:none;stroke-opacity:1"
       id="path5427"
       inkscape:connector-curvature="0" />
    <path
       d="M 27.545284,16.27577 V 3.8682176 h 5.501302 q 1.658854,0 2.522135,0.3385417 0.863282,0.3300782 1.379558,1.1764324 0.516276,0.8463542 0.516276,1.8704427 0,1.3203126 -0.854818,2.2259116 -0.854818,0.905599 -2.640625,1.151042 0.651693,0.313151 0.990234,0.617838 0.719402,0.660157 1.362631,1.650391 l 2.158203,3.376953 h -2.065104 l -1.641927,-2.58138 q -0.719402,-1.117188 -1.184896,-1.709636 -0.465495,-0.592448 -0.837891,-0.829427 -0.363932,-0.236979 -0.744792,-0.330078 -0.279297,-0.05924 -0.914062,-0.05924 h -1.904297 v 5.509766 z m 1.641927,-6.9316407 h 3.529297 q 1.125651,0 1.760417,-0.2285156 0.634765,-0.2369792 0.964843,-0.7447917 0.330078,-0.5162761 0.330078,-1.1171876 0,-0.8802083 -0.643229,-1.4472656 -0.634765,-0.5670574 -2.014323,-0.5670574 h -3.927083 z"
       style="font-size:17.33333397px;fill:none;fill-opacity:1;stroke:#ffffff;stroke-width:0.5;stroke-miterlimit:4;stroke-dasharray:none;stroke-opacity:1"
       id="path5429"
       inkscape:connector-curvature="0" />
    <path
       d="M 42.898148,16.27577 V 5.3324104 H 38.810257 V 3.8682176 h 9.834636 V 5.3324104 H 44.540075 V 16.27577 Z"
       style="font-size:17.33333397px;fill:none;fill-opacity:1;stroke:#ffffff;stroke-width:0.5;stroke-miterlimit:4;stroke-dasharray:none;stroke-opacity:1"
       id="path5431"
       inkscape:connector-curvature="0" />
    <path
       d="m 49.779008,12.289442 1.548828,-0.135417 q 0.110026,0.93099 0.507813,1.531901 0.40625,0.592448 1.252604,0.964844 0.846354,0.363932 1.904297,0.363932 0.939453,0 1.658854,-0.279296 0.719401,-0.279297 1.066407,-0.761719 0.355468,-0.490886 0.355468,-1.066407 0,-0.583984 -0.338541,-1.015625 Q 57.396196,11.451551 56.61755,11.155327 56.118201,10.960666 54.408566,10.554416 52.69893,10.139702 52.013383,9.7757699 51.124711,9.3102751 50.684607,8.6247282 q -0.43164,-0.6940104 -0.43164,-1.5488281 0,-0.9394532 0.533203,-1.7519532 0.533203,-0.8209636 1.557291,-1.2441407 1.024089,-0.4231771 2.276693,-0.4231771 1.379558,0 2.429037,0.4485677 1.057943,0.4401042 1.625,1.3033855 0.567057,0.8632813 0.609375,1.9550782 L 57.709347,7.4821501 Q 57.582394,6.3057177 56.846066,5.7048063 56.118201,5.1038948 54.687863,5.1038948 q -1.489584,0 -2.175131,0.5501302 -0.677083,0.5416667 -0.677083,1.311849 0,0.6686198 0.482422,1.1002605 0.473958,0.4316406 2.471354,0.8886719 2.00586,0.4485677 2.750651,0.7871094 1.083334,0.4993492 1.59961,1.2695312 0.516276,0.761719 0.516276,1.760417 0,0.990234 -0.567058,1.870443 -0.567057,0.871744 -1.633463,1.36263 -1.057943,0.482422 -2.386719,0.482422 -1.684245,0 -2.826823,-0.490886 -1.134115,-0.490885 -1.785807,-1.472656 -0.64323,-0.990234 -0.677084,-2.234375 z"
       style="font-size:17.33333397px;fill:none;fill-opacity:1;stroke:#ffffff;stroke-width:0.5;stroke-miterlimit:4;stroke-dasharray:none;stroke-opacity:1"
       id="path5433"
       inkscape:connector-curvature="0" />
  </g>
</svg>
