<?xml version="1.0" encoding="UTF-8" standalone="no"?>
<svg
   xmlns:dc="http://purl.org/dc/elements/1.1/"
   xmlns:cc="http://creativecommons.org/ns#"
   xmlns:rdf="http://www.w3.org/1999/02/22-rdf-syntax-ns#"
   xmlns:svg="http://www.w3.org/2000/svg"
   xmlns="http://www.w3.org/2000/svg"
   xmlns:sodipodi="http://sodipodi.sourceforge.net/DTD/sodipodi-0.dtd"
   xmlns:inkscape="http://www.inkscape.org/namespaces/inkscape"
   width="199"
   height="20"
   viewBox="0 0 199 20"
   version="1.1"
   id="svg3739"
   sodipodi:docname="system.svg"
   inkscape:version="0.92.4 (5da689c313, 2019-01-14)">
  <metadata
     id="metadata3743">
    <rdf:RDF>
      <cc:Work
         rdf:about="">
        <dc:format>image/svg+xml</dc:format>
        <dc:type
           rdf:resource="http://purl.org/dc/dcmitype/StillImage" />
        <dc:title>system</dc:title>
      </cc:Work>
    </rdf:RDF>
  </metadata>
  <sodipodi:namedview
     pagecolor="#ffffff"
     bordercolor="#666666"
     borderopacity="1"
     objecttolerance="10"
     gridtolerance="10"
     guidetolerance="10"
     inkscape:pageopacity="0"
     inkscape:pageshadow="2"
     inkscape:window-width="1920"
     inkscape:window-height="1137"
     id="namedview3741"
     showgrid="false"
     inkscape:zoom="3.7591671"
     inkscape:cx="82.29931"
     inkscape:cy="8.1535411"
     inkscape:window-x="-8"
     inkscape:window-y="344"
     inkscape:window-maximized="1"
     inkscape:current-layer="svg3739"
     scale-x="2" />
  <!-- Generator: Sketch 45 (43475) - http://www.bohemiancoding.com/sketch -->
  <title
     id="title3729">system</title>
  <desc
     id="desc3731">Created with Sketch.</desc>
  <defs
     id="defs3733" />
  <g
     inkscape:groupmode="layer"
     id="layer1"
     inkscape:label="Layer 1"
     transform="translate(0,2)" />
  <g
     inkscape:groupmode="layer"
     id="layer2"
     inkscape:label="Layer 2"
     transform="translate(0,2)" />
  <g
     aria-label="PLAYSTATION PORTABLE"
     style="font-style:normal;font-variant:normal;font-weight:normal;font-stretch:normal;font-size:21.33333397px;line-height:1.25;font-family:Arial;-inkscape-font-specification:Arial;letter-spacing:0px;word-spacing:0px;fill:none;fill-opacity:1;stroke:#ffffff;stroke-width:0.5;stroke-miterlimit:4;stroke-dasharray:none;stroke-opacity:1"
     id="text4531">
    <path
       d="M 4.4325249,16.009754 V 4.5566292 h 4.3203125 q 1.140625,0 1.7421876,0.109375 0.84375,0.140625 1.414062,0.5390625 0.570313,0.390625 0.914063,1.1015625 0.351562,0.7109375 0.351562,1.5625 0,1.4609375 -0.929687,2.4765628 -0.929688,1.007812 -3.3593751,1.007812 h -2.9375 v 4.65625 z m 1.515625,-6.007812 h 2.9609375 q 1.4687496,0 2.0859376,-0.5468753 0.617187,-0.546875 0.617187,-1.5390625 0,-0.71875 -0.367187,-1.2265625 Q 10.88565,6.1738167 10.2919,6.0097542 9.9090874,5.9081917 8.8778374,5.9081917 H 5.9481499 Z"
       style="font-size:16px;fill:none;stroke:#ffffff;stroke-width:0.5;stroke-miterlimit:4;stroke-dasharray:none;stroke-opacity:1"
       id="path4652"
       inkscape:connector-curvature="0" />
    <path
       d="M 15.057525,16.009754 V 4.5566292 H 16.57315 V 14.658192 h 5.640625 v 1.351562 z"
       style="font-size:16px;fill:none;stroke:#ffffff;stroke-width:0.5;stroke-miterlimit:4;stroke-dasharray:none;stroke-opacity:1"
       id="path4654"
       inkscape:connector-curvature="0" />
    <path
       d="M 22.768462,16.009754 27.1669,4.5566292 h 1.632812 l 4.6875,11.4531248 H 31.76065 l -1.335938,-3.46875 H 25.63565 l -1.257813,3.46875 z m 3.304688,-4.703125 h 3.882812 L 28.76065,8.1347542 q -0.546875,-1.4453125 -0.8125,-2.375 -0.21875,1.1015625 -0.617188,2.1875 z"
       style="font-size:16px;fill:none;stroke:#ffffff;stroke-width:0.5;stroke-miterlimit:4;stroke-dasharray:none;stroke-opacity:1"
       id="path4656"
       inkscape:connector-curvature="0" />
    <path
       d="M 36.752837,16.009754 V 11.158192 L 32.338775,4.5566292 h 1.84375 l 2.257812,3.453125 q 0.625,0.96875 1.164063,1.9375 0.515625,-0.8984375 1.25,-2.0234375 l 2.21875,-3.3671875 h 1.765625 l -4.570313,6.6015628 v 4.851562 z"
       style="font-size:16px;fill:none;stroke:#ffffff;stroke-width:0.5;stroke-miterlimit:4;stroke-dasharray:none;stroke-opacity:1"
       id="path4658"
       inkscape:connector-curvature="0" />
    <path
       d="m 43.69815,12.330067 1.429687,-0.125 q 0.101563,0.859375 0.46875,1.414062 0.375,0.546875 1.15625,0.890625 0.78125,0.335938 1.757813,0.335938 0.867187,0 1.53125,-0.257813 0.664062,-0.257812 0.984375,-0.703125 0.328125,-0.453125 0.328125,-0.984375 0,-0.539062 -0.3125,-0.9375 -0.3125,-0.40625 -1.03125,-0.679687 Q 49.549712,11.103504 47.971587,10.728504 46.393462,10.345692 45.76065,10.009754 44.940337,9.5800667 44.534087,8.9472542 44.13565,8.3066292 44.13565,7.5175667 q 0,-0.8671875 0.492187,-1.6171875 0.492188,-0.7578125 1.4375,-1.1484375 0.945313,-0.390625 2.101563,-0.390625 1.273437,0 2.242187,0.4140625 0.976563,0.40625 1.5,1.203125 0.523438,0.796875 0.5625,1.8046875 l -1.453125,0.109375 Q 50.901275,6.8066292 50.221587,6.2519417 49.549712,5.6972542 48.2294,5.6972542 q -1.375,0 -2.007813,0.5078125 -0.625,0.5 -0.625,1.2109375 0,0.6171875 0.445313,1.015625 0.4375,0.3984375 2.28125,0.8203125 1.851562,0.4140625 2.539062,0.7265625 1,0.4609378 1.476563,1.1718748 0.476562,0.703125 0.476562,1.625 0,0.914063 -0.523437,1.726563 -0.523438,0.804687 -1.507813,1.257812 -0.976562,0.445313 -2.203125,0.445313 -1.554687,0 -2.609375,-0.453125 -1.046875,-0.453125 -1.648437,-1.359375 -0.59375,-0.914063 -0.625,-2.0625 z"
       style="font-size:16px;fill:none;stroke:#ffffff;stroke-width:0.5;stroke-miterlimit:4;stroke-dasharray:none;stroke-opacity:1"
       id="path4660"
       inkscape:connector-curvature="0" />
    <path
       d="M 57.815337,16.009754 V 5.9081917 H 54.0419 V 4.5566292 h 9.078125 V 5.9081917 H 59.330962 V 16.009754 Z"
       style="font-size:16px;fill:none;stroke:#ffffff;stroke-width:0.5;stroke-miterlimit:4;stroke-dasharray:none;stroke-opacity:1"
       id="path4662"
       inkscape:connector-curvature="0" />
    <path
       d="M 62.237212,16.009754 66.63565,4.5566292 h 1.632812 l 4.6875,11.4531248 H 71.2294 l -1.335938,-3.46875 H 65.1044 l -1.257813,3.46875 z M 65.5419,11.306629 h 3.882812 L 68.2294,8.1347542 q -0.546875,-1.4453125 -0.8125,-2.375 -0.21875,1.1015625 -0.617188,2.1875 z"
       style="font-size:16px;fill:none;stroke:#ffffff;stroke-width:0.5;stroke-miterlimit:4;stroke-dasharray:none;stroke-opacity:1"
       id="path4664"
       inkscape:connector-curvature="0" />
    <path
       d="M 75.909087,16.009754 V 5.9081917 H 72.13565 V 4.5566292 h 9.078125 V 5.9081917 H 77.424712 V 16.009754 Z"
       style="font-size:16px;fill:none;stroke:#ffffff;stroke-width:0.5;stroke-miterlimit:4;stroke-dasharray:none;stroke-opacity:1"
       id="path4666"
       inkscape:connector-curvature="0" />
    <path
       d="M 83.034087,16.009754 V 4.5566292 h 1.515625 V 16.009754 Z"
       style="font-size:16px;fill:none;stroke:#ffffff;stroke-width:0.5;stroke-miterlimit:4;stroke-dasharray:none;stroke-opacity:1"
       id="path4668"
       inkscape:connector-curvature="0" />
    <path
       d="m 86.752837,10.431629 q 0,-2.8515623 1.53125,-4.4609373 1.53125,-1.6171875 3.953125,-1.6171875 1.585938,0 2.859375,0.7578125 1.273438,0.7578125 1.9375,2.1171875 0.671875,1.3515625 0.671875,3.0703128 0,1.742187 -0.703125,3.117187 -0.703125,1.375 -1.992187,2.085938 -1.289063,0.703125 -2.78125,0.703125 -1.617188,0 -2.890625,-0.78125 -1.273438,-0.78125 -1.929688,-2.132813 -0.65625,-1.351562 -0.65625,-2.859375 z m 1.5625,0.02344 q 0,2.070312 1.109375,3.265625 1.117188,1.1875 2.796875,1.1875 1.710938,0 2.8125,-1.203125 1.109375,-1.203125 1.109375,-3.414063 0,-1.3984373 -0.476562,-2.4374998 -0.46875,-1.046875 -1.382813,-1.6171875 -0.90625,-0.578125 -2.039062,-0.578125 -1.609375,0 -2.773438,1.109375 -1.15625,1.1015625 -1.15625,3.6875003 z"
       style="font-size:16px;fill:none;stroke:#ffffff;stroke-width:0.5;stroke-miterlimit:4;stroke-dasharray:none;stroke-opacity:1"
       id="path4670"
       inkscape:connector-curvature="0" />
    <path
       d="M 99.63565,16.009754 V 4.5566292 h 1.55469 l 6.01562,8.9921878 V 4.5566292 h 1.45313 V 16.009754 h -1.55469 l -6.01563,-8.9999998 v 8.9999998 z"
       style="font-size:16px;fill:none;stroke:#ffffff;stroke-width:0.5;stroke-miterlimit:4;stroke-dasharray:none;stroke-opacity:1"
       id="path4672"
       inkscape:connector-curvature="0" />
    <path
       d="M 115.65127,16.009754 V 4.5566292 h 4.32032 q 1.14062,0 1.74218,0.109375 0.84375,0.140625 1.41407,0.5390625 0.57031,0.390625 0.91406,1.1015625 0.35156,0.7109375 0.35156,1.5625 0,1.4609375 -0.92969,2.4765628 -0.92968,1.007812 -3.35937,1.007812 h -2.9375 v 4.65625 z m 1.51563,-6.007812 h 2.96094 q 1.46875,0 2.08593,-0.5468753 0.61719,-0.546875 0.61719,-1.5390625 0,-0.71875 -0.36719,-1.2265625 -0.35937,-0.515625 -0.95312,-0.6796875 -0.38281,-0.1015625 -1.41406,-0.1015625 h -2.92969 z"
       style="font-size:16px;fill:none;stroke:#ffffff;stroke-width:0.5;stroke-miterlimit:4;stroke-dasharray:none;stroke-opacity:1"
       id="path4674"
       inkscape:connector-curvature="0" />
    <path
       d="m 125.87784,10.431629 q 0,-2.8515623 1.53125,-4.4609373 1.53125,-1.6171875 3.95312,-1.6171875 1.58594,0 2.85938,0.7578125 1.27343,0.7578125 1.9375,2.1171875 0.67187,1.3515625 0.67187,3.0703128 0,1.742187 -0.70312,3.117187 -0.70313,1.375 -1.99219,2.085938 -1.28906,0.703125 -2.78125,0.703125 -1.61719,0 -2.89063,-0.78125 -1.27343,-0.78125 -1.92968,-2.132813 -0.65625,-1.351562 -0.65625,-2.859375 z m 1.5625,0.02344 q 0,2.070312 1.10937,3.265625 1.11719,1.1875 2.79688,1.1875 1.71093,0 2.8125,-1.203125 1.10937,-1.203125 1.10937,-3.414063 0,-1.3984373 -0.47656,-2.4374998 -0.46875,-1.046875 -1.38281,-1.6171875 -0.90625,-0.578125 -2.03907,-0.578125 -1.60937,0 -2.77343,1.109375 -1.15625,1.1015625 -1.15625,3.6875003 z"
       style="font-size:16px;fill:none;stroke:#ffffff;stroke-width:0.5;stroke-miterlimit:4;stroke-dasharray:none;stroke-opacity:1"
       id="path4676"
       inkscape:connector-curvature="0" />
    <path
       d="M 138.79971,16.009754 V 4.5566292 h 5.07813 q 1.53125,0 2.32812,0.3125 0.79688,0.3046875 1.27344,1.0859375 0.47656,0.78125 0.47656,1.7265625 0,1.21875 -0.78906,2.0546875 -0.78906,0.8359373 -2.4375,1.0625003 0.60156,0.289062 0.91406,0.570312 0.66406,0.609375 1.25781,1.523438 l 1.99219,3.117187 h -1.90625 l -1.51562,-2.382812 q -0.66407,-1.03125 -1.09375,-1.578125 -0.42969,-0.546875 -0.77344,-0.765625 -0.33594,-0.21875 -0.6875,-0.304688 -0.25781,-0.05469 -0.84375,-0.05469 h -1.75781 v 5.085937 z m 1.51563,-6.3984373 h 3.25781 q 1.03906,0 1.625,-0.2109375 0.58594,-0.21875 0.89062,-0.6875 0.30469,-0.4765625 0.30469,-1.03125 0,-0.8125 -0.59375,-1.3359375 -0.58594,-0.5234375 -1.85937,-0.5234375 h -3.625 z"
       style="font-size:16px;fill:none;stroke:#ffffff;stroke-width:0.5;stroke-miterlimit:4;stroke-dasharray:none;stroke-opacity:1"
       id="path4678"
       inkscape:connector-curvature="0" />
    <path
       d="M 152.97159,16.009754 V 5.9081917 h -3.77344 V 4.5566292 h 9.07812 v 1.3515625 h -3.78906 V 16.009754 Z"
       style="font-size:16px;fill:none;stroke:#ffffff;stroke-width:0.5;stroke-miterlimit:4;stroke-dasharray:none;stroke-opacity:1"
       id="path4680"
       inkscape:connector-curvature="0" />
    <path
       d="M 157.39346,16.009754 161.7919,4.5566292 h 1.63281 l 4.6875,11.4531248 h -1.72656 l -1.33594,-3.46875 h -4.78906 l -1.25781,3.46875 z m 3.30469,-4.703125 h 3.88281 l -1.19531,-3.1718748 q -0.54688,-1.4453125 -0.8125,-2.375 -0.21875,1.1015625 -0.61719,2.1875 z"
       style="font-size:16px;fill:none;stroke:#ffffff;stroke-width:0.5;stroke-miterlimit:4;stroke-dasharray:none;stroke-opacity:1"
       id="path4682"
       inkscape:connector-curvature="0" />
    <path
       d="M 169.27627,16.009754 V 4.5566292 h 4.29688 q 1.3125,0 2.10156,0.3515625 0.79688,0.34375 1.24219,1.0703125 0.45312,0.71875 0.45312,1.5078125 0,0.734375 -0.39843,1.3828125 -0.39844,0.6484375 -1.20313,1.046875 1.03906,0.3046878 1.59375,1.0390628 0.5625,0.734375 0.5625,1.734375 0,0.804687 -0.34375,1.5 -0.33594,0.6875 -0.83594,1.0625 -0.5,0.375 -1.25781,0.570312 -0.75,0.1875 -1.84375,0.1875 z m 1.51563,-6.6406248 h 2.47656 q 1.00781,0 1.44531,-0.1328125 0.57813,-0.171875 0.86719,-0.5703125 0.29688,-0.3984375 0.29688,-1 0,-0.5703125 -0.27344,-1 -0.27344,-0.4375 -0.78125,-0.59375 -0.50781,-0.1640625 -1.74219,-0.1640625 h -2.28906 z m 0,5.2890628 h 2.85156 q 0.73438,0 1.03125,-0.05469 0.52344,-0.09375 0.875,-0.3125 0.35156,-0.21875 0.57813,-0.632812 0.22656,-0.421875 0.22656,-0.96875 0,-0.640625 -0.32813,-1.109375 -0.32812,-0.476563 -0.91406,-0.664063 -0.57812,-0.195312 -1.67187,-0.195312 h -2.64844 z"
       style="font-size:16px;fill:none;stroke:#ffffff;stroke-width:0.5;stroke-miterlimit:4;stroke-dasharray:none;stroke-opacity:1"
       id="path4684"
       inkscape:connector-curvature="0" />
    <path
       d="M 179.96377,16.009754 V 4.5566292 h 1.51563 V 14.658192 h 5.64062 v 1.351562 z"
       style="font-size:16px;fill:none;stroke:#ffffff;stroke-width:0.5;stroke-miterlimit:4;stroke-dasharray:none;stroke-opacity:1"
       id="path4686"
       inkscape:connector-curvature="0" />
    <path
       d="M 188.96377,16.009754 V 4.5566292 h 8.28125 v 1.3515625 h -6.76562 v 3.5078125 h 6.33594 v 1.3437498 h -6.33594 v 3.898438 h 7.03125 v 1.351562 z"
       style="font-size:16px;fill:none;stroke:#ffffff;stroke-width:0.5;stroke-miterlimit:4;stroke-dasharray:none;stroke-opacity:1"
       id="path4688"
       inkscape:connector-curvature="0" />
  </g>
</svg>
