<?xml version="1.0" encoding="UTF-8" standalone="no"?>
<svg
   xmlns:dc="http://purl.org/dc/elements/1.1/"
   xmlns:cc="http://creativecommons.org/ns#"
   xmlns:rdf="http://www.w3.org/1999/02/22-rdf-syntax-ns#"
   xmlns:svg="http://www.w3.org/2000/svg"
   xmlns="http://www.w3.org/2000/svg"
   xmlns:sodipodi="http://sodipodi.sourceforge.net/DTD/sodipodi-0.dtd"
   xmlns:inkscape="http://www.inkscape.org/namespaces/inkscape"
   viewBox="0 0 1000 114"
   version="1.1"
   id="svg78"
   sodipodi:docname="logo.svg"
   inkscape:version="0.92.4 (5da689c313, 2019-01-14)">
  <metadata
     id="metadata84">
    <rdf:RDF>
      <cc:Work
         rdf:about="">
        <dc:format>image/svg+xml</dc:format>
        <dc:type
           rdf:resource="http://purl.org/dc/dcmitype/StillImage" />
        <dc:title>logo</dc:title>
      </cc:Work>
    </rdf:RDF>
  </metadata>
  <defs
     id="defs82" />
  <sodipodi:namedview
     pagecolor="#ffffff"
     bordercolor="#666666"
     borderopacity="1"
     objecttolerance="10"
     gridtolerance="10"
     guidetolerance="10"
     inkscape:pageopacity="0"
     inkscape:pageshadow="2"
     inkscape:window-width="1920"
     inkscape:window-height="1017"
     id="namedview80"
     showgrid="false"
     inkscape:zoom="1.6065466"
     inkscape:cx="403.7968"
     inkscape:cy="57"
     inkscape:window-x="-8"
     inkscape:window-y="-8"
     inkscape:window-maximized="1"
     inkscape:current-layer="svg78"
     inkscape:pagecheckerboard="true" />
  <title
     id="title2">logo</title>
  <polygon
     style="fill:#ffffff"
     id="polygon41"
     points="" />
  <g
     id="g864">
    <path
       d="m 680.46314,27.22129 7.35653,64.666713 h -12.26 l -1.08228,-12.61306 h -16.62131 l -4.61872,12.61306 H 640.52879 L 666.55451,27.22129 h 13.9087 m -18.55264,40.995519 h 11.62446 l -2.21595,-25.721021 -9.40851,25.721021 M 680.46314,17.14129 h -13.9087 a 10.08,10.08 0 0 0 -9.3511,6.316546 l -26.02572,64.666745 a 10.08,10.08 0 0 0 9.3511,13.843419 h 12.70864 a 10.08,10.08 0 0 0 9.46534,-6.613917 l 2.19681,-5.99917 h 0.32581 l 0.29131,3.39486 a 10.08,10.08 0 0 0 10.04308,9.218197 h 12.25996 a 10.08,10.08 0 0 0 10.0154,-11.219337 L 690.47853,26.08189 a 10.08,10.08 0 0 0 -10.01539,-8.940629 z"
       id="path23"
       inkscape:connector-curvature="0"
       style="fill:none;stroke:#00ffff;stroke-width:1.44000006;stroke-miterlimit:4;stroke-dasharray:none;stroke-opacity:1" />
    <path
       d="m 649.72506,27.243423 -2.05099,13.38961 h -21.05398 l -2.11929,11.69375 h 18.99809 l -1.95434,12.49632 H 622.51833 L 620.045,78.566737 h 21.49964 l -2.12135,13.319206 h -33.85518 l 10.70306,-64.642592 h 33.45389 m -8.18042,51.323386 h 0.007 m 8.17321,-61.403386 h -33.45388 a 10.08,10.08 0 0 0 -9.94464,8.433461 l -10.70306,64.642581 a 10.08,10.08 0 0 0 9.94464,11.726547 h 33.85518 a 10.08,10.08 0 0 0 9.95453,-8.494557 l 2.0701,-12.997352 a 10.102723,10.102723 0 0 0 -2.52589,-8.781854 10.050926,10.050926 0 0 0 2.58144,-5.311613 l 1.95437,-12.49632 a 10.077566,10.077566 0 0 0 -0.39243,-4.733698 10.070064,10.070064 0 0 0 4.57251,-6.991387 l 2.05093,-13.38961 A 10.08,10.08 0 0 0 649.72506,17.16338 Z m 0,20.16 z"
       id="path27"
       inkscape:connector-curvature="0"
       style="fill:none;stroke:#00ffff;stroke-width:1.44000006;stroke-miterlimit:4;stroke-dasharray:none;stroke-opacity:1" />
    <path
       d="m 479.7541,27.196133 16.64244,0.119722 -10.8197,64.547998 h -11.64646 l 9.1711,-50.025872 -20.22912,50.025872 h -9.54537 l -4.4085,-50.002731 -6.9584,50.002731 h -11.78421 l 10.77038,-64.547998 h 16.52976 l 3.70142,45.452362 18.57666,-45.572084 m -4.6e-4,-10.08 a 10.07964,10.07964 0 0 0 -9.33382,6.27506 l -2.62551,6.440889 -0.27154,-3.334377 a 10.08,10.08 0 0 0 -10.04675,-9.26185 h -16.52979 a 10.08,10.08 0 0 0 -9.94255,8.42099 L 420.2333,90.204843 a 10.08,10.08 0 0 0 9.94255,11.739027 h 11.78421 a 10.04976,10.04976 0 0 0 5.68328,-1.75461 10.043366,10.043366 0 0 0 5.68368,1.75461 h 9.54537 a 10.06992,10.06992 0 0 0 5.52898,-1.65168 10.07905,10.07905 0 0 0 5.52907,1.65168 h 11.64646 a 10.08,10.08 0 0 0 9.9413,-8.413647 l 10.8197,-64.548 a 10.08,10.08 0 0 0 -9.86879,-11.74608 l -16.64242,-0.119707 -0.073,-2.74e-4 z"
       id="path31"
       inkscape:connector-curvature="0"
       style="fill:none;stroke:#00ffff;stroke-width:1.44000006;stroke-miterlimit:4;stroke-dasharray:none;stroke-opacity:1" />
    <path
       d="m 585.48479,25.642157 a 24.61765,24.61765 0 0 1 16.92606,5.822741 q 6.61579,5.801069 6.60123,18.223589 h -13.31712 q 0,-5.94144 -2.61921,-8.34539 a 10.823112,10.823112 0 0 0 -7.52055,-2.380781 c -5.35104,0 -9.47695,2.616163 -12.42406,7.8264 a 35.942011,35.942011 0 0 0 -4.40848,17.846395 20.018419,20.018419 0 0 0 2.85046,11.149603 9.5581152,9.5581152 0 0 0 8.55956,4.338101 12.396874,12.396874 0 0 0 9.24163,-3.371501 20.09376,20.09376 0 0 0 4.85818,-8.605901 h -12.40192 l 2.00365,-12.069907 h 24.18714 l -2.05086,11.692699 a 40.78836,40.78836 0 0 1 -6.32065,14.500023 27.072518,27.072518 0 0 1 -11.64748,9.385405 20.007835,20.007835 0 0 1 -7.98732,1.78936 q -11.5992,0 -18.10492,-7.543733 c -4.33918,-5.045199 -6.5088,-12.11616 -6.5088,-21.28729 q 0,-16.267219 8.22973,-27.631152 a 25.715045,25.715045 0 0 1 21.85373,-11.338661 m 22.53656,30.433349 h 0.007 M 585.48479,15.562157 a 35.873669,35.873669 0 0 0 -30.01104,15.497151 c -6.73975,9.315489 -10.15236,20.599877 -10.15236,33.552633 0,11.584268 3.01003,20.95776 8.94655,27.860112 6.2496,7.23521 15.14789,11.050907 25.7472,11.050907 a 29.876702,29.876702 0 0 0 12.3648,-2.78956 l 0.42532,-0.20001 a 36.896962,36.896962 0 0 0 14.96117,-12.287869 50.35271,50.35271 0 0 0 8.08398,-18.479013 q 0.0259,-0.128016 0.0485,-0.256867 l 1.99387,-11.367821 a 10.183277,10.183277 0 0 0 0.0636,-3.800693 10.03729,10.03729 0 0 0 1.13567,-4.65264 c 0,-11.282314 -3.37646,-19.963541 -10.03558,-25.802611 -6.25248,-5.516381 -14.19095,-8.323719 -23.57172,-8.323719 z"
       id="path35"
       inkscape:connector-curvature="0"
       style="fill:none;stroke:#00ffff;stroke-width:1.44000006;stroke-miterlimit:4;stroke-dasharray:none;stroke-opacity:1" />
    <path
       d="m 533.95017,27.243409 h 0.007 m -0.007,0 -2.04889,13.39056 h -21.053 l -2.12227,11.669587 h 19.0262 l -1.98343,12.519576 h -19.02319 l -2.45118,13.743648 h 21.4744 l -2.11834,13.297053 h -33.85419 l 10.70298,-64.620468 h 33.45091 m 0.007,-10.08 h -33.45791 a 10.08,10.08 0 0 0 -9.94451,8.432914 l -10.70296,64.620444 a 10.08,10.08 0 0 0 9.94449,11.727107 h 33.85416 a 10.08,10.08 0 0 0 9.95445,-8.494177 l 2.11834,-13.297044 a 10.079827,10.079827 0 0 0 -2.28664,-8.1288 q -0.14328,-0.167904 -0.29308,-0.328695 a 10.051502,10.051502 0 0 0 2.5811,-5.29475 l 1.98343,-12.519547 a 10.077581,10.077581 0 0 0 -0.38726,-4.747248 10.07136,10.07136 0 0 0 4.54454,-6.975 l 1.99997,-13.07088 a 10.088338,10.088338 0 0 0 -9.90792,-11.924367 z m -0.007,20.16 z"
       id="path47"
       inkscape:connector-curvature="0"
       style="fill:none;stroke:#00ffff;stroke-width:1.44000006;stroke-miterlimit:4;stroke-dasharray:none;stroke-opacity:1" />
    <path
       d="m 699.82017,27.243956 v 4.17e-4 h 21.52169 c 4.99597,0 8.88749,1.344831 11.62224,4.054594 2.75904,2.710627 4.12595,7.096118 4.12595,13.201416 a 20.380867,20.380867 0 0 1 -3.4651,11.81147 25.303896,25.303896 0 0 1 -9.09967,8.298087 l 10.60848,27.276083 h -14.1912 L 711.3711,67.250266 h -5.72818 l -4.15098,24.635757 h -12.37467 l 10.70297,-64.642067 m 7.66135,28.407038 h 6.36592 a 12.566477,12.566477 0 0 0 7.70864,-2.262038 8.0022816,8.0022816 0 0 0 3.01755,-6.837639 c 0,-2.734891 -0.61357,-4.549406 -1.86284,-5.468731 a 9.598104,9.598104 0 0 0 -5.6105,-1.34375 h -6.78937 l -2.8294,15.911179 v 9.79e-4 m 13.86027,-38.486621 h -21.52169 a 10.07964,10.07964 0 0 0 -9.94464,8.433029 l -10.7029,64.642061 a 10.08,10.08 0 0 0 9.94464,11.726557 h 12.37474 a 10.080864,10.080864 0 0 0 9.70105,-7.340217 l 0.35381,0.91063 a 10.08,10.08 0 0 0 9.39577,6.429597 h 14.1912 a 10.08,10.08 0 0 0 9.39446,-13.733809 l -7.80987,-20.080356 a 37.3338,37.3338 0 0 0 5.25607,-6.192591 30.3192,30.3192 0 0 0 5.19562,-17.458877 c 0,-8.875396 -2.4028,-15.736219 -7.14169,-20.39184 -4.63997,-4.597617 -10.93734,-6.944112 -18.68655,-6.944112 z"
       id="path39"
       inkscape:connector-curvature="0"
       style="fill:none;stroke:#00ffff;stroke-width:1.44000006;stroke-miterlimit:4;stroke-dasharray:none;stroke-opacity:1" />
    <path
       d="m 276.3522,5.8049938 a 3.6792,3.6792 0 0 1 1.79093,0.429732 c 3.80405,2.096143 2.46327,11.2190392 -3.00691,20.3710242 -4.70116,7.88405 -10.92402,13.215722 -14.99116,13.215722 a 3.6660816,3.6660816 0 0 1 -1.78856,-0.430149 c -3.81312,-2.094646 -2.46429,-11.218493 2.99786,-20.36952 4.70065,-7.884195 10.9248,-13.2168092 14.99784,-13.2168092 m 0,-5.03999999 c -7.36678,0 -15.01539,8.44446949 -19.32682,15.67583919 -4.85352,8.131407 -6.87543,16.214897 -5.40728,21.62119 a 8.9543665,8.9543665 0 0 0 4.3118,5.746694 8.651124,8.651124 0 0 0 4.21517,1.052777 c 7.36149,0 15.0084,-8.44375 19.32,-15.674486 4.85363,-8.120456 6.87873,-16.202434 5.41445,-21.6147952 a 8.9573975,8.9573975 0 0 0 -4.30401,-5.751684 8.676605,8.676605 0 0 0 -4.22331,-1.05554199 z"
       id="path59"
       inkscape:connector-curvature="0"
       style="fill:none;stroke-width:1.88976378;stroke:#00ffff;stroke-opacity:1;stroke-miterlimit:4;stroke-dasharray:none" />
    <path
       d="m 367.23318,25.640127 a 24.613661,24.613661 0 0 1 16.92594,5.822755 q 6.61289,5.799571 6.6024,18.222538 h -13.32124 q 0,-5.941311 -2.61913,-8.345319 a 10.818893,10.818893 0 0 0 -7.52063,-2.38078 c -5.35095,0 -9.47691,2.616148 -12.42396,7.8264 a 35.962171,35.962171 0 0 0 -4.41063,17.845387 20.00304,20.00304 0 0 0 2.85461,11.150582 9.552672,9.552672 0 0 0 8.55756,4.338216 12.392942,12.392942 0 0 0 9.24152,-3.372566 20.06352,20.06352 0 0 0 4.85614,-8.605901 h -12.4018 l 2.00759,-12.069907 h 24.18513 l -2.05086,11.692699 A 40.602931,40.602931 0 0 1 381.39818,82.2683 v 0 a 27.048096,27.048096 0 0 1 -11.64751,9.384413 19.9908,19.9908 0 0 1 -7.98725,1.78937 q -11.60077,0 -18.10493,-7.54373 c -4.33917,-5.045271 -6.50673,-12.117212 -6.50673,-21.288341 q 0,-16.267219 8.22973,-27.631152 A 25.709054,25.709054 0 0 1 367.23313,25.640199 M 381.39818,82.2683 h 0.007 M 367.23315,15.560199 a 35.86644,35.86644 0 0 0 -30.01004,15.498634 c -6.73837,9.310118 -10.15135,20.595009 -10.15135,33.551179 0,11.586413 3.00934,20.960251 8.94443,27.861121 6.24816,7.23498 15.14682,11.050947 25.7472,11.050947 a 29.86033,29.86033 0 0 0 12.36829,-2.79121 l 0.41727,-0.196 a 36.818035,36.818035 0 0 0 14.82306,-12.096549 q 0.16848,-0.21723 0.32508,-0.44352 a 47.267856,47.267856 0 0 0 6.17237,-12.101194 34.881826,34.881826 0 0 0 1.83374,-6.724584 l 1.99182,-11.356085 a 10.075968,10.075968 0 0 0 0.004,-3.461429 10.036555,10.036555 0 0 0 1.14266,-4.666032 c 0,-11.279836 -3.3766,-19.96056 -10.03601,-25.80094 -6.25304,-5.517 -14.19147,-8.324352 -23.57231,-8.324352 z"
       id="path51"
       inkscape:connector-curvature="0"
       style="fill:none;stroke:#00ffff;stroke-width:1.44000006;stroke-miterlimit:4;stroke-dasharray:none;stroke-opacity:1" />
    <path
       d="m 407.33247,27.196133 v 0.0011 h 13.90752 l 7.35565,64.66667 h -12.28218 l -1.08432,-12.614097 h -16.59607 l -4.64387,12.614097 h -12.68254 l 26.02581,-64.667736 m -4.66807,41.021698 h 11.62224 L 412.09597,42.497809 402.6644,68.217865 M 421.24002,17.117233 H 407.3325 a 10.079035,10.079035 0 0 0 -9.35111,6.315537 l -26.02581,64.667721 a 10.08,10.08 0 0 0 9.3511,13.843409 h 12.68259 a 10.08,10.08 0 0 0 9.45936,-6.597557 l 2.21498,-6.01653 h 0.315 l 0.29202,3.39737 a 10.08,10.08 0 0 0 10.04296,9.216717 h 12.28218 A 10.08,10.08 0 0 0 438.6112,90.724663 l -7.35565,-64.666672 a 10.08,10.08 0 0 0 -10.01543,-8.940758 z"
       id="path55"
       inkscape:connector-curvature="0"
       style="fill:none;stroke:#00ffff;stroke-width:1.44000006;stroke-miterlimit:4;stroke-dasharray:none;stroke-opacity:1" />
    <path
       style="fill:#ffffff;fill-opacity:1;stroke-width:1.44000006;stroke:none"
       d="m 381.39814,82.268285 a 27.047102,27.047102 0 0 1 -11.64747,9.384372 19.990656,19.990656 0 0 1 -7.98728,1.78937 q -11.60073,0 -18.1049,-7.543718 c -4.33914,-5.045227 -6.50673,-12.117197 -6.50673,-21.288341 q 0,-16.267262 8.2297,-27.631109 a 25.709155,25.709155 0 0 1 21.85161,-11.338701 24.613805,24.613805 0 0 1 16.92605,5.82274 q 6.61283,5.799598 6.60227,18.222593 h -13.32121 q 0,-5.94144 -2.61917,-8.345361 a 10.818547,10.818547 0 0 0 -7.52057,-2.380795 c -5.35104,0 -9.47693,2.616163 -12.42399,7.8264 a 35.96279,35.96279 0 0 0 -4.41056,17.845401 20.003184,20.003184 0 0 0 2.85455,11.150611 9.5525568,9.5525568 0 0 0 8.55759,4.338144 12.392986,12.392986 0 0 0 9.24153,-3.372552 20.06316,20.06316 0 0 0 4.85613,-8.605857 h -12.40184 l 2.00761,-12.069936 h 24.18515 l -2.05089,11.6928 a 40.602067,40.602067 0 0 1 -6.31761,14.50404 z m 114.9984,-54.952417 -10.8197,64.547999 h -11.64648 l 9.17109,-50.025857 -20.22922,50.025877 h -9.54532 l -4.40854,-50.002736 -6.95833,50.002736 h -11.78428 l 10.77042,-64.547999 h 16.52976 l 3.70145,45.452371 18.57665,-45.572051 m 28.97191,25.107434 h 19.0263 l -1.98349,12.519533 h -19.02323 l -2.4512,13.743633 h 21.47442 l -2.11824,13.297049 h -33.85429 l 10.70302,-64.620389 h 33.45077 l -2.04886,13.390558 H 510.8482 M 407.33236,27.196158 381.30657,91.863857 h 12.68248 l 4.64391,-12.6141 h 16.59625 l 1.08432,12.6141 h 12.28216 l -7.35572,-64.666619 h -13.90752 z m -4.66803,41.021687 9.43164,-25.720027 2.19069,25.720027 z m 196.98536,14.050426 a 27.072,27.072 0 0 1 -11.6475,9.385376 20.007662,20.007662 0 0 1 -7.98723,1.78936 q -11.5992,0 -18.1049,-7.543719 c -4.33916,-5.045241 -6.5087,-12.11616 -6.5087,-21.287347 q 0,-16.267262 8.22967,-27.631109 a 25.715088,25.715088 0 0 1 21.85361,-11.338684 24.617477,24.617477 0 0 1 16.92608,5.82274 q 6.61582,5.801107 6.60123,18.223584 h -13.31712 q 0,-5.94144 -2.61916,-8.345361 a 10.823443,10.823443 0 0 0 -7.5206,-2.380796 c -5.35104,0 -9.47691,2.616164 -12.424,7.8264 a 35.941781,35.941781 0 0 0 -4.40855,17.846396 20.018707,20.018707 0 0 0 2.85048,11.149603 9.5582016,9.5582016 0 0 0 8.55962,4.338144 12.396614,12.396614 0 0 0 9.24158,-3.37153 20.092781,20.092781 0 0 0 4.85815,-8.605872 H 581.8305 l 2.0036,-12.069936 h 24.18716 l -2.05088,11.6928 a 40.787467,40.787467 0 0 1 -6.32065,14.499979 z m 24.85102,-29.941503 h 18.99808 l -1.95431,12.496421 h -19.02619 l -2.47332,13.743634 h 21.49959 l -2.12129,13.319184 h -33.85519 l 10.70303,-64.642569 h 33.45385 l -2.05088,13.38958 h -21.05405 m 39.93439,-13.41171 -26.02578,64.666699 h 12.70865 l 4.61877,-12.613093 h 16.62129 l 1.08227,12.613093 h 12.26003 l -7.35661,-64.666719 z m -4.644,40.995543 9.40859,-25.721049 2.21596,25.721064 h -11.6244 z m 45.57105,-12.56688 2.8294,-15.911193 h 6.78931 a 9.5980464,9.5980464 0 0 1 5.61053,1.343793 c 1.24926,0.919325 1.8628,2.73384 1.8628,5.468688 a 8.0022096,8.0022096 0 0 1 -3.01742,6.837696 12.566765,12.566765 0 0 1 -7.70868,2.262111 h -6.36588 z m -7.66132,-28.406503 -10.70294,64.642549 h 12.37468 l 4.15103,-24.635751 h 5.72818 l 9.57146,24.635751 h 14.1912 L 724.52528,64.609968 a 25.304645,25.304645 0 0 0 9.09971,-8.298086 20.3814,20.3814 0 0 0 3.46506,-11.811427 c 0,-6.105384 -1.36691,-10.490787 -4.12594,-13.201507 -2.73483,-2.7097 -6.62639,-4.05449 -11.62234,-4.05449 h -21.5217 v -0.001 z"
       id="path69"
       inkscape:connector-curvature="0" />
    <path
       d="m 300.77915,5.8049938 a 3.6777096,3.6777096 0 0 1 1.79056,0.429732 c 3.80402,2.096143 2.46326,11.2190392 -3.00696,20.3710242 -4.7003,7.88405 -10.92339,13.215722 -14.99096,13.215722 a 3.66696,3.66696 0 0 1 -1.78877,-0.430149 c -3.81208,-2.094646 -2.46328,-11.218493 2.99891,-20.36952 4.70104,-7.884195 10.92484,-13.2168092 14.99722,-13.2168092 m 0,-5.03999999 c -7.36574,0 -15.01435,8.44438249 -19.32609,15.67567419 -4.85361,8.131449 -6.87569,16.214961 -5.40785,21.621355 a 8.95392,8.95392 0 0 0 4.31072,5.746406 8.6527945,8.6527945 0 0 0 4.21588,1.053051 c 7.36258,0 15.00907,-8.443937 19.31999,-15.674847 4.85345,-8.120037 6.87856,-16.202023 5.4143,-21.6143992 a 8.957347,8.957347 0 0 0 -4.30402,-5.751684 8.674229,8.674229 0 0 0 -4.22294,-1.05556299 z"
       id="path63"
       inkscape:connector-curvature="0"
       style="fill:none;stroke-width:1.88976378;stroke:#00ffff;stroke-opacity:1;stroke-miterlimit:4;stroke-dasharray:none" />
    <path
       d="m 260.14459,42.341876 a 6.167167,6.167167 0 0 1 -3.00058,-0.741096 6.496027,6.496027 0 0 1 -3.0941,-4.19904 c -1.27301,-4.689144 0.69644,-12.226644 5.14054,-19.671329 5.15109,-8.6399992 12.04805,-14.4449992 17.16152,-14.4449992 a 6.173237,6.173237 0 0 1 3.00165,0.739685 6.4974455,6.4974455 0 0 1 3.0934,4.20539 c 1.26984,4.6940682 -0.70243,12.2308622 -5.14759,19.6685202 -5.15074,8.637185 -12.04523,14.44289 -17.15449,14.44289 z"
       id="path57"
       inkscape:connector-curvature="0"
       style="fill:#ffffff;stroke-width:0.72000003" />
    <path
       d="m 325.2069,5.8046268 a 3.6773856,3.6773856 0 0 1 1.79033,0.429566 c 3.80405,2.096144 2.46327,11.2190392 -3.00691,20.3710752 -4.70119,7.884057 -10.92328,13.215758 -14.99085,13.215758 a 3.6675576,3.6675576 0 0 1 -1.78887,-0.430142 c -3.81263,-2.094178 -2.46328,-11.218018 2.99888,-20.369081 4.69974,-7.884605 10.92479,-13.2171762 14.99742,-13.2171762 m 0,-5.03999999 c -7.36802,0 -15.0161,8.44491549 -19.32668,15.67664519 -4.85363,8.131529 -6.8757,16.215207 -5.40749,21.62124 a 8.9529695,8.9529695 0 0 0 4.31147,5.745816 8.653068,8.653068 0 0 0 4.21527,1.05264 c 7.36119,0 15.00806,-8.443749 19.31968,-15.674464 4.85364,-8.120528 6.87874,-16.202542 5.41445,-21.6148822 a 8.9573975,8.9573975 0 0 0 -4.30401,-5.751669 8.674819,8.674819 0 0 0 -4.22269,-1.05532599 z"
       id="path67"
       inkscape:connector-curvature="0"
       style="fill:none;stroke-width:1.88976378;stroke:#00ffff;stroke-opacity:1;stroke-miterlimit:4;stroke-dasharray:none" />
    <path
       d="m 284.57151,42.341876 a 6.168535,6.168535 0 0 1 -3.00096,-0.741096 6.4944,6.4944 0 0 1 -3.09341,-4.19904 c -1.273,-4.688439 0.69681,-12.226644 5.14091,-19.671329 5.15144,-8.6399992 12.04804,-14.4449992 17.16081,-14.4449992 a 6.17184,6.17184 0 0 1 3.0013,0.739685 6.4974455,6.4974455 0 0 1 3.0934,4.20539 c 1.26984,4.6940682 -0.70243,12.2308622 -5.14759,19.6685202 -5.14968,8.637185 -12.04416,14.44289 -17.15413,14.44289 z"
       id="path61"
       inkscape:connector-curvature="0"
       style="fill:#ffffff;stroke-width:0.72000003" />
    <path
       d="m 308.99982,42.34117 a 6.163459,6.163459 0 0 1 -3.00163,-0.741096 6.491988,6.491988 0 0 1 -3.0934,-4.19765 c -1.27336,-4.688439 0.69645,-12.226644 5.1409,-19.672035 5.14968,-8.6399992 12.04663,-14.4457042 17.1612,-14.4457042 a 6.1788385,6.1788385 0 0 1 3.00096,0.738986 6.501096,6.501096 0 0 1 3.09339,4.206096 c 1.26985,4.6947662 -0.70242,12.2308552 -5.14757,19.6685132 -5.15039,8.637184 -12.04488,14.44289 -17.1538,14.44289 z"
       id="path65"
       inkscape:connector-curvature="0"
       style="fill:#ffffff;stroke-width:0.72000003" />
    <path
       d="m 285.78192,19.021817 c 5.46064,-9.1580607 12.97668,-14.8741842 16.78777,-12.7870912 3.80404,2.096143 2.46327,11.2190392 -3.00693,20.3710382 -5.46013,9.158566 -12.97618,14.873681 -16.77972,12.78558 -3.81209,-2.094638 -2.46327,-11.218478 2.99888,-20.369527 z"
       id="path73"
       inkscape:connector-curvature="0"
       style="fill:#ffffff;stroke-width:0.72000003;fill-opacity:1" />
    <path
       d="m 261.35437,19.021817 c 5.46014,-9.1580607 12.9767,-14.8741842 16.78878,-12.7870912 3.80405,2.096143 2.46328,11.2190392 -3.00692,20.3710382 -5.46114,9.158566 -12.97667,14.873681 -16.77971,12.78558 -3.81312,-2.094638 -2.46429,-11.218478 2.99785,-20.369527 z"
       id="path71"
       inkscape:connector-curvature="0"
       style="fill:#ffffff;stroke-width:0.72000003;fill-opacity:1" />
    <path
       d="m 310.20948,19.021817 c 5.45911,-9.1585507 12.97667,-14.8741842 16.78775,-12.7875952 3.80404,2.096151 2.46327,11.2190392 -3.00693,20.3710382 -5.46113,9.158566 -12.97568,14.873681 -16.77972,12.78558 -3.81259,-2.094134 -2.46327,-11.217974 2.9989,-20.369023 z"
       id="path75"
       inkscape:connector-curvature="0"
       style="fill:#ffffff;stroke-width:0.72000003;fill-opacity:1" />
  </g>
</svg>
