<?xml version="1.0" encoding="UTF-8" standalone="no"?>
<svg
   xmlns:dc="http://purl.org/dc/elements/1.1/"
   xmlns:cc="http://creativecommons.org/ns#"
   xmlns:rdf="http://www.w3.org/1999/02/22-rdf-syntax-ns#"
   xmlns:svg="http://www.w3.org/2000/svg"
   xmlns="http://www.w3.org/2000/svg"
   xmlns:xlink="http://www.w3.org/1999/xlink"
   xmlns:sodipodi="http://sodipodi.sourceforge.net/DTD/sodipodi-0.dtd"
   xmlns:inkscape="http://www.inkscape.org/namespaces/inkscape"
   id="Calque_2"
   data-name="Calque 2"
   viewBox="0 0 1000 114"
   version="1.1"
   sodipodi:docname="system.svg"
   inkscape:version="0.92.4 (5da689c313, 2019-01-14)">
  <metadata
     id="metadata133">
    <rdf:RDF>
      <cc:Work
         rdf:about="">
        <dc:format>image/svg+xml</dc:format>
        <dc:type
           rdf:resource="http://purl.org/dc/dcmitype/StillImage" />
        <dc:title>logo</dc:title>
      </cc:Work>
    </rdf:RDF>
  </metadata>
  <defs
     id="defs131">
    <clipPath
       clipPathUnits="userSpaceOnUse"
       id="clipPath4767">
      <use
         x="0"
         y="0"
         xlink:href="#g4763"
         id="use4769"
         width="100%"
         height="100%" />
    </clipPath>
    <pattern
       patternUnits="userSpaceOnUse"
       width="401.67536"
       height="46.759807"
       patternTransform="translate(287.78804,-114.16699)"
       id="pattern4771">
      <g
         style="stroke:#ffffff;stroke-width:0.2;stroke-miterlimit:4;stroke-dasharray:none;stroke-opacity:1"
         clip-path="url(#clipPath4767)"
         id="g4765"
         transform="translate(-287.78804,114.16699)">
        <g
           style="stroke:#ffffff;stroke-width:0.2;stroke-miterlimit:4;stroke-dasharray:none;stroke-opacity:1"
           id="g4763"
           inkscape:label="Clip">
          <path
             d="m 428.8634,-113.26518 c 5.1,0 8.2,2.2 11.2,5.8 1.1,-1 2.2,-1.9 3.5,-2.7 3.1,-2 6.6,-3 10.1,-3 h 47 l -3.1,4.9 59,-0.1 5.4,9.299999 4.8,-9.199999 h 39.2 l 9.7,7.6 v -7.6 h 73.8 v 35.299999 h -68.1 l -9.9,-7.7 v 7.7 h -55.2 v 0 l -3.7,-6.1 c -3,3.4 -8.4,6.1 -17.3,6.1 h -49 c -1.6,1.6 -3.3,1.8 -5.3,1.7 l -0.5,3.2 h -18.9 l 0.4,-2.7 c -0.2,0.1 -0.4,0.3 -0.6,0.4 -4.4,2.7 -9.4,3.6 -14.1,2.5 -3.6,-0.8 -6.8,-2.8 -9.2,-5.4 -3.2,3.1 -7.5,5.2 -11.6,5.2 l -92.9,0.1 -1.5,-8.5 -3.8,8.5 h -15.5 c -4.9,0.8 -9.8,0.1 -14.2,-2.1 -6,-3.2 -10,-8.8 -10.6,-15.1 -1.1,-10.5 3,-18.899999 11.6,-24.199999 8.3,-5.1 17.1,-6.2 26.2,-3 l 1.7,0.6 0.6,-1.4 h 17.4 l 1.3,7.8 2.6,-7.9 h 79.5"
             id="path2"
             inkscape:connector-curvature="0"
             style="fill:#1f00cc;stroke:#ffffff;stroke-width:0.2;stroke-miterlimit:4;stroke-dasharray:none;stroke-opacity:1" />
          <path
             d="m 534.1634,-84.565181 h -6.2 v -12.6 h 8.8 c 4.7,0 7,1.9 7,6 0,5 -2.5,6.6 -9.6,6.6 m 43.3,-17.899999 h -7.2 l -0.2,0.4 -8.1,14.899999 -8.7,-14.899999 -0.2,-0.3 h -7.7 l 0.6,1 1.5,2.399999 c -2.4,-2.299999 -6,-3.499999 -10.7,-3.499999 h -15.5 v 19.399999 l -11.5,-18.999999 -0.2,-0.3 h -5.9 l -0.2,0.3 -13.1,21.999999 -0.6,1 h 5.1 v 0 h 11.4 v -5.2 h -6.7 l 6.7,-12.1 9.5,16.9 0.2,0.3 h 7.6 v 0 h 11.7 c 10.1,0 15.3,-4 15.3,-11.8 0,-1.4 -0.2,-2.6 -0.5,-3.7 l 9.2,15.2 0.2,0.3 h 4.5 l 0.2,-0.3 12.7,-21.999999 0.6,-1"
             id="path4-5"
             inkscape:connector-curvature="0"
             style="fill:#ffffff;stroke:#ffffff;stroke-width:0.2;stroke-miterlimit:4;stroke-dasharray:none;stroke-opacity:1" />
          <polyline
             points="334.4,11.7 333.7,11.7 333.7,25.6 316.2,11.9 316,11.7 311.4,11.7 311.4,31.1 299.9,12.1   299.7,11.7 293.8,11.7 293.6,12.1 280.5,34 279.9,35.1 286.9,35.1 286.9,35.1 296.5,35.1 296.5,29.9 289.8,29.9 296.5,17.8   306,34.7 306.2,35.1 313.8,35.1 313.8,35.1 317.6,35.1 317.6,21 335.1,34.9 335.3,35.1 339.9,35.1 339.9,11.7 334.4,11.7 "
             id="polyline6"
             transform="translate(287.7634,-114.16518)"
             style="fill:#ffffff;stroke:#ffffff;stroke-width:0.2;stroke-miterlimit:4;stroke-dasharray:none;stroke-opacity:1" />
          <path
             d="m 649.8634,-102.46518 h -13.7 c -4.8,0 -6.4,1.5 -6.4,5.899999 v 11.6 c 0,4.4 1.6,5.9 6.4,5.9 h 13.7 c 4.8,0 6.4,-1.5 6.4,-5.9 v -3.3 h -0.7 -5.4 -0.7 v 3.6 h -13.1 v -12.3 h 13.1 v 3.2 h 0.7 6.1 v -2.8 c 0,-4.499999 -1.6,-5.899999 -6.4,-5.899999"
             id="path8-1"
             inkscape:connector-curvature="0"
             style="fill:#ffffff;stroke:#ffffff;stroke-width:0.2;stroke-miterlimit:4;stroke-dasharray:none;stroke-opacity:1" />
          <polyline
             points="395.2,29.6 377.4,29.6 377.4,25.5 388.1,25.5 388.1,20.4 377.4,20.4 377.4,17 395.6,17 395.6,11.7   370.7,11.7 370.7,35.1 395.9,35.1 395.9,29.6 395.2,29.6 "
             id="polyline10"
             transform="translate(287.7634,-114.16518)"
             style="fill:#ffffff;stroke:#ffffff;stroke-width:0.2;stroke-miterlimit:4;stroke-dasharray:none;stroke-opacity:1" />
          <path
             d="m 331.5634,-90.565181 2.9,-6.5 1.3,6.5 h -4.2 m 39.9,-16.899999 -7.8,18.299999 -3.3,-18.299999 h -6.8 l -8.8,26.999999 -4.5,-26.999999 h -8.4 l -12.8,28.999999 1.9,-12.1 h -12.7 l -1,6.2 h 5.3 l -0.6,3.3 c -3,1.3 -8.2,0.9 -10.4,-3.1 -1.4,-2.5 -2.7,-8.1 3.2,-13.2 4.8,-4.199999 13.1,-4.899999 17.9,-2.699999 0,0 0.6,-3.5 1.1,-6.8 -9.2,-3.2 -16.4,-0.5 -21.2,2.4 -6.5,4 -9.6,10.199999 -8.8,18.599999 1,9.7 13.5,15.8 24.2,9.7 0.1,-0.1 0.2,-0.1 0.2,-0.1 l -1,2.3 h 7.2 l 4.5,-10 h 7.9 l 1.7,10 h 11.6 l 5.9,-18.6 3.8,18.6 h 4.6 l 8.9,-20.6 0.9,20.6 h 6.8 l -1.3,-33.499999 h -8.2"
             id="path12-2"
             inkscape:connector-curvature="0"
             style="fill:#ffffff;stroke:#ffffff;stroke-width:0.2;stroke-miterlimit:4;stroke-dasharray:none;stroke-opacity:1" />
          <polyline
             points="93.9,40.1 113,40.1 114.1,32.9 102.1,32.9 103.1,27 113.5,27 114.6,19.8 104.1,19.8 105,13.9   117,13.9 118.1,6.7 99.2,6.7 93.9,40.1 "
             id="polyline14"
             transform="translate(287.7634,-114.16518)"
             style="fill:#ffffff;stroke:#ffffff;stroke-width:0.2;stroke-miterlimit:4;stroke-dasharray:none;stroke-opacity:1" />
          <polyline
             points="187.1,17.6 182.9,6.7 175,6.7 183.1,24.3 180.6,40.1 187.5,40.1 189.6,26.1 201.9,6.7 193.9,6.7   187.1,17.6 "
             id="polyline16"
             transform="translate(287.7634,-114.16518)"
             style="fill:#ffffff;stroke:#ffffff;stroke-width:0.2;stroke-miterlimit:4;stroke-dasharray:none;stroke-opacity:1" />
          <path
             d="m 458.8634,-87.565181 c -1.8,5.5 -6.3,8.7 -9.9,7.1 -3.6,-1.6 -5,-7.4 -3.2,-13 1.8,-5.5 6.3,-8.699999 9.9,-7.099999 3.7,1.699999 5.1,7.499999 3.2,12.999999 m -2.6,-19.599999 c -7.6,-1.7 -15.5,4.3 -17.6,13.499999 -2.1,9.2 2.3,18.1 9.9,19.9 7.6,1.8 15.5,-4.3 17.6,-13.5 2.1,-9.2 -2.4,-18.099999 -9.9,-19.899999"
             id="path18-4"
             inkscape:connector-curvature="0"
             style="fill:#ffffff;stroke:#ffffff;stroke-width:0.2;stroke-miterlimit:4;stroke-dasharray:none;stroke-opacity:1" />
          <path
             d="m 425.8634,-94.065181 c -3.8,0 -4.8,0 -4.8,0 l 1.1,-6.199999 c 0,0 0.1,0 4.4,0 4.9,0 4,6.199999 -0.7,6.199999 m -0.8,13.5 c -3.8,0 -6,0 -6,0 l 1.1,-6.6 c 0,0 1.4,0 5.7,0 5.4,-0.1 5.3,6.6 -0.8,6.6 m 4,-26.699999 c -3.7,-0.1 -12.8,0 -12.8,0 h 0.1 l -5.3,33.099999 c 0,0 10.9,0 15.4,0 6.3,0 15.6,-9.3 7.2,-17 8.6,-8.999999 0,-15.999999 -4.6,-16.099999"
             id="path20-3"
             inkscape:connector-curvature="0"
             style="fill:#ffffff;stroke:#ffffff;stroke-width:0.2;stroke-miterlimit:4;stroke-dasharray:none;stroke-opacity:1" />
          <path
             d="m 481.0634,-77.265181 v -1.3 h 1.1 c 0.5,0 0.9,0.1 0.9,0.6 0,0.8 -0.8,0.7 -1.3,0.7 h -0.7 m 1.3,0.4 c 0.7,0 1.2,-0.3 1.2,-1.1 0,-0.3 -0.2,-0.7 -0.4,-0.8 -0.3,-0.2 -0.6,-0.2 -0.9,-0.2 h -1.7 v 3.9 h 0.5 v -1.7 h 0.8 l 1.1,1.7 h 0.6 l -1.2,-1.8 m -0.4,3.3 c 1.9,0 3.5,-1.5 3.5,-3.5 0,-1.9 -1.5,-3.4 -3.5,-3.4 -1.9,0 -3.5,1.5 -3.5,3.4 0,2 1.5,3.5 3.5,3.5 m 0,-0.6 c -1.6,0 -2.9,-1.2 -2.9,-2.9 0,-1.6 1.3,-2.9 2.9,-2.9 1.6,0 2.9,1.3 2.9,2.9 -0.1,1.7 -1.3,2.9 -2.9,2.9"
             id="path22-8"
             inkscape:connector-curvature="0"
             style="fill:#ffffff;stroke:#ffffff;stroke-width:0.2;stroke-miterlimit:4;stroke-dasharray:none;stroke-opacity:1" />
        </g>
      </g>
    </pattern>
    <pattern
       patternUnits="userSpaceOnUse"
       width="401.67536"
       height="46.759807"
       patternTransform="translate(302.10446,-114.16699)"
       id="pattern5870">
      <path
         d="m 141.07536,0.90181072 c 5.1,0 8.2,2.19999998 11.2,5.79999998 1.1,-1 2.2,-1.9 3.5,-2.7 3.1,-2 6.6,-3 10.1,-3 h 47 l -3.1,4.9 59,-0.1 5.4,9.2999993 4.8,-9.1999993 h 39.2 l 9.7,7.6000003 V 5.9018107 h 73.8 V 41.20181 h -68.1 l -9.9,-7.7 v 7.7 h -55.2 v 0 l -3.7,-6.1 c -3,3.4 -8.4,6.1 -17.3,6.1 h -49 c -1.6,1.6 -3.3,1.8 -5.3,1.7 l -0.5,3.2 h -18.9 l 0.4,-2.7 c -0.2,0.1 -0.4,0.3 -0.6,0.4 -4.4,2.7 -9.4,3.6 -14.1,2.5 -3.6,-0.8 -6.8,-2.8 -9.2,-5.4 -3.2,3.1 -7.5,5.2 -11.6,5.2 l -92.900004,0.1 -1.5,-8.5 -3.8,8.5 h -15.5 c -4.9,0.8 -9.8,0.1 -14.2,-2.1 -5.9999995,-3.2 -9.99999952,-8.8 -10.59999952,-15.1 -1.1,-10.5 3.00000002,-18.899999 11.59999952,-24.1999993 8.3,-5.09999998 17.1,-6.2 26.2,-3 l 1.7,0.6 0.6,-1.4 h 17.4 l 1.3,7.8 2.6,-7.89999998 h 79.500004"
         id="path5848"
         inkscape:connector-curvature="0"
         style="fill:#1f00cc" />
      <path
         d="m 246.37536,29.60181 h -6.2 v -12.6 h 8.8 c 4.7,0 7,1.9 7,6 0,5 -2.5,6.6 -9.6,6.6 m 43.3,-17.899999 h -7.2 l -0.2,0.4 -8.1,14.899999 -8.7,-14.899999 -0.2,-0.3 h -7.7 l 0.6,1 1.5,2.399999 c -2.4,-2.299999 -6,-3.499999 -10.7,-3.499999 h -15.5 V 31.10181 l -11.5,-18.999999 -0.2,-0.3 h -5.9 l -0.2,0.3 -13.1,21.999999 -0.6,1 h 5.1 v 0 h 11.4 v -5.2 h -6.7 l 6.7,-12.1 9.5,16.9 0.2,0.3 h 7.6 v 0 h 11.7 c 10.1,0 15.3,-4 15.3,-11.8 0,-1.4 -0.2,-2.6 -0.5,-3.7 l 9.2,15.2 0.2,0.3 h 4.5 l 0.2,-0.3 12.7,-21.999999 0.6,-1"
         id="path5850"
         inkscape:connector-curvature="0"
         style="fill:#ffffff" />
      <polyline
         points="334.4,11.7 333.7,11.7 333.7,25.6 316.2,11.9 316,11.7 311.4,11.7 311.4,31.1 299.9,12.1   299.7,11.7 293.8,11.7 293.6,12.1 280.5,34 279.9,35.1 286.9,35.1 286.9,35.1 296.5,35.1 296.5,29.9 289.8,29.9 296.5,17.8   306,34.7 306.2,35.1 313.8,35.1 313.8,35.1 317.6,35.1 317.6,21 335.1,34.9 335.3,35.1 339.9,35.1 339.9,11.7 334.4,11.7 "
         id="polyline5852"
         transform="translate(-0.02464352,0.00181072)"
         style="fill:#ffffff" />
      <path
         d="m 362.07536,11.701811 h -13.7 c -4.8,0 -6.4,1.5 -6.4,5.899999 v 11.6 c 0,4.4 1.6,5.9 6.4,5.9 h 13.7 c 4.8,0 6.4,-1.5 6.4,-5.9 v -3.3 h -0.7 -5.4 -0.7 v 3.6 h -13.1 v -12.3 h 13.1 v 3.2 h 0.7 6.1 v -2.8 c 0,-4.499999 -1.6,-5.899999 -6.4,-5.899999"
         id="path5854"
         inkscape:connector-curvature="0"
         style="fill:#ffffff" />
      <polyline
         points="395.2,29.6 377.4,29.6 377.4,25.5 388.1,25.5 388.1,20.4 377.4,20.4 377.4,17 395.6,17 395.6,11.7   370.7,11.7 370.7,35.1 395.9,35.1 395.9,29.6 395.2,29.6 "
         id="polyline5856"
         transform="translate(-0.02464352,0.00181072)"
         style="fill:#ffffff" />
      <path
         d="m 43.775356,23.60181 2.9,-6.5 1.3,6.5 h -4.2 m 39.9,-16.8999993 -7.8,18.2999993 -3.3,-18.2999993 h -6.8 l -8.8,26.9999993 -4.5,-26.9999993 h -8.4 l -12.8,28.9999993 1.9,-12.1 h -12.7 l -1,6.2 h 5.3 l -0.6,3.3 c -3,1.3 -8.2,0.9 -10.4,-3.1 -1.4,-2.5 -2.7,-8.1 3.2,-13.2 4.8,-4.199999 13.1,-4.899999 17.9,-2.699999 0,0 0.6,-3.5 1.1,-6.8000003 -9.2,-3.2 -16.4,-0.5 -21.2,2.4 C 8.2753565,13.701811 5.1753565,19.90181 5.9753565,28.30181 c 1,9.7 13.4999995,15.8 24.1999995,9.7 0.1,-0.1 0.2,-0.1 0.2,-0.1 l -1,2.3 h 7.2 l 4.5,-10 h 7.9 l 1.7,10 h 11.6 l 5.9,-18.6 3.8,18.6 h 4.6 l 8.9,-20.6 0.9,20.6 h 6.8 l -1.3,-33.4999993 h -8.2"
         id="path5858"
         inkscape:connector-curvature="0"
         style="fill:#ffffff" />
      <polyline
         points="93.9,40.1 113,40.1 114.1,32.9 102.1,32.9 103.1,27 113.5,27 114.6,19.8 104.1,19.8 105,13.9   117,13.9 118.1,6.7 99.2,6.7 93.9,40.1 "
         id="polyline5860"
         transform="translate(-0.02464352,0.00181072)"
         style="fill:#ffffff" />
      <polyline
         points="187.1,17.6 182.9,6.7 175,6.7 183.1,24.3 180.6,40.1 187.5,40.1 189.6,26.1 201.9,6.7 193.9,6.7   187.1,17.6 "
         id="polyline5862"
         transform="translate(-0.02464352,0.00181072)"
         style="fill:#ffffff" />
      <path
         d="m 171.07536,26.60181 c -1.8,5.5 -6.3,8.7 -9.9,7.1 -3.6,-1.6 -5,-7.4 -3.2,-13 1.8,-5.5 6.3,-8.699999 9.9,-7.099999 3.7,1.699999 5.1,7.499999 3.2,12.999999 m -2.6,-19.5999993 c -7.6,-1.7 -15.5,4.3000003 -17.6,13.4999993 -2.1,9.2 2.3,18.1 9.9,19.9 7.6,1.8 15.5,-4.3 17.6,-13.5 2.1,-9.2 -2.4,-18.0999993 -9.9,-19.8999993"
         id="path5864"
         inkscape:connector-curvature="0"
         style="fill:#ffffff" />
      <path
         d="m 138.07536,20.10181 c -3.8,0 -4.8,0 -4.8,0 l 1.1,-6.199999 c 0,0 0.1,0 4.4,0 4.9,0 4,6.199999 -0.7,6.199999 m -0.8,13.5 c -3.8,0 -6,0 -6,0 l 1.1,-6.6 c 0,0 1.4,0 5.7,0 5.4,-0.1 5.3,6.6 -0.8,6.6 m 4,-26.6999993 c -3.7,-0.1 -12.8,0 -12.8,0 h 0.1 l -5.3,33.0999993 c 0,0 10.9,0 15.4,0 6.3,0 15.6,-9.3 7.2,-17 8.6,-8.999999 0,-15.9999993 -4.6,-16.0999993"
         id="path5866"
         inkscape:connector-curvature="0"
         style="fill:#ffffff" />
      <path
         d="m 193.27536,36.90181 v -1.3 h 1.1 c 0.5,0 0.9,0.1 0.9,0.6 0,0.8 -0.8,0.7 -1.3,0.7 h -0.7 m 1.3,0.4 c 0.7,0 1.2,-0.3 1.2,-1.1 0,-0.3 -0.2,-0.7 -0.4,-0.8 -0.3,-0.2 -0.6,-0.2 -0.9,-0.2 h -1.7 v 3.9 h 0.5 v -1.7 h 0.8 l 1.1,1.7 h 0.6 l -1.2,-1.8 m -0.4,3.3 c 1.9,0 3.5,-1.5 3.5,-3.5 0,-1.9 -1.5,-3.4 -3.5,-3.4 -1.9,0 -3.5,1.5 -3.5,3.4 0,2 1.5,3.5 3.5,3.5 m 0,-0.6 c -1.6,0 -2.9,-1.2 -2.9,-2.9 0,-1.6 1.3,-2.9 2.9,-2.9 1.6,0 2.9,1.3 2.9,2.9 -0.1,1.7 -1.3,2.9 -2.9,2.9"
         id="path5868"
         inkscape:connector-curvature="0"
         style="fill:#ffffff" />
    </pattern>
  </defs>
  <sodipodi:namedview
     pagecolor="#ffffff"
     bordercolor="#666666"
     borderopacity="1"
     objecttolerance="10"
     gridtolerance="10"
     guidetolerance="10"
     inkscape:pageopacity="0"
     inkscape:pageshadow="2"
     inkscape:window-width="1920"
     inkscape:window-height="1017"
     id="namedview129"
     showgrid="false"
     inkscape:pagecheckerboard="true"
     inkscape:zoom="0.70710682"
     inkscape:cx="477.72351"
     inkscape:cy="57"
     inkscape:window-x="-8"
     inkscape:window-y="-8"
     inkscape:window-maximized="1"
     inkscape:current-layer="Calque_2" />
  <title
     id="title2">logo</title>
  <g
     id="g862"
     transform="matrix(1.3207908,0,0,1.4232632,-148.82515,-21.88054)">
    <path
       style="fill:none;stroke:#00ffff;stroke-width:1.88976383;stroke-miterlimit:4;stroke-dasharray:none;stroke-opacity:1"
       inkscape:connector-curvature="0"
       id="path2-5"
       d="m 422.98526,26.275334 c 6.34522,0 10.20211,2.737156 13.93459,7.216132 1.36858,-1.24416 2.73716,-2.363904 4.35456,-3.359232 3.8569,-2.488324 8.21146,-3.732484 12.56602,-3.732484 h 58.47552 l -3.8569,6.096388 73.40544,-0.124416 6.71847,11.570688 5.97197,-11.446272 H 643.326 l 12.06835,9.455616 v -9.455616 h 91.81901 v 43.918848 h -84.7273 l -12.31718,-9.580032 v 9.580032 h -68.67763 v 0 l -4.6034,-7.589376 c -3.73248,4.230144 -10.45094,7.589376 -21.52396,7.589376 h -60.96384 c -1.99066,1.990656 -4.10573,2.239488 -6.59405,2.115072 l -0.62208,3.981312 h -23.51463 l 0.49767,-3.359232 c -0.24883,0.124416 -0.49767,0.373248 -0.7465,0.497664 -5.4743,3.359232 -11.6951,4.478976 -17.54265,3.1104 -4.47898,-0.995328 -8.46029,-3.483648 -11.44628,-6.718464 -3.98131,3.856896 -9.3312,6.469632 -14.43225,6.469632 l -115.58248,0.124416 -1.86624,-10.57536 -4.7278,10.57536 h -19.28448 c -6.09639,0.995328 -12.19277,0.124416 -17.66708,-2.612736 -7.46496,-3.981312 -12.4416,-10.948608 -13.18809,-18.786816 -1.36858,-13.06368 3.73248,-23.514624 14.43225,-30.108672 10.32653,-6.34522 21.27514,-7.713796 32.597,-3.732484 l 2.11507,0.7465 0.74649,-1.741828 h 21.64839 l 1.61741,9.704452 3.23481,-9.828868 h 98.91073" />
    <path
       style="fill:#ffffff;stroke-width:1.24416006"
       inkscape:connector-curvature="0"
       id="path4-56"
       d="m 553.99531,61.98273 h -7.71379 V 46.306314 h 10.94861 c 5.84755,0 8.70912,2.363904 8.70912,7.46496 0,6.2208 -3.1104,8.211456 -11.94394,8.211456 m 53.87213,-22.270464 h -8.95795 l -0.24884,0.497664 -10.07769,18.537984 -10.82419,-18.537984 -0.24884,-0.373248 h -9.58003 l 0.7465,1.24416 1.86624,2.985984 c -2.98599,-2.861568 -7.46496,-4.35456 -13.31251,-4.35456 H 537.94565 V 63.84897 l -14.30784,-23.63904 -0.24884,-0.373248 h -7.34054 l -0.24883,0.373248 -16.2985,27.37152 -0.74649,1.24416 h 6.34521 v 0 h 14.18343 v -6.469632 h -8.33588 l 8.33588,-15.054336 11.81952,21.026304 0.24883,0.373248 h 9.45561 v 0 h 14.55668 c 12.56601,0 19.03564,-4.97664 19.03564,-14.681088 0,-1.741824 -0.24883,-3.234816 -0.62208,-4.603392 l 11.44628,18.911232 0.24883,0.373248 h 5.59872 l 0.24883,-0.373248 15.80083,-27.37152 0.7465,-1.24416" />
    <path
       transform="matrix(1.24416,0,0,1.24416,247.43428,25.15559)"
       style="fill:#ffffff"
       d="m 334.4,11.7 h -0.7 V 25.6 L 316.2,11.9 316,11.7 h -4.6 v 19.4 l -11.5,-19 -0.2,-0.4 h -5.9 l -0.2,0.4 -13.1,21.9 -0.6,1.1 h 7 v 0 h 9.6 v -5.2 h -6.7 l 6.7,-12.1 9.5,16.9 0.2,0.4 h 7.6 v 0 h 3.8 V 21 l 17.5,13.9 0.2,0.2 h 4.6 V 11.7 h -5.5"
       id="polyline6-5"
       inkscape:connector-curvature="0" />
    <path
       style="fill:#ffffff;stroke-width:1.24416006"
       inkscape:connector-curvature="0"
       id="path8-8"
       d="m 697.94462,39.712266 h -17.04499 c -5.97197,0 -7.96262,1.86624 -7.96262,7.340544 v 14.432256 c 0,5.474304 1.99065,7.340544 7.96262,7.340544 h 17.04499 c 5.97197,0 7.96263,-1.86624 7.96263,-7.340544 v -4.105728 h -0.87092 -6.71846 -0.87091 v 4.478976 h -16.2985 V 46.555146 h 16.2985 v 3.981312 h 0.87091 7.58938 V 47.05281 c 0,-5.59872 -1.99066,-7.340544 -7.96263,-7.340544" />
    <path
       transform="matrix(1.24416,0,0,1.24416,247.43428,25.15559)"
       style="fill:#ffffff"
       d="m 395.2,29.6 h -17.8 v -4.1 h 10.7 V 20.4 H 377.4 V 17 h 18.2 v -5.3 h -24.9 v 23.4 h 25.2 v -5.5 h -0.7"
       id="polyline10-8"
       inkscape:connector-curvature="0" />
    <path
       style="fill:#ffffff;stroke-width:1.24416006"
       inkscape:connector-curvature="0"
       id="path12-24"
       d="m 301.92848,54.51777 3.60807,-8.08704 1.61741,8.08704 h -5.22548 m 49.64199,-21.026304 -9.70445,22.768128 -4.10573,-22.768128 H 329.3 l -10.9486,33.59232 -5.59872,-33.59232 h -10.45095 l -15.92525,36.08064 2.36391,-15.054336 h -15.80083 l -1.24416,7.713792 h 6.59404 l -0.74649,4.105728 c -3.73248,1.617408 -10.20211,1.119744 -12.93927,-3.856896 -1.74182,-3.1104 -3.35923,-10.077696 3.98132,-16.422912 5.97196,-5.225472 16.29849,-6.096384 22.27046,-3.359232 0,0 0.7465,-4.35456 1.36858,-8.460288 -11.44628,-3.981312 -20.40423,-0.62208 -26.3762,2.985984 -8.08704,4.97664 -11.94393,12.690432 -10.9486,23.141376 1.24416,12.068352 16.79616,19.657728 30.10867,12.068352 0.12441,-0.124416 0.24883,-0.124416 0.24883,-0.124416 l -1.24416,2.861568 h 8.95795 l 5.59872,-12.4416 h 9.82887 l 2.11507,12.4416 h 14.43225 l 7.34055,-23.141376 4.72781,23.141376 h 5.72313 l 11.07303,-25.629696 1.11974,25.629696 h 8.46029 l -1.61741,-41.67936 h -10.20211" />
    <path
       transform="matrix(1.24416,0,0,1.24416,247.43428,25.15559)"
       style="fill:#ffffff"
       d="M 93.9,40.1 H 113 l 1.1,-7.2 h -12 l 1,-5.9 h 10.4 l 1.1,-7.2 h -10.5 l 0.9,-5.9 h 12 l 1.1,-7.2 H 99.2 l -5.3,33.4"
       id="polyline14-4"
       inkscape:connector-curvature="0" />
    <path
       transform="matrix(1.24416,0,0,1.24416,247.43428,25.15559)"
       style="fill:#ffffff"
       d="M 187.1,17.6 182.9,6.7 H 175 l 8.1,17.6 -2.5,15.8 h 6.9 l 2.1,-14 12.3,-19.4 h -8 l -6.8,10.9"
       id="polyline16-1"
       inkscape:connector-curvature="0" />
    <path
       style="fill:#ffffff;stroke-width:1.24416006"
       inkscape:connector-curvature="0"
       id="path18-2"
       d="m 460.31006,58.25025 c -2.23949,6.84288 -7.83821,10.824192 -12.31718,8.833536 -4.47898,-1.990656 -6.2208,-9.206784 -3.98131,-16.17408 2.23948,-6.84288 7.8382,-10.824192 12.31718,-8.833536 4.60339,2.115072 6.34522,9.3312 3.98131,16.17408 m -3.23481,-24.385536 c -9.45562,-2.115072 -19.28448,5.349888 -21.89722,16.79616 -2.61274,11.446272 2.86157,22.519296 12.31718,24.758784 9.45562,2.239488 19.28448,-5.349888 21.89722,-16.79616 2.61274,-11.446272 -2.98598,-22.519296 -12.31718,-24.758784" />
    <path
       style="fill:#ffffff;stroke-width:1.24416006"
       inkscape:connector-curvature="0"
       id="path20-9"
       d="m 419.25278,50.16321 c -4.72781,0 -5.97197,0 -5.97197,0 l 1.36858,-7.713792 c 0,0 0.12442,0 5.4743,0 6.09639,0 4.97664,7.713792 -0.87091,7.713792 m -0.99533,16.79616 c -4.7278,0 -7.46496,0 -7.46496,0 l 1.36858,-8.211456 c 0,0 1.74182,0 7.09171,0 6.71847,-0.124416 6.59405,8.211456 -0.99533,8.211456 m 4.97664,-33.219072 c -4.60339,-0.124416 -15.92524,0 -15.92524,0 h 0.12441 l -6.59405,41.181696 c 0,0 13.56135,0 19.16007,0 7.83821,0 19.40889,-11.570688 8.95795,-21.15072 10.69978,-11.19744 0,-19.90656 -5.72314,-20.030976" />
    <path
       style="fill:#ffffff;stroke-width:1.24416006"
       inkscape:connector-curvature="0"
       id="path22-5"
       d="M 487.93041,71.065098 V 69.44769 h 1.36858 c 0.62208,0 1.11974,0.124416 1.11974,0.746496 0,0.995328 -0.99532,0.870912 -1.6174,0.870912 h -0.87092 m 1.61741,0.497664 c 0.87091,0 1.49299,-0.373248 1.49299,-1.368576 0,-0.373248 -0.24883,-0.870912 -0.49766,-0.995328 -0.37325,-0.248832 -0.7465,-0.248832 -1.11974,-0.248832 h -2.11508 v 4.852224 h 0.62208 v -2.115072 h 0.99533 l 1.36858,2.115072 h 0.74649 l -1.49299,-2.239488 m -0.49766,4.105728 c 2.3639,0 4.35456,-1.86624 4.35456,-4.35456 0,-2.363904 -1.86624,-4.230144 -4.35456,-4.230144 -2.36391,0 -4.35456,1.86624 -4.35456,4.230144 0,2.48832 1.86624,4.35456 4.35456,4.35456 m 0,-0.746496 c -1.99066,0 -3.60807,-1.492992 -3.60807,-3.608064 0,-1.990656 1.61741,-3.608064 3.60807,-3.608064 1.99065,0 3.60806,1.617408 3.60806,3.608064 -0.12441,2.115072 -1.61741,3.608064 -3.60806,3.608064" />
  </g>
</svg>
