<?xml version="1.0" encoding="UTF-8" standalone="no"?>
<svg
   xmlns:dc="http://purl.org/dc/elements/1.1/"
   xmlns:cc="http://creativecommons.org/ns#"
   xmlns:rdf="http://www.w3.org/1999/02/22-rdf-syntax-ns#"
   xmlns:svg="http://www.w3.org/2000/svg"
   xmlns="http://www.w3.org/2000/svg"
   xmlns:sodipodi="http://sodipodi.sourceforge.net/DTD/sodipodi-0.dtd"
   xmlns:inkscape="http://www.inkscape.org/namespaces/inkscape"
   width="146"
   height="20"
   viewBox="0 0 146 20"
   version="1.1"
   id="svg3739"
   sodipodi:docname="system.svg"
   inkscape:version="0.92.4 (5da689c313, 2019-01-14)">
  <metadata
     id="metadata3743">
    <rdf:RDF>
      <cc:Work
         rdf:about="">
        <dc:format>image/svg+xml</dc:format>
        <dc:type
           rdf:resource="http://purl.org/dc/dcmitype/StillImage" />
        <dc:title>system</dc:title>
      </cc:Work>
    </rdf:RDF>
  </metadata>
  <sodipodi:namedview
     pagecolor="#ffffff"
     bordercolor="#666666"
     borderopacity="1"
     objecttolerance="10"
     gridtolerance="10"
     guidetolerance="10"
     inkscape:pageopacity="0"
     inkscape:pageshadow="2"
     inkscape:window-width="1920"
     inkscape:window-height="1137"
     id="namedview3741"
     showgrid="false"
     inkscape:zoom="7.5183342"
     inkscape:cx="93.441956"
     inkscape:cy="8.1535411"
     inkscape:window-x="-8"
     inkscape:window-y="344"
     inkscape:window-maximized="1"
     inkscape:current-layer="svg3739"
     scale-x="2" />
  <!-- Generator: Sketch 45 (43475) - http://www.bohemiancoding.com/sketch -->
  <title
     id="title3729">system</title>
  <desc
     id="desc3731">Created with Sketch.</desc>
  <defs
     id="defs3733" />
  <g
     inkscape:groupmode="layer"
     id="layer1"
     inkscape:label="Layer 1"
     transform="translate(0,2)" />
  <g
     inkscape:groupmode="layer"
     id="layer2"
     inkscape:label="Layer 2"
     transform="translate(0,2)" />
  <g
     aria-label="MASTERSYSTEM"
     style="font-style:normal;font-variant:normal;font-weight:normal;font-stretch:normal;font-size:21.33333397px;line-height:1.25;font-family:Arial;-inkscape-font-specification:Arial;letter-spacing:0px;word-spacing:0px;fill:none;fill-opacity:1;stroke:#ffffff;stroke-width:0.5;stroke-miterlimit:4;stroke-dasharray:none;stroke-opacity:1"
     id="text4643">
    <path
       d="M 2.4170278,16.27577 V 3.8682176 h 2.4713543 l 2.9368491,8.7851564 q 0.40625,1.227214 0.5924479,1.836589 0.2115885,-0.677084 0.6601563,-1.988933 L 12.048539,3.8682176 h 2.208984 V 16.27577 H 12.674841 V 5.8910042 L 9.0693718,16.27577 H 7.588252 L 3.9997102,5.7132698 V 16.27577 Z"
       style="font-size:17.33333397px;fill:none;fill-opacity:1;stroke:#ffffff;stroke-width:0.5;stroke-miterlimit:4;stroke-dasharray:none;stroke-opacity:1"
       id="path5306"
       inkscape:connector-curvature="0" />
    <path
       d="M 15.560908,16.27577 20.325882,3.8682176 h 1.768881 L 27.172888,16.27577 h -1.870443 l -1.447266,-3.757812 h -5.188151 l -1.36263,3.757812 z m 3.580079,-5.095052 h 4.20638 L 22.052445,7.7445199 q -0.592448,-1.5657553 -0.880208,-2.5729168 -0.23698,1.1933594 -0.66862,2.3697918 z"
       style="font-size:17.33333397px;fill:none;fill-opacity:1;stroke:#ffffff;stroke-width:0.5;stroke-miterlimit:4;stroke-dasharray:none;stroke-opacity:1"
       id="path5308"
       inkscape:connector-curvature="0" />
    <path
       d="m 27.943071,12.289442 1.548828,-0.135417 q 0.110026,0.93099 0.507812,1.531901 0.40625,0.592448 1.252605,0.964844 0.846354,0.363932 1.904297,0.363932 0.939453,0 1.658854,-0.279296 0.719401,-0.279297 1.066406,-0.761719 0.355469,-0.490886 0.355469,-1.066407 0,-0.583984 -0.338542,-1.015625 Q 35.560259,11.451551 34.781613,11.155327 34.282264,10.960666 32.572628,10.554416 30.862993,10.139702 30.177446,9.7757699 29.288774,9.3102751 28.84867,8.6247282 28.417029,7.9307178 28.417029,7.0759001 q 0,-0.9394532 0.533203,-1.7519532 0.533203,-0.8209636 1.557292,-1.2441407 1.024089,-0.4231771 2.276693,-0.4231771 1.379557,0 2.429036,0.4485677 1.057943,0.4401042 1.625,1.3033855 0.567058,0.8632813 0.609375,1.9550782 L 35.87341,7.4821501 Q 35.746456,6.3057177 35.010128,5.7048063 34.282264,5.1038948 32.851925,5.1038948 q -1.489583,0 -2.17513,0.5501302 -0.677084,0.5416667 -0.677084,1.311849 0,0.6686198 0.482422,1.1002605 0.473959,0.4316406 2.471355,0.8886719 2.005859,0.4485677 2.750651,0.7871094 1.083333,0.4993492 1.599609,1.2695312 0.516276,0.761719 0.516276,1.760417 0,0.990234 -0.567057,1.870443 -0.567057,0.871744 -1.633464,1.36263 -1.057942,0.482422 -2.386719,0.482422 -1.684244,0 -2.826823,-0.490886 -1.134114,-0.490885 -1.785807,-1.472656 -0.643229,-0.990234 -0.677083,-2.234375 z"
       style="font-size:17.33333397px;fill:none;fill-opacity:1;stroke:#ffffff;stroke-width:0.5;stroke-miterlimit:4;stroke-dasharray:none;stroke-opacity:1"
       id="path5310"
       inkscape:connector-curvature="0" />
    <path
       d="M 43.236691,16.27577 V 5.3324104 H 39.1488 V 3.8682176 h 9.834636 V 5.3324104 H 44.878618 V 16.27577 Z"
       style="font-size:17.33333397px;fill:none;fill-opacity:1;stroke:#ffffff;stroke-width:0.5;stroke-miterlimit:4;stroke-dasharray:none;stroke-opacity:1"
       id="path5312"
       inkscape:connector-curvature="0" />
    <path
       d="M 50.709999,16.27577 V 3.8682176 h 8.971355 v 1.4641928 h -7.329428 v 3.8001304 h 6.863933 V 10.58827 h -6.863933 v 4.223307 h 7.617188 v 1.464193 z"
       style="font-size:17.33333397px;fill:none;fill-opacity:1;stroke:#ffffff;stroke-width:0.5;stroke-miterlimit:4;stroke-dasharray:none;stroke-opacity:1"
       id="path5314"
       inkscape:connector-curvature="0" />
    <path
       d="M 62.279661,16.27577 V 3.8682176 h 5.501302 q 1.658854,0 2.522135,0.3385417 0.863282,0.3300782 1.379558,1.1764324 0.516276,0.8463542 0.516276,1.8704427 0,1.3203126 -0.854818,2.2259116 -0.854818,0.905599 -2.640625,1.151042 0.651693,0.313151 0.990234,0.617838 0.719401,0.660157 1.362631,1.650391 l 2.158203,3.376953 h -2.065104 l -1.641928,-2.58138 q -0.719401,-1.117188 -1.184895,-1.709636 -0.465495,-0.592448 -0.837891,-0.829427 -0.363932,-0.236979 -0.744792,-0.330078 -0.279297,-0.05924 -0.914062,-0.05924 h -1.904297 v 5.509766 z m 1.641927,-6.9316407 h 3.529297 q 1.125651,0 1.760416,-0.2285156 0.634766,-0.2369792 0.964844,-0.7447917 0.330078,-0.5162761 0.330078,-1.1171876 0,-0.8802083 -0.643229,-1.4472656 -0.634765,-0.5670574 -2.014323,-0.5670574 h -3.927083 z"
       style="font-size:17.33333397px;fill:none;fill-opacity:1;stroke:#ffffff;stroke-width:0.5;stroke-miterlimit:4;stroke-dasharray:none;stroke-opacity:1"
       id="path5316"
       inkscape:connector-curvature="0" />
    <path
       d="m 74.221715,12.289442 1.548829,-0.135417 q 0.110026,0.93099 0.507812,1.531901 0.40625,0.592448 1.252604,0.964844 0.846354,0.363932 1.904297,0.363932 0.939453,0 1.658854,-0.279296 0.719401,-0.279297 1.066407,-0.761719 0.355468,-0.490886 0.355468,-1.066407 0,-0.583984 -0.338541,-1.015625 -0.338542,-0.440104 -1.117188,-0.736328 -0.499349,-0.194661 -2.208984,-0.600911 -1.709636,-0.414714 -2.395183,-0.7786461 -0.888672,-0.4654948 -1.328776,-1.1510417 -0.43164,-0.6940104 -0.43164,-1.5488281 0,-0.9394532 0.533203,-1.7519532 0.533203,-0.8209636 1.557292,-1.2441407 1.024088,-0.4231771 2.276692,-0.4231771 1.379558,0 2.429037,0.4485677 1.057943,0.4401042 1.625,1.3033855 0.567057,0.8632813 0.609375,1.9550782 L 82.152054,7.4821501 Q 82.025101,6.3057177 81.288773,5.7048063 80.560908,5.1038948 79.13057,5.1038948 q -1.489584,0 -2.175131,0.5501302 -0.677083,0.5416667 -0.677083,1.311849 0,0.6686198 0.482422,1.1002605 0.473958,0.4316406 2.471354,0.8886719 2.00586,0.4485677 2.750651,0.7871094 1.083334,0.4993492 1.59961,1.2695312 0.516276,0.761719 0.516276,1.760417 0,0.990234 -0.567058,1.870443 -0.567057,0.871744 -1.633463,1.36263 -1.057943,0.482422 -2.386719,0.482422 -1.684245,0 -2.826823,-0.490886 -1.134115,-0.490885 -1.785807,-1.472656 -0.64323,-0.990234 -0.677084,-2.234375 z"
       style="font-size:17.33333397px;fill:none;fill-opacity:1;stroke:#ffffff;stroke-width:0.5;stroke-miterlimit:4;stroke-dasharray:none;stroke-opacity:1"
       id="path5318"
       inkscape:connector-curvature="0" />
    <path
       d="M 89.853877,16.27577 V 11.019911 L 85.071976,3.8682176 h 1.997396 l 2.445963,3.7408856 q 0.677084,1.0494792 1.261068,2.0989584 0.558594,-0.9733073 1.354167,-2.1920574 l 2.403646,-3.6477866 h 1.91276 l -4.951172,7.1516934 v 5.255859 z"
       style="font-size:17.33333397px;fill:none;fill-opacity:1;stroke:#ffffff;stroke-width:0.5;stroke-miterlimit:4;stroke-dasharray:none;stroke-opacity:1"
       id="path5320"
       inkscape:connector-curvature="0" />
    <path
       d="m 97.377965,12.289442 1.548829,-0.135417 q 0.110026,0.93099 0.507812,1.531901 0.40625,0.592448 1.252604,0.964844 0.84635,0.363932 1.9043,0.363932 0.93945,0 1.65885,-0.279296 0.7194,-0.279297 1.06641,-0.761719 0.35547,-0.490886 0.35547,-1.066407 0,-0.583984 -0.33855,-1.015625 -0.33854,-0.440104 -1.11718,-0.736328 -0.49935,-0.194661 -2.20899,-0.600911 -1.70963,-0.414714 -2.39518,-0.7786461 -0.888672,-0.4654948 -1.328776,-1.1510417 -0.43164,-0.6940104 -0.43164,-1.5488281 0,-0.9394532 0.533203,-1.7519532 0.533203,-0.8209636 1.557292,-1.2441407 1.024091,-0.4231771 2.276691,-0.4231771 1.37956,0 2.42904,0.4485677 1.05794,0.4401042 1.625,1.3033855 0.56706,0.8632813 0.60937,1.9550782 l -1.57422,0.1184896 q -0.12695,-1.1764324 -0.86328,-1.7773438 -0.72786,-0.6009115 -2.1582,-0.6009115 -1.48958,0 -2.17513,0.5501302 -0.677084,0.5416667 -0.677084,1.311849 0,0.6686198 0.482422,1.1002605 0.473962,0.4316406 2.471352,0.8886719 2.00586,0.4485677 2.75065,0.7871094 1.08334,0.4993492 1.59961,1.2695312 0.51628,0.761719 0.51628,1.760417 0,0.990234 -0.56706,1.870443 -0.56706,0.871744 -1.63346,1.36263 -1.05794,0.482422 -2.38672,0.482422 -1.68425,0 -2.826824,-0.490886 -1.134115,-0.490885 -1.785807,-1.472656 -0.64323,-0.990234 -0.677084,-2.234375 z"
       style="font-size:17.33333397px;fill:none;fill-opacity:1;stroke:#ffffff;stroke-width:0.5;stroke-miterlimit:4;stroke-dasharray:none;stroke-opacity:1"
       id="path5322"
       inkscape:connector-curvature="0" />
    <path
       d="M 112.67159,16.27577 V 5.3324104 h -4.0879 V 3.8682176 h 9.83464 v 1.4641928 h -4.10482 V 16.27577 Z"
       style="font-size:17.33333397px;fill:none;fill-opacity:1;stroke:#ffffff;stroke-width:0.5;stroke-miterlimit:4;stroke-dasharray:none;stroke-opacity:1"
       id="path5324"
       inkscape:connector-curvature="0" />
    <path
       d="M 120.1449,16.27577 V 3.8682176 h 8.97135 v 1.4641928 h -7.32943 v 3.8001304 h 6.86394 V 10.58827 h -6.86394 v 4.223307 h 7.61719 v 1.464193 z"
       style="font-size:17.33333397px;fill:none;fill-opacity:1;stroke:#ffffff;stroke-width:0.5;stroke-miterlimit:4;stroke-dasharray:none;stroke-opacity:1"
       id="path5326"
       inkscape:connector-curvature="0" />
    <path
       d="M 131.63839,16.27577 V 3.8682176 h 2.47135 l 2.93685,8.7851564 q 0.40625,1.227214 0.59245,1.836589 0.21159,-0.677084 0.66015,-1.988933 l 2.97071,-8.6328124 h 2.20898 V 16.27577 H 141.8962 V 5.8910042 L 138.29073,16.27577 h -1.48112 L 133.22107,5.7132698 V 16.27577 Z"
       style="font-size:17.33333397px;fill:none;fill-opacity:1;stroke:#ffffff;stroke-width:0.5;stroke-miterlimit:4;stroke-dasharray:none;stroke-opacity:1"
       id="path5328"
       inkscape:connector-curvature="0" />
  </g>
</svg>
