<?xml version="1.0" encoding="UTF-8" standalone="no"?>
<svg
   xmlns:dc="http://purl.org/dc/elements/1.1/"
   xmlns:cc="http://creativecommons.org/ns#"
   xmlns:rdf="http://www.w3.org/1999/02/22-rdf-syntax-ns#"
   xmlns:svg="http://www.w3.org/2000/svg"
   xmlns="http://www.w3.org/2000/svg"
   xmlns:sodipodi="http://sodipodi.sourceforge.net/DTD/sodipodi-0.dtd"
   xmlns:inkscape="http://www.inkscape.org/namespaces/inkscape"
   viewBox="0 0 1000 114"
   version="1.1"
   id="svg268"
   sodipodi:docname="system.svg"
   inkscape:version="0.92.4 (5da689c313, 2019-01-14)">
  <metadata
     id="metadata274">
    <rdf:RDF>
      <cc:Work
         rdf:about="">
        <dc:format>image/svg+xml</dc:format>
        <dc:type
           rdf:resource="http://purl.org/dc/dcmitype/StillImage" />
        <dc:title>logo</dc:title>
      </cc:Work>
    </rdf:RDF>
  </metadata>
  <defs
     id="defs272" />
  <sodipodi:namedview
     pagecolor="#ffffff"
     bordercolor="#666666"
     borderopacity="1"
     objecttolerance="10"
     gridtolerance="10"
     guidetolerance="10"
     inkscape:pageopacity="0"
     inkscape:pageshadow="2"
     inkscape:window-width="1920"
     inkscape:window-height="1017"
     id="namedview270"
     showgrid="false"
     inkscape:pagecheckerboard="true"
     inkscape:zoom="1.136"
     inkscape:cx="437.01389"
     inkscape:cy="57"
     inkscape:window-x="1912"
     inkscape:window-y="-8"
     inkscape:window-maximized="1"
     inkscape:current-layer="svg268" />
  <title
     id="title2">logo</title>
  <g
     id="g1337"
     transform="translate(9.6830986,0.88028169)"
     inkscape:export-filename="D:\Redman\Desktop\logo-png\arcade.png"
     inkscape:export-xdpi="201.32001"
     inkscape:export-ydpi="201.32001">
    <path
       d="m 288.79916,29.819155 c 0.88,0 1.32,1.3 1.32,3.89 0,2.59 -0.44,3.89 -1.32,3.89 h -18.12 c -0.82,0 -1.24,-1.29 -1.24,-3.89 0,-2.6 0.41,-3.89 1.24,-3.89 h 18.12 m 0,-6.999996 h -18.12 a 7.73,7.73 0 0 0 -5.49,2.29 c -2.45,2.45 -2.76,5.889996 -2.75,8.619996 0,10.09 6.31,10.87 8.24,10.87 h 18.12 c 1.39,0 8.32,-0.52 8.32,-10.89 0,-10.369996 -6.93,-10.889996 -8.32,-10.889996 z"
       id="path11"
       inkscape:connector-curvature="0"
       style="fill:none;fill-opacity:1;stroke:#00ffff;stroke-opacity:1" />
    <path
       d="m 319.81916,29.819155 c 0.88,0 1.32,1.3 1.32,3.89 0,2.59 -0.44,3.89 -1.32,3.89 h -18.12 c -0.82,0 -1.24,-1.3 -1.24,-3.89 0,-2.59 0.42,-3.89 1.24,-3.89 h 18.12 m 0,-6.999996 h -18.12 c -1.93,0 -8.24,0.79 -8.24,10.889996 0,10.1 6.31,10.89 8.24,10.89 h 18.12 c 1.39,0 8.32,-0.52 8.32,-10.89 0,-10.369996 -6.93,-10.889996 -8.32,-10.889996 z"
       id="path13"
       inkscape:connector-curvature="0"
       style="fill:none;fill-opacity:1;stroke:#00ffff;stroke-opacity:1" />
    <path
       d="m 361.15916,29.819155 c 0.88,0 1.32,1.3 1.33,3.89 0.01,2.59 -0.44,3.89 -1.33,3.89 h -18.08 c -0.83,0 -1.24,-1.29 -1.25,-3.89 -0.01,-2.6 0.41,-3.89 1.25,-3.89 h 18.08 m 0,-6.999996 h -18.08 a 7.73,7.73 0 0 0 -5.49,2.29 c -2.45,2.45 -2.76,5.889996 -2.76,8.619996 0,10.09 6.32,10.87 8.25,10.87 h 18.08 a 7.8,7.8 0 0 0 5.55,-2.31 c 2.47,-2.47 2.78,-5.89 2.78,-8.59 0,-10.349996 -6.94,-10.879996 -8.33,-10.879996 z"
       id="path15"
       inkscape:connector-curvature="0"
       style="fill:none;fill-opacity:1;stroke:#00ffff;stroke-opacity:1" />
    <path
       d="m 412.89916,29.789155 c 0.88,0 1.32,1.33 1.32,3.92 0,2.59 -0.44,3.89 -1.32,3.89 h -18.15 c -0.83,0 -1.25,-1.33 -1.25,-3.92 0,-2.59 0.42,-3.89 1.25,-3.89 h 18.15 m 0,-6.999996 h -18.15 c -1.94,0 -8.25,0.78 -8.25,10.889996 0,9.92 6.16,10.87 8.05,10.92 h 18.35 c 1.39,0 8.32,-0.52 8.32,-10.89 0,-9.929996 -6.23,-10.869996 -8.13,-10.919996 z"
       id="path17"
       inkscape:connector-curvature="0"
       style="fill:none;fill-opacity:1;stroke:#00ffff;stroke-opacity:1" />
    <path
       d="m 454.20916,29.819155 c 0.88,0 1.32,1.3 1.32,3.89 0,2.59 -0.44,3.89 -1.32,3.89 h -18.11 c -0.84,0 -1.25,-1.29 -1.25,-3.89 0,-2.6 0.41,-3.89 1.25,-3.89 h 18.11 m 0,-6.999996 h -18.11 c -1.94,0 -8.25,0.79 -8.25,10.889996 0,10.1 6.31,10.89 8.25,10.89 h 18.11 c 1.39,0 8.32,-0.52 8.32,-10.89 0,-10.369996 -6.93,-10.889996 -8.32,-10.889996 z"
       id="path19"
       inkscape:connector-curvature="0"
       style="fill:none;fill-opacity:1;stroke:#00ffff;stroke-opacity:1" />
    <path
       d="m 495.56916,29.819155 c 0.89,0 1.33,1.3 1.33,3.89 0,2.59 -0.44,3.89 -1.33,3.89 h -18.11 c -0.82,0 -1.24,-1.29 -1.24,-3.89 0,-2.6 0.41,-3.89 1.24,-3.89 h 18.11 m 0,-6.999996 h -18.11 a 7.73,7.73 0 0 0 -5.49,2.29 c -2.45,2.45 -2.76,5.889996 -2.75,8.619996 0,10.09 6.31,10.87 8.24,10.87 h 18.11 c 1.39,0 8.33,-0.52 8.33,-10.89 0,-10.369996 -6.94,-10.889996 -8.33,-10.889996 z"
       id="path21"
       inkscape:connector-curvature="0"
       style="fill:none;fill-opacity:1;stroke:#00ffff;stroke-opacity:1" />
    <path
       d="m 536.94916,29.819155 c 0.88,0 1.32,1.3 1.32,3.89 0,2.59 -0.44,3.89 -1.32,3.89 h -18.15 c -0.83,0 -1.25,-1.29 -1.25,-3.89 0,-2.6 0.42,-3.89 1.25,-3.89 h 18.15 m 0,-6.999996 h -18.15 c -1.94,0 -8.25,0.79 -8.25,10.889996 0,10.1 6.31,10.89 8.25,10.89 h 18.15 c 1.39,0 8.32,-0.52 8.32,-10.89 0,-10.369996 -6.91,-10.889996 -8.32,-10.889996 z"
       id="path23"
       inkscape:connector-curvature="0"
       style="fill:none;fill-opacity:1;stroke:#00ffff;stroke-opacity:1" />
    <path
       d="m 567.90916,29.789155 c 0.88,0 1.32,1.33 1.32,3.92 0,2.59 -0.44,3.89 -1.32,3.89 h -18.09 v 0 c -0.82,0 -1.24,-1.3 -1.24,-3.89 0,-2.59 0.42,-3.89 1.24,-3.89 h 18.09 m 0,-6.999996 h -18.09 c -1.93,0 -8.24,0.78 -8.24,10.889996 0,7.78 3.73,10 6.34,10.66 a 7,7 0 0 0 1.9,0.26 h 18.09 c 1.39,0 8.32,-0.52 8.32,-10.89 0,-9.929996 -6.23,-10.869996 -8.13,-10.919996 z"
       id="path25"
       inkscape:connector-curvature="0"
       style="fill:none;fill-opacity:1;stroke:#00ffff;stroke-opacity:1" />
    <path
       d="m 609.26916,29.819155 c 0.89,0 1.33,1.3 1.33,3.89 0,2.59 -0.44,3.89 -1.33,3.89 h -18.11 c -0.84,0 -1.25,-1.29 -1.25,-3.89 0,-2.6 0.42,-3.89 1.25,-3.89 h 18.11 m 0,-6.999996 h -18.11 c -1.93,0 -8.23,0.79 -8.25,10.879996 0,2.72 0.31,6.16 2.76,8.62 a 7.72,7.72 0 0 0 5.49,2.28 h 18.11 c 1.4,0 8.33,-0.52 8.33,-10.89 0,-10.369996 -6.93,-10.889996 -8.33,-10.889996 z"
       id="path27"
       inkscape:connector-curvature="0"
       style="fill:none;fill-opacity:1;stroke:#00ffff;stroke-opacity:1" />
    <path
       d="m 650.67916,29.819155 c 0.88,0 1.32,1.3 1.32,3.89 0,2.59 -0.44,3.89 -1.32,3.89 h -18.15 c -0.83,0 -1.25,-1.29 -1.25,-3.89 0,-2.6 0.42,-3.89 1.25,-3.89 h 18.15 m 0,-6.999996 h -18.15 c -1.94,0 -8.25,0.79 -8.25,10.889996 0,10.1 6.31,10.89 8.25,10.89 h 18.15 c 1.39,0 8.32,-0.52 8.32,-10.89 0,-10.369996 -6.93,-10.889996 -8.32,-10.889996 z"
       id="path29"
       inkscape:connector-curvature="0"
       style="fill:none;fill-opacity:1;stroke:#00ffff;stroke-opacity:1" />
    <path
       d="m 692.01916,29.819155 c 0.88,0 1.32,1.3 1.32,3.89 0,2.59 -0.44,3.89 -1.32,3.89 h -18.16 c -0.82,0 -1.24,-1.3 -1.24,-3.89 0,-2.59 0.42,-3.89 1.24,-3.89 h 18.16 m 0,-6.999996 h -18.16 c -1.93,0 -8.24,0.79 -8.24,10.889996 0,10.1 6.31,10.89 8.24,10.89 h 18.16 c 1.39,0 8.32,-0.52 8.32,-10.89 0,-10.369996 -6.93,-10.889996 -8.32,-10.889996 z"
       id="path31"
       inkscape:connector-curvature="0"
       style="fill:none;fill-opacity:1;stroke:#00ffff;stroke-opacity:1" />
    <path
       d="m 311.82916,19.449159 c 0.88,0 1.33,1.3 1.33,3.89 0,2.59 -0.45,3.89 -1.33,3.89 h -28.47 c -0.83,0 -1.24,-1.3 -1.24,-3.89 0,-2.59 0.41,-3.89 1.24,-3.89 h 28.46 m 0,-7 h -28.46 c -1.94,0 -8.24,0.78 -8.24,10.89 0,10.109996 6.3,10.889996 8.24,10.889996 h 28.46 c 1.39,0 8.33,-0.53 8.33,-10.889996 0,-10.36 -6.94,-10.89 -8.33,-10.89 z"
       id="path33"
       inkscape:connector-curvature="0"
       style="fill:none;fill-opacity:1;stroke:#00ffff;stroke-opacity:1" />
    <path
       d="m 404.87916,19.449159 c 0.88,0 1.32,1.29 1.32,3.89 0,2.6 -0.44,3.89 -1.32,3.89 h -59.52 c -0.82,0 -1.23,-1.3 -1.24,-3.89 -0.01,-2.59 0.41,-3.89 1.24,-3.89 h 59.49 m 0,-7 h -59.49 a 7.71,7.71 0 0 0 -5.48,2.28 c -2.46,2.46 -2.76,5.9 -2.76,8.62 0,10.089996 6.31,10.879996 8.24,10.879996 h 59.49 c 1.39,0 8.32,-0.53 8.32,-10.889996 0,-10.36 -6.93,-10.89 -8.32,-10.89 z"
       id="path35"
       inkscape:connector-curvature="0"
       style="fill:none;fill-opacity:1;stroke:#00ffff;stroke-opacity:1" />
    <path
       d="m 487.60916,19.449159 c 0.88,0 1.32,1.29 1.32,3.89 0,2.6 -0.44,3.89 -1.32,3.89 h -38.83 c -0.83,0 -1.24,-1.3 -1.24,-3.89 0,-2.59 0.41,-3.89 1.24,-3.89 h 38.83 m 0,-7 h -38.83 c -1.93,0 -8.24,0.78 -8.24,10.89 0,10.109996 6.31,10.889996 8.24,10.889996 h 38.83 c 1.39,0 8.32,-0.53 8.32,-10.889996 0,-10.36 -6.93,-10.89 -8.32,-10.89 z"
       id="path37"
       inkscape:connector-curvature="0"
       style="fill:none;fill-opacity:1;stroke:#00ffff;stroke-opacity:1" />
    <path
       d="m 559.93916,19.449159 c 0.88,0 1.33,1.3 1.33,3.89 0,2.59 -0.45,3.89 -1.33,3.89 h -28.46 c -0.82,0 -1.24,-1.3 -1.24,-3.89 0,-2.59 0.42,-3.89 1.24,-3.89 h 28.46 m 0,-7 h -28.46 c -1.93,0 -8.24,0.78 -8.24,10.89 0,10.109996 6.31,10.889996 8.24,10.889996 h 28.46 c 1.39,0 8.33,-0.53 8.33,-10.889996 0,-10.36 -6.91,-10.89 -8.33,-10.89 z"
       id="path39"
       inkscape:connector-curvature="0"
       style="fill:none;fill-opacity:1;stroke:#00ffff;stroke-opacity:1" />
    <path
       d="m 642.61916,19.449159 c 0.88,0 1.32,1.29 1.32,3.89 0,2.6 -0.44,3.89 -1.32,3.89 h -49.11 c -0.83,0 -1.24,-1.3 -1.24,-3.89 0,-2.59 0.41,-3.89 1.24,-3.89 h 49.11 m 0,-7 h -49.11 c -1.94,0 -8.24,0.78 -8.24,10.89 0,10.109996 6.3,10.889996 8.24,10.889996 h 49.11 c 1.39,0 8.32,-0.53 8.32,-10.889996 0,-10.36 -6.93,-10.89 -8.32,-10.89 z"
       id="path41"
       inkscape:connector-curvature="0"
       style="fill:none;fill-opacity:1;stroke:#00ffff;stroke-opacity:1" />
    <path
       d="m 746.03916,19.449159 c 0.88,0 1.32,1.29 1.32,3.89 0,2.6 -0.44,3.89 -1.32,3.89 h -69.82 c -0.83,0 -1.24,-1.3 -1.25,-3.89 -0.01,-2.59 0.41,-3.89 1.25,-3.89 h 69.82 m 0,-7 h -69.82 a 7.72,7.72 0 0 0 -5.49,2.28 c -2.45,2.46 -2.76,5.9 -2.76,8.62 0,10.089996 6.32,10.879996 8.25,10.879996 h 69.82 c 1.39,0 8.32,-0.53 8.32,-10.889996 0,-10.36 -6.93,-10.89 -8.32,-10.89 z"
       id="path43"
       inkscape:connector-curvature="0"
       style="fill:none;fill-opacity:1;stroke:#00ffff;stroke-opacity:1" />
    <path
       d="m 273.75916,50.469155 c 0.88,0 1.33,1.3 1.33,3.89 0,2.59 -0.45,3.89 -1.33,3.89 h -18.11 c -0.83,0 -1.25,-1.3 -1.25,-3.89 0,-2.59 0.42,-3.89 1.25,-3.89 h 18.11 m 0,-7 h -18.11 c -1.94,0 -8.25,0.79 -8.25,10.89 0,10.1 6.31,10.89 8.25,10.89 h 18.11 c 1.39,0 8.33,-0.53 8.33,-10.89 0,-10.36 -6.94,-10.89 -8.33,-10.89 z"
       id="path45"
       inkscape:connector-curvature="0"
       style="fill:none;fill-opacity:1;stroke:#00ffff;stroke-opacity:1" />
    <path
       d="m 325.50916,50.469155 c 0.88,0 1.32,1.3 1.32,3.89 0,2.59 -0.44,3.89 -1.32,3.89 h -18.15 c -0.82,0 -1.23,-1.3 -1.24,-3.89 -0.01,-2.59 0.41,-3.89 1.24,-3.89 h 18.16 m 0,-7 h -18.16 a 7.68,7.68 0 0 0 -5.48,2.29 c -2.46,2.45 -2.76,5.89 -2.76,8.61 0,10.09 6.31,10.88 8.24,10.88 h 18.16 c 1.39,0 8.32,-0.53 8.32,-10.89 0,-10.36 -6.93,-10.89 -8.32,-10.89 z"
       id="path47"
       inkscape:connector-curvature="0"
       style="fill:none;fill-opacity:1;stroke:#00ffff;stroke-opacity:1" />
    <path
       d="m 356.46916,50.469155 c 0.88,0 1.32,1.3 1.32,3.89 0,2.59 -0.44,3.89 -1.32,3.89 h -18.11 c -0.83,0 -1.24,-1.3 -1.24,-3.89 0,-2.59 0.41,-3.89 1.24,-3.89 h 18.12 m 0,-7 h -18.12 c -1.94,0 -8.24,0.79 -8.24,10.89 0,10.1 6.3,10.89 8.24,10.89 h 18.12 c 1.39,0 8.32,-0.53 8.32,-10.89 0,-10.36 -6.93,-10.89 -8.32,-10.89 z"
       id="path49"
       inkscape:connector-curvature="0"
       style="fill:none;fill-opacity:1;stroke:#00ffff;stroke-opacity:1" />
    <path
       d="m 408.16916,50.469155 c 0.89,0 1.33,1.3 1.33,3.89 0,2.59 -0.44,3.89 -1.33,3.89 h -28.45 c -0.84,0 -1.25,-1.3 -1.25,-3.89 0,-2.59 0.42,-3.89 1.25,-3.89 h 28.45 m 0,-7 h -28.45 c -1.93,0 -8.23,0.79 -8.25,10.88 0,2.72 0.3,6.16 2.76,8.61 a 7.69,7.69 0 0 0 5.49,2.29 h 28.45 c 1.39,0 8.33,-0.53 8.33,-10.89 0,-10.36 -6.94,-10.89 -8.33,-10.89 z"
       id="path51"
       inkscape:connector-curvature="0"
       style="fill:none;fill-opacity:1;stroke:#00ffff;stroke-opacity:1" />
    <path
       d="m 439.20916,50.469155 c 0.88,0 1.32,1.3 1.32,3.89 0,2.59 -0.44,3.89 -1.32,3.89 h -18.15 c -0.83,0 -1.25,-1.3 -1.25,-3.89 0,-2.59 0.42,-3.89 1.25,-3.89 h 18.15 m 0,-7 h -18.15 c -1.94,0 -8.25,0.79 -8.25,10.89 0,10.1 6.31,10.89 8.25,10.89 h 18.15 c 1.39,0 8.32,-0.53 8.32,-10.89 0,-10.36 -6.93,-10.89 -8.32,-10.89 z"
       id="path53"
       inkscape:connector-curvature="0"
       style="fill:none;fill-opacity:1;stroke:#00ffff;stroke-opacity:1" />
    <path
       d="m 521.87916,50.469155 c 0.88,0 1.32,1.3 1.32,3.89 0,2.59 -0.44,3.89 -1.32,3.89 h -18.12 c -0.83,0 -1.25,-1.3 -1.25,-3.89 0,-2.59 0.42,-3.89 1.25,-3.89 h 18.12 m 0,-7 h -18.12 c -1.93,0 -8.23,0.79 -8.25,10.88 0,2.72 0.31,6.16 2.76,8.61 a 7.69,7.69 0 0 0 5.49,2.29 h 18.12 c 1.39,0 8.32,-0.53 8.32,-10.89 0,-10.36 -6.93,-10.89 -8.32,-10.89 z"
       id="path55"
       inkscape:connector-curvature="0"
       style="fill:none;fill-opacity:1;stroke:#00ffff;stroke-opacity:1" />
    <path
       d="m 573.56916,50.469155 c 0.88,0 1.32,1.3 1.32,3.89 0,2.59 -0.42,3.89 -1.27,3.89 h -18.2 c -0.83,0 -1.24,-1.3 -1.24,-3.89 0,-2.59 0.41,-3.89 1.24,-3.89 h 18.15 m 0,-7 h -18.15 a 8,8 0 0 0 -7.6,5.84 16.42,16.42 0 0 0 -0.64,5 16.42,16.42 0 0 0 0.64,5 8,8 0 0 0 7.6,5.84 h 18.2 c 1.94,0 8.27,-0.79 8.27,-10.89 0,-10.36 -6.93,-10.89 -8.32,-10.89 z"
       id="path57"
       inkscape:connector-curvature="0"
       style="fill:none;fill-opacity:1;stroke:#00ffff;stroke-opacity:1" />
    <path
       d="m 604.57916,50.469155 c 0.88,0 1.32,1.3 1.32,3.89 0,2.59 -0.44,3.89 -1.32,3.89 h -18.12 c -0.82,0 -1.24,-1.3 -1.24,-3.89 0,-2.59 0.41,-3.89 1.24,-3.89 h 18.12 m 0,-7 h -18.12 a 7.68,7.68 0 0 0 -5.48,2.29 c -2.46,2.45 -2.76,5.89 -2.76,8.61 0,10.09 6.31,10.88 8.24,10.88 h 18.12 c 1.39,0 8.32,-0.53 8.32,-10.89 0,-10.36 -6.93,-10.89 -8.32,-10.89 z"
       id="path59"
       inkscape:connector-curvature="0"
       style="fill:none;fill-opacity:1;stroke:#00ffff;stroke-opacity:1" />
    <path
       d="m 656.28916,50.469155 c 0.88,0 1.33,1.3 1.32,3.89 -0.01,2.59 -0.44,3.89 -1.32,3.89 h -18.11 c -0.84,0 -1.26,-1.3 -1.25,-3.89 0.01,-2.59 0.42,-3.89 1.25,-3.89 h 18.11 m 0,-7 h -18.11 c -1.94,0 -8.24,0.79 -8.25,10.88 0,2.72 0.3,6.16 2.75,8.61 a 7.71,7.71 0 0 0 5.5,2.29 h 18.11 a 8.08,8.08 0 0 0 7.62,-5.73 15.94,15.94 0 0 0 0.7,-5.14 c 0,-2.7 -0.3,-6.12 -2.77,-8.6 a 7.8,7.8 0 0 0 -5.55,-2.31 z"
       id="path61"
       inkscape:connector-curvature="0"
       style="fill:none;fill-opacity:1;stroke:#00ffff;stroke-opacity:1" />
    <path
       d="m 728.63916,50.469155 c 0.88,0 1.32,1.3 1.32,3.89 0,2.59 -0.44,3.89 -1.32,3.89 h -59.48 c -0.83,0 -1.25,-1.3 -1.25,-3.89 0,-2.59 0.42,-3.89 1.25,-3.89 h 59.48 m 0,-7 h -59.48 c -1.94,0 -8.25,0.79 -8.25,10.89 0,10.1 6.31,10.89 8.25,10.89 h 59.48 c 1.39,0 8.32,-0.53 8.32,-10.89 0,-10.36 -6.93,-10.89 -8.32,-10.89 z"
       id="path63"
       inkscape:connector-curvature="0"
       style="fill:none;fill-opacity:1;stroke:#00ffff;stroke-opacity:1" />
    <path
       d="m 269.05916,71.149155 c 0.88,0 1.32,1.3 1.32,3.89 0,2.59 -0.44,3.89 -1.32,3.89 h -18.11 c -0.82,0 -1.24,-1.3 -1.24,-3.89 0,-2.59 0.41,-3.89 1.24,-3.89 h 18.11 m 0,-7 h -18.11 a 7.69,7.69 0 0 0 -5.49,2.29 c -2.45,2.45 -2.76,5.89 -2.75,8.61 0,10.1 6.31,10.88 8.24,10.88 h 18.11 c 1.39,0 8.32,-0.52 8.32,-10.89 0,-10.37 -6.93,-10.89 -8.32,-10.89 z"
       id="path65"
       inkscape:connector-curvature="0"
       style="fill:none;fill-opacity:1;stroke:#00ffff;stroke-opacity:1" />
    <path
       d="m 320.76916,71.149155 c 0.88,0 1.32,1.3 1.32,3.89 0,2.59 -0.44,3.89 -1.32,3.89 h -18.11 c -0.84,0 -1.25,-1.3 -1.25,-3.89 0,-2.59 0.42,-3.89 1.25,-3.89 h 18.11 m 0,-7 h -18.11 c -1.93,0 -8.23,0.79 -8.25,10.88 0,2.72 0.31,6.16 2.76,8.61 a 7.69,7.69 0 0 0 5.49,2.29 h 18.11 c 1.39,0 8.32,-0.52 8.32,-10.89 0,-10.37 -6.93,-10.89 -8.32,-10.89 z"
       id="path67"
       inkscape:connector-curvature="0"
       style="fill:none;fill-opacity:1;stroke:#00ffff;stroke-opacity:1" />
    <path
       d="m 351.76916,71.149155 c 0.88,0 1.32,1.3 1.33,3.89 0.01,2.59 -0.44,3.89 -1.33,3.89 h -18.11 c -0.83,0 -1.25,-1.3 -1.25,-3.89 0,-2.59 0.42,-3.89 1.25,-3.89 h 18.11 m 0,-7 h -18.11 c -1.94,0 -8.25,0.79 -8.25,10.89 0,10.1 6.31,10.89 8.25,10.89 h 18.11 a 7.8,7.8 0 0 0 5.59,-2.31 c 2.47,-2.47 2.78,-5.89 2.78,-8.59 0,-10.35 -6.94,-10.88 -8.33,-10.88 z"
       id="path69"
       inkscape:connector-curvature="0"
       style="fill:none;fill-opacity:1;stroke:#00ffff;stroke-opacity:1" />
    <path
       d="m 393.13916,71.149155 c 0.88,0 1.32,1.3 1.32,3.89 0,2.59 -0.44,3.89 -1.32,3.89 h -28.46 c -0.82,0 -1.24,-1.3 -1.24,-3.89 0,-2.59 0.41,-3.89 1.24,-3.89 h 28.46 m 0,-7 h -28.46 a 7.69,7.69 0 0 0 -5.49,2.29 c -2.45,2.45 -2.76,5.89 -2.75,8.61 0,10.1 6.31,10.88 8.24,10.88 h 28.46 c 1.39,0 8.32,-0.52 8.32,-10.89 0,-10.37 -6.93,-10.89 -8.32,-10.89 z"
       id="path71"
       inkscape:connector-curvature="0"
       style="fill:none;fill-opacity:1;stroke:#00ffff;stroke-opacity:1" />
    <path
       d="m 444.81916,71.149155 c 0.88,0 1.32,1.3 1.32,3.89 0,2.59 -0.44,3.89 -1.32,3.89 h -18.12 c -0.83,0 -1.25,-1.3 -1.25,-3.89 0,-2.59 0.43,-3.89 1.25,-3.89 h 18.12 m 0,-7 h -18.12 c -1.93,0 -8.23,0.79 -8.25,10.88 0,2.72 0.31,6.16 2.76,8.61 a 7.69,7.69 0 0 0 5.49,2.29 h 18.12 c 1.39,0 8.32,-0.52 8.32,-10.89 0,-10.37 -6.93,-10.89 -8.32,-10.89 z"
       id="path73"
       inkscape:connector-curvature="0"
       style="fill:none;fill-opacity:1;stroke:#00ffff;stroke-opacity:1" />
    <path
       d="m 486.21916,71.149155 c 0.88,0 1.32,1.3 1.32,3.89 0,2.59 -0.44,3.89 -1.32,3.89 h -18.16 c -0.83,0 -1.24,-1.3 -1.24,-3.89 0,-2.59 0.41,-3.89 1.24,-3.89 h 18.16 m 0,-7 h -18.16 c -1.93,0 -8.24,0.79 -8.24,10.89 0,10.1 6.31,10.89 8.24,10.89 h 18.16 c 1.39,0 8.32,-0.52 8.32,-10.89 0,-10.37 -6.93,-10.89 -8.32,-10.89 z"
       id="path75"
       inkscape:connector-curvature="0"
       style="fill:none;fill-opacity:1;stroke:#00ffff;stroke-opacity:1" />
    <path
       d="m 517.21916,71.149155 c 0.88,0 1.32,1.3 1.32,3.89 0,2.59 -0.44,3.89 -1.32,3.89 h -18.16 c -0.82,0 -1.24,-1.3 -1.24,-3.89 0,-2.59 0.42,-3.89 1.24,-3.89 h 18.16 m 0,-7 h -18.16 c -1.93,0 -8.24,0.79 -8.24,10.89 0,10.1 6.31,10.89 8.24,10.89 h 18.16 c 1.39,0 8.32,-0.52 8.32,-10.89 0,-10.37 -6.93,-10.89 -8.32,-10.89 z"
       id="path77"
       inkscape:connector-curvature="0"
       style="fill:none;fill-opacity:1;stroke:#00ffff;stroke-opacity:1" />
    <path
       d="m 568.88916,71.149155 c 0.88,0 1.32,1.3 1.32,3.89 0,2.59 -0.44,3.89 -1.32,3.89 h -18.12 c -0.83,0 -1.24,-1.3 -1.24,-3.89 0,-2.59 0.41,-3.89 1.24,-3.89 h 18.12 m 0,-7 h -18.12 c -1.93,0 -8.24,0.79 -8.24,10.89 0,10.1 6.31,10.89 8.24,10.89 h 18.12 c 1.39,0 8.32,-0.52 8.32,-10.89 0,-10.37 -6.93,-10.89 -8.32,-10.89 z"
       id="path79"
       inkscape:connector-curvature="0"
       style="fill:none;fill-opacity:1;stroke:#00ffff;stroke-opacity:1" />
    <path
       d="m 599.87916,71.149155 c 0.89,0 1.33,1.3 1.33,3.89 0,2.59 -0.44,3.89 -1.33,3.89 h -18.11 c -0.82,0 -1.24,-1.3 -1.24,-3.89 0,-2.59 0.41,-3.89 1.24,-3.89 h 18.11 m 0,-7 h -18.11 a 7.69,7.69 0 0 0 -5.49,2.29 c -2.45,2.45 -2.76,5.89 -2.75,8.61 0,10.1 6.31,10.88 8.24,10.88 h 18.11 c 1.39,0 8.33,-0.52 8.33,-10.89 0,-10.37 -6.94,-10.89 -8.33,-10.89 z"
       id="path81"
       inkscape:connector-curvature="0"
       style="fill:none;fill-opacity:1;stroke:#00ffff;stroke-opacity:1" />
    <path
       d="m 641.22916,71.149155 c 0.88,0 1.32,1.3 1.32,3.89 0,2.59 -0.44,3.89 -1.32,3.89 h -18.09 c -0.83,0 -1.24,-1.3 -1.25,-3.89 -0.01,-2.59 0.41,-3.89 1.25,-3.89 h 18.09 m 0,-7 h -18.09 a 7.69,7.69 0 0 0 -5.49,2.29 c -2.45,2.45 -2.76,5.89 -2.76,8.61 0,10.1 6.32,10.88 8.25,10.88 h 18.09 c 1.39,0 8.32,-0.52 8.32,-10.89 0,-10.37 -6.93,-10.89 -8.32,-10.89 z"
       id="path83"
       inkscape:connector-curvature="0"
       style="fill:none;fill-opacity:1;stroke:#00ffff;stroke-opacity:1" />
    <path
       d="m 682.62916,71.149155 c 0.88,0 1.32,1.3 1.32,3.89 0,2.59 -0.44,3.89 -1.32,3.89 h -18.16 c -0.82,0 -1.24,-1.3 -1.24,-3.89 0,-2.59 0.42,-3.89 1.24,-3.89 h 18.16 m 0,-7 h -18.16 c -1.93,0 -8.24,0.79 -8.24,10.89 0,10.1 6.31,10.89 8.24,10.89 h 18.16 c 1.38,0 8.32,-0.52 8.32,-10.89 0,-10.37 -6.94,-10.89 -8.32,-10.89 z"
       id="path85"
       inkscape:connector-curvature="0"
       style="fill:none;fill-opacity:1;stroke:#00ffff;stroke-opacity:1" />
    <path
       d="m 266.71916,81.489155 c 0.88,0 1.32,1.3 1.32,3.89 0,2.59 -0.44,3.89 -1.32,3.89 h -18.12 c -0.82,0 -1.24,-1.29 -1.24,-3.89 0,-2.6 0.41,-3.89 1.24,-3.89 h 18.12 m 0,-7 h -18.12 a 7.7,7.7 0 0 0 -5.48,2.29 c -2.46,2.45 -2.76,5.89 -2.76,8.58 0,10.09 6.31,10.87 8.24,10.87 h 18.12 c 1.39,0 8.32,-0.52 8.32,-10.89 0,-10.37 -6.93,-10.89 -8.32,-10.89 z"
       id="path87"
       inkscape:connector-curvature="0"
       style="fill:none;fill-opacity:1;stroke:#00ffff;stroke-opacity:1" />
    <path
       d="m 318.42916,81.489155 c 0.88,0 1.32,1.3 1.32,3.89 0,2.59 -0.44,3.89 -1.32,3.89 h -18.07 c -0.83,0 -1.24,-1.29 -1.24,-3.89 0,-2.6 0.41,-3.89 1.24,-3.89 h 18.12 m 0,-7 h -18.12 c -1.94,0 -8.24,0.79 -8.24,10.89 0,10.1 6.24,10.89 8.24,10.89 h 18.12 c 1.39,0 8.32,-0.52 8.32,-10.89 0,-10.37 -6.93,-10.89 -8.32,-10.89 z"
       id="path89"
       inkscape:connector-curvature="0"
       style="fill:none;fill-opacity:1;stroke:#00ffff;stroke-opacity:1" />
    <path
       d="m 349.41916,81.489155 c 0.88,0 1.33,1.3 1.33,3.89 0,2.59 -0.45,3.89 -1.33,3.89 h -18.06 c -0.84,0 -1.25,-1.29 -1.25,-3.89 0,-2.6 0.42,-3.89 1.25,-3.89 h 18.11 m 0,-7 h -18.11 c -1.93,0 -8.23,0.79 -8.25,10.88 0,2.72 0.3,6.16 2.76,8.62 a 7.72,7.72 0 0 0 5.49,2.28 h 18.11 c 1.39,0 8.33,-0.52 8.33,-10.89 0,-10.37 -6.94,-10.89 -8.33,-10.89 z"
       id="path91"
       inkscape:connector-curvature="0"
       style="fill:none;fill-opacity:1;stroke:#00ffff;stroke-opacity:1" />
    <path
       d="m 401.12916,81.489155 c 0.88,0 1.32,1.3 1.32,3.89 0,2.59 -0.44,3.89 -1.32,3.89 h -28.46 c -0.82,0 -1.24,-1.29 -1.24,-3.89 0,-2.6 0.42,-3.89 1.24,-3.89 h 28.46 m 0,-7 h -28.46 c -1.93,0 -8.24,0.79 -8.24,10.89 0,10.1 6.31,10.89 8.24,10.89 h 28.46 c 1.39,0 8.32,-0.52 8.32,-10.89 0,-10.37 -6.93,-10.89 -8.32,-10.89 z"
       id="path93"
       inkscape:connector-curvature="0"
       style="fill:none;fill-opacity:1;stroke:#00ffff;stroke-opacity:1" />
    <path
       d="m 473.48916,81.489155 c 0.88,0 1.32,1.3 1.32,3.89 0,2.59 -0.44,3.89 -1.32,3.89 h -38.8 c -0.82,0 -1.24,-1.3 -1.24,-3.89 0,-2.59 0.42,-3.89 1.24,-3.89 h 38.8 m 0,-7 h -38.8 c -1.93,0 -8.24,0.79 -8.24,10.89 0,10.1 6.31,10.89 8.24,10.89 h 38.8 c 1.39,0 8.32,-0.52 8.32,-10.89 0,-10.37 -6.93,-10.89 -8.32,-10.89 z"
       id="path95"
       inkscape:connector-curvature="0"
       style="fill:none;fill-opacity:1;stroke:#00ffff;stroke-opacity:1" />
    <path
       d="m 514.83916,81.489155 c 0.89,0 1.33,1.3 1.33,3.89 0,2.59 -0.44,3.89 -1.33,3.89 h -18.15 c -0.83,0 -1.24,-1.29 -1.24,-3.89 0,-2.6 0.41,-3.89 1.24,-3.89 h 18.15 m 0,-7 h -18.15 c -1.93,0 -8.24,0.79 -8.24,10.89 0,10.1 6.31,10.89 8.24,10.89 h 18.15 c 1.39,0 8.33,-0.52 8.33,-10.89 0,-10.37 -6.94,-10.89 -8.33,-10.89 z"
       id="path97"
       inkscape:connector-curvature="0"
       style="fill:none;fill-opacity:1;stroke:#00ffff;stroke-opacity:1" />
    <path
       d="m 566.50916,81.489155 c 0.88,0 1.32,1.3 1.32,3.89 0,2.59 -0.44,3.89 -1.32,3.89 h -18.09 c -0.82,0 -1.24,-1.29 -1.24,-3.89 0,-2.6 0.41,-3.89 1.24,-3.89 h 18.09 m 0,-7 h -18.09 a 7.7,7.7 0 0 0 -5.48,2.29 c -2.46,2.45 -2.76,5.89 -2.76,8.62 0,10.09 6.31,10.87 8.24,10.87 h 18.09 c 1.39,0 8.32,-0.52 8.32,-10.89 0,-10.37 -6.93,-10.89 -8.32,-10.89 z"
       id="path99"
       inkscape:connector-curvature="0"
       style="fill:none;fill-opacity:1;stroke:#00ffff;stroke-opacity:1" />
    <path
       d="m 628.55916,81.489155 c 0.88,0 1.33,1.3 1.33,3.89 0,2.59 -0.45,3.89 -1.33,3.89 h -49.14 c -0.83,0 -1.25,-1.29 -1.25,-3.89 0,-2.6 0.42,-3.89 1.25,-3.89 h 49.14 m 0,-7 h -49.14 c -1.93,0 -8.25,0.79 -8.25,10.89 0,10.1 6.32,10.89 8.25,10.89 h 49.14 c 1.39,0 8.33,-0.52 8.33,-10.89 0,-10.37 -6.94,-10.89 -8.33,-10.89 z"
       id="path101"
       inkscape:connector-curvature="0"
       style="fill:none;fill-opacity:1;stroke:#00ffff;stroke-opacity:1" />
    <path
       d="m 731.94916,81.489155 c 0.88,0 1.33,1.3 1.33,3.89 0,2.59 -0.45,3.89 -1.33,3.89 h -69.82 c -0.83,0 -1.25,-1.29 -1.25,-3.89 0,-2.6 0.42,-3.89 1.25,-3.89 h 69.82 m 0,-7 h -69.82 c -1.94,0 -8.25,0.79 -8.25,10.89 0,10.1 6.31,10.89 8.25,10.89 h 69.82 c 1.39,0 8.33,-0.52 8.33,-10.89 0,-10.37 -6.92,-10.89 -8.33,-10.89 z"
       id="path103"
       inkscape:connector-curvature="0"
       style="fill:none;fill-opacity:1;stroke:#00ffff;stroke-opacity:1" />
    <path
       d="m 276.14916,40.129155 c 0.88,0 1.32,1.3 1.32,3.89 0,2.59 -0.44,3.89 -1.32,3.89 h -18.16 c -0.82,0 -1.24,-1.3 -1.24,-3.89 0,-2.59 0.42,-3.89 1.24,-3.89 h 18.16 m 0,-7 h -18.16 c -1.93,0 -8.24,0.79 -8.24,10.89 0,10.1 6.31,10.89 8.24,10.89 h 18.16 c 1.39,0 8.32,-0.53 8.32,-10.89 0,-10.36 -6.93,-10.89 -8.32,-10.89 z"
       id="path105"
       inkscape:connector-curvature="0"
       style="fill:none;fill-opacity:1;stroke:#00ffff;stroke-opacity:1" />
    <path
       d="m 327.81916,40.129155 c 0.88,0 1.32,1.3 1.32,3.89 0,2.59 -0.44,3.89 -1.32,3.89 h -18.12 c -0.82,0 -1.24,-1.3 -1.24,-3.89 0,-2.59 0.41,-3.89 1.24,-3.89 h 18.12 m 0,-7 h -18.12 a 7.72,7.72 0 0 0 -5.49,2.28 c -2.45,2.46 -2.76,5.9 -2.75,8.62 0,10.09 6.31,10.88 8.24,10.88 h 18.12 c 1.39,0 8.32,-0.53 8.32,-10.89 0,-10.36 -6.93,-10.89 -8.32,-10.89 z"
       id="path107"
       inkscape:connector-curvature="0"
       style="fill:none;fill-opacity:1;stroke:#00ffff;stroke-opacity:1" />
    <path
       d="m 358.80916,40.129155 c 0.88,0 1.32,1.3 1.32,3.89 0,2.59 -0.44,3.89 -1.32,3.89 h -18.11 c -0.84,0 -1.25,-1.3 -1.25,-3.89 0,-2.59 0.42,-3.89 1.25,-3.89 h 18.11 m 0,-7 h -18.11 c -1.93,0 -8.23,0.78 -8.25,10.88 0,2.72 0.31,6.15 2.76,8.61 a 7.69,7.69 0 0 0 5.49,2.29 h 18.11 c 1.39,0 8.32,-0.53 8.32,-10.89 0,-10.36 -6.93,-10.89 -8.32,-10.89 z"
       id="path109"
       inkscape:connector-curvature="0"
       style="fill:none;fill-opacity:1;stroke:#00ffff;stroke-opacity:1" />
    <path
       d="m 410.55916,40.129155 c 0.88,0 1.32,1.3 1.32,3.89 0,2.59 -0.44,3.89 -1.32,3.89 h -18.15 c -0.83,0 -1.25,-1.3 -1.25,-3.89 0,-2.59 0.42,-3.89 1.25,-3.89 h 18.15 m 0,-7 h -18.15 c -1.94,0 -8.25,0.79 -8.25,10.89 0,10.1 6.31,10.89 8.25,10.89 h 18.15 c 1.39,0 8.32,-0.53 8.32,-10.89 0,-10.36 -6.93,-10.89 -8.32,-10.89 z"
       id="path111"
       inkscape:connector-curvature="0"
       style="fill:none;fill-opacity:1;stroke:#00ffff;stroke-opacity:1" />
    <path
       d="m 441.52916,40.129155 c 0.88,0 1.32,1.3 1.32,3.89 0,2.59 -0.44,3.89 -1.32,3.89 h -18.17 c -0.82,0 -1.24,-1.3 -1.24,-3.89 0,-2.59 0.42,-3.89 1.24,-3.89 h 18.16 m 0,-7 h -18.16 c -1.93,0 -8.24,0.79 -8.24,10.89 0,10.1 6.31,10.89 8.24,10.89 h 18.16 c 1.39,0 8.32,-0.53 8.32,-10.89 0,-10.36 -6.93,-10.89 -8.32,-10.89 z"
       id="path113"
       inkscape:connector-curvature="0"
       style="fill:none;fill-opacity:1;stroke:#00ffff;stroke-opacity:1" />
    <path
       d="m 524.21916,40.129155 c 0.88,0 1.32,1.3 1.33,3.89 0.01,2.59 -0.44,3.89 -1.33,3.89 h -18.11 c -0.82,0 -1.24,-1.3 -1.24,-3.89 0,-2.59 0.41,-3.89 1.24,-3.89 h 18.11 m 0,-7 h -18.11 a 7.72,7.72 0 0 0 -5.49,2.28 c -2.45,2.46 -2.76,5.9 -2.75,8.62 0,10.09 6.31,10.88 8.24,10.88 h 18.11 a 7.8,7.8 0 0 0 5.55,-2.31 c 2.47,-2.48 2.78,-5.89 2.78,-8.59 0,-10.36 -6.94,-10.88 -8.33,-10.88 z"
       id="path115"
       inkscape:connector-curvature="0"
       style="fill:none;fill-opacity:1;stroke:#00ffff;stroke-opacity:1" />
    <path
       d="m 575.96916,40.129155 c 0.88,0 1.32,1.3 1.32,3.89 0,2.59 -0.44,3.89 -1.32,3.89 h -18.16 c -0.82,0 -1.24,-1.3 -1.24,-3.89 0,-2.59 0.42,-3.89 1.24,-3.89 h 18.16 m 0,-7 h -18.16 c -1.93,0 -8.24,0.79 -8.24,10.89 0,10.1 6.31,10.89 8.24,10.89 h 18.16 c 1.39,0 8.32,-0.53 8.32,-10.89 0,-10.36 -6.93,-10.89 -8.32,-10.89 z"
       id="path117"
       inkscape:connector-curvature="0"
       style="fill:none;fill-opacity:1;stroke:#00ffff;stroke-opacity:1" />
    <path
       d="m 606.92916,40.129155 c 0.88,0 1.32,1.3 1.32,3.89 0,2.59 -0.44,3.89 -1.32,3.89 h -18.11 c -0.84,0 -1.25,-1.3 -1.25,-3.89 0,-2.59 0.41,-3.89 1.25,-3.89 h 18.11 m 0,-7 h -18.11 c -1.94,0 -8.25,0.79 -8.25,10.89 0,10.1 6.31,10.89 8.25,10.89 h 18.11 c 1.39,0 8.32,-0.53 8.32,-10.89 0,-10.36 -6.89,-10.89 -8.32,-10.89 z"
       id="path119"
       inkscape:connector-curvature="0"
       style="fill:none;fill-opacity:1;stroke:#00ffff;stroke-opacity:1" />
    <path
       d="m 658.67916,40.129155 c 0.88,0 1.32,1.3 1.32,3.89 0,2.59 -0.44,3.89 -1.32,3.89 h -18.15 c -0.83,0 -1.24,-1.3 -1.24,-3.89 0,-2.59 0.41,-3.89 1.24,-3.89 h 18.15 m 0,-7 h -18.15 a 7.72,7.72 0 0 0 -5.49,2.28 c -2.45,2.46 -2.76,5.9 -2.75,8.62 0,10.09 6.31,10.88 8.24,10.88 h 18.15 c 1.39,0 8.32,-0.53 8.32,-10.89 0,-10.36 -6.93,-10.89 -8.32,-10.89 z"
       id="path121"
       inkscape:connector-curvature="0"
       style="fill:none;fill-opacity:1;stroke:#00ffff;stroke-opacity:1" />
    <path
       d="m 689.66916,40.129155 c 0.88,0 1.32,1.3 1.32,3.89 0,2.59 -0.44,3.89 -1.32,3.89 h -18.15 c -0.83,0 -1.25,-1.3 -1.25,-3.89 0,-2.59 0.42,-3.89 1.25,-3.89 h 18.15 m 0,-7 h -18.15 a 8,8 0 0 0 -7.6,5.84 16.39,16.39 0 0 0 -0.65,5 16.44,16.44 0 0 0 0.65,5.05 8,8 0 0 0 7.6,5.84 h 18.15 c 1.39,0 8.32,-0.53 8.32,-10.89 0,-10.36 -6.93,-10.89 -8.32,-10.89 z"
       id="path123"
       inkscape:connector-curvature="0"
       style="fill:none;fill-opacity:1;stroke:#00ffff;stroke-opacity:1" />
    <path
       d="m 323.11916,60.809155 c 0.88,0 1.33,1.3 1.33,3.89 0,2.59 -0.45,3.89 -1.33,3.89 h -69.82 c -0.83,0 -1.25,-1.3 -1.25,-3.89 0,-2.59 0.42,-3.89 1.25,-3.89 h 69.82 m 0,-7 h -69.82 c -1.94,0 -8.25,0.79 -8.25,10.89 0,10.1 6.31,10.89 8.25,10.89 h 69.82 c 1.39,0 8.33,-0.52 8.33,-10.89 0,-10.37 -6.94,-10.89 -8.33,-10.89 z"
       id="path125"
       inkscape:connector-curvature="0"
       style="fill:none;fill-opacity:1;stroke:#00ffff;stroke-opacity:1" />
    <path
       d="m 385.13916,60.809155 c 0.88,0 1.32,1.3 1.32,3.89 0,2.59 -0.44,3.89 -1.32,3.89 h -49.14 c -0.83,0 -1.24,-1.3 -1.24,-3.89 0,-2.59 0.41,-3.89 1.24,-3.89 h 49.14 m 0,-7 h -49.14 c -1.93,0 -8.24,0.79 -8.24,10.89 0,10.1 6.31,10.89 8.24,10.89 h 49.14 c 1.39,0 8.32,-0.52 8.32,-10.89 0,-10.37 -6.93,-10.89 -8.32,-10.89 z"
       id="path127"
       inkscape:connector-curvature="0"
       style="fill:none;fill-opacity:1;stroke:#00ffff;stroke-opacity:1" />
    <path
       d="m 436.81916,60.809155 c 0.89,0 1.33,1.3 1.33,3.89 0,2.59 -0.44,3.89 -1.33,3.89 h -18.11 c -0.82,0 -1.24,-1.3 -1.24,-3.89 0,-2.59 0.41,-3.89 1.24,-3.89 h 18.11 m 0,-7 h -18.11 a 7.69,7.69 0 0 0 -5.49,2.29 c -2.45,2.45 -2.76,5.89 -2.75,8.61 0,10.1 6.31,10.88 8.24,10.88 h 18.11 c 1.39,0 8.33,-0.52 8.33,-10.89 0,-10.37 -6.94,-10.89 -8.33,-10.89 z"
       id="path129"
       inkscape:connector-curvature="0"
       style="fill:none;fill-opacity:1;stroke:#00ffff;stroke-opacity:1" />
    <path
       d="m 571.22916,60.809155 c 0.88,0 1.33,1.3 1.33,3.89 0,2.59 -0.45,3.89 -1.33,3.89 h -69.82 c -0.82,0 -1.24,-1.3 -1.24,-3.89 0,-2.59 0.42,-3.89 1.24,-3.89 h 69.82 m 0,-7 h -69.82 c -1.93,0 -8.24,0.79 -8.24,10.89 0,10.1 6.31,10.89 8.24,10.89 h 69.82 c 1.39,0 8.33,-0.52 8.33,-10.89 0,-10.37 -6.94,-10.89 -8.33,-10.89 z"
       id="path131"
       inkscape:connector-curvature="0"
       style="fill:none;fill-opacity:1;stroke:#00ffff;stroke-opacity:1" />
    <path
       d="m 602.23916,60.809155 c 0.88,0 1.32,1.3 1.32,3.89 0,2.59 -0.44,3.89 -1.32,3.89 h -18.12 c -0.83,0 -1.24,-1.3 -1.25,-3.89 -0.01,-2.59 0.41,-3.89 1.25,-3.89 h 18.12 m 0,-7 h -18.12 a 7.69,7.69 0 0 0 -5.49,2.29 c -2.45,2.45 -2.76,5.89 -2.76,8.61 0,10.1 6.32,10.88 8.25,10.88 h 18.12 c 1.39,0 8.32,-0.52 8.32,-10.89 0,-10.37 -6.93,-10.89 -8.32,-10.89 z"
       id="path133"
       inkscape:connector-curvature="0"
       style="fill:none;fill-opacity:1;stroke:#00ffff;stroke-opacity:1" />
    <path
       d="m 653.97916,60.809155 c 0.88,0 1.32,1.3 1.32,3.89 0,2.59 -0.44,3.89 -1.32,3.89 h -18.16 c -0.82,0 -1.24,-1.3 -1.24,-3.89 0,-2.59 0.42,-3.89 1.24,-3.89 h 18.16 m 0,-7 h -18.16 c -1.93,0 -8.24,0.79 -8.24,10.89 0,10.1 6.31,10.89 8.24,10.89 h 18.16 a 8.09,8.09 0 0 0 7.62,-5.72 16.14,16.14 0 0 0 0.7,-5.17 16.18,16.18 0 0 0 -0.7,-5.17 8.09,8.09 0 0 0 -7.62,-5.72 z"
       id="path135"
       inkscape:connector-curvature="0"
       style="fill:none;fill-opacity:1;stroke:#00ffff;stroke-opacity:1" />
    <path
       d="m 684.93916,60.809155 c 0.88,0 1.32,1.3 1.32,3.89 0,2.59 -0.44,3.89 -1.32,3.89 h -18.12 c -0.83,0 -1.25,-1.3 -1.25,-3.89 0,-2.59 0.43,-3.89 1.25,-3.89 h 18.12 m 0,-7 h -18.12 c -1.93,0 -8.23,0.79 -8.25,10.88 0,2.72 0.31,6.16 2.76,8.61 a 7.69,7.69 0 0 0 5.49,2.29 h 18.12 c 1.39,0 8.32,-0.52 8.32,-10.89 0,-10.37 -6.9,-10.89 -8.32,-10.89 z"
       id="path137"
       inkscape:connector-curvature="0"
       style="fill:none;fill-opacity:1;stroke:#00ffff;stroke-opacity:1" />
    <path
       d="m 270.67916,37.599155 h 18.12 c 0.88,0 1.32,-1.29 1.32,-3.89 0,-2.6 -0.44,-3.89 -1.32,-3.89 h -18.12 c -0.83,0 -1.25,1.3 -1.24,3.89 0.01,2.59 0.42,3.89 1.24,3.89"
       id="path139"
       inkscape:connector-curvature="0"
       style="fill:#f7f4ff;fill-opacity:1;stroke:#00ffff;stroke-opacity:1" />
    <path
       d="m 301.69916,37.599155 h 18.12 c 0.88,0 1.32,-1.29 1.32,-3.89 0,-2.6 -0.44,-3.89 -1.32,-3.89 h -18.12 c -0.82,0 -1.24,1.3 -1.24,3.89 0,2.59 0.42,3.89 1.24,3.89"
       id="path141"
       inkscape:connector-curvature="0"
       style="fill:#f7f4ff;fill-opacity:1;stroke:#00ffff;stroke-opacity:1" />
    <path
       d="m 343.07916,37.599155 h 18.08 c 0.89,0 1.33,-1.29 1.33,-3.89 0,-2.6 -0.45,-3.89 -1.33,-3.89 h -18.08 c -0.84,0 -1.25,1.3 -1.25,3.89 0,2.59 0.42,3.89 1.25,3.89"
       id="path143"
       inkscape:connector-curvature="0"
       style="fill:#f7f4ff;fill-opacity:1;stroke:#00ffff;stroke-opacity:1" />
    <path
       d="m 394.74916,37.599155 h 18.15 c 0.88,0 1.32,-1.29 1.32,-3.89 0,-2.6 -0.44,-3.9 -1.32,-3.92 h -18.15 c -0.83,0 -1.25,1.3 -1.25,3.89 0,2.59 0.42,3.9 1.25,3.92"
       id="path145"
       inkscape:connector-curvature="0"
       style="fill:#f7f4ff;fill-opacity:1;stroke:#00ffff;stroke-opacity:1" />
    <path
       d="m 436.09916,37.599155 h 18.11 c 0.88,0 1.32,-1.29 1.32,-3.89 0,-2.6 -0.44,-3.89 -1.32,-3.89 h -18.11 c -0.84,0 -1.25,1.3 -1.25,3.89 0,2.59 0.41,3.89 1.25,3.89"
       id="path147"
       inkscape:connector-curvature="0"
       style="fill:#f7f4ff;fill-opacity:1;stroke:#00ffff;stroke-opacity:1" />
    <path
       d="m 477.45916,37.599155 h 18.11 c 0.89,0 1.33,-1.29 1.33,-3.89 0,-2.6 -0.44,-3.89 -1.33,-3.89 h -18.11 c -0.83,0 -1.25,1.3 -1.24,3.89 0.01,2.59 0.42,3.89 1.24,3.89"
       id="path149"
       inkscape:connector-curvature="0"
       style="fill:#f7f4ff;fill-opacity:1;stroke:#00ffff;stroke-opacity:1" />
    <path
       d="m 518.79916,37.599155 h 18.15 c 0.88,0 1.32,-1.29 1.32,-3.89 0,-2.6 -0.44,-3.89 -1.32,-3.89 h -18.15 c -0.83,0 -1.25,1.3 -1.25,3.89 0,2.59 0.42,3.89 1.25,3.89"
       id="path151"
       inkscape:connector-curvature="0"
       style="fill:#f7f4ff;fill-opacity:1;stroke:#00ffff;stroke-opacity:1" />
    <path
       d="m 549.81916,37.599155 h 18.09 c 0.88,0 1.32,-1.29 1.32,-3.89 0,-2.6 -0.44,-3.9 -1.32,-3.92 h -18.09 c -0.82,0 -1.24,1.3 -1.24,3.89 0,2.59 0.42,3.89 1.24,3.89"
       id="path153"
       inkscape:connector-curvature="0"
       style="fill:#f7f4ff;fill-opacity:1;stroke:#00ffff;stroke-opacity:1" />
    <path
       d="m 591.15916,37.599155 h 18.11 c 0.89,0 1.33,-1.29 1.33,-3.89 0,-2.6 -0.44,-3.89 -1.33,-3.89 h -18.11 c -0.83,0 -1.24,1.3 -1.25,3.89 -0.01,2.59 0.41,3.89 1.25,3.89"
       id="path155"
       inkscape:connector-curvature="0"
       style="fill:#f7f4ff;fill-opacity:1;stroke:#00ffff;stroke-opacity:1" />
    <path
       d="m 632.52916,37.599155 h 18.15 c 0.88,0 1.32,-1.29 1.32,-3.89 0,-2.6 -0.44,-3.89 -1.32,-3.89 h -18.15 c -0.83,0 -1.25,1.3 -1.25,3.89 0,2.59 0.42,3.89 1.25,3.89"
       id="path157"
       inkscape:connector-curvature="0"
       style="fill:#f7f4ff;fill-opacity:1;stroke:#00ffff;stroke-opacity:1" />
    <path
       d="m 673.85916,37.599155 h 18.16 c 0.88,0 1.32,-1.29 1.32,-3.89 0,-2.6 -0.44,-3.89 -1.32,-3.89 h -18.16 c -0.82,0 -1.24,1.3 -1.24,3.89 0,2.59 0.42,3.89 1.24,3.89"
       id="path159"
       inkscape:connector-curvature="0"
       style="fill:#f7f4ff;fill-opacity:1;stroke:#00ffff;stroke-opacity:1" />
    <path
       d="m 283.35916,27.229159 h 28.46 c 0.88,0 1.33,-1.3 1.33,-3.89 0,-2.59 -0.45,-3.89 -1.33,-3.89 h -28.46 c -0.83,0 -1.24,1.3 -1.24,3.89 0,2.59 0.41,3.89 1.24,3.89"
       id="path161"
       inkscape:connector-curvature="0"
       style="fill:#f7f4ff;fill-opacity:1;stroke:#00ffff;stroke-opacity:1" />
    <path
       d="m 345.35916,27.229159 h 59.49 c 0.88,0 1.32,-1.3 1.32,-3.89 0,-2.59 -0.44,-3.89 -1.32,-3.89 h -59.49 c -0.83,0 -1.24,1.29 -1.24,3.89 0,2.6 0.42,3.89 1.24,3.89"
       id="path163"
       inkscape:connector-curvature="0"
       style="fill:#f7f4ff;fill-opacity:1;stroke:#00ffff;stroke-opacity:1" />
    <path
       d="m 448.77916,27.229159 h 38.83 c 0.88,0 1.32,-1.3 1.32,-3.89 0,-2.59 -0.44,-3.89 -1.32,-3.89 h -38.83 c -0.83,0 -1.24,1.29 -1.24,3.89 0,2.6 0.41,3.89 1.24,3.89"
       id="path165"
       inkscape:connector-curvature="0"
       style="fill:#f7f4ff;fill-opacity:1;stroke:#00ffff;stroke-opacity:1" />
    <path
       d="m 531.47916,27.229159 h 28.46 c 0.88,0 1.33,-1.3 1.33,-3.89 0,-2.59 -0.45,-3.89 -1.33,-3.89 h -28.46 c -0.82,0 -1.24,1.3 -1.24,3.89 0,2.59 0.42,3.89 1.24,3.89"
       id="path167"
       inkscape:connector-curvature="0"
       style="fill:#f7f4ff;fill-opacity:1;stroke:#00ffff;stroke-opacity:1" />
    <path
       d="m 593.50916,27.229159 h 49.11 c 0.88,0 1.32,-1.3 1.32,-3.89 0,-2.59 -0.44,-3.89 -1.32,-3.89 h -49.11 c -0.83,0 -1.24,1.29 -1.24,3.89 0,2.6 0.41,3.89 1.24,3.89"
       id="path169"
       inkscape:connector-curvature="0"
       style="fill:#f7f4ff;fill-opacity:1;stroke:#00ffff;stroke-opacity:1" />
    <path
       d="m 676.21916,27.229159 h 69.82 c 0.88,0 1.32,-1.3 1.32,-3.89 0,-2.59 -0.44,-3.89 -1.32,-3.89 h -69.82 c -0.84,0 -1.25,1.29 -1.25,3.89 0,2.6 0.42,3.89 1.25,3.89"
       id="path171"
       inkscape:connector-curvature="0"
       style="fill:#f7f4ff;fill-opacity:1;stroke:#00ffff;stroke-opacity:1" />
    <path
       d="m 255.64916,58.249155 h 18.11 c 0.88,0 1.33,-1.3 1.33,-3.89 0,-2.59 -0.45,-3.89 -1.33,-3.89 h -18.11 c -0.84,0 -1.25,1.3 -1.25,3.89 0,2.59 0.41,3.89 1.25,3.89"
       id="path173"
       inkscape:connector-curvature="0"
       style="fill:#f7f4ff;fill-opacity:1;stroke:#00ffff;stroke-opacity:1" />
    <path
       d="m 307.35916,58.249155 h 18.16 c 0.88,0 1.32,-1.3 1.32,-3.89 0,-2.59 -0.44,-3.89 -1.32,-3.89 h -18.16 c -0.83,0 -1.24,1.3 -1.24,3.89 0,2.59 0.42,3.89 1.24,3.89"
       id="path175"
       inkscape:connector-curvature="0"
       style="fill:#f7f4ff;fill-opacity:1;stroke:#00ffff;stroke-opacity:1" />
    <path
       d="m 338.35916,58.249155 h 18.12 c 0.88,0 1.32,-1.3 1.32,-3.89 0,-2.59 -0.44,-3.89 -1.32,-3.89 h -18.12 c -0.83,0 -1.24,1.3 -1.24,3.89 0,2.59 0.41,3.89 1.24,3.89"
       id="path177"
       inkscape:connector-curvature="0"
       style="fill:#f7f4ff;fill-opacity:1;stroke:#00ffff;stroke-opacity:1" />
    <path
       d="m 379.71916,58.249155 h 28.45 c 0.89,0 1.33,-1.3 1.33,-3.89 0,-2.59 -0.44,-3.89 -1.33,-3.89 h -28.45 c -0.83,0 -1.25,1.3 -1.25,3.89 0,2.59 0.41,3.89 1.25,3.89"
       id="path179"
       inkscape:connector-curvature="0"
       style="fill:#f7f4ff;fill-opacity:1;stroke:#00ffff;stroke-opacity:1" />
    <path
       d="m 421.05916,58.249155 h 18.15 c 0.88,0 1.32,-1.3 1.32,-3.89 0,-2.59 -0.44,-3.89 -1.32,-3.89 h -18.15 c -0.83,0 -1.25,1.3 -1.25,3.89 0,2.59 0.42,3.89 1.25,3.89"
       id="path181"
       inkscape:connector-curvature="0"
       style="fill:#f7f4ff;fill-opacity:1;stroke:#00ffff;stroke-opacity:1" />
    <path
       d="m 503.75916,58.249155 h 18.12 c 0.88,0 1.32,-1.3 1.32,-3.89 0,-2.59 -0.44,-3.89 -1.32,-3.89 h -18.12 c -0.83,0 -1.24,1.3 -1.25,3.89 -0.01,2.59 0.42,3.89 1.25,3.89"
       id="path183"
       inkscape:connector-curvature="0"
       style="fill:#f7f4ff;fill-opacity:1;stroke:#00ffff;stroke-opacity:1" />
    <path
       d="m 555.46916,58.249155 h 18.15 c 0.85,0 1.27,-1.3 1.27,-3.89 0,-2.59 -0.44,-3.89 -1.32,-3.89 h -18.15 c -0.83,0 -1.24,1.3 -1.24,3.89 0,2.59 0.41,3.89 1.24,3.89"
       id="path185"
       inkscape:connector-curvature="0"
       style="fill:#f7f4ff;fill-opacity:1;stroke:#00ffff;stroke-opacity:1" />
    <path
       d="m 586.45916,58.249155 h 18.12 c 0.88,0 1.32,-1.3 1.32,-3.89 0,-2.59 -0.44,-3.89 -1.32,-3.89 h -18.12 c -0.83,0 -1.24,1.3 -1.24,3.89 0,2.59 0.42,3.89 1.24,3.89"
       id="path187"
       inkscape:connector-curvature="0"
       style="fill:#f7f4ff;fill-opacity:1;stroke:#00ffff;stroke-opacity:1" />
    <path
       d="m 638.17916,58.249155 h 18.11 c 0.88,0 1.32,-1.3 1.32,-3.89 0,-2.59 -0.44,-3.89 -1.32,-3.89 h -18.11 c -0.83,0 -1.25,1.3 -1.25,3.89 0,2.59 0.41,3.89 1.25,3.89"
       id="path189"
       inkscape:connector-curvature="0"
       style="fill:#f7f4ff;fill-opacity:1;stroke:#00ffff;stroke-opacity:1" />
    <path
       d="m 669.15916,58.249155 h 59.48 c 0.88,0 1.32,-1.3 1.32,-3.89 0,-2.59 -0.44,-3.89 -1.32,-3.89 h -59.48 c -0.83,0 -1.25,1.3 -1.25,3.89 0,2.59 0.42,3.89 1.25,3.89"
       id="path191"
       inkscape:connector-curvature="0"
       style="fill:#f7f4ff;fill-opacity:1;stroke:#00ffff;stroke-opacity:1" />
    <path
       d="m 250.94916,78.929155 h 18.11 c 0.88,0 1.32,-1.3 1.32,-3.89 0,-2.59 -0.44,-3.89 -1.32,-3.89 h -18.11 c -0.83,0 -1.25,1.3 -1.24,3.89 0.01,2.59 0.42,3.89 1.24,3.89"
       id="path193"
       inkscape:connector-curvature="0"
       style="fill:#f7f4ff;fill-opacity:1;stroke:#00ffff;stroke-opacity:1" />
    <path
       d="m 302.65916,78.929155 h 18.11 c 0.88,0 1.32,-1.3 1.32,-3.89 0,-2.59 -0.44,-3.89 -1.32,-3.89 h -18.11 c -0.83,0 -1.24,1.3 -1.25,3.89 -0.01,2.59 0.41,3.89 1.25,3.89"
       id="path195"
       inkscape:connector-curvature="0"
       style="fill:#f7f4ff;fill-opacity:1;stroke:#00ffff;stroke-opacity:1" />
    <path
       d="m 333.65916,78.929155 h 18.11 c 0.89,0 1.33,-1.3 1.33,-3.89 0,-2.59 -0.45,-3.89 -1.33,-3.89 h -18.11 c -0.83,0 -1.25,1.3 -1.25,3.89 0,2.59 0.42,3.89 1.25,3.89"
       id="path197"
       inkscape:connector-curvature="0"
       style="fill:#f7f4ff;fill-opacity:1;stroke:#00ffff;stroke-opacity:1" />
    <path
       d="m 364.67916,78.929155 h 28.46 c 0.88,0 1.32,-1.3 1.32,-3.89 0,-2.59 -0.44,-3.89 -1.32,-3.89 h -28.46 c -0.83,0 -1.25,1.3 -1.24,3.89 0.01,2.59 0.42,3.89 1.24,3.89"
       id="path199"
       inkscape:connector-curvature="0"
       style="fill:#f7f4ff;fill-opacity:1;stroke:#00ffff;stroke-opacity:1" />
    <path
       d="m 426.69916,78.929155 h 18.12 c 0.88,0 1.32,-1.3 1.32,-3.89 0,-2.59 -0.44,-3.89 -1.32,-3.89 h -18.12 c -0.82,0 -1.24,1.3 -1.25,3.89 -0.01,2.59 0.42,3.89 1.25,3.89"
       id="path201"
       inkscape:connector-curvature="0"
       style="fill:#f7f4ff;fill-opacity:1;stroke:#00ffff;stroke-opacity:1" />
    <path
       d="m 468.05916,78.929155 h 18.16 c 0.88,0 1.32,-1.3 1.32,-3.89 0,-2.59 -0.44,-3.89 -1.32,-3.89 h -18.16 c -0.83,0 -1.24,1.3 -1.24,3.89 0,2.59 0.41,3.89 1.24,3.89"
       id="path203"
       inkscape:connector-curvature="0"
       style="fill:#f7f4ff;fill-opacity:1;stroke:#00ffff;stroke-opacity:1" />
    <path
       d="m 499.05916,78.929155 h 18.16 c 0.88,0 1.32,-1.3 1.32,-3.89 0,-2.59 -0.44,-3.89 -1.32,-3.89 h -18.16 c -0.82,0 -1.24,1.3 -1.24,3.89 0,2.59 0.42,3.89 1.24,3.89"
       id="path205"
       inkscape:connector-curvature="0"
       style="fill:#f7f4ff;fill-opacity:1;stroke:#00ffff;stroke-opacity:1" />
    <path
       d="m 550.76916,78.929155 h 18.12 c 0.88,0 1.32,-1.3 1.32,-3.89 0,-2.59 -0.44,-3.89 -1.32,-3.89 h -18.12 c -0.83,0 -1.24,1.3 -1.24,3.89 0,2.59 0.41,3.89 1.24,3.89"
       id="path207"
       inkscape:connector-curvature="0"
       style="fill:#f7f4ff;fill-opacity:1;stroke:#00ffff;stroke-opacity:1" />
    <path
       d="m 581.76916,78.929155 h 18.11 c 0.89,0 1.33,-1.3 1.33,-3.89 0,-2.59 -0.44,-3.89 -1.33,-3.89 h -18.11 c -0.83,0 -1.25,1.3 -1.24,3.89 0.01,2.59 0.42,3.89 1.24,3.89"
       id="path209"
       inkscape:connector-curvature="0"
       style="fill:#f7f4ff;fill-opacity:1;stroke:#00ffff;stroke-opacity:1" />
    <path
       d="m 623.13916,78.929155 h 18.09 c 0.88,0 1.32,-1.3 1.32,-3.89 0,-2.59 -0.44,-3.89 -1.32,-3.89 h -18.09 c -0.84,0 -1.25,1.3 -1.25,3.89 0,2.59 0.42,3.89 1.25,3.89"
       id="path211"
       inkscape:connector-curvature="0"
       style="fill:#f7f4ff;fill-opacity:1;stroke:#00ffff;stroke-opacity:1" />
    <path
       d="m 664.46916,78.929155 h 18.16 c 0.88,0 1.32,-1.3 1.32,-3.89 0,-2.59 -0.44,-3.89 -1.32,-3.89 h -18.16 c -0.82,0 -1.24,1.3 -1.24,3.89 0,2.59 0.42,3.89 1.24,3.89"
       id="path213"
       inkscape:connector-curvature="0"
       style="fill:#f7f4ff;fill-opacity:1;stroke:#00ffff;stroke-opacity:1" />
    <path
       d="m 248.59916,89.269155 h 18.12 c 0.88,0 1.32,-1.29 1.32,-3.89 0,-2.6 -0.44,-3.89 -1.32,-3.89 h -18.12 c -0.83,0 -1.24,1.3 -1.24,3.89 0,2.59 0.42,3.89 1.24,3.89"
       id="path215"
       inkscape:connector-curvature="0"
       style="fill:#f7f4ff;fill-opacity:1;stroke:#00ffff;stroke-opacity:1" />
    <path
       d="m 300.35916,89.269155 h 18.12 c 0.88,0 1.32,-1.29 1.32,-3.89 0,-2.6 -0.44,-3.89 -1.32,-3.89 h -18.12 c -0.83,0 -1.24,1.3 -1.24,3.89 0,2.59 0.41,3.89 1.24,3.89"
       id="path217"
       inkscape:connector-curvature="0"
       style="fill:#f7f4ff;fill-opacity:1;stroke:#00ffff;stroke-opacity:1" />
    <path
       d="m 331.35916,89.269155 h 18.11 c 0.88,0 1.33,-1.3 1.33,-3.89 0,-2.59 -0.45,-3.89 -1.33,-3.89 h -18.11 c -0.83,0 -1.25,1.3 -1.25,3.89 0,2.59 0.41,3.89 1.25,3.89"
       id="path219"
       inkscape:connector-curvature="0"
       style="fill:#f7f4ff;fill-opacity:1;stroke:#00ffff;stroke-opacity:1" />
    <path
       d="m 372.66916,89.269155 h 28.46 c 0.88,0 1.32,-1.29 1.32,-3.89 0,-2.6 -0.44,-3.89 -1.32,-3.89 h -28.46 c -0.82,0 -1.24,1.3 -1.24,3.89 0,2.59 0.42,3.89 1.24,3.89"
       id="path221"
       inkscape:connector-curvature="0"
       style="fill:#f7f4ff;fill-opacity:1;stroke:#00ffff;stroke-opacity:1" />
    <path
       d="m 434.68916,89.269155 h 38.8 c 0.88,0 1.32,-1.29 1.32,-3.89 0,-2.6 -0.44,-3.89 -1.32,-3.89 h -38.8 c -0.82,0 -1.24,1.3 -1.24,3.89 0,2.59 0.42,3.89 1.24,3.89"
       id="path223"
       inkscape:connector-curvature="0"
       style="fill:#f7f4ff;fill-opacity:1;stroke:#00ffff;stroke-opacity:1" />
    <path
       d="m 496.68916,89.269155 h 18.15 c 0.89,0 1.33,-1.29 1.33,-3.89 0,-2.6 -0.44,-3.89 -1.33,-3.89 h -18.15 c -0.83,0 -1.24,1.3 -1.24,3.89 0,2.59 0.41,3.89 1.24,3.89"
       id="path225"
       inkscape:connector-curvature="0"
       style="fill:#f7f4ff;fill-opacity:1;stroke:#00ffff;stroke-opacity:1" />
    <path
       d="m 548.41916,89.269155 h 18.09 c 0.88,0 1.32,-1.29 1.32,-3.89 0,-2.6 -0.44,-3.89 -1.32,-3.89 h -18.09 c -0.83,0 -1.24,1.3 -1.24,3.89 0,2.59 0.42,3.89 1.24,3.89"
       id="path227"
       inkscape:connector-curvature="0"
       style="fill:#f7f4ff;fill-opacity:1;stroke:#00ffff;stroke-opacity:1" />
    <path
       d="m 579.41916,89.269155 h 49.14 c 0.88,0 1.33,-1.29 1.33,-3.89 0,-2.6 -0.45,-3.89 -1.33,-3.89 h -49.14 c -0.83,0 -1.24,1.3 -1.24,3.89 0,2.59 0.41,3.89 1.24,3.89"
       id="path229"
       inkscape:connector-curvature="0"
       style="fill:#f7f4ff;fill-opacity:1;stroke:#00ffff;stroke-opacity:1" />
    <path
       d="m 662.12916,89.269155 h 69.82 c 0.88,0 1.33,-1.3 1.33,-3.89 0,-2.59 -0.45,-3.89 -1.33,-3.89 h -69.82 c -0.83,0 -1.25,1.3 -1.25,3.89 0,2.59 0.42,3.89 1.25,3.89"
       id="path231"
       inkscape:connector-curvature="0"
       style="fill:#f7f4ff;fill-opacity:1;stroke:#00ffff;stroke-opacity:1" />
    <path
       d="m 257.98916,47.909155 h 18.16 c 0.88,0 1.32,-1.3 1.32,-3.89 0,-2.59 -0.44,-3.89 -1.32,-3.89 h -18.16 c -0.82,0 -1.24,1.3 -1.24,3.89 0,2.59 0.42,3.89 1.24,3.89"
       id="path233"
       inkscape:connector-curvature="0"
       style="fill:#f7f4ff;fill-opacity:1;stroke:#00ffff;stroke-opacity:1" />
    <path
       d="m 309.69916,47.909155 h 18.12 c 0.88,0 1.32,-1.3 1.32,-3.89 0,-2.59 -0.44,-3.89 -1.32,-3.89 h -18.12 c -0.83,0 -1.25,1.3 -1.24,3.89 0.01,2.59 0.42,3.89 1.24,3.89"
       id="path235"
       inkscape:connector-curvature="0"
       style="fill:#f7f4ff;fill-opacity:1;stroke:#00ffff;stroke-opacity:1" />
    <path
       d="m 340.69916,47.909155 h 18.11 c 0.88,0 1.32,-1.3 1.32,-3.89 0,-2.59 -0.44,-3.89 -1.32,-3.89 h -18.11 c -0.83,0 -1.24,1.3 -1.25,3.89 -0.01,2.59 0.41,3.89 1.25,3.89"
       id="path237"
       inkscape:connector-curvature="0"
       style="fill:#f7f4ff;fill-opacity:1;stroke:#00ffff;stroke-opacity:1" />
    <path
       d="m 392.40916,47.909155 h 18.15 c 0.88,0 1.32,-1.3 1.32,-3.89 0,-2.59 -0.44,-3.89 -1.32,-3.89 h -18.15 c -0.83,0 -1.25,1.3 -1.25,3.89 0,2.59 0.42,3.89 1.25,3.89"
       id="path239"
       inkscape:connector-curvature="0"
       style="fill:#f7f4ff;fill-opacity:1;stroke:#00ffff;stroke-opacity:1" />
    <path
       d="m 423.35916,47.909155 h 18.16 c 0.88,0 1.32,-1.3 1.32,-3.89 0,-2.59 -0.44,-3.89 -1.32,-3.89 h -18.16 c -0.82,0 -1.24,1.3 -1.24,3.89 0,2.59 0.42,3.89 1.24,3.89"
       id="path241"
       inkscape:connector-curvature="0"
       style="fill:#f7f4ff;fill-opacity:1;stroke:#00ffff;stroke-opacity:1" />
    <path
       d="m 506.10916,47.909155 h 18.11 c 0.89,0 1.33,-1.3 1.33,-3.89 0,-2.59 -0.45,-3.89 -1.33,-3.89 h -18.11 c -0.83,0 -1.25,1.3 -1.24,3.89 0.01,2.59 0.42,3.89 1.24,3.89"
       id="path243"
       inkscape:connector-curvature="0"
       style="fill:#f7f4ff;fill-opacity:1;stroke:#00ffff;stroke-opacity:1" />
    <path
       d="m 557.80916,47.909155 h 18.16 c 0.88,0 1.32,-1.3 1.32,-3.89 0,-2.59 -0.44,-3.89 -1.32,-3.89 h -18.16 c -0.82,0 -1.24,1.3 -1.24,3.89 0,2.59 0.42,3.89 1.24,3.89"
       id="path245"
       inkscape:connector-curvature="0"
       style="fill:#f7f4ff;fill-opacity:1;stroke:#00ffff;stroke-opacity:1" />
    <path
       d="m 588.81916,47.909155 h 18.11 c 0.88,0 1.32,-1.3 1.32,-3.89 0,-2.59 -0.44,-3.89 -1.32,-3.89 h -18.11 c -0.84,0 -1.25,1.3 -1.25,3.89 0,2.59 0.41,3.89 1.25,3.89"
       id="path247"
       inkscape:connector-curvature="0"
       style="fill:#f7f4ff;fill-opacity:1;stroke:#00ffff;stroke-opacity:1" />
    <path
       d="m 640.52916,47.909155 h 18.15 c 0.88,0 1.32,-1.3 1.32,-3.89 0,-2.59 -0.44,-3.89 -1.32,-3.89 h -18.15 c -0.83,0 -1.25,1.3 -1.24,3.89 0.01,2.59 0.41,3.89 1.24,3.89"
       id="path249"
       inkscape:connector-curvature="0"
       style="fill:#f7f4ff;fill-opacity:1;stroke:#00ffff;stroke-opacity:1" />
    <path
       d="m 671.51916,47.909155 h 18.15 c 0.88,0 1.32,-1.3 1.32,-3.89 0,-2.59 -0.44,-3.89 -1.32,-3.89 h -18.15 c -0.83,0 -1.25,1.3 -1.25,3.89 0,2.59 0.42,3.89 1.25,3.89"
       id="path251"
       inkscape:connector-curvature="0"
       style="fill:#f7f4ff;fill-opacity:1;stroke:#00ffff;stroke-opacity:1" />
    <path
       d="m 253.29916,68.589155 h 69.82 c 0.88,0 1.33,-1.3 1.33,-3.89 0,-2.59 -0.45,-3.89 -1.33,-3.89 h -69.82 c -0.83,0 -1.25,1.3 -1.25,3.89 0,2.59 0.42,3.89 1.25,3.89"
       id="path253"
       inkscape:connector-curvature="0"
       style="fill:#f7f4ff;fill-opacity:1;stroke:#00ffff;stroke-opacity:1" />
    <path
       d="m 335.99916,68.589155 h 49.14 c 0.88,0 1.32,-1.3 1.32,-3.89 0,-2.59 -0.44,-3.89 -1.32,-3.89 h -49.14 c -0.83,0 -1.24,1.3 -1.24,3.89 0,2.59 0.41,3.89 1.24,3.89"
       id="path255"
       inkscape:connector-curvature="0"
       style="fill:#f7f4ff;fill-opacity:1;stroke:#00ffff;stroke-opacity:1" />
    <path
       d="m 418.70916,68.589155 h 18.11 c 0.89,0 1.33,-1.3 1.33,-3.89 0,-2.59 -0.44,-3.89 -1.33,-3.89 h -18.11 c -0.83,0 -1.25,1.3 -1.24,3.89 0.01,2.59 0.42,3.89 1.24,3.89"
       id="path257"
       inkscape:connector-curvature="0"
       style="fill:#f7f4ff;fill-opacity:1;stroke:#00ffff;stroke-opacity:1" />
    <path
       d="m 501.40916,68.589155 h 69.82 c 0.88,0 1.33,-1.3 1.33,-3.89 0,-2.59 -0.45,-3.89 -1.33,-3.89 h -69.82 c -0.82,0 -1.24,1.3 -1.24,3.89 0,2.59 0.42,3.89 1.24,3.89"
       id="path259"
       inkscape:connector-curvature="0"
       style="fill:#f7f4ff;fill-opacity:1;stroke:#00ffff;stroke-opacity:1" />
    <path
       d="m 584.11916,68.589155 h 18.12 c 0.88,0 1.32,-1.3 1.32,-3.89 0,-2.59 -0.44,-3.89 -1.32,-3.89 h -18.12 c -0.84,0 -1.25,1.3 -1.25,3.89 0,2.59 0.42,3.89 1.25,3.89"
       id="path261"
       inkscape:connector-curvature="0"
       style="fill:#f7f4ff;fill-opacity:1;stroke:#00ffff;stroke-opacity:1" />
    <path
       d="m 635.81916,68.589155 h 18.16 c 0.88,0 1.32,-1.3 1.32,-3.89 0,-2.59 -0.44,-3.89 -1.32,-3.89 h -18.16 c -0.82,0 -1.24,1.3 -1.24,3.89 0,2.59 0.42,3.89 1.24,3.89"
       id="path263"
       inkscape:connector-curvature="0"
       style="fill:#f7f4ff;fill-opacity:1;stroke:#00ffff;stroke-opacity:1" />
    <path
       d="m 666.81916,68.589155 h 18.12 c 0.88,0 1.32,-1.3 1.32,-3.89 0,-2.59 -0.44,-3.89 -1.32,-3.89 h -18.12 c -0.82,0 -1.24,1.3 -1.25,3.89 -0.01,2.59 0.42,3.89 1.25,3.89"
       id="path265"
       inkscape:connector-curvature="0"
       style="fill:#f7f4ff;fill-opacity:1;stroke:#00ffff;stroke-opacity:1" />
  </g>
</svg>
