<?xml version="1.0" encoding="UTF-8" standalone="no"?>
<svg
   xmlns:dc="http://purl.org/dc/elements/1.1/"
   xmlns:cc="http://creativecommons.org/ns#"
   xmlns:rdf="http://www.w3.org/1999/02/22-rdf-syntax-ns#"
   xmlns:svg="http://www.w3.org/2000/svg"
   xmlns="http://www.w3.org/2000/svg"
   xmlns:sodipodi="http://sodipodi.sourceforge.net/DTD/sodipodi-0.dtd"
   xmlns:inkscape="http://www.inkscape.org/namespaces/inkscape"
   viewBox="0 0 1000 114"
   version="1.1"
   id="svg184"
   sodipodi:docname="system.svg"
   inkscape:version="0.92.4 (5da689c313, 2019-01-14)">
  <metadata
     id="metadata190">
    <rdf:RDF>
      <cc:Work
         rdf:about="">
        <dc:format>image/svg+xml</dc:format>
        <dc:type
           rdf:resource="http://purl.org/dc/dcmitype/StillImage" />
        <dc:title>logo</dc:title>
      </cc:Work>
    </rdf:RDF>
  </metadata>
  <defs
     id="defs188" />
  <sodipodi:namedview
     pagecolor="#ffffff"
     bordercolor="#666666"
     borderopacity="1"
     objecttolerance="10"
     gridtolerance="10"
     guidetolerance="10"
     inkscape:pageopacity="0"
     inkscape:pageshadow="2"
     inkscape:window-width="1920"
     inkscape:window-height="1017"
     id="namedview186"
     showgrid="false"
     inkscape:zoom="2.272"
     inkscape:cx="424.95599"
     inkscape:cy="57"
     inkscape:window-x="-8"
     inkscape:window-y="-8"
     inkscape:window-maximized="1"
     inkscape:current-layer="svg184"
     inkscape:pagecheckerboard="true" />
  <title
     id="title2">logo</title>
  <g
     id="g862">
    <path
       sodipodi:nodetypes="cccccccccscscccscccccc"
       d="m 639.09624,4.9527146 h -0.0467 c -23.51566,0.015046 -47.027,0.021333 -70.53403,0.018864 l -37.85028,-0.00221 -37.85302,-0.0023 -33.96211,7.358e-4 -33.96145,5.885e-4 c -26.10283,0 -52.20571,-0.0029 -78.30864,-0.0087 -6.72391,-0.069373 -13.41606,0.7960191 -19.81271,2.5620674 -27.97064,7.8119357 -45.23113,31.6803127 -40.83492,56.4678857 4.3962,24.787574 29.16424,43.249864 58.59633,43.678134 4.22963,0.0384 8.78274,0.0562 14.32911,0.0562 3.44448,0 6.88884,-0.004 10.33309,-0.0134 3.42576,-0.007 6.85164,-0.0113 10.27763,-0.0134 l 35.28403,1.2e-4 h 56.17969 c 56.08155,0 112.16298,0.002 168.24429,0.006 6.62527,0.0562 13.21785,-0.79755 19.52401,-2.52843 27.87102,-7.651954 45.19683,-31.308521 41.00682,-55.990486 C 697.32516,33.611611 686.54796,19.876963 670.56467,12.044459 661.04176,7.258629 650.15228,4.8045954 639.09624,4.9527904 Z"
       id="path11"
       inkscape:connector-curvature="0"
       style="fill:none;stroke:#00ffff;stroke-width:1.74393952;stroke-miterlimit:4;stroke-dasharray:none;stroke-opacity:1" />
    <path
       d="m 373.88834,63.002012 v -1.082513 c 0,-7.999796 0.0173,-16.000182 -0.0247,-23.99942 -0.006,-0.863361 0.26663,-1.071446 1.25626,-1.058348 3.73299,0.05165 7.46599,0.04 11.2002,0.0053 0.78002,-0.0061 1.00448,0.165555 1.00207,0.846173 q -0.037,18.100973 10e-4,36.204005 c 10e-4,0.720793 -0.22585,0.91843 -1.06978,0.909453 q -5.66073,-0.05827 -11.32119,0.0037 A 1.6566336,1.4108285 0 0 1 373.3255,74.04114 Q 363.72776,61.33595 354.09045,48.652989 a 3.8078381,3.2428454 0 0 0 -0.94521,-0.926523 v 1.035715 c 0,8.273075 -0.0286,16.54659 0.0358,24.819664 0.007,1.084573 -0.3677,1.272791 -1.53015,1.252189 -3.57144,-0.06563 -7.14511,-0.04621 -10.71654,-0.0078 -0.85398,0.0083 -1.17228,-0.125087 -1.17123,-0.937413 q 0.0502,-18.049982 -0.001,-36.102171 c -0.002,-0.823363 0.32573,-0.925787 1.15863,-0.919606 4.05388,0.03371 8.10898,0.04047 12.16287,-0.0042 a 1.7459021,1.4868517 0 0 1 1.70173,0.820243 q 9.40715,12.684478 18.85629,25.348294 c 0.0814,-0.01002 0.16537,-0.01901 0.24675,-0.02943 z"
       id="path165"
       inkscape:connector-curvature="0"
       style="fill:#feffff;fill-opacity:1;fill-rule:evenodd;stroke:none;stroke-width:1.59465826;stroke-opacity:1" />
    <path
       d="m 596.98674,50.742745 c 0,-3.722427 -0.012,-7.271499 0.008,-10.821013 0.006,-0.983209 -0.48729,-2.258031 0.18767,-2.87228 0.68602,-0.625727 2.19905,-0.175415 3.348,-0.186452 2.93086,-0.02899 5.86292,0.01153 8.79258,-0.02428 0.78486,-0.0094 1.10316,0.09989 1.10074,0.867659 q -0.0478,18.10605 -0.006,36.211952 c 10e-4,0.647771 -0.15915,0.886348 -0.98362,0.878549 -3.81318,-0.03679 -7.62895,-0.01202 -11.44195,-0.02148 -0.43218,-0.0016 -0.94297,0.173208 -1.04544,-0.511383 -0.09,-0.608951 -0.59478,-0.09874 -0.80573,-0.03003 a 23.789532,20.259731 0 0 1 -7.37722,1.356349 14.714905,12.531563 0 0 1 -13.65483,-6.377174 15.547697,13.240788 0 0 1 20.62713,-19.067303 c 0.3456,0.161288 0.6862,0.327874 1.25021,0.596884 z m -0.01,11.613442 c 0,-1.810193 0.0418,-3.622034 -0.01,-5.430785 A 5.1471936,4.3834724 0 0 0 586.68091,56.62281 c -0.16295,3.786031 -0.10224,7.582038 -0.0222,11.371276 a 3.347015,2.8503975 0 0 0 3.13441,2.891117 11.50378,9.7968924 0 0 0 3.95021,0.03679 3.4644154,2.9503785 0 0 0 3.22209,-3.134963 c 0.042,-1.809221 0.01,-3.620444 0.01,-5.430843 z"
       id="path167"
       inkscape:connector-curvature="0"
       style="fill:#ffffff;fill-opacity:1;fill-rule:evenodd;stroke:none;stroke-width:1.59465826" />
    <path
       d="m 542.01546,52.496097 a 28.06158,23.897908 0 0 0 4.03276,-1.78182 c 7.75474,-3.804542 16.69178,-0.779951 21.19962,4.980945 a 5.361984,4.566393 0 0 1 0.85536,2.622548 q -0.0336,8.202069 0.007,16.405315 c 0.001,0.667815 -0.11232,0.944771 -1.01451,0.935352 q -5.83788,-0.06954 -11.67903,-0.0032 c -0.85139,0.009 -1.06256,-0.199696 -1.05754,-0.910188 0.0346,-5.331922 0.0209,-10.664315 0.0185,-15.996356 a 5.7942605,4.9345299 0 0 0 -6.73177,-4.349331 13.523777,11.51717 0 0 0 -2.66925,0.906509 4.7891693,4.0785704 0 0 0 -3.01968,4.185395 c 0.18144,5.088077 0.0382,10.184101 0.0804,15.276446 0.006,0.733596 -0.23206,0.896944 -1.06375,0.887525 q -5.65704,-0.05916 -11.3163,0 c -0.85657,0.01054 -1.05737,-0.205435 -1.05391,-0.91166 q 0.043,-11.946054 -0.002,-23.891109 c -0.002,-0.757699 0.30206,-0.882345 1.09676,-0.875428 3.73199,0.03252 7.46597,0.05091 11.19794,-0.009 1.00448,-0.01572 1.22774,0.278604 1.13167,1.030448 a 17.476352,14.883277 0 0 0 -0.01,1.497653 z"
       id="path169"
       inkscape:connector-curvature="0"
       style="fill:#ffffff;fill-opacity:1;fill-rule:evenodd;stroke:none;stroke-width:1.59465826" />
    <path
       d="m 430.01564,51.695932 c 1.21929,-0.554501 2.31379,-0.974792 3.31223,-1.519728 a 15.565462,13.255917 0 0 1 19.32509,1.977838 9.896377,8.4279898 0 0 1 3.54431,6.828987 c -0.22464,4.88117 -0.0962,9.774996 -0.0322,14.662787 0.0144,0.982738 -0.35546,1.169779 -1.41178,1.155063 q -5.53824,-0.0788 -11.07804,5.59e-4 c -0.98842,0.0131 -1.28218,-0.19643 -1.27475,-1.05982 0.0481,-5.230087 0.0245,-10.460617 0.0245,-15.690704 a 5.7538771,4.9001385 0 0 0 -7.02155,-4.474859 12.9417,11.021459 0 0 0 -2.54223,0.907981 4.7127053,4.0134518 0 0 0 -2.90253,4.04515 c 0.17661,5.020236 0.0187,10.049155 0.0901,15.073659 0.0156,1.02983 -0.3456,1.221285 -1.46742,1.201713 -3.61082,-0.06416 -7.22528,-0.04355 -10.83732,-0.0094 -0.80576,0.0073 -1.10332,-0.136123 -1.10073,-0.886495 q 0.0498,-11.998812 0.006,-23.997183 c -10e-4,-0.621164 0.17539,-0.813503 0.93174,-0.806586 q 5.71795,0.04944 11.43849,0.0014 c 0.75773,-0.006 1.10574,0.131414 1.01192,0.832781 a 19.749986,16.819557 0 0 0 -0.0156,1.756803 z"
       id="path171"
       inkscape:connector-curvature="0"
       style="fill:#ffffff;fill-opacity:1;fill-rule:evenodd;stroke:none;stroke-width:1.59465826" />
    <path
       d="m 635.52666,48.257672 a 21.483446,18.295813 0 0 1 13.25876,3.704032 c 8.42591,5.460834 8.61599,14.734306 0.44911,20.465034 a 22.499597,19.161191 0 0 1 -27.44767,0.119936 14.92992,12.714675 0 0 1 0.57001,-20.782901 21.837773,18.597566 0 0 1 13.16979,-3.506101 z m -5.37046,14.070612 h 0.007 c 0,2.45817 -0.0347,4.91634 0.012,7.373481 a 3.4901453,2.9722907 0 0 0 3.07757,3.157036 11.182078,9.5229233 0 0 0 3.23222,0.128147 3.7737446,3.2138106 0 0 0 4.01674,-3.513282 q 0.0648,-7.117569 0,-14.23602 a 4.8014381,4.0890188 0 0 0 -5.05958,-4.424531 4.852224,4.1322692 0 0 0 -5.2768,4.448518 c -0.0408,2.355305 -0.01,4.710905 -0.01,7.066651 z"
       id="path173"
       inkscape:connector-curvature="0"
       style="fill:#ffffff;fill-opacity:1;fill-rule:evenodd;stroke:none;stroke-width:1.59465826" />
    <path
       d="m 511.01617,62.234294 c -3.77136,0 -7.54373,0.01943 -11.31633,-0.01531 -0.79954,-0.0073 -1.11058,0.120377 -1.08708,0.875017 0.0654,2.117023 0.002,4.23793 0.0308,6.356012 a 3.772224,3.2125156 0 0 0 3.98114,3.535976 10.465684,8.9128252 0 0 0 3.11455,-0.126117 3.772224,3.2125156 0 0 0 3.25555,-3.40768 c 0.0259,-0.955779 0.0322,-1.914236 -10e-4,-2.870191 -0.0185,-0.476653 0.1332,-0.65045 0.7306,-0.647948 q 6.07875,0.03091 12.15769,0 c 0.9663,-0.0061 0.68622,0.420409 0.50112,0.83337 a 16.571158,14.112392 0 0 1 -7.28957,7.11183 22.5579,19.210844 0 0 1 -25.54727,-1.712508 14.642467,12.469873 0 0 1 -0.053,-19.623717 22.560509,19.213066 0 0 1 28.67425,0.185835 15.235309,12.974751 0 0 1 5.19299,8.519009 c 0.0888,0.749341 -0.0605,1.017468 -1.0266,1.005224 -3.77136,-0.04562 -7.54393,-0.01881 -11.31632,-0.01881 z m -7.19211,-4.277958 h 1.92275 c 3.47987,0 3.47987,0 3.24052,-2.990891 a 5.0691053,4.3169705 0 0 0 -5.11505,-4.149193 4.71744,4.017484 0 0 0 -5.17916,3.751417 c -0.12111,0.944771 -0.0236,1.908968 -0.0656,2.862715 -0.0233,0.502848 0.29862,0.534457 0.75046,0.530661 1.48191,-0.01251 2.96525,-0.0047 4.44615,-0.0047 z"
       id="path175"
       inkscape:connector-curvature="0"
       style="fill:#ffffff;fill-opacity:1;fill-rule:evenodd;stroke:none;stroke-width:1.59465826" />
    <path
       d="m 464.17406,61.709981 c 0,-3.967303 -0.0222,-7.933574 0.0222,-11.899877 0.007,-0.734006 -0.2516,-0.919576 -1.07845,-0.893264 -1.68324,0.05256 -3.37133,-0.0043 -5.05699,0.02577 -0.64177,0.01153 -0.90357,-0.105244 -0.92569,-0.721969 -0.0986,-2.725709 -0.12456,-2.725121 3.10488,-2.725121 1.04404,0 2.09055,-0.02899 3.132,0.01104 0.62208,0.02311 0.83668,-0.130972 0.81699,-0.683118 -0.0458,-1.332687 0.0174,-2.667875 -0.0296,-3.999825 -0.0197,-0.583374 0.19509,-0.74684 0.87505,-0.742131 q 5.96213,0.03775 11.9246,-10e-4 c 0.72319,-0.0043 0.98478,0.14716 0.95647,0.796727 -0.0605,1.29722 0.0173,2.598856 -0.0334,3.897254 -0.0223,0.589084 0.20114,0.74787 0.87367,0.734154 1.76602,-0.03779 3.53429,0.01266 5.29909,-0.02574 0.67738,-0.01472 0.86248,0.151428 0.87367,0.733568 0.0494,2.716171 0.0715,2.698217 -3.13196,2.724559 -1.26856,0.01104 -2.96179,-0.466057 -3.68378,0.201757 -0.62931,0.583344 -0.21099,2.007418 -0.21099,3.059911 -0.007,7.112712 -0.0222,14.224983 0.0185,21.337254 0.006,0.842789 -0.23809,1.088253 -1.24761,1.074713 -3.81318,-0.05312 -7.62875,-0.04329 -11.44214,-0.0049 -0.83289,0.008 -1.08345,-0.166585 -1.07602,-0.897973 0.0432,-3.999972 0.0197,-8.001416 0.0197,-12.001829 z"
       id="path177"
       inkscape:connector-curvature="0"
       style="fill:#ffffff;fill-opacity:1;fill-rule:evenodd;stroke:none;stroke-width:1.59465826" />
    <path
       d="m 409.05612,62.131023 c 0,3.965831 -0.0259,7.931514 0.0223,11.896167 0.01,0.770356 -0.22205,0.971702 -1.12683,0.960076 -3.73283,-0.04621 -7.46703,-0.03944 -11.19882,-0.0043 -0.82944,0.0086 -1.08864,-0.181125 -1.08485,-0.907363 q 0.0425,-11.946054 -10e-4,-23.894905 c -0.002,-0.744633 0.27027,-0.896944 1.08726,-0.888409 q 5.65679,0.05275 11.31858,4.42e-4 c 0.77242,-0.0067 1.0107,0.156579 1.00449,0.840287 -0.0395,3.999236 -0.0197,7.998589 -0.0197,11.998002 z"
       id="path179"
       inkscape:connector-curvature="0"
       style="fill:#ffffff;fill-opacity:1;fill-rule:evenodd;stroke:none;stroke-width:1.59465826" />
    <path
       d="m 402.54441,41.23172 c -1.92637,-4.11e-4 -3.85377,-0.02411 -5.78032,0.01202 -0.68982,0.01368 -0.88474,-0.176445 -0.87248,-0.751255 0.0396,-1.811988 0.0295,-3.62427 0.006,-5.436112 -0.007,-0.474446 0.12845,-0.654275 0.73302,-0.651038 q 5.96031,0.03311 11.92234,4.42e-4 c 0.58856,-0.0025 0.7439,0.157755 0.73664,0.640589 -0.0296,1.845983 -0.0396,3.693143 0.002,5.538536 0.0144,0.582168 -0.26766,0.662076 -0.84637,0.655748 -1.96733,-0.02414 -3.93552,-0.009 -5.90147,-0.009 z"
       id="path181"
       inkscape:connector-curvature="0"
       style="fill:#ffffff;fill-opacity:1;fill-rule:evenodd;stroke:none;stroke-width:1.59465826" />
  </g>
</svg>
