<?xml version="1.0" encoding="UTF-8" standalone="no"?>
<svg
   xmlns:dc="http://purl.org/dc/elements/1.1/"
   xmlns:cc="http://creativecommons.org/ns#"
   xmlns:rdf="http://www.w3.org/1999/02/22-rdf-syntax-ns#"
   xmlns:svg="http://www.w3.org/2000/svg"
   xmlns="http://www.w3.org/2000/svg"
   xmlns:sodipodi="http://sodipodi.sourceforge.net/DTD/sodipodi-0.dtd"
   xmlns:inkscape="http://www.inkscape.org/namespaces/inkscape"
   viewBox="0 0 1000 114"
   version="1.1"
   id="svg184"
   sodipodi:docname="logo.svg"
   inkscape:version="0.92.4 (5da689c313, 2019-01-14)">
  <metadata
     id="metadata190">
    <rdf:RDF>
      <cc:Work
         rdf:about="">
        <dc:format>image/svg+xml</dc:format>
        <dc:type
           rdf:resource="http://purl.org/dc/dcmitype/StillImage" />
        <dc:title>logo</dc:title>
      </cc:Work>
    </rdf:RDF>
  </metadata>
  <defs
     id="defs188" />
  <sodipodi:namedview
     pagecolor="#ffffff"
     bordercolor="#666666"
     borderopacity="1"
     objecttolerance="10"
     gridtolerance="10"
     guidetolerance="10"
     inkscape:pageopacity="0"
     inkscape:pageshadow="2"
     inkscape:window-width="1920"
     inkscape:window-height="1017"
     id="namedview186"
     showgrid="false"
     inkscape:zoom="2.272"
     inkscape:cx="500"
     inkscape:cy="57"
     inkscape:window-x="-8"
     inkscape:window-y="-8"
     inkscape:window-maximized="1"
     inkscape:current-layer="svg184"
     inkscape:pagecheckerboard="true" />
  <title
     id="title2">logo</title>
  <g
     id="g903">
    <path
       sodipodi:nodetypes="cccccccccscscccscccccc"
       d="m 639.09624,-2.9076577 h -0.0467 c -23.51566,0.017667 -47.027,0.02505 -70.53403,0.02215 l -37.85028,-0.0026 -37.85302,-0.0027 -33.96211,8.64e-4 -33.96145,6.91e-4 c -26.10283,0 -52.20571,-0.00341 -78.30864,-0.01022 -6.72391,-0.081459 -13.41606,0.9347075 -19.81271,3.00844996 C 298.79666,9.2819658 281.53617,37.30887 285.93238,66.415119 c 4.3962,29.106249 29.16424,50.785171 58.59633,51.288061 4.22963,0.0451 8.78274,0.066 14.32911,0.066 3.44448,0 6.88884,-0.005 10.33309,-0.0157 3.42576,-0.008 6.85164,-0.0132 10.27763,-0.0157 l 35.28403,1.4e-4 h 56.17969 c 56.08155,0 112.16298,0.002 168.24429,0.007 6.62527,0.066 13.21785,-0.9365 19.52401,-2.96895 27.87102,-8.98513 45.19683,-36.76332 41.00682,-65.745561 -2.38222,-18.286004 -13.15942,-34.413604 -29.14271,-43.6107457 -9.52291,-5.61965307 -20.41239,-8.5012466 -31.46843,-8.327232 z"
       id="path11"
       inkscape:connector-curvature="0"
       style="fill:none;stroke:#00ffff;stroke-width:1.88976383;stroke-miterlimit:4;stroke-dasharray:none;stroke-opacity:1" />
    <path
       d="m 375.28367,34.525501 0.0833,6.92e-4 q 2.69905,0.0438 5.39757,0.0413 2.90071,0 5.80263,-0.03508 l 0.0391,-1.73e-4 c 0.7484,0 0.96526,0.208224 0.96284,0.993773 q -0.037,21.254659 10e-4,42.511737 c 10e-4,0.828403 -0.21614,1.06825 -1.01658,1.06825 l -0.0533,-3.46e-4 q -2.81964,-0.03401 -5.63921,-0.03491 -2.84108,0 -5.682,0.03923 l -0.0422,3.46e-4 a 1.651968,1.651968 0 0 1 -1.56456,-0.927072 Q 363.97452,63.264741 354.33721,48.3718 a 3.8078381,3.8078381 0 0 0 -0.94522,-1.087949 v 1.216166 c 0,9.714471 -0.0286,19.42946 0.0358,29.14393 0.007,1.21513 -0.33403,1.472083 -1.37532,1.472083 -0.0499,0 -0.10164,-5.18e-4 -0.15482,-0.0017 -1.68844,-0.03649 -3.377,-0.05046 -5.06581,-0.05046 -1.88369,0 -3.76756,0.01742 -5.65073,0.0413 l -0.0707,5.19e-4 c -0.80093,0 -1.1016,-0.174183 -1.10057,-1.101255 q 0.0502,-21.194784 -10e-4,-42.39216 c -0.002,-0.941414 0.30862,-1.080173 1.09399,-1.080173 l 0.0647,3.46e-4 q 3.09096,0.03032 6.18227,0.03211 2.99039,0 5.98061,-0.03695 l 0.0442,-3.46e-4 a 1.7398022,1.7398022 0 0 1 1.65745,0.963498 q 9.40715,14.894462 18.85628,29.764662 c 0.0814,-0.01176 0.16538,-0.02232 0.24676,-0.03456 v -1.271116 c 0,-9.393581 0.0173,-18.787853 -0.0247,-28.180778 -0.006,-0.984752 0.25126,-1.243434 1.17296,-1.243434 m 3.5e-4,-12.096 h -3.5e-4 a 13.034304,13.034304 0 0 0 -9.49777,3.805748 12.7872,12.7872 0 0 0 -1.35734,1.609459 13.765024,13.765024 0 0 0 -11.05363,-5.413479 c -0.0582,0 -0.16071,6.92e-4 -0.21916,0.0016 -1.92274,0.02489 -3.86432,0.03574 -5.80573,0.03574 q -3.03213,0 -6.0639,-0.03142 l -0.18299,-10e-4 a 12.857772,12.857772 0 0 0 -13.19,13.223865 c 0.0347,13.679194 0.0348,27.922234 10e-4,42.315955 a 12.882137,12.882137 0 0 0 13.19656,13.225767 c 0.0485,0 0.16744,-6.91e-4 0.216,-0.0014 1.8398,-0.02316 3.67256,-0.04061 5.5054,-0.04061 q 2.40279,0 4.80489,0.04787 l 0.41575,0.0044 a 13.227408,13.227408 0 0 0 9.65849,-3.847738 12.838246,12.838246 0 0 0 1.86071,-2.374617 13.729772,13.729772 0 0 0 11.56537,6.216652 c 0.0511,0 0.14447,-5.18e-4 0.19556,-0.0012 1.85501,-0.02644 3.69187,-0.03836 5.52857,-0.03836 q 2.74649,0 5.4928,0.03404 c 0.0487,6.57e-4 0.15085,0.0012 0.19958,0.0012 A 12.844224,12.844224 0 0 0 399.6661,78.020994 C 399.6404,64.042338 399.6401,49.753852 399.6651,35.5471 A 12.794302,12.794302 0 0 0 386.60592,22.436241 l -0.13795,5.18e-4 c -1.92378,0.02108 -3.81422,0.03473 -5.70413,0.03473 q -2.60055,0 -5.20093,-0.03974 c -0.0654,-0.001 -0.21354,-0.0023 -0.27942,-0.0023 z"
       id="path91"
       inkscape:connector-curvature="0"
       style="fill:none;stroke-width:1.88976378;stroke:#00ffff;stroke-opacity:1;stroke-miterlimit:4;stroke-dasharray:none" />
    <path
       d="m 598.37073,34.390199 c 0.67076,0 1.45337,0.172109 2.11968,0.172109 l 0.0424,-1.73e-4 c 0.90375,-0.01056 1.80732,-0.01325 2.71107,-0.01325 0.98829,0 1.97613,0.0035 2.96421,0.0035 1.03905,0 2.07844,-0.0037 3.11732,-0.01866 l 0.0845,-5.18e-4 c 0.72316,0 1.01847,0.151027 1.01623,1.019347 q -0.0478,21.260621 -0.006,42.521241 c 0.001,0.74857 -0.15414,1.031754 -0.94522,1.031754 l -0.0386,-3.1e-4 c -1.80455,-0.02042 -3.60921,-0.02471 -5.41452,-0.02471 q -1.95177,0 -3.90355,0.0023 -1.06194,0 -2.12371,-0.0028 h -0.006 c -0.14357,0 -0.29549,0.0223 -0.43787,0.0223 -0.28564,0 -0.5336,-0.08899 -0.60169,-0.622772 -0.0329,-0.260928 -0.12096,-0.346844 -0.22983,-0.346844 -0.18956,0 -0.44202,0.260444 -0.57588,0.311593 a 23.789532,23.789532 0 0 1 -7.3788,1.592663 q -0.41912,0.02028 -0.8273,0.02008 a 14.745646,14.745646 0 0 1 -12.82752,-7.508333 15.591744,15.591744 0 0 1 8.79517,-24.111475 14.857862,14.857862 0 0 1 3.79919,-0.500602 16.577015,16.577015 0 0 1 8.03278,2.222727 c 0.3456,0.189389 0.68618,0.384998 1.2502,0.700877 0,-4.370976 -0.012,-8.538394 0.008,-12.70633 0.006,-1.154512 -0.48729,-2.651443 0.18766,-3.37271 a 1.548841,1.548841 0 0 1 1.18598,-0.390874 m -6.43852,40.31545 a 10.870226,10.870226 0 0 0 1.8133,-0.150509 3.4644154,3.4644154 0 0 0 3.22209,-3.681159 c 0.042,-2.124438 0.01,-4.251225 0.01,-6.377046 0,-2.125578 0.0418,-4.253091 -0.01,-6.376976 a 4.954176,4.954176 0 0 0 -4.89185,-5.181062 c -0.0665,-0.002 -0.13248,-0.0031 -0.19837,-0.0031 a 4.947817,4.947817 0 0 0 -5.19437,4.828861 c -0.16295,4.44566 -0.10224,8.903036 -0.0222,13.352463 a 3.347015,3.347015 0 0 0 3.13441,3.394829 12.211379,12.211379 0 0 0 2.13691,0.193709 M 598.37,22.294303 h -6.2e-4 a 13.372145,13.372145 0 0 0 -13.63191,13.713201 27.365455,27.365455 0 0 0 -3.91219,0.732361 28.385959,28.385959 0 0 0 -18.88463,16.930771 27.56694,27.56694 0 0 0 2.99981,25.42752 26.830553,26.830553 0 0 0 22.99698,13.054867 q 0.69379,0 1.40497,-0.0339 a 34.891188,34.891188 0 0 0 6.75268,-1.001168 13.15447,13.15447 0 0 0 1.45429,0.08035 c 0.25021,0 0.50631,-0.0079 0.7647,-0.02177 l 1.80276,0.0023 1.96198,-0.001 1.94157,-0.0012 c 1.75946,0 3.51856,0.0042 5.27732,0.02402 l 0.1758,0.001 a 12.804359,12.804359 0 0 0 13.04121,-13.148137 c -0.0244,-16.332365 -0.0224,-29.829427 0.006,-42.473549 a 13.064941,13.064941 0 0 0 -3.74562,-9.383558 12.875225,12.875225 0 0 0 -9.36662,-3.759091 c -0.0554,0 -0.19527,0.001 -0.25073,0.0017 -0.9879,0.01411 -1.96957,0.01728 -2.95108,0.01728 l -1.46188,-0.0016 -1.50233,-0.0017 q -1.20269,0 -2.40486,0.0095 a 20.129178,20.129178 0 0 0 -2.46759,-0.168135 z"
       id="path95"
       inkscape:connector-curvature="0"
       style="fill:none;stroke-width:1.88976378;stroke:#00ffff;stroke-opacity:1;stroke-miterlimit:4;stroke-dasharray:none" />
    <path
       d="m 553.35633,48.840772 a 17.11145,17.11145 0 0 1 13.89152,7.834925 5.361984,5.361984 0 0 1 0.85536,3.079468 q -0.0336,9.631095 0.007,19.263572 c 10e-4,0.771379 -0.1086,1.098489 -0.97062,1.098489 l -0.0439,-1.73e-4 q -2.91134,-0.04069 -5.82336,-0.03958 -2.92792,0 -5.85568,0.03577 l -0.0511,3.46e-4 c -0.8087,0 -1.01143,-0.25177 -1.00643,-1.069114 0.0346,-6.260889 0.0209,-12.522332 0.0185,-18.78336 a 5.872297,5.872297 0 0 0 -5.68183,-5.237084 4.2124493,4.2124493 0 0 0 -1.04994,0.129974 13.523777,13.523777 0 0 0 -2.66923,1.064448 4.7891693,4.7891693 0 0 0 -3.01968,4.914605 c 0.18144,5.97456 0.0382,11.958451 0.0804,17.938023 0.006,0.838598 -0.21964,1.042675 -0.99897,1.042675 l -0.0648,-5.19e-4 q -2.83635,-0.03473 -5.67388,-0.03493 -2.82165,0 -5.64243,0.03493 l -0.0582,5.19e-4 c -0.80749,0 -0.99895,-0.260755 -0.99567,-1.071015 q 0.043,-14.027385 -0.002,-28.053596 c -0.002,-0.867456 0.28684,-1.028298 1.03784,-1.028298 l 0.0589,3.46e-4 c 1.95955,0.02004 3.91926,0.03559 5.87933,0.03559 q 2.65914,0 5.31861,-0.04616 l 0.0744,-6.57e-4 c 0.9409,0 1.15085,0.350093 1.05719,1.210637 a 17.476352,17.476352 0 0 0 -0.01,1.758586 28.085011,28.085011 0 0 0 4.03275,-2.09209 14.522717,14.522717 0 0 1 7.30812,-1.986336 m 2.8e-4,-12.096 h -1.6e-4 a 26.545985,26.545985 0 0 0 -8.87277,1.538611 14.163414,14.163414 0 0 0 -3.51423,-0.429408 c -0.0715,0 -0.21756,0.0014 -0.2891,0.0026 -1.70985,0.03232 -3.4071,0.04423 -5.10399,0.04423 -1.91895,0 -3.83718,-0.01538 -5.75561,-0.03491 l -0.18265,-0.001 a 12.89952,12.89952 0 0 0 -9.39479,3.770496 13.07232,13.07232 0 0 0 -3.73888,9.405504 c 0.0325,8.868234 0.0337,18.018202 0.002,27.964916 a 12.834253,12.834253 0 0 0 13.09168,13.203993 c 0.0563,0 0.1709,-8.99e-4 0.2274,-0.0017 1.81147,-0.02246 3.64244,-0.03372 5.47326,-0.03372 q 2.76307,0 5.52545,0.03407 c 0.0494,4.84e-4 0.16364,0.0014 0.21324,0.0014 a 13.123693,13.123693 0 0 0 7.17863,-2.008454 13.23845,13.23845 0 0 0 7.14861,2.008281 c 0.0482,0 0.14758,-5.18e-4 0.19573,-0.0012 q 2.85405,-0.03396 5.71104,-0.03491 2.82788,0 5.65437,0.03836 c 0.0563,8.64e-4 0.15655,0.0016 0.21288,0.0016 A 12.819133,12.819133 0 0 0 580.20793,78.98157 c -0.0288,-6.013267 -0.0312,-12.281587 -0.007,-19.184429 A 17.505539,17.505539 0 0 0 577.31324,49.964994 29.332126,29.332126 0 0 0 553.35811,36.74493 Z"
       id="path99"
       inkscape:connector-curvature="0"
       style="fill:none;stroke-width:1.88976378;stroke:#00ffff;stroke-opacity:1;stroke-miterlimit:4;stroke-dasharray:none" />
    <path
       d="m 441.33491,47.819869 a 16.582009,16.582009 0 0 1 11.31805,4.697568 9.896377,9.896377 0 0 1 3.54431,8.018784 c -0.22464,5.731604 -0.0962,11.478068 -0.0322,17.217447 0.012,1.114214 -0.3304,1.357344 -1.30479,1.357344 l -0.10704,-0.001 q -2.74959,-0.04588 -5.49971,-0.04562 -2.7895,0 -5.57833,0.04628 l -0.0833,7.26e-4 c -0.92174,0 -1.19874,-0.26041 -1.19148,-1.245197 0.0481,-6.141312 0.0245,-12.283142 0.0245,-18.424454 a 5.801881,5.801881 0 0 0 -5.7164,-5.432003 4.8268397,4.8268397 0 0 0 -1.30516,0.1775 12.9417,12.9417 0 0 0 -2.54223,1.066176 4.7127053,4.7127053 0 0 0 -2.90252,4.749927 c 0.1766,5.894899 0.0187,11.799993 0.0901,17.699904 0.0156,1.156723 -0.31467,1.412813 -1.3252,1.412813 -0.046,0 -0.0935,-5.19e-4 -0.14228,-0.0017 -1.70467,-0.03559 -3.40969,-0.0489 -5.11539,-0.0489 -1.9072,0 -3.81526,0.01676 -5.72193,0.03785 l -0.0563,3.45e-4 c -0.76326,0 -1.047,-0.181094 -1.0444,-1.041293 q 0.0498,-14.089075 0.006,-28.17815 c -10e-4,-0.716774 0.16917,-0.94729 0.8932,-0.94729 l 0.0386,1.73e-4 q 2.84627,0.02903 5.69358,0.02834 2.87246,0 5.74492,-0.02662 l 0.0452,-1.73e-4 c 0.7261,0 1.05857,0.171245 0.96664,0.978048 a 19.749986,19.749986 0 0 0 -0.0156,2.062887 c 1.21928,-0.651111 2.31379,-1.144627 3.31222,-1.784506 a 14.708736,14.708736 0 0 1 8.00704,-2.375136 m 10e-4,-12.096 h -1.7e-4 a 26.690359,26.690359 0 0 0 -8.87741,1.519949 14.135507,14.135507 0 0 0 -3.39468,-0.401242 l -0.15448,6.92e-4 q -2.81724,0.02566 -5.6357,0.02609 -2.78614,0 -5.57072,-0.02765 l -0.1614,-8.64e-4 A 12.752743,12.752743 0 0 0 404.5526,49.905101 c 0.0274,10.335686 0.0257,19.528646 -0.006,28.114387 a 13.091846,13.091846 0 0 0 3.74838,9.410688 12.907693,12.907693 0 0 0 9.39186,3.769459 l 0.18783,-0.001 c 1.86471,-0.02074 3.72799,-0.03715 5.59042,-0.03715 1.62156,0 3.24225,0.01238 4.86294,0.04631 l 0.39468,0.0042 a 13.536461,13.536461 0 0 0 7.47326,-2.098103 13.348195,13.348195 0 0 0 7.395,2.093645 c 0.0638,0 0.21096,-0.0012 0.27489,-0.002 q 2.70087,-0.04493 5.38669,-0.04493 2.64929,0 5.29754,0.04406 l 0.30916,0.0026 A 13.049856,13.049856 0 0 0 468.25917,77.61202 l -0.0329,-2.663712 c -0.0624,-4.835635 -0.1211,-9.403085 0.0564,-13.938048 a 21.866112,21.866112 0 0 0 -7.30106,-17.263505 28.52083,28.52083 0 0 0 -19.64669,-8.022758 z"
       id="path103"
       inkscape:connector-curvature="0"
       style="fill:none;stroke-width:1.88976378;stroke:#00ffff;stroke-opacity:1;stroke-miterlimit:4;stroke-dasharray:none" />
    <path
       d="m 635.52666,47.942212 a 21.483446,21.483446 0 0 1 13.25876,4.349376 c 8.42591,6.412262 8.61599,17.301427 0.44911,24.030605 a 22.499165,22.499165 0 0 1 -27.44767,0.140832 14.92992,14.92992 0 0 1 0.57001,-24.403853 21.837773,21.837773 0 0 1 13.16979,-4.11696 m -5.37046,16.522099 h 0.007 c 0,2.886451 -0.0347,5.772902 0.012,8.658144 a 3.4901453,3.4901453 0 0 0 3.07757,3.707078 8.6809536,8.6809536 0 0 0 1.95731,0.197684 c 0.42474,0 0.85034,-0.02039 1.27491,-0.04721 a 3.7737446,3.7737446 0 0 0 4.01674,-4.125393 q 0.0648,-8.357645 0,-16.716326 a 4.8009542,4.8009542 0 0 0 -5.05226,-5.195405 h -0.007 a 4.852224,4.852224 0 0 0 -5.2768,5.223571 c -0.0408,2.765664 -0.01,5.531674 -0.01,8.297856 m 5.37344,-28.618099 -0.0874,3.46e-4 a 33.879168,33.879168 0 0 0 -20.23626,6.456844 27.011508,27.011508 0 0 0 -1.01779,43.571002 34.580736,34.580736 0 0 0 42.73984,-0.218108 27.523255,27.523255 0 0 0 10.39772,-21.71626 27.489785,27.489785 0 0 0 -11.2149,-21.274099 33.349312,33.349312 0 0 0 -20.53917,-6.819552 z m 6.73103,20.498746 z M 630.1635,76.560312 Z"
       id="path107"
       inkscape:connector-curvature="0"
       style="fill:none;stroke-width:1.88976378;stroke:#00ffff;stroke-opacity:1;stroke-miterlimit:4;stroke-dasharray:none" />
    <path
       d="m 503.73144,47.941348 a 21.529514,21.529514 0 0 1 14.43467,5.251011 15.235776,15.235776 0 0 1 5.19298,10.003254 c 0.087,0.86089 -0.0541,1.180916 -0.96474,1.180916 l -0.0619,-5.54e-4 c -1.73353,-0.02468 -3.46688,-0.03125 -5.20093,-0.03125 -2.03817,0 -4.07705,0.0092 -6.11539,0.0092 -1.99166,0 -3.98304,0.0064 -5.97526,0.0064 q -2.67002,0 -5.34108,-0.02436 l -0.0613,-1.72e-4 c -0.75409,0 -1.04854,0.164643 -1.02573,1.027641 0.0654,2.485866 0.002,4.976295 0.0308,7.463405 a 3.772224,3.772224 0 0 0 3.98114,4.152038 c 0.41092,0.02678 0.82253,0.04717 1.23361,0.04717 a 8.116295,8.116295 0 0 0 1.88093,-0.195264 3.772224,3.772224 0 0 0 3.25555,-4.001391 c 0.0259,-1.122301 0.0322,-2.247748 -0.001,-3.370257 -0.0185,-0.555759 0.13104,-0.760838 0.71782,-0.760838 h 0.012 q 3.19205,0.01918 6.38392,0.02018 2.88645,0 5.77377,-0.02018 h 0.0206 c 0.94176,0 0.66424,0.497111 0.48055,0.978566 a 16.571158,16.571158 0 0 1 -7.28956,8.350906 22.572864,22.572864 0 0 1 -25.54727,-2.010874 14.642467,14.642467 0 0 1 -0.053,-23.042707 21.810608,21.810608 0 0 1 14.23958,-5.0328 m -4.41138,11.395123 0.0578,-3.45e-4 q 0.98573,-0.0098 1.97217,-0.0084 c 0.82494,0 1.64989,0.0028 2.47398,0.0028 h 1.92273 c 3.47988,0 3.47988,0 3.24053,-3.511987 a 5.0691053,5.0691053 0 0 0 -5.11506,-4.872096 c -0.0648,-0.0017 -0.12888,-0.0026 -0.19284,-0.0026 a 4.6944749,4.6944749 0 0 0 -4.98632,4.407609 c -0.12111,1.109376 -0.0236,2.241562 -0.0656,3.361479 -0.0224,0.565056 0.27129,0.623462 0.69261,0.623462 M 503.732,35.845234 a 33.753214,33.753214 0 0 0 -22.15448,7.981805 26.71882,26.71882 0 0 0 0.0798,41.359852 34.658496,34.658496 0 0 0 39.65903,3.212871 28.501994,28.501994 0 0 0 12.35583,-14.380935 13.204582,13.204582 0 0 0 0.95938,-5.731776 13.652772,13.652772 0 0 0 0.7628,-6.3072 27.45341,27.45341 0 0 0 -9.1035,-17.749152 33.401738,33.401738 0 0 0 -22.55886,-8.385465 z"
       id="path111"
       inkscape:connector-curvature="0"
       style="fill:none;stroke-width:1.88976378;stroke:#00ffff;stroke-opacity:1;stroke-miterlimit:4;stroke-dasharray:none" />
    <path
       d="m 476.98749,38.560209 c 0.70144,0 0.95559,0.18334 0.92781,0.935712 -0.0605,1.523232 0.0173,3.051648 -0.0334,4.576262 -0.0215,0.664934 0.18421,0.862963 0.79747,0.862963 l 0.0762,-8.99e-4 c 0.54968,-0.01382 1.0997,-0.01759 1.64989,-0.01759 0.66114,0 1.32245,0.0055 1.98341,0.0055 0.55537,0 1.11076,-0.0041 1.66579,-0.01812 l 0.078,-0.001 c 0.61361,0 0.78468,0.205977 0.79557,0.86241 0.0494,3.189404 0.0715,3.168322 -3.13197,3.199254 l -0.044,1.72e-4 c -0.73458,0 -1.60411,-0.181958 -2.34369,-0.181958 a 1.6895174,1.6895174 0 0 0 -1.296,0.418694 c -0.6293,0.68498 -0.21099,2.357165 -0.21099,3.593031 -0.007,8.351942 -0.0222,16.703366 0.0185,25.054963 0.006,0.964224 -0.22585,1.262477 -1.17158,1.262477 l -0.0761,-6.91e-4 q -2.78208,-0.04536 -5.56468,-0.0432 -2.93855,0 -5.87744,0.0375 l -0.0521,3.45e-4 c -0.79128,0 -1.03131,-0.214099 -1.02388,-1.054771 0.0432,-4.696877 0.0197,-9.395482 0.0197,-14.092877 0,-4.658515 -0.0222,-9.315821 0.0222,-13.973161 0.007,-0.810916 -0.2217,-1.051626 -0.93761,-1.051626 -0.0449,0 -0.0922,8.64e-4 -0.14083,0.0028 -0.59046,0.02162 -1.18123,0.0275 -1.77258,0.0275 -0.69673,0 -1.39398,-0.008 -2.09106,-0.008 -0.39779,0 -0.79574,0.0026 -1.19335,0.01104 l -0.079,6.56e-4 c -0.58441,0 -0.82564,-0.154794 -0.84672,-0.848448 -0.0986,-3.200739 -0.12456,-3.200048 3.10487,-3.200048 0.61776,0 1.23621,-0.012 1.85414,-0.012 0.42651,0 0.8526,0.0058 1.27786,0.02506 q 0.0586,0.0023 0.1122,0.0024 c 0.53585,0 0.72317,-0.196992 0.70485,-0.80473 -0.0458,-1.564876 0.0174,-3.132518 -0.0296,-4.696704 -0.0193,-0.675475 0.18904,-0.87143 0.84672,-0.87143 h 0.0283 q 2.98365,0.0223 5.96733,0.02246 2.97842,0 5.95725,-0.02368 l 0.0287,-1.73e-4 m 5.2e-4,-12.096 h -5.2e-4 l -0.11508,5.19e-4 c -1.96456,0.0159 -3.91789,0.02333 -5.87085,0.02333 q -2.93885,0 -5.87747,-0.02212 l -0.1182,-3.46e-4 a 12.871354,12.871354 0 0 0 -9.35488,3.851366 12.70963,12.70963 0 0 0 -2.4344,3.583872 12.684505,12.684505 0 0 0 -4.45928,2.995488 14.725481,14.725481 0 0 0 -3.71502,11.519712 12.824282,12.824282 0 0 0 7.03209,11.28505 q 5.5e-4,0.386726 8.7e-4,0.773626 l 0.002,3.483648 0.002,3.682368 c 0.006,3.433363 0.008,6.866899 -0.0223,10.299398 a 12.837641,12.837641 0 0 0 13.11934,13.261882 l 0.19437,-0.001 q 2.86779,-0.03396 5.73523,-0.0368 2.68406,0 5.36683,0.04164 c 0.0658,0.001 0.20788,0.0023 0.27389,0.0023 a 12.965581,12.965581 0 0 0 13.2674,-13.41913 c -0.0295,-6.098112 -0.0294,-12.296102 -0.0245,-18.366912 a 12.754852,12.754852 0 0 0 3.25193,-2.428704 14.791472,14.791472 0 0 0 3.78052,-11.349677 12.735878,12.735878 0 0 0 -8.32654,-12.050553 12.683623,12.683623 0 0 0 -2.24675,-3.224794 12.949217,12.949217 0 0 0 -9.46252,-3.90407 z"
       id="path115"
       inkscape:connector-curvature="0"
       style="fill:none;stroke-width:1.88976378;stroke:#00ffff;stroke-opacity:1;stroke-miterlimit:4;stroke-dasharray:none" />
    <path
       d="m 396.91097,48.936676 0.0619,3.45e-4 q 2.79106,0.03059 5.58351,0.03007 2.86701,0 5.73505,-0.02954 l 0.0444,-1.72e-4 c 0.737,0 0.96614,0.199756 0.96009,0.987033 -0.0395,4.69584 -0.0197,9.391991 -0.0197,14.088211 0,4.65696 -0.0259,9.313402 0.0223,13.968807 0.008,0.880381 -0.20979,1.127865 -1.05546,1.127865 l -0.0714,-5.18e-4 q -2.75789,-0.03991 -5.51578,-0.03818 -2.84187,0 -5.68305,0.03314 l -0.0524,3.8e-4 c -0.78819,0 -1.03632,-0.231206 -1.03252,-1.06583 q 0.0425,-14.027386 -10e-4,-28.058054 c -0.002,-0.851904 0.25626,-1.04354 1.02539,-1.04354 m 0,-12.096 a 12.835584,12.835584 0 0 0 -13.1214,13.19155 c 0.0317,8.871725 0.0325,18.023559 10e-4,27.969581 a 12.858307,12.858307 0 0 0 13.12835,13.198291 l 0.19366,-0.0012 c 1.84137,-0.02022 3.69171,-0.03248 5.54157,-0.03248 q 2.67074,0 5.34035,0.03715 c 0.0586,8.64e-4 0.18835,0.0017 0.24692,0.0017 a 12.867949,12.867949 0 0 0 13.15068,-13.354476 c -0.0348,-3.374092 -0.0301,-6.8472 -0.0252,-10.206086 l 0.002,-3.632083 -0.002,-3.531687 c -0.002,-3.485238 -0.007,-6.970233 0.0217,-10.455436 A 12.792384,12.792384 0 0 0 408.33511,36.841373 l -0.15622,6.56e-4 c -1.88198,0.01901 -3.75321,0.02906 -5.6238,0.02906 q -2.72652,0 -5.45095,-0.02938 z"
       id="path119"
       inkscape:connector-curvature="0"
       style="fill:none;stroke-width:1.88976378;stroke:#00ffff;stroke-opacity:1;stroke-miterlimit:4;stroke-dasharray:none" />
    <path
       d="m 373.88834,65.255421 v -1.271116 c 0,-9.393581 0.0173,-18.787853 -0.0247,-28.180778 -0.006,-1.013782 0.26663,-1.258122 1.25626,-1.242742 3.73299,0.06065 7.46599,0.04697 11.2002,0.0062 0.78002,-0.0072 1.00448,0.1944 1.00207,0.9936 q -0.037,21.254659 10e-4,42.511737 c 10e-4,0.846375 -0.22585,1.078445 -1.06978,1.067904 q -5.66073,-0.06842 -11.32119,0.0043 A 1.6566336,1.6566336 0 0 1 373.3255,78.2178 Q 363.72776,63.299085 354.09045,48.406404 a 3.8078381,3.8078381 0 0 0 -0.94521,-1.087949 v 1.216166 c 0,9.714471 -0.0286,19.42946 0.0358,29.14393 0.007,1.273536 -0.3677,1.494547 -1.53015,1.470355 -3.57144,-0.07706 -7.14511,-0.05426 -10.71654,-0.0092 -0.85398,0.0098 -1.17228,-0.14688 -1.17123,-1.100736 q 0.0502,-21.194784 -0.001,-42.39216 c -0.002,-0.966816 0.32573,-1.087085 1.15863,-1.079827 4.05388,0.03958 8.10898,0.04752 12.16287,-0.0049 a 1.7459021,1.7459021 0 0 1 1.70173,0.963152 q 9.40715,14.894462 18.85629,29.764662 c 0.0814,-0.01176 0.16537,-0.02232 0.24675,-0.03456 z"
       id="path165"
       inkscape:connector-curvature="0"
       style="fill:#feffff;fill-rule:evenodd;stroke-width:1.72800004;stroke:none;stroke-opacity:1;fill-opacity:1" />
    <path
       d="m 596.98674,50.860253 c 0,-4.370976 -0.012,-8.538394 0.008,-12.70633 0.006,-1.154512 -0.48729,-2.651443 0.18767,-3.37271 0.68602,-0.734746 2.19905,-0.205978 3.348,-0.218938 2.93086,-0.03404 5.86292,0.01354 8.79258,-0.02851 0.78486,-0.01104 1.10316,0.1173 1.10074,1.018829 q -0.0478,21.260621 -0.006,42.521069 c 10e-4,0.76063 -0.15915,1.040774 -0.98362,1.031616 -3.81318,-0.0432 -7.62895,-0.01411 -11.44195,-0.02522 -0.43218,-0.0019 -0.94297,0.203385 -1.04544,-0.60048 -0.09,-0.715047 -0.59478,-0.115944 -0.80573,-0.03526 a 23.789532,23.789532 0 0 1 -7.37722,1.592662 14.714905,14.714905 0 0 1 -13.65483,-7.488253 15.547697,15.547697 0 0 1 20.62713,-22.38935 c 0.3456,0.189389 0.6862,0.384998 1.25021,0.700877 z m -0.01,13.636822 c 0,-2.125578 0.0418,-4.253091 -0.01,-6.376976 a 5.1471936,5.1471936 0 0 0 -10.28583,-0.355312 c -0.16295,4.445661 -0.10224,8.903037 -0.0222,13.352464 a 3.347015,3.347015 0 0 0 3.13441,3.394829 11.50378,11.50378 0 0 0 3.95021,0.0432 3.4644154,3.4644154 0 0 0 3.22209,-3.681159 c 0.042,-2.124438 0.01,-4.251225 0.01,-6.377046 z"
       id="path167"
       inkscape:connector-curvature="0"
       style="fill:#ffffff;fill-rule:evenodd;stroke-width:1.72800004;fill-opacity:1;stroke:none" />
    <path
       d="m 542.01546,52.919087 a 28.06158,28.06158 0 0 0 4.03276,-2.092262 c 7.75474,-4.467398 16.69178,-0.91584 21.19962,5.848762 a 5.361984,5.361984 0 0 1 0.85536,3.079468 q -0.0336,9.631095 0.007,19.263572 c 0.001,0.784166 -0.11232,1.109376 -1.01451,1.098316 q -5.83788,-0.08165 -11.67903,-0.0037 c -0.85139,0.01056 -1.06256,-0.234489 -1.05754,-1.068768 0.0346,-6.260889 0.0209,-12.522332 0.0185,-18.78336 a 5.7942605,5.7942605 0 0 0 -6.73177,-5.107104 13.523777,13.523777 0 0 0 -2.66925,1.064448 4.7891693,4.7891693 0 0 0 -3.01968,4.914605 c 0.18144,5.97456 0.0382,11.958451 0.0804,17.938023 0.006,0.861408 -0.23206,1.053216 -1.06375,1.042156 q -5.65704,-0.06947 -11.3163,0 c -0.85657,0.01238 -1.05737,-0.241228 -1.05391,-1.070496 q 0.043,-14.027385 -0.002,-28.053596 c -0.002,-0.889712 0.30206,-1.036074 1.09676,-1.027952 3.73199,0.03818 7.46597,0.05978 11.19794,-0.01056 1.00448,-0.01846 1.22774,0.327145 1.13167,1.20998 a 17.476352,17.476352 0 0 0 -0.01,1.758586 z"
       id="path169"
       inkscape:connector-curvature="0"
       style="fill:#ffffff;fill-rule:evenodd;stroke-width:1.72800004;fill-opacity:1;stroke:none" />
    <path
       d="m 430.01564,51.979511 c 1.21929,-0.65111 2.31379,-1.144627 3.31223,-1.784506 a 15.565462,15.565462 0 0 1 19.32509,2.322432 9.896377,9.896377 0 0 1 3.54431,8.018784 c -0.22464,5.731604 -0.0962,11.478068 -0.0322,17.217447 0.0144,1.153958 -0.35546,1.373587 -1.41178,1.356307 q -5.53824,-0.09253 -11.07804,6.56e-4 c -0.98842,0.01538 -1.28218,-0.230653 -1.27475,-1.24447 0.0481,-6.141312 0.0245,-12.283143 0.0245,-18.424455 a 5.7538771,5.7538771 0 0 0 -7.02155,-5.254502 12.9417,12.9417 0 0 0 -2.54223,1.066176 4.7127053,4.7127053 0 0 0 -2.90253,4.749926 c 0.17661,5.894899 0.0187,11.799994 0.0901,17.699904 0.0156,1.209255 -0.3456,1.434067 -1.46742,1.411085 -3.61082,-0.07534 -7.22528,-0.05114 -10.83732,-0.01104 -0.80576,0.0086 -1.10332,-0.15984 -1.10073,-1.040947 q 0.0498,-14.089335 0.006,-28.178151 c -10e-4,-0.729388 0.17539,-0.955238 0.93174,-0.947116 q 5.71795,0.05806 11.43849,0.0017 c 0.75773,-0.007 1.10574,0.15431 1.01192,0.977875 a 19.749986,19.749986 0 0 0 -0.0156,2.062886 z"
       id="path171"
       inkscape:connector-curvature="0"
       style="fill:#ffffff;fill-rule:evenodd;stroke-width:1.72800004;fill-opacity:1;stroke:none" />
    <path
       d="m 635.52666,47.942212 a 21.483446,21.483446 0 0 1 13.25876,4.349376 c 8.42591,6.412262 8.61599,17.301427 0.44911,24.030605 a 22.499597,22.499597 0 0 1 -27.44767,0.140832 14.92992,14.92992 0 0 1 0.57001,-24.403853 21.837773,21.837773 0 0 1 13.16979,-4.11696 z m -5.37046,16.522099 h 0.007 c 0,2.886451 -0.0347,5.772902 0.012,8.658144 a 3.4901453,3.4901453 0 0 0 3.07757,3.707078 11.182078,11.182078 0 0 0 3.23222,0.150474 3.7737446,3.7737446 0 0 0 4.01674,-4.125392 q 0.0648,-8.357645 0,-16.716326 a 4.8014381,4.8014381 0 0 0 -5.05958,-5.195405 4.852224,4.852224 0 0 0 -5.2768,5.223571 c -0.0408,2.765664 -0.01,5.531674 -0.01,8.297856 z"
       id="path173"
       inkscape:connector-curvature="0"
       style="fill:#ffffff;fill-rule:evenodd;stroke-width:1.72800004;fill-opacity:1;stroke:none" />
    <path
       d="m 511.01617,64.353946 c -3.77136,0 -7.54373,0.02281 -11.31633,-0.01798 -0.79954,-0.0086 -1.11058,0.14135 -1.08708,1.027469 0.0654,2.485866 0.002,4.976294 0.0308,7.463404 a 3.772224,3.772224 0 0 0 3.98114,4.152039 10.465684,10.465684 0 0 0 3.11455,-0.14809 3.772224,3.772224 0 0 0 3.25555,-4.001391 c 0.0259,-1.122302 0.0322,-2.247748 -10e-4,-3.370257 -0.0185,-0.559699 0.1332,-0.763776 0.7306,-0.760838 q 6.07875,0.03629 12.15769,0 c 0.9663,-0.0072 0.68622,0.493655 0.50112,0.978566 a 16.571158,16.571158 0 0 1 -7.28957,8.350906 22.5579,22.5579 0 0 1 -25.54727,-2.010874 14.642467,14.642467 0 0 1 -0.053,-23.042707 22.560509,22.560509 0 0 1 28.67425,0.218212 15.235309,15.235309 0 0 1 5.19299,10.003254 c 0.0888,0.879897 -0.0605,1.194739 -1.0266,1.180362 -3.77136,-0.05357 -7.54393,-0.02209 -11.31632,-0.02209 z m -7.19211,-5.023296 h 1.92275 c 3.47987,0 3.47987,0 3.24052,-3.511987 a 5.0691053,5.0691053 0 0 0 -5.11505,-4.872096 4.71744,4.71744 0 0 0 -5.17916,4.405017 c -0.12111,1.109376 -0.0236,2.241562 -0.0656,3.361479 -0.0233,0.590457 0.29862,0.627574 0.75046,0.623116 1.48191,-0.01469 2.96525,-0.0055 4.44615,-0.0055 z"
       id="path175"
       inkscape:connector-curvature="0"
       style="fill:#ffffff;fill-rule:evenodd;stroke-width:1.72800004;fill-opacity:1;stroke:none" />
    <path
       d="m 464.17406,63.738283 c 0,-4.658516 -0.0222,-9.315821 0.0222,-13.973162 0.007,-0.861891 -0.2516,-1.079792 -1.07845,-1.048896 -1.68324,0.06172 -3.37133,-0.005 -5.05699,0.03026 -0.64177,0.01354 -0.90357,-0.12358 -0.92569,-0.847756 -0.0986,-3.200602 -0.12456,-3.199911 3.10488,-3.199911 1.04404,0 2.09055,-0.03404 3.132,0.01296 0.62208,0.02713 0.83668,-0.153792 0.81699,-0.802137 -0.0458,-1.564877 0.0174,-3.132692 -0.0296,-4.696704 -0.0197,-0.685014 0.19509,-0.87696 0.87505,-0.871431 q 5.96213,0.04433 11.9246,-0.0012 c 0.72319,-0.005 0.98478,0.1728 0.95647,0.935539 -0.0605,1.523232 0.0173,3.051648 -0.0334,4.576263 -0.0223,0.691718 0.20114,0.878169 0.87367,0.862064 1.76602,-0.04438 3.53429,0.01486 5.29909,-0.03022 0.67738,-0.01728 0.86248,0.177811 0.87367,0.861375 0.0494,3.189403 0.0715,3.168321 -3.13196,3.199252 -1.26856,0.01296 -2.96179,-0.547257 -3.68378,0.236909 -0.62931,0.684979 -0.21099,2.357165 -0.21099,3.593031 -0.007,8.351942 -0.0222,16.703366 0.0185,25.05479 0.006,0.989626 -0.23809,1.277856 -1.24761,1.261958 -3.81318,-0.06238 -7.62875,-0.05083 -11.44214,-0.0058 -0.83289,0.0094 -1.08345,-0.195609 -1.07602,-1.054425 0.0432,-4.696877 0.0197,-9.395482 0.0197,-14.092877 z"
       id="path177"
       inkscape:connector-curvature="0"
       style="fill:#ffffff;fill-rule:evenodd;stroke-width:1.72800004;fill-opacity:1;stroke:none" />
    <path
       d="m 409.05612,64.232682 c 0,4.656787 -0.0259,9.313401 0.0223,13.968806 0.01,0.904573 -0.22205,1.140999 -1.12683,1.127347 -3.73283,-0.05426 -7.46703,-0.04631 -11.19882,-0.005 -0.82944,0.01008 -1.08864,-0.212682 -1.08485,-1.06545 q 0.0425,-14.027385 -10e-4,-28.058054 c -0.002,-0.874368 0.27027,-1.053216 1.08726,-1.043194 q 5.65679,0.06194 11.31858,5.19e-4 c 0.77242,-0.0079 1.0107,0.183859 1.00449,0.986688 -0.0395,4.696013 -0.0197,9.392163 -0.0197,14.088384 z"
       id="path179"
       inkscape:connector-curvature="0"
       style="fill:#ffffff;fill-rule:evenodd;stroke-width:1.72800004;fill-opacity:1;stroke:none" />
    <path
       d="m 402.54441,39.692147 c -1.92637,-4.83e-4 -3.85377,-0.02831 -5.78032,0.01411 -0.68982,0.01607 -0.88474,-0.207187 -0.87248,-0.882144 0.0396,-2.127686 0.0295,-4.255718 0.006,-6.383232 -0.007,-0.557107 0.12845,-0.768268 0.73302,-0.764467 q 5.96031,0.03888 11.92234,5.19e-4 c 0.58856,-0.0029 0.7439,0.185241 0.73664,0.752198 -0.0296,2.167603 -0.0396,4.336589 0.002,6.503501 0.0144,0.683597 -0.26766,0.777427 -0.84637,0.769997 -1.96733,-0.02834 -3.93552,-0.01056 -5.90147,-0.01056 z"
       id="path181"
       inkscape:connector-curvature="0"
       style="fill:#ffffff;fill-rule:evenodd;stroke-width:1.72800004;fill-opacity:1;stroke:none" />
  </g>
</svg>
