<?xml version="1.0" encoding="UTF-8" standalone="no"?>
<svg
   xmlns:dc="http://purl.org/dc/elements/1.1/"
   xmlns:cc="http://creativecommons.org/ns#"
   xmlns:rdf="http://www.w3.org/1999/02/22-rdf-syntax-ns#"
   xmlns:svg="http://www.w3.org/2000/svg"
   xmlns="http://www.w3.org/2000/svg"
   xmlns:sodipodi="http://sodipodi.sourceforge.net/DTD/sodipodi-0.dtd"
   xmlns:inkscape="http://www.inkscape.org/namespaces/inkscape"
   width="28"
   height="20"
   viewBox="0 0 28 20"
   version="1.1"
   id="svg3739"
   sodipodi:docname="system.svg"
   inkscape:version="0.92.4 (5da689c313, 2019-01-14)">
  <metadata
     id="metadata3743">
    <rdf:RDF>
      <cc:Work
         rdf:about="">
        <dc:format>image/svg+xml</dc:format>
        <dc:type
           rdf:resource="http://purl.org/dc/dcmitype/StillImage" />
        <dc:title>system</dc:title>
      </cc:Work>
    </rdf:RDF>
  </metadata>
  <sodipodi:namedview
     pagecolor="#ffffff"
     bordercolor="#666666"
     borderopacity="1"
     objecttolerance="10"
     gridtolerance="10"
     guidetolerance="10"
     inkscape:pageopacity="0"
     inkscape:pageshadow="2"
     inkscape:window-width="1920"
     inkscape:window-height="1137"
     id="namedview3741"
     showgrid="false"
     inkscape:zoom="3.7591671"
     inkscape:cx="82.29931"
     inkscape:cy="8.1535411"
     inkscape:window-x="-8"
     inkscape:window-y="344"
     inkscape:window-maximized="1"
     inkscape:current-layer="svg3739"
     scale-x="2" />
  <!-- Generator: Sketch 45 (43475) - http://www.bohemiancoding.com/sketch -->
  <title
     id="title3729">system</title>
  <desc
     id="desc3731">Created with Sketch.</desc>
  <defs
     id="defs3733" />
  <g
     inkscape:groupmode="layer"
     id="layer1"
     inkscape:label="Layer 1"
     transform="translate(0,2)" />
  <g
     inkscape:groupmode="layer"
     id="layer2"
     inkscape:label="Layer 2"
     transform="translate(0,2)" />
  <g
     aria-label="PC"
     style="font-style:normal;font-variant:normal;font-weight:normal;font-stretch:normal;font-size:21.33333397px;line-height:1.25;font-family:Arial;-inkscape-font-specification:Arial;letter-spacing:0px;word-spacing:0px;fill:none;fill-opacity:1;stroke:#ffffff;stroke-width:0.5;stroke-miterlimit:4;stroke-dasharray:none;stroke-opacity:1"
     id="text4531">
    <path
       d="M 4.4325249,16.009754 V 4.5566292 h 4.3203125 q 1.140625,0 1.7421876,0.109375 0.84375,0.140625 1.414062,0.5390625 0.570313,0.390625 0.914063,1.1015625 0.351562,0.7109375 0.351562,1.5625 0,1.4609375 -0.929687,2.4765628 -0.929688,1.007812 -3.3593751,1.007812 h -2.9375 v 4.65625 z m 1.515625,-6.007812 h 2.9609375 q 1.4687496,0 2.0859376,-0.5468753 0.617187,-0.546875 0.617187,-1.5390625 0,-0.71875 -0.367187,-1.2265625 Q 10.88565,6.1738167 10.2919,6.0097542 9.9090874,5.9081917 8.8778374,5.9081917 H 5.9481499 Z"
       style="font-size:16px;fill:none;stroke:#ffffff;stroke-width:0.5;stroke-miterlimit:4;stroke-dasharray:none;stroke-opacity:1"
       id="path4813"
       inkscape:connector-curvature="0" />
    <path
       d="m 23.2919,11.994129 1.515625,0.382813 q -0.476563,1.867187 -1.71875,2.851562 -1.234375,0.976563 -3.023438,0.976563 -1.851562,0 -3.015625,-0.75 -1.15625,-0.757813 -1.765625,-2.1875 -0.601562,-1.429688 -0.601562,-3.070313 0,-1.7890623 0.679687,-3.1171873 0.6875,-1.3359375 1.945313,-2.0234375 1.265625,-0.6953125 2.78125,-0.6953125 1.71875,0 2.890625,0.875 1.171875,0.875 1.632812,2.4609375 l -1.492187,0.3515625 q -0.398438,-1.25 -1.15625,-1.8203125 -0.757813,-0.5703125 -1.90625,-0.5703125 -1.320313,0 -2.210938,0.6328125 -0.882812,0.6328125 -1.242187,1.703125 -0.359375,1.0625 -0.359375,2.1953128 0,1.460937 0.421875,2.554687 0.429687,1.085938 1.328125,1.625 0.898437,0.539063 1.945312,0.539063 1.273438,0 2.15625,-0.734375 0.882813,-0.734375 1.195313,-2.179688 z"
       style="font-size:16px;fill:none;stroke:#ffffff;stroke-width:0.5;stroke-miterlimit:4;stroke-dasharray:none;stroke-opacity:1"
       id="path4815"
       inkscape:connector-curvature="0" />
  </g>
</svg>
