<?xml version="1.0" encoding="UTF-8" standalone="no"?>
<svg
   xmlns:dc="http://purl.org/dc/elements/1.1/"
   xmlns:cc="http://creativecommons.org/ns#"
   xmlns:rdf="http://www.w3.org/1999/02/22-rdf-syntax-ns#"
   xmlns:svg="http://www.w3.org/2000/svg"
   xmlns="http://www.w3.org/2000/svg"
   xmlns:sodipodi="http://sodipodi.sourceforge.net/DTD/sodipodi-0.dtd"
   xmlns:inkscape="http://www.inkscape.org/namespaces/inkscape"
   id="Layer_1"
   data-name="Layer 1"
   viewBox="0 0 1000 114"
   version="1.1"
   sodipodi:docname="system.svg"
   inkscape:version="0.92.4 (5da689c313, 2019-01-14)">
  <metadata
     id="metadata94">
    <rdf:RDF>
      <cc:Work
         rdf:about="">
        <dc:format>image/svg+xml</dc:format>
        <dc:type
           rdf:resource="http://purl.org/dc/dcmitype/StillImage" />
        <dc:title>logo</dc:title>
      </cc:Work>
    </rdf:RDF>
  </metadata>
  <defs
     id="defs92" />
  <sodipodi:namedview
     pagecolor="#ffffff"
     bordercolor="#666666"
     borderopacity="1"
     objecttolerance="10"
     gridtolerance="10"
     guidetolerance="10"
     inkscape:pageopacity="0"
     inkscape:pageshadow="2"
     inkscape:window-width="1920"
     inkscape:window-height="1017"
     id="namedview90"
     showgrid="false"
     inkscape:pagecheckerboard="true"
     inkscape:zoom="1.6065466"
     inkscape:cx="558.1876"
     inkscape:cy="57"
     inkscape:window-x="-8"
     inkscape:window-y="-8"
     inkscape:window-maximized="1"
     inkscape:current-layer="Layer_1"
     inkscape:snap-global="false" />
  <title
     id="title2">logo</title>
  <path
     style="opacity:1;vector-effect:none;fill:none;fill-opacity:1;stroke:#00ffff;stroke-width:1.17628944;stroke-linecap:butt;stroke-linejoin:miter;stroke-miterlimit:4;stroke-dasharray:none;stroke-dashoffset:0;stroke-opacity:1"
     d=""
     id="path911"
     inkscape:connector-curvature="0" />
  <path
     style="opacity:1;vector-effect:none;fill:none;fill-opacity:1;stroke:#00ffff;stroke-width:1.17628944;stroke-linecap:butt;stroke-linejoin:miter;stroke-miterlimit:4;stroke-dasharray:none;stroke-dashoffset:0;stroke-opacity:1"
     d=""
     id="path913"
     inkscape:connector-curvature="0" />
  <path
     style="opacity:1;vector-effect:none;fill:none;fill-opacity:1;stroke:#00ffff;stroke-width:1.17628944;stroke-linecap:butt;stroke-linejoin:miter;stroke-miterlimit:4;stroke-dasharray:none;stroke-dashoffset:0;stroke-opacity:1"
     d=""
     id="path915"
     inkscape:connector-curvature="0" />
  <path
     style="opacity:1;vector-effect:none;fill:#fffffe;fill-opacity:1;stroke:none;stroke-width:1.17628944;stroke-linecap:butt;stroke-linejoin:miter;stroke-miterlimit:4;stroke-dasharray:none;stroke-dashoffset:0;stroke-opacity:1"
     d=""
     id="path958"
     inkscape:connector-curvature="0" />
  <path
     style="opacity:1;vector-effect:none;fill:#fffffe;fill-opacity:1;stroke:none;stroke-width:0.41588113;stroke-linecap:butt;stroke-linejoin:miter;stroke-miterlimit:4;stroke-dasharray:none;stroke-dashoffset:0;stroke-opacity:1"
     d=""
     id="path980"
     inkscape:connector-curvature="0" />
  <g
     id="g907">
    <path
       style="fill:none;fill-opacity:1;stroke:#14ffff;stroke-width:2.24263239;stroke-miterlimit:4;stroke-dasharray:none;stroke-opacity:1"
       inkscape:connector-curvature="0"
       d="m 232.4002,22.172269 a 46.380097,50.419562 0 0 1 15.29734,2.92207 c -0.83042,6.636028 -1.99594,13.67592 -1.99594,13.67592 a 28.198108,30.654017 0 0 0 -11.60413,-2.439018 c -7.59768,0 -15.93109,2.581558 -21.60568,7.966402 -10.92667,10.413338 -8.53737,21.705673 -5.94411,26.765842 2.82637,5.543222 8.26785,7.665484 13.22856,7.665484 a 16.848934,18.316389 0 0 0 6.1408,-1.21159 l 1.12909,-6.754811 h -9.8413 l 1.8284,-12.670222 h 23.6089 L 239.09461,82.6409 262.85648,24.041126 h 15.68343 l 8.34798,54.394844 16.25161,-54.394844 h 12.58024 l 6.22092,36.886182 14.42321,-36.886182 h 15.29735 l 2.68068,67.310551 h -12.75507 l -1.69728,-41.66919 -16.5357,41.637515 h -8.44997 l -7.0732,-37.646395 -11.04323,37.646395 h -21.63481 l -3.22701,-20.121896 h -14.71459 l -8.34799,20.121896 h -13.28683 l 1.85753,-4.592956 -0.45163,0.292999 a 33.508473,36.426886 0 0 1 -16.75424,5.004738 c -14.31395,0 -26.83592,-10.373744 -28.13983,-24.548554 -1.55159,-16.898908 4.27597,-29.299887 16.3973,-37.488017 v 0 c 6.03152,-4.078228 14.08812,-7.855538 23.98041,-7.855538 M 262.332,58.092346 h 7.70695 L 267.70064,45.02618 262.2883,58.171535 M 232.42205,16.668641 v 0 c -9.12013,0 -18.06544,2.898314 -26.58096,8.615751 l -0.0728,0.05543 c -14.00072,9.415558 -20.49116,24.200123 -18.7866,42.761997 a 28.649744,31.144988 0 0 0 11.1015,21.380999 35.693808,38.802553 0 0 0 22.12288,8.085184 38.017547,41.328678 0 0 0 11.97563,-2.13018 5.0991154,5.5432218 0 0 0 3.42369,1.425399 h 13.28684 a 5.0991154,5.5432218 0 0 0 4.64748,-3.262582 l 6.99307,-16.859313 h 7.13148 l 2.49857,15.536859 a 5.0991154,5.5432218 0 0 0 5.01898,4.585036 h 21.63482 a 5.0991154,5.5432218 0 0 0 4.82959,-3.848579 l 5.09912,-17.358203 3.15417,16.788043 a 5.0991154,5.5432218 0 0 0 4.99713,4.426658 h 8.45725 a 5.0991154,5.5432218 0 0 0 4.67661,-3.341771 l 7.75066,-19.520059 0.72844,17.548256 a 5.0991154,5.5432218 0 0 0 5.09912,5.297737 h 12.71865 a 5.1355376,5.5828163 0 0 0 3.68593,-1.702561 5.0991154,5.5432218 0 0 0 1.4059,-4.078228 l -2.68068,-67.310551 a 5.0991154,5.5432218 0 0 0 -5.09911,-5.305655 h -15.29735 a 5.0991154,5.5432218 0 0 0 -4.6839,3.389284 l -7.76526,19.89225 -3.16146,-18.720252 a 5.0991154,5.5432218 0 0 0 -5.01898,-4.545442 H 303.1395 a 5.0991154,5.5432218 0 0 0 -4.85145,3.832742 l -9.80487,32.823792 -4.90243,-32.023984 a 5.0991154,5.5432218 0 0 0 -5.03356,-4.63255 h -15.69071 a 5.0991154,5.5432218 0 0 0 -4.66933,3.310095 l -7.7288,19.068683 a 5.6090269,6.097544 0 0 0 0.29866,-1.124482 c 0.0437,-0.292999 1.15823,-7.214107 2.01051,-13.865973 a 5.0991154,5.5432218 0 0 0 -3.37998,-6.002518 51.894426,56.41416 0 0 0 -16.98006,-3.230906 z m 13.27955,27.64484 a 5.0991154,5.5432218 0 0 0 4.60378,-3.167556 l -4.94615,12.274277 a 5.0991154,5.5432218 0 0 0 -2.7171,-0.791889 h -23.6089 a 5.0991154,5.5432218 0 0 0 -5.03356,4.680063 l -1.82839,12.670222 v 0.14254 a 7.5029841,8.156455 0 0 1 -1.11452,-1.655048 c -1.23836,-2.375667 -4.53822,-10.96766 4.84416,-19.892248 4.37067,-4.12574 11.17434,-6.596434 18.24754,-6.596434 a 23.310242,25.340443 0 0 1 9.46979,1.932209 5.1428221,5.5907352 0 0 0 2.13434,0.506809 z"
       id="path9" />
    <path
       style="fill:none;fill-opacity:1;stroke:#14ffff;stroke-width:2.24263239;stroke-miterlimit:4;stroke-dasharray:none;stroke-opacity:1"
       inkscape:connector-curvature="0"
       d="m 400.38691,24.01737 v 0 m 0,0 -2.11977,14.444052 h -22.17387 l -1.69728,11.989197 h 19.50776 l -2.11978,14.444052 h -19.33293 l -1.74827,11.981278 h 22.19573 l -2.11978,14.444053 h -35.48256 l 9.89229,-67.310551 h 35.19846 m 0,-5.543222 h -35.22032 a 5.0991154,5.5432218 0 0 0 -5.03355,4.672144 l -9.89229,67.310551 a 5.0991154,5.5432218 0 0 0 4.23227,6.335111 4.9534264,5.3848441 0 0 0 0.80129,0.07127 h 35.48256 a 5.0991154,5.5432218 0 0 0 5.00441,-4.63255 l 2.18534,-14.444052 a 5.0991154,5.5432218 0 0 0 -5.04084,-6.422219 h -16.22247 l 0.13112,-0.894834 h 14.95498 a 5.0991154,5.5432218 0 0 0 5.03355,-4.672144 l 2.11978,-14.444053 a 5.0991154,5.5432218 0 0 0 -4.23227,-6.33511 4.9534264,5.3848441 0 0 0 -0.80129,-0.07127 h -13.56365 l 0.12384,-0.902754 h 17.81777 a 5.0991154,5.5432218 0 0 0 5.03355,-4.672144 l 2.09064,-14.253999 a 4.8004529,5.2185474 0 0 0 0.0947,-1.053212 5.0991154,5.5432218 0 0 0 -5.09912,-5.543222 z"
       id="path11" />
    <path
       style="fill:none;fill-opacity:1;stroke:#14ffff;stroke-width:2.24263239;stroke-miterlimit:4;stroke-dasharray:none;stroke-opacity:1"
       inkscape:connector-curvature="0"
       d="m 556.0192,24.01737 v 0 m 0,0 -22.90232,39.182659 -3.90446,28.119973 H 516.48648 L 521.09754,59.509827 506.12071,24.01737 h 14.5689 l 7.9182,21.974915 12.58025,-21.974915 h 14.83114 m 0,-5.543222 h -14.84571 a 5.0991154,5.5432218 0 0 0 -4.32697,2.613233 l -7.2116,12.598951 -4.21042,-11.688279 a 5.0991154,5.5432218 0 0 0 -4.74946,-3.523905 h -14.5689 a 5.0991154,5.5432218 0 0 0 -4.63291,7.855537 l 14.3358,33.972031 -4.37067,30.155127 a 5.0991154,5.5432218 0 0 0 4.23955,6.33511 4.9534264,5.3848441 0 0 0 0.80129,0.07127 h 12.73322 a 5.0991154,5.5432218 0 0 0 5.04084,-4.751333 l 3.74421,-26.92422 22.25399,-38.081934 a 5.0991154,5.5432218 0 0 0 -4.23226,-8.631588 z"
       id="path13" />
    <path
       sodipodi:nodetypes="ccccccccccccccccccccccccccccccccccccccccccccccc"
       style="fill:none;fill-opacity:1;stroke:#00ffff;stroke-width:2.24263239;stroke-miterlimit:4;stroke-dasharray:none;stroke-opacity:1"
       inkscape:connector-curvature="0"
       id="path35"
       d="m 633.71434,35.725415 c 5.06202,0 9.87057,2.023821 14.42268,5.596546 3.61296,2.831925 6.41425,6.71832 8.07958,11.209275 0.14343,2.280838 0.29555,4.561438 0.42848,6.843355 0.21393,3.671266 0.4151,7.343423 0.62167,11.015233 -0.88005,3.240342 -2.28503,6.283927 -4.14885,8.987591 -4.26535,5.972509 -10.35063,10.095082 -17.16185,11.626571 -2.27952,0.577368 -4.61193,0.871728 -6.9525,0.877433 -3.57915,-0.0076 -7.12782,-0.715337 -10.47639,-2.08932 -2.60672,-1.122766 -5.0439,-2.663944 -7.23032,-4.572168 -0.5999,-2.837456 -1.93149,-5.014735 -4.58235,-6.001755 -3.38829,-6.7218 -2.4878,-13.515562 -0.22218,-20.295417 3.0267,-9.747338 9.86128,-17.542277 18.6723,-21.296029 2.70882,-1.232984 5.61312,-1.878843 8.54974,-1.901295 m -6e-5,-6.929102 c -3.75967,0.02457 -7.47907,0.843732 -10.95108,2.411876 -10.73755,4.747453 -18.22745,13.276016 -22.26182,25.348639 -2.13545,6.390295 -4.39412,16.037202 0.62339,25.991097 0.76378,1.515188 2.02074,2.665501 3.52435,3.225323 0.0444,0.01596 0.0879,0.0351 0.12999,0.05728 0.1463,0.294602 0.24945,0.612204 0.30572,0.941358 0.33218,1.571347 1.15806,2.967567 2.33536,3.94815 2.68544,2.33348 5.68114,4.210302 8.88476,5.566336 4.06032,1.658636 8.36104,2.513466 12.69855,2.524017 2.82114,-0.0072 5.63251,-0.360611 8.38069,-1.053598 8.24252,-1.893046 15.60127,-6.900127 20.76973,-14.132247 2.32711,-3.347383 4.08437,-7.120489 5.18868,-11.140886 0.23699,-0.812701 0.33398,-1.66597 0.2861,-2.516939 l -0.18334,-3.276381 c -0.14427,-2.584784 -0.29066,-5.169413 -0.43916,-7.753888 -0.0925,-1.586747 -0.19408,-3.173009 -0.29566,-4.759054 l -0.13494,-2.118857 c -0.047,-0.746616 -0.20485,-1.480034 -0.46756,-2.171755 -2.11474,-5.682779 -5.66468,-10.599586 -10.24004,-14.182858 -5.84019,-4.58366 -11.94794,-6.907695 -18.15376,-6.907695 z m -2.18787,42.004625 c -1.90403,0.07667 -3.71696,-0.887895 -4.82941,-2.569472 -0.96902,-1.756122 -1.26596,-3.474006 0.43434,-6.150006 1.76503,-2.881387 4.74717,-4.601528 7.93152,-4.575019 l 2.8e-4,2.97e-4 c 0.7944,0.920323 1.32668,2.30887 1.83723,4.792768 0.1351,0.657209 0.22936,1.467638 0.32917,2.325669 0.0398,0.342621 0.0799,0.685122 0.12271,1.026951 -0.0657,2.414727 -2.59508,4.543799 -4.39638,4.979278 -0.46937,0.112965 -0.94869,0.169811 -1.42943,0.169524 z" />
    <path
       style="fill:none;fill-opacity:1;stroke:#00ffff;stroke-width:2.24263239;stroke-miterlimit:4;stroke-dasharray:none;stroke-opacity:1"
       inkscape:connector-curvature="0"
       id="path47"
       d="m 659.0737,26.18992 a 6.2678964,6.8137976 0 0 1 2.78979,0.711711 c 3.01971,1.628588 4.7807,4.426945 5.94835,7.754799 a 25.417916,27.631684 0 0 1 1.61806,8.842894 c 0.18418,5.240759 0.19662,10.489181 0.41043,15.728129 0.20963,5.136775 0.57938,10.265849 0.88438,15.397942 a 5.3574949,5.8241048 0 0 0 0.1705,0.772903 c 1.54323,-0.522646 3.06766,-0.957591 4.53689,-1.55324 a 25.398002,27.610036 0 0 1 8.89882,-2.032185 q 0.41198,0 0.82786,0.02091 c 0.45611,0.02314 0.91101,0.07637 1.36645,0.11569 a 10.734603,11.669531 0 0 1 4.75813,2.594822 8.3598176,9.0879142 0 0 1 1.65316,10.265215 c -0.0776,0.177868 -0.13504,0.366189 -0.20184,0.54967 -1.82824,2.352068 -4.44403,2.725919 -6.98508,3.227858 -3.07896,0.60822 -6.2694,0.565626 -9.21365,1.952995 -2.03886,0.96074 -4.07393,1.943098 -6.15882,2.773225 a 14.343174,15.59239 0 0 1 -4.94653,1.022005 11.972805,13.015574 0 0 1 -1.52457,-0.10542 5.4426046,5.9166271 0 0 1 -5.08263,-5.356142 c -0.67947,-6.02466 -1.242,-12.064842 -1.85299,-18.098985 -0.20662,-3.672167 -0.4078,-7.344324 -0.62172,-11.01559 -0.13295,-2.281916 -0.28505,-4.562517 -0.42849,-6.843354 a 18.518894,20.131794 0 0 0 -0.90722,-7.833513 c -0.76134,-2.483057 -1.61806,-4.931428 -2.38961,-7.410912 a 8.030351,8.7297528 0 0 1 1.70714,-9.165034 6.3577865,6.9115166 0 0 1 4.74308,-2.316364 m 5e-4,-6.929027 h 7e-5 a 12.746705,13.856877 0 0 0 -9.49897,4.631639 14.385497,15.638399 0 0 0 -2.98955,15.999124 c 0.38204,1.227596 0.78101,2.439067 1.16683,3.610657 0.42881,1.302033 0.83385,2.531935 1.21377,3.771014 a 12.068359,13.11945 0 0 1 0.59572,5.159156 6.3691593,6.92388 0 0 0 -7.2e-4,0.955968 l 0.13605,2.136377 c 0.0997,1.557111 0.19957,3.11441 0.29037,4.672303 q 0.22451,3.85343 0.4365,7.70779 l 0.18434,3.292872 q 0.009,0.16793 0.0264,0.335127 0.26759,2.643345 0.52696,5.28764 c 0.41732,4.221045 0.84893,8.585768 1.33506,12.896405 a 11.841603,12.872945 0 0 0 10.59822,11.385636 18.422949,20.027492 0 0 0 2.33552,0.16167 20.760975,22.569148 0 0 0 7.13876,-1.444662 c 2.01607,-0.802691 3.93373,-1.708933 5.78829,-2.585344 l 0.7132,-0.336763 a 17.248741,18.751017 0 0 1 4.52478,-0.987015 c 1.05205,-0.136725 2.13995,-0.278089 3.29348,-0.505931 l 0.45905,-0.08971 c 2.8102,-0.54519 7.05698,-1.369089 10.25504,-5.483571 a 6.3730565,6.9281166 0 0 0 1.05789,-1.921776 c 0.0339,-0.09328 0.0668,-0.187232 0.0992,-0.281299 a 14.655604,15.932031 0 0 0 -3.00472,-18.020925 16.624792,18.072724 0 0 0 -7.42666,-4.303579 6.3746682,6.9298687 0 0 0 -1.29898,-0.261482 l -0.37531,-0.03492 c -0.39931,-0.03837 -0.79885,-0.07467 -1.19888,-0.09503 q -0.56486,-0.02871 -1.12491,-0.02846 a 28.563587,31.051327 0 0 0 -7.74451,1.251828 c -0.14584,-2.405363 -0.28122,-4.832284 -0.37842,-7.215286 -0.11222,-2.749418 -0.16911,-5.587359 -0.22413,-8.331828 -0.0481,-2.401403 -0.0979,-4.884658 -0.18474,-7.353757 a 31.861395,34.636356 0 0 0 -2.03197,-11.047839 c -1.92203,-5.477891 -4.88918,-9.237106 -9.07096,-11.492396 a 12.719161,13.826933 0 0 0 -5.622,-1.433675 z" />
    <path
       sodipodi:nodetypes="cccccccccccccccccccccccsccccccccccccccc"
       style="fill:#fffffe;fill-opacity:1;stroke-width:0.9128347"
       inkscape:connector-curvature="0"
       id="path29"
       d="m 782.81704,94.001573 c -1.87897,-3.4e-5 -3.69678,-0.785294 -5.12891,-2.215596 -2.16451,-2.087016 -4.33506,-4.165658 -6.51164,-6.235926 -1.48381,-1.416161 -2.96655,-2.833286 -4.44822,-4.251374 -1.20269,-1.153228 -2.40402,-2.309033 -3.60398,-3.467414 -0.0526,1.883052 -0.14143,3.797047 -0.34773,5.714903 -0.39142,5.255735 -4.18481,9.251945 -8.6704,9.133982 -0.92047,-0.0037 -1.8366,-0.14864 -2.72517,-0.431134 -5.82359,-1.828926 -8.96963,-7.392064 -8.21087,-14.519281 0.17367,-1.364324 0.44819,-2.708242 0.82044,-4.01648 0.0954,-0.364428 0.19071,-0.728865 0.27869,-1.093292 0.45907,-1.90199 0.57941,-3.894915 0.35349,-5.854097 -0.0137,-0.127012 -0.0217,-0.254793 -0.0238,-0.3828 l -0.0502,-3.772875 c -0.0378,-0.896101 -0.0723,-1.793163 -0.10767,-2.689254 -0.0855,-2.201085 -0.17426,-4.476607 -0.3091,-6.688333 -0.0644,-0.740032 -0.16844,-1.474545 -0.31156,-2.199154 -0.0757,-0.428224 -0.15045,-0.856458 -0.21621,-1.285662 -0.007,-0.04736 -0.37241,-3.171613 -0.37241,-3.171613 -0.14058,-0.657327 -0.28771,-1.313694 -0.43487,-1.970051 -0.37322,-1.669421 -0.75958,-3.394917 -1.04896,-5.173569 -0.83854,-4.774287 0.53106,-9.714197 3.6015,-12.989946 4.04295,-4.590679 9.00333,-7.080793 15.16477,-7.610527 0.85084,-0.07347 1.70745,-0.110196 2.54678,-0.110196 7.60828,0 14.92884,3.051742 21.75944,9.072076 2.64049,2.327728 5.50538,6.688333 4.15803,14.247625 -1.14184,6.396393 -4.38578,11.682102 -9.9183,16.162569 -0.93141,0.753997 -1.88254,1.455799 -2.8238,2.131488 0.53269,0.510405 1.0643,1.018864 1.59481,1.525376 0,0 10.24795,9.762306 12.63361,12.038799 2.8525,2.656351 3.85965,7.215908 2.46704,11.1688 -1.05266,3.525544 -3.30024,6.380861 -6.20829,7.886995 -1.22513,0.667772 -2.55627,1.024185 -3.90649,1.045966 z M 760.60646,48.091261 c 1.67759,-0.575247 12.99748,-4.329717 12.65293,-7.680614 -1.21461,-0.183987 -6.45332,-1.167863 -7.67781,-1.190573 -0.462,-0.01644 -5.71053,-0.02418 -6.17582,-0.02514 z" />
    <path
       sodipodi:nodetypes="ccccccccccccccccccccccccccccccccccccccccccccccacccccccccca"
       style="fill:none;fill-opacity:1;stroke:#14ffff;stroke-width:2.24263239;stroke-miterlimit:4;stroke-dasharray:none;stroke-opacity:1"
       inkscape:connector-curvature="0"
       id="path39"
       d="m 715.09659,36.971257 c 7.38962,-0.05489 14.46896,3.225717 19.54953,9.059367 1.11851,1.35839 2.16828,2.781864 3.14466,4.264123 l 2.2e-4,3.67e-4 c 0.13561,1.072679 0.2712,2.144907 0.40677,3.216682 -0.0542,0.0722 -0.16056,0.149528 -0.15506,0.215928 0.24731,2.987945 0.49362,5.976138 0.76522,8.961549 0.1271,1.397436 0.30539,2.789369 0.4605,4.183776 0.0181,1.277079 0.0362,2.554139 0.0544,3.831178 -5.31928,11.707651 -14.30537,17.846315 -25.83903,20.142436 -1.67207,0.341346 -3.3692,0.516995 -5.07048,0.524785 -2.32691,0.0099 -4.64117,-0.37251 -6.86024,-1.133718 -3.02893,-1.157566 -5.7895,-3.018608 -8.08968,-5.45366 0.0668,-0.183481 0.12421,-0.371802 0.20185,-0.54967 1.48764,-3.459458 0.82713,-7.560899 -1.65314,-10.265196 -1.36048,-1.285513 -2.99684,-2.177891 -4.75814,-2.594821 -2.49686,-13.62128 5.52759,-30.754567 22.22972,-33.866116 1.85358,-0.351469 3.73127,-0.531108 5.61283,-0.53698 m 4e-5,-6.929052 c -2.24233,0.0067 -4.48011,0.219628 -6.68941,0.63654 -8.94153,1.584411 -16.90261,7.062622 -22.04581,15.170244 -5.02868,7.816592 -6.95925,17.501045 -5.35835,26.879459 0.46286,2.525141 2.17556,4.563045 4.44724,5.291688 0.73029,0.190898 1.43328,0.48899 2.0896,0.886064 0.54373,0.635747 0.68809,1.561876 0.36737,2.356859 -0.16851,0.386125 -0.28217,0.715511 -0.35009,0.912286 l -0.0229,0.06591 c -0.97767,2.68582 -0.31759,5.749272 1.65561,7.683689 5.11905,5.475227 12.04301,8.491931 19.22355,8.37552 2.08633,-0.0088 4.16767,-0.222411 6.21867,-0.638124 14.26361,-2.839596 24.49358,-10.87721 30.40564,-23.889616 0.4483,-0.986685 0.67397,-2.075256 0.65834,-3.175603 l -9.2e-4,-0.08555 -0.0531,-3.745386 c -0.003,-0.242362 -0.0186,-0.484362 -0.0453,-0.725004 -0.0498,-0.447417 -0.10112,-0.894759 -0.15395,-1.342024 -0.10927,-0.938141 -0.21253,-1.824314 -0.29145,-2.691729 -0.22629,-2.488065 -0.43893,-5.026218 -0.6445,-7.506364 0.0851,-0.640829 0.0871,-1.291464 0.006,-1.932902 l -0.14773,-1.168511 -0.25898,-2.047874 c -0.15536,-1.229058 -0.61144,-2.390226 -1.32059,-3.362231 -0.29039,-0.398142 -0.57027,-0.807281 -0.85081,-1.215757 -0.83889,-1.274929 -1.76013,-2.483384 -2.75674,-3.61622 -6.26513,-7.16968 -14.98446,-11.194384 -24.08084,-11.115328 z m -2.97576,39.1914 c -1.44437,-0.02151 -2.8271,-0.639661 -3.86753,-1.728991 -1.51669,-1.588369 -1.69219,-4.162473 -0.40749,-5.976563 1.50459,-1.982613 3.7868,-3.06925 6.14748,-2.927019 l 0.0489,4.16e-4 c 0.36149,0.02622 0.72583,0.04858 1.0919,0.07087 0.8054,0.049 1.56616,0.09527 2.23393,0.18844 1.34547,0.11342 2.53801,0.984605 3.14293,2.296002 0.0197,0.691619 -0.0843,1.380814 -0.30632,2.029324 -0.50263,1.977545 -1.56792,4.188716 -5.65797,5.595754 -0.78281,0.283672 -1.60081,0.435998 -2.42584,0.451733 z" />
    <path
       style="fill:#fffffe;fill-opacity:1;stroke-width:0.94938099"
       inkscape:connector-curvature="0"
       id="path77"
       d="m 686.52524,71.949504 a 10.734457,11.669373 0 0 1 4.75816,2.594812 8.3598176,9.0879142 0 0 1 1.65317,10.265205 c -0.0776,0.177868 -0.13507,0.366249 -0.20186,0.54967 -1.8282,2.352098 -4.444,2.725909 -6.98507,3.227857 -3.07897,0.60823 -6.26942,0.565666 -9.21362,1.952996 -2.03891,0.96075 -4.074,1.943098 -6.15883,2.773215 a 13.602018,14.786683 0 0 1 -6.47113,0.916611 5.4425681,5.9165875 0 0 1 -5.08263,-5.356138 c -0.67949,-6.024621 -1.24194,-12.064842 -1.85294,-18.098966 -0.20665,-3.672137 -0.40786,-7.344303 -0.62174,-11.015599 -0.13294,-2.281917 -0.285,-4.562517 -0.42847,-6.843365 a 18.518466,20.131329 0 0 0 -0.90726,-7.833483 c -0.76131,-2.483056 -1.618,-4.931408 -2.38956,-7.410911 a 8.0303601,8.7297627 0 0 1 1.70711,-9.165064 6.3281115,6.8792571 0 0 1 7.53289,-1.604565 c 3.01973,1.628589 4.78075,4.426936 5.94839,7.754769 a 25.418617,27.632446 0 0 1 1.61807,8.842914 c 0.18423,5.24077 0.19668,10.489142 0.41044,15.72809 0.20963,5.136785 0.57938,10.265849 0.88441,15.397942 a 5.3564568,5.8229764 0 0 0 0.17049,0.772963 c 1.54323,-0.522647 3.0676,-0.957651 4.53687,-1.5533 a 24.404348,26.52984 0 0 1 9.72669,-2.011289 c 0.45612,0.02309 0.91098,0.07632 1.36642,0.115641 z" />
    <path
       style="fill:none;fill-opacity:1;stroke:#14ffff;stroke-width:2.24263239;stroke-miterlimit:4;stroke-dasharray:none;stroke-opacity:1"
       inkscape:connector-curvature="0"
       d="m 489.00225,23.993613 a 22.020894,23.938799 0 0 1 4.93157,0.609755 c 14.09542,3.539743 22.31956,21.5077 18.37867,40.10125 -3.48925,16.431693 -15.29734,27.882406 -27.77561,27.882406 a 22.020894,23.938799 0 0 1 -4.93157,-0.609755 C 465.47348,88.437526 457.27847,70.485406 461.23393,51.876019 v 0 c 3.48925,-16.431693 15.29734,-27.882406 27.74647,-27.882406 m -4.81502,55.368867 c 5.82756,0 11.90279,-5.97876 14.72187,-15.196346 3.42369,-11.18939 0.72845,-22.925182 -5.96596,-26.203602 a 8.9744431,9.7560704 0 0 0 -3.64223,-0.85524 c -5.82756,0 -11.89551,5.98668 -14.72187,15.204266 -3.43098,11.197308 -0.77216,22.917263 5.96596,26.195682 a 9.0254342,9.8115026 0 0 0 3.64223,0.85524 m 4.83687,-60.912089 c -14.83842,0 -28.47492,13.264138 -32.59063,31.620121 -0.0583,0.182135 -0.10927,0.372188 -0.15297,0.562241 -2.18534,10.294555 -1.1728,20.699974 2.81179,29.410752 4.15943,9.090883 11.04323,15.24386 19.38393,17.334446 a 27.141863,29.505778 0 0 0 6.08251,0.752295 c 15.01326,0 28.78815,-13.533381 32.78003,-32.182363 4.57464,-21.547295 -5.38321,-42.516511 -22.203,-46.721441 a 27.047165,29.402832 0 0 0 -6.11166,-0.776051 z m -4.81502,55.368867 a 3.8753277,4.2128486 0 0 1 -1.59529,-0.372187 c -3.78792,-1.813426 -6.0461,-10.247042 -3.24159,-19.385439 2.27275,-7.412079 6.78911,-11.411118 9.885,-11.411118 a 3.9044655,4.2445241 0 0 1 1.5953,0.372188 c 3.75878,1.829263 5.92954,10.508365 3.21244,19.393357 -2.27275,7.404161 -6.78911,11.403199 -9.885,11.403199 z"
       id="path15-0" />
    <path
       style="fill:none;fill-opacity:1;stroke:#14ffff;stroke-width:2.24263239;stroke-miterlimit:4;stroke-dasharray:none;stroke-opacity:1"
       inkscape:connector-curvature="0"
       d="m 434.2159,24.334125 c 3.53296,0 6.94208,0 9.23668,0.05543 8.55923,0.150458 24.5486,14.333187 8.42083,32.467442 15.6907,15.425994 -1.54431,34.312543 -13.32326,34.312543 h -28.61332 l 9.81215,-66.787904 h -0.14569 c 0,0 7.54669,-0.05543 14.61261,-0.05543 m -5.49248,26.71833 h 8.82147 c 8.53009,0 10.38035,-12.503925 1.4059,-12.503925 h -8.28242 l -1.94495,12.503925 M 424.7971,78.15089 h 11.21806 c 11.22534,0 11.50215,-13.382921 1.4059,-13.382921 H 426.74205 L 424.7971,78.15089 m 9.4188,-59.391662 c -7.00764,0 -14.5689,0.05543 -14.64903,0.05543 a 5.0991154,5.5432218 0 0 0 -5.06269,5.543222 v 0.411782 l -9.60819,65.53672 a 5.0991154,5.5432218 0 0 0 5.04084,6.422218 h 28.61332 c 9.26582,0 19.72629,-8.235644 23.31024,-18.363902 2.64425,-7.451674 1.45689,-15.109239 -3.16874,-21.634403 6.97851,-10.120339 5.46334,-18.688576 3.7515,-23.178586 -3.46012,-9.059208 -12.33258,-14.586592 -18.93958,-14.705375 -2.05421,0 -5.18653,-0.05543 -9.31681,-0.05543 z m 0.76487,25.340443 h 3.97002 a 3.1104604,3.3813653 0 0 1 0.77944,0.07919 1.3767612,1.4966699 0 0 1 -0.29866,0.578079 2.4111531,2.621152 0 0 1 -1.88668,0.791889 h -2.78266 l 0.21854,-1.417481 z m -3.88262,26.227358 h 6.32291 c 1.55159,0 2.18533,0.538484 2.18533,0.791888 a 0.84499626,0.91859105 0 0 1 -0.3715,0.617674 c -0.29867,0.277161 -1.21651,0.92651 -3.24158,0.92651 h -5.26666 l 0.3278,-2.296478 z"
       id="path17-3" />
    <g
       transform="matrix(0.72844506,0,0,0.79188883,9.6854073,12.241983)"
       style="fill:#fffffe;fill-opacity:1"
       id="Capa_1"
       data-name="Capa 1">
      <path
         style="fill:#fffffe;fill-opacity:1"
         inkscape:connector-curvature="0"
         d="M 357.35,58 354.14,41.5 346.77,58 h 10.58 M 473.09,99.86 H 455.63 L 453.3,47.28 430.6,99.86 H 419 l -9.71,-47.54 -15.16,47.54 h -29.7 L 360,74.45 H 339.8 L 328.34,99.86 H 310.1 l 37.45,-85 h 21.53 l 11.46,68.69 22.31,-68.69 h 17.27 l 8.54,46.58 19.8,-46.58 h 21 l 3.68,85"
         id="path19" />
      <path
         style="fill:#fffffe;fill-opacity:1"
         d="m 523.16,99.86 2.92,-18.23 H 495.6 l 2.42,-15.14 h 26.5 l 2.91,-18.24 h -26.78 l 2.33,-15.14 h 30.46 l 2.91,-18.24 h -48.32 l -13.58,84.99 h 48.71"
         id="polyline21"
         inkscape:connector-curvature="0" />
      <path
         style="fill:#fffffe;fill-opacity:1"
         d="M 750,14.87 H 729.62 L 712.35,42.62 701.48,14.87 H 681.5 l 20.56,44.82 -6.33,40.17 H 713.2 L 718.56,64.35 750,14.87"
         id="polyline23"
         inkscape:connector-curvature="0" />
      <path
         style="fill:#fffffe;fill-opacity:1"
         inkscape:connector-curvature="0"
         d="m 646.3,83.68 c 9.24,4.13 20.55,-4 25.26,-18.11 4.71,-14.11 1.05,-28.95 -8.19,-33.09 -9.24,-4.14 -20.55,4 -25.26,18.12 -4.71,14.12 -1.06,28.94 8.19,33.08 M 619.87,50.05 c 5.43,-23.48 25.51,-38.91 44.86,-34.44 19.35,4.47 30.64,27.16 25.27,50.64 -5.37,23.48 -25.51,38.91 -44.9,34.44 -19.39,-4.47 -30.65,-27.14 -25.22,-50.64"
         id="path25-8" />
      <path
         style="fill:#fffffe;fill-opacity:1"
         inkscape:connector-curvature="0"
         d="m 272.84,22.44 c -16.64,10.3 -24.64,26 -22.51,47.34 2.48,24.77 34.54,40.36 61.7,24.65 2.38,-1.38 1.45,-1.16 2.33,-2 L 319.8,58 h -32.41 l -2.51,16 h 13.55 l -1.55,8.53 c -7.76,3.12 -21,2 -26.59,-8.15 -3.56,-6.39 -6.87,-20.65 8.16,-33.8 12.21,-10.67 33.37,-12.61 45.59,-7 0,0 1.56,-8.89 2.72,-17.27 C 303.28,8.17 285,15 272.82,22.54"
         id="path27-4" />
      <path
         style="fill:#fffffe;fill-opacity:1"
         inkscape:connector-curvature="0"
         d="m 562.93,15.35 -13.47,84.34 h 39.28 c 16.17,0 39.83,-23.85 18.29,-43.33 22.14,-22.92 0.19,-40.83 -11.56,-41 -9.44,-0.16 -32.74,0 -32.74,0 h 0.19 m 9.63,51 h 14.64 c 13.86,0 13.48,16.9 -1.93,16.9 h -15.4 l 2.67,-16.9 m 5.39,-33.12 h 11.37 c 12.32,0 9.78,15.79 -1.93,15.79 h -12.11 l 2.67,-15.79"
         id="path29-1" />
    </g>
    <path
       inkscape:connector-curvature="0"
       id="path866"
       d="m 622.52132,89.804031 -2.60221,-0.675094 0.19943,-2.043713 c 0.38747,-3.970713 -1.56162,-9.143849 -4.58382,-12.166052 -2.03231,-2.03231 -5.32313,-3.665445 -7.91768,-3.929313 l -1.94517,-0.197825 v -1.315417 c 0,-3.204206 1.50036,-9.276508 3.47186,-14.051413 0.8562,-2.073686 1.03228,-2.283873 2.53663,-3.027905 3.33926,-1.651562 6.4746,-5.271389 7.56671,-8.735957 0.48234,-1.530153 0.67621,-1.746136 2.57657,-2.870477 7.55311,-4.46877 13.74977,-4.97052 20.47137,-1.657588 1.39911,0.68959 3.23424,1.799535 4.07807,2.466546 1.4078,1.112802 1.60448,1.438049 2.38663,3.946651 0.97207,3.117777 0.93764,2.791931 1.59191,15.063755 0.26922,5.049651 0.69069,11.270874 0.9366,13.824939 0.51506,5.34962 0.66258,4.862168 -2.39644,7.918768 -2.44377,2.441834 -4.87342,4.121517 -8.16994,5.648084 -3.87228,1.793194 -5.95888,2.238422 -11.08552,2.365365 -3.8628,0.09565 -4.88759,0.0145 -7.115,-0.563354 z m 12.21299,-11.301652 c 3.7377,-0.973545 7.14379,-3.835189 8.95949,-7.527362 0.99985,-2.033153 1.03612,-2.237115 1.01229,-5.692105 -0.0378,-5.483702 -1.44133,-10.059095 -4.0849,-13.316618 -1.49459,-1.8417 -3.02868,-2.561307 -5.4482,-2.555622 -6.48736,0.01525 -12.19508,3.694514 -15.23005,9.817476 -1.35332,2.730302 -1.35517,2.738718 -1.35517,6.181805 0,2.855952 0.11983,3.741609 0.69805,5.159526 2.53728,6.221948 9.09293,9.588314 15.44849,7.9329 z"
       style="opacity:1;vector-effect:none;fill:#fffffe;fill-opacity:1;stroke:none;stroke-width:0.58814472;stroke-linecap:butt;stroke-linejoin:miter;stroke-miterlimit:4;stroke-dasharray:none;stroke-dashoffset:0;stroke-opacity:1" />
    <path
       style="fill:#fffffe;fill-opacity:1;stroke-width:0.94938099"
       inkscape:connector-curvature="0"
       id="path75"
       d="m 606.41816,79.602664 c 2.65084,0.98701 3.98244,3.164318 4.58235,6.001745 0.28898,4.386282 -3.52921,8.199019 -6.38604,8.498106 -1.45623,0.152438 -2.92638,0.164158 -4.39104,0.201852 -4.09106,0.105284 -8.18463,0.324308 -12.2733,0.248673 A 31.931143,34.71218 0 0 1 574.7634,91.70026 21.246502,23.096962 0 0 1 564.20815,79.663412 26.410194,28.710385 0 0 1 562.19764,69.435088 c -0.47026,-8.539531 1.98291,-16.027889 6.29369,-23.00248 3.17582,-5.138368 6.47147,-10.151727 10.727,-14.317726 3.42257,-3.35058 7.19681,-6.049041 11.82684,-6.972086 a 22.218057,24.153134 0 0 1 15.87961,2.908123 c 4.83017,3.148144 5.40142,9.85959 3.1657,14.216057 a 7.280344,7.914424 0 0 1 -7.46783,3.65821 6.627384,7.2045947 0 0 1 -5.61094,-5.759695 c -0.0275,-0.127415 -0.0712,-0.250682 -0.128,-0.447288 a 4.1960074,4.5614578 0 0 0 -3.3314,-0.205951 20.106231,21.857379 0 0 0 -7.94078,5.707965 34.9829,38.029729 0 0 0 -9.54922,18.482962 14.14185,15.373532 0 0 0 0.0475,7.677016 9.2848426,10.093504 0 0 0 7.95976,7.84061 60.447281,65.711925 0 0 0 12.88486,0.311806 c 2.46443,-0.130147 4.93026,-0.249841 7.39673,-0.299482 a 11.22308,12.200552 0 0 1 2.06708,0.369535 z" />
    <path
       sodipodi:nodetypes="ccccccscccccccccccccccccccccccccccccscccccccccccccccccccccccccccccccccc"
       style="fill:none;fill-opacity:1;stroke:#14ffff;stroke-width:2.30006599;stroke-miterlimit:4;stroke-dasharray:none;stroke-opacity:1"
       inkscape:connector-curvature="0"
       id="path31"
       d="m 763.54601,19.937478 c 7.92972,0 14.96518,3.306142 21.35974,8.923747 3.29502,2.894727 4.06306,7.685215 3.24925,12.232557 -0.52243,6.717892 -3.29605,12.557112 -7.87122,16.248807 -1.95724,1.579276 -2.49354,1.414574 -4.51606,2.882553 0.59862,1.004892 0.15301,0.224351 0.15301,0.224351 1.7672,1.687875 0.0321,0.182398 1.7331,1.798987 4.49815,4.274882 9.67327,10.050938 14.17367,14.322697 1.99742,1.840681 0.81433,7.208732 -0.20276,9.937554 -0.83437,2.815941 -2.6313,5.09782 -4.95964,6.298134 -0.90567,0.49937 -2.55109,1.209938 -3.55179,1.233842 -1.27908,-0.0052 -2.51461,-0.545073 -3.48437,-1.522473 -3.89436,-3.741223 -8.03503,-7.66509 -11.93797,-11.394223 -2.78187,-2.65804 -4.67798,-5.543975 -7.44889,-8.217666 -0.11177,-0.107301 -0.23888,-0.192807 -0.5046,-0.40466 0,0.479297 0.63145,0.498361 0.62045,0.827497 2.34398,4.020697 2.10829,8.697047 1.67841,12.675801 -0.23567,3.741231 -5.74109,6.292769 -8.94107,6.188402 -0.70964,-0.0039 -1.41582,-0.116338 -2.10061,-0.334534 -4.63812,-1.450548 -7.73719,-5.564575 -7.12185,-11.32777 0.25374,-1.659321 1.27453,-3.403785 1.73885,-4.999309 0.60542,-2.505014 0.76629,-5.128858 0.47268,-7.709567 -0.018,-1.359896 -0.0359,-2.719772 -0.0537,-4.079627 -0.14423,-3.376848 -0.24621,-6.757352 -0.45314,-10.12892 -0.14045,-1.37767 -0.34221,-2.745801 -0.60447,-4.098801 -0.13393,-1.141554 -0.26787,-2.283315 -0.40184,-3.425283 l -2.3e-4,-3.87e-4 c -0.53712,-2.531688 -1.72096,-4.711966 -2.13922,-7.270481 -0.70074,-3.861009 0.42359,-8.305551 2.94378,-10.924626 3.86063,-4.303639 8.37278,-7.479197 13.69652,-7.73905 0.84098,-0.07205 4.20278,-0.217926 5.02378,-0.217547 m -4.40886,28.963488 c 3.02087,-0.188496 9.64288,-2.992246 11.84653,-5.086973 0.66519,-0.729801 1.2788,-1.521581 1.83482,-2.367564 -0.33162,-1.031673 -1.08143,-1.800733 -1.99797,-2.049245 -2.38862,-0.877227 -4.88147,-1.301736 -7.38435,-1.257487 -0.61657,-0.02278 -1.23352,-0.02986 -1.85694,-0.02986 -1.01207,0 -2.04105,0.01859 -3.11235,0.01859 0.22771,3.659979 0.77924,8.098006 1.00037,11.652862 m 2.64829,-36.341857 c -0.97404,0 -1.9672,0.04279 -2.95193,0.12713 -6.79305,0.390498 -13.23959,3.631452 -18.16229,9.130967 -4.067,4.337235 -5.87462,10.870686 -4.75304,17.179312 0.32921,2.013663 0.75508,3.910242 1.16695,5.744412 0.14004,0.623847 0.28026,1.247627 0.41526,1.872638 l 0.35508,3.025774 c 0.0115,0.09824 0.0248,0.196133 0.0397,0.293682 0.0753,0.49255 0.16119,0.98419 0.24798,1.475672 0.12098,0.611408 0.21261,1.230286 0.27444,1.85372 0.1417,2.308578 0.23141,4.601903 0.32631,7.029883 0.0367,0.937024 0.0744,1.873921 0.11302,2.810692 l 0.0524,3.953154 c 0.004,0.27397 0.0202,0.547492 0.0498,0.819294 0.18625,1.59154 0.0899,3.211008 -0.28295,4.756876 -0.0888,0.364967 -0.1844,0.72968 -0.27974,1.094845 -0.45402,1.59469 -0.78553,3.233732 -0.99059,4.897574 -1.00515,9.414799 3.34625,17.062227 11.08572,19.482672 1.21439,0.383685 2.46632,0.580019 3.72407,0.584028 6.12114,0.106535 11.36915,-5.100172 12.28936,-12.192631 1.31362,1.253353 2.62837,2.505147 3.94424,3.75538 2.32585,2.212204 4.64857,4.428758 6.96814,6.649662 2.09668,2.056403 4.74198,3.186817 7.47609,3.194747 1.88366,-0.0221 3.7421,-0.51013 5.45365,-1.432204 3.89009,-2.00154 6.89847,-5.802687 8.30925,-10.498903 1.9396,-5.69047 0.47451,-12.19805 -3.60816,-16.02659 -2.5798,-2.454088 -5.1611,-4.906103 -7.74391,-7.356045 l -4.10339,-3.896604 C 788.36498,56.52521 792.08215,50.286842 793.43673,42.718362 794.82603,34.95579 792.82491,28.250611 787.802,23.837926 779.94776,16.93801 771.49067,13.439439 762.6656,13.439439 Z" />
    <path
       sodipodi:nodetypes="cccccscsscccccccccc"
       inkscape:connector-curvature="0"
       id="path868"
       d="m 704.33069,89.712699 c -2.4467,-0.55337 -5.84994,-2.199902 -7.85959,-3.80257 -1.34847,-1.075393 -1.45901,-1.262497 -1.24865,-2.113521 0.12693,-0.513524 0.23003,-2.124121 0.2291,-3.579105 -10e-4,-2.188876 -0.13993,-2.940843 -0.80272,-4.357172 -0.98436,-2.103528 -2.71097,-3.822074 -4.86798,-4.845254 l -1.63394,-0.77506 v -3.583109 c 0,-13.326248 7.93348,-24.362747 19.78025,-27.516908 9.17485,-2.442772 18.41229,0.06579 24.74425,6.719668 3.52546,3.704704 3.97805,4.563884 4.1851,7.944915 0.0982,1.603422 0.38239,5.016092 0.63157,7.583712 0.24917,2.567619 0.4534,5.788814 0.45384,7.158211 6.2e-4,2.42481 -0.039,2.556636 -1.52186,5.049318 -3.04537,5.119108 -6.25812,8.452621 -10.97229,11.384712 -6.22728,3.873196 -15.61423,5.976736 -21.11708,4.732163 z M 703.68933,54.58468 c -6.39714,6.101838 -5.43989,16.459858 1.92919,20.874996 30.53557,-3.250101 19.75935,-40.984682 -1.92919,-20.874996 z"
       style="opacity:1;vector-effect:none;fill:#fffffe;fill-opacity:1;stroke:none;stroke-width:0.58814472;stroke-linecap:butt;stroke-linejoin:miter;stroke-miterlimit:4;stroke-dasharray:none;stroke-dashoffset:0;stroke-opacity:1" />
    <path
       inkscape:connector-curvature="0"
       id="path876"
       d="m 704.20664,89.665675 c -2.50795,-0.537718 -4.91421,-1.69151 -7.43965,-3.567294 l -1.80602,-1.341427 0.24988,-1.258239 c 0.13744,-0.692031 0.24009,-2.325703 0.22811,-3.630381 -0.0366,-3.985334 -1.94138,-6.90918 -5.76256,-8.84552 l -1.60513,-0.813378 0.16113,-4.566184 c 0.27014,-7.655162 2.20812,-12.914851 6.7615,-18.35077 8.15079,-9.730595 22.90334,-11.958693 33.40688,-5.045487 2.38127,1.567301 5.67536,4.823211 7.3164,7.231605 0.96283,1.413039 1.01618,1.653938 1.30954,5.913305 0.1682,2.442141 0.44321,5.820603 0.61113,7.507692 0.16792,1.687089 0.30531,4.220683 0.30531,5.630209 0,2.519354 -0.0261,2.606226 -1.54138,5.127392 -4.36794,7.267576 -10.05993,11.912835 -17.71184,14.454716 -5.96024,1.979927 -10.31613,2.447221 -14.4833,1.553761 z m 12.1626,-20.373168 c 2.3931,-1.135669 4.13722,-3.050513 4.85627,-5.331617 0.78103,-2.477701 0.69213,-3.17369 -0.58606,-4.588503 -1.37372,-1.520537 -2.53592,-1.871352 -6.19389,-1.869648 -2.27902,0.0011 -3.09148,0.136552 -4.35944,0.727014 -1.61441,0.751791 -3.40407,2.507997 -3.90891,3.83583 -0.90101,2.36982 0.16675,5.795152 2.23265,7.162304 2.37749,1.57335 4.73976,1.592527 7.95938,0.06462 z"
       style="opacity:1;vector-effect:none;fill:#fffffe;fill-opacity:1;stroke:none;stroke-width:0.58814472;stroke-linecap:butt;stroke-linejoin:miter;stroke-miterlimit:4;stroke-dasharray:none;stroke-dashoffset:0;stroke-opacity:1" />
    <path
       sodipodi:nodetypes="sscccccssccscscscccc"
       inkscape:connector-curvature="0"
       id="path878"
       d="m 622.78933,89.864384 c -3.0375,-0.752838 -4.90543,-1.590159 -7.85296,-3.520168 -2.1728,-1.422723 -2.45639,-1.725954 -2.92025,-3.122524 -0.46635,-1.40404 -2.29919,-3.602547 -4.26042,-5.110418 -0.2822,-0.216963 -0.82897,-1.407404 -1.21505,-2.645426 -0.56733,-1.819219 -0.70046,-2.96725 -0.69413,-5.985662 0.007,-3.229341 0.14389,-4.231226 1.01332,-7.403884 1.95413,-7.130815 4.43267,-11.679524 8.90973,-16.351445 5.192,-5.417985 12.0635,-8.745244 18.09633,-8.762444 7.46862,-0.02129 16.26321,5.857547 19.98586,13.359764 l 1.14952,2.316624 0.52482,8.731919 c 0.59613,9.918439 0.61187,9.787525 -1.72089,14.320443 -2.68669,5.220677 -6.69891,9.125266 -12.18667,11.859762 -4.4122,2.198558 -7.61994,2.929529 -12.76029,2.907784 -2.54841,-0.01077 -4.47616,-0.199562 -6.06892,-0.594325 z m 16.08532,-39.469449 c -5.89548,-2.716373 -14.52304,2.187225 -17.62606,6.672919 -2.64321,3.951923 -3.41515,7.959334 -2.33341,12.113523 18.31818,16.204409 37.5937,-6.306114 19.95947,-18.786442 z"
       style="opacity:1;vector-effect:none;fill:#fffffe;fill-opacity:1;stroke:none;stroke-width:0.58814472;stroke-linecap:butt;stroke-linejoin:miter;stroke-miterlimit:4;stroke-dasharray:none;stroke-dashoffset:0;stroke-opacity:1" />
    <path
       style="fill:none;fill-opacity:1;stroke:#14ffff;stroke-width:2.24263239;stroke-miterlimit:4;stroke-dasharray:none;stroke-opacity:1"
       inkscape:connector-curvature="0"
       id="path43"
       d="m 595.66757,24.671781 a 21.543763,23.420112 0 0 1 11.25729,3.379148 c 4.83017,3.148104 5.40142,9.85958 3.16568,14.216018 a 7.1490873,7.7717356 0 0 1 -6.27471,3.758195 7.7747214,8.4518592 0 0 1 -1.1931,-0.09998 6.6273567,7.204565 0 0 1 -5.61095,-5.759675 c -0.0275,-0.127415 -0.0713,-0.250662 -0.12799,-0.447318 a 4.024841,4.3753838 0 0 0 -1.83817,-0.48321 4.7229008,5.1342409 0 0 0 -1.49327,0.277309 20.105593,21.856686 0 0 0 -7.94074,5.707955 34.982663,38.029471 0 0 0 -9.54922,18.482913 14.141714,15.373383 0 0 0 0.0475,7.677045 9.2847698,10.093425 0 0 0 7.95976,7.84059 40.828134,44.384053 0 0 0 6.69722,0.530873 c 2.06059,0 4.1243,-0.110073 6.18767,-0.219066 2.46441,-0.130137 4.93025,-0.249821 7.39672,-0.299483 l 0.0543,-5.44e-4 a 12.111847,13.166726 0 0 1 2.01274,0.370109 c 2.65086,0.98702 3.98245,3.164299 4.58235,6.001755 0.28899,4.386223 -3.52919,8.19892 -6.38601,8.498096 -1.45626,0.152498 -2.92642,0.164158 -4.39106,0.201852 -3.50878,0.09026 -7.01869,0.264293 -10.52647,0.264293 q -0.87323,0 -1.74682,-0.01559 A 31.932081,34.713199 0 0 1 574.76352,91.70029 21.246366,23.096814 0 0 1 564.20825,79.663422 26.409575,28.709712 0 0 1 562.19774,69.435118 c -0.47022,-8.539531 1.9829,-16.027909 6.2937,-23.00249 3.17583,-5.138368 6.47148,-10.151747 10.72699,-14.317756 3.42259,-3.35057 7.19681,-6.04904 11.82684,-6.972046 a 25.608604,27.838981 0 0 1 4.62237,-0.471065 m 1.6e-4,-6.929028 v 0 a 32.103894,34.899976 0 0 0 -5.77229,0.584771 c -5.24141,1.044778 -9.9895,3.789732 -14.94236,8.638448 -4.92754,4.82388 -8.65002,10.582941 -11.75232,15.602387 -5.47895,8.864651 -7.88834,17.788259 -7.36559,27.280808 a 32.791938,35.647945 0 0 0 2.55489,12.64399 27.57761,29.979476 0 0 0 13.67423,15.484228 c 4.47487,2.273945 9.48826,3.387305 15.7774,3.503665 q 0.92726,0.0172 1.8553,0.0166 c 2.46657,0 4.92553,-0.0823 7.30351,-0.16191 1.12463,-0.0376 2.24927,-0.0753 3.37379,-0.10429 l 0.67081,-0.016 c 1.33432,-0.0307 2.71411,-0.0623 4.18052,-0.21579 6.17878,-0.64706 12.68005,-7.580139 12.13252,-15.890241 a 6.3788112,6.9343725 0 0 0 -0.14569,-1.056983 c -1.47088,-6.95706 -5.55872,-9.82448 -8.72899,-11.004899 a 6.3744588,6.929641 0 0 0 -0.97141,-0.271024 c -0.11453,-0.02169 -0.22864,-0.05256 -0.34328,-0.08065 a 12.120461,13.17609 0 0 0 -2.76334,-0.392282 l -0.17235,0.0017 c -2.6612,0.05353 -5.31211,0.186263 -7.58796,0.306432 l -0.0628,0.0032 c -2.02134,0.106756 -3.93055,0.207593 -5.81557,0.207593 a 34.182758,37.159898 0 0 1 -5.6553,-0.437657 c -1.70662,-0.307391 -2.37575,-0.978804 -2.86393,-2.873566 a 7.8054436,8.4852571 0 0 1 0.0306,-4.273913 28.499184,30.981314 0 0 1 7.87501,-15.155436 17.611653,19.145536 0 0 1 3.036,-2.748339 12.972277,14.102095 0 0 0 8.4554,5.438385 14.195883,15.43227 0 0 0 2.17129,0.182036 13.463877,14.636511 0 0 0 11.84095,-7.31146 c 3.6952,-7.200299 2.66055,-18.245614 -5.45443,-23.53458 a 27.887007,30.315821 0 0 0 -14.53468,-4.365282 z" />
    <path
       inkscape:connector-curvature="0"
       id="path880"
       d="m 623.25617,90.04943 c -2.79057,-0.635882 -5.49082,-1.82703 -8.21326,-3.623072 -2.17562,-1.435287 -2.51429,-1.793235 -3.1517,-3.331118 -0.6514,-1.571607 -2.18874,-3.441976 -3.95227,-4.808422 -2.15917,-1.673005 -2.80195,-10.066343 -1.2184,-15.909776 2.08529,-7.694918 4.4357,-11.921486 9.37664,-16.861302 5.31042,-5.309206 10.7954,-8.125793 16.51949,-8.482907 8.40797,-0.524555 17.7162,5.515268 21.59686,14.01354 0.85541,1.873253 0.90124,2.231672 1.35565,10.600847 0.4451,8.19758 0.44064,8.748286 -0.0833,10.270477 -2.89552,8.412859 -9.99408,15.114572 -18.69517,17.650007 -2.983,0.869228 -10.63829,1.141698 -13.53457,0.481726 z m 9.98737,-18.274592 c 1.77309,-0.446467 4.2363,-2.620908 4.92839,-4.350608 0.42728,-1.067863 0.4615,-1.654703 0.2043,-3.503707 -0.39434,-2.835001 -1.41187,-6.055554 -2.21472,-7.009781 -0.55539,-0.6601 -0.80026,-0.722078 -2.1986,-0.556466 -4.52695,0.536151 -8.75591,4.568721 -9.23335,8.804571 -0.30641,2.718435 2.13691,5.987907 4.97838,6.661725 1.48102,0.351201 1.98512,0.344681 3.5356,-0.04573 z"
       style="opacity:1;vector-effect:none;fill:#fffffe;fill-opacity:1;stroke:none;stroke-width:0.58814472;stroke-linecap:butt;stroke-linejoin:miter;stroke-miterlimit:4;stroke-dasharray:none;stroke-dashoffset:0;stroke-opacity:1" />
  </g>
</svg>
