<?xml version="1.0" encoding="UTF-8" standalone="no"?>
<svg
   xmlns:dc="http://purl.org/dc/elements/1.1/"
   xmlns:cc="http://creativecommons.org/ns#"
   xmlns:rdf="http://www.w3.org/1999/02/22-rdf-syntax-ns#"
   xmlns:svg="http://www.w3.org/2000/svg"
   xmlns="http://www.w3.org/2000/svg"
   xmlns:sodipodi="http://sodipodi.sourceforge.net/DTD/sodipodi-0.dtd"
   xmlns:inkscape="http://www.inkscape.org/namespaces/inkscape"
   width="156"
   height="20"
   viewBox="0 0 156 20"
   version="1.1"
   id="svg3739"
   sodipodi:docname="system.svg"
   inkscape:version="0.92.4 (5da689c313, 2019-01-14)">
  <metadata
     id="metadata3743">
    <rdf:RDF>
      <cc:Work
         rdf:about="">
        <dc:format>image/svg+xml</dc:format>
        <dc:type
           rdf:resource="http://purl.org/dc/dcmitype/StillImage" />
        <dc:title>system</dc:title>
      </cc:Work>
    </rdf:RDF>
  </metadata>
  <sodipodi:namedview
     pagecolor="#ffffff"
     bordercolor="#666666"
     borderopacity="1"
     objecttolerance="10"
     gridtolerance="10"
     guidetolerance="10"
     inkscape:pageopacity="0"
     inkscape:pageshadow="2"
     inkscape:window-width="1920"
     inkscape:window-height="1137"
     id="namedview3741"
     showgrid="false"
     inkscape:zoom="7.5183342"
     inkscape:cx="93.441956"
     inkscape:cy="8.1535411"
     inkscape:window-x="-8"
     inkscape:window-y="344"
     inkscape:window-maximized="1"
     inkscape:current-layer="svg3739"
     scale-x="2" />
  <!-- Generator: Sketch 45 (43475) - http://www.bohemiancoding.com/sketch -->
  <title
     id="title3729">system</title>
  <desc
     id="desc3731">Created with Sketch.</desc>
  <defs
     id="defs3733" />
  <g
     inkscape:groupmode="layer"
     id="layer1"
     inkscape:label="Layer 1"
     transform="translate(0,2)" />
  <g
     inkscape:groupmode="layer"
     id="layer2"
     inkscape:label="Layer 2"
     transform="translate(0,2)" />
  <g
     aria-label="GAMEBOY COLOR"
     style="font-style:normal;font-variant:normal;font-weight:normal;font-stretch:normal;font-size:21.33333397px;line-height:1.25;font-family:Arial;-inkscape-font-specification:Arial;letter-spacing:0px;word-spacing:0px;fill:none;fill-opacity:1;stroke:#ffffff;stroke-width:0.5;stroke-miterlimit:4;stroke-dasharray:none;stroke-opacity:1"
     id="text4643">
    <path
       d="M 8.2737989,11.409234 V 9.9535043 l 5.2558591,-0.00846 v 4.6041677 q -1.210286,0.964843 -2.496744,1.455729 -1.2864588,0.482422 -2.6406255,0.482422 -1.8281251,0 -3.326172,-0.778646 -1.4895834,-0.78711 -2.2513022,-2.268229 -0.7617188,-1.48112 -0.7617188,-3.309245 0,-1.8111988 0.7532553,-3.376954 0.7617187,-1.5742188 2.1835938,-2.3359376 1.4218751,-0.7617188 3.2753907,-0.7617188 1.3457032,0 2.4290367,0.4401042 1.091797,0.4316406 1.709635,1.2102865 0.617839,0.7786458 0.939454,2.0312501 l -1.48112,0.40625 Q 11.583044,6.7966032 11.16833,6.2549365 10.753617,5.7132698 9.9834344,5.3916552 9.213252,5.0615771 8.2737989,5.0615771 q -1.1256511,0 -1.9466147,0.3470052 Q 5.5062207,5.747124 4.9984081,6.3057177 4.4990592,6.8643115 4.2197623,7.5329313 3.7458039,8.683973 3.7458039,10.029676 q 0,1.658854 0.5670573,2.776042 0.5755209,1.117188 1.6673178,1.658854 1.0917969,0.541667 2.3190105,0.541667 1.0664063,0 2.0820315,-0.40625 1.015625,-0.414714 1.540364,-0.880208 v -2.310547 z"
       style="font-size:17.33333397px;fill:none;fill-opacity:1;stroke:#ffffff;stroke-width:0.5;stroke-miterlimit:4;stroke-dasharray:none;stroke-opacity:1"
       id="path5266"
       inkscape:connector-curvature="0" />
    <path
       d="M 14.579138,16.27577 19.344112,3.8682176 h 1.76888 L 26.191117,16.27577 h -1.870442 l -1.447266,-3.757812 h -5.188151 l -1.362631,3.757812 z m 3.580078,-5.095052 h 4.20638 L 21.070674,7.7445199 Q 20.478227,6.1787646 20.190466,5.1716031 19.953487,6.3649625 19.521846,7.5413949 Z"
       style="font-size:17.33333397px;fill:none;fill-opacity:1;stroke:#ffffff;stroke-width:0.5;stroke-miterlimit:4;stroke-dasharray:none;stroke-opacity:1"
       id="path5268"
       inkscape:connector-curvature="0" />
    <path
       d="M 27.469112,16.27577 V 3.8682176 h 2.471354 l 2.936849,8.7851564 q 0.40625,1.227214 0.592448,1.836589 0.211589,-0.677084 0.660156,-1.988933 l 2.970704,-8.6328124 h 2.208984 V 16.27577 H 37.726925 V 5.8910042 L 34.121456,16.27577 h -1.48112 L 29.051794,5.7132698 V 16.27577 Z"
       style="font-size:17.33333397px;fill:none;fill-opacity:1;stroke:#ffffff;stroke-width:0.5;stroke-miterlimit:4;stroke-dasharray:none;stroke-opacity:1"
       id="path5270"
       inkscape:connector-curvature="0" />
    <path
       d="M 42.009476,16.27577 V 3.8682176 h 8.971354 v 1.4641928 h -7.329427 v 3.8001304 h 6.863932 V 10.58827 h -6.863932 v 4.223307 h 7.617188 v 1.464193 z"
       style="font-size:17.33333397px;fill:none;fill-opacity:1;stroke:#ffffff;stroke-width:0.5;stroke-miterlimit:4;stroke-dasharray:none;stroke-opacity:1"
       id="path5272"
       inkscape:connector-curvature="0" />
    <path
       d="M 53.486038,16.27577 V 3.8682176 h 4.654948 q 1.421875,0 2.276693,0.3808594 0.863281,0.3723959 1.345703,1.1595053 0.490886,0.7786459 0.490886,1.6334636 0,0.7955729 -0.431641,1.4980469 -0.431641,0.702474 -1.303385,1.1341146 1.125651,0.3300786 1.726562,1.1256516 0.609375,0.795572 0.609375,1.878906 0,0.871745 -0.372396,1.625 -0.363932,0.744792 -0.905599,1.151042 -0.541666,0.40625 -1.36263,0.617838 -0.8125,0.203125 -1.997396,0.203125 z m 1.641927,-7.1940105 h 2.682943 q 1.091797,0 1.565755,-0.1438802 0.626303,-0.1861979 0.939454,-0.6178386 0.321614,-0.4316406 0.321614,-1.0833333 0,-0.6178386 -0.296224,-1.0833334 -0.296224,-0.4739584 -0.846354,-0.6432292 -0.55013,-0.1777344 -1.88737,-0.1777344 h -2.479818 z m 0,5.7298175 h 3.089193 q 0.795573,0 1.117188,-0.05924 0.567057,-0.101563 0.947916,-0.338542 0.38086,-0.236979 0.626303,-0.685547 0.245442,-0.457031 0.245442,-1.049479 0,-0.694011 -0.355468,-1.201823 -0.355469,-0.516276 -0.990235,-0.719401 -0.626302,-0.211589 -1.811198,-0.211589 h -2.869141 z"
       style="font-size:17.33333397px;fill:none;fill-opacity:1;stroke:#ffffff;stroke-width:0.5;stroke-miterlimit:4;stroke-dasharray:none;stroke-opacity:1"
       id="path5274"
       inkscape:connector-curvature="0" />
    <path
       d="m 64.632523,10.232801 q 0,-3.0891926 1.658854,-4.8326823 1.658854,-1.7519531 4.282552,-1.7519531 1.718099,0 3.097656,0.8209635 1.379558,0.8209636 2.098959,2.2936199 0.727864,1.4641928 0.727864,3.326172 0,1.88737 -0.761718,3.376953 -0.761719,1.489584 -2.158204,2.259766 -1.396484,0.761719 -3.01302,0.761719 -1.751954,0 -3.131511,-0.846354 -1.379557,-0.846355 -2.090495,-2.310547 -0.710937,-1.464193 -0.710937,-3.097657 z m 1.692708,0.02539 q 0,2.242838 1.201823,3.53776 1.210286,1.286459 3.029948,1.286459 1.853516,0 3.046875,-1.303386 1.201823,-1.303385 1.201823,-3.698568 0,-1.5149736 -0.516276,-2.6406246 -0.507813,-1.1341147 -1.498047,-1.7519532 -0.981771,-0.6263021 -2.208984,-0.6263021 -1.74349,0 -3.004558,1.2018229 -1.252604,1.1933594 -1.252604,3.994792 z"
       style="font-size:17.33333397px;fill:none;fill-opacity:1;stroke:#ffffff;stroke-width:0.5;stroke-miterlimit:4;stroke-dasharray:none;stroke-opacity:1"
       id="path5276"
       inkscape:connector-curvature="0" />
    <path
       d="M 82.101275,16.27577 V 11.019911 L 77.319374,3.8682176 h 1.997396 l 2.445964,3.7408856 q 0.677083,1.0494792 1.261067,2.0989584 0.558594,-0.9733073 1.354167,-2.1920574 l 2.403646,-3.6477866 h 1.912761 l -4.951173,7.1516934 v 5.255859 z"
       style="font-size:17.33333397px;fill:none;fill-opacity:1;stroke:#ffffff;stroke-width:0.5;stroke-miterlimit:4;stroke-dasharray:none;stroke-opacity:1"
       id="path5278"
       inkscape:connector-curvature="0" />
    <path
       d="m 103.53942,11.92551 1.64193,0.414713 q -0.51627,2.022787 -1.86198,3.089193 -1.33724,1.057943 -3.27539,1.057943 -2.005858,0 -3.266926,-0.8125 -1.252604,-0.820964 -1.912761,-2.369792 -0.651692,-1.548828 -0.651692,-3.326172 0,-1.9381512 0.736328,-3.3769533 0.744792,-1.4472657 2.107422,-2.1920574 1.371094,-0.7532552 3.013019,-0.7532552 1.86198,0 3.13151,0.9479167 1.26953,0.9479167 1.76888,2.6660157 l -1.61653,0.3808594 q -0.43164,-1.3541667 -1.25261,-1.9720053 -0.82096,-0.6178385 -2.0651,-0.6178385 -1.430341,0 -2.395185,0.6855469 -0.95638,0.6855469 -1.345703,1.8450521 -0.389323,1.1510417 -0.389323,2.3782553 0,1.5826826 0.457031,2.7675786 0.465495,1.176432 1.438803,1.760416 0.973307,0.583985 2.107421,0.583985 1.379556,0 2.335936,-0.795573 0.95638,-0.795573 1.29492,-2.361328 z"
       style="font-size:17.33333397px;fill:none;fill-opacity:1;stroke:#ffffff;stroke-width:0.5;stroke-miterlimit:4;stroke-dasharray:none;stroke-opacity:1"
       id="path5280"
       inkscape:connector-curvature="0" />
    <path
       d="m 106.71326,10.232801 q 0,-3.0891926 1.65885,-4.8326823 1.65886,-1.7519531 4.28255,-1.7519531 1.7181,0 3.09766,0.8209635 1.37956,0.8209636 2.09896,2.2936199 0.72786,1.4641928 0.72786,3.326172 0,1.88737 -0.76172,3.376953 -0.76171,1.489584 -2.1582,2.259766 -1.39648,0.761719 -3.01302,0.761719 -1.75195,0 -3.13151,-0.846354 -1.37956,-0.846355 -2.0905,-2.310547 -0.71093,-1.464193 -0.71093,-3.097657 z m 1.69271,0.02539 q 0,2.242838 1.20182,3.53776 1.21028,1.286459 3.02995,1.286459 1.85351,0 3.04687,-1.303386 1.20182,-1.303385 1.20182,-3.698568 0,-1.5149736 -0.51627,-2.6406246 -0.50781,-1.1341147 -1.49805,-1.7519532 -0.98177,-0.6263021 -2.20898,-0.6263021 -1.74349,0 -3.00456,1.2018229 -1.2526,1.1933594 -1.2526,3.994792 z"
       style="font-size:17.33333397px;fill:none;fill-opacity:1;stroke:#ffffff;stroke-width:0.5;stroke-miterlimit:4;stroke-dasharray:none;stroke-opacity:1"
       id="path5282"
       inkscape:connector-curvature="0" />
    <path
       d="M 120.61885,16.27577 V 3.8682176 h 1.64193 V 14.811577 h 6.11068 v 1.464193 z"
       style="font-size:17.33333397px;fill:none;fill-opacity:1;stroke:#ffffff;stroke-width:0.5;stroke-miterlimit:4;stroke-dasharray:none;stroke-opacity:1"
       id="path5284"
       inkscape:connector-curvature="0" />
    <path
       d="m 129.83565,10.232801 q 0,-3.0891926 1.65885,-4.8326823 1.65886,-1.7519531 4.28255,-1.7519531 1.7181,0 3.09766,0.8209635 1.37956,0.8209636 2.09896,2.2936199 0.72786,1.4641928 0.72786,3.326172 0,1.88737 -0.76172,3.376953 -0.76171,1.489584 -2.1582,2.259766 -1.39648,0.761719 -3.01302,0.761719 -1.75195,0 -3.13151,-0.846354 -1.37956,-0.846355 -2.09049,-2.310547 -0.71094,-1.464193 -0.71094,-3.097657 z m 1.69271,0.02539 q 0,2.242838 1.20182,3.53776 1.21029,1.286459 3.02995,1.286459 1.85351,0 3.04687,-1.303386 1.20183,-1.303385 1.20183,-3.698568 0,-1.5149736 -0.51628,-2.6406246 -0.50781,-1.1341147 -1.49805,-1.7519532 -0.98177,-0.6263021 -2.20898,-0.6263021 -1.74349,0 -3.00456,1.2018229 -1.2526,1.1933594 -1.2526,3.994792 z"
       style="font-size:17.33333397px;fill:none;fill-opacity:1;stroke:#ffffff;stroke-width:0.5;stroke-miterlimit:4;stroke-dasharray:none;stroke-opacity:1"
       id="path5286"
       inkscape:connector-curvature="0" />
    <path
       d="M 143.83436,16.27577 V 3.8682176 h 5.5013 q 1.65885,0 2.52213,0.3385417 0.86328,0.3300782 1.37956,1.1764324 0.51628,0.8463542 0.51628,1.8704427 0,1.3203126 -0.85482,2.2259116 -0.85482,0.905599 -2.64063,1.151042 0.6517,0.313151 0.99024,0.617838 0.7194,0.660157 1.36263,1.650391 l 2.1582,3.376953 h -2.0651 l -1.64193,-2.58138 q -0.7194,-1.117188 -1.1849,-1.709636 -0.46549,-0.592448 -0.83789,-0.829427 -0.36393,-0.236979 -0.74479,-0.330078 -0.27929,-0.05924 -0.91406,-0.05924 h -1.9043 v 5.509766 z m 1.64192,-6.9316407 h 3.5293 q 1.12565,0 1.76042,-0.2285156 0.63476,-0.2369792 0.96484,-0.7447917 0.33008,-0.5162761 0.33008,-1.1171876 0,-0.8802083 -0.64323,-1.4472656 -0.63477,-0.5670574 -2.01432,-0.5670574 h -3.92709 z"
       style="font-size:17.33333397px;fill:none;fill-opacity:1;stroke:#ffffff;stroke-width:0.5;stroke-miterlimit:4;stroke-dasharray:none;stroke-opacity:1"
       id="path5288"
       inkscape:connector-curvature="0" />
  </g>
</svg>
