<?xml version="1.0" encoding="UTF-8" standalone="no"?>
<svg
   xmlns:dc="http://purl.org/dc/elements/1.1/"
   xmlns:cc="http://creativecommons.org/ns#"
   xmlns:rdf="http://www.w3.org/1999/02/22-rdf-syntax-ns#"
   xmlns:svg="http://www.w3.org/2000/svg"
   xmlns="http://www.w3.org/2000/svg"
   xmlns:sodipodi="http://sodipodi.sourceforge.net/DTD/sodipodi-0.dtd"
   xmlns:inkscape="http://www.inkscape.org/namespaces/inkscape"
   id="Layer_1"
   data-name="Layer 1"
   viewBox="0 0 1000 114"
   version="1.1"
   sodipodi:docname="system.svg"
   inkscape:version="0.92.4 (5da689c313, 2019-01-14)">
  <metadata
     id="metadata94">
    <rdf:RDF>
      <cc:Work
         rdf:about="">
        <dc:format>image/svg+xml</dc:format>
        <dc:type
           rdf:resource="http://purl.org/dc/dcmitype/StillImage" />
        <dc:title>logo</dc:title>
      </cc:Work>
    </rdf:RDF>
  </metadata>
  <defs
     id="defs92" />
  <sodipodi:namedview
     pagecolor="#ffffff"
     bordercolor="#666666"
     borderopacity="1"
     objecttolerance="10"
     gridtolerance="10"
     guidetolerance="10"
     inkscape:pageopacity="0"
     inkscape:pageshadow="2"
     inkscape:window-width="1920"
     inkscape:window-height="1017"
     id="namedview90"
     showgrid="false"
     inkscape:pagecheckerboard="true"
     inkscape:zoom="1.136"
     inkscape:cx="381.86505"
     inkscape:cy="57"
     inkscape:window-x="-8"
     inkscape:window-y="-8"
     inkscape:window-maximized="1"
     inkscape:current-layer="Layer_1"
     inkscape:snap-global="false" />
  <title
     id="title2">logo</title>
  <g
     id="g1042"
     transform="matrix(1.1381954,0,0,1.2373263,-61.671741,-13.41366)">
    <path
       style="fill:#fffffe;fill-opacity:1;stroke-width:0.80000001"
       inkscape:connector-curvature="0"
       id="path15"
       d="m 612.51707,52.01393 c 0.073,0 0.14649,3.92e-4 0.21987,0.0012 a 4.606024,4.606024 0 0 1 3.22623,1.7812 c 1.71425,1.826856 2.46645,4.115336 2.9958,6.484232 0.2559,1.145264 0.35487,2.3256 0.5249,3.490088 0.23169,5.223928 -4.36383,9.069384 -8.24,9.9314 a 11.383016,11.383016 0 0 1 -2.47154,0.270552 10.515496,10.515496 0 0 1 -9.04536,-4.79604 c -2.27739,-3.796632 -1.82348,-7.559424 0.57618,-11.0336 2.92011,-4.227536 7.15014,-6.129 12.21396,-6.129 m 0,-5.6 c -7.14282,0 -12.95966,2.955272 -16.8216,8.546336 -3.80551,5.5096 -4.07925,11.581352 -0.7708,17.096872 a 16.0816,16.0816 0 0 0 13.84766,7.515432 17.012,17.012 0 0 0 3.68725,-0.404104 c 6.48,-1.441064 12.97178,-7.6874 12.6188,-15.645944 a 5.591336,5.591336 0 0 0 -0.0532,-0.560936 c -0.0478,-0.327488 -0.0891,-0.6564 -0.13066,-0.985256 -0.11094,-0.8772 -0.23667,-1.871432 -0.47027,-2.916992 a 18.8168,18.8168 0 0 0 -4.37739,-9.094968 c -0.81381,-0.867288 -3.29028,-3.506352 -7.2496,-3.548928 l -0.28013,-0.0015 z" />
    <path
       style="fill:none;fill-opacity:1;stroke:#14ffff;stroke-width:1.88976383;stroke-miterlimit:4;stroke-dasharray:none;stroke-opacity:1"
       inkscape:connector-curvature="0"
       id="path39"
       d="m 678.08103,37.450891 a 23.432128,23.432128 0 0 1 17.1759,7.321728 40.663304,40.663304 0 0 1 2.76285,3.44624 l 1.9e-4,2.96e-4 q 0.17872,1.3004 0.35738,2.599704 c -0.0476,0.05835 -0.14106,0.120848 -0.13623,0.174512 0.21728,2.41484 0.43369,4.82988 0.67231,7.242672 0.11167,1.1294 0.26831,2.254352 0.40459,3.381304 q 0.0238,1.548192 0.0478,3.096336 c -4.67343,9.462056 -12.56846,14.423288 -22.70175,16.279 a 24.7008,24.7008 0 0 1 -4.45484,0.424128 19.77124,19.77124 0 0 1 -6.0273,-0.916264 19.418608,19.418608 0 0 1 -7.10746,-4.407616 c 0.0587,-0.148288 0.10913,-0.300488 0.17734,-0.44424 a 7.3448,7.3448 0 0 0 -1.45242,-8.296272 9.431248,9.431248 0 0 0 -4.18042,-2.09712 c -2.1937,-11.00864 4.85645,-24.855664 19.53067,-27.3704 a 29.186496,29.186496 0 0 1 4.93134,-0.433984 m -2.61445,31.674264 a 12.652368,12.652368 0 0 0 3.82085,-0.626072 c 4.24771,-1.344192 7.4419,-3.89224 8.67915,-8.36992 0.54927,-1.987792 0.81412,-4.04932 -0.28574,-5.94356 a 8.955608,8.955608 0 0 0 -6.8915,-4.598192 c -1.14141,-0.1464 -2.2981,-0.173824 -3.41768,-0.253368 -0.0871,-0.0014 -0.1736,-0.0021 -0.26006,-0.002 a 12.092248,12.092248 0 0 0 -9.65557,4.324312 9.22004,9.22004 0 0 0 0.9344,12.694096 10.534184,10.534184 0 0 0 7.07618,2.774704 m 2.61445,-37.274264 a 34.923552,34.923552 0 0 0 -5.8772,0.514448 29.242944,29.242944 0 0 0 -19.36909,12.260504 28.751704,28.751704 0 0 0 -4.70776,21.723824 5.6,5.6 0 0 0 3.90727,4.276712 7.270752,7.270752 0 0 1 1.83589,0.716112 1.759552,1.759552 0 0 1 0.32276,1.9048 c -0.14805,0.312064 -0.24791,0.578272 -0.30758,0.737304 l -0.0201,0.05327 a 5.591584,5.591584 0 0 0 1.45459,6.209912 23.580376,23.580376 0 0 0 16.8895,6.769048 30.455936,30.455936 0 0 0 5.46362,-0.515728 c 12.53175,-2.294968 21.51964,-8.79092 26.71388,-19.307472 a 5.600128,5.600128 0 0 0 0.5784,-2.566504 l -8e-4,-0.06914 -0.0467,-3.027 a 5.6096,5.6096 0 0 0 -0.0398,-0.585944 q -0.0656,-0.5424 -0.13526,-1.084616 c -0.096,-0.7582 -0.18672,-1.4744 -0.25606,-2.17544 -0.19882,-2.01084 -0.38564,-4.06216 -0.56625,-6.0666 a 5.5976,5.5976 0 0 0 0.005,-1.56216 l -0.12979,-0.944384 -0.22754,-1.65508 a 5.59968,5.59968 0 0 0 -1.16025,-2.717336 c -0.25513,-0.321776 -0.50103,-0.65244 -0.74751,-0.982568 a 26.718896,26.718896 0 0 0 -2.42202,-2.922608 28.863056,28.863056 0 0 0 -21.15704,-8.983344 z m -2.61445,31.674264 a 4.996952,4.996952 0 0 1 -3.39795,-1.39736 3.6312,3.6312 0 0 1 -0.35801,-4.830224 6.533168,6.533168 0 0 1 5.40107,-2.3656 l 0.043,3.36e-4 c 0.3176,0.02119 0.6377,0.03926 0.95933,0.05728 0.70761,0.0396 1.376,0.077 1.96269,0.152296 a 3.38152,3.38152 0 0 1 2.76133,1.855616 4.319816,4.319816 0 0 1 -0.26913,1.640088 c -0.4416,1.59824 -1.37755,3.385296 -4.971,4.522456 a 7.135344,7.135344 0 0 1 -2.1313,0.365088 z" />
    <path
       style="fill:none;fill-opacity:1;stroke:#14ffff;stroke-width:1.88976383;stroke-miterlimit:4;stroke-dasharray:none;stroke-opacity:1"
       inkscape:connector-curvature="0"
       d="m 258.36683,28.760343 a 40.7488,40.7488 0 0 1 13.44,2.3616 c -0.7296,5.3632 -1.7536,11.0528 -1.7536,11.0528 a 24.7744,24.7744 0 0 0 -10.1952,-1.9712 c -6.6752,0 -13.9968,2.0864 -18.9824,6.4384 -9.6,8.416 -7.5008,17.5424 -5.2224,21.632 2.4832,4.48 7.264,6.1952 11.6224,6.1952 a 14.8032,14.8032 0 0 0 5.3952,-0.9792 l 0.992,-5.4592 h -8.6464 l 1.6064,-10.24 h 20.7424 l -3.1168,19.84 20.8768,-47.36 h 13.7792 l 7.3344,43.9616 14.2784,-43.9616 h 11.0528 l 5.4656,29.8112 12.672,-29.8112 h 13.44 l 2.3552,54.4 h -11.2064 l -1.4912,-33.6768 -14.528,33.6512 h -7.424 l -6.2144,-30.4256 -9.7024,30.4256 h -19.008 l -2.8352,-16.2624 h -12.928 l -7.3344,16.2624 h -11.6736 l 1.632,-3.712 -0.3968,0.2368 a 29.44,29.44 0 0 1 -14.72,4.0448 c -12.576,0 -23.5776,-8.384 -24.7232,-19.84 -1.3632,-13.6576 3.7568,-23.68 14.4064,-30.2976 v 0 c 5.2992,-3.296 12.3776,-6.3488 21.0688,-6.3488 m 26.24,29.0624 h 6.7712 l -2.0544,-10.56 -4.7552,10.624 m -26.24,-33.5424 v 0 c -8.0128,0 -15.872,2.3424 -23.3536,6.9632 l -0.064,0.0448 c -12.3008,7.6096 -18.0032,19.5584 -16.5056,34.56 a 25.1712,25.1712 0 0 0 9.7536,17.28 31.36,31.36 0 0 0 19.4368,6.5344 33.4016,33.4016 0 0 0 10.5216,-1.7216 4.48,4.48 0 0 0 3.008,1.152 h 11.6736 a 4.48,4.48 0 0 0 4.0832,-2.6368 l 6.144,-13.6256 h 6.2656 l 2.1952,12.5568 a 4.48,4.48 0 0 0 4.4096,3.7056 h 19.008 a 4.48,4.48 0 0 0 4.2432,-3.1104 l 4.48,-14.0288 2.7712,13.568 a 4.48,4.48 0 0 0 4.3904,3.5776 h 7.4304 a 4.48,4.48 0 0 0 4.1088,-2.7008 l 6.8096,-15.776 0.64,14.1824 a 4.48,4.48 0 0 0 4.48,4.2816 h 11.1744 a 4.512,4.512 0 0 0 3.2384,-1.376 4.48,4.48 0 0 0 1.2352,-3.296 l -2.3552,-54.4 a 4.48,4.48 0 0 0 -4.48,-4.288 h -13.44 a 4.48,4.48 0 0 0 -4.1152,2.7392 l -6.8224,16.0768 -2.7776,-15.1296 a 4.48,4.48 0 0 0 -4.4096,-3.6736 h -11.0464 a 4.48,4.48 0 0 0 -4.2624,3.0976 l -8.6144,26.528 -4.3072,-25.8816 a 4.48,4.48 0 0 0 -4.4224,-3.744 h -13.7856 a 4.48,4.48 0 0 0 -4.1024,2.6752 l -6.7904,15.4112 a 4.928,4.928 0 0 0 0.2624,-0.9088 c 0.0384,-0.2368 1.0176,-5.8304 1.7664,-11.2064 a 4.48,4.48 0 0 0 -2.9696,-4.8512 45.5936,45.5936 0 0 0 -14.9184,-2.6112 z m 11.6672,22.3424 a 4.48,4.48 0 0 0 4.0448,-2.56 l -4.3456,9.92 a 4.48,4.48 0 0 0 -2.3872,-0.64 h -20.7424 a 4.48,4.48 0 0 0 -4.4224,3.7824 l -1.6064,10.24 v 0.1152 a 6.592,6.592 0 0 1 -0.9792,-1.3376 c -1.088,-1.92 -3.9872,-8.864 4.256,-16.0768 3.84,-3.3344 9.8176,-5.3312 16.032,-5.3312 a 20.48,20.48 0 0 1 8.32,1.5616 4.5184,4.5184 0 0 0 1.8752,0.4096 z"
       id="path9" />
    <path
       style="fill:none;fill-opacity:1;stroke:#14ffff;stroke-width:1.88976383;stroke-miterlimit:4;stroke-dasharray:none;stroke-opacity:1"
       inkscape:connector-curvature="0"
       d="m 405.95723,30.251543 v 0 m 0,0 -1.8624,11.6736 h -19.4816 l -1.4912,9.6896 h 17.1392 l -1.8624,11.6736 h -16.9856 l -1.536,9.6832 h 19.5008 l -1.8624,11.6736 h -31.1744 l 8.6912,-54.4 h 30.9248 m 0,-4.48 h -30.944 a 4.48,4.48 0 0 0 -4.4224,3.776 l -8.6912,54.4 a 4.48,4.48 0 0 0 3.7184,5.12 4.352,4.352 0 0 0 0.704,0.0576 h 31.1744 a 4.48,4.48 0 0 0 4.3968,-3.744 l 1.92,-11.6736 a 4.48,4.48 0 0 0 -4.4288,-5.1904 h -14.2528 l 0.1152,-0.7232 h 13.1392 a 4.48,4.48 0 0 0 4.4224,-3.776 l 1.8624,-11.6736 a 4.48,4.48 0 0 0 -3.7184,-5.12 4.352,4.352 0 0 0 -0.704,-0.0576 h -11.9168 l 0.1088,-0.7296 h 15.6544 a 4.48,4.48 0 0 0 4.4224,-3.776 l 1.8368,-11.52 a 4.2176,4.2176 0 0 0 0.0832,-0.8512 4.48,4.48 0 0 0 -4.48,-4.48 z"
       id="path11" />
    <path
       style="fill:none;fill-opacity:1;stroke:#14ffff;stroke-width:1.88976383;stroke-miterlimit:4;stroke-dasharray:none;stroke-opacity:1"
       inkscape:connector-curvature="0"
       d="m 542.69323,30.251543 v 0 m 0,0 -20.1216,31.6672 -3.4304,22.7264 h -11.1808 l 4.0512,-25.7088 -13.1584,-28.6848 h 12.8 l 6.9568,17.76 11.0528,-17.76 h 13.0304 m 0,-4.48 h -13.0432 a 4.48,4.48 0 0 0 -3.8016,2.112 l -6.336,10.1824 -3.6992,-9.4464 a 4.48,4.48 0 0 0 -4.1728,-2.848 h -12.8 a 4.48,4.48 0 0 0 -4.0704,6.3488 l 12.5952,27.456 -3.84,24.3712 a 4.48,4.48 0 0 0 3.7248,5.12 4.352,4.352 0 0 0 0.704,0.0576 h 11.1872 a 4.48,4.48 0 0 0 4.4288,-3.84 l 3.2896,-21.76 19.552,-30.7776 a 4.48,4.48 0 0 0 -3.7184,-6.976 z"
       id="path13" />
    <path
       style="fill:#fffffe;fill-opacity:1;stroke-width:0.80000001"
       inkscape:connector-curvature="0"
       id="path75"
       d="m 586.97294,75.175258 c 2.32899,0.797696 3.49891,2.557384 4.02598,4.850576 0.25389,3.544968 -3.10071,6.6264 -5.61067,6.86812 -1.27942,0.1232 -2.57107,0.132672 -3.8579,0.163136 -3.59434,0.08509 -7.19088,0.262104 -10.78312,0.200976 a 28.054184,28.054184 0 0 1 -11.58565,-2.3056 18.666832,18.666832 0 0 1 -9.27367,-9.728112 23.203568,23.203568 0 0 1 -1.7664,-8.266472 c -0.41316,-6.9016 1.74215,-12.953648 5.52953,-18.590472 2.79023,-4.1528 5.68573,-8.204568 9.42457,-11.571504 3.00702,-2.70792 6.323,-4.8888 10.39087,-5.6348 a 19.520424,19.520424 0 0 1 13.95157,2.350328 c 4.24371,2.544312 4.7456,7.968464 2.78133,11.489336 a 6.396392,6.396392 0 0 1 -6.56111,2.956544 5.822712,5.822712 0 0 1 -4.92968,-4.654952 c -0.0242,-0.102976 -0.0626,-0.2026 -0.11246,-0.361496 a 3.686544,3.686544 0 0 0 -2.92692,-0.166448 17.665008,17.665008 0 0 0 -6.97664,4.613144 30.735408,30.735408 0 0 0 -8.38979,14.937824 12.4248,12.4248 0 0 0 0.0417,6.20452 8.157512,8.157512 0 0 0 6.99332,6.336736 53.108,53.108 0 0 0 11.32043,0.252 c 2.1652,-0.105184 4.33164,-0.20192 6.49864,-0.24204 a 9.860416,9.860416 0 0 1 1.81611,0.298656 z" />
    <path
       style="fill:#fffffe;fill-opacity:1;stroke-width:0.80000001"
       inkscape:connector-curvature="0"
       id="path37"
       d="m 672.83078,84.839064 a 22.6794,22.6794 0 0 1 -6.87343,-1.047656 22.221088,22.221088 0 0 1 -8.1375,-4.9984 2.801392,2.801392 0 0 1 -0.72735,-3.105464 l 0.0351,-0.09219 c 0.0672,-0.180464 0.13829,-0.359376 0.22109,-0.532 a 4.525704,4.525704 0 0 0 -0.8914,-5.092967 7.1408,7.1408 0 0 0 -3.0086,-1.407808 2.799656,2.799656 0 0 1 -1.95312,-2.13828 26.427072,26.427072 0 0 1 21.80391,-30.676624 32.083416,32.083416 0 0 1 5.40312,-0.474216 26.154232,26.154232 0 0 1 19.1672,8.153128 24.126936,24.126936 0 0 1 2.17032,2.629688 c 0.2625,0.35156 0.525,0.70312 0.79609,1.045312 a 2.797704,2.797704 0 0 1 0.58047,1.360152 l 0.35703,2.5992 a 2.803744,2.803744 0 0 1 -0.0547,1.04688 c 0.19453,2.158592 0.38985,4.317968 0.60391,6.475 0.0742,0.75 0.16875,1.497656 0.26328,2.245312 l 0.1336,1.07656 a 2.778488,2.778488 0 0 1 0.0203,0.290624 l 0.0485,3.096096 a 2.7936,2.7936 0 0 1 -0.28985,1.284376 c -4.78046,9.680471 -13.09374,15.666399 -24.7078,17.792967 a 27.599696,27.599696 0 0 1 -4.95938,0.470312 z m 4.90469,-32.085151 a 9.35028,9.35028 0 0 0 -7.52969,3.345312 6.414488,6.414488 0 0 0 0.6461,8.761712 7.739592,7.739592 0 0 0 5.2375,2.08672 9.911624,9.911624 0 0 0 2.97578,-0.495312 c 3.7711,-1.193744 5.93985,-3.242184 6.82578,-6.446872 0.50161,-1.817192 0.49921,-2.916408 -0.009,-3.791408 a 6.185928,6.185928 0 0 0 -4.82656,-3.22656 c -0.6875,-0.08828 -1.40391,-0.128904 -2.16328,-0.171096 -0.33828,-0.01875 -0.675,-0.03828 -1.0086,-0.06094 z" />
    <path
       style="fill:none;fill-opacity:1;stroke:#00ffff;stroke-width:1.88976383;stroke-miterlimit:4;stroke-dasharray:none;stroke-opacity:1"
       inkscape:connector-curvature="0"
       id="path47"
       d="m 633.23524,32.007386 a 5.506872,5.506872 0 0 1 2.45107,0.5752 c 2.65307,1.316216 4.20024,3.577832 5.22612,6.267384 a 22.331768,22.331768 0 0 1 1.4216,7.146776 c 0.16182,4.235552 0.17275,8.477296 0.3606,12.711384 0.18418,4.151512 0.50903,8.2968 0.777,12.444528 a 4.707008,4.707008 0 0 0 0.1498,0.624656 c 1.35586,-0.4224 2.6952,-0.77392 3.98604,-1.25532 a 22.314272,22.314272 0 0 1 7.81836,-1.6424 q 0.36196,0 0.72734,0.0169 c 0.40073,0.0187 0.8004,0.06172 1.20054,0.0935 a 9.431248,9.431248 0 0 1 4.18042,2.09712 7.3448,7.3448 0 0 1 1.45244,8.296288 c -0.0682,0.143752 -0.11865,0.295952 -0.17734,0.44424 -1.60626,1.900928 -3.90445,2.203072 -6.13697,2.608736 -2.70513,0.49156 -5.5082,0.457136 -8.09497,1.5784 -1.79131,0.776464 -3.57929,1.5704 -5.41104,2.241304 a 12.60168,12.60168 0 0 1 -4.34594,0.825979 10.519112,10.519112 0 0 1 -1.33946,-0.0852 4.781784,4.781784 0 0 1 -4.46552,-4.328803 c -0.59697,-4.869096 -1.0912,-9.750736 -1.628,-14.627496 -0.18154,-2.967824 -0.35829,-5.93564 -0.54624,-8.902736 -0.1168,-1.844232 -0.25044,-3.6874 -0.37646,-5.53076 a 16.2704,16.2704 0 0 0 -0.79707,-6.331 c -0.6689,-2.006792 -1.4216,-3.985552 -2.09947,-5.989456 a 7.055336,7.055336 0 0 1 1.49986,-7.407128 5.585848,5.585848 0 0 1 4.1672,-1.872072 m 4.4e-4,-5.6 h 6e-5 a 11.199048,11.199048 0 0 0 -8.34564,3.743264 12.638864,12.638864 0 0 0 -2.62657,12.9304 c 0.33565,0.992136 0.68618,1.97124 1.02515,2.918112 0.37675,1.052296 0.73261,2.046296 1.0664,3.047712 a 10.603064,10.603064 0 0 1 0.52339,4.1696 5.59584,5.59584 0 0 0 -6.3e-4,0.772608 l 0.11953,1.726608 c 0.0876,1.258448 0.17534,2.517048 0.25512,3.776128 q 0.19725,3.11432 0.3835,6.229392 l 0.16196,2.66128 q 0.008,0.13572 0.0232,0.270848 0.2351,2.136336 0.46298,4.27344 c 0.36665,3.411424 0.74585,6.938968 1.17296,10.4228 a 10.40384,10.40384 0 0 0 9.31142,9.201809 16.186104,16.186104 0 0 0 2.05195,0.13066 18.240256,18.240256 0 0 0 6.272,-1.16757 c 1.77129,-0.64873 3.45611,-1.38115 5.0855,-2.08946 l 0.62661,-0.27217 a 15.154464,15.154464 0 0 1 3.97539,-0.7977 c 0.92432,-0.1105 1.88013,-0.22475 2.8936,-0.40889 l 0.40332,-0.0725 c 2.46899,-0.44062 6.20014,-1.10649 9.00991,-4.431791 a 5.599264,5.599264 0 0 0 0.92944,-1.553168 c 0.0298,-0.07539 0.0587,-0.15132 0.0872,-0.227344 a 12.876176,12.876176 0 0 0 -2.6399,-14.564408 14.606272,14.606272 0 0 0 -6.52494,-3.478128 5.60068,5.60068 0 0 0 -1.14126,-0.211328 l -0.32974,-0.02822 c -0.35083,-0.03101 -0.70186,-0.06035 -1.05332,-0.0768 q -0.49628,-0.0232 -0.98833,-0.023 a 25.095504,25.095504 0 0 0 -6.8042,1.01172 c -0.12813,-1.944 -0.24707,-3.905424 -0.33247,-5.831352 -0.0986,-2.222064 -0.14858,-4.515672 -0.19692,-6.733736 -0.0423,-1.9408 -0.086,-3.947752 -0.16231,-5.943264 a 27.992904,27.992904 0 0 0 -1.78525,-8.9288 c -1.68867,-4.4272 -4.29556,-7.465376 -7.9696,-9.288088 a 11.174848,11.174848 0 0 0 -4.9394,-1.158688 z" />
    <path
       style="fill:#fffffe;fill-opacity:1;stroke-width:0.80000001"
       inkscape:connector-curvature="0"
       id="path77"
       d="m 657.35372,68.990018 a 9.43112,9.43112 0 0 1 4.18044,2.097112 7.3448,7.3448 0 0 1 1.45245,8.29628 c -0.0682,0.143752 -0.11867,0.296 -0.17735,0.44424 -1.60623,1.900952 -3.90443,2.203064 -6.13697,2.608736 -2.70513,0.491568 -5.50821,0.457168 -8.09494,1.5784 -1.79135,0.776472 -3.57935,1.5704 -5.41104,2.241296 a 11.950512,11.950512 0 0 1 -5.68543,0.7408 4.781752,4.781752 0 0 1 -4.46552,-4.3288 c -0.59699,-4.869064 -1.09115,-9.750736 -1.62796,-14.62748 -0.18156,-2.9678 -0.35834,-5.935624 -0.54625,-8.902744 -0.1168,-1.844232 -0.2504,-3.6874 -0.37645,-5.530768 a 16.270024,16.270024 0 0 0 -0.7971,-6.330976 c -0.66888,-2.006792 -1.42155,-3.985536 -2.09943,-5.989456 a 7.055344,7.055344 0 0 1 1.49984,-7.407152 5.559776,5.559776 0 0 1 6.61827,-1.2968 c 2.65309,1.316216 4.20029,3.577824 5.22616,6.26736 a 22.332384,22.332384 0 0 1 1.42161,7.146792 c 0.16186,4.23556 0.1728,8.477264 0.36061,12.711352 0.18417,4.15152 0.50903,8.2968 0.77702,12.444528 a 4.706096,4.706096 0 0 0 0.14979,0.624704 c 1.35586,-0.4224 2.69515,-0.773968 3.98602,-1.255368 a 21.441264,21.441264 0 0 1 8.54572,-1.625512 c 0.40074,0.01866 0.80037,0.06168 1.20051,0.09346 z" />
    <path
       style="fill:none;fill-opacity:1;stroke:#14ffff;stroke-width:1.88976383;stroke-miterlimit:4;stroke-dasharray:none;stroke-opacity:1"
       inkscape:connector-curvature="0"
       id="path43"
       d="m 577.52765,30.780434 a 18.928,18.928 0 0 1 9.89047,2.731008 c 4.24371,2.54428 4.7456,7.968456 2.78131,11.489304 a 6.281072,6.281072 0 0 1 -5.51285,3.037352 6.830744,6.830744 0 0 1 -1.04824,-0.0808 5.822688,5.822688 0 0 1 -4.92969,-4.654936 c -0.0242,-0.102976 -0.0626,-0.202584 -0.11245,-0.36152 a 3.53616,3.53616 0 0 0 -1.61499,-0.390528 4.149464,4.149464 0 0 0 -1.31196,0.22412 17.664448,17.664448 0 0 0 -6.97661,4.613136 30.7352,30.7352 0 0 0 -8.38979,14.937784 12.42468,12.42468 0 0 0 0.0417,6.204544 8.157448,8.157448 0 0 0 6.99332,6.33672 35.870936,35.870936 0 0 0 5.88407,0.429048 c 1.8104,0 3.62354,-0.08896 5.43638,-0.177048 2.16519,-0.105176 4.33164,-0.201904 6.49864,-0.24204 l 0.0477,-4.4e-4 a 10.641272,10.641272 0 0 1 1.76836,0.29912 c 2.329,0.797704 3.49892,2.557368 4.02598,4.850584 0.2539,3.54492 -3.10069,6.62632 -5.61065,6.868112 -1.27944,0.123248 -2.5711,0.132672 -3.85791,0.163136 -3.08276,0.07295 -6.16651,0.2136 -9.24839,0.2136 q -0.7672,0 -1.53472,-0.0126 a 28.055008,28.055008 0 0 1 -11.58564,-2.3056 18.666712,18.666712 0 0 1 -9.27369,-9.728128 23.203024,23.203024 0 0 1 -1.7664,-8.266456 c -0.41313,-6.9016 1.74214,-12.953664 5.52954,-18.59048 2.79023,-4.1528 5.68574,-8.204584 9.42456,-11.571528 3.00703,-2.707912 6.323,-4.8888 10.39087,-5.634768 a 22.499304,22.499304 0 0 1 4.06114,-0.380712 m 1.4e-4,-5.6 v 0 a 28.20596,28.20596 0 0 0 -5.07144,0.472608 c -4.60502,0.844384 -8.77661,3.06284 -13.12812,6.981544 -4.32925,3.898632 -7.59976,8.553072 -10.32539,12.60976 -4.81372,7.16436 -6.93057,14.376368 -6.47129,22.048192 a 28.810464,28.810464 0 0 0 2.24468,10.2188 24.22924,24.22924 0 0 0 12.01396,12.514264 c 3.93155,1.837792 8.33623,2.7376 13.86177,2.83164 q 0.81467,0.01392 1.63003,0.01344 c 2.16709,0 4.32749,-0.06648 6.41675,-0.130856 0.98808,-0.0304 1.97617,-0.06088 2.96416,-0.08428 l 0.58936,-0.01296 c 1.17231,-0.0248 2.38457,-0.05032 3.67294,-0.1744 5.42857,-0.522952 11.14048,-6.126224 10.65943,-12.8424 a 5.60432,5.60432 0 0 0 -0.128,-0.854248 c -1.29229,-5.622656 -4.8838,-7.940088 -7.66915,-8.894096 a 5.600496,5.600496 0 0 0 -0.85346,-0.21904 c -0.10063,-0.01753 -0.20088,-0.04248 -0.3016,-0.06518 a 10.64884,10.64884 0 0 0 -2.42783,-0.31704 l -0.15142,0.0014 c -2.33809,0.04326 -4.66714,0.150536 -6.66666,0.247656 l -0.0552,0.0026 c -1.77592,0.08628 -3.45332,0.167776 -5.10947,0.167776 a 30.032416,30.032416 0 0 1 -4.96865,-0.353712 c -1.49941,-0.248432 -2.0873,-0.791064 -2.51621,-2.3224 a 6.857736,6.857736 0 0 1 0.0269,-3.454152 25.03892,25.03892 0 0 1 6.91885,-12.248536 15.473312,15.473312 0 0 1 2.66738,-2.221192 11.397232,11.397232 0 0 0 7.42878,4.395272 12.472272,12.472272 0 0 0 1.90766,0.14712 11.829144,11.829144 0 0 0 10.40327,-5.90908 c 3.24654,-5.81924 2.33751,-14.746 -4.79218,-19.020512 A 24.501072,24.501072 0 0 0 577.52777,25.18041 Z" />
    <path
       style="fill:#fffffe;fill-opacity:1;stroke-width:0.80000001"
       inkscape:connector-curvature="0"
       id="path41"
       d="m 572.27508,90.070866 q -0.7875,0 -1.57579,-0.01329 c -5.11874,-0.08671 -9.16171,-0.90312 -12.72343,-2.568744 a 21.508312,21.508312 0 0 1 -10.64375,-11.121096 26.2034,26.2034 0 0 1 -2.00625,-9.2422 c -0.42031,-7.03828 1.54218,-13.684368 6.0008,-20.319528 2.6328,-3.917968 5.7836,-8.406248 9.87578,-12.090624 3.95,-3.557816 7.68673,-5.56172 11.75938,-6.307816 a 25.36424,25.36424 0 0 1 4.5672,-0.427344 21.733792,21.733792 0 0 1 11.32891,3.129688 c 5.69219,3.41328 6.39688,10.575784 3.78672,15.254688 a 9.028696,9.028696 0 0 1 -7.9586,4.47344 9.730224,9.730224 0 0 1 -1.47734,-0.11328 8.521824,8.521824 0 0 1 -6.74063,-5.264064 14.82664,14.82664 0 0 0 -5.78124,3.891408 27.767664,27.767664 0 0 0 -7.65391,13.593752 9.6632,9.6632 0 0 0 0.008,4.828904 5.401872,5.401872 0 0 0 4.75469,4.329688 32.692648,32.692648 0 0 0 5.425,0.391408 c 1.725,0 3.43672,-0.0836 5.24844,-0.171096 2.48984,-0.12188 4.54218,-0.208592 6.63594,-0.247656 0.0172,-8e-4 0.0812,-0.0016 0.0992,-0.0016 a 7.965344,7.965344 0 0 1 1.8125,0.249224 c 0.14531,0.0328 0.29141,0.0672 0.43672,0.09218 a 2.7552,2.7552 0 0 1 0.42656,0.109376 c 3.07422,1.053128 5.04218,3.364848 5.84844,6.871872 a 2.81696,2.81696 0 0 1 0.0641,0.428128 c 0.3625,5.07344 -4.07578,9.46328 -8.13516,9.854688 -1.18359,0.114064 -2.34062,0.13828 -3.46016,0.16172 l -0.6,0.01328 c -0.99609,0.02344 -1.99218,0.05469 -2.98828,0.08516 -2.06955,0.0641 -4.20862,0.129728 -6.33362,0.129728 z" />
    <path
       style="fill:none;fill-opacity:1;stroke:#00ffff;stroke-width:1.88976383;stroke-miterlimit:4;stroke-dasharray:none;stroke-opacity:1"
       inkscape:connector-curvature="0"
       id="path35"
       d="m 609.58773,39.965449 c 4.44741,0 8.67212,1.63564 12.67153,4.523096 a 20.718256,20.718256 0 0 1 7.09859,9.059272 c 0.12602,1.84336 0.25967,3.686528 0.37646,5.53076 0.18795,2.967096 0.3647,5.934912 0.54619,8.902448 a 22.9476,22.9476 0 0 1 -3.64512,7.26372 25.671608,25.671608 0 0 1 -15.07812,9.396528 27.187784,27.187784 0 0 1 -6.10835,0.709136 26.2106,26.2106 0 0 1 -9.20439,-1.688576 24.65148,24.65148 0 0 1 -6.35244,-3.6952 c -0.52706,-2.293216 -1.69698,-4.05288 -4.02598,-4.850584 -2.9769,-5.43252 -2.18574,-10.9232 -0.1952,-16.40264 a 28.158688,28.158688 0 0 1 16.40518,-17.211328 19.810032,19.810032 0 0 1 7.51166,-1.536616 m -1.92228,33.94788 a 11.389088,11.389088 0 0 0 2.47154,-0.270552 c 3.87622,-0.862016 8.47173,-4.707472 8.24,-9.9314 -0.17003,-1.164456 -0.269,-2.3448 -0.52491,-3.490088 -0.52934,-2.368896 -1.28154,-4.657376 -2.9958,-6.484232 a 4.606024,4.606024 0 0 0 -3.22622,-1.7812 c -0.0738,-8e-4 -0.14653,-0.0012 -0.21987,-0.0012 -5.06343,1.44e-4 -9.29399,1.901704 -12.21396,6.129 -2.39966,3.474176 -2.8536,7.236968 -0.57618,11.0336 a 10.514768,10.514768 0 0 0 9.04536,4.79604 m 1.92227,-39.547896 a 25.476368,25.476368 0 0 0 -9.62144,1.949264 c -9.43384,3.836864 -16.01435,10.7296 -19.55888,20.486624 -1.87617,5.1646 -3.8606,12.961176 0.5477,21.005856 a 5.599888,5.599888 0 0 0 3.09644,2.606688 0.934488,0.934488 0 0 1 0.11421,0.04629 2.602496,2.602496 0 0 1 0.2686,0.7608 5.599784,5.599784 0 0 0 2.05181,3.190872 29.846736,29.846736 0 0 0 7.806,4.49868 31.920264,31.920264 0 0 0 11.15674,2.039896 32.926776,32.926776 0 0 0 7.36314,-0.851512 31.300944,31.300944 0 0 0 18.24795,-11.4216 28.420472,28.420472 0 0 0 4.55869,-9.004 5.600064,5.600064 0 0 0 0.25136,-2.034176 l -0.16108,-2.647952 q -0.19013,-3.133512 -0.38584,-6.266648 c -0.0813,-1.2824 -0.17051,-2.564408 -0.25976,-3.84624 l -0.11856,-1.712448 a 5.60012,5.60012 0 0 0 -0.41079,-1.7552 26.2688,26.2688 0 0 0 -8.99673,-11.462504 c -5.1311,-3.704488 -10.49727,-5.58276 -15.9496,-5.58276 z m -1.92223,33.947896 a 4.998472,4.998472 0 0 1 -4.24304,-2.076632 c -0.85137,-1.419288 -1.11225,-2.807672 0.3816,-4.9704 a 8.295872,8.295872 0 0 1 6.96851,-3.697504 l 2.4e-4,2.4e-4 c 0.69795,0.7438 1.1656,1.866016 1.61416,3.873488 0.1187,0.531152 0.20152,1.186136 0.28921,1.879592 0.035,0.276904 0.0702,0.553712 0.10781,0.829976 -0.0577,1.951568 -2.28,3.672272 -3.86259,4.024224 a 5.795272,5.795272 0 0 1 -1.25587,0.137008 z" />
    <path
       style="fill:#fffffe;fill-opacity:1;stroke-width:0.85409003"
       inkscape:connector-curvature="0"
       id="path71"
       d="m 631.53189,67.709764 a 24.794596,24.205673 0 0 1 -3.93865,7.662154 27.738465,27.07962 0 0 1 -16.29222,9.912037 28.273229,27.601681 0 0 1 -16.54574,-1.033161 26.635831,26.003176 0 0 1 -6.86395,-3.897967 c -0.56951,-2.41899 -1.83364,-4.275209 -4.35016,-5.116665 -3.21664,-5.730524 -2.36175,-11.522416 -0.21092,-17.302435 A 30.425948,29.703269 0 0 1 601.05641,39.77825 c 7.84603,-3.115331 15.11877,-1.564683 21.80838,3.150319 a 22.386848,21.855115 0 0 1 7.67019,9.556162 c 0.13617,1.944491 0.28056,3.888769 0.40677,5.834171 0.20302,3.129921 0.39404,6.260544 0.59014,9.390862 z m -12.86196,-4.503818 c -0.18371,-1.228352 -0.29065,-2.47343 -0.56717,-3.681553 -0.57195,-2.498856 -1.38471,-4.91285 -3.23702,-6.839914 a 4.976875,4.858664 0 0 0 -3.48602,-1.878954 c -5.57674,-0.05866 -10.23425,1.940203 -13.43499,6.464038 -2.59293,3.664752 -3.08339,7.633909 -0.62258,11.638873 2.38136,3.875681 7.56305,5.83353 12.44425,4.77377 4.18832,-0.90938 9.15388,-4.965804 8.90353,-10.476295 z" />
    <path
       style="fill:#fffffe;fill-opacity:1;stroke-width:0.76920414"
       inkscape:connector-curvature="0"
       id="path29"
       d="m 737.03224,85.303185 a 6.9610568,7.5296 0 0 1 -4.50618,-1.790632 q -2.85256,-2.530072 -5.72102,-5.03984 -1.95548,-1.7168 -3.90814,-3.435936 -1.585,-1.398048 -3.16639,-2.802344 c -0.0462,1.521872 -0.12426,3.068752 -0.30551,4.618752 a 7.4789647,8.089808 0 0 1 -7.61768,7.382032 9.2956215,10.05484 0 0 1 -2.39429,-0.34844 c -5.11651,-1.478128 -7.88057,-5.974224 -7.21393,-11.7344 a 17.729801,19.17788 0 0 1 0.72082,-3.246096 c 0.0838,-0.294528 0.16756,-0.589064 0.24485,-0.883592 a 10.736395,11.613288 0 0 0 0.31057,-4.731248 2.6926169,2.912536 0 0 1 -0.0209,-0.309376 l -0.0441,-3.049216 c -0.0332,-0.724224 -0.0635,-1.449224 -0.0946,-2.17344 -0.0751,-1.778904 -0.1531,-3.617968 -0.27157,-5.405472 a 13.202947,14.281296 0 0 0 -0.27373,-1.777344 c -0.0665,-0.346088 -0.13218,-0.692184 -0.18996,-1.039064 -0.006,-0.03828 -0.32719,-2.56328 -0.32719,-2.56328 -0.12351,-0.531248 -0.25278,-1.06172 -0.38207,-1.592184 -0.32791,-1.349216 -0.66736,-2.743752 -0.9216,-4.181248 a 10.293844,11.134592 0 0 1 3.16422,-10.4984 c 3.55207,-3.71016 7.91018,-5.722656 13.32352,-6.150784 0.74753,-0.05938 1.50014,-0.08906 2.23756,-0.08906 6.68451,0 13.11623,2.4664 19.11749,7.332 2.31989,1.881256 4.83694,5.405472 3.65318,11.514848 -1.00321,5.169528 -3.85328,9.441408 -8.71406,13.062496 -0.81832,0.609376 -1.65397,1.176568 -2.48095,1.722656 q 0.70203,0.61876 1.40118,1.2328 c 0,0 9.00368,7.88984 11.09968,9.729688 a 7.1528704,7.73708 0 0 1 2.1675,9.02656 10.092497,10.9168 0 0 1 -5.4545,6.374224 8.4363467,9.125384 0 0 1 -3.43218,0.845344 z m -17.43534,-40.0836 a 29.47333,31.88056 0 0 0 4.30105,-1.760936 28.723878,31.069896 0 0 0 -3.21695,-0.250776 c -0.4059,-0.01329 -0.81181,-0.01954 -1.22061,-0.02032 z" />
    <path
       style="fill:none;fill-opacity:1;stroke:#14ffff;stroke-width:1.93816054;stroke-miterlimit:4;stroke-dasharray:none;stroke-opacity:1"
       inkscape:connector-curvature="0"
       id="path31"
       d="m 719.32762,26.156448 c 6.96693,0 13.14817,2.672005 18.76632,7.212121 2.89495,2.339502 3.56974,5.588637 2.85474,9.263773 -1.03905,5.340432 -4.15263,9.081428 -8.1723,12.065035 -1.7196,1.276362 -3.54424,2.388268 -5.32119,3.57468 -0.15079,0.100709 -0.30228,0.200236 -0.5423,0.359179 1.55264,1.364131 3.0417,2.677986 4.53619,3.984504 q 5.928,5.182403 11.85897,10.36102 a 4.9034496,5.2858357 0 0 1 1.46249,6.270753 8.0396007,8.6665534 0 0 1 -4.35746,5.090116 6.267205,6.755941 0 0 1 -2.5405,0.641464 4.7199843,5.0880634 0 0 1 -3.06131,-1.230454 c -3.42152,-3.023635 -6.86609,-6.017021 -10.29515,-9.030885 q -3.66617,-3.222319 -7.31788,-6.463611 c -0.0982,-0.08672 -0.20987,-0.155826 -0.44333,-0.327044 0,0.387365 0.008,0.654304 -0.002,0.92031 -0.12814,3.249504 -0.0618,6.52584 -0.43945,9.741446 a 5.2624062,5.6727848 0 0 1 -5.39453,5.252963 7.1612738,7.7197321 0 0 1 -1.84557,-0.270369 c -4.07497,-1.172324 -6.21772,-4.586187 -5.67709,-9.243968 a 25.040989,26.993762 0 0 1 0.94768,-3.951483 14.283999,15.397908 0 0 0 0.41529,-6.230828 q -0.0237,-1.64859 -0.0472,-3.297131 c -0.12672,-2.729149 -0.21632,-5.461253 -0.39812,-8.186135 a 29.86896,32.198232 0 0 0 -0.53108,-3.312627 q -0.1765,-1.383896 -0.35305,-2.768294 l -2e-4,-3.13e-4 c -0.47191,-2.046096 -1.02863,-4.074974 -1.39611,-6.142751 a 8.2204896,8.8615487 0 0 1 2.58636,-8.4735 19.327765,20.835005 0 0 1 12.51691,-5.721077 q 1.10831,-0.08735 2.19028,-0.08689 m -2.61677,22.696686 c 2.65409,-0.152342 8.47208,-2.418316 10.40817,-4.111263 a 14.816163,15.971573 0 0 0 1.61204,-1.913451 2.4710108,2.6637078 0 0 0 -1.75538,-1.656188 20.652886,22.263463 0 0 0 -6.48777,-1.016294 c -0.54171,-0.01841 -1.08375,-0.02413 -1.63148,-0.02413 -0.88919,0 -1.79323,0.01502 -2.73446,0.01502 0.20006,2.957974 0.3946,5.833323 0.58888,8.706337 m 2.61677,-28.659841 c -0.85577,0 -1.72835,0.03458 -2.59351,0.102746 a 24.89332,26.834579 0 0 0 -15.9571,7.379595 13.650335,14.71483 0 0 0 -4.17594,13.884221 c 0.28924,1.627431 0.6634,3.160235 1.02526,4.642601 0.12304,0.504189 0.24623,1.008325 0.36484,1.513455 l 0.31197,2.445413 q 0.0152,0.119094 0.0349,0.237352 c 0.0662,0.398076 0.14162,0.795417 0.21787,1.19263 a 12.584172,13.565525 0 0 1 0.24112,1.498166 c 0.12449,1.865779 0.20331,3.719231 0.28669,5.681511 q 0.0484,1.135946 0.0993,2.271585 l 0.046,3.194916 a 5.5313609,5.9627134 0 0 0 0.0438,0.662149 8.7440243,9.4259095 0 0 1 -0.2486,3.84448 c -0.078,0.294964 -0.16201,0.589723 -0.24577,0.884847 a 21.157739,22.807684 0 0 0 -0.87032,3.958191 c -0.88311,7.608987 2.93996,13.789594 9.73973,15.745784 a 12.701738,13.692259 0 0 0 3.27191,0.472008 10.7597,11.598775 0 0 0 10.79723,-9.854014 q 1.73119,1.519429 3.46535,3.035076 3.06518,2.681836 6.12209,5.374219 a 10.273647,11.074817 0 0 0 6.56837,2.581979 11.752645,12.669152 0 0 0 4.79149,-1.157502 13.488276,14.540135 0 0 0 7.30037,-8.485153 10.432724,11.246301 0 0 0 -3.17007,-12.952598 q -3.39985,-2.97507 -6.80367,-5.945113 l -3.60517,-3.149213 c 5.52116,-4.237657 8.787,-9.27947 9.97712,-15.396272 1.22061,-6.273666 -0.53754,-11.692753 -4.95059,-15.25906 -6.9006,-5.576472 -14.33087,-8.403997 -22.08443,-8.403997 z" />
    <path
       style="fill:none;fill-opacity:1;stroke:#14ffff;stroke-width:1.88976383;stroke-miterlimit:4;stroke-dasharray:none;stroke-opacity:1"
       inkscape:connector-curvature="0"
       d="m 483.81323,30.232343 a 19.3472,19.3472 0 0 1 4.3328,0.4928 c 12.384,2.8608 19.6096,17.3824 16.1472,32.4096 -3.0656,13.28 -13.44,22.5344 -24.4032,22.5344 a 19.3472,19.3472 0 0 1 -4.3328,-0.4928 c -12.416,-2.8608 -19.616,-17.3696 -16.1408,-32.4096 v 0 c 3.0656,-13.28 13.44,-22.5344 24.3776,-22.5344 m -4.2304,44.7488 c 5.12,0 10.4576,-4.832 12.9344,-12.2816 3.008,-9.0432 0.64,-18.528 -5.2416,-21.1776 a 7.8848,7.8848 0 0 0 -3.2,-0.6912 c -5.12,0 -10.4512,4.8384 -12.9344,12.288 -3.0144,9.0496 -0.6784,18.5216 5.2416,21.1712 a 7.9296,7.9296 0 0 0 3.2,0.6912 m 4.2496,-49.2288 c -13.0368,0 -25.0176,10.72 -28.6336,25.5552 -0.0512,0.1472 -0.096,0.3008 -0.1344,0.4544 -1.92,8.32 -1.0304,16.7296 2.4704,23.7696 3.6544,7.3472 9.7024,12.32 17.0304,14.0096 a 23.8464,23.8464 0 0 0 5.344,0.608 c 13.1904,0 25.2928,-10.9376 28.8,-26.0096 4.0192,-17.4144 -4.7296,-34.3616 -19.5072,-37.76 a 23.7632,23.7632 0 0 0 -5.3696,-0.6272 z m -4.2304,44.7488 a 3.4048,3.4048 0 0 1 -1.4016,-0.3008 c -3.328,-1.4656 -5.312,-8.2816 -2.848,-15.6672 1.9968,-5.9904 5.9648,-9.2224 8.6848,-9.2224 a 3.4304,3.4304 0 0 1 1.4016,0.3008 c 3.3024,1.4784 5.2096,8.4928 2.8224,15.6736 -1.9968,5.984 -5.9648,9.216 -8.6848,9.216 z"
       id="path15-0" />
    <path
       style="fill:none;fill-opacity:1;stroke:#14ffff;stroke-width:1.88976383;stroke-miterlimit:4;stroke-dasharray:none;stroke-opacity:1"
       inkscape:connector-curvature="0"
       d="m 435.67883,30.507543 c 3.104,0 6.0992,0 8.1152,0.0448 7.52,0.1216 21.568,11.584 7.3984,26.24 13.7856,12.4672 -1.3568,27.7312 -11.7056,27.7312 h -25.1392 l 8.6208,-53.9776 h -0.128 c 0,0 6.6304,-0.0448 12.8384,-0.0448 m -4.8256,21.5936 h 7.7504 c 7.4944,0 9.12,-10.1056 1.2352,-10.1056 h -7.2768 l -1.7088,10.1056 m -3.4496,21.9072 h 9.856 c 9.8624,0 10.1056,-10.816 1.2352,-10.816 h -9.3824 l -1.7088,10.816 m 8.2752,-48 c -6.1568,0 -12.8,0.0448 -12.8704,0.0448 a 4.48,4.48 0 0 0 -4.448,4.48 v 0.3328 l -8.4416,52.9664 a 4.48,4.48 0 0 0 4.4288,5.1904 h 25.1392 c 8.1408,0 17.3312,-6.656 20.48,-14.8416 2.3232,-6.0224 1.28,-12.2112 -2.784,-17.4848 6.1312,-8.1792 4.8,-15.104 3.296,-18.7328 -3.04,-7.3216 -10.8352,-11.7888 -16.64,-11.8848 -1.8048,0 -4.5568,-0.0448 -8.1856,-0.0448 z m 0.672,20.48 h 3.488 a 2.7328,2.7328 0 0 1 0.6848,0.064 1.2096,1.2096 0 0 1 -0.2624,0.4672 2.1184,2.1184 0 0 1 -1.6576,0.64 h -2.4448 l 0.192,-1.1456 z m -3.4112,21.1968 h 5.5552 c 1.3632,0 1.92,0.4352 1.92,0.64 a 0.7424,0.7424 0 0 1 -0.3264,0.4992 c -0.2624,0.224 -1.0688,0.7488 -2.848,0.7488 h -4.6272 l 0.288,-1.856 z"
       id="path17-3" />
    <g
       transform="matrix(0.64,0,0,0.64,62.693232,20.734743)"
       style="fill:#fffffe;fill-opacity:1"
       id="Capa_1"
       data-name="Capa 1">
      <path
         style="fill:#fffffe;fill-opacity:1"
         inkscape:connector-curvature="0"
         d="M 357.35,58 354.14,41.5 346.77,58 h 10.58 M 473.09,99.86 H 455.63 L 453.3,47.28 430.6,99.86 H 419 l -9.71,-47.54 -15.16,47.54 h -29.7 L 360,74.45 H 339.8 L 328.34,99.86 H 310.1 l 37.45,-85 h 21.53 l 11.46,68.69 22.31,-68.69 h 17.27 l 8.54,46.58 19.8,-46.58 h 21 l 3.68,85"
         id="path19" />
      <path
         style="fill:#fffffe;fill-opacity:1"
         d="m 523.16,99.86 2.92,-18.23 H 495.6 l 2.42,-15.14 h 26.5 l 2.91,-18.24 h -26.78 l 2.33,-15.14 h 30.46 l 2.91,-18.24 h -48.32 l -13.58,84.99 h 48.71"
         id="polyline21"
         inkscape:connector-curvature="0" />
      <path
         style="fill:#fffffe;fill-opacity:1"
         d="M 750,14.87 H 729.62 L 712.35,42.62 701.48,14.87 H 681.5 l 20.56,44.82 -6.33,40.17 H 713.2 L 718.56,64.35 750,14.87"
         id="polyline23"
         inkscape:connector-curvature="0" />
      <path
         style="fill:#fffffe;fill-opacity:1"
         inkscape:connector-curvature="0"
         d="m 646.3,83.68 c 9.24,4.13 20.55,-4 25.26,-18.11 4.71,-14.11 1.05,-28.95 -8.19,-33.09 -9.24,-4.14 -20.55,4 -25.26,18.12 -4.71,14.12 -1.06,28.94 8.19,33.08 M 619.87,50.05 c 5.43,-23.48 25.51,-38.91 44.86,-34.44 19.35,4.47 30.64,27.16 25.27,50.64 -5.37,23.48 -25.51,38.91 -44.9,34.44 -19.39,-4.47 -30.65,-27.14 -25.22,-50.64"
         id="path25-8" />
      <path
         style="fill:#fffffe;fill-opacity:1"
         inkscape:connector-curvature="0"
         d="m 272.84,22.44 c -16.64,10.3 -24.64,26 -22.51,47.34 2.48,24.77 34.54,40.36 61.7,24.65 2.38,-1.38 1.45,-1.16 2.33,-2 L 319.8,58 h -32.41 l -2.51,16 h 13.55 l -1.55,8.53 c -7.76,3.12 -21,2 -26.59,-8.15 -3.56,-6.39 -6.87,-20.65 8.16,-33.8 12.21,-10.67 33.37,-12.61 45.59,-7 0,0 1.56,-8.89 2.72,-17.27 C 303.28,8.17 285,15 272.82,22.54"
         id="path27-4" />
      <path
         style="fill:#fffffe;fill-opacity:1"
         inkscape:connector-curvature="0"
         d="m 562.93,15.35 -13.47,84.34 h 39.28 c 16.17,0 39.83,-23.85 18.29,-43.33 22.14,-22.92 0.19,-40.83 -11.56,-41 -9.44,-0.16 -32.74,0 -32.74,0 h 0.19 m 9.63,51 h 14.64 c 13.86,0 13.48,16.9 -1.93,16.9 h -15.4 l 2.67,-16.9 m 5.39,-33.12 h 11.37 c 12.32,0 9.78,15.79 -1.93,15.79 h -12.11 l 2.67,-15.79"
         id="path29-1" />
    </g>
  </g>
  <path
     style="opacity:1;vector-effect:none;fill:none;fill-opacity:1;stroke:#00ffff;stroke-width:1.17628944;stroke-linecap:butt;stroke-linejoin:miter;stroke-miterlimit:4;stroke-dasharray:none;stroke-dashoffset:0;stroke-opacity:1"
     d=""
     id="path911"
     inkscape:connector-curvature="0" />
  <path
     style="opacity:1;vector-effect:none;fill:none;fill-opacity:1;stroke:#00ffff;stroke-width:1.17628944;stroke-linecap:butt;stroke-linejoin:miter;stroke-miterlimit:4;stroke-dasharray:none;stroke-dashoffset:0;stroke-opacity:1"
     d=""
     id="path913"
     inkscape:connector-curvature="0" />
  <path
     style="opacity:1;vector-effect:none;fill:none;fill-opacity:1;stroke:#00ffff;stroke-width:1.17628944;stroke-linecap:butt;stroke-linejoin:miter;stroke-miterlimit:4;stroke-dasharray:none;stroke-dashoffset:0;stroke-opacity:1"
     d=""
     id="path915"
     inkscape:connector-curvature="0" />
  <path
     style="opacity:1;vector-effect:none;fill:#fffffe;fill-opacity:1;stroke:none;stroke-width:1.17628944;stroke-linecap:butt;stroke-linejoin:miter;stroke-miterlimit:4;stroke-dasharray:none;stroke-dashoffset:0;stroke-opacity:1"
     d=""
     id="path958"
     inkscape:connector-curvature="0" />
  <path
     style="opacity:1;vector-effect:none;fill:#fffffe;fill-opacity:1;stroke:none;stroke-width:0.41588113;stroke-linecap:butt;stroke-linejoin:miter;stroke-miterlimit:4;stroke-dasharray:none;stroke-dashoffset:0;stroke-opacity:1"
     d=""
     id="path980"
     inkscape:connector-curvature="0" />
</svg>
