<?xml version="1.0" encoding="UTF-8" standalone="no"?>
<svg
   xmlns:dc="http://purl.org/dc/elements/1.1/"
   xmlns:cc="http://creativecommons.org/ns#"
   xmlns:rdf="http://www.w3.org/1999/02/22-rdf-syntax-ns#"
   xmlns:svg="http://www.w3.org/2000/svg"
   xmlns="http://www.w3.org/2000/svg"
   xmlns:sodipodi="http://sodipodi.sourceforge.net/DTD/sodipodi-0.dtd"
   xmlns:inkscape="http://www.inkscape.org/namespaces/inkscape"
   id="Capa_1"
   data-name="Capa 1"
   viewBox="0 0 1000 114"
   version="1.1"
   sodipodi:docname="system.svg"
   inkscape:version="0.92.4 (5da689c313, 2019-01-14)"
   inkscape:export-filename="D:\Redman\Desktop\logo-png\atari5200.png"
   inkscape:export-xdpi="297.44"
   inkscape:export-ydpi="297.44">
  <metadata
     id="metadata82">
    <rdf:RDF>
      <cc:Work
         rdf:about="">
        <dc:format>image/svg+xml</dc:format>
        <dc:type
           rdf:resource="http://purl.org/dc/dcmitype/StillImage" />
        <dc:title>logo</dc:title>
      </cc:Work>
    </rdf:RDF>
  </metadata>
  <defs
     id="defs80" />
  <sodipodi:namedview
     pagecolor="#ffffff"
     bordercolor="#666666"
     borderopacity="1"
     objecttolerance="10"
     gridtolerance="10"
     guidetolerance="10"
     inkscape:pageopacity="0"
     inkscape:pageshadow="2"
     inkscape:window-width="1920"
     inkscape:window-height="1017"
     id="namedview78"
     showgrid="false"
     inkscape:pagecheckerboard="true"
     inkscape:zoom="2.272"
     inkscape:cx="473.2408"
     inkscape:cy="57"
     inkscape:window-x="1912"
     inkscape:window-y="-8"
     inkscape:window-maximized="1"
     inkscape:current-layer="Capa_1" />
  <title
     id="title2">logo</title>
  <path
     inkscape:connector-curvature="0"
     d="m 654.56169,11.760423 a 11.36,11.36 0 0 1 11.52,11.45 c 0,6 -5.17,10.92 -11.52,10.92 -6.35,0 -11.64,-4.9 -11.64,-10.92 a 11.29,11.29 0 0 1 11.64,-11.45 m 0,-7.0000005 a 18.35,18.35 0 0 0 -18.64,18.4500005 c 0,9.88 8.36,17.92 18.64,17.92 10.28,0 18.52,-8 18.52,-17.92 a 18.28,18.28 0 0 0 -18.52,-18.4500005 z"
     id="path15"
     style="fill:#ffffe3;fill-opacity:1;stroke:#00ffff;stroke-opacity:1" />
  <path
     inkscape:connector-curvature="0"
     d="m 665.54169,69.070423 h 3.26 v 18.08 l -15.37,-12.26 c -1.44,-1.15 -3.22,-2.48 -5.12,-2.48 a 5.4562121,5.4562121 0 0 0 -0.23,10.91 v 3.48 c -5.08,-0.55 -8.5,-3.78 -8.5,-8.87 a 8.64,8.64 0 0 1 8.58,-8.83 9.65,9.65 0 0 1 5.88,2.07 l 11.49,9.15 v -11.25 z"
     id="path71"
     style="fill:#ffffe3;fill-opacity:1;stroke:#00ffff;stroke-opacity:1" />
  <path
     inkscape:connector-curvature="0"
     d="m 654.56169,42.320423 a 11.36,11.36 0 0 1 11.52,11.42 c 0,6 -5.17,10.92 -11.52,10.92 -6.35,0 -11.64,-4.9 -11.64,-10.92 a 11.29,11.29 0 0 1 11.64,-11.42 m 0,-7 a 18.35,18.35 0 0 0 -18.64,18.45 c 0,9.88 8.36,17.92 18.64,17.92 10.28,0 18.52,-8 18.52,-17.92 a 18.28,18.28 0 0 0 -18.52,-18.45 z"
     id="path17"
     style="fill:#ffffe3;fill-opacity:1;stroke:#00ffff;stroke-opacity:1" />
  <path
     inkscape:connector-curvature="0"
     d="m 491.11,30.35 c 3.63,12.38 7.32,24.74 11,37.12 h -21.96 q 5.44,-18.57 11,-37.11 m 0,-7 a 7,7 0 0 0 -6.71,5 q -2.23,7.44 -4.44,14.85 -3.3,11.15 -6.58,22.28 a 7,7 0 0 0 6.71,9 h 21.93 a 7,7 0 0 0 6.71,-9 q -2.47,-8.46 -5,-16.9 -3,-10.11 -6,-20.22 a 7,7 0 0 0 -6.71,-5 z"
     id="path19"
     style="fill:#ffffe3;fill-opacity:1;stroke:#00ffff;stroke-opacity:1" />
  <path
     inkscape:connector-curvature="0"
     d="m 373.92,30.39 q 5.5,18.53 11,37.06 h -12.25 -9.76 c 3.68,-12.35 7.31,-24.71 11,-37 m 0,-7 a 7,7 0 0 0 -6.7,5 c -2.15,7.16 -4.31,14.45 -6.4,21.5 q -2.31,7.78 -4.62,15.56 a 7,7 0 0 0 6.68,9 h 9.79 12.25 a 7,7 0 0 0 6.71,-9 l -5.37,-18.08 q -2.81,-9.5 -5.63,-19 a 7,7 0 0 0 -6.7,-5 z"
     id="path21"
     style="fill:#ffffe3;fill-opacity:1;stroke:#00ffff;stroke-opacity:1" />
  <path
     inkscape:connector-curvature="0"
     d="m 364.7,12.14 c 3.9,-4.88 12,-5.71 16.74,-1.62 a 12.69,12.69 0 0 1 4,6.22 q 13.3,44.69 26.56,89.35 c -5.22,0 -10.44,0 -15.66,0 -2.47,-8.22 -4.87,-16.44 -7.3,-24.67 -10.1,0 -20.19,0 -30.29,0 q -3.7,12.31 -7.34,24.67 c -5.19,0 -10.38,0 -15.58,0 Q 348.44,63.46 361.1,20.85 c 1,-3 1.38,-6.29 3.57,-8.71 m 9.22,18.25 c -3.7,12.34 -7.33,24.7 -11,37.05 7.34,0 14.67,0 22,0 Q 379.42,48.93 373.92,30.39 Z"
     id="path59"
     style="fill:#ffffe3;fill-opacity:1;stroke:#00ffff;stroke-opacity:1" />
  <path
     inkscape:connector-curvature="0"
     d="m 351.43,109.6 h -15.57 a 3.5,3.5 0 0 1 -3.35,-4.49 q 12.6,-42.63 25.26,-85.24 a 0.65,0.65 0 0 0 0,-0.13 c 0.23,-0.67 0.43,-1.4 0.64,-2.17 0.69,-2.48 1.46,-5.29 3.58,-7.69 A 15.44,15.44 0 0 1 374,4.4 a 14.87,14.87 0 0 1 9.7,3.46 16,16 0 0 1 5.11,7.9 q 5.78,19.43 11.56,38.86 7.51,25.25 15,50.48 a 3.5,3.5 0 0 1 -3.36,4.49 h -15.64 a 3.52,3.52 0 0 1 -3.36,-2.5 c -1.68,-5.61 -3.33,-11.23 -5,-16.85 l -1.57,-5.32 h -25.05 c -2,6.7 -4.13,13.82 -6.59,22.16 a 3.5,3.5 0 0 1 -3.36,2.51 z M 372.62,64 h 7.61 c -1.37,-4.59 -5.57,-18.79 -6.32,-21.29 -1,3.43 -5.22,17.63 -6.31,21.29 z"
     id="path23"
     style="fill:#ffffe3;fill-opacity:1;stroke:#00ffff;stroke-opacity:1" />
  <path
     inkscape:connector-curvature="0"
     d="m 374,7.9 a 11.38,11.38 0 0 1 7.43,2.62 12.69,12.69 0 0 1 4,6.22 q 13.31,44.69 26.57,89.35 h -15.63 c -2.47,-8.22 -4.87,-16.44 -7.3,-24.67 h -30.29 q -3.7,12.31 -7.34,24.67 h -15.58 q 12.61,-42.63 25.27,-85.24 c 1,-3 1.38,-6.29 3.57,-8.71 A 12,12 0 0 1 374,7.9 m -1.34,59.56 h 12.25 q -5.51,-18.53 -11,-37.06 c -3.7,12.34 -7.33,24.7 -11,37.05 h 9.76 M 374,0.9 a 19,19 0 0 0 -14.65,6.71 c -2.62,3 -3.54,6.33 -4.28,9 -0.2,0.72 -0.39,1.4 -0.58,2 a 2.41,2.41 0 0 0 -0.08,0.25 c -7.27,24.45 -15.06,50.74 -25.27,85.25 a 7,7 0 0 0 6.71,9 h 15.58 a 7,7 0 0 0 6.72,-5 c 2.16,-7.33 4,-13.7 5.83,-19.65 h 19.84 c 0.28,0.93 0.55,1.87 0.83,2.8 1.63,5.53 3.31,11.25 5,16.88 a 7,7 0 0 0 6.71,5 H 412 a 7,7 0 0 0 6.7,-9 q -7.5,-25.3 -15,-50.6 -5.76,-19.36 -11.53,-38.75 A 19.45,19.45 0 0 0 385.94,5.2 18.37,18.37 0 0 0 374,0.9 Z m -1.72,59.56 1.63,-5.46 c 0.54,1.83 1.09,3.66 1.63,5.49 h -3.25 z"
     id="path25"
     style="fill:none;fill-opacity:1;stroke:#00ffff;stroke-opacity:1" />
  <path
     inkscape:connector-curvature="0"
     d="m 643.45169,98.630423 5.89,1.739997 -0.12,-1.999997 c 0,-5.42 4.74,-9 10,-9 a 10,10 0 0 1 10.16,10.36 9.66,9.66 0 0 1 -5,8.539997 l -2.51,-2.6 a 7,7 0 0 0 4.25,-6.199997 6.91,6.91 0 0 0 -13.81,-0.08 6.76,6.76 0 0 0 2.54,5.239997 v 0.69 l -14.68,-4.31 V 89.830423 h 3.26 v 8.8 z"
     id="path69"
     style="fill:#ffffe3;fill-opacity:1;stroke:#00ffff;stroke-opacity:1" />
  <path
     inkscape:connector-curvature="0"
     d="m 403.16,8 h 56.66 V 23 H 439 q 0,41.54 0,83.05 h -15 q 0,-41.52 0,-83 H 403.16 C 403.16,18 403.15,13 403.16,8 Z"
     id="path63"
     style="fill:#ffffe3;fill-opacity:1;stroke:#00ffff;stroke-opacity:1" />
  <path
     inkscape:connector-curvature="0"
     d="m 481.42,12.79 a 12,12 0 0 1 21.22,4 q 13.25,44.66 26.54,89.29 c -5.23,0 -10.45,0 -15.68,0 -2.43,-8.22 -4.84,-16.45 -7.29,-24.67 -10.08,0 -20.15,0 -30.23,0 -2.41,8.22 -4.9,16.43 -7.31,24.65 h -15.56 q 12.6,-42.85 25.37,-85.67 c 0.89,-2.58 1.23,-5.42 2.94,-7.65 m -1.27,54.67 h 21.92 c -3.64,-12.38 -7.33,-24.74 -11,-37.12 q -5.43,18.62 -10.92,37.17 z"
     id="path61"
     style="fill:#ffffe3;fill-opacity:1;stroke:#00ffff;stroke-opacity:1" />
  <path
     inkscape:connector-curvature="0"
     d="M 424,109.5 A 3.5,3.5 0 0 1 420.5,106 V 86.49 q 0,-30 0,-60 h -17.34 a 3.5,3.5 0 0 1 -3.5,-3.5 V 8 a 3.5,3.5 0 0 1 3.5,-3.49 h 56.66 a 3.5,3.5 0 0 1 3.5,3.5 V 23 a 3.5,3.5 0 0 1 -3.5,3.5 H 442.46 V 106 a 3.5,3.5 0 0 1 -3.5,3.5 z"
     id="path31"
     style="fill:#ffffe3;fill-opacity:1;stroke:#00ffff;stroke-opacity:1" />
  <path
     inkscape:connector-curvature="0"
     d="M 459.82,8 V 23 H 439 q 0,41.54 0,83.05 h -15 q 0,-41.52 0,-83 h -20.84 c 0,-5 0,-10 0,-14.95 h 56.66 m 0,-7 h -56.66 a 7,7 0 0 0 -7,7 V 23 a 7,7 0 0 0 7,7 H 417 q 0,27.62 0,55.22 V 106 a 7,7 0 0 0 7,7 h 15 a 7,7 0 0 0 7,-7 V 30 h 13.86 a 7,7 0 0 0 7,-7 V 8 a 7,7 0 0 0 -7,-7 z"
     id="path33"
     style="fill:none;fill-opacity:1;stroke:#00ffff;stroke-opacity:1" />
  <path
     inkscape:connector-curvature="0"
     d="m 453.11,109.61 a 3.49,3.49 0 0 1 -3.35,-4.49 c 6.43,-21.89 13,-44.12 19.42,-65.63 l 5.95,-20 c 0,0 0,-0.09 0,-0.14 0.22,-0.63 0.41,-1.32 0.61,-2.05 a 18.27,18.27 0 0 1 2.82,-6.53 15.58,15.58 0 0 1 12.58,-6.33 14.94,14.94 0 0 1 3.67,0.45 15.55,15.55 0 0 1 11.16,11 q 6.6,22.25 13.26,44.6 6.66,22.35 13.27,44.63 a 3.51,3.51 0 0 1 -3.33,4.5 h -5.83 -9.84 a 3.5,3.5 0 0 1 -3.36,-2.51 l -2.82,-9.56 q -1.85,-6.3 -3.72,-12.6 h -25 q -1.44,4.88 -2.89,9.74 -1.84,6.19 -3.68,12.41 a 3.48,3.48 0 0 1 -3.35,2.51 z M 497.39,64 493.7,51.48 q -1.31,-4.38 -2.59,-8.76 l -1,3.4 -5.29,17.88 z"
     id="path27"
     style="fill:#ffffe3;fill-opacity:1;stroke:#00ffff;stroke-opacity:1" />
  <path
     inkscape:connector-curvature="0"
     d="m 491.18,7.89 a 11.42,11.42 0 0 1 2.85,0.36 12,12 0 0 1 8.61,8.55 q 13.25,44.66 26.54,89.29 h -5.81 -9.87 c -2.43,-8.22 -4.84,-16.45 -7.29,-24.67 h -18.7 -11.53 c -2.41,8.22 -4.9,16.43 -7.31,24.65 h -15.56 q 12.6,-42.85 25.37,-85.67 c 0.89,-2.58 1.23,-5.42 2.94,-7.65 a 12.06,12.06 0 0 1 9.76,-4.9 m -0.1,59.58 h 11 c -3.64,-12.38 -7.33,-24.74 -11,-37.12 q -5.48,18.56 -11,37.11 h 10.93 m 0.1,-66.58 a 19.15,19.15 0 0 0 -15.4,7.76 21.31,21.31 0 0 0 -3.37,7.67 c -0.19,0.67 -0.36,1.31 -0.55,1.84 l -0.09,0.29 -5.8,19.82 c -6.41,21.6 -13,43.93 -19.5,65.91 a 7,7 0 0 0 6.71,9 h 15.57 a 7,7 0 0 0 6.71,-5 q 1.82,-6.19 3.67,-12.38 l 2.16,-7.25 H 501 l 3,10.16 q 1.39,4.75 2.8,9.49 a 7,7 0 0 0 6.71,5 h 9.87 5.86 a 7,7 0 0 0 6.66,-9 q -6.71,-22.59 -13.43,-45.17 -6.56,-22 -13.1,-44.06 A 19.07,19.07 0 0 0 495.68,1.44 18.79,18.79 0 0 0 491.18,0.89 Z m -1.61,59.63 1.61,-5.42 c 0.53,1.81 1.06,3.61 1.6,5.42 z"
     id="path29"
     style="fill:none;fill-opacity:1;stroke:#00ffff;stroke-opacity:1" />
  <path
     inkscape:connector-curvature="0"
     d="M 543.94,8.61 A 13.09,13.09 0 0 1 548.42,8 c 6,0 11.91,0 17.87,0 a 27.74,27.74 0 0 1 23.94,15.1 c 3,5.74 3.32,12.41 2.56,18.7 -0.53,6.59 -3.35,13.17 -8.52,17.54 -2.74,2.38 -6.14,3.83 -9.07,6 -1.6,1.19 -1.68,3.52 -0.85,5.18 7.9,11.94 16.12,23.7 24.19,35.53 -5.9,0 -11.81,0 -17.71,0 C 573.11,94.7 565.46,83.29 557.76,71.92 a 12.43,12.43 0 0 1 -1.52,-11.22 10.75,10.75 0 0 1 6.41,-6 c 5.38,-2 10.68,-5.17 13.66,-10.14 2.27,-3.73 2.15,-8.34 1.13,-12.42 a 12.31,12.31 0 0 0 -12.06,-9.3 c -3.86,0 -7.71,0 -11.57,0 A 3.33,3.33 0 0 0 550.45,26 q 0,40 0,80 c -5,0 -10,0 -15.05,0 q 0,-43.07 0,-86.11 a 12.31,12.31 0 0 1 8.54,-11.28 z"
     id="path65"
     style="fill:#ffffe3;fill-opacity:1;stroke:#00ffff;stroke-opacity:1" />
  <path
     inkscape:connector-curvature="0"
     d="m 580.83,109.51 a 3.48,3.48 0 0 1 -2.89,-1.53 q -7.05,-10.35 -14,-20.76 l -9,-13.38 a 14.42,14.42 0 0 1 -0.93,-1.5 q 0,16.84 0,33.67 a 3.5,3.5 0 0 1 -3.5,3.5 h -15.13 a 3.5,3.5 0 0 1 -3.49,-3.5 q 0,-18.45 0,-36.91 0,-24.6 0,-49.2 a 15.87,15.87 0 0 1 11,-14.63 16.19,16.19 0 0 1 5.11,-0.78 h 18.25 a 31.37,31.37 0 0 1 27.08,17.06 c 2.88,5.49 3.87,12.44 2.9,20.59 a 29,29 0 0 1 -9.71,19.86 36.28,36.28 0 0 1 -5.7,3.87 c -1.24,0.73 -2.41,1.41 -3.47,2.18 a 1.29,1.29 0 0 0 0.07,0.72 c 5.34,8.06 10.92,16.17 16.32,24 l 7.69,11.23 a 3.5,3.5 0 0 1 -2.89,5.47 H 580.83 Z M 554,26.35 q 0,15.57 0,31.07 a 14.7,14.7 0 0 1 7.47,-6 c 5.74,-2.14 9.74,-5 11.9,-8.66 1.86,-3.06 1.43,-7 0.74,-9.78 A 8.91,8.91 0 0 0 565.8,26.34 H 554 Z"
     id="path35"
     style="fill:#ffffe3;fill-opacity:1;stroke:#00ffff;stroke-opacity:1" />
  <path
     inkscape:connector-curvature="0"
     d="m 604,8 h 15.84 q 0,49 0,98 c -5.28,0 -10.55,0 -15.83,0 z"
     id="path67"
     style="fill:#ffffe3;fill-opacity:1;stroke:#00ffff;stroke-opacity:1" />
  <path
     inkscape:connector-curvature="0"
     d="m 548,8 h 18.25 a 27.74,27.74 0 0 1 23.94,15.1 c 3,5.74 3.32,12.41 2.56,18.7 -0.53,6.59 -3.35,13.17 -8.52,17.54 -2.74,2.38 -6.14,3.83 -9.07,6 -1.6,1.19 -1.68,3.52 -0.85,5.18 7.9,11.94 16.12,23.7 24.19,35.53 H 580.83 C 573.11,94.7 565.46,83.29 557.76,71.92 a 12.43,12.43 0 0 1 -1.52,-11.22 10.75,10.75 0 0 1 6.41,-6 c 5.38,-2 10.68,-5.17 13.66,-10.14 2.27,-3.73 2.15,-8.34 1.13,-12.42 a 12.33,12.33 0 0 0 -11.7,-9.3 h -12 A 3.32,3.32 0 0 0 550.45,26 q 0,40 0,80 h -15.06 q 0,-43.07 0,-86.11 A 12.31,12.31 0 0 1 543.95,8.6 12.63,12.63 0 0 1 548,8 m 0,-7 a 19.81,19.81 0 0 0 -6.27,1 19.19,19.19 0 0 0 -13.39,17.9 q 0,24.67 0,49.24 0,18.47 0,36.92 a 7,7 0 0 0 7,7 h 15.06 a 7,7 0 0 0 7,-7 q 0,-11.05 0,-22.11 l 3.6,5.24 C 565.6,96 570.34,103 575,110 a 7,7 0 0 0 5.79,3.06 h 17.72 a 7,7 0 0 0 5.77,-10.94 q -3.84,-5.64 -7.72,-11.26 c -4.84,-7 -9.82,-14.3 -14.65,-21.53 l 0.64,-0.38 a 39.2,39.2 0 0 0 6.24,-4.24 32.55,32.55 0 0 0 10.96,-22.21 c 1,-8.79 -0.06,-16.39 -3.28,-22.57 A 35,35 0 0 0 566.42,1 Z m 14.4,28.84 h 3.34 a 5.35,5.35 0 0 1 4.87,3.84 0.83,0.83 0 0 1 0,0.15 c 0.43,1.74 1,5 -0.32,7.1 -1.76,2.94 -5.17,5.35 -10.13,7.21 a 19.35,19.35 0 0 0 -2.76,1.29 q 0,-9.8 0,-19.58 h 4.95 z"
     id="path37"
     style="fill:none;fill-opacity:1;stroke:#00ffff;stroke-opacity:1" />
  <path
     inkscape:connector-curvature="0"
     d="M 614.23,109.5 H 604 A 3.5,3.5 0 0 1 600.5,106 V 8 A 3.5,3.5 0 0 1 604,4.5 h 15.84 a 3.52,3.52 0 0 1 3.5,3.5 v 35.62 q 0,31.18 0,62.39 a 3.52,3.52 0 0 1 -3.5,3.5 z"
     id="path39"
     style="fill:#ffffe3;fill-opacity:1;stroke:#00ffff;stroke-opacity:1" />
  <path
     inkscape:connector-curvature="0"
     d="m 619.83,8 v 0 m 0,0 q 0,49 0,98 H 604 V 8 h 15.84 m 0,-7 H 604 a 7,7 0 0 0 -7,7 v 98 a 7,7 0 0 0 7,7 h 15.84 a 7,7 0 0 0 7,-7 q 0,-31.22 0,-62.42 V 8 a 7,7 0 0 0 -7,-7 z m 0,14 z"
     id="path41"
     style="fill:none;fill-opacity:1;stroke:#00ffff;stroke-opacity:1" />
  <path
     inkscape:connector-curvature="0"
     d="m 639.59169,23.030423 a 14.92,14.92 0 1 0 14.91,-14.7100005 14.77,14.77 0 0 0 -14.91,14.7100005 z m 15,-11.27 a 11.36,11.36 0 0 1 11.49,11.45 c 0,6 -5.17,10.92 -11.52,10.92 -6.35,0 -11.64,-4.9 -11.64,-10.92 a 11.29,11.29 0 0 1 11.64,-11.45 z"
     id="path75"
     style="fill:#ffffe3;fill-opacity:1;stroke:#00ffff;stroke-opacity:1" />
  <path
     inkscape:connector-curvature="0"
     d="m 639.59169,53.560423 a 14.92,14.92 0 1 0 14.91,-14.71 14.77,14.77 0 0 0 -14.91,14.71 z m 15,-11.27 a 11.36,11.36 0 0 1 11.49,11.45 c 0,6 -5.17,10.92 -11.52,10.92 -6.35,0 -11.64,-4.9 -11.64,-10.92 a 11.29,11.29 0 0 1 11.64,-11.42 z"
     id="path73"
     style="fill:#ffffe3;fill-opacity:1;stroke:#00ffff;stroke-opacity:1" />
  <path
     inkscape:connector-curvature="0"
     d="m 654.56169,71.600423 a 18.13,18.13 0 1 1 18.36,-18 18.27,18.27 0 0 1 -18.36,18 z m 0,-25.81 a 7.78,7.78 0 0 0 -8.14,8 c 0,4.09 3.65,7.42 8.14,7.42 4.49,0 8,-3.33 8,-7.42 a 7.9,7.9 0 0 0 -8,-8 z"
     id="path51"
     style="fill:#ffffe3;fill-opacity:1;stroke:#00ffff;stroke-opacity:1" />
  <path
     inkscape:connector-curvature="0"
     d="m 654.50169,38.850423 a 14.63,14.63 0 1 1 -14.91,14.71 14.66,14.66 0 0 1 14.91,-14.71 m 0.06,25.81 c 6.35,0 11.52,-4.9 11.52,-10.92 a 11.58,11.58 0 0 0 -23.16,0 c 0,6 5.22,10.92 11.64,10.92 m -0.06,-32.81 a 21.63,21.63 0 1 0 21.92,21.71 21.58,21.58 0 0 0 -21.92,-21.71 z m 0.06,25.81 c -2.52,0 -4.64,-1.79 -4.64,-3.92 a 4.3,4.3 0 0 1 4.64,-4.42 4.38,4.38 0 0 1 4.52,4.45 c 0,2.16 -2,3.92 -4.52,3.92 z"
     id="path53"
     style="fill:none;fill-opacity:1;stroke:#00ffff;stroke-opacity:1" />
  <path
     inkscape:connector-curvature="0"
     d="m 654.56169,41.070423 a 18.13,18.13 0 1 1 18.36,-18 18.27,18.27 0 0 1 -18.36,18 z m 0,-25.81 a 7.78,7.78 0 0 0 -8.14,8 c 0,4.09 3.65,7.42 8.14,7.42 4.49,0 8,-3.33 8,-7.42 a 7.9,7.9 0 0 0 -8,-8 z"
     id="path55"
     style="fill:#ffffe3;fill-opacity:1;stroke:#00ffff;stroke-opacity:1" />
  <path
     inkscape:connector-curvature="0"
     d="m 654.50169,8.3204225 a 14.63,14.63 0 1 1 -14.91,14.7100005 14.66,14.66 0 0 1 14.91,-14.7100005 m 0.06,25.8100005 c 6.35,0 11.52,-4.9 11.52,-10.92 a 11.58,11.58 0 0 0 -23.16,0 c 0,6 5.22,10.92 11.64,10.92 m -0.06,-32.8100005 a 21.63,21.63 0 1 0 21.92,21.7100005 21.58,21.58 0 0 0 -21.92,-21.7100005 z m 0.06,25.8100005 c -2.52,0 -4.64,-1.79 -4.64,-3.92 a 4.3,4.3 0 0 1 4.64,-4.45 4.38,4.38 0 0 1 4.52,4.45 c 0,2.16 -2,3.92 -4.52,3.92 z"
     id="path57"
     style="fill:none;fill-opacity:1;stroke:#00ffff;stroke-opacity:1" />
  <path
     inkscape:connector-curvature="0"
     d="m 668.80169,90.650423 a 3.46,3.46 0 0 1 -2.18,-0.77 l -15.34,-12.25 c -0.59,-0.47 -2.16,-1.72 -2.94,-1.72 a 2.08,2.08 0 0 0 -2,2 2,2 0 0 0 2,1.89 3.5,3.5 0 0 1 3.24,3.52 v 3.48 a 3.49,3.49 0 0 1 -3.5,3.5 2.48,2.48 0 0 1 -0.38,0 c -7.06,-0.77 -11.62,-5.62 -11.62,-12.35 a 12.08,12.08 0 0 1 12.08,-12.33 13,13 0 0 1 8.06,2.83 l 5.81,4.66 v -4 a 3.5,3.5 0 0 1 3.5,-3.5 h 3.27 a 3.5,3.5 0 0 1 3.5,3.5 v 18.04 a 3.5,3.5 0 0 1 -2.02,3.17 3.59,3.59 0 0 1 -1.48,0.33 z"
     id="path47"
     style="fill:#ffffe3;fill-opacity:1;stroke:#00ffff;stroke-opacity:1" />
  <path
     inkscape:connector-curvature="0"
     d="m 668.80169,69.070423 v 18.08 l -15.37,-12.26 c -1.44,-1.15 -3.22,-2.48 -5.12,-2.48 a 5.4562121,5.4562121 0 0 0 -0.23,10.91 v 3.48 c -5.08,-0.55 -8.5,-3.78 -8.5,-8.87 a 8.64,8.64 0 0 1 8.58,-8.83 9.65,9.65 0 0 1 5.88,2.07 l 11.49,9.15 v -11.25 h 3.27 m 0,-7 h -3.26 a 7,7 0 0 0 -6.41,4.18 l -0.71,-0.57 a 16.56,16.56 0 0 0 -10.26,-3.61 15.72,15.72 0 0 0 -15.58,15.83 c 0,8.51 5.93,14.87 14.74,15.83 a 6.56,6.56 0 0 0 0.76,0 7,7 0 0 0 7,-7 v -1.57 l 9.35,7.46 a 7,7 0 0 0 11.37,-5.47 v -18.08 a 7,7 0 0 0 -7,-7 z"
     id="path49"
     style="fill:none;fill-opacity:1;stroke:#00ffff;stroke-opacity:1" />
  <path
     inkscape:connector-curvature="0"
     d="m 664.40169,111.82042 a 3.53,3.53 0 0 1 -2.53,-1.07 l -2.5,-2.6 a 3.5,3.5 0 0 1 1.36,-5.73 3.53,3.53 0 0 0 1.91,-2.899997 3.41,3.41 0 0 0 -3.52,-3.26 3.37,3.37 0 0 0 -3.29,3.18 3.23,3.23 0 0 0 1.17,2.459997 3.48,3.48 0 0 1 1.37,2.78 v 0.64 a 3.5,3.5 0 0 1 -3.5,3.5 3.63,3.63 0 0 1 -1,-0.14 l -14.69,-4.31 a 3.5,3.5 0 0 1 -2.51,-3.36 V 89.830423 a 3.5,3.5 0 0 1 3.5,-3.5 h 3.26 a 3.5,3.5 0 0 1 3.5,3.5 v 3.28 a 13.82,13.82 0 0 1 26,6.67 13.16,13.16 0 0 1 -6.89,11.649997 3.57,3.57 0 0 1 -1.64,0.39 z"
     id="path43"
     style="fill:#ffffe3;fill-opacity:1;stroke:#00ffff;stroke-opacity:1" />
  <path
     inkscape:connector-curvature="0"
     d="m 659.28169,89.420423 a 10,10 0 0 1 10.16,10.36 9.66,9.66 0 0 1 -5,8.539997 l -2.51,-2.6 a 7,7 0 0 0 4.25,-6.199997 6.91,6.91 0 0 0 -13.81,-0.08 6.76,6.76 0 0 0 2.54,5.239997 v 0.64 l -14.68,-4.31 V 89.830423 h 3.26 v 8.8 0 l 5.89,1.739997 -0.12,-1.999997 c 0,-5.42 4.74,-9 10,-9 m 0,-7 a 17.77,17.77 0 0 0 -10.24,3.14 7,7 0 0 0 -5.55,-2.73 h -3.26 a 7,7 0 0 0 -7,7 v 11.259997 a 7,7 0 0 0 5,6.72 l 14.68,4.31 a 7,7 0 0 0 2,0.28 6.93,6.93 0 0 0 3,-0.69 l 1.45,1.52 a 7,7 0 0 0 5,2.14 7.11,7.11 0 0 0 3.22,-0.78 16.71,16.71 0 0 0 8.78,-14.759997 c 0,-9.89 -7.38,-17.36 -17.16,-17.36 z"
     id="path45"
     style="fill:none;fill-opacity:1;stroke:#00ffff;stroke-opacity:1" />
</svg>
