<?xml version="1.0" encoding="UTF-8" standalone="no"?>
<svg
   xmlns:dc="http://purl.org/dc/elements/1.1/"
   xmlns:cc="http://creativecommons.org/ns#"
   xmlns:rdf="http://www.w3.org/1999/02/22-rdf-syntax-ns#"
   xmlns:svg="http://www.w3.org/2000/svg"
   xmlns="http://www.w3.org/2000/svg"
   xmlns:sodipodi="http://sodipodi.sourceforge.net/DTD/sodipodi-0.dtd"
   xmlns:inkscape="http://www.inkscape.org/namespaces/inkscape"
   width="118"
   height="20"
   viewBox="0 0 118 20"
   version="1.1"
   id="svg3739"
   sodipodi:docname="system.svg"
   inkscape:version="0.92.4 (5da689c313, 2019-01-14)">
  <metadata
     id="metadata3743">
    <rdf:RDF>
      <cc:Work
         rdf:about="">
        <dc:format>image/svg+xml</dc:format>
        <dc:type
           rdf:resource="http://purl.org/dc/dcmitype/StillImage" />
        <dc:title>system</dc:title>
      </cc:Work>
    </rdf:RDF>
  </metadata>
  <sodipodi:namedview
     pagecolor="#ffffff"
     bordercolor="#666666"
     borderopacity="1"
     objecttolerance="10"
     gridtolerance="10"
     guidetolerance="10"
     inkscape:pageopacity="0"
     inkscape:pageshadow="2"
     inkscape:window-width="1920"
     inkscape:window-height="1137"
     id="namedview3741"
     showgrid="false"
     inkscape:zoom="7.5183342"
     inkscape:cx="93.441956"
     inkscape:cy="8.1535411"
     inkscape:window-x="-8"
     inkscape:window-y="344"
     inkscape:window-maximized="1"
     inkscape:current-layer="svg3739"
     scale-x="2" />
  <!-- Generator: Sketch 45 (43475) - http://www.bohemiancoding.com/sketch -->
  <title
     id="title3729">system</title>
  <desc
     id="desc3731">Created with Sketch.</desc>
  <defs
     id="defs3733" />
  <g
     inkscape:groupmode="layer"
     id="layer1"
     inkscape:label="Layer 1"
     transform="translate(0,2)" />
  <g
     inkscape:groupmode="layer"
     id="layer2"
     inkscape:label="Layer 2"
     transform="translate(0,2)" />
  <g
     aria-label="NINTENDO 64"
     style="font-style:normal;font-variant:normal;font-weight:normal;font-stretch:normal;font-size:21.33333397px;line-height:1.25;font-family:Arial;-inkscape-font-specification:Arial;letter-spacing:0px;word-spacing:0px;fill:none;fill-opacity:1;stroke:#ffffff;stroke-width:0.5;stroke-miterlimit:4;stroke-dasharray:none;stroke-opacity:1"
     id="text4643">
    <path
       d="M 2.450882,16.27577 V 3.8682176 H 4.1351269 L 10.652054,13.609754 V 3.8682176 h 1.574219 V 16.27577 H 10.542028 L 4.0251008,6.5257698 V 16.27577 Z"
       style="font-size:17.33333397px;fill:none;fill-opacity:1;stroke:#ffffff;stroke-width:0.5;stroke-miterlimit:4;stroke-dasharray:none;stroke-opacity:1"
       id="path5331"
       inkscape:connector-curvature="0" />
    <path
       d="M 15.273148,16.27577 V 3.8682176 h 1.641927 V 16.27577 Z"
       style="font-size:17.33333397px;fill:none;fill-opacity:1;stroke:#ffffff;stroke-width:0.5;stroke-miterlimit:4;stroke-dasharray:none;stroke-opacity:1"
       id="path5333"
       inkscape:connector-curvature="0" />
    <path
       d="M 19.784216,16.27577 V 3.8682176 h 1.684245 l 6.516927,9.7415364 V 3.8682176 h 1.574219 V 16.27577 H 27.875362 L 21.358435,6.5257698 V 16.27577 Z"
       style="font-size:17.33333397px;fill:none;fill-opacity:1;stroke:#ffffff;stroke-width:0.5;stroke-miterlimit:4;stroke-dasharray:none;stroke-opacity:1"
       id="path5335"
       inkscape:connector-curvature="0" />
    <path
       d="M 35.484085,16.27577 V 5.3324104 H 31.396194 V 3.8682176 H 41.23083 V 5.3324104 H 37.126012 V 16.27577 Z"
       style="font-size:17.33333397px;fill:none;fill-opacity:1;stroke:#ffffff;stroke-width:0.5;stroke-miterlimit:4;stroke-dasharray:none;stroke-opacity:1"
       id="path5337"
       inkscape:connector-curvature="0" />
    <path
       d="M 42.957394,16.27577 V 3.8682176 h 8.971354 v 1.4641928 h -7.329427 v 3.8001304 h 6.863932 V 10.58827 h -6.863932 v 4.223307 h 7.617188 v 1.464193 z"
       style="font-size:17.33333397px;fill:none;fill-opacity:1;stroke:#ffffff;stroke-width:0.5;stroke-miterlimit:4;stroke-dasharray:none;stroke-opacity:1"
       id="path5339"
       inkscape:connector-curvature="0" />
    <path
       d="M 54.484737,16.27577 V 3.8682176 h 1.684245 L 62.68591,13.609754 V 3.8682176 h 1.574218 V 16.27577 H 62.575884 L 56.058956,6.5257698 V 16.27577 Z"
       style="font-size:17.33333397px;fill:none;fill-opacity:1;stroke:#ffffff;stroke-width:0.5;stroke-miterlimit:4;stroke-dasharray:none;stroke-opacity:1"
       id="path5341"
       inkscape:connector-curvature="0" />
    <path
       d="M 67.027707,16.27577 V 3.8682176 h 4.274089 q 1.447266,0 2.208985,0.1777344 1.066406,0.2454427 1.819661,0.8886719 0.981771,0.8294272 1.464193,2.1243491 0.490885,1.2864584 0.490885,2.945313 0,1.413411 -0.330078,2.505208 -0.330078,1.091797 -0.846354,1.811198 -0.516276,0.710938 -1.134115,1.125651 -0.609375,0.40625 -1.481119,0.617839 -0.863282,0.211588 -1.988933,0.211588 z m 1.641928,-1.464193 h 2.649088 q 1.227214,0 1.921224,-0.228515 0.702474,-0.228516 1.117188,-0.643229 0.583984,-0.583985 0.905599,-1.565756 0.330078,-0.990234 0.330078,-2.395182 0,-1.9466147 -0.643229,-2.9876304 Q 74.314817,5.9417854 73.400755,5.5863167 72.740598,5.3324104 71.276406,5.3324104 h -2.606771 z"
       style="font-size:17.33333397px;fill:none;fill-opacity:1;stroke:#ffffff;stroke-width:0.5;stroke-miterlimit:4;stroke-dasharray:none;stroke-opacity:1"
       id="path5343"
       inkscape:connector-curvature="0" />
    <path
       d="m 79.054398,10.232801 q 0,-3.0891926 1.658854,-4.8326823 1.658854,-1.7519531 4.282552,-1.7519531 1.718099,0 3.097656,0.8209635 1.379558,0.8209636 2.098959,2.2936199 0.727864,1.4641928 0.727864,3.326172 0,1.88737 -0.761718,3.376953 -0.761719,1.489584 -2.158204,2.259766 -1.396484,0.761719 -3.01302,0.761719 -1.751954,0 -3.131511,-0.846354 -1.379557,-0.846355 -2.090495,-2.310547 -0.710937,-1.464193 -0.710937,-3.097657 z m 1.692708,0.02539 q 0,2.242838 1.201823,3.53776 1.210286,1.286459 3.029948,1.286459 1.853516,0 3.046875,-1.303386 1.201823,-1.303385 1.201823,-3.698568 0,-1.5149736 -0.516276,-2.6406246 -0.507813,-1.1341147 -1.498047,-1.7519532 -0.981771,-0.6263021 -2.208984,-0.6263021 -1.74349,0 -3.004558,1.2018229 -1.252604,1.1933594 -1.252604,3.994792 z"
       style="font-size:17.33333397px;fill:none;fill-opacity:1;stroke:#ffffff;stroke-width:0.5;stroke-miterlimit:4;stroke-dasharray:none;stroke-opacity:1"
       id="path5345"
       inkscape:connector-curvature="0" />
    <path
       d="m 105.12211,6.9066292 -1.51498,0.1184896 q -0.20312,-0.8971354 -0.57552,-1.3033855 -0.61784,-0.6516927 -1.52344,-0.6516927 -0.72786,0 -1.27799,0.40625 -0.719402,0.5247396 -1.134116,1.5319011 -0.414713,1.0071615 -0.43164,2.8691408 0.55013,-0.8378907 1.345706,-1.2441407 0.79557,-0.40625 1.66731,-0.40625 1.52344,0 2.58985,1.1256511 1.07487,1.1171871 1.07487,2.8945311 0,1.167969 -0.50781,2.17513 -0.49935,0.998698 -1.37956,1.531902 -0.88021,0.533203 -1.9974,0.533203 -1.904294,0 -3.106117,-1.396485 -1.201823,-1.404948 -1.201823,-4.621094 0,-3.5970049 1.328776,-5.2304686 1.159505,-1.421875 3.123044,-1.421875 1.4642,0 2.39519,0.8209636 0.93945,0.8209635 1.12565,2.2682292 z m -6.220707,5.3489588 q 0,0.787109 0.330078,1.50651 0.338542,0.719401 0.939449,1.100261 0.60092,0.372396 1.26107,0.372396 0.96485,0 1.65886,-0.778646 0.69401,-0.778646 0.69401,-2.115886 0,-1.286458 -0.68555,-2.022786 -0.68555,-0.7447921 -1.72656,-0.7447921 -1.03255,0 -1.751956,0.7447921 -0.719401,0.736328 -0.719401,1.938151 z"
       style="font-size:17.33333397px;fill:none;fill-opacity:1;stroke:#ffffff;stroke-width:0.5;stroke-miterlimit:4;stroke-dasharray:none;stroke-opacity:1"
       id="path5347"
       inkscape:connector-curvature="0" />
    <path
       d="m 111.74906,16.27577 v -2.970703 h -5.38281 v -1.396484 l 5.66211,-8.0403654 h 1.24414 v 8.0403654 h 1.67578 v 1.396484 h -1.67578 v 2.970703 z m 0,-4.367187 V 6.3141813 l -3.88477,5.5944017 z"
       style="font-size:17.33333397px;fill:none;fill-opacity:1;stroke:#ffffff;stroke-width:0.5;stroke-miterlimit:4;stroke-dasharray:none;stroke-opacity:1"
       id="path5349"
       inkscape:connector-curvature="0" />
  </g>
</svg>
