<?xml version="1.0" encoding="UTF-8" standalone="no"?>
<svg
   xmlns:dc="http://purl.org/dc/elements/1.1/"
   xmlns:cc="http://creativecommons.org/ns#"
   xmlns:rdf="http://www.w3.org/1999/02/22-rdf-syntax-ns#"
   xmlns:svg="http://www.w3.org/2000/svg"
   xmlns="http://www.w3.org/2000/svg"
   xmlns:xlink="http://www.w3.org/1999/xlink"
   xmlns:sodipodi="http://sodipodi.sourceforge.net/DTD/sodipodi-0.dtd"
   xmlns:inkscape="http://www.inkscape.org/namespaces/inkscape"
   viewBox="0 0 1000 113.99998"
   version="1.1"
   id="svg32"
   sodipodi:docname="logo.svg"
   inkscape:version="0.92.4 (5da689c313, 2019-01-14)">
  <metadata
     id="metadata38">
    <rdf:RDF>
      <cc:Work
         rdf:about="">
        <dc:format>image/svg+xml</dc:format>
        <dc:type
           rdf:resource="http://purl.org/dc/dcmitype/StillImage" />
        <dc:title>logo</dc:title>
      </cc:Work>
    </rdf:RDF>
  </metadata>
  <defs
     id="defs36">
    <linearGradient
       gradientTransform="translate(0.10361182,0.67698427)"
       id="Degradado_sin_nombre_33-31"
       x1="373.99771"
       y1="106.93916"
       x2="373.99771"
       y2="7.0015602"
       xlink:href="#Degradado_sin_nombre_33" />
    <linearGradient
       id="Degradado_sin_nombre_33"
       x1="301.86536"
       y1="110.45096"
       x2="301.86536"
       y2="3.5022299"
       gradientUnits="userSpaceOnUse">
      <stop
         offset="0"
         stop-color="#6c4d9d"
         id="stop2" />
      <stop
         offset="0.04305"
         stop-color="#6855a2"
         id="stop4" />
      <stop
         offset="0.10946"
         stop-color="#5b6bb1"
         id="stop6" />
      <stop
         offset="0.19045"
         stop-color="#488ec9"
         id="stop8" />
      <stop
         offset="0.25556"
         stop-color="#35afdf"
         id="stop10" />
      <stop
         offset="0.48461"
         stop-color="#9ecf81"
         id="stop12" />
      <stop
         offset="0.65214"
         stop-color="#fdd255"
         id="stop14" />
      <stop
         offset="0.69798"
         stop-color="#fccc55"
         id="stop16" />
      <stop
         offset="0.7587"
         stop-color="#fbbb55"
         id="stop18" />
      <stop
         offset="0.82776"
         stop-color="#f8a056"
         id="stop20" />
      <stop
         offset="0.90299"
         stop-color="#f47a56"
         id="stop22" />
      <stop
         offset="0.98239"
         stop-color="#ef4957"
         id="stop24" />
      <stop
         offset="1"
         stop-color="#ee3d57"
         id="stop26" />
    </linearGradient>
    <linearGradient
       gradientTransform="translate(0.10361182,0.67698427)"
       id="Degradado_sin_nombre_33-30"
       x1="337.91592"
       y1="106.96822"
       x2="337.91592"
       y2="7.0013499"
       xlink:href="#Degradado_sin_nombre_33" />
    <linearGradient
       gradientTransform="translate(0.10361182,0.67698427)"
       id="Degradado_sin_nombre_33-29"
       x1="373.99774"
       y1="106.93917"
       x2="373.99774"
       y2="7.0007601"
       xlink:href="#Degradado_sin_nombre_33" />
    <linearGradient
       gradientTransform="translate(-72.723407,-60.323425)"
       id="Degradado_sin_nombre_33-28"
       x1="337.91592"
       y1="106.97016"
       x2="337.91592"
       y2="7.0006199"
       xlink:href="#Degradado_sin_nombre_33" />
    <linearGradient
       gradientTransform="translate(0.10361182,0.67698427)"
       id="Degradado_sin_nombre_33-27"
       x1="301.86533"
       y1="106.95079"
       x2="301.86533"
       y2="7.0023298"
       xlink:href="#Degradado_sin_nombre_33" />
    <linearGradient
       gradientTransform="translate(0.10361182,0.67698427)"
       id="Degradado_sin_nombre_33-25"
       x1="350.80634"
       y1="242.22781"
       x2="350.80634"
       y2="-170.38809"
       xlink:href="#Degradado_sin_nombre_33" />
    <linearGradient
       id="linearGradient1324"
       x1="350.80634"
       y1="242.22781"
       x2="350.80634"
       y2="-170.38809"
       xlink:href="#Degradado_sin_nombre_33" />
    <linearGradient
       gradientTransform="translate(0.10361182,0.67698427)"
       id="Degradado_sin_nombre_33-24"
       x1="350.80634"
       y1="242.22792"
       x2="350.80634"
       y2="-170.38808"
       xlink:href="#Degradado_sin_nombre_33" />
    <linearGradient
       gradientTransform="translate(0.10361182,0.67698427)"
       id="Degradado_sin_nombre_33-22"
       x1="360.14014"
       y1="162.10397"
       x2="360.14014"
       y2="-174.10454"
       xlink:href="#Degradado_sin_nombre_33" />
    <linearGradient
       id="linearGradient1412"
       x1="360.14014"
       y1="162.10397"
       x2="360.14014"
       y2="-174.10454"
       xlink:href="#Degradado_sin_nombre_33" />
    <linearGradient
       gradientTransform="translate(0.10361182,0.67698427)"
       id="Degradado_sin_nombre_33-21"
       x1="360.14014"
       y1="162.10406"
       x2="360.14014"
       y2="-174.10452"
       xlink:href="#Degradado_sin_nombre_33" />
    <linearGradient
       gradientTransform="translate(0.10361182,0.67698427)"
       id="Degradado_sin_nombre_33-19"
       x1="373.9986"
       y1="110.43924"
       x2="373.9986"
       y2="3.50125"
       xlink:href="#Degradado_sin_nombre_33" />
    <linearGradient
       id="linearGradient1500"
       x1="373.9986"
       y1="110.43924"
       x2="373.9986"
       y2="3.50125"
       xlink:href="#Degradado_sin_nombre_33" />
    <linearGradient
       gradientTransform="translate(0.10361182,0.67698427)"
       id="Degradado_sin_nombre_33-18"
       x1="355.03568"
       y1="120.47615"
       x2="355.03568"
       y2="-19.885969"
       xlink:href="#Degradado_sin_nombre_33" />
    <linearGradient
       gradientTransform="translate(0.10361182,0.67698427)"
       id="Degradado_sin_nombre_33-17"
       x1="361.5412"
       y1="166.49692"
       x2="361.5412"
       y2="-54.521412"
       xlink:href="#Degradado_sin_nombre_33" />
    <linearGradient
       gradientTransform="translate(0.10361182,0.67698427)"
       id="Degradado_sin_nombre_33-16"
       x1="371.40439"
       y1="119.91775"
       x2="371.40439"
       y2="-85.608177"
       xlink:href="#Degradado_sin_nombre_33" />
    <linearGradient
       gradientTransform="translate(0.10361182,0.67698427)"
       id="Degradado_sin_nombre_33-15"
       x1="388.30594"
       y1="606.29407"
       x2="388.30594"
       y2="-16941.348"
       xlink:href="#Degradado_sin_nombre_33" />
    <linearGradient
       gradientTransform="translate(0.10361182,0.67698427)"
       id="Degradado_sin_nombre_33-14"
       x1="348.03738"
       y1="130.43365"
       x2="348.03738"
       y2="3.5007601"
       xlink:href="#Degradado_sin_nombre_33" />
    <linearGradient
       gradientTransform="translate(-69.299915,-64.991824)"
       id="Degradado_sin_nombre_33-12"
       x1="337.91586"
       y1="110.46854"
       x2="337.91586"
       y2="3.49979"
       xlink:href="#Degradado_sin_nombre_33" />
    <linearGradient
       id="linearGradient1704"
       x1="337.91586"
       y1="110.46854"
       x2="337.91586"
       y2="3.49979"
       xlink:href="#Degradado_sin_nombre_33" />
    <linearGradient
       gradientTransform="translate(0.10361182,0.67698427)"
       id="Degradado_sin_nombre_33-11"
       x1="330.95694"
       y1="110.47674"
       x2="330.95694"
       y2="-11.4641"
       xlink:href="#Degradado_sin_nombre_33" />
    <linearGradient
       gradientTransform="translate(0.10361182,0.67698427)"
       id="Degradado_sin_nombre_33-10"
       x1="342.09995"
       y1="28026.131"
       x2="342.09995"
       y2="-28005.119"
       xlink:href="#Degradado_sin_nombre_33" />
    <linearGradient
       gradientTransform="translate(0.10361182,0.67698427)"
       id="Degradado_sin_nombre_33-9"
       x1="369.97385"
       y1="119.18463"
       x2="369.97385"
       y2="-14.76526"
       xlink:href="#Degradado_sin_nombre_33" />
    <linearGradient
       gradientTransform="translate(0.10361182,0.67698427)"
       id="Degradado_sin_nombre_33-8"
       x1="352.53391"
       y1="126.43062"
       x2="352.53391"
       y2="3.5007801"
       xlink:href="#Degradado_sin_nombre_33" />
    <linearGradient
       gradientTransform="translate(0.10361182,0.67698427)"
       id="Degradado_sin_nombre_33-7"
       x1="348.74835"
       y1="126.98286"
       x2="348.74835"
       y2="-4.743"
       xlink:href="#Degradado_sin_nombre_33" />
    <linearGradient
       gradientTransform="translate(0.10361182,0.67698427)"
       id="Degradado_sin_nombre_33-6"
       x1="397.01987"
       y1="184.67123"
       x2="397.01987"
       y2="-411.88498"
       xlink:href="#Degradado_sin_nombre_33" />
    <linearGradient
       gradientTransform="translate(0.10361182,0.67698427)"
       id="Degradado_sin_nombre_33-5"
       x1="394.19501"
       y1="110.43924"
       x2="394.19501"
       y2="-235.83694"
       xlink:href="#Degradado_sin_nombre_33" />
    <linearGradient
       gradientTransform="translate(0.10361182,0.67698427)"
       id="Degradado_sin_nombre_33-4"
       x1="381.92947"
       y1="113.75141"
       x2="381.92947"
       y2="-101.0624"
       xlink:href="#Degradado_sin_nombre_33" />
    <linearGradient
       gradientTransform="translate(0.10361182,0.67698427)"
       id="Degradado_sin_nombre_33-3"
       x1="330.94363"
       y1="113.2226"
       x2="330.94363"
       y2="3.4991901"
       xlink:href="#Degradado_sin_nombre_33" />
    <linearGradient
       gradientTransform="translate(0.10361182,0.67698427)"
       id="Degradado_sin_nombre_33-2"
       x1="337.93149"
       y1="110.47049"
       x2="337.93149"
       y2="-17904.039"
       xlink:href="#Degradado_sin_nombre_33" />
  </defs>
  <sodipodi:namedview
     pagecolor="#ffffff"
     bordercolor="#666666"
     borderopacity="1"
     objecttolerance="10"
     gridtolerance="10"
     guidetolerance="10"
     inkscape:pageopacity="0"
     inkscape:pageshadow="2"
     inkscape:window-width="1920"
     inkscape:window-height="1017"
     id="namedview34"
     showgrid="false"
     inkscape:pagecheckerboard="true"
     inkscape:zoom="1.136"
     inkscape:cx="318.07573"
     inkscape:cy="57.248469"
     inkscape:window-x="-8"
     inkscape:window-y="-8"
     inkscape:window-maximized="1"
     inkscape:current-layer="svg32" />
  <title
     id="title2">logo</title>
  <g
     id="g957">
    <path
       d="m 726.5361,38.701675 a 13.673982,14.135 0 0 1 9.26574,3.76282 11.699482,12.09393 0 0 1 3.97098,9.57808 14.318482,14.80123 0 0 1 -3.5298,9.92017 11.445805,11.8317 0 0 1 -9.26567,4.21893 13.560846,14.01805 0 0 1 -13.56769,-13.797 12.699177,13.12733 0 0 1 3.97104,-9.57812 12.638812,13.06493 0 0 1 9.15532,-4.10492 m 0.44131,21.77881 a 6.9722699,7.20734 0 0 0 5.51534,-2.50855 8.1910391,8.4672 0 0 0 2.09579,-5.92932 7.6836362,7.94269 0 0 0 -2.20614,-5.58722 8.600504,8.89047 0 0 0 -5.84617,-2.1665 h -5e-5 a 7.9298259,8.19718 0 0 0 -7.61112,7.86774 7.4279371,7.67837 0 0 0 2.42678,5.92932 8.0261871,8.29679 0 0 0 5.62558,2.39453 m -0.44124,-28.77877 a 19.431226,20.08635 0 0 0 -13.9437,6.15521 19.691501,20.3554 0 0 0 -0.05,29.1178 19.574941,20.23491 0 0 0 14.43501,6.207 18.245397,18.86054 0 0 0 14.40579,-6.66141 21.021162,21.72989 0 0 0 5.16133,-14.4777 18.488375,19.11171 0 0 0 -6.28346,-14.84613 20.305016,20.9896 0 0 0 -13.72496,-5.49477 z m 0.4413,21.77881 c -0.21144,0 -0.47454,0 -1.00505,-0.51184 -0.21173,-0.20429 -0.27562,-0.26593 -0.27562,-0.812 0,-0.0626 0,-0.17917 0.33319,-0.52356 0.33289,-0.34418 0.44566,-0.34418 0.50624,-0.34418 a 2.1331412,2.20506 0 0 1 1.13764,0.2511 0.72923388,0.75382 0 0 1 0.14307,0.50262 1.6848067,1.74161 0 0 1 -0.28642,1.16623 q -0.0788,0.08784 -0.15478,0.17844 a 0.53780781,0.55594 0 0 1 -0.0695,0.07281 l -0.003,-0.0012 a 2.7821402,2.87594 0 0 1 -0.32533,0.02155 z"
       id="path23"
       inkscape:connector-curvature="0"
       style="fill:none;fill-opacity:1;stroke:#05ffff;stroke-width:1;stroke-miterlimit:4;stroke-dasharray:none;stroke-opacity:1" />
    <path
       d="m 726.5361,8.8270654 a 13.67404,14.13506 0 0 1 9.26574,3.7628096 11.699424,12.09387 0 0 1 3.97103,9.57813 14.318492,14.80124 0 0 1 -3.5298,9.92016 11.445785,11.83168 0 0 1 -9.26567,4.21894 12.900074,13.335 0 0 1 -9.59668,-4.10492 12.941749,13.37808 0 0 1 -3.97103,-9.69208 12.699206,13.12736 0 0 1 3.97103,-9.57812 12.638774,13.06489 0 0 1 9.15533,-4.1049196 m 0.4413,21.7788096 a 6.9720861,7.20715 0 0 0 5.51534,-2.50855 8.1910391,8.4672 0 0 0 2.09579,-5.92932 7.6836169,7.94267 0 0 0 -2.20614,-5.58722 8.6007362,8.89071 0 0 0 -5.84616,-2.16649 h -8e-5 a 7.2883435,7.53407 0 0 0 -5.29469,2.39452 7.2883725,7.5341 0 0 0 -2.31643,5.4732 7.4279371,7.67837 0 0 0 2.42678,5.92932 8.0261484,8.29675 0 0 0 5.62558,2.39454 M 726.5361,1.8270654 a 19.431226,20.08635 0 0 0 -13.94375,6.15521 19.691501,20.3554 0 0 0 -0.05,29.1177996 19.574941,20.23491 0 0 0 14.43501,6.207 18.245397,18.86054 0 0 0 14.40579,-6.6614 21.021123,21.72985 0 0 0 5.16138,-14.47767 18.488365,19.1117 0 0 0 -6.28346,-14.8461296 20.304968,20.98955 0 0 0 -13.72496,-5.49481 z m 0.4413,21.7788096 c -0.21144,0 -0.47454,0 -1.00505,-0.51183 -0.21173,-0.2043 -0.27562,-0.266 -0.27562,-0.812 0,-0.0626 0,-0.17917 0.33319,-0.52356 0.33289,-0.34416 0.44566,-0.34416 0.50624,-0.34416 a 2.133325,2.20525 0 0 1 1.13764,0.25111 0.72922421,0.75381 0 0 1 0.14307,0.5026 1.6847681,1.74157 0 0 1 -0.28642,1.16623 q -0.0789,0.08788 -0.15494,0.17854 a 0.54121301,0.55946 0 0 1 -0.0694,0.07277 l -0.004,-0.0012 a 2.7883895,2.8824 0 0 1 -0.32527,0.02152 z"
       id="path19"
       inkscape:connector-curvature="0"
       style="fill:none;stroke-width:0.98355711;stroke:#05ffff;stroke-opacity:1" />
    <path
       d="m 731.05868,68.348175 a 8.3588514,8.64067 0 0 1 6.39771,2.85059 9.2382137,9.54968 0 0 1 2.53703,6.84155 7.4182536,7.66836 0 0 1 -2.86798,6.15735 10.115177,10.45621 0 0 1 -6.50799,2.50855 c -0.99278,0 -2.75768,-0.57013 -5.40505,-1.8244 -2.64737,-1.25427 -5.29464,-2.50855 -7.83172,-3.8769 -2.53709,-1.36835 -3.86068,-2.05243 -3.86068,-2.05243 v -6.27136 l 9.48632,4.675 a 8.8520144,9.15046 0 0 1 2.31643,-6.49939 7.6480268,7.90588 0 0 1 5.73593,-2.50855 m 0.11036,12.6568 a 3.0835192,3.18748 0 0 0 3.41944,-3.53479 3.3229662,3.435 0 0 0 -0.99277,-2.62262 3.5600625,3.68009 0 0 0 -2.31644,-0.91217 3.4942707,3.61208 0 0 0 -2.53702,1.02625 3.5426302,3.66207 0 0 0 -1.10307,2.50854 3.1282994,3.23377 0 0 0 1.10307,2.50855 3.6191504,3.74117 0 0 0 2.42679,1.02624 m -0.11036,-19.6568 a 14.415366,14.90138 0 0 0 -10.6983,4.74549 15.093309,15.60218 0 0 0 -1.25446,1.58551 l -2.67192,-1.31671 a 6.7716924,7 0 0 0 -9.68577,6.31866 v 6.27136 a 6.7727952,7.00114 0 0 0 3.74265,6.26065 c 0.0129,0.0067 1.31605,0.68122 3.75732,1.99787 2.69042,1.451 5.46185,2.76416 8.14211,4.034 3.64133,1.72518 6.1016,2.46118 8.22702,2.46118 a 16.872358,17.44121 0 0 0 10.81282,-4.105 14.096477,14.57174 0 0 0 5.33493,-11.56088 15.902168,16.43831 0 0 0 -4.37756,-11.63907 15.203775,15.71637 0 0 0 -11.32887,-5.05307 z"
       id="path25"
       inkscape:connector-curvature="0"
       style="fill:none;stroke-width:0.98355711;stroke:#05ffff;stroke-opacity:1" />
    <path
       d="m 448.43632,6.1197183 a 13.158245,14.14733 0 0 1 9.22667,3.87688 19.507045,20.97336 0 0 1 5.51473,9.5780597 l 23.54385,86.203002 h -19.61988 l -4.87842,-18.814142 h -26.51331 l -5.09056,18.814142 h -19.72593 l 24.49827,-87.343272 a 17.991598,19.344 0 0 1 4.87847,-8.6658797 11.213126,12.056 0 0 1 8.16611,-3.64879 m -8.06003,62.5997797 h 16.54429 l -7.8479,-42.64537 -8.69639,42.64537 m 8.06003,-69.59977969 A 17.706332,19.03729 0 0 0 435.72226,4.7591083 24.643746,26.49618 0 0 0 429.15572,16.422868 l -24.49558,87.333742 a 6.5106074,7 0 0 0 6.23332,9.02105 h 19.72594 a 6.5106074,7 0 0 0 6.25144,-5.0447 l 3.72561,-13.769442 h 16.68301 l 3.55079,13.694002 a 6.5106074,7 0 0 0 6.27144,5.12017 h 19.6199 a 6.5106074,7 0 0 0 6.24683,-8.97226 l -23.54382,-86.203002 -0.016,-0.05771 A 26.075401,28.03545 0 0 0 462.07108,4.8451283 19.563445,21.034 0 0 0 448.43632,-0.88028169 Z m 0.0328,62.59977969 0.27676,-1.35727 0.24978,1.35727 z"
       id="path9"
       inkscape:connector-curvature="0"
       style="fill:none;stroke-width:0.96441007;stroke:#05ffff;stroke-opacity:1" />
    <path
       d="m 571.45807,6.1197183 a 13.15844,14.14754 0 0 1 9.22667,3.87682 19.507435,20.97378 0 0 1 5.51473,9.5781197 l 23.54384,86.203002 h -19.61988 l -4.87841,-18.814142 h -26.51333 l -5.09056,18.814142 h -19.7259 l 24.49828,-87.343272 a 17.991143,19.34351 0 0 1 4.87848,-8.6658797 11.21307,12.05594 0 0 1 8.16608,-3.64879 m -8.06004,62.5997797 h 16.54429 l -7.84794,-42.64537 -8.69631,42.64537 m 8.06,-69.59977969 A 17.706248,19.0372 0 0 0 558.74403,4.7591083 24.643682,26.49611 0 0 0 552.17751,16.422868 l -24.49559,87.333742 a 6.5106074,7 0 0 0 6.23332,9.02105 h 19.7259 a 6.5106074,7 0 0 0 6.25144,-5.0447 l 3.72563,-13.769442 h 16.68297 l 3.55077,13.694002 a 6.5106074,7 0 0 0 6.27144,5.12017 h 19.61987 a 6.5106074,7 0 0 0 6.24684,-8.97226 l -23.54381,-86.203002 -0.016,-0.05771 A 26.075792,28.03587 0 0 0 585.09282,4.8451283 19.563631,21.0342 0 0 0 571.45807,-0.88028169 Z m 0.0326,62.59977969 0.27681,-1.35727 0.24977,1.35727 z"
       id="path11"
       inkscape:connector-curvature="0"
       style="fill:none;stroke-width:0.96441007;stroke:#05ffff;stroke-opacity:1" />
    <path
       d="M 537.2029,7.6020683 V 26.302118 H 520.02234 V 105.77766 H 500.7206 V 26.302118 H 483.32785 V 7.6021183 h 53.87505 m 0,-6.99999999 H 483.32785 A 6.5106074,7 0 0 0 476.81724,7.6021183 V 26.302118 a 6.5106074,7 0 0 0 6.51061,7 H 494.21 v 72.475542 a 6.5106074,7 0 0 0 6.5106,7 h 19.30169 a 6.5106074,7 0 0 0 6.5106,-7 V 33.302118 h 10.66996 a 6.5106074,7 0 0 0 6.51061,-7 V 7.6021183 a 6.5106074,7 0 0 0 -6.51061,-6.99999999 z"
       id="path15"
       inkscape:connector-curvature="0"
       style="fill:none;stroke-width:0.96441007;stroke:#05ffff;stroke-opacity:1" />
    <path
       d="m 645.2711,7.9441183 a 26.641164,28.64374 0 0 1 18.98359,8.4378497 c 5.40867,5.70124 8.16606,12.20069 8.16606,19.61231 a 21.63926,23.26585 0 0 1 -4.66633,15.05133 35.682723,38.36494 0 0 1 -12.8324,10.26227 L 678.5719,105.77766 H 656.30066 L 637.52925,67.123118 a 44.378811,47.7147 0 0 1 -2.12109,-5.1311 10.616289,11.4143 0 0 1 -0.84845,-3.53479 c 0,-4.333 3.07558,-7.86774 9.43876,-10.60431 6.25714,-2.73663 9.43875,-6.27142 9.43875,-10.37628 a 11.349394,12.20251 0 0 0 -2.65134,-7.5257 c -1.8029,-2.39453 -3.71189,-3.64879 -5.83292,-3.64879 H 633.9234 V 105.77766 H 615.25803 V 20.942948 c 0,-2.96459 1.27263,-5.92926 3.81793,-8.77991 2.54531,-2.8506497 5.09056,-4.2189197 7.63577,-4.2189197 h 18.55933 m 0,-6.99999999 h -18.55933 c -4.40852,0 -8.55778,2.14358999 -12.3325,6.37119999 -4.65475,5.2132097 -5.63185,10.2882097 -5.63185,13.6276297 v 84.834712 a 6.5106074,7 0 0 0 6.51062,7 h 18.66537 a 6.5106074,7 0 0 0 6.5106,-7 V 88.228868 l 10.09534,20.788602 a 6.5106074,7 0 0 0 5.77132,3.76019 h 22.27116 a 6.5106074,7 0 0 0 5.65188,-10.47467 l -20.3786,-38.318722 a 37.943634,40.7958 0 0 0 8.97951,-8.54737 28.055575,30.16447 0 0 0 6.10675,-19.44262 c 0,-9.253 -3.40446,-17.53334 -10.1188,-24.61081 l -0.0472,-0.04923 A 32.983667,35.463 0 0 0 645.2711,0.94411831 Z M 640.43397,33.302118 h 4.31153 a 4.7899468,5.15 0 0 1 0.93364,0.99208 4.6910694,5.04369 0 0 1 1.24744,3.18241 c 0,0.23913 -0.99236,1.97265 -5.38135,3.89221 q -0.57055,0.24535 -1.11126,0.49908 v -8.56575 z"
       id="path17"
       inkscape:connector-curvature="0"
       style="fill:none;stroke-width:0.96441007;stroke:#05ffff;stroke-opacity:1" />
    <path
       d="m 739.66254,90.012915 v 14.253175 a 2.1245508,2.19618 0 0 1 -1.10306,1.71033 3.8859841,4.017 0 0 1 -2.31644,0.79822 c -1.21336,0 -2.75761,-0.91223 -4.74315,-2.73664 -1.8752,-1.82441 -3.86069,-3.64881 -5.73594,-5.587225 -1.87519,-1.8244 -3.41944,-2.85064 -4.52252,-2.85064 a 2.2985736,2.37607 0 0 0 -1.6546,0.79822 2.2721833,2.34879 0 0 0 -0.77219,1.93841 2.6582472,2.74787 0 0 0 0.77219,2.052425 2.745989,2.83857 0 0 0 2.09578,0.79816 v 5.47321 a 7.7606884,8.02234 0 0 1 -5.73594,-2.50854 8.2040021,8.4806 0 0 1 -2.42672,-5.929265 7.3577824,7.60585 0 0 1 2.42672,-5.81531 7.6590356,7.91726 0 0 1 5.62565,-2.39453 9.6120691,9.93614 0 0 1 6.61835,3.30676 c 2.20614,2.16644 4.30196,4.21893 6.28747,6.27136 l 0.11028,-9.57812 h 5.07412 m 0,-7 h -5.07409 a 6.7577137,6.98555 0 0 0 -5.14165,2.44452 14.987168,15.49246 0 0 0 -7.87447,-2.44452 14.427004,14.91341 0 0 0 -10.33131,4.36 14.1222,14.59833 0 0 0 -4.49277,10.84984 15.025312,15.53189 0 0 0 4.24795,10.705505 q 0.0796,0.0882 0.1622,0.17353 a 14.428019,14.91446 0 0 0 10.52418,4.55877 6.771141,6.99943 0 0 0 6.00973,-3.77087 c 2.20537,1.92416 5.07947,3.885 8.55071,3.885 a 10.713262,11.07446 0 0 0 6.2524,-2.10211 8.6776917,8.97026 0 0 0 3.9388,-7.40644 V 90.012915 a 6.7716924,7 0 0 0 -6.7717,-7 z"
       id="path21"
       inkscape:connector-curvature="0"
       style="fill:none;stroke-width:0.98355711;stroke:#05ffff;stroke-opacity:1" />
    <path
       d="M 705.19119,7.9441083 V 106.11972 H 685.78346 V 7.9441083 h 19.40773 m 0,-6.99999999 H 685.78346 A 6.5106074,7 0 0 0 679.27285,7.9441083 V 106.11972 a 6.5106074,7 0 0 0 6.51061,7 h 19.40773 a 6.5106074,7 0 0 0 6.51061,-7 V 7.9441083 a 6.5106074,7 0 0 0 -6.51061,-6.99999999 z"
       id="path13"
       inkscape:connector-curvature="0"
       style="fill:none;stroke-width:0.96441007;stroke:#05ffff;stroke-opacity:1" />
    <path
       d="m 739.66254,90.126965 v 14.139115 a 2.1246765,2.19631 0 0 1 -1.10306,1.71038 3.8859841,4.017 0 0 1 -2.31643,0.79817 c -1.21338,0 -2.75765,-0.9122 -4.74315,-2.7366 -1.87522,-1.82441 -3.86072,-3.64881 -5.73594,-5.587235 -1.87521,-1.8244 -3.41949,-2.85063 -4.52252,-2.85063 a 2.2985059,2.376 0 0 0 -1.65459,0.79817 2.2723865,2.349 0 0 0 -0.77216,1.93843 2.6582666,2.74789 0 0 0 0.77216,2.052445 2.7460374,2.83862 0 0 0 2.0958,0.79817 v 5.47322 a 7.76064,8.02229 0 0 1 -5.73593,-2.50855 8.2039731,8.48057 0 0 1 -2.42674,-5.929305 7.3575889,7.60565 0 0 1 2.42674,-5.81528 7.6590453,7.91727 0 0 1 5.62562,-2.39452 9.6122142,9.93629 0 0 1 6.61837,3.30673 c 2.20613,2.16648 4.30196,4.21892 6.28746,6.27138 l 0.11029,-9.57811 h 5.07408 z m -8.60387,-21.77879 a 8.3589384,8.64076 0 0 1 6.39774,2.85063 9.2380589,9.54952 0 0 1 2.53703,6.8415 7.4183503,7.66846 0 0 1 -2.86797,6.15736 10.115128,10.45616 0 0 1 -6.50805,2.50855 c -0.99275,0 -2.75766,-0.57013 -5.40499,-1.8244 -2.64734,-1.25427 -5.29468,-2.50855 -7.83174,-3.87686 -2.53707,-1.36831 -3.86072,-2.05245 -3.86072,-2.05245 v -6.27138 l 9.48634,4.675 a 8.8521691,9.15062 0 0 1 2.31643,-6.49943 7.6481429,7.906 0 0 1 5.73593,-2.50855 z m 0.22062,5.58723 a 3.4943384,3.61215 0 0 0 -2.53702,1.02623 3.5426302,3.66207 0 0 0 -1.10306,2.50855 3.1281543,3.23362 0 0 0 1.10306,2.50856 3.6189859,3.741 0 0 0 2.42674,1.02622 3.0834998,3.18746 0 0 0 3.41947,-3.53478 3.3229662,3.435 0 0 0 -0.99274,-2.62257 3.5598207,3.67984 0 0 0 -2.31645,-0.9122 z m 8.49353,-21.89281 a 14.318608,14.80136 0 0 1 -3.5298,9.92018 11.445892,11.83179 0 0 1 -9.2657,4.21893 13.560798,14.018 0 0 1 -13.56766,-13.79703 12.699061,13.12721 0 0 1 3.97103,-9.57811 12.638929,13.06505 0 0 1 9.15541,-4.10489 13.673924,14.13494 0 0 1 9.26571,3.76282 11.699347,12.09379 0 0 1 3.97102,9.57811 z m -13.23672,-7.75371 a 7.9298259,8.19718 0 0 0 -7.61111,7.86773 7.4278694,7.6783 0 0 0 2.42674,5.9293 8.0263903,8.297 0 0 0 5.62562,2.39453 6.9720281,7.20709 0 0 0 5.51531,-2.50855 8.1909617,8.46712 0 0 0 2.09581,-5.92931 7.6836846,7.94274 0 0 0 -2.20613,-5.58723 8.6007459,8.89072 0 0 0 -5.84624,-2.16648 z m 13.23672,-22.12086 a 14.318608,14.80136 0 0 1 -3.5298,9.92018 11.445921,11.83182 0 0 1 -9.2657,4.21893 12.900074,13.335 0 0 1 -9.59665,-4.10491 12.941749,13.37808 0 0 1 -3.97103,-9.69213 12.6991,13.12725 0 0 1 3.97103,-9.57811 12.638929,13.06505 0 0 1 9.15539,-4.1048996 13.673982,14.135 0 0 1 9.26571,3.7628296 11.699327,12.09377 0 0 1 3.97103,9.5781 z m -13.23672,-7.75371 a 7.2881597,7.53388 0 0 0 -5.29468,2.39453 7.2881984,7.53392 0 0 0 -2.31643,5.4732 7.4278597,7.67829 0 0 0 2.42674,5.9293 8.0263903,8.297 0 0 0 5.62562,2.39453 6.9719991,7.20706 0 0 0 5.51531,-2.50855 8.1909327,8.46709 0 0 0 2.09581,-5.92931 7.6837136,7.94277 0 0 0 -2.20613,-5.58723 8.6007362,8.89071 0 0 0 -5.8462,-2.16647 z"
       id="path29"
       inkscape:connector-curvature="0"
       style="fill:#ffffff;stroke-width:0.98355711;fill-opacity:1;stroke:#05ffff;stroke-opacity:1" />
    <path
       d="M 486.72152,105.7776 H 467.10164 L 462.2232,86.963458 H 435.70989 L 430.61934,105.7776 H 410.8934 l 24.49829,-87.343212 a 17.990734,19.34307 0 0 1 4.87846,-8.6659097 11.213126,12.056 0 0 1 8.16612,-3.64881 13.158365,14.14746 0 0 1 9.22663,3.87685 19.507379,20.97372 0 0 1 5.51478,9.5781097 z m -29.80092,-37.058152 -7.848,-42.64538 -8.69638,42.64538 z m 80.2823,-42.41733 H 520.02219 V 105.7776 H 500.72051 V 26.302118 H 483.32778 V 7.6020083 h 53.87505 V 26.302118 Z m 72.54041,79.475482 h -19.61993 l -4.87846,-18.814142 h -26.51329 l -5.09056,18.814142 h -19.72591 l 24.49831,-87.343212 a 17.990482,19.3428 0 0 1 4.87846,-8.6659097 11.213061,12.05593 0 0 1 8.16607,-3.64881 13.158291,14.14738 0 0 1 9.22663,3.87685 19.507361,20.9737 0 0 1 5.51476,9.5781097 z m -29.80106,-37.058152 -7.84792,-42.64538 -8.69636,42.64538 z m 98.6295,37.058152 H 656.30058 L 637.52917,67.123088 a 44.376524,47.71224 0 0 1 -2.12106,-5.13113 10.615481,11.41343 0 0 1 -0.84844,-3.53477 c 0,-4.33295 3.07554,-7.86773 9.43873,-10.60433 6.25713,-2.73661 9.43874,-6.27138 9.43874,-10.37629 a 11.349346,12.20246 0 0 0 -2.65133,-7.52565 c -1.80291,-2.39453 -3.71187,-3.64881 -5.83293,-3.64881 H 633.92335 V 105.7776 H 615.25798 V 20.942938 c 0,-2.96465 1.27263,-5.9293 3.81791,-8.77993 2.54529,-2.8506297 5.09056,-4.2189297 7.63584,-4.2189297 h 18.55933 a 26.640941,28.6435 0 0 1 18.98356,8.4378597 c 5.40871,5.70125 8.16609,12.20068 8.16609,19.61231 a 21.639139,23.26572 0 0 1 -4.66634,15.05131 35.682779,38.365 0 0 1 -12.83245,10.26226 z m 26.61937,0.34207 H 685.7834 V 7.9440783 h 19.40772 z"
       id="path27"
       inkscape:connector-curvature="0"
       style="fill:#ffffff;stroke-width:0.96441007;fill-opacity:1;stroke:#05ffff;stroke-opacity:1" />
    <path
       id="path120"
       d="m 275.97925,111.1205 a 3.5356018,3.6067432 0 0 1 -3.53532,-3.60948 q 0.006,-7.700946 0,-15.394851 a 3.5349554,3.6060837 0 0 1 3.00957,-3.569225 40.704805,41.523843 0 0 0 12.80418,-4.477949 46.431193,47.365455 0 0 0 12.76127,-10.183402 53.54476,54.622157 0 0 0 9.1076,-14.507319 c 2.34915,-5.258748 3.99943,-11.438222 5.20631,-19.475763 a 201.99919,206.0637 0 0 0 2.0251,-26.343523 c 0.0202,-1.873162 0.0173,-3.7911053 0.0147,-5.7095332 q -0.003,-1.6648526 -4.8e-4,-3.329726 a 3.5350059,3.6061353 0 0 1 3.52446,-3.59689238 l 7.66595,-0.004015 a 3.5351878,3.6063207 0 0 1 3.53532,3.60041638 q 0.009,5.4006249 0.004,10.8047732 v 7.558563 c 0.0227,4.521649 -0.0809,9.443296 -0.32601,15.472834 a 187.87183,191.65208 0 0 1 -2.03596,22.483999 58.11327,59.282593 0 0 1 -4.92172,15.400875 c -3.32917,7.157566 -8.6647,13.938793 -15.86652,20.174621 a 59.145807,60.335905 0 0 1 -19.91823,11.516697 67.879913,69.245754 0 0 1 -12.55808,3.15363 3.6585502,3.7321654 0 0 1 -0.49618,0.0353 z"
       style="fill:none;stroke:#05ffff;stroke-width:1.02020276;stroke-opacity:1"
       inkscape:connector-curvature="0" />
    <path
       id="path122"
       d="m 327.99469,7.6792843 c 0.01,5.9373197 0,11.8804997 0.004,17.8178897 0.0252,4.95873 -0.11432,9.91362 -0.3197,14.86852 a 181.32569,181.32569 0 0 1 -1.97071,21.3872 54.52953,54.52953 0 0 1 -4.59063,14.041085 c -3.41242,7.1911 -8.77423,13.27765 -14.80262,18.39337 a 55.40518,55.40518 0 0 1 -18.59686,10.537631 63.43826,63.43826 0 0 1 -11.78161,2.90277 q 0.006,-7.47592 0,-14.946001 a 43.83235,43.83235 0 0 0 13.78527,-4.70881 49.71,49.71 0 0 0 13.60126,-10.63452 56.60182,56.60182 0 0 0 9.61719,-15.002255 74.77518,74.77518 0 0 0 5.41608,-19.79437 205.78723,205.78723 0 0 0 2.0444,-26.01459 c 0.0329,-2.94545 0.008,-5.89475 0.0154,-8.8439997 q 1.40067,-0.0043 2.80112,-0.0036 1.52321,0 3.04733,8.9e-4 0.86467,0 1.73022,-0.0012 m 2.5e-4,-7.00000003 h -0.011 l -1.71948,0.0012 -1.52117,-4.9e-4 -1.52618,-4.1e-4 q -1.41176,0 -2.82273,0.0037 a 7,7 0 0 0 -6.97847,6.98176003 q -0.004,1.61187 2.4e-4,3.2236397 c 0.003,1.8163 0.005,3.694 -0.0148,5.51833 a 196.42789,196.42789 0 0 1 -1.96652,25.08772 c -1.14233,7.46006 -2.68866,13.1641 -4.86453,17.93857 l -0.026,0.05783 a 49.49806,49.49806 0 0 1 -8.41266,13.15137 42.48957,42.48957 0 0 1 -11.68131,9.141875 36.82264,36.82264 0 0 1 -11.55572,3.97534 7,7 0 0 0 -5.95831,6.92746 q 0.006,7.464661 0,14.935241 a 6.99968,6.99968 0 0 0 7.98114,6.93631 70.67666,70.67666 0 0 0 13.08425,-3.21674 62.10237,62.10237 0 0 0 20.88978,-11.857651 c 7.48612,-6.36234 13.05457,-13.32331 16.55,-20.68936 a 61.039,61.039 0 0 0 5.171,-15.889375 188.96094,188.96094 0 0 0 2.05841,-22.20822 c 0.24668,-5.94812 0.35013,-10.77612 0.32746,-15.23575 -0.002,-2.4084 -8e-4,-4.84881 -9e-5,-7.28941 q 0.002,-5.25282 -0.004,-10.5043197 a 7.0002,7.0002 0 0 0 -6.99978,-6.98857003 z"
       style="fill:none"
       inkscape:connector-curvature="0" />
    <path
       id="path126"
       d="m 331.07569,107.60806 6e-5,0.0371 q 3.1794,-0.0279 6.35925,-0.0226 2.42693,0 4.85376,0.002 1.35288,0 2.706,-0.003 v 0.002 q -1.26063,0.003 -2.521,0.003 -2.58083,0 -5.1611,-0.003 c -2.079,0 -4.15811,0.004 -6.23694,0.0234 l -6e-5,-0.0391 m 13.91906,-6.98615 h -0.0175 q -1.34391,0.003 -2.68845,0.003 l -2.42172,-10e-4 -2.432,-0.001 q -2.95284,0 -5.90491,0.0186 -0.22512,-0.0145 -0.45391,-0.0146 l -0.0336,6e-5 a 6.984,6.984 0 0 0 -6.96689,6.998 v 0 l 1.2e-4,0.0548 a 7,7 0 0 0 6.99982,6.96771 l 0.0644,-3.1e-4 c 2.05743,-0.0189 4.11508,-0.0231 6.1727,-0.0231 l 2.57428,0.001 2.58682,0.001 q 1.26924,0 2.53848,-0.003 a 7.001,7.001 0 0 0 -0.0175,-14.00192 z"
       style="fill:none"
       inkscape:connector-curvature="0" />
    <path
       id="path130"
       d="m 331.04279,7.6928243 q 0.0261,33.9425397 0.008,67.8838247 -0.008,-33.937295 -0.008,-67.8838247 m 0.008,67.8838247 6e-5,0.198 v 6.1e-4 l -6e-5,-0.19858 m -0.008,-74.88385473 h -0.005 a 7,7 0 0 0 -6.9949,7.00479003 q 0.014,20.4379397 0.007,40.8759997 -0.001,13.5033 7e-4,27.004845 v 0.001 0.0979 0.10065 a 7,7 0 0 0 6.99994,6.99722 h 0.003 a 7,7 0 0 0 6.99722,-7.00271 v -0.098 -0.10064 q -0.003,-13.258705 -2.1e-4,-26.518305 0.002,-20.68374 -0.007,-41.3681697 a 7.00024,7.00024 0 0 0 -7.00063,-6.99461003 z"
       style="fill:none"
       inkscape:connector-curvature="0" />
    <path
       id="path170"
       d="m 336.60999,7.6769843 q 1.40112,0 2.80261,0.002 1.97411,0.0023 3.94834,0.0036 0.81673,0 1.63381,-0.0013 0.003,49.9702797 0,99.9406557 -1.35525,0.003 -2.71008,0.003 -2.42336,0 -4.84744,-0.002 -3.181,0 -6.36148,0.0226 l -6e-5,-0.0371 c -0.0578,-10.609871 -0.008,-21.225531 -0.0251,-31.831491 v -0.002 q -0.009,-34.036995 -0.008,-68.0817847 2.78316,-0.01856 5.5672,-0.01585 m 0,-7.00000003 q -2.8075,0 -5.61389,0.016 a 7,7 0 0 0 -6.95331,7.00465003 q 0.014,20.4314097 0.007,40.8619997 -0.001,13.6091 7.6e-4,27.216795 0.0101,6.13549 1.5e-4,12.251 c -0.005,6.427 -0.0106,13.072841 0.0251,19.618711 a 7.032,7.032 0 0 0 7.0014,6.999 l 0.0599,-2.8e-4 c 2.09973,-0.0184 4.2,-0.0223 6.30011,-0.0223 l 2.41876,0.001 2.42865,10e-4 q 1.36428,0 2.72769,-0.003 a 7,7 0 0 0 6.98242,-6.99957 q 0.003,-49.964816 0,-99.9414657 a 7,7 0 0 0 -7,-6.99960003 h -0.0116 l -1.62195,0.0012 -3.07188,-0.0025 -0.86849,-0.001 -2.81062,-0.002 z"
       style="fill:none;stroke:#05ffff;stroke-opacity:1"
       inkscape:connector-curvature="0" />
    <path
       id="path150"
       d="m 352.42273,7.6777343 q 1.60561,0 3.21045,0.0055 a 239.56089,239.56089 0 0 0 1.47461,30.4249997 239.21222,239.21222 0 0 1 -1.47467,-30.4249997 q -1.71035,-0.0053 -3.42062,-0.0046 -2.05665,0 -4.11344,0.0027 2.16294,-0.0016 4.32367,-0.0035"
       style="fill:#ffffff"
       inkscape:connector-curvature="0" />
    <path
       id="path158"
       d="m 339.41261,7.6789243 q 1.72824,0.0015 3.45615,0.0024 1.06282,0 2.126,-0.002 v 0.002 q -0.82077,0.0014 -1.64114,0.0013 -1.97058,0 -3.941,-0.0036 m -1.2e-4,-7.00000003 a 7.0000011,7.0000011 0 0 0 -0.008,13.99999973 l 0.8414,10e-4 3.10763,0.0026 1.65277,-0.0013 A 7.0010074,7.0010074 0 0 0 344.9948,0.67931427 h -0.0147 l -2.11126,0.002 -2.65436,-0.0016 -0.79578,-7.3e-4 z"
       style="fill:none"
       inkscape:connector-curvature="0" />
    <path
       id="path162"
       d="m 331.05054,75.775229 v 0.0119 -0.0106 -10e-4 m 0,0.0119 c 0.0174,10.60273 -0.0326,21.21427 0.0251,31.820901 -0.0597,-10.606421 -0.01,-21.218331 -0.0251,-31.820901 m 0,-7.005995 a 6.99494,6.99494 0 0 0 -7,6.993995 v 10e-4 0.0146 0.006 q 0.009,5.93385 -0.001,11.87085 c -0.006,6.545 -0.0113,13.312921 0.0262,19.979301 a 7,7 0 0 0 6.99908,6.96058 l 0.0396,-1e-4 a 7,7 0 0 0 6.96116,-7.038 c -0.0354,-6.50235 -0.0301,-13.125891 -0.0249,-19.531311 q 0.005,-6.13266 -1.2e-4,-12.263 c -1.8e-4,-0.0963 -0.002,-0.19183 -0.006,-0.28714 a 7.00514,7.00514 0 0 0 -6.99395,-6.707285 z"
       style="fill:none"
       inkscape:connector-curvature="0" />
    <path
       id="path166"
       d="m 336.60999,7.6769843 q 1.40112,0 2.80261,0.002 1.97411,0.0023 3.94834,0.0036 0.81673,0 1.63381,-0.0013 0.003,49.9702797 0,99.9406557 -1.35525,0.003 -2.71008,0.003 -2.42336,0 -4.84744,-0.002 -3.181,0 -6.36148,0.0226 l -6e-5,-0.0371 c -0.0578,-10.609871 -0.008,-21.225531 -0.0251,-31.831491 v -0.002 q -0.009,-34.036995 -0.008,-68.0817847 2.78316,-0.01856 5.5672,-0.01585 m 0,-7.00000003 q -2.8075,0 -5.61389,0.016 a 7,7 0 0 0 -6.95331,7.00465003 q 0.014,20.4314097 0.007,40.8619997 -0.001,13.6091 7.6e-4,27.216795 0.0101,6.13549 1.5e-4,12.251 c -0.005,6.427 -0.0106,13.072841 0.0251,19.618711 a 7.032,7.032 0 0 0 7.0014,6.999 l 0.0599,-2.8e-4 c 2.09973,-0.0184 4.2,-0.0223 6.30011,-0.0223 l 2.41876,0.001 2.42865,10e-4 q 1.36428,0 2.72769,-0.003 a 7,7 0 0 0 6.98242,-6.99957 q 0.003,-49.964816 0,-99.9414657 a 7,7 0 0 0 -7,-6.99960003 h -0.0116 l -1.62195,0.0012 -3.07188,-0.0025 -0.86849,-0.001 -2.81062,-0.002 z"
       style="fill:none;stroke:#05ffff;stroke-opacity:1"
       inkscape:connector-curvature="0" />
    <path
       id="path194"
       d="m 352.20975,7.6785543 q 1.71153,0 3.42337,0.0046 a 239.21222,239.21222 0 0 0 1.47467,30.4249997 q 0.186,1.4697 0.39362,2.94086 c 0.2785,1.96075 0.59265,3.92016 0.963,5.86791 a 79.20257,79.20257 0 0 0 2.11585,8.65162 57.314,57.314 0 0 0 2.03857,5.57782 c 0.0284,0.06793 0.0614,0.134 0.0901,0.2019 a 55.73676,55.73676 0 0 0 12.69531,18.726255 q 0.99555,0.9494 2.04266,1.84289 a 48.73452,48.73452 0 0 0 16.68982,9.35163 37.434,37.434 0 0 0 5.97418,1.40875 q -0.003,7.470151 0,14.938291 a 63.09378,63.09378 0 0 1 -11.62384,-2.84015 c -0.0228,-0.008 -0.0459,-0.0142 -0.0687,-0.0219 -0.0162,-0.006 -0.032,-0.0125 -0.0482,-0.0182 a 59.74622,59.74622 0 0 1 -12.67425,-6.091181 c -0.0676,-0.0435 -0.139,-0.0806 -0.20636,-0.12445 a 60.96485,60.96485 0 0 1 -8.16967,-6.50122 63.28263,63.28263 0 0 1 -5.94627,-6.25612 c -0.78955,-0.959 -1.53949,-1.94928 -2.25952,-2.96087 a 47.55134,47.55134 0 0 1 -2.64765,-4.13233 58.71055,58.71055 0 0 1 -5.11572,-12.432795 c -0.0663,-0.24652 -0.12378,-0.495 -0.18561,-0.74255 -0.18536,-0.74256 -0.35772,-1.488 -0.51031,-2.2378 q -0.0602,-0.296 -0.11762,-0.59246 c -0.28338,-1.47162 -0.51251,-2.95423 -0.70752,-4.44172 q -0.17129,-1.30682 -0.31481,-2.61663 -0.14566,-1.30911 -0.27631,-2.61743 c -0.58612,-6.44874 -0.90839,-12.91956 -1.05029,-19.3926 -0.0696,-3.1779 -0.10956,-6.35638 -0.0891,-9.53447 q -9e-5,-8.18808 -6e-5,-16.3799997 2.05555,-0.0016 4.11069,-0.0027 m 0,-7.00000003 -3.103,0.0019 -1.01325,8.5e-4 a 7,7 0 0 0 -6.99445,6.99759003 q -0.002,5.5219397 -3.9e-4,11.0397697 l 4.5e-4,5.34272 c -0.0186,2.86631 0.011,6.04995 0.0908,9.68776 0.15592,7.11162 0.50834,13.61208 1.07737,19.87282 l 0.007,0.07388 q 0.13619,1.34074 0.28335,2.68387 0.15312,1.37682 0.33127,2.75232 c 0.23053,1.75852 0.48386,3.34674 0.77445,4.85578 q 0.064,0.332 0.13147,0.66244 c 0.16464,0.809 0.35376,1.63892 0.57867,2.53973 l 0.0506,0.20624 c 0.0537,0.22028 0.108,0.4404 0.16693,0.65946 q 0.0221,0.08231 0.0463,0.16409 a 65.24959,65.24959 0 0 0 5.74341,13.908995 54.05735,54.05735 0 0 0 3.03046,4.7326 c 0.861,1.20972 1.69787,2.30585 2.55823,3.35083 a 70.54343,70.54343 0 0 0 6.60254,6.95062 68.36726,68.36726 0 0 0 9.13479,7.247351 c 0.079,0.0516 0.18479,0.11645 0.29627,0.18228 a 66.9193,66.9193 0 0 0 13.97577,6.72287 q 0.0751,0.0278 0.1506,0.054 c 0.0484,0.0167 0.11264,0.038 0.17163,0.0569 a 69.4647,69.4647 0 0 0 12.85867,3.12506 7,7 0 0 0 7.95114,-6.94061 q -0.006,-7.46591 0,-14.930001 a 7,7 0 0 0 -5.9934,-6.93 30.21023,30.21023 0 0 1 -4.85489,-1.15088 41.9553,41.9553 0 0 1 -14.27191,-8.00708 c -0.59726,-0.50964 -1.18787,-1.04248 -1.75553,-1.58383 A 49.04592,49.04592 0 0 1 369.15625,58.622184 c -0.038,-0.08993 -0.0773,-0.17825 -0.11743,-0.266 a 50.65564,50.65564 0 0 1 -1.77209,-4.859 71.8572,71.8572 0 0 1 -1.92557,-7.88778 c -0.32388,-1.70349 -0.62134,-3.51722 -0.9093,-5.54462 q -0.20156,-1.41821 -0.37949,-2.83557 a 232.05511,232.05511 0 0 1 -1.41949,-29.4898397 7,7 0 0 0 -6.9783,-7.05600003 q -1.72221,-0.0053 -3.44483,-0.0047 z"
       style="fill:none"
       inkscape:connector-curvature="0" />
    <path
       id="path250"
       d="m 348.09909,7.6812443 q -0.003,8.1909997 0,16.3799997 c -0.062,9.64818 0.26548,19.31186 1.13941,28.9271 a 83.10257,83.10257 0 0 0 2.11218,13.24856 58.61034,58.61034 0 0 0 5.11572,12.432755 55.79112,55.79112 0 0 0 10.85347,13.34932 60.47754,60.47754 0 0 0 8.16966,6.50123 59.61445,59.61445 0 0 0 12.92883,6.233821 63.19476,63.19476 0 0 0 11.69252,2.86209 q -0.006,-7.47012 0,-14.938301 a 37.43031,37.43031 0 0 1 -5.97416,-1.40877 48.93321,48.93321 0 0 1 -18.73246,-11.19452 55.80893,55.80893 0 0 1 -12.78543,-18.928175 c -3.12176,-7.30154 -4.51889,-15.19991 -5.511,-23.0382 A 239.20964,239.20964 0 0 1 355.63318,7.6831543 c -2.51134,-0.0078 -5.02269,-0.0039 -7.53405,-0.0019"
       style="fill:#ffffff;fill-opacity:1;stroke:#05ffff;stroke-opacity:1"
       inkscape:connector-curvature="0" />
    <path
       id="path198"
       d="m 352.20975,7.6785543 q 1.71153,0 3.42337,0.0046 a 239.21222,239.21222 0 0 0 1.47467,30.4249997 q 0.186,1.4697 0.39362,2.94086 c 0.2785,1.96075 0.59265,3.92016 0.963,5.86791 a 79.20257,79.20257 0 0 0 2.11585,8.65162 57.314,57.314 0 0 0 2.03857,5.57782 c 0.0284,0.06793 0.0614,0.134 0.0901,0.2019 a 55.73676,55.73676 0 0 0 12.69531,18.726255 q 0.99555,0.9494 2.04266,1.84289 a 48.73452,48.73452 0 0 0 16.68982,9.35163 37.434,37.434 0 0 0 5.97418,1.40875 q -0.003,7.470151 0,14.938291 a 63.09378,63.09378 0 0 1 -11.62384,-2.84015 c -0.0228,-0.008 -0.0459,-0.0142 -0.0687,-0.0219 -0.0162,-0.006 -0.032,-0.0125 -0.0482,-0.0182 a 59.74622,59.74622 0 0 1 -12.67425,-6.091181 c -0.0676,-0.0435 -0.139,-0.0806 -0.20636,-0.12445 a 60.96485,60.96485 0 0 1 -8.16967,-6.50122 63.28263,63.28263 0 0 1 -5.94627,-6.25612 c -0.78955,-0.959 -1.53949,-1.94928 -2.25952,-2.96087 a 47.55134,47.55134 0 0 1 -2.64765,-4.13233 58.71055,58.71055 0 0 1 -5.11572,-12.432795 c -0.0663,-0.24652 -0.12378,-0.495 -0.18561,-0.74255 -0.18536,-0.74256 -0.35772,-1.488 -0.51031,-2.2378 q -0.0602,-0.296 -0.11762,-0.59246 c -0.28338,-1.47162 -0.51251,-2.95423 -0.70752,-4.44172 q -0.17129,-1.30682 -0.31481,-2.61663 -0.14566,-1.30911 -0.27631,-2.61743 c -0.58612,-6.44874 -0.90839,-12.91956 -1.05029,-19.3926 -0.0696,-3.1779 -0.10956,-6.35638 -0.0891,-9.53447 q -9e-5,-8.18808 -6e-5,-16.3799997 2.05555,-0.0016 4.11069,-0.0027 m 0,-7.00000003 -3.103,0.0019 -1.01325,8.5e-4 a 7,7 0 0 0 -6.99445,6.99759003 q -0.002,5.5219397 -3.9e-4,11.0397697 l 4.5e-4,5.34272 c -0.0186,2.86631 0.011,6.04995 0.0908,9.68776 0.15592,7.11162 0.50834,13.61208 1.07737,19.87282 l 0.007,0.07388 q 0.13619,1.34074 0.28335,2.68387 0.15312,1.37682 0.33127,2.75232 c 0.23053,1.75852 0.48386,3.34674 0.77445,4.85578 q 0.064,0.332 0.13147,0.66244 c 0.16464,0.809 0.35376,1.63892 0.57867,2.53973 l 0.0506,0.20624 c 0.0537,0.22028 0.108,0.4404 0.16693,0.65946 q 0.0221,0.08231 0.0463,0.16409 a 65.24959,65.24959 0 0 0 5.74341,13.908995 54.05735,54.05735 0 0 0 3.03046,4.7326 c 0.861,1.20972 1.69787,2.30585 2.55823,3.35083 a 70.54343,70.54343 0 0 0 6.60254,6.95062 68.36726,68.36726 0 0 0 9.13479,7.247351 c 0.079,0.0516 0.18479,0.11645 0.29627,0.18228 a 66.9193,66.9193 0 0 0 13.97577,6.72287 q 0.0751,0.0278 0.1506,0.054 c 0.0484,0.0167 0.11264,0.038 0.17163,0.0569 a 69.4647,69.4647 0 0 0 12.85867,3.12506 7,7 0 0 0 7.95114,-6.94061 q -0.006,-7.46591 0,-14.930001 a 7,7 0 0 0 -5.9934,-6.93 30.21023,30.21023 0 0 1 -4.85489,-1.15088 41.9553,41.9553 0 0 1 -14.27191,-8.00708 c -0.59726,-0.50964 -1.18787,-1.04248 -1.75553,-1.58383 A 49.04592,49.04592 0 0 1 369.15625,58.622184 c -0.038,-0.08993 -0.0773,-0.17825 -0.11743,-0.266 a 50.65564,50.65564 0 0 1 -1.77209,-4.859 71.8572,71.8572 0 0 1 -1.92557,-7.88778 c -0.32388,-1.70349 -0.62134,-3.51722 -0.9093,-5.54462 q -0.20156,-1.41821 -0.37949,-2.83557 a 232.05511,232.05511 0 0 1 -1.41949,-29.4898397 7,7 0 0 0 -6.9783,-7.05600003 q -1.72221,-0.0053 -3.44483,-0.0047 z"
       style="fill:none;stroke:#05ffff;stroke-opacity:1"
       inkscape:connector-curvature="0" />
    <path
       id="path242"
       d="m 320.41605,7.6831843 c 2.52492,-0.0077 5.04984,0 7.57863,-0.0039 0.01,5.9373397 0,11.8804897 0.004,17.8178297 0.0252,4.95877 -0.11433,9.91365 -0.31974,14.86854 a 181.32138,181.32138 0 0 1 -1.97083,21.38722 54.52849,54.52849 0 0 1 -4.59059,14.041075 c -3.41242,7.19107 -8.77424,13.27763 -14.80265,18.39335 a 55.40456,55.40456 0 0 1 -18.59682,10.537651 63.432,63.432 0 0 1 -11.78167,2.90279 q 0.006,-7.47592 0,-14.946001 a 43.833,43.833 0 0 0 13.78533,-4.70879 49.71041,49.71041 0 0 0 13.60124,-10.63451 56.60216,56.60216 0 0 0 9.61717,-15.002245 74.77528,74.77528 0 0 0 5.41608,-19.79436 205.78643,205.78643 0 0 0 2.04435,-26.01462 c 0.0329,-2.94547 0.008,-5.89476 0.0155,-8.8440597 z"
       style="fill:#ffffff;fill-opacity:1;stroke:#05ffff;stroke-opacity:1"
       inkscape:connector-curvature="0" />
    <path
       id="path248"
       d="m 331.04256,7.692534 q 0.0232,34.04281 0.008,68.081755 c 0.0155,10.619 -0.0349,21.2477 0.0252,31.870571 4.639,-0.0407 9.28,-0.0116 13.919,-0.0233 q 0.003,-49.962596 0,-99.942646 c -4.65066,0.0097 -9.30132,-0.0155 -13.952,0.01357"
       style="fill:#ffffff;fill-opacity:1;stroke:#05ffff;stroke-opacity:1"
       inkscape:connector-curvature="0" />
  </g>
</svg>
