<?xml version="1.0" encoding="UTF-8" standalone="no"?>
<svg
   xmlns:dc="http://purl.org/dc/elements/1.1/"
   xmlns:cc="http://creativecommons.org/ns#"
   xmlns:rdf="http://www.w3.org/1999/02/22-rdf-syntax-ns#"
   xmlns:svg="http://www.w3.org/2000/svg"
   xmlns="http://www.w3.org/2000/svg"
   xmlns:sodipodi="http://sodipodi.sourceforge.net/DTD/sodipodi-0.dtd"
   xmlns:inkscape="http://www.inkscape.org/namespaces/inkscape"
   viewBox="0 0 1000 114.00009"
   version="1.1"
   id="svg148"
   sodipodi:docname="logo.svg"
   inkscape:version="0.92.4 (5da689c313, 2019-01-14)">
  <metadata
     id="metadata154">
    <rdf:RDF>
      <cc:Work
         rdf:about="">
        <dc:format>image/svg+xml</dc:format>
        <dc:type
           rdf:resource="http://purl.org/dc/dcmitype/StillImage" />
        <dc:title>logo</dc:title>
      </cc:Work>
    </rdf:RDF>
  </metadata>
  <defs
     id="defs152" />
  <sodipodi:namedview
     pagecolor="#ffffff"
     bordercolor="#666666"
     borderopacity="1"
     objecttolerance="10"
     gridtolerance="10"
     guidetolerance="10"
     inkscape:pageopacity="0"
     inkscape:pageshadow="2"
     inkscape:window-width="1920"
     inkscape:window-height="1017"
     id="namedview150"
     showgrid="false"
     inkscape:pagecheckerboard="true"
     inkscape:zoom="2.272"
     inkscape:cx="488.19705"
     inkscape:cy="57.000046"
     inkscape:window-x="-8"
     inkscape:window-y="-8"
     inkscape:window-maximized="1"
     inkscape:current-layer="svg148" />
  <title
     id="title2">logo</title>
  <path
     style="opacity:1;vector-effect:none;fill:#fffffe;fill-opacity:1;stroke:none;stroke-width:0.41588113;stroke-linecap:butt;stroke-linejoin:miter;stroke-miterlimit:4;stroke-dasharray:none;stroke-dashoffset:0;stroke-opacity:1"
     d=""
     id="path1111"
     inkscape:connector-curvature="0" />
  <g
     id="g1144">
    <path
       d="m 409.17485,46.452314 a 47.60333,47.60333 0 0 1 9.5847,0.76956 50.622,50.622 0 0 1 7.04034,1.73334 35.62934,35.62934 0 0 1 7.05149,3.51532 13.91489,13.91489 0 0 1 5.82227,7.49041 11.75884,11.75884 0 0 1 -0.0584,6.14032 9.67565,9.67565 0 0 1 -1.89863,3.52784 6.907,6.907 0 0 1 -1.66368,1.3258 c -0.53674,0.32465 -1.09808,0.61511 -1.6419,0.91724 -1.29171,0.73614 -2.74586,1.10418 -4.07784,1.757 0.21808,0.24578 0.28474,0.718 0.6139,0.89026 0.0251,0.01135 0.0515,0.01947 0.0767,0.03063 a 43.12225,43.12225 0 0 1 4.77481,1.9444 21.65425,21.65425 0 0 1 6.07231,4.75006 11.58794,11.58794 0 0 1 2.39589,5.3667 10.59474,10.59474 0 0 1 0.14027,3.71118 12.08573,12.08573 0 0 1 -3.13479,6.47089 19.34835,19.34835 0 0 1 -1.91001,1.71075 32.26244,32.26244 0 0 1 -7.15952,4.085146 47.39262,47.39262 0 0 1 -9.92376,2.67779 71.87712,71.87712 0 0 1 -11.58634,0.81647 c -2.78501,0 -5.573,-0.0987 -8.3486,-0.20673 a 90.39229,90.39229 0 0 1 -13.38348,-1.98193 70.26529,70.26529 0 0 1 -10.09182,-3.54034 14.9584,14.9584 0 0 0 -3.56945,-1.276366 c -0.0666,-0.0029 -0.13282,-0.0042 -0.19918,-0.0042 -0.96382,0 -1.90873,0.28195 -2.87384,0.28195 h -0.0132 a 0.66452,0.66452 0 0 1 -0.50556,-0.88055 17.135,17.135 0 0 1 1.47224,-2.69037 c 1.34721,-2.17359 2.65282,-4.37226 4.00842,-6.54035 0.20587,-0.31732 0.39611,-0.64575 0.58555,-0.97485 a 12.81545,12.81545 0 0 1 1.19637,-1.8349 1.06987,1.06987 0 0 1 0.8163,-0.36307 0.88244,0.88244 0 0 1 0.81149,0.4589 c 0.59308,1.17224 0.88056,2.60284 2.032,3.39587 a 28.45119,28.45119 0 0 0 9.30565,4.56677 53.80112,53.80112 0 0 0 8.10701,1.76251 56.20057,56.20057 0 0 0 9.38948,0.76688 65.46245,65.46245 0 0 0 6.58434,-0.33914 38.212,38.212 0 0 0 7.81536,-1.90137 9.47552,9.47552 0 0 0 2.15193,-1.11981 11.33583,11.33583 0 0 0 3.14812,-3.30945 c 1.46252,-2.35974 0.25834,-5.62225 -1.94587,-7.06116 -3.01526,-2.48474 -6.95563,-3.36254 -10.7362,-3.85284 a 36.96567,36.96567 0 0 0 -6.77256,-0.48132 c -0.873,0 -1.74607,0.0098 -2.61643,0.01324 q -0.11385,-0.0014 -0.22761,-0.0014 a 18.06906,18.06906 0 0 0 -5.59331,0.87088 c -0.80694,0.27777 -1.36671,1.0708 -2.22223,1.225 -0.74445,-0.27081 -0.51806,-1.20276 -0.57227,-1.80975 0.0342,-2.53259 -0.0409,-5.07159 10e-4,-7.6051 0.0162,-0.96924 0.0466,-1.93781 0.11115,-2.90473 0.0448,-0.0028 0.0889,-0.0041 0.1328,-0.0041 1.19942,9e-5 2.06556,1.0116 3.23528,1.17639 a 23.56055,23.56055 0 0 0 5.52737,0.59543 69.48,69.48 0 0 0 7.78253,-0.601 c 2.35539,-0.473 4.88439,-0.74481 6.91552,-2.13489 0.10437,-0.07141 0.2135,-0.132 0.31513,-0.20959 a 8.82082,8.82082 0 0 0 2.87085,-3.36811 4.65469,4.65469 0 0 0 -1.5,-4.77783 14.36,14.36 0 0 0 -3.21949,-2.05139 c -2.58056,-1.15832 -5.42784,-1.40143 -8.19867,-1.76532 a 22.6666,22.6666 0 0 0 -2.41062,-0.12115 58.59048,58.59048 0 0 0 -6.00893,0.42675 37.43218,37.43218 0 0 0 -11.01819,2.8639 22.79748,22.79748 0 0 0 -5.79589,3.51672 2.91527,2.91527 0 0 0 -0.54926,0.83411 8.02814,8.02814 0 0 0 -0.48273,2.61035 0.94721,0.94721 0 0 1 -0.88286,0.87329 0.65544,0.65544 0 0 1 -0.41713,-0.14966 c -0.24475,-0.2168 -0.47255,-0.45111 -0.71242,-0.673 -2.884,-2.66779 -5.45537,-5.66022 -8.3071,-8.36322 -0.0529,-0.05872 -0.11245,-0.11481 -0.16958,-0.17176 a 3.1267,3.1267 0 0 1 -0.93463,-1.206 3.59919,3.59919 0 0 1 0.3,-0.84448 c 0.50843,0.035 1.03367,0.08835 1.55394,0.08835 a 4.055,4.055 0 0 0 1.84335,-0.36887 c 2.9,-1.42365 5.66252,-3.12647 8.61815,-4.439 a 61.70562,61.70562 0 0 1 8.67645,-2.70556 76.61552,76.61552 0 0 1 11.339,-1.29865 c 1.03618,-0.01223 2.07455,-0.02511 3.11406,-0.02511 m 0,-7 c -1.01849,0 -2.03591,0.01187 -3.05132,0.02383 l -0.14521,0.0017 q -0.11071,0.0013 -0.22137,0.0061 a 84.02978,84.02978 0 0 0 -12.37468,1.42139 q -0.13389,0.02614 -0.26675,0.05744 a 68.9831,68.9831 0 0 0 -9.66005,3.0155 q -0.1266,0.0504 -0.25113,0.10571 c -1.97528,0.87714 -3.78411,1.85706 -5.53334,2.80469 -0.88941,0.48181 -1.74077,0.943 -2.57959,1.37231 l -0.15027,-0.01147 -0.43019,-0.03189 c -0.16171,-0.01114 -0.32334,-0.01666 -0.48365,-0.01666 a 6.99958,6.99958 0 0 0 -6.46482,4.3218 l -0.0201,0.04538 a 9.29253,9.29253 0 0 0 -0.74092,2.47855 7.00009,7.00009 0 0 0 0.23068,3.03381 9.30717,9.30717 0 0 0 2.60048,4.0412 l 0.0887,0.08627 0.0475,0.04691 q 0.1217,0.12758 0.24971,0.24893 c 1.22321,1.15939 2.41332,2.40216 3.67332,3.71787 1.48358,1.54919 3.01766,3.15112 4.6959,4.70352 0.062,0.05737 0.12226,0.11636 0.18284,0.17493 0.21042,0.20346 0.42239,0.40527 0.64171,0.59951 q 0.12545,0.11115 0.2561,0.21613 a 7.69358,7.69358 0 0 0 4.80227,1.69342 7.90426,7.90426 0 0 0 6.19867,-3.06134 c -0.009,0.31445 -0.016,0.642 -0.0217,0.98569 -0.0233,1.39587 -0.0132,2.77371 -0.003,4.10617 0.009,1.22027 0.0173,2.37283 0.002,3.52133 q -0.003,0.22348 0.008,0.44678 v 0.005 a 7.94963,7.94963 0 0 0 5.17039,8.03064 6.99947,6.99947 0 0 0 3.6344,0.31082 9.44386,9.44386 0 0 0 3.79983,-1.64679 11.24249,11.24249 0 0 1 2.77438,-0.3381 l 0.14508,9.1e-4 0.083,4.6e-4 0.0272,-6e-5 1.04679,-0.0061 c 0.51361,-0.0035 1.02776,-0.0071 1.5419,-0.0071 a 30.9977,30.9977 0 0 1 5.49365,0.36352 q 0.18849,0.035 0.37863,0.05969 a 18.39167,18.39167 0 0 1 6.22358,1.66742 2.06026,2.06026 0 0 1 -0.313,0.148 q -0.0848,0.03054 -0.16868,0.06321 a 31.30631,31.30631 0 0 1 -6.183,1.47991 c -1.92277,0.18808 -3.83132,0.28336 -5.67635,0.28336 a 49.37966,49.37966 0 0 1 -8.22015,-0.66852 q -0.1858,-0.03148 -0.37311,-0.053 a 46.69218,46.69218 0 0 1 -6.87382,-1.50965 23.74785,23.74785 0 0 1 -6.45881,-2.9404 l -0.002,-0.0058 c -0.16839,-0.40893 -0.378,-0.91791 -0.65971,-1.4747 a 7.87959,7.87959 0 0 0 -7.05647,-4.29877 8.0317,8.0317 0 0 0 -6.19505,2.8819 18.65246,18.65246 0 0 0 -1.8562,2.77322 l -0.0287,0.04987 c -0.12786,0.22211 -0.25327,0.44452 -0.39171,0.65793 q -0.0319,0.0492 -0.0629,0.09884 c -0.75666,1.21018 -1.4982,2.42957 -2.23962,3.64905 -0.59164,0.97321 -1.18324,1.94644 -1.7833,2.91458 l -0.0417,0.06818 -0.25666,0.41879 a 20.11692,20.11692 0 0 0 -1.68312,3.18839 7.482,7.482 0 0 0 0.163,6.231556 7.76121,7.76121 0 0 0 5.41892,4.21384 6.99839,6.99839 0 0 0 1.38271,0.13794 16.01967,16.01967 0 0 0 2.42638,-0.20917 c 0.28648,0.11588 0.639,0.2728 0.92788,0.40143 l 0.49195,0.21781 a 77.48593,77.48593 0 0 0 11.073,3.88592 q 0.0782,0.0211 0.15681,0.0405 a 97.54625,97.54625 0 0 0 14.4169,2.1553 q 0.18261,0.0167 0.36586,0.0238 c 2.7579,0.1073 5.69529,0.212 8.62071,0.212 a 77.91948,77.91948 0 0 0 12.6677,-0.90039 54.57116,54.57116 0 0 0 11.34801,-3.05771 q 0.14481,-0.0555 0.28708,-0.1174 a 38.56046,38.56046 0 0 0 8.70141,-5.00745 26.17794,26.17794 0 0 0 2.55908,-2.29144 18.93373,18.93373 0 0 0 5.01744,-10.021446 15.50623,15.50623 0 0 0 -0.004,-5.54172 l -0.0633,-0.454 a 18.39883,18.39883 0 0 0 -3.73705,-8.64978 7.00464,7.00464 0 0 0 -0.49424,-0.58817 35.22318,35.22318 0 0 0 -3.26632,-3.08566 17.67607,17.67607 0 0 0 2.51024,-4.94461 q 0.0186,-0.05288 0.0363,-0.106 a 18.39737,18.39737 0 0 0 0.26763,-9.80218 q -0.0474,-0.225 -0.10966,-0.4465 a 20.62679,20.62679 0 0 0 -8.63271,-11.39185 q -0.14724,-0.09984 -0.2994,-0.19211 a 42.05747,42.05747 0 0 0 -8.45755,-4.1673 q -0.13353,-0.04471 -0.26876,-0.084 l -0.69853,-0.2041 a 52.45354,52.45354 0 0 0 -7.102,-1.70777 55.00954,55.00954 0 0 0 -10.77931,-0.8695 z m -6.7025,23.56427 q 0.58686,-0.08195 1.16486,-0.13483 l 0.0823,-0.008 0.33434,-0.03463 a 49.53323,49.53323 0 0 1 4.95466,-0.355 15.78674,15.78674 0 0 1 1.59407,0.074 q 0.4744,0.06184 0.95109,0.121 c 0.65136,0.08185 1.291,0.1622 1.90279,0.25382 q -0.14745,0.02791 -0.29425,0.05639 l -0.0445,0.005 a 60.50791,60.50791 0 0 1 -6.66448,0.519 16.912,16.912 0 0 1 -3.73286,-0.36465 q -0.11616,-0.06235 -0.2481,-0.13214 z"
       id="path81"
       style="fill:none;stroke:#00ffff;stroke-width:1.88976383;stroke-miterlimit:4;stroke-dasharray:none;stroke-opacity:1"
       inkscape:connector-curvature="0" />
    <path
       d="m 582.16352,110.6087 c -0.12744,-0.007 -0.25586,-0.008 -0.38526,-0.008 l -0.44384,10e-4 a 7.74771,7.74771 0 0 1 -3.22266,-0.56592 3.5,3.5 0 0 1 -1.85547,-4.50732 q -0.48926,-0.49073 -0.981,-0.97852 c -0.91211,-0.90771 -1.82373,-1.81543 -2.70605,-2.751 -0.0391,-0.0415 -0.0771,-0.084 -0.11426,-0.127 -2.0293,-2.373526 -4.22314,-4.560046 -6.5459,-6.874506 -1.25928,-1.25488 -2.56054,-2.55176 -3.8247,-3.87353 -0.2793,-0.26709 -0.54786,-0.5503 -0.81495,-0.83594 -0.0869,-0.09277 -0.17724,-0.189 -0.2666,-0.28223 a 3.49979,3.49979 0 0 1 -2.30566,-5.95166 l 1.28369,-1.29931 a 3.51817,3.51817 0 0 1 0.30615,-0.27832 c 0.0376,-0.03321 0.0894,-0.085 0.14307,-0.13672 a 5.1431,5.1431 0 0 1 3.61719,-1.68115 4.52248,4.52248 0 0 1 2.2832,0.63281 11.07324,11.07324 0 0 1 2.35937,2.03515 c 0.1875,0.2002 0.37354,0.40235 0.57129,0.58789 0.0469,0.04395 0.0923,0.08887 0.13672,0.13526 1.22315,1.28125 2.51465,2.56836 3.76367,3.813 2.29786,2.28955 4.67286,4.65674 6.86768,7.21631 0.812,0.85839 1.65039,1.6914 2.48828,2.52539 0.59863,0.59619 1.19775,1.19238 1.78857,1.79687 0.0444,0.04541 0.2959,0.32031 0.2959,0.32031 a 6.76365,6.76365 0 0 1 1.311,1.842286 l 0.0308,0.0684 q 2.77515,-0.011 5.55176,-0.01 3.8313,0 7.66406,0.0127 a 3.503,3.503 0 0 1 1.42089,0.30566 5.07282,5.07282 0 0 0 0.75293,0.27979 3.50826,3.50826 0 0 1 0.40771,0.13769 c 0.10645,0.04 0.23,0.0698 0.354,0.10449 a 5.5591,5.5591 0 0 1 4.15576,3.4585 3.50036,3.50036 0 0 1 -2.59668,4.55762 20.62415,20.62415 0 0 1 -4.17285,0.32861 l -0.41651,0.003 c -2.8208,-0.0107 -5.59472,-0.0166 -8.36816,-0.0166 q -4.15869,0 -8.31592,0.0195 h -0.0176 c -0.0664,5e-5 -0.13272,-0.002 -0.19961,-0.006 z"
       id="path71"
       style="fill:none;stroke:#00ffff;stroke-width:1.88976383;stroke-miterlimit:4;stroke-dasharray:none;stroke-opacity:1"
       inkscape:connector-curvature="0" />
    <path
       d="m 483.97988,46.757594 a 54.92614,54.92614 0 0 1 10.12458,1.18543 49.29125,49.29125 0 0 1 7.6765,2.56115 19.78617,19.78617 0 0 1 7.39039,4.97919 11.6309,11.6309 0 0 1 3.32917,6.21533 c 0.13337,2.257 0.41669,4.65424 -0.52777,6.7876 a 13.56662,13.56662 0 0 1 -3.075,5.14032 17.3495,17.3495 0 0 1 -1.80077,1.57538 35.52331,35.52331 0 0 1 -6.02155,3.52331 47.1937,47.1937 0 0 1 -5.17371,2.31257 c -3.20556,1.15277 -6.39172,2.375 -9.69037,3.23748 -3.49029,0.87641 -6.84729,2.19031 -10.23761,3.37787 a 38.23253,38.23253 0 0 0 -11.83762,6.35419 3.8197,3.8197 0 0 0 -0.76866,0.9762 c -0.1479,0.24554 -0.28908,0.496 -0.44105,0.735 0.7611,0.62634 1.80694,0.46112 2.72778,0.51526 q 9.49764,-0.01872 18.99246,-0.01593 11.77548,0 23.55217,0.0053 1.99381,0 3.98925,-4.9e-4 a 4.85069,4.85069 0 0 0 2.23755,-0.40692 13.43608,13.43608 0 0 1 2.3861,-1.38336 32.4291,32.4291 0 0 1 0.24726,5.398676 c -0.0431,2.4986 0.0611,5.0014 -0.10694,7.49591 q -0.51048,0.0791 -1.01393,0.16248 c -0.40941,-0.3667 -0.7661,-0.83905 -1.20286,-1.18567 a 1.982,1.982 0 0 0 -0.72492,-0.3949 12.397,12.397 0 0 0 -2.93615,-0.25555 q -11.72593,0.0153 -23.45082,0.0127 -11.46816,0 -22.93581,-0.002 -8.75571,0 -17.51272,0.006 -0.0311,0.001 -0.0626,0.001 a 1.08773,1.08773 0 0 1 -1.12493,-0.75421 18.0548,18.0548 0 0 1 1.60552,-7.866756 18.64122,18.64122 0 0 1 4.15864,-5.90015 c 1.37847,-1.38946 2.88947,-2.66436 4.37481,-3.9 a 61.43,61.43 0 0 1 7.30566,-4.08752 c 1.4361,-0.7 2.8347,-1.48755 4.33337,-2.04865 2.23615,-0.85693 4.42647,-1.83057 6.68481,-2.63055 3.1875,-1.12641 6.33479,-2.35981 9.49732,-3.55426 a 66.51641,66.51641 0 0 0 8.7765,-4.01111 c 0.279,-0.155 0.54829,-0.32385 0.80889,-0.50385 a 13.81411,13.81411 0 0 0 4.162,-4.91845 c 0.80558,-1.91669 -0.16247,-4.1056 -1.44586,-5.564 -3.38753,-2.9917 -8.04316,-3.78754 -12.4029,-4.08893 l -0.1338,-2.7e-4 a 30.851,30.851 0 0 0 -18.33728,5.92953 10.3497,10.3497 0 0 0 -2.62921,2.36945 c -0.009,0.01239 -0.0158,0.02624 -0.0248,0.0387 a 11.53207,11.53207 0 0 0 -1.2752,2.2752 c -0.33613,0.93891 0.0208,1.95282 -0.0236,2.91394 a 0.576,0.576 0 0 1 -0.5863,0.37159 1.0234,1.0234 0 0 1 -0.67621,-0.2577 c -0.35255,-0.28308 -0.68384,-0.58917 -1.01674,-0.89349 -1.47839,-1.35156 -2.81408,-2.85773 -4.35692,-4.13989 -1.55561,-1.30976 -2.89314,-2.85285 -4.44036,-4.1723 -0.16145,-0.169 -0.34711,-0.33484 -0.52619,-0.50763 a 1.87,1.87 0 0 1 -0.72933,-1.33087 c 0.907,-0.34448 1.94865,-0.22363 2.82226,-0.68475 1.86389,-1.05 3.49029,-2.46253 5.325,-3.56116 a 45.28138,45.28138 0 0 1 9.9029,-4.84033 41.424,41.424 0 0 1 9.18342,-2.06946 c 2.18284,-0.21713 4.36316,-0.52167 6.56193,-0.52167 q 0.20438,0 0.409,0.0036 0.343,-0.0077 0.68524,-0.0076 m 1.1e-4,-7 h -1.1e-4 q -0.35215,0 -0.70407,0.0066 -0.19516,-0.0026 -0.39019,-0.0025 a 53.05655,53.05655 0 0 0 -5.86008,0.40891 c -0.46495,0.05041 -0.92976,0.10089 -1.39474,0.14712 a 48.02744,48.02744 0 0 0 -10.64533,2.37473 51.98057,51.98057 0 0 0 -11.36853,5.50964 c -1.08983,0.65424 -2.06444,1.35223 -2.92506,1.9686 -0.55405,0.39682 -1.08675,0.77832 -1.58375,1.10006 a 11.85133,11.85133 0 0 0 -2.50364,0.62449 7,7 0 0 0 -4.51427,6.49618 8.62831,8.62831 0 0 0 2.86811,6.41571 l 0.2476,0.23511 0.11,0.10419 q 0.23272,0.2404 0.48757,0.45776 c 0.56094,0.47836 1.15892,1.06992 1.792,1.69617 0.78445,0.776 1.67355,1.65554 2.68208,2.50467 0.70492,0.586 1.413,1.29129 2.16252,2.038 0.62219,0.61978 1.26558,1.26065 1.97969,1.91351 l 0.0693,0.06339 c 0.32024,0.293 0.71221,0.65158 1.16271,1.02041 a 8.06823,8.06823 0 0 0 4.98109,1.89835 q -0.1338,0.06647 -0.268,0.13193 a 67.7375,67.7375 0 0 0 -8.12872,4.5603 6.99832,6.99832 0 0 0 -0.58652,0.43814 c -1.59469,1.32654 -3.28411,2.75525 -4.86756,4.35135 a 25.47369,25.47369 0 0 0 -5.652,8.14081 l -0.0258,0.06283 a 24.9832,24.9832 0 0 0 -2.10195,10.951566 6.9976,6.9976 0 0 0 0.1409,1.0109 8.01723,8.01723 0 0 0 7.969,6.285 q 0.0787,0 0.15691,-10e-4 8.70866,-0.007 17.41836,-0.006 l 11.46687,10e-4 11.46894,0.001 q 11.69723,0 23.394,-0.0126 l 0.19884,0.004 0.0519,0.0468 a 6.99907,6.99907 0 0 0 5.811,1.692 q 0.46989,-0.0776 0.94501,-0.15143 a 7.00006,7.00006 0 0 0 5.91224,-6.447 c 0.12566,-1.86563 0.11955,-3.64084 0.11362,-5.35761 -0.003,-0.82946 -0.006,-1.659 0.008,-2.488 q 0.002,-0.136 -5.6e-4,-0.2721 c -0.009,-0.418846 -0.007,-0.839286 -0.006,-1.259996 a 26.69522,26.69522 0 0 0 -0.36412,-5.29919 7,7 0 0 0 -9.33237,-5.243 14.02043,14.02043 0 0 0 -2.63488,1.34521 l -3.52163,4.3e-4 -11.8031,-0.0027 -2.55419,-5.8e-4 c 0.98385,-0.3449 1.95245,-0.697 2.91,-1.04495 q 0.75932,-0.27594 1.519,-0.55014 l 0.0535,-0.0195 a 53.90488,53.90488 0 0 0 5.88691,-2.62131 41.63094,41.63094 0 0 0 7.14,-4.223 24.55907,24.55907 0 0 0 2.45165,-2.13955 20.23,20.23 0 0 0 4.65275,-7.49012 19.258,19.258 0 0 0 1.07519,-9.18142 l -0.0422,-0.66422 a 7.00243,7.00243 0 0 0 -0.11361,-0.90811 18.72955,18.72955 0 0 0 -5.19529,-9.789 26.93065,26.93065 0 0 0 -9.72858,-6.55618 56.536,56.536 0 0 0 -8.66481,-2.88453 q -0.19212,-0.04755 -0.38671,-0.08416 a 61.50247,61.50247 0 0 0 -11.41934,-1.30628 z m -14.37099,27.58957 a 23.7611,23.7611 0 0 1 13.988,-4.50406 19.207,19.207 0 0 1 6.49624,1.35919 4.03462,4.03462 0 0 1 -0.53869,0.45258 c -0.0812,0.05606 -0.15874,0.10474 -0.23048,0.14456 l -0.0756,0.04267 a 60.88447,60.88447 0 0 1 -7.81886,3.55569 q -1.25939,0.47585 -2.51667,0.957 c -2.2336,0.85208 -4.54326,1.73315 -6.79512,2.529 -1.50914,0.53458 -2.93427,1.11539 -4.3125,1.67709 q -0.54822,0.22344 -1.09686,0.44559 a 7.46937,7.46937 0 0 0 1.31654,-2.31219 6.99918,6.99918 0 0 0 0.38976,-2.00116 11.817,11.817 0 0 0 -0.0234,-1.40793 l 0.0392,-0.05478 c 0.13311,-0.10437 0.33091,-0.25 0.48694,-0.3649 0.23308,-0.1716 0.465,-0.34329 0.69156,-0.51828 z"
       id="path77"
       style="fill:none;stroke:#00ffff;stroke-width:1.88976383;stroke-miterlimit:4;stroke-dasharray:none;stroke-opacity:1"
       inkscape:connector-curvature="0" />
    <path
       d="m 374.51805,13.099904 a 12.92773,12.92773 0 0 1 2.72341,0.27741 18.41327,18.41327 0 0 1 2.91126,0.941 3.70494,3.70494 0 0 0 1.1961,0.35 0.98143,0.98143 0 0 0 0.603,-0.29816 l 0.346,0.19446 -1.98204,4.23854 -0.35584,-0.1944 a 1.45245,1.45245 0 0 0 -0.1137,-0.61182 1.641,1.641 0 0 0 -0.44482,-0.45886 6.50014,6.50014 0 0 0 -2.20942,-1.011 9.96211,9.96211 0 0 0 -2.75306,-0.42 6.343,6.343 0 0 0 -4.38416,1.55283 5.94307,5.94307 0 0 0 -1.96218,4.6508 5.79173,5.79173 0 0 0 1.91278,4.51856 6.64689,6.64689 0 0 0 4.6214,1.5788 11.41686,11.41686 0 0 0 2.75806,-0.337 8.73725,8.73725 0 0 0 2.34282,-0.92029 v -2.41107 h -4.16174 a 0.799,0.799 0 0 0 -0.57336,0.18146 1.40009,1.40009 0 0 0 -0.31634,0.64813 h -0.3954 v -4.12186 h 0.3954 a 1.38111,1.38111 0 0 0 0.31634,0.65583 0.8263,0.8263 0 0 0 0.57336,0.1737 h 7.99726 v 0.4148 a 1.2635,1.2635 0 0 0 -0.61786,0.337 0.91186,0.91186 0 0 0 -0.173,0.6092 v 3.62933 a 0.94,0.94 0 0 0 0.168,0.60925 1.23705,1.23705 0 0 0 0.6228,0.337 v 0.324 a 18.11893,18.11893 0 0 1 -9.312,2.87757 10.44374,10.44374 0 0 1 -6.66766,-2.035 8.57917,8.57917 0 0 1 -3.24732,-7.12909 8.51083,8.51083 0 0 1 2.88648,-6.76611 10.73013,10.73013 0 0 1 7.29539,-2.385 m 0,-7 a 17.54751,17.54751 0 0 0 -11.88684,4.1012 15.46841,15.46841 0 0 0 -5.295,12.04992 15.49817,15.49817 0 0 0 5.907,12.6211 17.302,17.302 0 0 0 11.00794,3.543 25.06,25.06 0 0 0 12.9089,-3.87238 6.99993,6.99993 0 0 0 3.40312,-6.00519 v -0.324 a 6.98484,6.98484 0 0 0 -0.567,-2.76093 6.986,6.986 0 0 0 0.567,-2.76086 v -0.4148 a 6.9764,6.9764 0 0 0 -1.90154,-4.79644 7,7 0 0 0 -2.93432,-9.01825 l -0.346,-0.19446 a 6.98921,6.98921 0 0 0 -3.428,-0.89774 q -0.17664,0 -0.35272,0.00888 a 23.31881,23.31881 0 0 0 -2.85816,-0.83883 20.0395,20.0395 0 0 0 -4.2244,-0.44022 z"
       id="path93"
       style="fill:none;stroke:#00ffff;stroke-width:1.88976383;stroke-miterlimit:4;stroke-dasharray:none;stroke-opacity:1;fill-opacity:1"
       inkscape:connector-curvature="0" />
    <path
       d="m 546.89843,46.317004 c 0.10389,0.009 0.21057,0.012 0.319,0.012 0.20093,0 0.40775,-0.01008 0.6131,-0.01008 a 1.88916,1.88916 0 0 1 1.19153,0.30713 c -0.34442,0.66449 -0.86531,1.218 -1.17359,1.90357 2.28472,2.58069 4.86951,4.872 7.15563,7.4541 2.59865,2.7085 5.28061,5.33557 7.889,8.03564 a 1.8518,1.8518 0 0 0 1.169,0.693 0.7475,0.7475 0 0 0 0.4359,-0.14127 l 0.005,-0.0024 c 1.54858,-1.225 2.80418,-2.78436 4.23332,-4.14709 3.50287,-3.43622 6.7682,-7.10706 10.29039,-10.525 0.35451,-0.41681 0.9062,-0.8244 0.999,-1.38971 a 1.0154,1.0154 0 0 0 -0.0101,-0.41553 c -0.32913,-0.51416 -0.71943,-0.9848 -1.00134,-1.527 a 21.46839,21.46839 0 0 1 3.70377,-0.23893 c 0.38617,0 0.77246,0.0025 1.15806,0.0025 q 0.19135,0 0.38266,-10e-4 2.59464,0.01872 5.18924,0.01645 c 3.03743,0 6.0754,-0.01227 9.11316,-0.01227 q 1.6044,0 3.20891,0.0057 a 0.56167,0.56167 0 0 1 0.0985,-0.0091 c 0.46559,0 0.54429,0.65735 0.74873,0.96155 -1.18134,0.51965 -2.47243,0.71033 -3.6533,1.22412 -0.0451,0.01959 -0.0924,0.03235 -0.137,0.05292 a 11.774,11.774 0 0 0 -3.67617,2.97564 c -0.37368,0.39411 -0.74716,0.7862 -1.13499,1.15455 -2.2931,2.22528 -4.39031,4.643 -6.66534,6.88513 -3.04868,3.09765 -6.13062,6.16162 -9.15563,9.2818 -1.36673,1.5664 -2.89035,2.98108 -4.31259,4.49127 -0.343,0.37366 -0.675,1.03113 -0.30139,1.48913 1.40833,1.83753 3.26946,3.248 4.782,4.99421 1.34581,1.21936 2.425,2.69445 3.70562,3.97845 3.53889,3.5838 7.09869,7.14923 10.61958,10.75269 1.93471,2.15924 4.02643,4.16955 6.04309,6.251516 a 8.47493,8.47493 0 0 0 4.00281,2.40369 c 0.88061,0.35821 2.15425,0.392 2.51672,1.45257 a 20.01035,20.01035 0 0 1 -3.90838,0.25849 q -0.23824,-9.1e-4 -0.47649,-8.3e-4 c -0.44232,0 -0.8846,0.002 -1.327,0.002 q -0.19469,0 -0.38941,-5.2e-4 -3.82628,-0.0111 -7.65216,-0.0127 -3.411,0 -6.82183,0.0152 c -0.19364,-0.0111 -0.3891,-0.0135 -0.58535,-0.0135 -0.14813,0 -0.29661,0.001 -0.445,0.001 a 4.49633,4.49633 0 0 1 -1.82663,-0.27585 c 0.3416,-0.58722 0.9,-1.09436 0.91389,-1.82489 a 5.194,5.194 0 0 0 -0.9292,-1.17724 c -1.45141,-1.48493 -2.95283,-2.917846 -4.3764,-4.426636 -3.30145,-3.86053 -7.05707,-7.28552 -10.55988,-10.95355 a 15.632,15.632 0 0 0 -2.30693,-2.15643 1.00284,1.00284 0 0 0 -0.51307,-0.152 c -0.616,0 -1.09192,0.66278 -1.56336,1.04272 -0.42883,0.43854 -0.86285,0.87213 -1.29327,1.30914 -2.96575,3.01075 -5.95887,5.99524 -8.8916,9.03888 -1.91387,2.318 -4.10421,4.3747 -6.21393,6.502996 -0.36669,0.38916 -0.86255,0.84156 -0.63477,1.45966 0.22638,0.41583 0.50556,0.805 0.76808,1.20111 -0.10695,0.13068 -0.21248,0.26276 -0.31392,0.39618 -0.92547,0.004 -1.85078,0.001 -2.7762,0.003 -5.78115,0.0122 -11.56175,-0.005 -17.34208,0.0206 -0.46227,-0.0217 -0.93101,-0.008 -1.39611,-0.0212 a 4.94121,4.94121 0 0 1 -1.547,-0.24152 c 0.23192,-0.42285 0.49445,-0.88922 1.04029,-0.94684 a 14.67833,14.67833 0 0 0 4.25306,-1.82 c 0.0944,-0.0724 0.19111,-0.14007 0.28171,-0.2199 1.76528,-1.58045 3.35005,-3.356136 5.0417,-5.018066 5.07789,-5.5351 10.64733,-10.59247 15.64325,-16.20484 1.51253,-1.32617 2.77228,-2.91363 4.28339,-4.24121 a 7.11393,7.11393 0 0 0 1.28333,-1.53265 c 0.23756,-0.83026 -0.57081,-1.33881 -0.99581,-1.905 -0.682,-0.71789 -1.4,-1.39783 -2.08749,-2.1073 -4.36122,-4.7146 -9.01682,-9.14264 -13.45436,-13.78283 -1.71253,-1.919 -3.57923,-3.68635 -5.36118,-5.5365 a 13.303,13.303 0 0 0 -2.8306,-2.47113 5.04521,5.04521 0 0 0 -0.76458,-0.37488 c -0.99262,-0.39942 -2.07912,-0.55005 -3.06464,-0.97235 -0.45831,-0.13623 -0.382,-0.7038 -0.44026,-1.08033 2.74223,-0.10839 5.485,-0.13589 8.22955,-0.13589 2.82573,0 5.653,0.02917 8.47884,0.02917 1.50667,0 3.01341,-0.0083 4.51964,-0.03372 m 8e-5,-7 q -0.0591,0 -0.11819,10e-4 c -1.322,0.02231 -2.72061,0.03268 -4.40153,0.03268 -1.40094,0 -2.80222,-0.0072 -4.20345,-0.01446 -1.42529,-0.0074 -2.85051,-0.01465 -4.27536,-0.01465 -3.40921,0 -6.0326,0.04355 -8.50609,0.14136 a 7,7 0 0 0 -6.67593,7.809 7.67,7.67 0 0 0 4.76141,6.75305 18.81788,18.81788 0 0 0 2.402,0.78323 c 0.20108,0.05436 0.46381,0.12534 0.6109,0.17215 0.18122,0.14832 0.54863,0.52671 0.82237,0.80866 0.14951,0.154 0.29889,0.30765 0.44921,0.45947 0.64584,0.6698 1.30192,1.3295 1.95826,1.98908 1.13506,1.14059 2.20717,2.218 3.18688,3.31579 q 0.0803,0.09 0.16373,0.17725 c 1.93678,2.02524 3.92183,4.01886 5.84152,5.9469 2.1575,2.16684 4.37783,4.39676 6.49239,6.6376 -0.31992,0.3266 -0.62712,0.62726 -0.91885,0.88306 a 6.99664,6.99664 0 0 0 -0.6137,0.6091 c -2.55452,2.86975 -5.25812,5.57809 -8.12044,8.44546 -2.42077,2.425 -4.92268,4.93137 -7.33154,7.54987 -0.63846,0.63095 -1.247,1.25861 -1.83674,1.86691 -0.91724,0.94608 -1.78695,1.84308 -2.654,2.63437 -0.23833,0.11453 -0.81694,0.302 -1.24747,0.44141 -0.21881,0.07089 -0.43732,0.14193 -0.65469,0.21472 a 8.287,8.287 0 0 0 -5.324,4.344816 7,7 0 0 0 3.78057,9.95758 11.83159,11.83159 0 0 0 3.71194,0.64761 c 0.25409,0.007 0.50894,0.009 0.76364,0.009 0.1658,5.8e-4 0.33147,-10e-4 0.49581,0.007 q 0.16413,0.008 0.32853,0.008 l 0.0308,-6e-5 q 5.11848,-0.0225 10.23735,-0.0153 3.54426,-1.4e-4 7.08876,-0.005 l 1.11333,-8e-4 q 0.83954,0 1.67917,-0.003 a 6.99994,6.99994 0 0 0 5.54107,-2.76309 c 0.0512,-0.0673 0.10482,-0.13358 0.15873,-0.19947 a 6.99171,6.99171 0 0 0 1.58212,-4.32043 c 1.43825,-1.435 2.89984,-2.93054 4.29927,-4.60336 1.93645,-2.006376 3.94345,-4.032536 5.88631,-5.993926 q 0.31748,-0.32052 0.63486,-0.641 c 0.57565,0.57919 1.14873,1.15033 1.71335,1.713 2.27153,2.26382 4.41709,4.4021 6.35586,6.669186 q 0.11118,0.13 0.22856,0.25442 c 0.83124,0.881 1.66815,1.71961 2.48375,2.5318 a 7.00012,7.00012 0 0 0 4.20906,6.51285 11.333,11.333 0 0 0 4.61694,0.856 l 0.25481,-7.6e-4 0.19017,-6.1e-4 0.066,-9e-5 c 0.0409,0 0.0816,3.3e-4 0.12219,0.002 0.13286,0.008 0.26356,0.0113 0.39625,0.0113 l 0.0346,-1e-4 q 3.39321,-0.0163 6.78814,-0.0151 3.81618,0 7.63189,0.0127 l 0.40969,5.5e-4 0.67691,-8.5e-4 0.65006,-8.2e-4 0.44954,7.3e-4 0.0272,6e-5 0.0677,-3.4e-4 0.40229,-0.003 a 23.85568,23.85568 0 0 0 4.86793,-0.40262 7,7 0 0 0 5.19407,-9.11615 c -0.96829,-2.833186 -3.16174,-4.749296 -6.51945,-5.694996 -0.0472,-0.0133 -0.0943,-0.02609 -0.14053,-0.03952 q -0.32465,-0.123 -0.66039,-0.21347 a 1.48606,1.48606 0 0 1 -0.682,-0.39529 q -0.0558,-0.06038 -0.113,-0.11945 c -0.67244,-0.69424 -1.35289,-1.38086 -2.03342,-2.06729 -1.35479,-1.36658 -2.63447,-2.65738 -3.82422,-3.98523 q -0.10091,-0.11265 -0.20663,-0.22082 c -2.34856,-2.40366 -4.74481,-4.82126 -7.06215,-7.15924 q -1.793,-1.809 -3.58339,-3.61982 c -0.4116,-0.41287 -0.83586,-0.89813 -1.285,-1.41192 -0.688,-0.787 -1.4586,-1.66849 -2.38583,-2.54367 q -0.31367,-0.34978 -0.62737,-0.67606 0.29511,-0.3207 0.59029,-0.655 c 1.83449,-1.89029 3.73169,-3.8024 5.56776,-5.65292 q 1.699,-1.7124 3.39361,-3.42938 c 1.16243,-1.14746 2.25648,-2.30918 3.31485,-3.433 1.1159,-1.1849 2.17042,-2.30465 3.24971,-3.35339 0.52586,-0.50137 1.00866,-1.01056 1.36306,-1.38434 l 0.0518,-0.05463 a 13.95744,13.95744 0 0 1 1.35392,-1.32037 q 0.0593,-0.02459 0.11824,-0.05017 c 0.16483,-0.07172 0.5985,-0.1958 0.947,-0.2955 a 20.52548,20.52548 0 0 0 2.7345,-0.94092 7,7 0 0 0 3.4093,-9.60355 7.54068,7.54068 0 0 0 -6.97653,-4.7655 q -0.17365,0 -0.34807,0.0082 -1.47963,-0.0051 -2.95934,-0.0047 -2.28547,0 -4.571,0.0062 -2.27116,0.0046 -4.54214,0.0061 -2.56967,0 -5.13867,-0.01627 l -0.0516,-1.8e-4 -0.0387,9e-5 -0.343,8.6e-4 -0.55644,-0.0012 -0.60161,-0.0013 a 27.88389,27.88389 0 0 0 -4.90831,0.34336 6.99994,6.99994 0 0 0 -5.78271,7.318 c -1.165,1.18393 -2.29949,2.37207 -3.41026,3.53543 -1.56159,1.6355 -3.04055,3.18445 -4.56627,4.68976 -1.29381,-1.305 -2.62722,-2.65082 -3.9029,-3.97839 -1.25233,-1.40619 -2.532,-2.68647 -3.77058,-3.92576 q -0.18172,-0.18182 -0.36142,-0.36172 a 6.99888,6.99888 0 0 0 -2.76706,-5.90009 8.75481,8.75481 0 0 0 -5.41786,-1.727 c -0.16058,0 -0.32175,0.0033 -0.482,0.0072 l -0.0666,0.0014 q -0.19155,-0.01007 -0.38346,-0.01007 z"
       id="path85"
       style="fill:none;stroke:#00ffff;stroke-width:1.88976383;stroke-miterlimit:4;stroke-dasharray:none;stroke-opacity:1"
       inkscape:connector-curvature="0" />
    <path
       style="fill:none;stroke:#00ffff;stroke-width:1.88976383;stroke-miterlimit:4;stroke-dasharray:none;stroke-opacity:1"
       d="m 347.18842,5.700974 h 279.21484 c 1.939,0 3.5,1.561 3.5,3.5 v 28.31543 c 0,1.939 -1.561,3.5 -3.5,3.5 H 347.18842 c -1.939,0 -3.5,-1.561 -3.5,-3.5 V 9.200974 c 0,-1.939 1.561,-3.5 3.5,-3.5 z"
       id="rect87" />
    <path
       d="m 421.73541,12.581414 v 4.57556 h -0.39543 a 1.367,1.367 0 0 0 -0.32618,-0.64551 0.78962,0.78962 0 0 0 -0.56349,-0.184 h -10.55754 v 4.19965 h 6.85054 a 0.789,0.789 0 0 0 0.56349,-0.18146 1.35225,1.35225 0 0 0 0.32621,-0.64807 h 0.39538 v 4.47186 h -0.39538 a 1.37162,1.37162 0 0 0 -0.32621,-0.64032 0.76868,0.76868 0 0 0 -0.56349,-0.18927 h -6.85054 v 4.84778 h 10.85413 a 0.78848,0.78848 0 0 0 0.56343,-0.18146 1.35159,1.35159 0 0 0 0.32622,-0.64807 h 0.39546 v 4.57556 h -0.39546 a 1.35159,1.35159 0 0 0 -0.32622,-0.64807 0.78848,0.78848 0 0 0 -0.56343,-0.18146 h -15.32236 v -0.41479 a 1.22182,1.22182 0 0 0 0.61293,-0.337 0.91234,0.91234 0 0 0 0.17791,-0.60919 v -14.97119 a 0.91245,0.91245 0 0 0 -0.17791,-0.60919 1.22135,1.22135 0 0 0 -0.61293,-0.337 v -0.41477 h 15.02577 a 0.78964,0.78964 0 0 0 0.56349,-0.18409 1.38005,1.38005 0 0 0 0.32618,-0.6455 h 0.39543 m 0,-7 h -0.39543 a 6.98507,6.98507 0 0 0 -3.306,0.82959 h -12.60943 a 7,7 0 0 0 -7,7 v 0.41479 a 6.98561,6.98561 0 0 0 0.79084,3.23258 v 10.39833 a 6.98527,6.98527 0 0 0 -0.79084,3.23258 v 0.41479 a 7,7 0 0 0 7,7 h 12.90613 a 6.98415,6.98415 0 0 0 3.30586,0.82953 h 0.39546 a 7,7 0 0 0 7,-7 v -4.57552 a 6.983,6.983 0 0 0 -2.35835,-5.23987 6.978,6.978 0 0 0 2.06178,-4.96124 v -4.57556 a 7,7 0 0 0 -7,-7 z"
       id="path97"
       style="fill:none;stroke:#00ffff;stroke-width:1.88976383;stroke-miterlimit:4;stroke-dasharray:none;stroke-opacity:1"
       inkscape:connector-curvature="0" />
    <path
       d="m 462.64588,13.411004 v 0.41479 a 1.24011,1.24011 0 0 0 -0.6178,0.337 0.91525,0.91525 0 0 0 -0.173,0.59625 v 14.98405 a 0.93954,0.93954 0 0 0 0.173,0.60919 1.24058,1.24058 0 0 0 0.6178,0.337 v 0.41479 h -5.31337 v -0.41479 c 0.346,-0.07782 0.519,-0.26447 0.519,-0.55738 0,-0.1737 -0.20265,-0.47442 -0.608,-0.90734 l -9.45037,-10.24 v 10.75853 a 0.93972,0.93972 0 0 0 0.173,0.60919 1.24054,1.24054 0 0 0 0.61779,0.337 v 0.41479 h -4.95258 v -0.41479 a 1.22146,1.22146 0 0 0 0.61292,-0.337 0.912,0.912 0 0 0 0.17792,-0.60919 v -14.98407 a 0.88856,0.88856 0 0 0 -0.17792,-0.59625 1.221,1.221 0 0 0 -0.61292,-0.337 v -0.41477 h 5.73353 v 0.41479 c -0.35582,0.09589 -0.53381,0.29291 -0.53381,0.59625 a 1.06693,1.06693 0 0 0 0.346,0.68695 l 9.30212,10.14924 v -10.49921 a 0.91528,0.91528 0 0 0 -0.16807,-0.59625 1.28285,1.28285 0 0 0 -0.62274,-0.337 v -0.41477 h 4.95746 m 0,-7 h -4.95746 a 6.96852,6.96852 0 0 0 -4.16175,1.37094 6.96856,6.96856 0 0 0 -4.16175,-1.37094 h -5.73353 a 7,7 0 0 0 -7,7 v 0.41479 a 6.98484,6.98484 0 0 0 0.79084,3.23258 v 10.39833 a 6.98469,6.98469 0 0 0 -0.79084,3.23258 v 0.41479 a 7,7 0 0 0 7,7 h 4.95258 a 6.97089,6.97089 0 0 0 4.37428,-1.5347 6.97083,6.97083 0 0 0 4.37426,1.5347 h 5.31337 a 7,7 0 0 0 7,-7 v -0.41479 a 6.98474,6.98474 0 0 0 -0.79078,-3.23246 v -10.39855 a 6.985,6.985 0 0 0 0.79078,-3.23248 v -0.41479 a 7,7 0 0 0 -7,-7 z"
       id="path101"
       style="fill:none;stroke:#00ffff;stroke-width:1.88976383;stroke-miterlimit:4;stroke-dasharray:none;stroke-opacity:1"
       inkscape:connector-curvature="0" />
    <path
       d="m 500.97633,12.581414 v 4.57556 h -0.3954 a 1.36731,1.36731 0 0 0 -0.32623,-0.64551 0.78963,0.78963 0 0 0 -0.56348,-0.184 h -10.55756 v 4.19965 h 6.85058 a 0.78872,0.78872 0 0 0 0.56342,-0.18146 1.35181,1.35181 0 0 0 0.32624,-0.64807 h 0.39544 v 4.47186 h -0.39544 a 1.37116,1.37116 0 0 0 -0.32624,-0.64032 0.7684,0.7684 0 0 0 -0.56342,-0.18927 h -6.85058 v 4.84778 h 10.85411 a 0.78866,0.78866 0 0 0 0.56349,-0.18146 1.35229,1.35229 0 0 0 0.32623,-0.64807 h 0.39539 v 4.57556 h -0.39539 a 1.35229,1.35229 0 0 0 -0.32623,-0.64807 0.78866,0.78866 0 0 0 -0.56349,-0.18146 h -15.32225 v -0.41479 a 1.22146,1.22146 0 0 0 0.61287,-0.337 0.91212,0.91212 0 0 0 0.17799,-0.60919 v -14.97119 a 0.91223,0.91223 0 0 0 -0.17799,-0.60919 1.221,1.221 0 0 0 -0.61287,-0.337 v -0.41477 h 15.0257 a 0.78965,0.78965 0 0 0 0.56348,-0.18409 1.38033,1.38033 0 0 0 0.32623,-0.6455 h 0.3954 m 0,-7 h -0.3954 a 6.98437,6.98437 0 0 0 -3.306,0.82959 h -12.6094 a 7,7 0 0 0 -7,7 v 0.41479 a 6.98573,6.98573 0 0 0 0.79084,3.23258 v 10.39833 a 6.98561,6.98561 0 0 0 -0.79084,3.23258 v 0.41479 a 7,7 0 0 0 7,7 h 12.90611 a 6.985,6.985 0 0 0 3.30587,0.82953 h 0.39538 a 7,7 0 0 0 7,-7 v -4.57552 a 6.98307,6.98307 0 0 0 -2.35834,-5.23987 6.978,6.978 0 0 0 2.06178,-4.96124 v -4.57556 a 7,7 0 0 0 -7,-7 z"
       id="path105"
       style="fill:none;stroke:#00ffff;stroke-width:1.88976383;stroke-miterlimit:4;stroke-dasharray:none;stroke-opacity:1"
       inkscape:connector-curvature="0" />
    <path
       d="m 530.23694,13.099904 a 12.53956,12.53956 0 0 1 3.01499,0.34479 22.0336,22.0336 0 0 1 3.47968,1.27026 3.659,3.659 0 0 0 0.87976,0.29816 0.98147,0.98147 0 0 0 0.603,-0.29816 l 0.346,0.19446 -2.01159,4.16595 -0.346,-0.20739 a 1.9032,1.9032 0 0 0 0.0148,-0.2074 c 0,-0.29291 -0.2422,-0.60919 -0.72161,-0.94623 a 8.50232,8.50232 0 0 0 -5.16016,-1.6073 7.22168,7.22168 0 0 0 -2.31317,0.337 2.73514,2.73514 0 0 0 -1.18134,0.77771 1.675,1.675 0 0 0 -0.44977,1.12512 1.39324,1.39324 0 0 0 1.14673,1.361 17.50039,17.50039 0 0 0 2.55043,0.38623 l 1.9375,0.2074 a 15.406,15.406 0 0 1 2.79753,0.53143 6.476,6.476 0 0 1 1.898,0.94623 4.42515,4.42515 0 0 1 1.3296,1.6695 5.13414,5.13414 0 0 1 0.48932,2.21649 5.19841,5.19841 0 0 1 -1.15167,3.31567 6.11757,6.11757 0 0 1 -3.22754,1.95471 12.3477,12.3477 0 0 1 -3.49444,0.47956 14.26185,14.26185 0 0 1 -6.6084,-1.68506 3.45112,3.45112 0 0 0 -0.83032,-0.337 1.00642,1.00642 0 0 0 -0.50422,0.28516 l -0.36079,-0.19446 1.82881,-4.34222 0.36078,0.18145 v 0.16852 a 1.44539,1.44539 0 0 0 0.52887,1.07581 6.63023,6.63023 0 0 0 2.48621,1.2962 10.31229,10.31229 0 0 0 3.183,0.54444 6.20467,6.20467 0 0 0 2.80743,-0.58332 2.7521,2.7521 0 0 0 1.02808,-0.85809 1.92,1.92 0 0 0 0.3806,-1.11987 1.28948,1.28948 0 0 0 -0.90454,-1.25476 11.36942,11.36942 0 0 0 -2.54051,-0.47956 l -1.90784,-0.20739 a 25.19169,25.19169 0 0 1 -2.70369,-0.394 6.82667,6.82667 0 0 1 -1.58165,-0.60406 4.15574,4.15574 0 0 1 -1.76453,-1.75244 4.86429,4.86429 0 0 1 -0.58325,-2.41095 5.00895,5.00895 0 0 1 1.473,-3.70972 q 1.92765,-1.93258 5.7829,-1.9339 m 0,-7 c -4.48474,0 -8.09787,1.34259 -10.739,3.99051 a 11.93643,11.93643 0 0 0 -3.51686,8.65311 11.90094,11.90094 0 0 0 1.13317,5.16891 l -1.20215,2.85434 a 7,7 0 0 0 3.12992,8.879 l 0.36078,0.19446 a 6.98938,6.98938 0 0 0 2.96686,0.82922 20.90574,20.90574 0 0 0 8.29734,1.74573 19.41133,19.41133 0 0 0 5.464,-0.76233 12.926,12.926 0 0 0 6.75779,-4.34159 12.31578,12.31578 0 0 0 1.49451,-12.84683 q -0.178,-0.37623 -0.37749,-0.734 l 0.85817,-1.77719 a 7,7 0 0 0 -2.8741,-9.14621 l -0.346,-0.19445 a 6.98924,6.98924 0 0 0 -3.428,-0.89774 l -0.0666,3.1e-4 a 24.75807,24.75807 0 0 0 -3.21049,-1.06416 19.61955,19.61955 0 0 0 -4.7018,-0.55106 z"
       id="path109"
       style="fill:none;stroke:#00ffff;stroke-width:1.88976383;stroke-miterlimit:4;stroke-dasharray:none;stroke-opacity:1"
       inkscape:connector-curvature="0" />
    <path
       d="m 571.66645,13.411004 v 0.41479 a 1.146,1.146 0 0 0 -0.61292,0.32923 0.92576,0.92576 0 0 0 -0.17792,0.604 v 14.98407 a 0.93273,0.93273 0 0 0 0.18287,0.61438 1.15428,1.15428 0 0 0 0.60799,0.33185 v 0.41479 h -5.259 v -0.41479 a 1.222,1.222 0 0 0 0.61292,-0.337 0.912,0.912 0 0 0 0.17792,-0.60919 v -14.98411 a 0.88851,0.88851 0 0 0 -0.17792,-0.59625 1.2215,1.2215 0 0 0 -0.61292,-0.337 v -0.41477 h 5.259 m 0,-7 h -5.259 a 7,7 0 0 0 -7,7 v 0.41479 a 6.98472,6.98472 0 0 0 0.79084,3.23258 v 10.39833 a 6.98457,6.98457 0 0 0 -0.79084,3.23258 v 0.41479 a 7,7 0 0 0 7,7 h 5.259 a 7,7 0 0 0 7,-7 v -0.41479 a 6.98294,6.98294 0 0 0 -0.79084,-3.23264 v -10.39815 a 6.98375,6.98375 0 0 0 0.79084,-3.2327 v -0.41479 a 7,7 0 0 0 -7,-7 z"
       id="path113"
       style="fill:none;stroke:#00ffff;stroke-width:1.88976383;stroke-miterlimit:4;stroke-dasharray:none;stroke-opacity:1"
       inkscape:connector-curvature="0" />
    <path
       d="m 601.0407,13.099904 a 12.54036,12.54036 0 0 1 3.01508,0.3448 22.03325,22.03325 0 0 1 3.47961,1.27026 3.65817,3.65817 0 0 0 0.87982,0.29816 0.98147,0.98147 0 0 0 0.603,-0.29816 l 0.346,0.19446 -2.01168,4.16595 -0.346,-0.20739 a 1.90363,1.90363 0 0 0 0.0148,-0.2074 c 0,-0.29291 -0.24221,-0.60919 -0.72163,-0.94623 a 8.5022,8.5022 0 0 0 -5.16016,-1.6073 7.22215,7.22215 0 0 0 -2.31316,0.337 2.735,2.735 0 0 0 -1.18128,0.77771 1.67478,1.67478 0 0 0 -0.44983,1.12512 1.39324,1.39324 0 0 0 1.14672,1.361 17.50039,17.50039 0 0 0 2.55043,0.38623 l 1.93757,0.2074 a 15.40829,15.40829 0 0 1 2.79753,0.53143 6.47642,6.47642 0 0 1 1.89793,0.94623 4.42527,4.42527 0 0 1 1.32961,1.6695 5.13429,5.13429 0 0 1 0.48932,2.21649 5.1983,5.1983 0 0 1 -1.15162,3.31567 6.11772,6.11772 0 0 1 -3.2276,1.95471 12.3477,12.3477 0 0 1 -3.49444,0.47956 14.26162,14.26162 0 0 1 -6.60834,-1.68506 3.4519,3.4519 0 0 0 -0.83038,-0.337 1.00614,1.00614 0 0 0 -0.50417,0.28516 l -0.36084,-0.19446 1.82881,-4.34222 0.36084,0.18145 v 0.16852 a 1.44521,1.44521 0 0 0 0.52887,1.07581 6.62951,6.62951 0 0 0 2.48615,1.2962 10.31263,10.31263 0 0 0 3.183,0.54444 6.205,6.205 0 0 0 2.8075,-0.58332 2.75254,2.75254 0 0 0 1.02807,-0.85809 1.91971,1.91971 0 0 0 0.38054,-1.11987 1.2895,1.2895 0 0 0 -0.90448,-1.25476 11.37006,11.37006 0 0 0 -2.54057,-0.47956 l -1.90784,-0.20739 a 25.19169,25.19169 0 0 1 -2.70369,-0.394 6.82727,6.82727 0 0 1 -1.58159,-0.60406 4.15579,4.15579 0 0 1 -1.76458,-1.75244 4.86415,4.86415 0 0 1 -0.58319,-2.41095 5.00886,5.00886 0 0 1 1.4729,-3.70972 q 1.92763,-1.93258 5.78289,-1.9339 m 0,-7 c -4.48474,0 -8.09787,1.34259 -10.739,3.99051 a 11.93645,11.93645 0 0 0 -3.5168,8.65311 11.901,11.901 0 0 0 1.13311,5.16891 l -1.20216,2.85434 a 7,7 0 0 0 3.13034,8.87918 l 0.36084,0.19446 a 6.99077,6.99077 0 0 0 2.96639,0.829 20.9054,20.9054 0 0 0 8.29733,1.74573 19.41133,19.41133 0 0 0 5.464,-0.76233 12.92612,12.92612 0 0 0 6.75767,-4.34137 12.31584,12.31584 0 0 0 1.49463,-12.847 q -0.178,-0.37623 -0.37749,-0.734 l 0.85817,-1.77719 a 7,7 0 0 0 -2.8741,-9.14621 l -0.346,-0.19445 a 6.98924,6.98924 0 0 0 -3.428,-0.89774 l -0.0665,3.1e-4 a 24.75556,24.75556 0 0 0 -3.2105,-1.06418 19.62079,19.62079 0 0 0 -4.702,-0.55109 z"
       id="path117"
       style="fill:none;stroke:#00ffff;stroke-width:1.88976383;stroke-miterlimit:4;stroke-dasharray:none;stroke-opacity:1"
       inkscape:connector-curvature="0" />
    <path
       d="m 475.11397,48.994454 a 59.72874,59.72874 0 0 1 6.97092,-0.51806 52.25273,52.25273 0 0 1 10.80988,1.17779 49.29168,49.29168 0 0 1 7.67648,2.56114 19.78608,19.78608 0 0 1 7.39037,4.97923 11.63082,11.63082 0 0 1 3.3292,6.21535 c 0.13334,2.257 0.41669,4.65422 -0.52778,6.78758 a 13.56747,13.56747 0 0 1 -3.075,5.14033 28.02737,28.02737 0 0 1 -7.82231,5.09868 47.1913,47.1913 0 0 1 -5.17367,2.31252 c -3.2056,1.15279 -6.39174,2.375 -9.69039,3.23754 -3.49032,0.8764 -6.84731,2.1903 -10.23762,3.37782 a 38.23263,38.23263 0 0 0 -11.83764,6.35424 6.98808,6.98808 0 0 0 -1.20974,1.71113 c 0.76112,0.6264 1.807,0.46112 2.72781,0.51529 15.51129,-0.03056 31.02259,-0.007 46.53388,-0.01112 a 4.84971,4.84971 0 0 0 2.23753,-0.40695 13.44105,13.44105 0 0 1 2.38614,-1.38334 32.43248,32.43248 0 0 1 0.24722,5.398666 c -0.043,2.49864 0.0611,5.00145 -0.10694,7.49592 q -0.51044,0.0792 -1.01391,0.1625 c -0.6125,-0.54861 -1.09029,-1.35973 -1.9278,-1.58057 a 12.397,12.397 0 0 0 -2.93614,-0.25556 q -31.95038,0.0417 -63.89936,0.0167 a 1.10533,1.10533 0 0 1 -1.18752,-0.75279 18.05457,18.05457 0 0 1 1.60558,-7.866756 c 1.70557,-4.09866 5.20422,-7.03064 8.53343,-9.80011 a 61.43135,61.43135 0 0 1 7.30564,-4.08755 c 1.43613,-0.7 2.83476,-1.48752 4.33339,-2.04864 2.23613,-0.85695 4.42644,-1.83057 6.6848,-2.63058 3.18753,-1.12641 6.33479,-2.35975 9.49733,-3.55421 a 66.51306,66.51306 0 0 0 8.77649,-4.01116 13.11821,13.11821 0 0 0 4.97089,-5.42229 c 0.80557,-1.91669 -0.1625,-4.1056 -1.44585,-5.564 -3.38754,-2.9917 -8.04315,-3.78755 -12.40292,-4.08894 a 30.86139,30.86139 0 0 0 -18.471,5.92924 10.34962,10.34962 0 0 0 -2.6292,2.36947 11.52009,11.52009 0 0 0 -1.3,2.31392 c -0.33612,0.9389 0.0208,1.9528 -0.0236,2.91392 -0.18334,0.52084 -0.92918,0.432 -1.26252,0.11389 -1.91808,-1.5403 -3.48337,-3.46254 -5.37367,-5.03339 -1.55558,-1.30974 -2.89309,-2.85281 -4.44033,-4.17227 -0.507,-0.53057 -1.26113,-1.02224 -1.25557,-1.83891 0.90695,-0.34445 1.94863,-0.22362 2.82225,-0.68473 1.86391,-1.05 3.49032,-2.46253 5.32506,-3.56116 a 45.28362,45.28362 0 0 1 9.9029,-4.84033 41.42367,41.42367 0 0 1 9.1833,-2.06942 z"
       id="path119"
       style="fill:#ffffff;stroke:none;stroke-width:1.88976383;stroke-miterlimit:4;stroke-dasharray:none;stroke-opacity:1;fill-opacity:1"
       inkscape:connector-curvature="0" />
    <path
       d="m 394.72163,47.776034 a 76.61631,76.61631 0 0 1 11.339,-1.29863 59.58339,59.58339 0 0 1 12.69875,0.74446 50.61659,50.61659 0 0 1 7.04037,1.73335 35.62638,35.62638 0 0 1 7.05147,3.51532 13.91477,13.91477 0 0 1 5.82229,7.49036 11.75905,11.75905 0 0 1 -0.0583,6.14035 9.67633,9.67633 0 0 1 -1.89864,3.52782 11.6482,11.6482 0 0 1 -3.30559,2.24309 c -1.29168,0.73612 -2.74587,1.10418 -4.07783,1.757 0.21806,0.24584 0.28473,0.71806 0.6139,0.89029 a 46.56584,46.56584 0 0 1 4.85145,1.975 21.65532,21.65532 0 0 1 6.07229,4.75006 11.588,11.588 0 0 1 2.39586,5.36673 10.59408,10.59408 0 0 1 0.14028,3.71115 12.0855,12.0855 0 0 1 -3.13476,6.47091 27.87306,27.87306 0 0 1 -9.06955,5.795896 47.39337,47.39337 0 0 1 -9.92373,2.67781 c -6.5848,1.07363 -13.29321,0.86807 -19.93495,0.60973 a 90.39689,90.39689 0 0 1 -13.38349,-1.982 70.2657,70.2657 0 0 1 -10.09179,-3.54031 14.96041,14.96041 0 0 0 -3.56949,-1.276406 c -1.03751,-0.04444 -2.05,0.28056 -3.08614,0.27778 a 0.66452,0.66452 0 0 1 -0.50557,-0.88056 17.1349,17.1349 0 0 1 1.47224,-2.69031 c 1.34724,-2.17364 2.65281,-4.37228 4.00838,-6.54036 a 28.21159,28.21159 0 0 1 1.782,-2.80975 1.0127,1.0127 0 0 1 1.6278,0.09583 c 0.59306,1.17224 0.88056,2.60281 2.032,3.39587 a 28.451,28.451 0 0 0 9.30566,4.56673 53.79989,53.79989 0 0 0 8.107,1.76252 59.73908,59.73908 0 0 0 15.9738,0.42778 38.21353,38.21353 0 0 0 7.81537,-1.90141 10.69945,10.69945 0 0 0 5.30006,-4.42922 c 1.46252,-2.35975 0.25833,-5.62229 -1.94585,-7.0612 -3.01532,-2.48475 -6.95565,-3.36254 -10.73624,-3.85282 a 50.1529,50.1529 0 0 0 -9.38901,-0.46806 18.10735,18.10735 0 0 0 -5.8209,0.86946 c -0.807,0.27778 -1.36669,1.07084 -2.22224,1.225 -0.74446,-0.27084 -0.51806,-1.20279 -0.57223,-1.80974 0.0472,-3.50143 -0.12084,-7.01536 0.1125,-10.50985 1.26946,-0.07917 2.15558,1.0014 3.3681,1.17224 4.36394,1.04862 8.90982,0.49306 13.30987,-0.0056 2.47642,-0.49723 5.15145,-0.75695 7.23065,-2.34447 a 8.82166,8.82166 0 0 0 2.87086,-3.3681 4.65474,4.65474 0 0 0 -1.5,-4.77783 14.35865,14.35865 0 0 0 -3.21948,-2.05141 c -2.58058,-1.15835 -5.42784,-1.40141 -8.19871,-1.7653 a 40.27958,40.27958 0 0 0 -8.41954,0.30556 37.43347,37.43347 0 0 0 -11.01818,2.86392 22.79659,22.79659 0 0 0 -5.79591,3.51671 5.36425,5.36425 0 0 0 -1.03195,3.44448 c -0.0222,0.60557 -0.7764,1.14446 -1.3,0.72362 -3.18754,-2.82364 -5.93062,-6.1084 -9.01955,-9.03622 -0.38889,-0.432 -0.92779,-0.79723 -1.10418,-1.37779 a 3.60021,3.60021 0 0 1 0.3,-0.84445 6.48276,6.48276 0 0 0 3.39726,-0.28056 c 2.9,-1.42363 5.66256,-3.12643 8.61815,-4.43894 a 61.71378,61.71378 0 0 1 8.67647,-2.70557 z"
       id="path127"
       style="fill:#ffffff;stroke:#00ffff;stroke-width:1.88976383;stroke-miterlimit:4;stroke-dasharray:none;stroke-opacity:1;fill-opacity:1"
       inkscape:connector-curvature="0" />
    <path
       d="m 525.67063,46.457464 c 7.07092,-0.27956 14.15294,-0.02107 21.228,-0.14048 0.69445,0.0604 1.51529,-0.15173 2.12363,0.30906 -0.34443,0.66449 -0.86527,1.218 -1.17362,1.90356 2.28476,2.58069 4.8695,4.872 7.15564,7.45408 2.59864,2.70853 5.28062,5.33558 7.889,8.03568 0.39028,0.41583 1.03335,0.9567 1.60974,0.54929 1.54863,-1.225 2.8042,-2.78439 4.23338,-4.14708 3.50282,-3.43624 6.76814,-7.10709 10.2904,-10.52506 0.43612,-0.51277 1.18335,-1.00727 0.9889,-1.80522 -0.32917,-0.51417 -0.71945,-0.98479 -1.0014,-1.52706 a 31.42584,31.42584 0 0 1 5.24451,-0.23742 c 5.83618,0.04214 11.67375,-0.01264 17.51132,0.0098 0.55417,-0.09834 0.62917,0.628 0.84723,0.95248 -1.2264,0.53946 -2.57364,0.71647 -3.79032,1.277 -1.97919,0.85977 -3.28338,2.679 -4.81117,4.13023 -2.29308,2.22527 -4.39033,4.643 -6.66536,6.88512 -3.04864,3.09767 -6.13062,6.16163 -9.15566,9.28178 -1.36668,1.56639 -2.89031,2.98107 -4.31255,4.49127 -0.34306,0.37369 -0.675,1.03115 -0.30139,1.48913 1.40835,1.83753 3.26948,3.248 4.782,4.99421 1.34586,1.2194 2.425,2.69448 3.7056,3.9785 3.53894,3.58375 7.0987,7.14923 10.61957,10.75264 1.93474,2.15924 4.02643,4.16957 6.04312,6.251536 a 8.475,8.475 0 0 0 4.00283,2.40368 c 0.88056,0.35824 2.15419,0.39195 2.5167,1.45261 a 20.01542,20.01542 0 0 1 -3.90838,0.25849 q -8.33343,-0.0316 -16.66686,0.003 a 8.15229,8.15229 0 0 1 -2.857,-0.288 c 0.34167,-0.58722 0.9,-1.09437 0.9139,-1.82488 a 5.19435,5.19435 0 0 0 -0.92917,-1.17726 c -1.45141,-1.48491 -2.95282,-2.917846 -4.37645,-4.426646 -3.30142,-3.8605 -7.057,-7.2855 -10.55984,-10.95353 a 15.63275,15.63275 0 0 0 -2.307,-2.15643 c -0.88057,-0.517 -1.482,0.41162 -2.07642,0.89067 -3.38337,3.46012 -6.82647,6.86264 -10.18484,10.34805 -1.91391,2.318 -4.10421,4.37467 -6.214,6.502996 -0.36667,0.38914 -0.86252,0.8415 -0.63473,1.45963 0.22639,0.41583 0.50555,0.805 0.76806,1.20113 -0.10694,0.13066 -0.2125,0.26271 -0.31389,0.39617 -6.707,0.0295 -13.41266,-0.006 -20.11829,0.0239 a 9.97556,9.97556 0 0 1 -2.94309,-0.2627 c 0.23195,-0.42286 0.49445,-0.88927 1.04029,-0.94686 1.56251,-0.55211 3.24587,-0.90472 4.53477,-2.03983 1.7653,-1.58045 3.35,-3.356156 5.04173,-5.018086 5.07784,-5.53507 10.64735,-10.59249 15.64324,-16.20483 1.51252,-1.32616 2.77226,-2.91363 4.28338,-4.24121 a 7.11437,7.11437 0 0 0 1.28335,-1.53268 c 0.23751,-0.83026 -0.57084,-1.33881 -0.99584,-1.905 -0.68201,-0.71787 -1.4,-1.39781 -2.08754,-2.10726 -4.36116,-4.71464 -9.01676,-9.1427 -13.45432,-13.78288 -1.71252,-1.919 -3.57921,-3.6863 -5.36118,-5.53647 a 13.3029,13.3029 0 0 0 -2.83059,-2.4713 c -1.17362,-0.72068 -2.58336,-0.8134 -3.82921,-1.34724 -0.45824,-0.13623 -0.38185,-0.70378 -0.44018,-1.08028 z"
       id="path129"
       style="fill:#ffffff;fill-opacity:1;stroke:#00ffff;stroke-width:1.88976383;stroke-miterlimit:4;stroke-dasharray:none;stroke-opacity:1"
       inkscape:connector-curvature="0" />
    <path
       d="m 447.79316,18.984634 v 10.75844 a 0.9399,0.9399 0 0 0 0.173,0.60922 1.24058,1.24058 0 0 0 0.61784,0.337 v 0.41478 h -4.95257 v -0.41477 a 1.22151,1.22151 0 0 0 0.61289,-0.337 0.9123,0.9123 0 0 0 0.17794,-0.60922 v -14.984 a 0.88869,0.88869 0 0 0 -0.17794,-0.59625 1.22143,1.22143 0 0 0 -0.61289,-0.337 v -0.41478 h 5.7335 v 0.41478 c -0.35586,0.09592 -0.53381,0.29294 -0.53381,0.59625 a 1.06681,1.06681 0 0 0 0.346,0.687 l 9.30212,10.14923 v -10.49928 a 0.9153,0.9153 0 0 0 -0.16801,-0.59625 1.28326,1.28326 0 0 0 -0.62277,-0.337 v -0.41478 h 4.9575 v 0.41478 a 1.24051,1.24051 0 0 0 -0.61784,0.337 0.9155,0.9155 0 0 0 -0.173,0.59625 v 14.984 a 0.94,0.94 0 0 0 0.173,0.60922 1.24058,1.24058 0 0 0 0.61784,0.337 v 0.41478 h -5.31338 v -0.41473 c 0.346,-0.07777 0.519,-0.26443 0.519,-0.55737 0,-0.17369 -0.20265,-0.4744 -0.60795,-0.90734 z"
       id="path137"
       style="fill:none;stroke:#00ffff;stroke-width:1.88976383;stroke-miterlimit:4;stroke-dasharray:none;stroke-opacity:1"
       inkscape:connector-curvature="0" />
    <path
       d="m 489.13369,23.339864 v 4.84778 h 10.85408 a 0.7888,0.7888 0 0 0 0.56346,-0.18147 1.352,1.352 0 0 0 0.32622,-0.6481 h 0.39541 v 4.57563 h -0.39541 a 1.352,1.352 0 0 0 -0.32622,-0.6481 0.7888,0.7888 0 0 0 -0.56346,-0.18147 H 484.6655 v -0.41483 a 1.22151,1.22151 0 0 0 0.61289,-0.337 0.9123,0.9123 0 0 0 0.17794,-0.60922 v -14.97109 a 0.91225,0.91225 0 0 0 -0.17794,-0.60921 1.22143,1.22143 0 0 0 -0.61289,-0.337 v -0.41478 h 15.02573 a 0.78948,0.78948 0 0 0 0.56346,-0.18406 1.37985,1.37985 0 0 0 0.32622,-0.64551 h 0.39541 v 4.57558 h -0.39541 a 1.36671,1.36671 0 0 0 -0.32622,-0.6455 0.78944,0.78944 0 0 0 -0.56346,-0.18406 h -10.55755 v 4.19968 h 6.85054 a 0.78881,0.78881 0 0 0 0.56347,-0.18147 1.3519,1.3519 0 0 0 0.32621,-0.6481 h 0.39542 v 4.47188 h -0.39542 a 1.37086,1.37086 0 0 0 -0.32621,-0.64032 0.76848,0.76848 0 0 0 -0.56347,-0.18924 z"
       id="path139"
       style="fill:none;stroke:#00ffff;stroke-width:1.88976383;stroke-miterlimit:4;stroke-dasharray:none;stroke-opacity:1"
       inkscape:connector-curvature="0" />
    <path
       d="m 538.56042,14.909394 -2.01167,4.166 -0.346,-0.2074 a 1.90321,1.90321 0 0 0 0.0148,-0.20739 c 0,-0.29294 -0.24219,-0.60921 -0.72163,-0.94622 a 8.50188,8.50188 0 0 0 -5.16017,-1.60731 7.22208,7.22208 0 0 0 -2.31317,0.337 2.735,2.735 0 0 0 -1.1813,0.77772 1.67479,1.67479 0 0 0 -0.44978,1.1251 1.39315,1.39315 0 0 0 1.1467,1.361 17.49315,17.49315 0 0 0 2.55042,0.38627 l 1.93752,0.20739 a 15.40078,15.40078 0 0 1 2.79756,0.53144 6.4762,6.4762 0 0 1 1.898,0.94622 4.42541,4.42541 0 0 1 1.32958,1.66951 5.1344,5.1344 0 0 1 0.48933,2.2165 5.19843,5.19843 0 0 1 -1.15166,3.31567 6.11745,6.11745 0 0 1 -3.22756,1.95467 12.34744,12.34744 0 0 1 -3.49447,0.47959 14.26242,14.26242 0 0 1 -6.60835,-1.68506 3.45087,3.45087 0 0 0 -0.83037,-0.337 1.00649,1.00649 0 0 0 -0.50415,0.28516 l -0.36081,-0.19443 1.82879,-4.34226 0.36081,0.18147 v 0.1685 a 1.44536,1.44536 0 0 0 0.52887,1.07585 6.63122,6.63122 0 0 0 2.48616,1.2962 10.31415,10.31415 0 0 0 3.18308,0.5444 6.20475,6.20475 0 0 0 2.80744,-0.58329 2.7531,2.7531 0 0 0 1.02808,-0.85808 1.92007,1.92007 0 0 0 0.38058,-1.11992 1.28942,1.28942 0 0 0 -0.90451,-1.25472 11.36689,11.36689 0 0 0 -2.54053,-0.47959 l -1.90787,-0.20739 a 25.1785,25.1785 0 0 1 -2.70364,-0.394 6.82487,6.82487 0 0 1 -1.58166,-0.604 4.15568,4.15568 0 0 1 -1.76453,-1.75246 4.86386,4.86386 0 0 1 -0.58324,-2.41093 5.0088,5.0088 0 0 1 1.47292,-3.70972 q 1.92764,-1.93263 5.78293,-1.93393 a 12.53938,12.53938 0 0 1 3.015,0.34479 22.03654,22.03654 0 0 1 3.47964,1.27028 3.65957,3.65957 0 0 0 0.87979,0.29812 0.98168,0.98168 0 0 0 0.603,-0.29812 z"
       id="path141"
       style="fill:none;stroke:#00ffff;stroke-width:1.88976383;stroke-miterlimit:4;stroke-dasharray:none;stroke-opacity:1"
       inkscape:connector-curvature="0" />
    <path
       d="m 567.19826,29.743074 v -14.984 a 0.88874,0.88874 0 0 0 -0.17793,-0.59625 1.22143,1.22143 0 0 0 -0.61289,-0.337 v -0.41478 h 5.259 v 0.41478 a 1.146,1.146 0 0 0 -0.61289,0.32924 0.92553,0.92553 0 0 0 -0.17794,0.604 v 14.984 a 0.93264,0.93264 0 0 0 0.18288,0.6144 1.15392,1.15392 0 0 0 0.60799,0.33183 v 0.41478 h -5.259 v -0.41477 a 1.22151,1.22151 0 0 0 0.61289,-0.337 0.91235,0.91235 0 0 0 0.17789,-0.60923 z"
       id="path143"
       style="fill:none;stroke:#00ffff;stroke-width:1.88976383;stroke-miterlimit:4;stroke-dasharray:none;stroke-opacity:1"
       inkscape:connector-curvature="0" />
    <path
       d="m 609.36421,14.909394 -2.01167,4.166 -0.346,-0.2074 a 1.90321,1.90321 0 0 0 0.0148,-0.20739 c 0,-0.29294 -0.24219,-0.60921 -0.72163,-0.94622 a 8.50188,8.50188 0 0 0 -5.16015,-1.60729 7.222,7.222 0 0 0 -2.31317,0.337 2.7349,2.7349 0 0 0 -1.1813,0.77772 1.67475,1.67475 0 0 0 -0.44979,1.1251 1.39316,1.39316 0 0 0 1.1467,1.361 17.49364,17.49364 0 0 0 2.55042,0.38627 l 1.93753,0.20739 a 15.40065,15.40065 0 0 1 2.79755,0.53144 6.47613,6.47613 0 0 1 1.898,0.94622 4.42541,4.42541 0 0 1 1.32958,1.66951 5.1344,5.1344 0 0 1 0.48932,2.2165 5.19842,5.19842 0 0 1 -1.15164,3.31567 6.11745,6.11745 0 0 1 -3.22756,1.95467 12.34744,12.34744 0 0 1 -3.49447,0.47959 14.26242,14.26242 0 0 1 -6.60836,-1.68506 3.4507,3.4507 0 0 0 -0.83037,-0.337 1.00647,1.00647 0 0 0 -0.50415,0.28516 l -0.36081,-0.19443 1.82879,-4.34226 0.36081,0.18147 v 0.1685 a 1.44536,1.44536 0 0 0 0.52887,1.07585 6.63114,6.63114 0 0 0 2.48616,1.2962 10.31415,10.31415 0 0 0 3.18308,0.5444 6.20475,6.20475 0 0 0 2.80744,-0.58329 2.7531,2.7531 0 0 0 1.02808,-0.85808 1.92007,1.92007 0 0 0 0.38058,-1.11992 1.28942,1.28942 0 0 0 -0.90451,-1.25472 11.36689,11.36689 0 0 0 -2.54053,-0.47959 l -1.90787,-0.20739 a 25.1785,25.1785 0 0 1 -2.70364,-0.394 6.82487,6.82487 0 0 1 -1.58166,-0.604 4.15568,4.15568 0 0 1 -1.76453,-1.75246 4.86375,4.86375 0 0 1 -0.58324,-2.41093 5.0088,5.0088 0 0 1 1.47292,-3.70972 q 1.92763,-1.93263 5.78292,-1.93393 a 12.53926,12.53926 0 0 1 3.015,0.34479 22.03624,22.03624 0 0 1 3.47965,1.27028 3.65957,3.65957 0 0 0 0.87979,0.29812 0.98168,0.98168 0 0 0 0.603,-0.29812 z"
       id="path145"
       style="fill:none;stroke:#00ffff;stroke-width:1.88976383;stroke-miterlimit:4;stroke-dasharray:none;stroke-opacity:1"
       inkscape:connector-curvature="0" />
    <path
       inkscape:connector-curvature="0"
       id="path1089"
       d="m 370.99504,31.914998 c -5.10678,-1.236083 -8.14265,-5.847504 -7.38514,-11.217871 0.94487,-6.698705 8.02667,-10.15583 15.57999,-7.605689 1.5677,0.529286 2.13401,0.636849 2.36102,0.448447 0.37802,-0.313727 1.77582,0.460532 1.66529,0.922429 -0.10075,0.42108 -2.2615,5.105617 -2.45593,5.324484 -0.24685,0.277892 -1.76217,-0.72351 -1.76217,-1.164536 0,-0.878419 -3.72385,-1.910091 -5.62689,-1.558897 -2.15238,0.397207 -3.59752,1.679684 -4.1956,3.723353 -0.77342,2.642797 0.44167,5.235386 2.97186,6.34093 1.05902,0.462733 3.76072,0.456712 5.37294,-0.01197 1.09237,-0.317558 1.25762,-0.437088 1.25762,-0.909628 0,-0.5303 -0.0417,-0.544028 -1.65053,-0.544028 -1.32042,0 -1.65052,0.06602 -1.65052,0.330105 0,0.244523 -0.25675,0.330106 -0.99032,0.330106 h -0.99032 v -2.860916 -2.860915 h 0.96465 c 0.77957,0 0.98673,0.08445 1.07975,0.440141 0.11028,0.421719 0.30018,0.440141 4.53711,0.440141 h 4.42201 V 22.471 c 0,0.843604 -0.0652,0.990317 -0.44014,0.990317 -0.40754,0 -0.44014,0.146714 -0.44014,1.980634 0,1.83392 0.0326,1.980634 0.44014,1.980634 0.35601,0 0.44014,0.146714 0.44014,0.767486 0,0.66086 -0.12705,0.847691 -0.91452,1.3448 -3.51107,2.21644 -8.98854,3.251928 -12.5903,2.380131 z m 7.22848,-1.948735 c 0.72385,-0.200083 1.86334,-0.609376 2.53219,-0.909541 l 1.2161,-0.545754 -0.0795,-2.579845 c -0.0437,-1.418915 -0.0974,-2.599839 -0.11917,-2.624275 -0.0218,-0.02444 -1.52165,-0.05931 -3.33297,-0.0775 -2.63695,-0.02648 -3.2933,0.02623 -3.2933,0.264501 0,0.230494 0.60771,0.311503 2.69586,0.359365 l 2.69587,0.06179 v 1.836879 c 0,2.069581 0.004,2.063117 -1.76112,2.798247 -1.03532,0.431172 -1.60664,0.505231 -3.96072,0.513417 -2.64655,0.0092 -2.79557,-0.01519 -3.92944,-0.643229 -1.46703,-0.812572 -2.75237,-2.247691 -3.20632,-3.579954 -0.19547,-0.573679 -0.34655,-1.743979 -0.34646,-2.683656 2.9e-4,-2.782503 1.28352,-4.885608 3.80216,-6.231453 0.80265,-0.428893 1.25885,-0.496509 3.34996,-0.496509 2.4761,0 2.57769,0.02472 5.52532,1.344336 0.22441,0.100464 0.91272,-1.158719 0.72129,-1.319502 -0.32815,-0.275609 -3.72048,-1.257152 -4.75565,-1.376008 -0.69899,-0.08026 -1.34365,-0.254717 -1.43257,-0.38769 -0.11169,-0.167003 -0.16273,-0.156699 -0.16506,0.03332 -0.002,0.177829 -0.3453,0.275088 -0.9705,0.275088 -1.37368,0 -3.56898,0.737104 -4.92271,1.652867 -4.5367,3.068982 -4.33852,10.728102 0.34867,13.474978 1.99157,1.167138 3.0011,1.398827 5.65121,1.296966 1.33142,-0.05118 3.01301,-0.25675 3.73686,-0.456833 z"
       style="opacity:1;vector-effect:none;fill:#fffffe;fill-opacity:1;stroke:none;stroke-width:0.41588113;stroke-linecap:butt;stroke-linejoin:miter;stroke-miterlimit:4;stroke-dasharray:none;stroke-dashoffset:0;stroke-opacity:1" />
    <path
       inkscape:connector-curvature="0"
       id="path1093"
       d="m 408.92768,25.772053 v -3.411092 l 4.01629,0.0496 4.01628,0.04961 -3.90625,0.06551 -3.90625,0.06551 v 3.182348 3.182349 l 5.88688,0.06236 5.88689,0.06236 -5.99692,0.05127 -5.99692,0.05127 z"
       style="opacity:1;vector-effect:none;fill:#fffffe;fill-opacity:1;stroke:none;stroke-width:0.41588113;stroke-linecap:butt;stroke-linejoin:miter;stroke-miterlimit:4;stroke-dasharray:none;stroke-dashoffset:0;stroke-opacity:1" />
    <path
       inkscape:connector-curvature="0"
       id="path1095"
       d="m 420.81148,32.374165 c 0,-0.287479 -1.05144,-0.330105 -8.1426,-0.330105 h -8.14261 v -1.01092 c 0,-0.82584 0.0806,-1.031992 0.44014,-1.126019 0.42934,-0.112275 0.44014,-0.30018 0.44014,-7.656195 0,-7.356015 -0.0108,-7.54392 -0.44014,-7.656195 -0.35956,-0.09403 -0.44014,-0.300179 -0.44014,-1.126019 v -1.01092 h 8.03257 c 6.99335,0 8.03257,-0.04271 8.03257,-0.330105 0,-0.2054 0.20785,-0.330106 0.55018,-0.330106 0.40346,0 0.55017,0.117371 0.55017,0.440141 0,0.293427 0.14672,0.440141 0.44015,0.440141 0.41568,0 0.44014,0.146713 0.44014,2.640845 v 2.640845 h -0.96465 c -0.78272,0 -0.98658,-0.08383 -1.08089,-0.444487 -0.11275,-0.431153 -0.26042,-0.442706 -4.92223,-0.385124 l -4.806,0.05936 -0.066,1.265405 -0.066,1.265405 h 3.00253 c 2.81746,0 3.00964,-0.02713 3.11764,-0.440141 0.093,-0.355694 0.30018,-0.440141 1.07975,-0.440141 h 0.96465 v 3.080986 3.080986 h -0.96465 c -0.78426,0 -0.98649,-0.08352 -1.08145,-0.44666 -0.11106,-0.424678 -0.26124,-0.443631 -3.05164,-0.385123 l -2.93483,0.06154 v 1.540493 1.540493 l 4.91605,0.05928 c 4.77189,0.05754 4.91947,0.04625 5.03227,-0.385124 0.0943,-0.360559 0.29821,-0.444403 1.08087,-0.444403 h 0.96465 v 3.080986 3.080986 h -0.99032 c -0.73357,0 -0.99032,-0.08558 -0.99032,-0.330105 z m 0.44014,-2.75088 v -0.660211 h -6.05193 -6.05194 v -3.191021 -3.191021 h 3.96127 3.96127 l 1.4e-4,-0.605194 1.4e-4,-0.605194 h -4.01643 -4.01642 l -0.0614,-2.915933 -0.0614,-2.915933 h 5.94828 5.94829 v -0.663347 -0.663346 l -6.82548,0.05815 -6.82549,0.05815 -0.0517,7.977597 -0.0517,7.977597 7.09727,-4.4e-5 7.09727,-4.5e-5 z"
       style="opacity:1;vector-effect:none;fill:#fffffe;fill-opacity:1;stroke:none;stroke-width:0.41588113;stroke-linecap:butt;stroke-linejoin:miter;stroke-miterlimit:4;stroke-dasharray:none;stroke-dashoffset:0;stroke-opacity:1" />
    <path
       inkscape:connector-curvature="0"
       id="path1099"
       d="m 442.81853,30.943708 c 0,-0.831378 0.0807,-1.100352 0.3301,-1.100352 0.28705,0 0.33011,-0.990317 0.33011,-7.59243 0,-6.602113 -0.0431,-7.59243 -0.33011,-7.59243 -0.24941,0 -0.3301,-0.268975 -0.3301,-1.100352 v -1.100352 h 3.76153 3.76153 l -0.0754,1.189812 -0.0754,1.189811 2.86092,3.124224 c 1.5735,1.718323 3.22806,3.534911 3.6768,4.036861 l 0.81588,0.912637 0.009,-4.100653 c 0.009,-3.919627 -0.01,-4.105735 -0.43076,-4.215753 -0.35956,-0.09403 -0.44014,-0.300179 -0.44014,-1.126019 v -1.01092 h 3.41109 3.4111 v 1.100352 c 0,0.831377 -0.0807,1.100352 -0.33011,1.100352 -0.28705,0 -0.33011,0.990317 -0.33011,7.59243 0,6.602113 0.0431,7.59243 0.33011,7.59243 0.24941,0 0.33011,0.268974 0.33011,1.100352 v 1.100352 h -3.52113 -3.52113 l -0.002,-1.15537 -0.002,-1.15537 -3.64562,-3.961267 c -2.00511,-2.178697 -3.73723,-4.055348 -3.84917,-4.170335 -0.12486,-0.128251 -0.20353,1.424257 -0.20353,4.016285 0,3.609155 0.0481,4.225353 0.3301,4.225353 0.24942,0 0.33011,0.268974 0.33011,1.100352 v 1.100352 h -3.30106 -3.30105 z m 3.97249,-7.427377 c -0.0158,-3.661422 0.0495,-6.655975 0.14511,-6.654562 0.30091,0.0044 11.15695,11.884398 11.58967,12.682775 0.38559,0.711426 0.47537,0.756558 1.3823,0.69488 l 0.96993,-0.06596 -0.001,-7.922535 -10e-4,-7.922535 h -0.72102 -0.72101 l -0.11003,6.552942 -0.11004,6.552942 -5.4812,-5.988403 c -3.01467,-3.293622 -5.58805,-6.27145 -5.71863,-6.617397 -0.22639,-0.599782 -0.29377,-0.625999 -1.45101,-0.564538 l -1.21359,0.06445 -0.0579,7.701213 c -0.0319,4.235667 -0.008,7.831891 0.0535,7.991609 0.0679,0.177034 0.37754,0.263432 0.7931,0.221322 l 0.68167,-0.06907 z"
       style="opacity:1;vector-effect:none;fill:#fffffe;fill-opacity:1;stroke:none;stroke-width:0.41588113;stroke-linecap:butt;stroke-linejoin:miter;stroke-miterlimit:4;stroke-dasharray:none;stroke-dashoffset:0;stroke-opacity:1" />
    <path
       inkscape:connector-curvature="0"
       id="path1101"
       d="m 484.51063,22.250926 c 7e-5,-4.115317 0.0298,-5.767758 0.066,-3.67209 0.0362,2.095667 0.0361,5.462744 -1.4e-4,7.482394 -0.0363,2.01965 -0.0659,0.305013 -0.0658,-3.810304 z"
       style="opacity:1;vector-effect:none;fill:#fffffe;fill-opacity:1;stroke:none;stroke-width:0.41588113;stroke-linecap:butt;stroke-linejoin:miter;stroke-miterlimit:4;stroke-dasharray:none;stroke-dashoffset:0;stroke-opacity:1" />
    <path
       inkscape:connector-curvature="0"
       id="path1103"
       d="m 500.1006,32.484201 c -0.11247,-0.430105 -0.30018,-0.440141 -8.23204,-0.440141 h -8.11694 v -1.074685 c 0,-0.889605 0.0758,-1.094507 0.44014,-1.189785 0.42916,-0.112226 0.44015,-0.300179 0.44015,-7.528664 0,-7.228485 -0.011,-7.416438 -0.44015,-7.528664 -0.36434,-0.09528 -0.44014,-0.30018 -0.44014,-1.189785 v -1.074685 h 7.94314 c 7.75806,0 7.94582,-0.01025 8.05824,-0.440141 0.12419,-0.474905 0.29956,-0.51402 1.35668,-0.302597 l 0.68772,0.137544 v 3.163513 3.163512 h -0.96465 c -0.77957,0 -0.98673,-0.08445 -1.07975,-0.440141 -0.11062,-0.422998 -0.30018,-0.440141 -4.86722,-0.440141 h -4.75211 v 1.210388 1.210387 h 2.88151 c 2.69644,0 2.88892,-0.02827 2.99662,-0.440141 0.0953,-0.36434 0.30018,-0.440141 1.18979,-0.440141 h 1.07468 v 3.080986 3.080986 h -1.10035 c -0.83138,0 -1.10035,-0.08069 -1.10035,-0.330105 0,-0.277126 -0.47682,-0.330106 -2.97095,-0.330106 h -2.97095 v 1.430458 1.430458 h 4.95158 c 4.2547,0 4.95159,-0.04646 4.95159,-0.330106 0,-0.249413 0.26897,-0.330106 1.10035,-0.330106 h 1.10035 v 3.191021 3.191022 h -1.01092 c -0.82584,0 -1.03199,-0.08058 -1.12602,-0.440141 z m 0.15645,-2.805898 1.4e-4,-0.605194 -6.05208,0.06182 -6.05208,0.06182 v -3.417891 -3.417892 h 4.07131 c 3.92458,0 4.0713,-0.01586 4.0713,-0.440141 0,-0.424304 -0.14672,-0.44014 -4.07752,-0.44014 h -4.07751 l 0.0612,-3.025969 0.0612,-3.025968 h 5.88696 5.88696 l -8e-5,-0.605194 -7e-5,-0.605193 h -6.82219 -6.82218 v 8.03257 8.03257 h 6.93222 6.93222 z"
       style="opacity:1;vector-effect:none;fill:#fffffe;fill-opacity:1;stroke:none;stroke-width:0.41588113;stroke-linecap:butt;stroke-linejoin:miter;stroke-miterlimit:4;stroke-dasharray:none;stroke-dashoffset:0;stroke-opacity:1" />
    <path
       inkscape:connector-curvature="0"
       id="path1105"
       d="m 527.4356,31.939949 c -0.72623,-0.159054 -1.90581,-0.548916 -2.62129,-0.86636 -0.71558,-0.31749 -1.48444,-0.518907 -1.70888,-0.447673 -0.23146,0.07346 -0.7296,-0.06926 -1.15121,-0.329826 l -0.7432,-0.459323 1.22528,-2.912639 c 0.6739,-1.601951 1.24783,-2.944305 1.27539,-2.983009 0.0276,-0.0387 0.45582,0.136615 0.95171,0.389596 0.67691,0.345338 0.9016,0.591488 0.9016,0.987721 0,1.559037 5.34021,2.756865 7.4629,1.673953 1.05075,-0.536055 1.31275,-1.267925 0.55679,-1.555342 -0.2905,-0.110446 -1.79288,-0.356088 -3.33863,-0.54587 -4.3544,-0.534619 -5.65191,-1.001026 -6.86803,-2.468811 -2.05176,-2.476343 -1.55302,-6.568375 1.04206,-8.549864 1.58027,-1.206625 2.84428,-1.526284 5.98646,-1.513928 2.6125,0.01027 2.86081,0.0515 4.93594,0.819533 1.51936,0.562332 2.26627,0.741325 2.45159,0.587518 0.18519,-0.153693 0.50898,-0.07815 1.06098,0.247539 0.43695,0.257806 0.7957,0.533229 0.79722,0.612052 0.002,0.07882 -0.60835,1.399904 -1.35526,2.935734 l -1.35803,2.792418 -0.83727,-0.481679 c -0.46049,-0.264923 -0.8657,-0.679742 -0.90046,-0.921819 -0.0416,-0.289511 -0.51508,-0.666086 -1.38361,-1.100352 -1.19551,-0.597754 -1.52284,-0.660212 -3.46,-0.660212 -1.90103,0 -2.19274,0.05316 -2.61641,0.476832 -0.26225,0.262257 -0.42146,0.621122 -0.35378,0.797476 0.14184,0.369638 0.74571,0.500279 3.78934,0.819781 4.28531,0.449847 6.49028,1.504338 7.58041,3.625204 0.7594,1.47742 0.79679,4.15761 0.077,5.519311 -0.51936,0.982538 -1.8668,2.298224 -2.90184,2.833463 -1.83311,0.947937 -5.81492,1.265936 -8.49677,0.678576 z m 5.65598,-1.683567 c 1.55629,-0.329866 2.6074,-0.886745 3.41947,-1.811643 0.86441,-0.984513 1.24476,-2.150714 1.06601,-3.268538 -0.42539,-2.660292 -2.01267,-3.589676 -7.06047,-4.13405 -4.14709,-0.447238 -4.95159,-0.891614 -4.95159,-2.735086 0,-3.075337 5.04582,-4.147127 9.32821,-1.981418 0.83363,0.421591 1.5382,0.738867 1.5657,0.705059 0.18227,-0.22409 0.57219,-1.100955 0.51257,-1.152683 -0.25071,-0.217504 -1.61213,-0.793615 -2.93376,-1.241475 -1.23098,-0.417141 -2.00477,-0.522614 -3.85124,-0.524952 -2.03876,-0.0026 -2.45597,0.06516 -3.54466,0.575507 -2.8153,1.319736 -3.62561,4.498939 -1.7044,6.687075 0.83637,0.952579 1.98114,1.30368 5.6892,1.744888 3.64595,0.433816 4.32407,0.645005 4.85218,1.511122 0.69976,1.147631 0.45952,2.297024 -0.70795,3.387083 -1.84775,1.725241 -6.09986,1.653842 -9.34212,-0.156869 l -1.12659,-0.629168 -0.24885,0.546169 c -0.13687,0.300393 -0.24885,0.625685 -0.24885,0.72287 0,0.306907 3.41075,1.610905 4.84155,1.851024 1.13492,0.190463 3.31922,0.143828 4.44559,-0.09492 z"
       style="opacity:1;vector-effect:none;fill:#fffffe;fill-opacity:1;stroke:none;stroke-width:0.41588113;stroke-linecap:butt;stroke-linejoin:miter;stroke-miterlimit:4;stroke-dasharray:none;stroke-dashoffset:0;stroke-opacity:1" />
    <path
       inkscape:connector-curvature="0"
       id="path1109"
       d="m 565.39775,31.03314 c 0,-0.82584 0.0806,-1.031992 0.44014,-1.126019 0.42934,-0.112275 0.44014,-0.30018 0.44014,-7.656195 0,-7.430756 -0.007,-7.542831 -0.45363,-7.659722 -0.38466,-0.100592 -0.44321,-0.263416 -0.38512,-1.071002 l 0.0685,-0.952375 3.43751,-0.06046 3.43751,-0.06046 0.13863,0.693163 c 0.23773,1.188646 0.17225,1.518427 -0.30151,1.518427 -0.4316,0 -0.44014,0.146714 -0.44014,7.566763 0,7.381682 0.0108,7.569578 0.44014,7.681862 0.35956,0.09403 0.44014,0.300179 0.44014,1.126019 v 1.01092 h -3.63116 -3.63116 z m 4.56921,-8.727196 -0.0578,-7.977553 h -0.88028 -0.88028 l -0.0578,7.977553 -0.0578,7.977552 h 0.9958 0.99581 z"
       style="opacity:1;vector-effect:none;fill:#fffffe;fill-opacity:1;stroke:none;stroke-width:0.41588113;stroke-linecap:butt;stroke-linejoin:miter;stroke-miterlimit:4;stroke-dasharray:none;stroke-dashoffset:0;stroke-opacity:1" />
    <path
       inkscape:connector-curvature="0"
       id="path1113"
       d="m 597.82446,31.827231 c -0.86579,-0.226965 -1.98553,-0.622525 -2.48831,-0.879022 -0.51039,-0.260381 -1.09815,-0.407955 -1.33076,-0.334125 -0.32548,0.103303 -1.51649,-0.305038 -1.93579,-0.663692 -0.0674,-0.05763 2.3347,-5.859473 2.49038,-6.01516 0.21037,-0.210364 1.62689,0.916563 1.68855,1.343337 0.0825,0.571291 1.21975,1.3805 2.46811,1.756253 0.49613,0.149334 1.76133,0.272913 2.81154,0.27462 1.599,0.0026 2.0105,-0.07205 2.53081,-0.459116 0.81001,-0.602578 0.92674,-1.304115 0.24776,-1.488918 -0.27869,-0.07585 -1.79412,-0.288137 -3.36763,-0.471745 -1.5735,-0.183607 -3.37768,-0.493634 -4.0093,-0.688949 -4.1692,-1.28925 -5.40944,-6.636508 -2.26792,-9.778033 1.42845,-1.42845 3.01958,-2.008819 5.85037,-2.133935 2.41531,-0.106753 3.84192,0.156576 6.40637,1.18252 1.00341,0.401426 1.50368,0.504209 1.66567,0.34222 0.25602,-0.25602 2.01225,0.509361 1.88726,0.822487 -0.0382,0.09565 -0.65965,1.421905 -1.38105,2.947232 l -1.31163,2.773323 -0.82327,-0.462701 c -0.46307,-0.260261 -0.85205,-0.661592 -0.88907,-0.917293 -0.0439,-0.303515 -0.49919,-0.676033 -1.36987,-1.12091 -1.10069,-0.562399 -1.59836,-0.676109 -3.19102,-0.7291 -1.95432,-0.06502 -2.72244,0.147961 -3.18083,0.881989 -0.16526,0.264626 -0.167,0.448793 -0.006,0.610026 0.12703,0.127028 1.74013,0.429555 3.58467,0.672283 4.99472,0.657269 6.54095,1.402846 7.66772,3.697308 1.15405,2.35 0.64825,5.388178 -1.18443,7.114533 -0.83854,0.789897 -2.56575,1.619502 -3.99262,1.917725 -1.75677,0.367173 -4.77047,0.27857 -6.56994,-0.193157 z m 7.44395,-1.967254 c 1.38227,-0.526626 2.72504,-1.810664 2.94583,-2.816971 0.0737,-0.335908 0.17437,-0.740335 0.2237,-0.898727 0.1554,-0.498942 -0.34358,-2.280777 -0.83001,-2.9639 -0.75028,-1.053681 -2.34928,-1.637477 -5.56845,-2.03305 -4.66014,-0.572638 -5.13707,-0.759019 -5.61012,-2.192371 -0.38144,-1.155786 0.27816,-2.434163 1.61178,-3.123808 1.91374,-0.989634 4.98962,-0.78972 7.59098,0.493369 0.88661,0.437308 1.64069,0.761268 1.67574,0.719911 0.035,-0.04136 0.18639,-0.31061 0.33632,-0.59834 0.33713,-0.646971 0.30318,-0.671434 -2.18966,-1.57773 -3.40298,-1.237182 -7.15695,-1.064074 -9.02684,0.416259 -0.9781,0.774332 -1.76056,2.29534 -1.76056,3.422329 0,1.17209 0.75242,2.659738 1.61112,3.185442 0.96459,0.590527 2.00367,0.833072 5.2841,1.233432 4.08509,0.498565 5.0486,1.02704 5.0486,2.769095 0,1.5631 -1.10639,2.629925 -3.3035,3.185364 -2.19506,0.554923 -5.16997,0.0017 -7.37846,-1.372183 l -0.82881,-0.515586 -0.21653,0.569502 c -0.11909,0.313226 -0.21652,0.649142 -0.21652,0.74648 0,0.27068 2.58784,1.340326 4.0713,1.682812 1.86007,0.429433 4.94387,0.272963 6.52999,-0.331329 z"
       style="opacity:1;vector-effect:none;fill:#fffffe;fill-opacity:1;stroke:none;stroke-width:0.41588113;stroke-linecap:butt;stroke-linejoin:miter;stroke-miterlimit:4;stroke-dasharray:none;stroke-dashoffset:0;stroke-opacity:1" />
  </g>
</svg>
