<?xml version="1.0" encoding="UTF-8" standalone="no"?>
<svg
   xmlns:dc="http://purl.org/dc/elements/1.1/"
   xmlns:cc="http://creativecommons.org/ns#"
   xmlns:rdf="http://www.w3.org/1999/02/22-rdf-syntax-ns#"
   xmlns:svg="http://www.w3.org/2000/svg"
   xmlns="http://www.w3.org/2000/svg"
   xmlns:sodipodi="http://sodipodi.sourceforge.net/DTD/sodipodi-0.dtd"
   xmlns:inkscape="http://www.inkscape.org/namespaces/inkscape"
   viewBox="0 0 1000 114.00009"
   version="1.1"
   id="svg148"
   sodipodi:docname="system.svg"
   inkscape:version="0.92.4 (5da689c313, 2019-01-14)"
   inkscape:export-filename="D:\Redman\Desktop\logo-png\sega32x.png"
   inkscape:export-xdpi="362.5"
   inkscape:export-ydpi="362.5">
  <metadata
     id="metadata154">
    <rdf:RDF>
      <cc:Work
         rdf:about="">
        <dc:format>image/svg+xml</dc:format>
        <dc:type
           rdf:resource="http://purl.org/dc/dcmitype/StillImage" />
        <dc:title>logo</dc:title>
      </cc:Work>
    </rdf:RDF>
  </metadata>
  <defs
     id="defs152" />
  <sodipodi:namedview
     pagecolor="#ffffff"
     bordercolor="#666666"
     borderopacity="1"
     objecttolerance="10"
     gridtolerance="10"
     guidetolerance="10"
     inkscape:pageopacity="0"
     inkscape:pageshadow="2"
     inkscape:window-width="1920"
     inkscape:window-height="1017"
     id="namedview150"
     showgrid="false"
     inkscape:pagecheckerboard="true"
     inkscape:zoom="2.272"
     inkscape:cx="338.10903"
     inkscape:cy="57.000046"
     inkscape:window-x="-8"
     inkscape:window-y="-8"
     inkscape:window-maximized="1"
     inkscape:current-layer="svg148" />
  <title
     id="title2">logo</title>
  <path
     style="opacity:1;vector-effect:none;fill:#fffffe;fill-opacity:1;stroke:none;stroke-width:0.41588113;stroke-linecap:butt;stroke-linejoin:miter;stroke-miterlimit:4;stroke-dasharray:none;stroke-dashoffset:0;stroke-opacity:1"
     d=""
     id="path1111"
     inkscape:connector-curvature="0" />
  <g
     id="g900">
    <path
       d="m 409.17485,46.452314 a 47.60333,47.60333 0 0 1 9.5847,0.76956 50.622,50.622 0 0 1 7.04034,1.73334 35.62934,35.62934 0 0 1 7.05149,3.51532 13.91489,13.91489 0 0 1 5.82227,7.49041 11.75884,11.75884 0 0 1 -0.0584,6.14032 9.67565,9.67565 0 0 1 -1.89863,3.52784 6.907,6.907 0 0 1 -1.66368,1.3258 c -0.53674,0.32465 -1.09808,0.61511 -1.6419,0.91724 -1.29171,0.73614 -2.74586,1.10418 -4.07784,1.757 0.21808,0.24578 0.28474,0.718 0.6139,0.89026 0.0251,0.01135 0.0515,0.01947 0.0767,0.03063 a 43.12225,43.12225 0 0 1 4.77481,1.9444 21.65425,21.65425 0 0 1 6.07231,4.75006 11.58794,11.58794 0 0 1 2.39589,5.3667 10.59474,10.59474 0 0 1 0.14027,3.71118 12.08573,12.08573 0 0 1 -3.13479,6.47089 19.34835,19.34835 0 0 1 -1.91001,1.71075 32.26244,32.26244 0 0 1 -7.15952,4.085146 47.39262,47.39262 0 0 1 -9.92376,2.67779 71.87712,71.87712 0 0 1 -11.58634,0.81647 c -2.78501,0 -5.573,-0.0987 -8.3486,-0.20673 a 90.39229,90.39229 0 0 1 -13.38348,-1.98193 70.26529,70.26529 0 0 1 -10.09182,-3.54034 14.9584,14.9584 0 0 0 -3.56945,-1.276366 c -0.0666,-0.0029 -0.13282,-0.0042 -0.19918,-0.0042 -0.96382,0 -1.90873,0.28195 -2.87384,0.28195 h -0.0132 a 0.66452,0.66452 0 0 1 -0.50556,-0.88055 17.135,17.135 0 0 1 1.47224,-2.69037 c 1.34721,-2.17359 2.65282,-4.37226 4.00842,-6.54035 0.20587,-0.31732 0.39611,-0.64575 0.58555,-0.97485 a 12.81545,12.81545 0 0 1 1.19637,-1.8349 1.06987,1.06987 0 0 1 0.8163,-0.36307 0.88244,0.88244 0 0 1 0.81149,0.4589 c 0.59308,1.17224 0.88056,2.60284 2.032,3.39587 a 28.45119,28.45119 0 0 0 9.30565,4.56677 53.80112,53.80112 0 0 0 8.10701,1.76251 56.20057,56.20057 0 0 0 9.38948,0.76688 65.46245,65.46245 0 0 0 6.58434,-0.33914 38.212,38.212 0 0 0 7.81536,-1.90137 9.47552,9.47552 0 0 0 2.15193,-1.11981 11.33583,11.33583 0 0 0 3.14812,-3.30945 c 1.46252,-2.35974 0.25834,-5.62225 -1.94587,-7.06116 -3.01526,-2.48474 -6.95563,-3.36254 -10.7362,-3.85284 a 36.96567,36.96567 0 0 0 -6.77256,-0.48132 c -0.873,0 -1.74607,0.0098 -2.61643,0.01324 q -0.11385,-0.0014 -0.22761,-0.0014 a 18.06906,18.06906 0 0 0 -5.59331,0.87088 c -0.80694,0.27777 -1.36671,1.0708 -2.22223,1.225 -0.74445,-0.27081 -0.51806,-1.20276 -0.57227,-1.80975 0.0342,-2.53259 -0.0409,-5.07159 10e-4,-7.6051 0.0162,-0.96924 0.0466,-1.93781 0.11115,-2.90473 0.0448,-0.0028 0.0889,-0.0041 0.1328,-0.0041 1.19942,9e-5 2.06556,1.0116 3.23528,1.17639 a 23.56055,23.56055 0 0 0 5.52737,0.59543 69.48,69.48 0 0 0 7.78253,-0.601 c 2.35539,-0.473 4.88439,-0.74481 6.91552,-2.13489 0.10437,-0.07141 0.2135,-0.132 0.31513,-0.20959 a 8.82082,8.82082 0 0 0 2.87085,-3.36811 4.65469,4.65469 0 0 0 -1.5,-4.77783 14.36,14.36 0 0 0 -3.21949,-2.05139 c -2.58056,-1.15832 -5.42784,-1.40143 -8.19867,-1.76532 a 22.6666,22.6666 0 0 0 -2.41062,-0.12115 58.59048,58.59048 0 0 0 -6.00893,0.42675 37.43218,37.43218 0 0 0 -11.01819,2.8639 22.79748,22.79748 0 0 0 -5.79589,3.51672 2.91527,2.91527 0 0 0 -0.54926,0.83411 8.02814,8.02814 0 0 0 -0.48273,2.61035 0.94721,0.94721 0 0 1 -0.88286,0.87329 0.65544,0.65544 0 0 1 -0.41713,-0.14966 c -0.24475,-0.2168 -0.47255,-0.45111 -0.71242,-0.673 -2.884,-2.66779 -5.45537,-5.66022 -8.3071,-8.36322 -0.0529,-0.05872 -0.11245,-0.11481 -0.16958,-0.17176 a 3.1267,3.1267 0 0 1 -0.93463,-1.206 3.59919,3.59919 0 0 1 0.3,-0.84448 c 0.50843,0.035 1.03367,0.08835 1.55394,0.08835 a 4.055,4.055 0 0 0 1.84335,-0.36887 c 2.9,-1.42365 5.66252,-3.12647 8.61815,-4.439 a 61.70562,61.70562 0 0 1 8.67645,-2.70556 76.61552,76.61552 0 0 1 11.339,-1.29865 c 1.03618,-0.01223 2.07455,-0.02511 3.11406,-0.02511 m 0,-7 c -1.01849,0 -2.03591,0.01187 -3.05132,0.02383 l -0.14521,0.0017 q -0.11071,0.0013 -0.22137,0.0061 a 84.02978,84.02978 0 0 0 -12.37468,1.42139 q -0.13389,0.02614 -0.26675,0.05744 a 68.9831,68.9831 0 0 0 -9.66005,3.0155 q -0.1266,0.0504 -0.25113,0.10571 c -1.97528,0.87714 -3.78411,1.85706 -5.53334,2.80469 -0.88941,0.48181 -1.74077,0.943 -2.57959,1.37231 l -0.15027,-0.01147 -0.43019,-0.03189 c -0.16171,-0.01114 -0.32334,-0.01666 -0.48365,-0.01666 a 6.99958,6.99958 0 0 0 -6.46482,4.3218 l -0.0201,0.04538 a 9.29253,9.29253 0 0 0 -0.74092,2.47855 7.00009,7.00009 0 0 0 0.23068,3.03381 9.30717,9.30717 0 0 0 2.60048,4.0412 l 0.0887,0.08627 0.0475,0.04691 q 0.1217,0.12758 0.24971,0.24893 c 1.22321,1.15939 2.41332,2.40216 3.67332,3.71787 1.48358,1.54919 3.01766,3.15112 4.6959,4.70352 0.062,0.05737 0.12226,0.11636 0.18284,0.17493 0.21042,0.20346 0.42239,0.40527 0.64171,0.59951 q 0.12545,0.11115 0.2561,0.21613 a 7.69358,7.69358 0 0 0 4.80227,1.69342 7.90426,7.90426 0 0 0 6.19867,-3.06134 c -0.009,0.31445 -0.016,0.642 -0.0217,0.98569 -0.0233,1.39587 -0.0132,2.77371 -0.003,4.10617 0.009,1.22027 0.0173,2.37283 0.002,3.52133 q -0.003,0.22348 0.008,0.44678 v 0.005 a 7.94963,7.94963 0 0 0 5.17039,8.03064 6.99947,6.99947 0 0 0 3.6344,0.31082 9.44386,9.44386 0 0 0 3.79983,-1.64679 11.24249,11.24249 0 0 1 2.77438,-0.3381 l 0.14508,9.1e-4 0.083,4.6e-4 0.0272,-6e-5 1.04679,-0.0061 c 0.51361,-0.0035 1.02776,-0.0071 1.5419,-0.0071 a 30.9977,30.9977 0 0 1 5.49365,0.36352 q 0.18849,0.035 0.37863,0.05969 a 18.39167,18.39167 0 0 1 6.22358,1.66742 2.06026,2.06026 0 0 1 -0.313,0.148 q -0.0848,0.03054 -0.16868,0.06321 a 31.30631,31.30631 0 0 1 -6.183,1.47991 c -1.92277,0.18808 -3.83132,0.28336 -5.67635,0.28336 a 49.37966,49.37966 0 0 1 -8.22015,-0.66852 q -0.1858,-0.03148 -0.37311,-0.053 a 46.69218,46.69218 0 0 1 -6.87382,-1.50965 23.74785,23.74785 0 0 1 -6.45881,-2.9404 l -0.002,-0.0058 c -0.16839,-0.40893 -0.378,-0.91791 -0.65971,-1.4747 a 7.87959,7.87959 0 0 0 -7.05647,-4.29877 8.0317,8.0317 0 0 0 -6.19505,2.8819 18.65246,18.65246 0 0 0 -1.8562,2.77322 l -0.0287,0.04987 c -0.12786,0.22211 -0.25327,0.44452 -0.39171,0.65793 q -0.0319,0.0492 -0.0629,0.09884 c -0.75666,1.21018 -1.4982,2.42957 -2.23962,3.64905 -0.59164,0.97321 -1.18324,1.94644 -1.7833,2.91458 l -0.0417,0.06818 -0.25666,0.41879 a 20.11692,20.11692 0 0 0 -1.68312,3.18839 7.482,7.482 0 0 0 0.163,6.231556 7.76121,7.76121 0 0 0 5.41892,4.21384 6.99839,6.99839 0 0 0 1.38271,0.13794 16.01967,16.01967 0 0 0 2.42638,-0.20917 c 0.28648,0.11588 0.639,0.2728 0.92788,0.40143 l 0.49195,0.21781 a 77.48593,77.48593 0 0 0 11.073,3.88592 q 0.0782,0.0211 0.15681,0.0405 a 97.54625,97.54625 0 0 0 14.4169,2.1553 q 0.18261,0.0167 0.36586,0.0238 c 2.7579,0.1073 5.69529,0.212 8.62071,0.212 a 77.91948,77.91948 0 0 0 12.6677,-0.90039 54.57116,54.57116 0 0 0 11.34801,-3.05771 q 0.14481,-0.0555 0.28708,-0.1174 a 38.56046,38.56046 0 0 0 8.70141,-5.00745 26.17794,26.17794 0 0 0 2.55908,-2.29144 18.93373,18.93373 0 0 0 5.01744,-10.021446 15.50623,15.50623 0 0 0 -0.004,-5.54172 l -0.0633,-0.454 a 18.39883,18.39883 0 0 0 -3.73705,-8.64978 7.00464,7.00464 0 0 0 -0.49424,-0.58817 35.22318,35.22318 0 0 0 -3.26632,-3.08566 17.67607,17.67607 0 0 0 2.51024,-4.94461 q 0.0186,-0.05288 0.0363,-0.106 a 18.39737,18.39737 0 0 0 0.26763,-9.80218 q -0.0474,-0.225 -0.10966,-0.4465 a 20.62679,20.62679 0 0 0 -8.63271,-11.39185 q -0.14724,-0.09984 -0.2994,-0.19211 a 42.05747,42.05747 0 0 0 -8.45755,-4.1673 q -0.13353,-0.04471 -0.26876,-0.084 l -0.69853,-0.2041 a 52.45354,52.45354 0 0 0 -7.102,-1.70777 55.00954,55.00954 0 0 0 -10.77931,-0.8695 z m -6.7025,23.56427 q 0.58686,-0.08195 1.16486,-0.13483 l 0.0823,-0.008 0.33434,-0.03463 a 49.53323,49.53323 0 0 1 4.95466,-0.355 15.78674,15.78674 0 0 1 1.59407,0.074 q 0.4744,0.06184 0.95109,0.121 c 0.65136,0.08185 1.291,0.1622 1.90279,0.25382 q -0.14745,0.02791 -0.29425,0.05639 l -0.0445,0.005 a 60.50791,60.50791 0 0 1 -6.66448,0.519 16.912,16.912 0 0 1 -3.73286,-0.36465 q -0.11616,-0.06235 -0.2481,-0.13214 z"
       id="path81"
       style="fill:none;stroke:#00ffff;stroke-width:1.88976383;stroke-miterlimit:4;stroke-dasharray:none;stroke-opacity:1"
       inkscape:connector-curvature="0" />
    <path
       d="m 582.16352,110.6087 c -0.12744,-0.007 -0.25586,-0.008 -0.38526,-0.008 l -0.44384,10e-4 a 7.74771,7.74771 0 0 1 -3.22266,-0.56592 3.5,3.5 0 0 1 -1.85547,-4.50732 q -0.48926,-0.49073 -0.981,-0.97852 c -0.91211,-0.90771 -1.82373,-1.81543 -2.70605,-2.751 -0.0391,-0.0415 -0.0771,-0.084 -0.11426,-0.127 -2.0293,-2.373526 -4.22314,-4.560046 -6.5459,-6.874506 -1.25928,-1.25488 -2.56054,-2.55176 -3.8247,-3.87353 -0.2793,-0.26709 -0.54786,-0.5503 -0.81495,-0.83594 -0.0869,-0.09277 -0.17724,-0.189 -0.2666,-0.28223 a 3.49979,3.49979 0 0 1 -2.30566,-5.95166 l 1.28369,-1.29931 a 3.51817,3.51817 0 0 1 0.30615,-0.27832 c 0.0376,-0.03321 0.0894,-0.085 0.14307,-0.13672 a 5.1431,5.1431 0 0 1 3.61719,-1.68115 4.52248,4.52248 0 0 1 2.2832,0.63281 11.07324,11.07324 0 0 1 2.35937,2.03515 c 0.1875,0.2002 0.37354,0.40235 0.57129,0.58789 0.0469,0.04395 0.0923,0.08887 0.13672,0.13526 1.22315,1.28125 2.51465,2.56836 3.76367,3.813 2.29786,2.28955 4.67286,4.65674 6.86768,7.21631 0.812,0.85839 1.65039,1.6914 2.48828,2.52539 0.59863,0.59619 1.19775,1.19238 1.78857,1.79687 0.0444,0.04541 0.2959,0.32031 0.2959,0.32031 a 6.76365,6.76365 0 0 1 1.311,1.842286 l 0.0308,0.0684 q 2.77515,-0.011 5.55176,-0.01 3.8313,0 7.66406,0.0127 a 3.503,3.503 0 0 1 1.42089,0.30566 5.07282,5.07282 0 0 0 0.75293,0.27979 3.50826,3.50826 0 0 1 0.40771,0.13769 c 0.10645,0.04 0.23,0.0698 0.354,0.10449 a 5.5591,5.5591 0 0 1 4.15576,3.4585 3.50036,3.50036 0 0 1 -2.59668,4.55762 20.62415,20.62415 0 0 1 -4.17285,0.32861 l -0.41651,0.003 c -2.8208,-0.0107 -5.59472,-0.0166 -8.36816,-0.0166 q -4.15869,0 -8.31592,0.0195 h -0.0176 c -0.0664,5e-5 -0.13272,-0.002 -0.19961,-0.006 z"
       id="path71"
       style="fill:none;stroke:#00ffff;stroke-width:1.88976383;stroke-miterlimit:4;stroke-dasharray:none;stroke-opacity:1"
       inkscape:connector-curvature="0" />
    <path
       d="m 483.97988,46.757594 a 54.92614,54.92614 0 0 1 10.12458,1.18543 49.29125,49.29125 0 0 1 7.6765,2.56115 19.78617,19.78617 0 0 1 7.39039,4.97919 11.6309,11.6309 0 0 1 3.32917,6.21533 c 0.13337,2.257 0.41669,4.65424 -0.52777,6.7876 a 13.56662,13.56662 0 0 1 -3.075,5.14032 17.3495,17.3495 0 0 1 -1.80077,1.57538 35.52331,35.52331 0 0 1 -6.02155,3.52331 47.1937,47.1937 0 0 1 -5.17371,2.31257 c -3.20556,1.15277 -6.39172,2.375 -9.69037,3.23748 -3.49029,0.87641 -6.84729,2.19031 -10.23761,3.37787 a 38.23253,38.23253 0 0 0 -11.83762,6.35419 3.8197,3.8197 0 0 0 -0.76866,0.9762 c -0.1479,0.24554 -0.28908,0.496 -0.44105,0.735 0.7611,0.62634 1.80694,0.46112 2.72778,0.51526 q 9.49764,-0.01872 18.99246,-0.01593 11.77548,0 23.55217,0.0053 1.99381,0 3.98925,-4.9e-4 a 4.85069,4.85069 0 0 0 2.23755,-0.40692 13.43608,13.43608 0 0 1 2.3861,-1.38336 32.4291,32.4291 0 0 1 0.24726,5.398676 c -0.0431,2.4986 0.0611,5.0014 -0.10694,7.49591 q -0.51048,0.0791 -1.01393,0.16248 c -0.40941,-0.3667 -0.7661,-0.83905 -1.20286,-1.18567 a 1.982,1.982 0 0 0 -0.72492,-0.3949 12.397,12.397 0 0 0 -2.93615,-0.25555 q -11.72593,0.0153 -23.45082,0.0127 -11.46816,0 -22.93581,-0.002 -8.75571,0 -17.51272,0.006 -0.0311,0.001 -0.0626,0.001 a 1.08773,1.08773 0 0 1 -1.12493,-0.75421 18.0548,18.0548 0 0 1 1.60552,-7.866756 18.64122,18.64122 0 0 1 4.15864,-5.90015 c 1.37847,-1.38946 2.88947,-2.66436 4.37481,-3.9 a 61.43,61.43 0 0 1 7.30566,-4.08752 c 1.4361,-0.7 2.8347,-1.48755 4.33337,-2.04865 2.23615,-0.85693 4.42647,-1.83057 6.68481,-2.63055 3.1875,-1.12641 6.33479,-2.35981 9.49732,-3.55426 a 66.51641,66.51641 0 0 0 8.7765,-4.01111 c 0.279,-0.155 0.54829,-0.32385 0.80889,-0.50385 a 13.81411,13.81411 0 0 0 4.162,-4.91845 c 0.80558,-1.91669 -0.16247,-4.1056 -1.44586,-5.564 -3.38753,-2.9917 -8.04316,-3.78754 -12.4029,-4.08893 l -0.1338,-2.7e-4 a 30.851,30.851 0 0 0 -18.33728,5.92953 10.3497,10.3497 0 0 0 -2.62921,2.36945 c -0.009,0.01239 -0.0158,0.02624 -0.0248,0.0387 a 11.53207,11.53207 0 0 0 -1.2752,2.2752 c -0.33613,0.93891 0.0208,1.95282 -0.0236,2.91394 a 0.576,0.576 0 0 1 -0.5863,0.37159 1.0234,1.0234 0 0 1 -0.67621,-0.2577 c -0.35255,-0.28308 -0.68384,-0.58917 -1.01674,-0.89349 -1.47839,-1.35156 -2.81408,-2.85773 -4.35692,-4.13989 -1.55561,-1.30976 -2.89314,-2.85285 -4.44036,-4.1723 -0.16145,-0.169 -0.34711,-0.33484 -0.52619,-0.50763 a 1.87,1.87 0 0 1 -0.72933,-1.33087 c 0.907,-0.34448 1.94865,-0.22363 2.82226,-0.68475 1.86389,-1.05 3.49029,-2.46253 5.325,-3.56116 a 45.28138,45.28138 0 0 1 9.9029,-4.84033 41.424,41.424 0 0 1 9.18342,-2.06946 c 2.18284,-0.21713 4.36316,-0.52167 6.56193,-0.52167 q 0.20438,0 0.409,0.0036 0.343,-0.0077 0.68524,-0.0076 m 1.1e-4,-7 h -1.1e-4 q -0.35215,0 -0.70407,0.0066 -0.19516,-0.0026 -0.39019,-0.0025 a 53.05655,53.05655 0 0 0 -5.86008,0.40891 c -0.46495,0.05041 -0.92976,0.10089 -1.39474,0.14712 a 48.02744,48.02744 0 0 0 -10.64533,2.37473 51.98057,51.98057 0 0 0 -11.36853,5.50964 c -1.08983,0.65424 -2.06444,1.35223 -2.92506,1.9686 -0.55405,0.39682 -1.08675,0.77832 -1.58375,1.10006 a 11.85133,11.85133 0 0 0 -2.50364,0.62449 7,7 0 0 0 -4.51427,6.49618 8.62831,8.62831 0 0 0 2.86811,6.41571 l 0.2476,0.23511 0.11,0.10419 q 0.23272,0.2404 0.48757,0.45776 c 0.56094,0.47836 1.15892,1.06992 1.792,1.69617 0.78445,0.776 1.67355,1.65554 2.68208,2.50467 0.70492,0.586 1.413,1.29129 2.16252,2.038 0.62219,0.61978 1.26558,1.26065 1.97969,1.91351 l 0.0693,0.06339 c 0.32024,0.293 0.71221,0.65158 1.16271,1.02041 a 8.06823,8.06823 0 0 0 4.98109,1.89835 q -0.1338,0.06647 -0.268,0.13193 a 67.7375,67.7375 0 0 0 -8.12872,4.5603 6.99832,6.99832 0 0 0 -0.58652,0.43814 c -1.59469,1.32654 -3.28411,2.75525 -4.86756,4.35135 a 25.47369,25.47369 0 0 0 -5.652,8.14081 l -0.0258,0.06283 a 24.9832,24.9832 0 0 0 -2.10195,10.951566 6.9976,6.9976 0 0 0 0.1409,1.0109 8.01723,8.01723 0 0 0 7.969,6.285 q 0.0787,0 0.15691,-10e-4 8.70866,-0.007 17.41836,-0.006 l 11.46687,10e-4 11.46894,0.001 q 11.69723,0 23.394,-0.0126 l 0.19884,0.004 0.0519,0.0468 a 6.99907,6.99907 0 0 0 5.811,1.692 q 0.46989,-0.0776 0.94501,-0.15143 a 7.00006,7.00006 0 0 0 5.91224,-6.447 c 0.12566,-1.86563 0.11955,-3.64084 0.11362,-5.35761 -0.003,-0.82946 -0.006,-1.659 0.008,-2.488 q 0.002,-0.136 -5.6e-4,-0.2721 c -0.009,-0.418846 -0.007,-0.839286 -0.006,-1.259996 a 26.69522,26.69522 0 0 0 -0.36412,-5.29919 7,7 0 0 0 -9.33237,-5.243 14.02043,14.02043 0 0 0 -2.63488,1.34521 l -3.52163,4.3e-4 -11.8031,-0.0027 -2.55419,-5.8e-4 c 0.98385,-0.3449 1.95245,-0.697 2.91,-1.04495 q 0.75932,-0.27594 1.519,-0.55014 l 0.0535,-0.0195 a 53.90488,53.90488 0 0 0 5.88691,-2.62131 41.63094,41.63094 0 0 0 7.14,-4.223 24.55907,24.55907 0 0 0 2.45165,-2.13955 20.23,20.23 0 0 0 4.65275,-7.49012 19.258,19.258 0 0 0 1.07519,-9.18142 l -0.0422,-0.66422 a 7.00243,7.00243 0 0 0 -0.11361,-0.90811 18.72955,18.72955 0 0 0 -5.19529,-9.789 26.93065,26.93065 0 0 0 -9.72858,-6.55618 56.536,56.536 0 0 0 -8.66481,-2.88453 q -0.19212,-0.04755 -0.38671,-0.08416 a 61.50247,61.50247 0 0 0 -11.41934,-1.30628 z m -14.37099,27.58957 a 23.7611,23.7611 0 0 1 13.988,-4.50406 19.207,19.207 0 0 1 6.49624,1.35919 4.03462,4.03462 0 0 1 -0.53869,0.45258 c -0.0812,0.05606 -0.15874,0.10474 -0.23048,0.14456 l -0.0756,0.04267 a 60.88447,60.88447 0 0 1 -7.81886,3.55569 q -1.25939,0.47585 -2.51667,0.957 c -2.2336,0.85208 -4.54326,1.73315 -6.79512,2.529 -1.50914,0.53458 -2.93427,1.11539 -4.3125,1.67709 q -0.54822,0.22344 -1.09686,0.44559 a 7.46937,7.46937 0 0 0 1.31654,-2.31219 6.99918,6.99918 0 0 0 0.38976,-2.00116 11.817,11.817 0 0 0 -0.0234,-1.40793 l 0.0392,-0.05478 c 0.13311,-0.10437 0.33091,-0.25 0.48694,-0.3649 0.23308,-0.1716 0.465,-0.34329 0.69156,-0.51828 z"
       id="path77"
       style="fill:none;stroke:#00ffff;stroke-width:1.88976383;stroke-miterlimit:4;stroke-dasharray:none;stroke-opacity:1"
       inkscape:connector-curvature="0" />
    <path
       d="m 361.73452,10.421303 a 14.170546,14.223718 0 0 1 2.98523,0.305219 20.183442,20.259176 0 0 1 3.19113,1.035335 4.0611169,4.0763553 0 0 0 1.31109,0.385087 1.0757804,1.0798171 0 0 0 0.66097,-0.328051 l 0.37926,0.213955 -2.17258,4.663448 -0.39005,-0.213888 a 1.5920822,1.5980562 0 0 0 -0.12462,-0.673154 1.7987587,1.8055081 0 0 0 -0.4876,-0.504861 7.1250353,7.1517704 0 0 0 -2.42182,-1.112351 10.919824,10.960798 0 0 0 -3.01772,-0.462104 6.9527886,6.9788773 0 0 0 -4.80563,1.708499 6.5144109,6.5388549 0 0 0 -2.15082,5.117036 6.3485218,6.3723432 0 0 0 2.09667,4.97154 7.2858932,7.3132319 0 0 0 5.06568,1.737073 12.514427,12.561385 0 0 0 3.0232,-0.370784 9.5772114,9.6131477 0 0 0 2.56805,-1.012548 v -2.652777 h -4.56182 a 0.8758124,0.87909869 0 0 0 -0.6285,0.199651 1.5346885,1.5404472 0 0 0 -0.34674,0.713105 h -0.43341 v -4.535071 h 0.43341 a 1.5138838,1.5195644 0 0 0 0.34674,0.721575 0.90573691,0.90913547 0 0 0 0.6285,0.191114 h 8.76607 v 0.456383 a 1.3849674,1.3901642 0 0 0 -0.67726,0.370784 0.99952228,1.0032728 0 0 0 -0.18963,0.670272 v 3.993165 a 1.0303675,1.0342338 0 0 0 0.18415,0.670326 1.3559747,1.3610626 0 0 0 0.68268,0.370785 v 0.356479 a 19.860806,19.935329 0 0 1 -10.20721,3.166044 11.447755,11.490711 0 0 1 -7.30866,-2.239007 9.4039342,9.4392204 0 0 1 -3.55951,-7.843772 9.3290242,9.3640294 0 0 1 3.16397,-7.444403 11.761678,11.805812 0 0 1 7.99674,-2.624093 m 0,-7.7017409 a 19.234452,19.306625 0 0 0 -13.02958,4.51234 16.955476,17.019098 0 0 0 -5.80405,13.2579079 16.988096,17.051841 0 0 0 6.47488,13.886349 18.96534,19.036502 0 0 0 12.0662,3.898181 27.46916,27.572231 0 0 0 14.14989,-4.260581 7.6728729,7.7016637 0 0 0 3.73029,-6.607203 v -0.356479 a 7.6563322,7.6850609 0 0 0 -0.6215,-3.03771 7.6576037,7.6863372 0 0 0 0.6215,-3.037632 v -0.456384 a 7.6470809,7.6757748 0 0 0 -2.08434,-5.277276 7.6729496,7.7017407 0 0 0 -3.21642,-9.9223183 l -0.37926,-0.2139544 a 7.6611224,7.689869 0 0 0 -3.75757,-0.9877372 q -0.1936,0 -0.38661,0.00977 a 25.560579,25.65649 0 0 0 -3.13295,-0.9229174 21.966011,22.048434 0 0 0 -4.6305,-0.4843516 z"
       id="path93"
       style="fill:none;fill-opacity:1;stroke:#00ffff;stroke-width:2.07532001;stroke-miterlimit:4;stroke-dasharray:none;stroke-opacity:1"
       inkscape:connector-curvature="0" />
    <path
       d="m 546.89843,46.317004 c 0.10389,0.009 0.21057,0.012 0.319,0.012 0.20093,0 0.40775,-0.01008 0.6131,-0.01008 a 1.88916,1.88916 0 0 1 1.19153,0.30713 c -0.34442,0.66449 -0.86531,1.218 -1.17359,1.90357 2.28472,2.58069 4.86951,4.872 7.15563,7.4541 2.59865,2.7085 5.28061,5.33557 7.889,8.03564 a 1.8518,1.8518 0 0 0 1.169,0.693 0.7475,0.7475 0 0 0 0.4359,-0.14127 l 0.005,-0.0024 c 1.54858,-1.225 2.80418,-2.78436 4.23332,-4.14709 3.50287,-3.43622 6.7682,-7.10706 10.29039,-10.525 0.35451,-0.41681 0.9062,-0.8244 0.999,-1.38971 a 1.0154,1.0154 0 0 0 -0.0101,-0.41553 c -0.32913,-0.51416 -0.71943,-0.9848 -1.00134,-1.527 a 21.46839,21.46839 0 0 1 3.70377,-0.23893 c 0.38617,0 0.77246,0.0025 1.15806,0.0025 q 0.19135,0 0.38266,-10e-4 2.59464,0.01872 5.18924,0.01645 c 3.03743,0 6.0754,-0.01227 9.11316,-0.01227 q 1.6044,0 3.20891,0.0057 a 0.56167,0.56167 0 0 1 0.0985,-0.0091 c 0.46559,0 0.54429,0.65735 0.74873,0.96155 -1.18134,0.51965 -2.47243,0.71033 -3.6533,1.22412 -0.0451,0.01959 -0.0924,0.03235 -0.137,0.05292 a 11.774,11.774 0 0 0 -3.67617,2.97564 c -0.37368,0.39411 -0.74716,0.7862 -1.13499,1.15455 -2.2931,2.22528 -4.39031,4.643 -6.66534,6.88513 -3.04868,3.09765 -6.13062,6.16162 -9.15563,9.2818 -1.36673,1.5664 -2.89035,2.98108 -4.31259,4.49127 -0.343,0.37366 -0.675,1.03113 -0.30139,1.48913 1.40833,1.83753 3.26946,3.248 4.782,4.99421 1.34581,1.21936 2.425,2.69445 3.70562,3.97845 3.53889,3.5838 7.09869,7.14923 10.61958,10.75269 1.93471,2.15924 4.02643,4.16955 6.04309,6.251516 a 8.47493,8.47493 0 0 0 4.00281,2.40369 c 0.88061,0.35821 2.15425,0.392 2.51672,1.45257 a 20.01035,20.01035 0 0 1 -3.90838,0.25849 q -0.23824,-9.1e-4 -0.47649,-8.3e-4 c -0.44232,0 -0.8846,0.002 -1.327,0.002 q -0.19469,0 -0.38941,-5.2e-4 -3.82628,-0.0111 -7.65216,-0.0127 -3.411,0 -6.82183,0.0152 c -0.19364,-0.0111 -0.3891,-0.0135 -0.58535,-0.0135 -0.14813,0 -0.29661,0.001 -0.445,0.001 a 4.49633,4.49633 0 0 1 -1.82663,-0.27585 c 0.3416,-0.58722 0.9,-1.09436 0.91389,-1.82489 a 5.194,5.194 0 0 0 -0.9292,-1.17724 c -1.45141,-1.48493 -2.95283,-2.917846 -4.3764,-4.426636 -3.30145,-3.86053 -7.05707,-7.28552 -10.55988,-10.95355 a 15.632,15.632 0 0 0 -2.30693,-2.15643 1.00284,1.00284 0 0 0 -0.51307,-0.152 c -0.616,0 -1.09192,0.66278 -1.56336,1.04272 -0.42883,0.43854 -0.86285,0.87213 -1.29327,1.30914 -2.96575,3.01075 -5.95887,5.99524 -8.8916,9.03888 -1.91387,2.318 -4.10421,4.3747 -6.21393,6.502996 -0.36669,0.38916 -0.86255,0.84156 -0.63477,1.45966 0.22638,0.41583 0.50556,0.805 0.76808,1.20111 -0.10695,0.13068 -0.21248,0.26276 -0.31392,0.39618 -0.92547,0.004 -1.85078,0.001 -2.7762,0.003 -5.78115,0.0122 -11.56175,-0.005 -17.34208,0.0206 -0.46227,-0.0217 -0.93101,-0.008 -1.39611,-0.0212 a 4.94121,4.94121 0 0 1 -1.547,-0.24152 c 0.23192,-0.42285 0.49445,-0.88922 1.04029,-0.94684 a 14.67833,14.67833 0 0 0 4.25306,-1.82 c 0.0944,-0.0724 0.19111,-0.14007 0.28171,-0.2199 1.76528,-1.58045 3.35005,-3.356136 5.0417,-5.018066 5.07789,-5.5351 10.64733,-10.59247 15.64325,-16.20484 1.51253,-1.32617 2.77228,-2.91363 4.28339,-4.24121 a 7.11393,7.11393 0 0 0 1.28333,-1.53265 c 0.23756,-0.83026 -0.57081,-1.33881 -0.99581,-1.905 -0.682,-0.71789 -1.4,-1.39783 -2.08749,-2.1073 -4.36122,-4.7146 -9.01682,-9.14264 -13.45436,-13.78283 -1.71253,-1.919 -3.57923,-3.68635 -5.36118,-5.5365 a 13.303,13.303 0 0 0 -2.8306,-2.47113 5.04521,5.04521 0 0 0 -0.76458,-0.37488 c -0.99262,-0.39942 -2.07912,-0.55005 -3.06464,-0.97235 -0.45831,-0.13623 -0.382,-0.7038 -0.44026,-1.08033 2.74223,-0.10839 5.485,-0.13589 8.22955,-0.13589 2.82573,0 5.653,0.02917 8.47884,0.02917 1.50667,0 3.01341,-0.0083 4.51964,-0.03372 m 8e-5,-7 q -0.0591,0 -0.11819,10e-4 c -1.322,0.02231 -2.72061,0.03268 -4.40153,0.03268 -1.40094,0 -2.80222,-0.0072 -4.20345,-0.01446 -1.42529,-0.0074 -2.85051,-0.01465 -4.27536,-0.01465 -3.40921,0 -6.0326,0.04355 -8.50609,0.14136 a 7,7 0 0 0 -6.67593,7.809 7.67,7.67 0 0 0 4.76141,6.75305 18.81788,18.81788 0 0 0 2.402,0.78323 c 0.20108,0.05436 0.46381,0.12534 0.6109,0.17215 0.18122,0.14832 0.54863,0.52671 0.82237,0.80866 0.14951,0.154 0.29889,0.30765 0.44921,0.45947 0.64584,0.6698 1.30192,1.3295 1.95826,1.98908 1.13506,1.14059 2.20717,2.218 3.18688,3.31579 q 0.0803,0.09 0.16373,0.17725 c 1.93678,2.02524 3.92183,4.01886 5.84152,5.9469 2.1575,2.16684 4.37783,4.39676 6.49239,6.6376 -0.31992,0.3266 -0.62712,0.62726 -0.91885,0.88306 a 6.99664,6.99664 0 0 0 -0.6137,0.6091 c -2.55452,2.86975 -5.25812,5.57809 -8.12044,8.44546 -2.42077,2.425 -4.92268,4.93137 -7.33154,7.54987 -0.63846,0.63095 -1.247,1.25861 -1.83674,1.86691 -0.91724,0.94608 -1.78695,1.84308 -2.654,2.63437 -0.23833,0.11453 -0.81694,0.302 -1.24747,0.44141 -0.21881,0.07089 -0.43732,0.14193 -0.65469,0.21472 a 8.287,8.287 0 0 0 -5.324,4.344816 7,7 0 0 0 3.78057,9.95758 11.83159,11.83159 0 0 0 3.71194,0.64761 c 0.25409,0.007 0.50894,0.009 0.76364,0.009 0.1658,5.8e-4 0.33147,-10e-4 0.49581,0.007 q 0.16413,0.008 0.32853,0.008 l 0.0308,-6e-5 q 5.11848,-0.0225 10.23735,-0.0153 3.54426,-1.4e-4 7.08876,-0.005 l 1.11333,-8e-4 q 0.83954,0 1.67917,-0.003 a 6.99994,6.99994 0 0 0 5.54107,-2.76309 c 0.0512,-0.0673 0.10482,-0.13358 0.15873,-0.19947 a 6.99171,6.99171 0 0 0 1.58212,-4.32043 c 1.43825,-1.435 2.89984,-2.93054 4.29927,-4.60336 1.93645,-2.006376 3.94345,-4.032536 5.88631,-5.993926 q 0.31748,-0.32052 0.63486,-0.641 c 0.57565,0.57919 1.14873,1.15033 1.71335,1.713 2.27153,2.26382 4.41709,4.4021 6.35586,6.669186 q 0.11118,0.13 0.22856,0.25442 c 0.83124,0.881 1.66815,1.71961 2.48375,2.5318 a 7.00012,7.00012 0 0 0 4.20906,6.51285 11.333,11.333 0 0 0 4.61694,0.856 l 0.25481,-7.6e-4 0.19017,-6.1e-4 0.066,-9e-5 c 0.0409,0 0.0816,3.3e-4 0.12219,0.002 0.13286,0.008 0.26356,0.0113 0.39625,0.0113 l 0.0346,-1e-4 q 3.39321,-0.0163 6.78814,-0.0151 3.81618,0 7.63189,0.0127 l 0.40969,5.5e-4 0.67691,-8.5e-4 0.65006,-8.2e-4 0.44954,7.3e-4 0.0272,6e-5 0.0677,-3.4e-4 0.40229,-0.003 a 23.85568,23.85568 0 0 0 4.86793,-0.40262 7,7 0 0 0 5.19407,-9.11615 c -0.96829,-2.833186 -3.16174,-4.749296 -6.51945,-5.694996 -0.0472,-0.0133 -0.0943,-0.02609 -0.14053,-0.03952 q -0.32465,-0.123 -0.66039,-0.21347 a 1.48606,1.48606 0 0 1 -0.682,-0.39529 q -0.0558,-0.06038 -0.113,-0.11945 c -0.67244,-0.69424 -1.35289,-1.38086 -2.03342,-2.06729 -1.35479,-1.36658 -2.63447,-2.65738 -3.82422,-3.98523 q -0.10091,-0.11265 -0.20663,-0.22082 c -2.34856,-2.40366 -4.74481,-4.82126 -7.06215,-7.15924 q -1.793,-1.809 -3.58339,-3.61982 c -0.4116,-0.41287 -0.83586,-0.89813 -1.285,-1.41192 -0.688,-0.787 -1.4586,-1.66849 -2.38583,-2.54367 q -0.31367,-0.34978 -0.62737,-0.67606 0.29511,-0.3207 0.59029,-0.655 c 1.83449,-1.89029 3.73169,-3.8024 5.56776,-5.65292 q 1.699,-1.7124 3.39361,-3.42938 c 1.16243,-1.14746 2.25648,-2.30918 3.31485,-3.433 1.1159,-1.1849 2.17042,-2.30465 3.24971,-3.35339 0.52586,-0.50137 1.00866,-1.01056 1.36306,-1.38434 l 0.0518,-0.05463 a 13.95744,13.95744 0 0 1 1.35392,-1.32037 q 0.0593,-0.02459 0.11824,-0.05017 c 0.16483,-0.07172 0.5985,-0.1958 0.947,-0.2955 a 20.52548,20.52548 0 0 0 2.7345,-0.94092 7,7 0 0 0 3.4093,-9.60355 7.54068,7.54068 0 0 0 -6.97653,-4.7655 q -0.17365,0 -0.34807,0.0082 -1.47963,-0.0051 -2.95934,-0.0047 -2.28547,0 -4.571,0.0062 -2.27116,0.0046 -4.54214,0.0061 -2.56967,0 -5.13867,-0.01627 l -0.0516,-1.8e-4 -0.0387,9e-5 -0.343,8.6e-4 -0.55644,-0.0012 -0.60161,-0.0013 a 27.88389,27.88389 0 0 0 -4.90831,0.34336 6.99994,6.99994 0 0 0 -5.78271,7.318 c -1.165,1.18393 -2.29949,2.37207 -3.41026,3.53543 -1.56159,1.6355 -3.04055,3.18445 -4.56627,4.68976 -1.29381,-1.305 -2.62722,-2.65082 -3.9029,-3.97839 -1.25233,-1.40619 -2.532,-2.68647 -3.77058,-3.92576 q -0.18172,-0.18182 -0.36142,-0.36172 a 6.99888,6.99888 0 0 0 -2.76706,-5.90009 8.75481,8.75481 0 0 0 -5.41786,-1.727 c -0.16058,0 -0.32175,0.0033 -0.482,0.0072 l -0.0666,0.0014 q -0.19155,-0.01007 -0.38346,-0.01007 z"
       id="path85"
       style="fill:none;stroke:#00ffff;stroke-width:1.88976383;stroke-miterlimit:4;stroke-dasharray:none;stroke-opacity:1"
       inkscape:connector-curvature="0" />
    <path
       d="m 413.49116,9.8508349 v 5.0342541 h -0.43345 a 1.4984174,1.50404 0 0 0 -0.35754,-0.710222 0.86553065,0.86877835 0 0 0 -0.61765,-0.202445 h -11.57251 v 4.620659 h 7.50913 a 0.86485104,0.86809621 0 0 0 0.61766,-0.199652 1.4822494,1.4878113 0 0 0 0.35757,-0.713037 h 0.4334 v 4.920158 h -0.4334 a 1.5034816,1.5091231 0 0 0 -0.35757,-0.704511 0.84257756,0.84573915 0 0 0 -0.61766,-0.208245 h -7.50913 v 5.333763 h 11.89761 a 0.86428105,0.86752407 0 0 0 0.61759,-0.199651 1.4815261,1.4870851 0 0 0 0.35758,-0.713037 h 0.43349 v 5.034254 h -0.43349 a 1.4815261,1.4870851 0 0 0 -0.35758,-0.713039 0.86428105,0.86752407 0 0 0 -0.61759,-0.199651 h -16.79539 v -0.456372 a 1.3392805,1.3443058 0 0 0 0.67185,-0.370784 1.0000484,1.0038008 0 0 0 0.19502,-0.67026 V 12.260985 a 1.000169,1.0039219 0 0 0 -0.19502,-0.670261 1.3387653,1.3437888 0 0 0 -0.67185,-0.370783 V 10.76359 h 16.47029 a 0.86555257,0.86880036 0 0 0 0.61765,-0.202544 1.512722,1.5183982 0 0 0 0.35754,-0.7102111 h 0.43345 m 0,-7.7017407 h -0.43345 a 7.6565845,7.685314 0 0 0 -3.62383,0.9127554 h -13.82163 a 7.6729496,7.7017407 0 0 0 -7.67296,7.7017404 v 0.456373 a 7.6571762,7.6859081 0 0 0 0.86687,3.556641 v 11.440749 a 7.6568035,7.6855341 0 0 0 -0.86687,3.556642 v 0.456372 a 7.6729496,7.7017407 0 0 0 7.67296,7.701741 h 14.14687 a 7.655576,7.6843017 0 0 0 3.62366,0.912689 h 0.43348 a 7.6729496,7.7017407 0 0 0 7.67294,-7.701741 v -5.034209 a 7.6543153,7.6830364 0 0 0 -2.58507,-5.76516 7.6488347,7.6775352 0 0 0 2.25999,-5.458598 V 9.8508349 a 7.6729496,7.7017407 0 0 0 -7.67294,-7.7017407 z"
       id="path97"
       style="fill:none;stroke:#00ffff;stroke-width:2.07532001;stroke-miterlimit:4;stroke-dasharray:none;stroke-opacity:1"
       inkscape:connector-curvature="0" />
    <path
       d="m 458.33458,10.76359 v 0.456373 a 1.3593288,1.3644294 0 0 0 -0.67719,0.370783 1.0032382,1.0070026 0 0 0 -0.18963,0.656023 v 16.486182 a 1.0298633,1.0337276 0 0 0 0.18963,0.67026 1.359844,1.3649465 0 0 0 0.67719,0.370784 v 0.456372 h -5.82418 v -0.456372 c 0.37927,-0.08562 0.5689,-0.290983 0.5689,-0.613257 0,-0.191113 -0.22213,-0.521979 -0.66645,-0.998299 L 442.05396,16.895892 v 11.837059 a 1.0300606,1.0339257 0 0 0 0.18964,0.67026 1.3598002,1.3649025 0 0 0 0.67718,0.370784 v 0.456372 h -5.42871 v -0.456372 a 1.3388859,1.3439098 0 0 0 0.67185,-0.370784 0.99967573,1.0034268 0 0 0 0.19503,-0.67026 V 12.246747 a 0.97398231,0.97763696 0 0 0 -0.19503,-0.656023 1.3383817,1.3434036 0 0 0 -0.67185,-0.370783 V 10.76359 h 6.28473 v 0.456373 c -0.39003,0.105502 -0.58512,0.322273 -0.58512,0.656023 a 1.1694999,1.1738883 0 0 0 0.37926,0.755815 L 453.76733,23.79849 V 12.246747 a 1.0032711,1.0070356 0 0 0 -0.18423,-0.656023 1.4061777,1.411454 0 0 0 -0.68262,-0.370783 V 10.76359 h 5.43405 m 0,-7.7017404 h -5.43405 a 7.6384433,7.6671049 0 0 0 -4.56183,1.5083749 7.6384871,7.6671489 0 0 0 -4.56185,-1.5083749 h -6.28473 a 7.6729496,7.7017407 0 0 0 -7.67294,7.7017404 v 0.456373 a 7.6563322,7.6850609 0 0 0 0.86686,3.556641 v 11.440749 a 7.6561678,7.6848959 0 0 0 -0.86686,3.556642 v 0.456372 a 7.6729496,7.7017407 0 0 0 7.67294,7.701741 h 5.42871 a 7.6410411,7.6697125 0 0 0 4.7948,-1.688552 7.6409754,7.6696465 0 0 0 4.79478,1.688552 h 5.82417 a 7.6729496,7.7017407 0 0 0 7.67295,-7.701741 v -0.456372 a 7.6562227,7.6849509 0 0 0 -0.8668,-3.55651 V 14.776494 a 7.6565076,7.685237 0 0 0 0.8668,-3.556531 V 10.76359 a 7.6729496,7.7017407 0 0 0 -7.67295,-7.7017404 z"
       id="path101"
       style="fill:none;stroke:#00ffff;stroke-width:2.07532001;stroke-miterlimit:4;stroke-dasharray:none;stroke-opacity:1"
       inkscape:connector-curvature="0" />
    <path
       d="m 500.34995,9.8508349 v 5.0342541 h -0.43342 a 1.4987572,1.504381 0 0 0 -0.35758,-0.710222 0.86554161,0.86878936 0 0 0 -0.61766,-0.202445 h -11.57251 v 4.620659 h 7.50916 a 0.86454413,0.86778814 0 0 0 0.61759,-0.199652 1.4817672,1.4873272 0 0 0 0.35761,-0.713037 h 0.43345 v 4.920158 h -0.43345 a 1.5029773,1.5086169 0 0 0 -0.35761,-0.704511 0.84227065,0.84543108 0 0 0 -0.61759,-0.208245 h -7.50916 v 5.333763 h 11.89757 a 0.86447836,0.86772212 0 0 0 0.61766,-0.199651 1.4822933,1.4878553 0 0 0 0.35761,-0.713037 h 0.43339 v 5.034254 h -0.43339 a 1.4822933,1.4878553 0 0 0 -0.35761,-0.713039 0.86447836,0.86772212 0 0 0 -0.61766,-0.199651 H 482.4711 v -0.456372 a 1.3388859,1.3439098 0 0 0 0.67179,-0.370784 0.99980726,1.0035588 0 0 0 0.1951,-0.67026 V 12.260985 a 0.99992784,1.0036798 0 0 0 -0.1951,-0.670261 1.3383817,1.3434036 0 0 0 -0.67179,-0.370783 V 10.76359 h 16.47019 a 0.86556353,0.86881136 0 0 0 0.61766,-0.202544 1.5130289,1.5187062 0 0 0 0.35758,-0.7102111 h 0.43342 m 0,-7.7017407 h -0.43342 a 7.655817,7.6845438 0 0 0 -3.62381,0.9127554 h -13.82161 a 7.6729496,7.7017407 0 0 0 -7.67295,7.7017404 v 0.456373 a 7.6573077,7.6860401 0 0 0 0.86686,3.556641 v 11.440749 a 7.6571762,7.6859081 0 0 0 -0.86686,3.556642 v 0.456372 a 7.6729496,7.7017407 0 0 0 7.67295,7.701741 h 14.14685 a 7.6565076,7.685237 0 0 0 3.62368,0.912689 h 0.43338 a 7.6729496,7.7017407 0 0 0 7.67296,-7.701741 v -5.034209 a 7.6543921,7.6831135 0 0 0 -2.58507,-5.76516 7.6488347,7.6775352 0 0 0 2.26,-5.458598 V 9.8508349 a 7.6729496,7.7017407 0 0 0 -7.67296,-7.7017407 z"
       id="path105"
       style="fill:none;stroke:#00ffff;stroke-width:2.07532001;stroke-miterlimit:4;stroke-dasharray:none;stroke-opacity:1"
       inkscape:connector-curvature="0" />
    <path
       d="m 532.42355,10.421303 a 13.745059,13.796634 0 0 1 3.30484,0.379355 24.151815,24.242439 0 0 1 3.81421,1.397601 4.0107604,4.0258099 0 0 0 0.96433,0.328051 1.0758242,1.0798611 0 0 0 0.66097,-0.328051 l 0.37927,0.213955 -2.20499,4.58358 -0.37926,-0.22818 a 2.0861654,2.0939933 0 0 0 0.0162,-0.228192 c 0,-0.322273 -0.26549,-0.670259 -0.79099,-1.041088 a 9.3196962,9.3546663 0 0 0 -5.65622,-1.768429 7.915941,7.9456439 0 0 0 -2.53556,0.370783 2.9980845,3.0093342 0 0 0 -1.2949,0.855675 1.8360273,1.8429165 0 0 0 -0.49302,1.237911 1.52718,1.5329104 0 0 0 1.25698,1.49744 19.182801,19.254781 0 0 0 2.79561,0.424949 l 2.12377,0.228191 a 16.887066,16.950431 0 0 1 3.06647,0.584705 7.0985745,7.1252104 0 0 1 2.08045,1.041088 4.8505647,4.8687654 0 0 1 1.45744,1.836865 5.627714,5.6488308 0 0 1 0.53636,2.43869 5.6981626,5.7195437 0 0 1 -1.2624,3.648062 6.7056867,6.7308483 0 0 1 -3.53782,2.150667 13.534755,13.585541 0 0 1 -3.83037,0.527636 15.632923,15.691582 0 0 1 -7.24371,-1.853985 3.7828957,3.7970902 0 0 0 -0.91014,-0.370785 1.1031729,1.1073123 0 0 0 -0.5527,0.313747 l -0.39547,-0.213954 2.00463,-4.777522 0.39546,0.199641 v 0.185413 a 1.5843435,1.5902884 0 0 0 0.57971,1.183659 7.2676316,7.2949018 0 0 0 2.72523,1.426142 11.303668,11.346083 0 0 0 3.489,0.599019 6.8011601,6.8266799 0 0 0 3.07733,-0.641796 3.016675,3.0279944 0 0 0 1.12691,-0.944113 2.1045805,2.1124775 0 0 0 0.41718,-1.232135 1.413445,1.4187487 0 0 0 -0.99149,-1.380548 12.462427,12.509189 0 0 0 -2.78474,-0.527636 l -2.09125,-0.22818 a 27.61351,27.717123 0 0 1 -2.96363,-0.433499 7.4829564,7.5110346 0 0 1 -1.73369,-0.664615 4.5552549,4.5723474 0 0 1 -1.93417,-1.928121 5.3319218,5.3519286 0 0 1 -0.63932,-2.652644 5.4904888,5.5110906 0 0 1 1.61461,-4.081615 q 2.11297,-2.126318 6.33884,-2.127771 m 0,-7.7017398 c -4.91588,0 -8.87636,1.4771828 -11.77139,4.3905533 a 13.083947,13.133041 0 0 0 -3.85496,9.5205725 13.045045,13.093994 0 0 0 1.2421,5.687086 l -1.31772,3.140484 a 7.6729496,7.7017407 0 0 0 3.43083,9.769109 l 0.39545,0.213954 a 7.6613086,7.6900561 0 0 0 3.25208,0.912348 22.915527,23.001512 0 0 0 9.09502,1.920737 21.277451,21.35729 0 0 0 5.98928,-0.838752 14.168649,14.221814 0 0 0 7.40746,-4.776829 13.499765,13.550421 0 0 0 1.63818,-14.134707 q -0.19511,-0.413947 -0.41378,-0.807583 l 0.94068,-1.955351 A 7.6729496,7.7017407 0 0 0 545.30639,5.6980454 L 544.92712,5.484102 a 7.6611553,7.689902 0 0 0 -3.75755,-0.9877372 l -0.073,3.411e-4 a 27.138203,27.240034 0 0 0 -3.51914,-1.1708407 21.505688,21.586384 0 0 0 -5.1538,-0.6063031 z"
       id="path109"
       style="fill:none;stroke:#00ffff;stroke-width:2.07532001;stroke-miterlimit:4;stroke-dasharray:none;stroke-opacity:1"
       inkscape:connector-curvature="0" />
    <path
       d="m 577.83592,10.76359 v 0.456373 a 1.2561715,1.260885 0 0 0 -0.67184,0.362234 1.0147586,1.0185663 0 0 0 -0.19503,0.66455 v 16.486204 a 1.0223987,1.0262349 0 0 0 0.20044,0.675971 1.2652475,1.2699951 0 0 0 0.66645,0.365117 v 0.456372 h -5.76458 v -0.456372 a 1.3394778,1.3445038 0 0 0 0.67185,-0.370784 0.99967573,1.0034268 0 0 0 0.19502,-0.67026 V 12.246747 a 0.9739275,0.97758195 0 0 0 -0.19502,-0.656023 1.3389298,1.3439537 0 0 0 -0.67185,-0.370783 V 10.76359 h 5.76458 m 0,-7.7017404 h -5.76458 a 7.6729496,7.7017407 0 0 0 -7.67295,7.7017404 v 0.456373 a 7.6562007,7.6849289 0 0 0 0.86687,3.556641 v 11.440749 a 7.6560363,7.6847639 0 0 0 -0.86687,3.556642 v 0.456372 a 7.6729496,7.7017407 0 0 0 7.67295,7.701741 h 5.76458 a 7.6729496,7.7017407 0 0 0 7.67295,-7.701741 v -0.456372 a 7.6542495,7.6829704 0 0 0 -0.86686,-3.556708 V 14.776736 a 7.6551375,7.6838617 0 0 0 0.86686,-3.556773 V 10.76359 a 7.6729496,7.7017407 0 0 0 -7.67295,-7.7017404 z"
       id="path113"
       style="fill:none;stroke:#00ffff;stroke-width:2.07532001;stroke-miterlimit:4;stroke-dasharray:none;stroke-opacity:1"
       inkscape:connector-curvature="0" />
    <path
       d="m 610.03408,10.421303 a 13.745936,13.797515 0 0 1 3.30494,0.379366 24.151432,24.242054 0 0 1 3.81411,1.397601 4.0098506,4.0248967 0 0 0 0.96441,0.328051 1.0758242,1.0798611 0 0 0 0.66097,-0.328051 l 0.37926,0.213955 -2.20507,4.58358 -0.37925,-0.22818 a 2.0866367,2.0944664 0 0 0 0.0162,-0.228192 c 0,-0.322273 -0.26551,-0.670259 -0.79101,-1.041088 a 9.3195647,9.3545342 0 0 0 -5.65624,-1.768429 7.9164562,7.9461609 0 0 0 -2.53553,0.370783 2.9979311,3.0091801 0 0 0 -1.29485,0.855675 1.8357861,1.8426744 0 0 0 -0.49307,1.237911 1.52718,1.5329104 0 0 0 1.25695,1.49744 19.182801,19.254781 0 0 0 2.79563,0.424949 l 2.12384,0.228191 a 16.889576,16.95295 0 0 1 3.06646,0.584705 7.099035,7.1256725 0 0 1 2.0804,1.041089 4.8506963,4.8688975 0 0 1 1.45742,1.836864 5.6278783,5.6489957 0 0 1 0.53637,2.43869 5.698042,5.7194226 0 0 1 -1.26233,3.648062 6.7058511,6.7310133 0 0 1 -3.53788,2.150667 13.534755,13.585541 0 0 1 -3.83039,0.527636 15.632671,15.691328 0 0 1 -7.24363,-1.853985 3.7837507,3.7979483 0 0 0 -0.91021,-0.370785 1.102866,1.1070042 0 0 0 -0.55264,0.313747 l -0.39553,-0.213954 2.00462,-4.777522 0.39552,0.199641 v 0.185413 a 1.5841462,1.5900904 0 0 0 0.57972,1.183659 7.2668424,7.2941096 0 0 0 2.72516,1.426142 11.304041,11.346458 0 0 0 3.489,0.599019 6.8015218,6.827043 0 0 0 3.0774,-0.641796 3.0171574,3.0284785 0 0 0 1.12691,-0.944113 2.1042626,2.1121583 0 0 0 0.41713,-1.232135 1.4134669,1.4187707 0 0 0 -0.99145,-1.380548 12.463127,12.509893 0 0 0 -2.78481,-0.527636 l -2.09125,-0.22818 a 27.61351,27.717123 0 0 1 -2.9636,-0.433499 7.4836141,7.5116947 0 0 1 -1.73364,-0.664615 4.5553097,4.5724024 0 0 1 -1.93422,-1.928121 5.3317683,5.3517746 0 0 1 -0.63925,-2.652644 5.4903901,5.5109915 0 0 1 1.61449,-4.081615 q 2.11294,-2.126318 6.33884,-2.127771 m 0,-7.7017398 c -4.9159,0 -8.87637,1.4771828 -11.77141,4.3905533 a 13.083968,13.133063 0 0 0 -3.85489,9.5205725 13.045111,13.09406 0 0 0 1.24205,5.687086 l -1.31773,3.140484 a 7.6729496,7.7017407 0 0 0 3.43126,9.769306 l 0.39554,0.213955 a 7.6628323,7.6915854 0 0 0 3.25156,0.912106 22.915155,23.001139 0 0 0 9.09501,1.920737 21.277451,21.35729 0 0 0 5.98928,-0.838752 14.168781,14.221947 0 0 0 7.40732,-4.776587 13.499831,13.550487 0 0 0 1.63832,-14.134894 q -0.19508,-0.413947 -0.41374,-0.807583 l 0.94066,-1.955351 A 7.6729496,7.7017407 0 0 0 622.91683,5.6980673 L 622.53757,5.484124 a 7.6611553,7.689902 0 0 0 -3.75756,-0.9877373 l -0.0729,3.411e-4 A 27.135452,27.237272 0 0 0 615.188,3.3258652 21.507048,21.587748 0 0 0 610.03396,2.7195292 Z"
       id="path117"
       style="fill:none;stroke:#00ffff;stroke-width:2.07532001;stroke-miterlimit:4;stroke-dasharray:none;stroke-opacity:1"
       inkscape:connector-curvature="0" />
    <path
       d="m 476.32365,47.282874 a 59.72874,59.72874 0 0 1 6.97092,-0.51806 52.25273,52.25273 0 0 1 10.80988,1.17779 49.29168,49.29168 0 0 1 7.67648,2.56114 19.78608,19.78608 0 0 1 7.39037,4.97923 11.63082,11.63082 0 0 1 3.3292,6.21535 c 0.13334,2.257 0.41669,4.65422 -0.52778,6.78758 a 13.56747,13.56747 0 0 1 -3.075,5.14033 28.02737,28.02737 0 0 1 -7.82231,5.09868 47.1913,47.1913 0 0 1 -5.17367,2.31252 c -3.2056,1.15279 -6.39174,2.375 -9.69039,3.23754 -3.49032,0.8764 -6.84731,2.1903 -10.23762,3.37782 a 38.23263,38.23263 0 0 0 -11.83764,6.35424 6.98808,6.98808 0 0 0 -1.20974,1.71113 c 0.76112,0.6264 1.807,0.46112 2.72781,0.51529 15.51129,-0.03056 31.02259,-0.007 46.53388,-0.01112 a 4.84971,4.84971 0 0 0 2.23753,-0.40695 13.44105,13.44105 0 0 1 2.38614,-1.38334 32.43248,32.43248 0 0 1 0.24722,5.398666 c -0.043,2.49864 0.0611,5.00145 -0.10694,7.49592 q -0.51044,0.0792 -1.01391,0.1625 c -0.6125,-0.54861 -1.09029,-1.35973 -1.9278,-1.58057 a 12.397,12.397 0 0 0 -2.93614,-0.25556 q -31.95038,0.0417 -63.89936,0.0167 a 1.10533,1.10533 0 0 1 -1.18752,-0.75279 18.05457,18.05457 0 0 1 1.60558,-7.866756 c 1.70557,-4.09866 5.20422,-7.03064 8.53343,-9.80011 a 61.43135,61.43135 0 0 1 7.30564,-4.08755 c 1.43613,-0.7 2.83476,-1.48752 4.33339,-2.04864 2.23613,-0.85695 4.42644,-1.83057 6.6848,-2.63058 3.18753,-1.12641 6.33479,-2.35975 9.49733,-3.55421 a 66.51306,66.51306 0 0 0 8.77649,-4.01116 13.11821,13.11821 0 0 0 4.97089,-5.42229 c 0.80557,-1.91669 -0.1625,-4.1056 -1.44585,-5.564 -3.38754,-2.9917 -8.04315,-3.78755 -12.40292,-4.08894 a 30.86139,30.86139 0 0 0 -18.471,5.92924 10.34962,10.34962 0 0 0 -2.6292,2.36947 11.52009,11.52009 0 0 0 -1.3,2.31392 c -0.33612,0.9389 0.0208,1.9528 -0.0236,2.91392 -0.18334,0.52084 -0.92918,0.432 -1.26252,0.11389 -1.91808,-1.5403 -3.48337,-3.46254 -5.37367,-5.03339 -1.55558,-1.30974 -2.89309,-2.85281 -4.44033,-4.17227 -0.507,-0.53057 -1.26113,-1.02224 -1.25557,-1.83891 0.90695,-0.34445 1.94863,-0.22362 2.82225,-0.68473 1.86391,-1.05 3.49032,-2.46253 5.32506,-3.56116 a 45.28362,45.28362 0 0 1 9.9029,-4.84033 41.42367,41.42367 0 0 1 9.1833,-2.06942 z"
       id="path119"
       style="fill:#ffffff;fill-opacity:1;stroke:none;stroke-width:1.88976383;stroke-miterlimit:4;stroke-dasharray:none;stroke-opacity:1"
       inkscape:connector-curvature="0" />
    <path
       d="m 394.72163,47.776034 a 76.61631,76.61631 0 0 1 11.339,-1.29863 59.58339,59.58339 0 0 1 12.69875,0.74446 50.61659,50.61659 0 0 1 7.04037,1.73335 35.62638,35.62638 0 0 1 7.05147,3.51532 13.91477,13.91477 0 0 1 5.82229,7.49036 11.75905,11.75905 0 0 1 -0.0583,6.14035 9.67633,9.67633 0 0 1 -1.89864,3.52782 11.6482,11.6482 0 0 1 -3.30559,2.24309 c -1.29168,0.73612 -2.74587,1.10418 -4.07783,1.757 0.21806,0.24584 0.28473,0.71806 0.6139,0.89029 a 46.56584,46.56584 0 0 1 4.85145,1.975 21.65532,21.65532 0 0 1 6.07229,4.75006 11.588,11.588 0 0 1 2.39586,5.36673 10.59408,10.59408 0 0 1 0.14028,3.71115 12.0855,12.0855 0 0 1 -3.13476,6.47091 27.87306,27.87306 0 0 1 -9.06955,5.795896 47.39337,47.39337 0 0 1 -9.92373,2.67781 c -6.5848,1.07363 -13.29321,0.86807 -19.93495,0.60973 a 90.39689,90.39689 0 0 1 -13.38349,-1.982 70.2657,70.2657 0 0 1 -10.09179,-3.54031 14.96041,14.96041 0 0 0 -3.56949,-1.276406 c -1.03751,-0.04444 -2.05,0.28056 -3.08614,0.27778 a 0.66452,0.66452 0 0 1 -0.50557,-0.88056 17.1349,17.1349 0 0 1 1.47224,-2.69031 c 1.34724,-2.17364 2.65281,-4.37228 4.00838,-6.54036 a 28.21159,28.21159 0 0 1 1.782,-2.80975 1.0127,1.0127 0 0 1 1.6278,0.09583 c 0.59306,1.17224 0.88056,2.60281 2.032,3.39587 a 28.451,28.451 0 0 0 9.30566,4.56673 53.79989,53.79989 0 0 0 8.107,1.76252 59.73908,59.73908 0 0 0 15.9738,0.42778 38.21353,38.21353 0 0 0 7.81537,-1.90141 10.69945,10.69945 0 0 0 5.30006,-4.42922 c 1.46252,-2.35975 0.25833,-5.62229 -1.94585,-7.0612 -3.01532,-2.48475 -6.95565,-3.36254 -10.73624,-3.85282 a 50.1529,50.1529 0 0 0 -9.38901,-0.46806 18.10735,18.10735 0 0 0 -5.8209,0.86946 c -0.807,0.27778 -1.36669,1.07084 -2.22224,1.225 -0.74446,-0.27084 -0.51806,-1.20279 -0.57223,-1.80974 0.0472,-3.50143 -0.12084,-7.01536 0.1125,-10.50985 1.26946,-0.07917 2.15558,1.0014 3.3681,1.17224 4.36394,1.04862 8.90982,0.49306 13.30987,-0.0056 2.47642,-0.49723 5.15145,-0.75695 7.23065,-2.34447 a 8.82166,8.82166 0 0 0 2.87086,-3.3681 4.65474,4.65474 0 0 0 -1.5,-4.77783 14.35865,14.35865 0 0 0 -3.21948,-2.05141 c -2.58058,-1.15835 -5.42784,-1.40141 -8.19871,-1.7653 a 40.27958,40.27958 0 0 0 -8.41954,0.30556 37.43347,37.43347 0 0 0 -11.01818,2.86392 22.79659,22.79659 0 0 0 -5.79591,3.51671 5.36425,5.36425 0 0 0 -1.03195,3.44448 c -0.0222,0.60557 -0.7764,1.14446 -1.3,0.72362 -3.18754,-2.82364 -5.93062,-6.1084 -9.01955,-9.03622 -0.38889,-0.432 -0.92779,-0.79723 -1.10418,-1.37779 a 3.60021,3.60021 0 0 1 0.3,-0.84445 6.48276,6.48276 0 0 0 3.39726,-0.28056 c 2.9,-1.42363 5.66256,-3.12643 8.61815,-4.43894 a 61.71378,61.71378 0 0 1 8.67647,-2.70557 z"
       id="path127"
       style="fill:#ffffff;fill-opacity:1;stroke:#00ffff;stroke-width:1.88976383;stroke-miterlimit:4;stroke-dasharray:none;stroke-opacity:1"
       inkscape:connector-curvature="0" />
    <path
       d="m 525.67063,46.457464 c 7.07092,-0.27956 14.15294,-0.02107 21.228,-0.14048 0.69445,0.0604 1.51529,-0.15173 2.12363,0.30906 -0.34443,0.66449 -0.86527,1.218 -1.17362,1.90356 2.28476,2.58069 4.8695,4.872 7.15564,7.45408 2.59864,2.70853 5.28062,5.33558 7.889,8.03568 0.39028,0.41583 1.03335,0.9567 1.60974,0.54929 1.54863,-1.225 2.8042,-2.78439 4.23338,-4.14708 3.50282,-3.43624 6.76814,-7.10709 10.2904,-10.52506 0.43612,-0.51277 1.18335,-1.00727 0.9889,-1.80522 -0.32917,-0.51417 -0.71945,-0.98479 -1.0014,-1.52706 a 31.42584,31.42584 0 0 1 5.24451,-0.23742 c 5.83618,0.04214 11.67375,-0.01264 17.51132,0.0098 0.55417,-0.09834 0.62917,0.628 0.84723,0.95248 -1.2264,0.53946 -2.57364,0.71647 -3.79032,1.277 -1.97919,0.85977 -3.28338,2.679 -4.81117,4.13023 -2.29308,2.22527 -4.39033,4.643 -6.66536,6.88512 -3.04864,3.09767 -6.13062,6.16163 -9.15566,9.28178 -1.36668,1.56639 -2.89031,2.98107 -4.31255,4.49127 -0.34306,0.37369 -0.675,1.03115 -0.30139,1.48913 1.40835,1.83753 3.26948,3.248 4.782,4.99421 1.34586,1.2194 2.425,2.69448 3.7056,3.9785 3.53894,3.58375 7.0987,7.14923 10.61957,10.75264 1.93474,2.15924 4.02643,4.16957 6.04312,6.251536 a 8.475,8.475 0 0 0 4.00283,2.40368 c 0.88056,0.35824 2.15419,0.39195 2.5167,1.45261 a 20.01542,20.01542 0 0 1 -3.90838,0.25849 q -8.33343,-0.0316 -16.66686,0.003 a 8.15229,8.15229 0 0 1 -2.857,-0.288 c 0.34167,-0.58722 0.9,-1.09437 0.9139,-1.82488 a 5.19435,5.19435 0 0 0 -0.92917,-1.17726 c -1.45141,-1.48491 -2.95282,-2.917846 -4.37645,-4.426646 -3.30142,-3.8605 -7.057,-7.2855 -10.55984,-10.95353 a 15.63275,15.63275 0 0 0 -2.307,-2.15643 c -0.88057,-0.517 -1.482,0.41162 -2.07642,0.89067 -3.38337,3.46012 -6.82647,6.86264 -10.18484,10.34805 -1.91391,2.318 -4.10421,4.37467 -6.214,6.502996 -0.36667,0.38914 -0.86252,0.8415 -0.63473,1.45963 0.22639,0.41583 0.50555,0.805 0.76806,1.20113 -0.10694,0.13066 -0.2125,0.26271 -0.31389,0.39617 -6.707,0.0295 -13.41266,-0.006 -20.11829,0.0239 a 9.97556,9.97556 0 0 1 -2.94309,-0.2627 c 0.23195,-0.42286 0.49445,-0.88927 1.04029,-0.94686 1.56251,-0.55211 3.24587,-0.90472 4.53477,-2.03983 1.7653,-1.58045 3.35,-3.356156 5.04173,-5.018086 5.07784,-5.53507 10.64735,-10.59249 15.64324,-16.20483 1.51252,-1.32616 2.77226,-2.91363 4.28338,-4.24121 a 7.11437,7.11437 0 0 0 1.28335,-1.53268 c 0.23751,-0.83026 -0.57084,-1.33881 -0.99584,-1.905 -0.68201,-0.71787 -1.4,-1.39781 -2.08754,-2.10726 -4.36116,-4.71464 -9.01676,-9.1427 -13.45432,-13.78288 -1.71252,-1.919 -3.57921,-3.6863 -5.36118,-5.53647 a 13.3029,13.3029 0 0 0 -2.83059,-2.4713 c -1.17362,-0.72068 -2.58336,-0.8134 -3.82921,-1.34724 -0.45824,-0.13623 -0.38185,-0.70378 -0.44018,-1.08028 z"
       id="path129"
       style="fill:#ffffff;fill-opacity:1;stroke:#00ffff;stroke-width:1.88976383;stroke-miterlimit:4;stroke-dasharray:none;stroke-opacity:1"
       inkscape:connector-curvature="0" />
    <path
       d="m 442.05398,16.895969 v 11.836959 a 1.030258,1.0341237 0 0 0 0.18964,0.670294 1.359844,1.3649465 0 0 0 0.67724,0.370784 v 0.456361 h -5.4287 v -0.45635 a 1.3389407,1.3439647 0 0 0 0.67181,-0.370784 1.0000046,1.0037569 0 0 0 0.19505,-0.670294 V 12.246813 a 0.9741248,0.97777999 0 0 0 -0.19505,-0.656023 1.338853,1.3438767 0 0 0 -0.67181,-0.370783 v -0.456362 h 6.2847 v 0.456362 c -0.39008,0.105535 -0.58513,0.322306 -0.58513,0.656023 a 1.1693684,1.1737563 0 0 0 0.37926,0.75587 l 10.19639,11.166678 v -11.55182 a 1.003293,1.0070576 0 0 0 -0.18416,-0.656023 1.4066271,1.4119051 0 0 0 -0.68265,-0.370783 V 10.76359 h 5.4341 v 0.456362 a 1.3597673,1.3648694 0 0 0 -0.67724,0.370783 1.0035122,1.0072777 0 0 0 -0.18963,0.656023 v 16.486126 a 1.0303675,1.0342338 0 0 0 0.18963,0.670294 1.359844,1.3649465 0 0 0 0.67724,0.370784 v 0.456361 h -5.82418 v -0.456306 c 0.37926,-0.08557 0.56889,-0.290939 0.56889,-0.613246 0,-0.191102 -0.22213,-0.521957 -0.66639,-0.998299 z"
       id="path137"
       style="fill:none;stroke:#00ffff;stroke-width:2.07532001;stroke-miterlimit:4;stroke-dasharray:none;stroke-opacity:1"
       inkscape:connector-curvature="0" />
    <path
       d="m 487.36882,21.687805 v 5.333763 h 11.89753 a 0.86463182,0.86787615 0 0 0 0.61763,-0.199662 1.4819754,1.4875363 0 0 0 0.35758,-0.71307 h 0.43343 v 5.034331 h -0.43343 a 1.4819754,1.4875363 0 0 0 -0.35758,-0.713072 0.86463182,0.86787615 0 0 0 -0.61763,-0.199662 h -16.79529 v -0.456416 a 1.3389407,1.3439647 0 0 0 0.67183,-0.370784 1.0000046,1.0037569 0 0 0 0.19504,-0.670294 V 12.261018 a 0.99994977,1.0037019 0 0 0 -0.19504,-0.670283 1.338853,1.3438767 0 0 0 -0.67183,-0.370783 V 10.76359 h 16.47025 a 0.86537719,0.86862432 0 0 0 0.61763,-0.202511 1.5125028,1.5181781 0 0 0 0.35757,-0.710222 h 0.43343 v 5.034276 h -0.43343 a 1.4980996,1.5037208 0 0 0 -0.35757,-0.710211 0.86533333,0.86858031 0 0 0 -0.61763,-0.202511 H 487.3688 v 4.620692 h 7.50912 a 0.86464278,0.86788715 0 0 0 0.61764,-0.199663 1.4818658,1.4874262 0 0 0 0.35758,-0.71307 h 0.43342 v 4.92018 h -0.43342 a 1.5026486,1.5082869 0 0 0 -0.35758,-0.704511 0.84235834,0.8455191 0 0 0 -0.61764,-0.208212 z"
       id="path139"
       style="fill:none;stroke:#00ffff;stroke-width:2.07532001;stroke-miterlimit:4;stroke-dasharray:none;stroke-opacity:1"
       inkscape:connector-curvature="0" />
    <path
       d="m 541.54722,12.412192 -2.20507,4.583635 -0.37926,-0.228191 a 2.0861763,2.0940043 0 0 0 0.0162,-0.228181 c 0,-0.322306 -0.26547,-0.670281 -0.791,-1.041077 a 9.3192139,9.3541821 0 0 0 -5.65625,-1.76844 7.9163795,7.9460839 0 0 0 -2.53554,0.370783 2.9979311,3.0091801 0 0 0 -1.29487,0.855686 1.835797,1.8426855 0 0 0 -0.49302,1.237889 1.5270814,1.5328114 0 0 0 1.25695,1.497439 19.174866,19.246815 0 0 0 2.79559,0.424994 l 2.12379,0.22818 a 16.881344,16.944688 0 0 1 3.06651,0.584715 7.0987938,7.1254304 0 0 1 2.08045,1.041079 4.8508497,4.8690515 0 0 1 1.45742,1.836875 5.6279989,5.6491167 0 0 1 0.53637,2.438701 5.6981845,5.7195657 0 0 1 -1.26239,3.648062 6.7055551,6.7307163 0 0 1 -3.53784,2.150623 13.534469,13.585254 0 0 1 -3.83041,0.527669 15.633547,15.692209 0 0 1 -7.24365,-1.853986 3.7826217,3.7968152 0 0 0 -0.9102,-0.370784 1.1032496,1.1073893 0 0 0 -0.55262,0.313747 l -0.39549,-0.213921 2.00461,-4.777566 0.39548,0.199663 v 0.185391 a 1.5843107,1.5902554 0 0 0 0.57972,1.183702 7.2687168,7.295991 0 0 0 2.72517,1.426144 11.305707,11.34813 0 0 0 3.48909,0.598974 6.8012477,6.826768 0 0 0 3.07734,-0.641763 3.0177712,3.0290946 0 0 0 1.12691,-0.944102 2.1046572,2.1125545 0 0 0 0.41716,-1.23219 1.4133793,1.4186827 0 0 0 -0.99146,-1.380504 12.459653,12.506406 0 0 0 -2.78476,-0.527669 l -2.09128,-0.22818 a 27.599051,27.702611 0 0 1 -2.96356,-0.433498 7.4809834,7.5090541 0 0 1 -1.73372,-0.664551 4.5551891,4.5722814 0 0 1 -1.93416,-1.928141 5.3314503,5.3514555 0 0 1 -0.63931,-2.652622 5.4903243,5.5109255 0 0 1 1.61452,-4.081615 q 2.11295,-2.126374 6.33887,-2.127804 a 13.744861,13.796436 0 0 1 3.30485,0.379354 24.155037,24.245674 0 0 1 3.81417,1.397624 4.0113853,4.026437 0 0 0 0.96436,0.328007 1.0760545,1.0800921 0 0 0 0.66097,-0.328007 z"
       id="path141"
       style="fill:none;stroke:#00ffff;stroke-width:2.07532001;stroke-miterlimit:4;stroke-dasharray:none;stroke-opacity:1"
       inkscape:connector-curvature="0" />
    <path
       d="M 572.93816,28.732928 V 12.246802 a 0.97417961,0.977835 0 0 0 -0.19502,-0.656023 1.338853,1.3438767 0 0 0 -0.67181,-0.370783 v -0.456362 h 5.76458 v 0.456362 a 1.2561715,1.260885 0 0 0 -0.67181,0.362245 1.0145064,1.0183131 0 0 0 -0.19505,0.66455 v 16.486126 a 1.0223,1.0261359 0 0 0 0.20045,0.675994 1.2648528,1.2695989 0 0 0 0.66645,0.365095 v 0.456361 h -5.76458 v -0.45635 a 1.3389407,1.3439647 0 0 0 0.67182,-0.370784 1.0000594,1.0038119 0 0 0 0.19497,-0.670305 z"
       id="path143"
       style="fill:none;stroke:#00ffff;stroke-width:2.07532001;stroke-miterlimit:4;stroke-dasharray:none;stroke-opacity:1"
       inkscape:connector-curvature="0" />
    <path
       d="m 619.15777,12.412192 -2.20506,4.583635 -0.37925,-0.228191 a 2.0861763,2.0940043 0 0 0 0.0162,-0.228181 c 0,-0.322306 -0.26549,-0.670281 -0.79101,-1.041077 a 9.3192139,9.3541821 0 0 0 -5.65623,-1.768418 7.9162917,7.9459959 0 0 0 -2.53554,0.370783 2.9978214,3.00907 0 0 0 -1.29487,0.855686 1.8357532,1.8426415 0 0 0 -0.49303,1.23789 1.5270923,1.5328225 0 0 0 1.25693,1.497438 19.175403,19.247354 0 0 0 2.79562,0.424993 l 2.12379,0.228181 a 16.881202,16.944544 0 0 1 3.06649,0.584715 7.0987171,7.1253534 0 0 1 2.08047,1.041079 4.8508497,4.8690515 0 0 1 1.4574,1.836875 5.6279989,5.6491167 0 0 1 0.53636,2.438701 5.6981737,5.7195547 0 0 1 -1.26235,3.648062 6.7055551,6.7307163 0 0 1 -3.53784,2.150623 13.534469,13.585254 0 0 1 -3.83041,0.527669 15.633547,15.692209 0 0 1 -7.24366,-1.853986 3.7824354,3.7966281 0 0 0 -0.9102,-0.370783 1.1032277,1.1073673 0 0 0 -0.55262,0.313747 l -0.3955,-0.213922 2.00461,-4.777566 0.39548,0.199663 v 0.185391 a 1.5843107,1.5902554 0 0 0 0.57972,1.183702 7.2686291,7.295903 0 0 0 2.72517,1.426144 11.305707,11.34813 0 0 0 3.48909,0.598975 6.8012477,6.826768 0 0 0 3.07733,-0.641764 3.0177712,3.0290946 0 0 0 1.12692,-0.944102 2.1046572,2.1125545 0 0 0 0.41717,-1.23219 1.4133793,1.4186827 0 0 0 -0.99147,-1.380504 12.459653,12.506406 0 0 0 -2.78477,-0.527669 l -2.09132,-0.22818 a 27.599051,27.702611 0 0 1 -2.96355,-0.433498 7.4809834,7.5090541 0 0 1 -1.73371,-0.664551 4.5551891,4.5722814 0 0 1 -1.93417,-1.928141 5.3313298,5.3513344 0 0 1 -0.6393,-2.652622 5.4903243,5.5109255 0 0 1 1.61451,-4.081615 q 2.11295,-2.126374 6.33888,-2.127804 a 13.744729,13.796304 0 0 1 3.30485,0.379354 24.154709,24.245344 0 0 1 3.81415,1.397624 4.0113853,4.026437 0 0 0 0.96438,0.328007 1.0760545,1.0800921 0 0 0 0.66097,-0.328007 z"
       id="path145"
       style="fill:none;stroke:#00ffff;stroke-width:2.07532001;stroke-miterlimit:4;stroke-dasharray:none;stroke-opacity:1"
       inkscape:connector-curvature="0" />
    <path
       inkscape:connector-curvature="0"
       id="path1089"
       d="m 357.87282,31.122585 c -5.59771,-1.359998 -8.92544,-6.433708 -8.09511,-12.342448 1.03571,-7.370241 8.79831,-11.1739381 17.07778,-8.368148 1.71841,0.582345 2.33917,0.700692 2.58801,0.493402 0.41435,-0.345177 1.94653,0.5067 1.82538,1.014901 -0.11044,0.463294 -2.47891,5.617449 -2.69204,5.858258 -0.27058,0.30575 -1.93157,-0.796042 -1.93157,-1.281281 0,-0.966478 -4.08185,-2.101574 -6.16784,-1.715174 -2.35929,0.437027 -3.94336,1.848071 -4.59895,4.096615 -0.84777,2.907733 0.48413,5.760226 3.25757,6.9766 1.16083,0.509121 4.12225,0.502496 5.88946,-0.01317 1.19739,-0.349393 1.37854,-0.480906 1.37854,-1.000818 0,-0.583461 -0.0457,-0.598566 -1.80922,-0.598566 -1.44735,0 -1.80919,0.07264 -1.80919,0.363198 0,0.269036 -0.28144,0.363199 -1.08552,0.363199 h -1.08553 v -3.14772 -3.147717 h 1.05738 c 0.85452,0 1.0816,0.09292 1.18356,0.484264 0.12088,0.463997 0.32903,0.484265 4.97329,0.484265 h 4.84712 v 1.089594 c 0,0.928174 -0.0715,1.089594 -0.48245,1.089594 -0.44672,0 -0.48246,0.161423 -0.48246,2.179191 0,2.017768 0.0357,2.17919 0.48246,2.17919 0.39023,0 0.48245,0.161422 0.48245,0.844426 0,0.727109 -0.13926,0.93267 -1.00243,1.479613 -3.84861,2.438635 -9.85267,3.57793 -13.80069,2.618736 z m 7.92339,-2.144093 c 0.79345,-0.220141 2.04249,-0.670465 2.77564,-1.000721 l 1.333,-0.600466 -0.0871,-2.838471 c -0.0479,-1.561159 -0.10676,-2.860469 -0.13062,-2.887355 -0.0239,-0.02689 -1.66794,-0.06526 -3.65339,-0.08527 -2.89045,-0.02914 -3.6099,0.02886 -3.6099,0.291017 0,0.253601 0.66613,0.342731 2.95502,0.39539 l 2.95505,0.06798 v 2.021024 c 0,2.277054 0.004,2.269942 -1.93043,3.078768 -1.13485,0.474396 -1.7611,0.555879 -4.34149,0.564886 -2.90098,0.01013 -3.06432,-0.01672 -4.3072,-0.707712 -1.60807,-0.894031 -3.01698,-2.473019 -3.51456,-3.93884 -0.21426,-0.631189 -0.37986,-1.91881 -0.37977,-2.952689 3.2e-4,-3.061445 1.40691,-5.375383 4.16768,-6.856147 0.87982,-0.471889 1.37988,-0.546284 3.67202,-0.546284 2.71414,0 2.82549,0.0272 6.0565,1.479104 0.24597,0.110535 1.00046,-1.274879 0.79064,-1.45178 -0.35971,-0.303239 -4.07817,-1.38318 -5.21285,-1.513951 -0.76619,-0.0883 -1.47282,-0.280253 -1.57029,-0.426556 -0.12243,-0.183744 -0.17837,-0.172407 -0.18093,0.03666 -0.002,0.195655 -0.37849,0.302665 -1.0638,0.302665 -1.50574,0 -3.91209,0.810997 -5.39596,1.818564 -4.97283,3.376644 -4.7556,11.803581 0.38219,14.825828 2.18304,1.284142 3.28962,1.539056 6.1945,1.426985 1.45942,-0.05631 3.30267,-0.282489 4.0961,-0.502631 z"
       style="opacity:1;vector-effect:none;fill:#fffffe;fill-opacity:1;stroke:none;stroke-width:0.4567166;stroke-linecap:butt;stroke-linejoin:miter;stroke-miterlimit:4;stroke-dasharray:none;stroke-dashoffset:0;stroke-opacity:1" />
    <path
       inkscape:connector-curvature="0"
       id="path1093"
       d="m 399.45214,24.363818 v -3.75305 l 4.4024,0.05457 4.40239,0.05458 -4.28178,0.07208 -4.28178,0.07208 v 3.501374 3.501375 l 6.45282,0.06861 6.45283,0.06861 -6.57344,0.05641 -6.57344,0.05641 z"
       style="opacity:1;vector-effect:none;fill:#fffffe;fill-opacity:1;stroke:none;stroke-width:0.4567166;stroke-linecap:butt;stroke-linejoin:miter;stroke-miterlimit:4;stroke-dasharray:none;stroke-dashoffset:0;stroke-opacity:1" />
    <path
       inkscape:connector-curvature="0"
       id="path1095"
       d="m 412.47841,31.627783 c 0,-0.316299 -1.15254,-0.363198 -8.9254,-0.363198 h -8.92541 v -1.112263 c 0,-0.908629 0.0884,-1.135447 0.48246,-1.238901 0.47061,-0.12353 0.48245,-0.330273 0.48245,-8.423719 0,-8.093445 -0.0118,-8.300187 -0.48245,-8.423718 -0.39414,-0.103456 -0.48246,-0.330271 -0.48246,-1.2389 V 9.71482 h 8.8048 c 7.66565,0 8.80477,-0.046992 8.80477,-0.3631976 0,-0.225991 0.22783,-0.3631986 0.60308,-0.3631986 0.44224,0 0.60306,0.1291372 0.60306,0.4842645 0,0.3228426 0.16082,0.4842646 0.48246,0.4842646 0.45564,0 0.48246,0.1614211 0.48246,2.9055861 v 2.905586 h -1.0574 c -0.85796,0 -1.08142,-0.09224 -1.18479,-0.489046 -0.12359,-0.474375 -0.28545,-0.487087 -5.39543,-0.423732 l -5.26804,0.06531 -0.0723,1.392261 -0.0724,1.39226 h 3.29118 c 3.08831,0 3.29898,-0.02985 3.41735,-0.484265 0.10199,-0.391351 0.32904,-0.484264 1.18356,-0.484264 h 1.05738 v 3.389851 3.389851 h -1.05738 c -0.85966,0 -1.08133,-0.09189 -1.18541,-0.491438 -0.12175,-0.467251 -0.28636,-0.488104 -3.34502,-0.42373 l -3.21698,0.06771 v 1.694925 1.694925 l 5.38867,0.06523 c 5.23063,0.06331 5.3924,0.05089 5.51605,-0.423733 0.10336,-0.396704 0.32687,-0.488953 1.18477,-0.488953 h 1.05739 v 3.38985 3.389852 h -1.08552 c -0.80409,0 -1.08553,-0.09416 -1.08553,-0.363198 z m 0.48245,-3.026652 v -0.726396 h -6.63374 -6.63375 v -3.510917 -3.510916 h 4.34208 4.34211 l 1.5e-4,-0.665864 1.5e-4,-0.665864 h -4.40255 -4.40255 l -0.0673,-3.208252 -0.0673,-3.208251 h 6.52011 6.52013 v -0.729847 -0.729845 l -7.48165,0.06398 -7.48166,0.06398 -0.0566,8.77734 -0.0566,8.777341 7.77956,-4.9e-5 7.77957,-4.9e-5 z"
       style="opacity:1;vector-effect:none;fill:#fffffe;fill-opacity:1;stroke:none;stroke-width:0.4567166;stroke-linecap:butt;stroke-linejoin:miter;stroke-miterlimit:4;stroke-dasharray:none;stroke-dashoffset:0;stroke-opacity:1" />
    <path
       inkscape:connector-curvature="0"
       id="path1099"
       d="m 436.60111,30.053924 c 0,-0.914722 0.0885,-1.21066 0.36184,-1.21066 0.31465,0 0.36185,-1.089595 0.36185,-8.353562 0,-7.263965 -0.0473,-8.353561 -0.36185,-8.353561 -0.27338,0 -0.36184,-0.295939 -0.36184,-1.21066 V 9.71482 h 4.12315 4.12314 l -0.0826,1.309089 -0.0826,1.309088 3.13595,3.437424 c 1.72477,1.890582 3.53838,3.889281 4.03028,4.44155 l 0.89431,1.004128 0.009,-4.511738 c 0.009,-4.312565 -0.011,-4.51733 -0.47218,-4.638377 -0.39413,-0.103456 -0.48246,-0.330271 -0.48246,-1.2389 V 9.71482 h 3.73903 3.73902 v 1.210661 c 0,0.914721 -0.0885,1.21066 -0.36184,1.21066 -0.31465,0 -0.36185,1.089596 -0.36185,8.353561 0,7.263967 0.0473,8.353562 0.36185,8.353562 0.27338,0 0.36184,0.295938 0.36184,1.21066 v 1.210661 h -3.85963 -3.85965 l -0.002,-1.271194 -0.002,-1.271195 -3.9961,-4.358378 c -2.19787,-2.397108 -4.09652,-4.461891 -4.21921,-4.588405 -0.13687,-0.141109 -0.22311,1.567036 -0.22311,4.418911 0,3.970969 0.0527,4.64894 0.36185,4.64894 0.27339,0 0.36184,0.295938 0.36184,1.21066 v 1.210661 h -3.61841 -3.6184 z m 4.35439,-8.171961 c -0.0173,-4.028475 0.0543,-7.323228 0.15907,-7.321673 0.32983,0.0048 12.22952,13.075793 12.70384,13.954206 0.42266,0.782746 0.52108,0.832402 1.51519,0.764541 l 1.06317,-0.07258 -10e-4,-8.716759 -0.001,-8.716759 h -0.79033 -0.79034 l -0.1206,7.209867 -0.12062,7.209865 -6.00813,-6.588733 c -3.30449,-3.623803 -6.12527,-6.900155 -6.2684,-7.280782 -0.24815,-0.659909 -0.32201,-0.688754 -1.59051,-0.621132 l -1.33025,0.07091 -0.0634,8.473249 c -0.035,4.660287 -0.008,8.617028 0.0587,8.792758 0.0745,0.194781 0.41384,0.28984 0.86934,0.243509 l 0.74721,-0.07599 z"
       style="opacity:1;vector-effect:none;fill:#fffffe;fill-opacity:1;stroke:none;stroke-width:0.4567166;stroke-linecap:butt;stroke-linejoin:miter;stroke-miterlimit:4;stroke-dasharray:none;stroke-dashoffset:0;stroke-opacity:1" />
    <path
       inkscape:connector-curvature="0"
       id="path1101"
       d="m 482.30131,20.489702 c 8e-5,-4.527872 0.0328,-6.345967 0.0724,-4.040211 0.0397,2.305755 0.0396,6.010376 -1.6e-4,8.232494 -0.0398,2.222117 -0.0723,0.335589 -0.0722,-4.192283 z"
       style="opacity:1;vector-effect:none;fill:#fffffe;fill-opacity:1;stroke:none;stroke-width:0.4567166;stroke-linecap:butt;stroke-linejoin:miter;stroke-miterlimit:4;stroke-dasharray:none;stroke-dashoffset:0;stroke-opacity:1" />
    <path
       inkscape:connector-curvature="0"
       id="path1103"
       d="m 499.39004,31.74885 c -0.12329,-0.473222 -0.32904,-0.484265 -9.02343,-0.484265 h -8.89727 v -1.18242 c 0,-0.978787 0.083,-1.20423 0.48245,-1.309059 0.47041,-0.123477 0.48247,-0.330273 0.48247,-8.283404 0,-7.953131 -0.012,-8.159925 -0.48247,-8.283402 -0.39937,-0.104831 -0.48245,-0.330272 -0.48245,-1.309059 V 9.71482 h 8.70675 c 8.5039,0 8.7097,-0.011278 8.83294,-0.4842646 0.13611,-0.5225135 0.32834,-0.5655497 1.48709,-0.3329319 l 0.75384,0.1513326 v 3.4806509 3.48065 h -1.05739 c -0.85451,0 -1.0816,-0.09292 -1.18354,-0.484264 -0.12126,-0.465404 -0.32904,-0.484265 -5.33514,-0.484265 h -5.20896 v 1.331727 1.331727 h 3.15852 c 2.95567,0 3.16666,-0.03111 3.28471,-0.484264 0.10442,-0.400865 0.32904,-0.484264 1.30417,-0.484264 h 1.17799 v 3.38985 3.389851 h -1.20613 c -0.91131,0 -1.20613,-0.08878 -1.20613,-0.363198 0,-0.304907 -0.52266,-0.363199 -3.25657,-0.363199 h -3.25656 v 1.57386 1.573859 h 5.4276 c 4.66373,0 5.42761,-0.05112 5.42761,-0.363198 0,-0.274417 0.29484,-0.363199 1.20613,-0.363199 h 1.20615 v 3.510916 3.510918 h -1.10811 c -0.90523,0 -1.13121,-0.08865 -1.23427,-0.484264 z m 0.17148,-3.087186 1.6e-4,-0.665863 -6.6339,0.06801 -6.63391,0.06801 v -3.76053 -3.760532 h 4.46271 c 4.30188,0 4.46271,-0.01746 4.46271,-0.484265 0,-0.466839 -0.16083,-0.484263 -4.46952,-0.484263 h -4.4695 l 0.067,-3.329318 0.0671,-3.329317 h 6.45291 6.4529 l -8e-5,-0.665864 -8e-5,-0.665863 h -7.47804 -7.47804 v 8.837824 8.837825 h 7.59866 7.59865 z"
       style="opacity:1;vector-effect:none;fill:#fffffe;fill-opacity:1;stroke:none;stroke-width:0.4567166;stroke-linecap:butt;stroke-linejoin:miter;stroke-miterlimit:4;stroke-dasharray:none;stroke-dashoffset:0;stroke-opacity:1" />
    <path
       inkscape:connector-curvature="0"
       id="path1105"
       d="m 529.3529,31.150037 c -0.79604,-0.174998 -2.08902,-0.603944 -2.87329,-0.953211 -0.78437,-0.349318 -1.62714,-0.570927 -1.87316,-0.492551 -0.25371,0.08082 -0.79974,-0.0762 -1.26188,-0.362891 l -0.81464,-0.50537 1.34306,-3.204627 c 0.73868,-1.762545 1.36779,-3.239467 1.398,-3.282052 0.0302,-0.04258 0.49965,0.150311 1.04321,0.428653 0.74198,0.379957 0.98827,0.650784 0.98827,1.086738 0,1.715329 5.8536,3.033238 8.18035,1.841765 1.15177,-0.589794 1.43895,-1.395033 0.61032,-1.711263 -0.31842,-0.121518 -1.96524,-0.391785 -3.65959,-0.600593 -4.77301,-0.588213 -6.19527,-1.101378 -7.52829,-2.716306 -2.24901,-2.724593 -1.70233,-7.226845 1.14224,-9.406976 1.73219,-1.3275878 3.11772,-1.6792922 6.56197,-1.6656975 2.86366,0.0113 3.13583,0.056663 5.41046,0.9016895 1.66542,0.618706 2.48413,0.815643 2.68728,0.646416 0.20299,-0.1691 0.5579,-0.08599 1.16297,0.272355 0.47895,0.283651 0.8722,0.586684 0.87386,0.673409 0.002,0.08673 -0.66684,1.540243 -1.48555,3.230038 l -1.48859,3.072354 -0.91776,-0.529967 c -0.50475,-0.291481 -0.94891,-0.747885 -0.98702,-1.014229 -0.0456,-0.318534 -0.5646,-0.732861 -1.51663,-1.210661 -1.31044,-0.657679 -1.66924,-0.726398 -3.79262,-0.726398 -2.08379,0 -2.40354,0.05849 -2.86795,0.524634 -0.28746,0.288548 -0.46197,0.683389 -0.38779,0.877422 0.15548,0.406693 0.8174,0.550431 4.15364,0.901963 4.69728,0.494944 7.11422,1.655146 8.30916,3.988626 0.8324,1.625529 0.87338,4.574405 0.0843,6.072614 -0.56928,1.081036 -2.04626,2.528618 -3.18081,3.117514 -2.00933,1.042967 -6.37394,1.392845 -9.31361,0.746602 z m 6.19972,-1.852342 c 1.70591,-0.362934 2.85807,-0.97564 3.74821,-1.993258 0.94751,-1.083209 1.36443,-2.36632 1.16849,-3.596204 -0.46629,-2.926983 -2.20616,-3.949537 -7.73923,-4.548483 -4.54578,-0.492073 -5.42762,-0.980997 -5.42762,-3.009275 0,-3.383636 5.5309,-4.562871 10.22499,-2.180053 0.91377,0.463855 1.68607,0.812937 1.71622,0.77574 0.19978,-0.246554 0.62719,-1.211323 0.56185,-1.268237 -0.27483,-0.239308 -1.76712,-0.873174 -3.21581,-1.365931 -1.34932,-0.45896 -2.1975,-0.575006 -4.22148,-0.577578 -2.23476,-0.0029 -2.69208,0.07169 -3.88543,0.6332 -3.08595,1.452038 -3.97416,4.949953 -1.86825,7.357446 0.91678,1.048073 2.17159,1.434372 6.23613,1.91981 3.99646,0.477306 4.73977,0.709667 5.31865,1.662611 0.76703,1.262679 0.5037,2.527297 -0.77601,3.726633 -2.02538,1.898194 -6.68628,1.819637 -10.24023,-0.172594 l -1.23489,-0.692242 -0.27278,0.600922 c -0.15002,0.330507 -0.27277,0.688409 -0.27277,0.795336 0,0.337675 3.73865,1.772397 5.307,2.036587 1.24402,0.209557 3.63831,0.158246 4.87296,-0.104436 z"
       style="opacity:1;vector-effect:none;fill:#fffffe;fill-opacity:1;stroke:none;stroke-width:0.4567166;stroke-linecap:butt;stroke-linejoin:miter;stroke-miterlimit:4;stroke-dasharray:none;stroke-dashoffset:0;stroke-opacity:1" />
    <path
       inkscape:connector-curvature="0"
       id="path1109"
       d="m 570.96457,30.152322 c 0,-0.908629 0.0884,-1.135447 0.48245,-1.238901 0.47062,-0.12353 0.48245,-0.330273 0.48245,-8.423719 0,-8.175679 -0.007,-8.298989 -0.49724,-8.427598 -0.42163,-0.110676 -0.48581,-0.289823 -0.42214,-1.178369 l 0.0751,-1.0478491 3.76797,-0.066521 3.76798,-0.066521 0.15196,0.7626511 c 0.26059,1.307806 0.18881,1.670648 -0.3305,1.670648 -0.47309,0 -0.48245,0.161422 -0.48245,8.325321 0,8.121685 0.0119,8.328418 0.48245,8.451958 0.39412,0.103457 0.48246,0.330272 0.48246,1.238901 v 1.112263 h -3.98025 -3.98024 z m 5.00847,-9.602086 -0.0633,-8.777292 h -0.9649 -0.9649 l -0.0633,8.777292 -0.0633,8.777291 h 1.09153 1.09155 z"
       style="opacity:1;vector-effect:none;fill:#fffffe;fill-opacity:1;stroke:none;stroke-width:0.4567166;stroke-linecap:butt;stroke-linejoin:miter;stroke-miterlimit:4;stroke-dasharray:none;stroke-dashoffset:0;stroke-opacity:1" />
    <path
       inkscape:connector-curvature="0"
       id="path1113"
       d="m 606.50864,31.02602 c -0.94902,-0.249718 -2.17641,-0.684933 -2.72752,-0.967144 -0.55946,-0.286483 -1.20373,-0.448852 -1.4587,-0.36762 -0.35677,0.113659 -1.66227,-0.335617 -2.12188,-0.730226 -0.0739,-0.06341 2.55915,-6.446877 2.72979,-6.618171 0.2306,-0.231454 1.7833,1.008446 1.85088,1.478004 0.0904,0.628562 1.33702,1.518893 2.70538,1.932315 0.54382,0.164304 1.93066,0.300272 3.08183,0.30215 1.75273,0.0029 2.20378,-0.07928 2.77412,-0.505141 0.88787,-0.662986 1.01583,-1.434851 0.27157,-1.638181 -0.30548,-0.08345 -1.9666,-0.317022 -3.69138,-0.519036 -1.72476,-0.202014 -3.7024,-0.54312 -4.39474,-0.758016 -4.57,-1.418496 -5.92947,-7.301809 -2.48594,-10.758267 1.56577,-1.571651 3.30987,-2.2102009 6.41279,-2.3478597 2.64752,-0.1174548 4.21127,0.1722726 7.02226,1.3010667 1.09988,0.441668 1.64824,0.554754 1.8258,0.376526 0.28063,-0.281685 2.20569,0.560425 2.0687,0.904941 -0.0418,0.105238 -0.72308,1.564449 -1.51382,3.242688 l -1.43773,3.051345 -0.90242,-0.509087 c -0.50759,-0.286351 -0.93396,-0.727915 -0.97454,-1.00925 -0.0481,-0.333941 -0.54718,-0.743804 -1.50156,-1.23328 -1.2065,-0.618778 -1.75202,-0.743887 -3.49779,-0.802191 -2.1422,-0.07154 -2.98417,0.162794 -3.48662,0.970407 -0.18115,0.291155 -0.18306,0.493785 -0.006,0.67118 0.13924,0.139763 1.90741,0.472618 3.92927,0.739679 5.4749,0.723159 7.16977,1.543479 8.40488,4.067959 1.26499,2.585584 0.71056,5.928335 -1.29831,7.827755 -0.91915,0.869083 -2.81241,1.781855 -4.37644,2.109974 -1.92566,0.403982 -5.2291,0.306497 -7.20155,-0.21252 z m 8.15958,-2.164469 c 1.51516,-0.57942 2.98702,-1.99218 3.22903,-3.099369 0.0808,-0.369582 0.19113,-0.814553 0.24521,-0.988823 0.17034,-0.54896 -0.37662,-2.509422 -0.9098,-3.261027 -0.82241,-1.159311 -2.57514,-1.801632 -6.10378,-2.23686 -5.10815,-0.630045 -5.63093,-0.83511 -6.14946,-2.412153 -0.41811,-1.271653 0.3049,-2.678185 1.76673,-3.436967 2.09771,-1.088842 5.4693,-0.868888 8.32075,0.542829 0.97184,0.481148 1.79841,0.837584 1.83684,0.792081 0.0384,-0.04551 0.20431,-0.341748 0.36864,-0.658323 0.36955,-0.711828 0.33233,-0.738744 -2.40015,-1.735895 -3.73014,-1.361207 -7.84499,-1.170746 -9.89464,0.457988 -1.07214,0.851958 -1.92982,2.525445 -1.92982,3.765413 0,1.289592 0.82476,2.926374 1.766,3.504779 1.05733,0.649727 2.1963,0.916587 5.79209,1.357082 4.47781,0.548545 5.53397,1.13 5.53397,3.046693 0,1.719799 -1.21277,2.893571 -3.6211,3.504693 -2.40609,0.610553 -5.66698,0.0019 -8.08778,-1.509743 l -0.9085,-0.567273 -0.23734,0.626594 c -0.13054,0.344626 -0.23734,0.714217 -0.23734,0.821313 0,0.297816 2.83662,1.474693 4.4627,1.851512 2.03888,0.472483 5.41915,0.300328 7.15775,-0.364544 z"
       style="opacity:1;vector-effect:none;fill:#fffffe;fill-opacity:1;stroke:none;stroke-width:0.4567166;stroke-linecap:butt;stroke-linejoin:miter;stroke-miterlimit:4;stroke-dasharray:none;stroke-dashoffset:0;stroke-opacity:1" />
  </g>
</svg>
