<?xml version="1.0" encoding="UTF-8" standalone="no"?>
<svg
   xmlns:dc="http://purl.org/dc/elements/1.1/"
   xmlns:cc="http://creativecommons.org/ns#"
   xmlns:rdf="http://www.w3.org/1999/02/22-rdf-syntax-ns#"
   xmlns:svg="http://www.w3.org/2000/svg"
   xmlns="http://www.w3.org/2000/svg"
   xmlns:sodipodi="http://sodipodi.sourceforge.net/DTD/sodipodi-0.dtd"
   xmlns:inkscape="http://www.inkscape.org/namespaces/inkscape"
   width="86"
   height="20"
   viewBox="0 0 86 20"
   version="1.1"
   id="svg3739"
   sodipodi:docname="system.svg"
   inkscape:version="0.92.4 (5da689c313, 2019-01-14)">
  <metadata
     id="metadata3743">
    <rdf:RDF>
      <cc:Work
         rdf:about="">
        <dc:format>image/svg+xml</dc:format>
        <dc:type
           rdf:resource="http://purl.org/dc/dcmitype/StillImage" />
        <dc:title>system</dc:title>
      </cc:Work>
    </rdf:RDF>
  </metadata>
  <sodipodi:namedview
     pagecolor="#ffffff"
     bordercolor="#666666"
     borderopacity="1"
     objecttolerance="10"
     gridtolerance="10"
     guidetolerance="10"
     inkscape:pageopacity="0"
     inkscape:pageshadow="2"
     inkscape:window-width="1920"
     inkscape:window-height="1137"
     id="namedview3741"
     showgrid="false"
     inkscape:zoom="7.5183342"
     inkscape:cx="98.492563"
     inkscape:cy="8.1535411"
     inkscape:window-x="-8"
     inkscape:window-y="344"
     inkscape:window-maximized="1"
     inkscape:current-layer="svg3739"
     scale-x="2" />
  <!-- Generator: Sketch 45 (43475) - http://www.bohemiancoding.com/sketch -->
  <title
     id="title3729">system</title>
  <desc
     id="desc3731">Created with Sketch.</desc>
  <defs
     id="defs3733" />
  <g
     inkscape:groupmode="layer"
     id="layer1"
     inkscape:label="Layer 1"
     transform="translate(0,2)" />
  <g
     inkscape:groupmode="layer"
     id="layer2"
     inkscape:label="Layer 2"
     transform="translate(0,2)" />
  <g
     aria-label="SEGA 32X"
     style="font-style:normal;font-variant:normal;font-weight:normal;font-stretch:normal;font-size:21.33333397px;line-height:1.25;font-family:Arial;-inkscape-font-specification:Arial;letter-spacing:0px;word-spacing:0px;fill:none;fill-opacity:1;stroke:#ffffff;stroke-width:0.5;stroke-miterlimit:4;stroke-dasharray:none;stroke-opacity:1"
     id="text4643">
    <path
       d="m 1.9092153,12.289442 1.5488282,-0.135417 q 0.110026,0.93099 0.5078125,1.531901 0.40625,0.592448 1.2526042,0.964844 0.8463542,0.363932 1.904297,0.363932 0.9394531,0 1.6588542,-0.279296 0.7194011,-0.279297 1.0664063,-0.761719 0.3554683,-0.490886 0.3554683,-1.066407 0,-0.583984 -0.3385412,-1.015625 Q 9.5264031,11.451551 8.7477572,11.155327 8.2484083,10.960666 6.5387728,10.554416 4.8291373,10.139702 4.1435904,9.7757699 3.2549185,9.3102751 2.8148143,8.6247282 2.3831737,7.9307178 2.3831737,7.0759001 q 0,-0.9394532 0.5332031,-1.7519532 Q 3.44958,4.5029833 4.4736685,4.0798062 5.4977571,3.6566291 6.7503613,3.6566291 q 1.3795574,0 2.4290366,0.4485677 1.0579431,0.4401042 1.6250001,1.3033855 0.567057,0.8632813 0.609375,1.9550782 L 9.8395542,7.4821501 Q 9.712601,6.3057177 8.9762729,5.7048063 8.2484083,5.1038948 6.8180697,5.1038948 q -1.4895834,0 -2.1751303,0.5501302 -0.6770834,0.5416667 -0.6770834,1.311849 0,0.6686198 0.4824219,1.1002605 0.4739584,0.4316406 2.4713543,0.8886719 2.0058594,0.4485677 2.7506511,0.7871094 1.0833337,0.4993492 1.5996097,1.2695312 0.516276,0.761719 0.516276,1.760417 0,0.990234 -0.567058,1.870443 -0.567057,0.871744 -1.6334631,1.36263 -1.0579428,0.482422 -2.3867188,0.482422 -1.6842449,0 -2.8268231,-0.490886 Q 3.2379914,15.505588 2.5862987,14.523817 1.9430695,13.533583 1.9092153,12.289442 Z"
       style="font-size:17.33333397px;fill:none;fill-opacity:1;stroke:#ffffff;stroke-width:0.5;stroke-miterlimit:4;stroke-dasharray:none;stroke-opacity:1"
       id="path5476"
       inkscape:connector-curvature="0" />
    <path
       d="M 14.079788,16.27577 V 3.8682176 h 8.971355 v 1.4641928 h -7.329428 v 3.8001304 h 6.863933 V 10.58827 h -6.863933 v 4.223307 h 7.617188 v 1.464193 z"
       style="font-size:17.33333397px;fill:none;fill-opacity:1;stroke:#ffffff;stroke-width:0.5;stroke-miterlimit:4;stroke-dasharray:none;stroke-opacity:1"
       id="path5478"
       inkscape:connector-curvature="0" />
    <path
       d="M 31.430049,11.409234 V 9.9535043 l 5.255859,-0.00846 v 4.6041677 q -1.210286,0.964843 -2.496744,1.455729 -1.286459,0.482422 -2.640626,0.482422 -1.828125,0 -3.326172,-0.778646 -1.489583,-0.78711 -2.251302,-2.268229 -0.761718,-1.48112 -0.761718,-3.309245 0,-1.8111988 0.753255,-3.376954 0.761719,-1.5742188 2.183594,-2.3359376 1.421875,-0.7617188 3.27539,-0.7617188 1.345704,0 2.429037,0.4401042 1.091797,0.4316406 1.709635,1.2102865 0.617839,0.7786458 0.939454,2.0312501 l -1.48112,0.40625 Q 34.739294,6.7966032 34.32458,6.2549365 33.909867,5.7132698 33.139684,5.3916552 32.369502,5.0615771 31.430049,5.0615771 q -1.125651,0 -1.946615,0.3470052 -0.820963,0.3385417 -1.328776,0.8971354 -0.499349,0.5585938 -0.778646,1.2272136 -0.473958,1.1510417 -0.473958,2.4967447 0,1.658854 0.567057,2.776042 0.575521,1.117188 1.667318,1.658854 1.091797,0.541667 2.319011,0.541667 1.066406,0 2.082031,-0.40625 1.015625,-0.414714 1.540364,-0.880208 v -2.310547 z"
       style="font-size:17.33333397px;fill:none;fill-opacity:1;stroke:#ffffff;stroke-width:0.5;stroke-miterlimit:4;stroke-dasharray:none;stroke-opacity:1"
       id="path5480"
       inkscape:connector-curvature="0" />
    <path
       d="M 37.73539,16.27577 42.500364,3.8682176 h 1.76888 L 49.347369,16.27577 H 47.476927 L 46.029661,12.517958 H 40.84151 l -1.362631,3.757812 z m 3.580078,-5.095052 h 4.20638 L 44.226926,7.7445199 Q 43.634478,6.1787646 43.346718,5.1716031 43.109739,6.3649625 42.678098,7.5413949 Z"
       style="font-size:17.33333397px;fill:none;fill-opacity:1;stroke:#ffffff;stroke-width:0.5;stroke-miterlimit:4;stroke-dasharray:none;stroke-opacity:1"
       id="path5482"
       inkscape:connector-curvature="0" />
    <path
       d="m 53.926145,13.000379 1.523438,-0.203125 q 0.262369,1.294922 0.888671,1.870443 0.634766,0.567058 1.540365,0.567058 1.07487,0 1.811198,-0.744792 0.744792,-0.744792 0.744792,-1.845052 0,-1.04948 -0.685547,-1.726563 -0.685547,-0.685547 -1.74349,-0.685547 -0.43164,0 -1.07487,0.169271 l 0.169271,-1.3372396 q 0.152344,0.016927 0.245443,0.016927 0.973307,0 1.751953,-0.5078125 0.778646,-0.5078125 0.778646,-1.5657553 0,-0.8378906 -0.567057,-1.3880209 -0.567058,-0.5501302 -1.464193,-0.5501302 -0.888672,0 -1.48112,0.5585938 -0.592448,0.5585938 -0.761719,1.6757813 L 54.078489,7.0335823 q 0.279297,-1.531901 1.269531,-2.3697917 0.990234,-0.8463542 2.462891,-0.8463542 1.015625,0 1.870442,0.4401042 0.854818,0.4316406 1.303386,1.1848959 0.457031,0.7532552 0.457031,1.5996094 0,0.8040365 -0.43164,1.4641928 -0.431641,0.6601562 -1.277995,1.0494792 1.10026,0.2539062 1.709635,1.0579431 0.609375,0.795573 0.609375,1.997396 0,1.625 -1.184896,2.759114 -1.184896,1.125651 -2.996093,1.125651 -1.633464,0 -2.716797,-0.973307 -1.07487,-0.973307 -1.227214,-2.522136 z"
       style="font-size:17.33333397px;fill:none;fill-opacity:1;stroke:#ffffff;stroke-width:0.5;stroke-miterlimit:4;stroke-dasharray:none;stroke-opacity:1"
       id="path5484"
       inkscape:connector-curvature="0" />
    <path
       d="m 71.57263,14.811577 v 1.464193 h -8.201173 q -0.01693,-0.55013 0.177735,-1.057943 0.313151,-0.83789 0.998698,-1.65039 0.69401,-0.8125 1.997396,-1.878907 2.022786,-1.658854 2.733724,-2.6236976 0.710937,-0.9733073 0.710937,-1.8365886 0,-0.905599 -0.651692,-1.5234375 -0.64323,-0.6263021 -1.684245,-0.6263021 -1.100261,0 -1.760417,0.6601562 -0.660156,0.6601563 -0.66862,1.8281251 L 63.659218,7.4059782 q 0.160807,-1.7519532 1.210286,-2.6660157 1.04948,-0.9225261 2.81836,-0.9225261 1.785807,0 2.826823,0.9902344 1.041016,0.9902344 1.041016,2.4544272 0,0.7447917 -0.304688,1.4641927 -0.304687,0.7194011 -1.015625,1.5149743 -0.702474,0.795573 -2.344401,2.183594 -1.371094,1.151041 -1.760417,1.565755 -0.389323,0.40625 -0.643229,0.820963 z"
       style="font-size:17.33333397px;fill:none;fill-opacity:1;stroke:#ffffff;stroke-width:0.5;stroke-miterlimit:4;stroke-dasharray:none;stroke-opacity:1"
       id="path5486"
       inkscape:connector-curvature="0" />
    <path
       d="M 72.571327,16.27577 77.370156,9.8096241 73.138385,3.8682176 h 1.955078 l 2.251302,3.1822918 q 0.702474,0.9902344 0.998698,1.5234376 0.414713,-0.6770834 0.981771,-1.4134115 l 2.496745,-3.2923179 h 1.785807 l -4.358724,5.8483076 4.697266,6.5592448 h -2.03125 l -3.123047,-4.426432 q -0.26237,-0.38086 -0.541667,-0.829427 -0.414714,0.677083 -0.592448,0.930989 l -3.114584,4.32487 z"
       style="font-size:17.33333397px;fill:none;fill-opacity:1;stroke:#ffffff;stroke-width:0.5;stroke-miterlimit:4;stroke-dasharray:none;stroke-opacity:1"
       id="path5488"
       inkscape:connector-curvature="0" />
  </g>
</svg>
