<?xml version="1.0" encoding="UTF-8" standalone="no"?>
<svg
   xmlns:dc="http://purl.org/dc/elements/1.1/"
   xmlns:cc="http://creativecommons.org/ns#"
   xmlns:rdf="http://www.w3.org/1999/02/22-rdf-syntax-ns#"
   xmlns:svg="http://www.w3.org/2000/svg"
   xmlns="http://www.w3.org/2000/svg"
   xmlns:sodipodi="http://sodipodi.sourceforge.net/DTD/sodipodi-0.dtd"
   xmlns:inkscape="http://www.inkscape.org/namespaces/inkscape"
   width="135"
   height="20"
   viewBox="0 0 135 20"
   version="1.1"
   id="svg3739"
   sodipodi:docname="system.svg"
   inkscape:version="0.92.4 (5da689c313, 2019-01-14)">
  <metadata
     id="metadata3743">
    <rdf:RDF>
      <cc:Work
         rdf:about="">
        <dc:format>image/svg+xml</dc:format>
        <dc:type
           rdf:resource="http://purl.org/dc/dcmitype/StillImage" />
        <dc:title>system</dc:title>
      </cc:Work>
    </rdf:RDF>
  </metadata>
  <sodipodi:namedview
     pagecolor="#ffffff"
     bordercolor="#666666"
     borderopacity="1"
     objecttolerance="10"
     gridtolerance="10"
     guidetolerance="10"
     inkscape:pageopacity="0"
     inkscape:pageshadow="2"
     inkscape:window-width="1920"
     inkscape:window-height="1137"
     id="namedview3741"
     showgrid="false"
     inkscape:zoom="3.7591671"
     inkscape:cx="139.45183"
     inkscape:cy="8.1535411"
     inkscape:window-x="-8"
     inkscape:window-y="344"
     inkscape:window-maximized="1"
     inkscape:current-layer="svg3739"
     scale-x="2"
     inkscape:pagecheckerboard="true" />
  <!-- Generator: Sketch 45 (43475) - http://www.bohemiancoding.com/sketch -->
  <title
     id="title3729">system</title>
  <desc
     id="desc3731">Created with Sketch.</desc>
  <defs
     id="defs3733" />
  <g
     inkscape:groupmode="layer"
     id="layer1"
     inkscape:label="Layer 1"
     transform="translate(0,2)" />
  <g
     inkscape:groupmode="layer"
     id="layer2"
     inkscape:label="Layer 2"
     transform="translate(0,2)" />
  <text
     xml:space="preserve"
     style="font-style:normal;font-variant:normal;font-weight:normal;font-stretch:normal;font-size:32px;line-height:1.25;font-family:Arial;-inkscape-font-specification:Arial;letter-spacing:0px;word-spacing:0px;fill:#000000;fill-opacity:1;stroke:none;"
     x="13.832851"
     y="39.419193"
     id="text833"><tspan
       sodipodi:role="line"
       id="tspan831"
       x="13.832851"
       y="69.019196" /></text>
  <g
     aria-label="COLECOVISION"
     style="font-style:normal;font-variant:normal;font-weight:normal;font-stretch:normal;font-size:32px;line-height:1.25;font-family:Durandal;-inkscape-font-specification:Durandal;letter-spacing:0px;word-spacing:0px;fill:none;fill-opacity:1;stroke:#ffffff;stroke-width:0.60000002;stroke-miterlimit:4;stroke-dasharray:none;stroke-opacity:1"
     id="text837">
    <path
       d="m 14.344549,11.266785 2.242187,0.710937 q -0.515625,1.875 -1.71875,2.789063 -1.195312,0.90625 -3.039062,0.90625 -2.2812503,0 -3.7500003,-1.554688 -1.46875,-1.5625 -1.46875,-4.2656248 0,-2.859375 1.4765625,-4.4375 1.4765625,-1.5859375 3.8828128,-1.5859375 2.101562,0 3.414062,1.2421875 0.78125,0.734375 1.171875,2.109375 l -2.289062,0.546875 q -0.203125,-0.890625 -0.851563,-1.40625 -0.640625,-0.515625 -1.5625,-0.515625 -1.273437,0 -2.0703123,0.9140625 -0.7890625,0.9140625 -0.7890625,2.9609375 0,2.1718748 0.78125,3.0937498 0.7812498,0.921875 2.0312498,0.921875 0.921875,0 1.585938,-0.585937 0.664062,-0.585938 0.953125,-1.84375 z"
       style="font-style:normal;font-variant:normal;font-weight:bold;font-stretch:normal;font-size:16px;font-family:Arial;-inkscape-font-specification:'Arial Bold';fill:none;stroke:#ffffff;stroke-width:0.60000002;stroke-miterlimit:4;stroke-dasharray:none;stroke-opacity:1"
       id="path839"
       inkscape:connector-curvature="0" />
    <path
       d="m 18.110174,9.8214722 q 0,-1.75 0.523437,-2.9375 0.390625,-0.875 1.0625,-1.5703125 0.679688,-0.6953125 1.484375,-1.03125 1.070313,-0.453125 2.46875,-0.453125 2.53125,0 4.046875,1.5703125 1.523438,1.5703125 1.523438,4.3671875 0,2.7734373 -1.507813,4.3437503 -1.507812,1.5625 -4.03125,1.5625 -2.554687,0 -4.0625,-1.554688 -1.507812,-1.5625 -1.507812,-4.2968748 z m 2.382812,-0.078125 q 0,1.9453128 0.898438,2.9531248 0.898437,1 2.28125,1 1.382812,0 2.265625,-0.992187 0.890625,-1 0.890625,-2.9921878 0,-1.96875 -0.867188,-2.9375 -0.859375,-0.96875 -2.289062,-0.96875 -1.429688,0 -2.304688,0.984375 -0.875,0.9765625 -0.875,2.953125 z"
       style="font-style:normal;font-variant:normal;font-weight:bold;font-stretch:normal;font-size:16px;font-family:Arial;-inkscape-font-specification:'Arial Bold';fill:none;stroke:#ffffff;stroke-width:0.60000002;stroke-miterlimit:4;stroke-dasharray:none;stroke-opacity:1"
       id="path841"
       inkscape:connector-curvature="0" />
    <path
       d="M 31.078924,15.477722 V 4.1183472 h 2.3125 v 9.4296878 h 5.75 v 1.929687 z"
       style="font-style:normal;font-variant:normal;font-weight:bold;font-stretch:normal;font-size:16px;font-family:Arial;-inkscape-font-specification:'Arial Bold';fill:none;stroke:#ffffff;stroke-width:0.60000002;stroke-miterlimit:4;stroke-dasharray:none;stroke-opacity:1"
       id="path843"
       inkscape:connector-curvature="0" />
    <path
       d="M 40.797674,15.477722 V 4.0245972 h 8.492187 v 1.9375 h -6.179687 v 2.5390625 h 5.75 v 1.9296873 h -5.75 v 3.117188 h 6.398437 v 1.929687 z"
       style="font-style:normal;font-variant:normal;font-weight:bold;font-stretch:normal;font-size:16px;font-family:Arial;-inkscape-font-specification:'Arial Bold';fill:none;stroke:#ffffff;stroke-width:0.60000002;stroke-miterlimit:4;stroke-dasharray:none;stroke-opacity:1"
       id="path845"
       inkscape:connector-curvature="0" />
    <path
       d="m 58.813299,11.266785 2.242187,0.710937 q -0.515625,1.875 -1.71875,2.789063 -1.195312,0.90625 -3.039062,0.90625 -2.28125,0 -3.75,-1.554688 -1.46875,-1.5625 -1.46875,-4.2656248 0,-2.859375 1.476562,-4.4375 1.476563,-1.5859375 3.882813,-1.5859375 2.101562,0 3.414062,1.2421875 0.78125,0.734375 1.171875,2.109375 l -2.289062,0.546875 q -0.203125,-0.890625 -0.851563,-1.40625 -0.640625,-0.515625 -1.5625,-0.515625 -1.273437,0 -2.070312,0.9140625 -0.789063,0.9140625 -0.789063,2.9609375 0,2.1718748 0.78125,3.0937498 0.78125,0.921875 2.03125,0.921875 0.921875,0 1.585938,-0.585937 0.664062,-0.585938 0.953125,-1.84375 z"
       style="font-style:normal;font-variant:normal;font-weight:bold;font-stretch:normal;font-size:16px;font-family:Arial;-inkscape-font-specification:'Arial Bold';fill:none;stroke:#ffffff;stroke-width:0.60000002;stroke-miterlimit:4;stroke-dasharray:none;stroke-opacity:1"
       id="path847"
       inkscape:connector-curvature="0" />
    <path
       d="m 62.578924,9.8214722 q 0,-1.75 0.523437,-2.9375 0.390625,-0.875 1.0625,-1.5703125 0.679688,-0.6953125 1.484375,-1.03125 1.070313,-0.453125 2.46875,-0.453125 2.53125,0 4.046875,1.5703125 1.523438,1.5703125 1.523438,4.3671875 0,2.7734373 -1.507813,4.3437503 -1.507812,1.5625 -4.03125,1.5625 -2.554687,0 -4.0625,-1.554688 -1.507812,-1.5625 -1.507812,-4.2968748 z m 2.382812,-0.078125 q 0,1.9453128 0.898438,2.9531248 0.898437,1 2.28125,1 1.382812,0 2.265625,-0.992187 0.890625,-1 0.890625,-2.9921878 0,-1.96875 -0.867188,-2.9375 -0.859375,-0.96875 -2.289062,-0.96875 -1.429688,0 -2.304688,0.984375 -0.875,0.9765625 -0.875,2.953125 z"
       style="font-style:normal;font-variant:normal;font-weight:bold;font-stretch:normal;font-size:16px;font-family:Arial;-inkscape-font-specification:'Arial Bold';fill:none;stroke:#ffffff;stroke-width:0.60000002;stroke-miterlimit:4;stroke-dasharray:none;stroke-opacity:1"
       id="path849"
       inkscape:connector-curvature="0" />
    <path
       d="M 78.407049,15.477722 74.313299,4.0245972 h 2.507812 l 2.898438,8.4765628 2.804687,-8.4765628 h 2.453125 L 80.875799,15.477722 Z"
       style="font-style:normal;font-variant:normal;font-weight:bold;font-stretch:normal;font-size:16px;font-family:Arial;-inkscape-font-specification:'Arial Bold';fill:none;stroke:#ffffff;stroke-width:0.60000002;stroke-miterlimit:4;stroke-dasharray:none;stroke-opacity:1"
       id="path851"
       inkscape:connector-curvature="0" />
    <path
       d="M 86.102361,15.477722 V 4.0245972 h 2.3125 V 15.477722 Z"
       style="font-style:normal;font-variant:normal;font-weight:bold;font-stretch:normal;font-size:16px;font-family:Arial;-inkscape-font-specification:'Arial Bold';fill:none;stroke:#ffffff;stroke-width:0.60000002;stroke-miterlimit:4;stroke-dasharray:none;stroke-opacity:1"
       id="path853"
       inkscape:connector-curvature="0" />
    <path
       d="m 90.024236,11.75116 2.25,-0.21875 q 0.203125,1.132812 0.820313,1.664062 0.625,0.53125 1.679687,0.53125 1.117188,0 1.679688,-0.46875 0.570312,-0.476562 0.570312,-1.109375 0,-0.40625 -0.242187,-0.6875 -0.234375,-0.289062 -0.828125,-0.5 -0.40625,-0.140625 -1.851563,-0.5 -1.859375,-0.460937 -2.609375,-1.1328123 -1.054687,-0.9453125 -1.054687,-2.3046875 0,-0.875 0.492187,-1.6328125 0.5,-0.765625 1.429688,-1.1640625 0.9375,-0.3984375 2.257812,-0.3984375 2.15625,0 3.242188,0.9453125 1.09375,0.9453125 1.148437,2.5234375 l -2.3125,0.1015625 q -0.148437,-0.8828125 -0.640625,-1.265625 -0.484375,-0.390625 -1.460937,-0.390625 -1.007813,0 -1.578125,0.4140625 -0.367188,0.265625 -0.367188,0.7109375 0,0.40625 0.34375,0.6953125 0.4375,0.3671875 2.125,0.765625 1.6875,0.3984375 2.492188,0.828125 0.8125,0.421875 1.265625,1.1640623 0.460937,0.734375 0.460937,1.820313 0,0.984375 -0.546875,1.84375 -0.546875,0.859375 -1.546875,1.28125 -1,0.414062 -2.492187,0.414062 -2.171875,0 -3.335938,-1 -1.164062,-1.007812 -1.390625,-2.929687 z"
       style="font-style:normal;font-variant:normal;font-weight:bold;font-stretch:normal;font-size:16px;font-family:Arial;-inkscape-font-specification:'Arial Bold';fill:none;stroke:#ffffff;stroke-width:0.60000002;stroke-miterlimit:4;stroke-dasharray:none;stroke-opacity:1"
       id="path855"
       inkscape:connector-curvature="0" />
    <path
       d="M 101.22736,15.477722 V 4.0245972 h 2.3125 V 15.477722 Z"
       style="font-style:normal;font-variant:normal;font-weight:bold;font-stretch:normal;font-size:16px;font-family:Arial;-inkscape-font-specification:'Arial Bold';fill:none;stroke:#ffffff;stroke-width:0.60000002;stroke-miterlimit:4;stroke-dasharray:none;stroke-opacity:1"
       id="path857"
       inkscape:connector-curvature="0" />
    <path
       d="m 105.26642,9.8214722 q 0,-1.75 0.52344,-2.9375 0.39063,-0.875 1.0625,-1.5703125 0.67969,-0.6953125 1.48438,-1.03125 1.07031,-0.453125 2.46875,-0.453125 2.53125,0 4.04687,1.5703125 1.52344,1.5703125 1.52344,4.3671875 0,2.7734373 -1.50781,4.3437503 -1.50782,1.5625 -4.03125,1.5625 -2.55469,0 -4.0625,-1.554688 -1.50782,-1.5625 -1.50782,-4.2968748 z m 2.38282,-0.078125 q 0,1.9453128 0.89843,2.9531248 0.89844,1 2.28125,1 1.38282,0 2.26563,-0.992187 0.89062,-1 0.89062,-2.9921878 0,-1.96875 -0.86718,-2.9375 -0.85938,-0.96875 -2.28907,-0.96875 -1.42968,0 -2.30468,0.984375 -0.875,0.9765625 -0.875,2.953125 z"
       style="font-style:normal;font-variant:normal;font-weight:bold;font-stretch:normal;font-size:16px;font-family:Arial;-inkscape-font-specification:'Arial Bold';fill:none;stroke:#ffffff;stroke-width:0.60000002;stroke-miterlimit:4;stroke-dasharray:none;stroke-opacity:1"
       id="path859"
       inkscape:connector-curvature="0" />
    <path
       d="M 118.19611,15.477722 V 4.0245972 h 2.25 l 4.6875,7.6484378 V 4.0245972 h 2.14844 V 15.477722 h -2.32031 l -4.61719,-7.4687498 v 7.4687498 z"
       style="font-style:normal;font-variant:normal;font-weight:bold;font-stretch:normal;font-size:16px;font-family:Arial;-inkscape-font-specification:'Arial Bold';fill:none;stroke:#ffffff;stroke-width:0.60000002;stroke-miterlimit:4;stroke-dasharray:none;stroke-opacity:1"
       id="path861"
       inkscape:connector-curvature="0" />
  </g>
</svg>
