<?xml version="1.0" encoding="UTF-8" standalone="no"?>
<svg
   xmlns:dc="http://purl.org/dc/elements/1.1/"
   xmlns:cc="http://creativecommons.org/ns#"
   xmlns:rdf="http://www.w3.org/1999/02/22-rdf-syntax-ns#"
   xmlns:svg="http://www.w3.org/2000/svg"
   xmlns="http://www.w3.org/2000/svg"
   xmlns:sodipodi="http://sodipodi.sourceforge.net/DTD/sodipodi-0.dtd"
   xmlns:inkscape="http://www.inkscape.org/namespaces/inkscape"
   viewBox="0 0 1000 114.00004"
   version="1.1"
   id="svg70"
   sodipodi:docname="logo.svg"
   inkscape:version="0.92.4 (5da689c313, 2019-01-14)">
  <metadata
     id="metadata76">
    <rdf:RDF>
      <cc:Work
         rdf:about="">
        <dc:format>image/svg+xml</dc:format>
        <dc:type
           rdf:resource="http://purl.org/dc/dcmitype/StillImage" />
        <dc:title>logo</dc:title>
      </cc:Work>
    </rdf:RDF>
  </metadata>
  <defs
     id="defs74" />
  <sodipodi:namedview
     pagecolor="#ffffff"
     bordercolor="#666666"
     borderopacity="1"
     objecttolerance="10"
     gridtolerance="10"
     guidetolerance="10"
     inkscape:pageopacity="0"
     inkscape:pageshadow="2"
     inkscape:window-width="1920"
     inkscape:window-height="1017"
     id="namedview72"
     showgrid="false"
     inkscape:pagecheckerboard="true"
     inkscape:zoom="1.6065466"
     inkscape:cx="456.00717"
     inkscape:cy="57.000019"
     inkscape:window-x="-8"
     inkscape:window-y="-8"
     inkscape:window-maximized="1"
     inkscape:current-layer="svg70" />
  <title
     id="title2">logo</title>
  <g
     id="g1017">
    <path
       d="m 631.37932,18.960027 v 78.47572 h -11.23085 v -78.47572 h 11.23083 m 0,-7 h -11.23083 a 7,7 0 0 0 -7,7 v 78.47572 a 7,7 0 0 0 7,7.000003 h 11.23083 a 7,7 0 0 0 7,-7.000003 v -78.47572 a 7,7 0 0 0 -7,-7 z"
       id="path7"
       inkscape:connector-curvature="0"
       style="fill:#ffffff;fill-opacity:1" />
    <path
       d="m 588.84136,19.030777 v 33.51739 h -11.30054 v -33.51739 h 11.30054 m 0,-7 h -11.30054 a 7,7 0 0 0 -7,7 v 33.51739 a 7,7 0 0 0 7,7 h 11.30054 a 7,7 0 0 0 7,-7 v -33.51739 a 7,7 0 0 0 -7,-7 z"
       id="path9"
       inkscape:connector-curvature="0"
       style="fill:#ffffff;fill-opacity:1" />
    <path
       d="m 500.39934,7.6236169 20.95343,99.9906531 h -11.23089 l -2.24616,-13.477003 h -15.68841 l -2.35169,13.477003 h -11.1253 v -0.10559 l 21.689,-99.8850631 m -5.96685,77.5277601 h 11.09045 l -5.12358,-34.42932 -5.96687,34.42932 m 5.96651,-84.52775012 a 6.99972,6.99972 0 0 0 -6.84021,5.51464002 l -21.689,99.8850031 a 6.99648,6.99648 0 0 0 -0.15942,1.48536 v 0.10559 a 7,7 0 0 0 7,7 h 11.1253 a 7,7 0 0 0 6.89582,-5.7967 l 1.34015,-7.68033 h 3.8742 l 1.2713,7.62782 a 7.00006,7.00006 0 0 0 6.90479,5.84921 h 11.23086 a 7,7 0 0 0 6.8512,-8.43571 L 507.25054,6.1879069 a 7,7 0 0 0 -6.8258,-5.56423002 h -0.0258 z"
       id="path35"
       inkscape:connector-curvature="0"
       style="fill:none;fill-opacity:1;stroke:#00ffff;stroke-opacity:1;stroke-width:1.88976378;stroke-miterlimit:4;stroke-dasharray:none" />
    <path
       d="m 500.39934,50.722067 5.12354,34.42931 h -11.09041 l 5.96691,-34.42931 m -0.001,-7 a 6.99966,6.99966 0 0 0 -6.89606,5.80466 l -5.96692,34.4293 a 7,7 0 0 0 6.89716,8.19536 h 11.09045 a 7.00005,7.00005 0 0 0 6.92377,-8.03035 l -5.12354,-34.42931 a 7,7 0 0 0 -6.84021,-5.96915 z"
       id="path11"
       inkscape:connector-curvature="0"
       style="fill:#ffffff;fill-opacity:1" />
    <path
       d="m 389.95047,17.802147 v 34.74492 h -11.23081 v -34.74492 h 11.23081 m 0,-7 h -11.23081 a 7,7 0 0 0 -7,7 v 34.74492 a 7,7 0 0 0 7,7 h 11.23081 a 7,7 0 0 0 7,-7 v -34.74492 a 7,7 0 0 0 -7,-7 z"
       id="path13"
       inkscape:connector-curvature="0"
       style="fill:#ffffff;fill-opacity:1" />
    <path
       d="m 588.84247,62.690797 v 34.74605 h -11.33644 v -34.74605 h 11.33644 m 0,-7 h -11.33644 a 7,7 0 0 0 -7,7 v 34.74605 a 7,7 0 0 0 7,7.000003 h 11.33644 a 7,7 0 0 0 7,-7.000003 v -34.74605 a 7,7 0 0 0 -7,-7 z"
       id="path15"
       inkscape:connector-curvature="0"
       style="fill:#ffffff;fill-opacity:1" />
    <path
       d="m 341.61962,7.6348269 h 0.005 m -0.005,0 L 320.87621,107.60977 300.02605,7.6348269 h 11.22642 l 9.62378,56.1891501 9.51587,-56.1891501 h 11.22754 m 0.005,-7.00000002 H 330.39208 A 7,7 0 0 0 323.49035,6.4660069 L 320.8373,22.131657 318.15197,6.4531169 a 7,7 0 0 0 -6.8995,-5.81829002 H 300.02605 A 7,7 0 0 0 293.17347,9.0639469 L 314.02366,109.0389 a 7.00031,7.00031 0 0 0 6.85248,5.57087 h 0.004 a 7,7 0 0 0 6.85044,-5.57788 l 20.696,-99.7463731 a 7.00561,7.00561 0 0 0 -6.8016,-8.65069002 z m -0.005,14.00000012 z"
       id="path19"
       inkscape:connector-curvature="0"
       style="fill:none;fill-opacity:1;stroke:#00ffff;stroke-opacity:1;stroke-width:1.88976378;stroke-miterlimit:4;stroke-dasharray:none" />
    <path
       id="path3726"
       d="m 346.21752,7.6348469 h 11.22749 V 107.60978 h -11.22749 z"
       inkscape:connector-curvature="0"
       style="fill:none;fill-opacity:1;stroke:#00ffff;stroke-opacity:1" />
    <path
       id="path2952"
       d="M 300.02608,7.6348469 320.87619,107.60978 341.61959,7.6348469 H 330.3921 L 320.87619,63.823997 311.25247,7.6348469 Z"
       inkscape:connector-curvature="0"
       style="fill:none;fill-opacity:1;stroke:#00ffff;stroke-opacity:1" />
    <path
       d="M 357.445,7.6348269 V 107.60977 H 346.21752 V 7.6348269 H 357.445 m 0,-7.00000002 h -11.22748 a 7,7 0 0 0 -7,7.00000002 V 107.60977 a 7,7 0 0 0 7,7 H 357.445 a 7,7 0 0 0 7,-7 V 7.6348269 a 7,7 0 0 0 -7,-7.00000002 z"
       id="path23"
       inkscape:connector-curvature="0"
       style="fill:none;fill-opacity:1;stroke:#00ffff;stroke-opacity:1;stroke-width:1.88976378;stroke-miterlimit:4;stroke-dasharray:none" />
    <path
       d="m 320.8764,111.10976 a 3.49965,3.49965 0 0 1 -3.42627,-2.78565 L 296.60003,8.3490069 a 3.49969,3.49969 0 0 1 3.42627,-4.21435 h 11.22607 a 3.49962,3.49962 0 0 1 3.44971,2.90918 l 6.15478,35.9340801 6.08448,-35.9277301 a 3.49968,3.49968 0 0 1 3.45068,-2.91553 h 11.22754 a 3.5003,3.5003 0 0 1 3.42725,4.21094 L 324.30364,108.32069 a 3.5,3.5 0 0 1 -3.42529,2.78907 z"
       id="path17"
       inkscape:connector-curvature="0"
       style="fill:#ffffff;fill-opacity:1;stroke:none;stroke-opacity:1" />
    <path
       d="m 388.65221,7.6235969 c 0,0 7.93128,1.12532 12.52918,11.3364401 v 31.762 c 0,0 -2.04291,5.45147 -8.98468,9.61582 L 404.69103,107.6131 H 394.33727 L 378.71966,55.951097 V 107.6131 h -11.2309 V 7.6235969 h 21.16345 m -9.93255,44.9234701 h 11.23081 v -34.74494 h -11.23081 v 34.74494 m 9.93255,-51.92347012 h -21.16345 a 7,7 0 0 0 -7,7.00000002 V 107.61313 a 7,7 0 0 0 7,7 h 11.2309 a 7,7 0 0 0 7,-7 v -4.316 l 1.91708,6.3416 a 7,7 0 0 0 6.70053,4.97441 h 10.35376 a 7,7 0 0 0 6.76767,-8.78862 L 400.19094,63.190247 a 26.4607,26.4607 0 0 0 7.54532,-10.01179 7.00076,7.00076 0 0 0 0.44513,-2.45641 v -31.762 a 7.00025,7.00025 0 0 0 -0.61722,-2.87406 C 401.55694,2.7450369 390.838,0.86362688 389.63558,0.69300688 a 7.00179,7.00179 0 0 0 -0.98337,-0.06941 z"
       id="path27"
       inkscape:connector-curvature="0"
       style="fill:none;fill-opacity:1;stroke:#00ffff;stroke-opacity:1;stroke-width:1.88976378;stroke-miterlimit:4;stroke-dasharray:none" />
    <path
       style="fill:#ffffff;fill-opacity:1;stroke:none"
       d="m 346.21771,4.1346569 h 11.22754 c 1.939,0 3.5,1.561 3.5,3.5 V 107.60975 c 0,1.939 -1.561,3.5 -3.5,3.5 h -11.22754 c -1.939,0 -3.5,-1.561 -3.5,-3.5 V 7.6346569 c 0,-1.939 1.561,-3.5 3.5,-3.5 z"
       id="rect21" />
    <path
       d="M 438.28033,7.6348469 V 17.793177 H 427.05279 V 107.6109 H 415.82531 V 17.793177 H 404.70562 V 7.6348469 h 33.57471 m 0,-7.00000002 h -33.57471 a 7,7 0 0 0 -7,7.00000002 V 17.793177 a 7,7 0 0 0 7,7 h 4.11969 V 107.6109 a 7,7 0 0 0 7,7 h 11.22748 a 7,7 0 0 0 7,-7 V 24.793177 h 4.22754 a 7,7 0 0 0 7,-7 V 7.6348469 a 7,7 0 0 0 -7,-7.00000002 z"
       id="path31"
       inkscape:connector-curvature="0"
       style="fill:none;fill-opacity:1;stroke:#00ffff;stroke-opacity:1;stroke-width:1.88976378;stroke-miterlimit:4;stroke-dasharray:none" />
    <path
       d="m 394.33733,111.11318 a 3.49945,3.49945 0 0 1 -3.35009,-2.48731 l -8.76758,-29.002003 v 27.989263 a 3.49987,3.49987 0 0 1 -3.5,3.5 h -11.231 a 3.49986,3.49986 0 0 1 -3.5,-3.5 V 7.6234569 a 3.49985,3.49985 0 0 1 3.5,-3.5 h 21.16361 a 3.52616,3.52616 0 0 1 0.4917,0.03467 c 0.40186,0.05713 9.90088,1.53222 15.229,13.3647401 a 3.496,3.496 0 0 1 0.30859,1.437 v 31.76219 a 3.49192,3.49192 0 0 1 -0.22266,1.228 24.08915,24.08915 0 0 1 -8.23828,9.916 l 11.854,44.852543 a 3.50037,3.50037 0 0 1 -3.38379,4.39454 z m -7.88672,-62.065923 v -27.74512 h -4.231 v 27.74512 z"
       id="path25"
       inkscape:connector-curvature="0"
       style="fill:#ffffff;fill-opacity:1" />
    <path
       id="path3728"
       d="M 367.48877,7.6236169 V 107.61315 h 11.23087 V 55.951157 l 15.61765,51.662003 h 10.35373 L 392.19668,60.337927 c 6.9418,-4.1644 8.98469,-9.61587 8.98469,-9.61587 v -31.762 C 396.58347,8.7489469 388.65221,7.6236169 388.65221,7.6236169 Z m 11.23087,10.1785301 h 11.23083 v 34.74494 h -11.23083 z"
       inkscape:connector-curvature="0"
       style="fill:#ffffff;fill-opacity:1;stroke:none;stroke-opacity:1" />
    <path
       d="m 510.122,111.11415 a 3.49961,3.49961 0 0 1 -3.45215,-2.9248 l -1.75879,-10.552253 h -9.78125 l -1.8457,10.578613 a 3.50045,3.50045 0 0 1 -3.44824,2.89844 h -11.126 a 3.50017,3.50017 0 0 1 -3.5,-3.5 v -0.10547 a 3.45591,3.45591 0 0 1 0.0801,-0.74267 l 21.6895,-99.8852631 a 3.49942,3.49942 0 0 1 3.41987,-2.75729 h 0.0127 a 3.50018,3.50018 0 0 1 3.41309,2.78223 l 20.95312,99.9907231 a 3.50027,3.50027 0 0 1 -3.42578,4.21777 z m -8.65918,-29.462893 -1.32617,-8.91553 -1.54492,8.91553 z"
       id="path33"
       inkscape:connector-curvature="0"
       style="fill:#ffffff;fill-opacity:1" />
    <path
       d="M 537.0794,7.6348469 V 97.452577 h 16.78674 V 107.6109 H 525.85186 V 7.6348469 h 11.22754 m 0,-7.00000002 h -11.22754 a 7,7 0 0 0 -7,7.00000002 V 107.6109 a 7,7 0 0 0 7,7 h 28.01428 a 7,7 0 0 0 7,-7 V 97.452577 a 7,7 0 0 0 -7,-7 H 544.0794 V 7.6348469 a 7,7 0 0 0 -7,-7.00000002 z"
       id="path39"
       inkscape:connector-curvature="0"
       style="fill:none;fill-opacity:1;stroke:#00ffff;stroke-opacity:1;stroke-width:1.88976378;stroke-miterlimit:4;stroke-dasharray:none" />
    <path
       d="m 525.85147,111.11073 a 3.50017,3.50017 0 0 1 -3.5,-3.5 V 7.6346569 a 3.50017,3.50017 0 0 1 3.5,-3.5 h 11.22754 a 3.50017,3.50017 0 0 1 3.5,3.5 V 93.952527 h 13.28711 a 3.50017,3.50017 0 0 1 3.5,3.5 v 10.158203 a 3.50017,3.50017 0 0 1 -3.5,3.5 z"
       id="path37"
       inkscape:connector-curvature="0"
       style="fill:#ffffff;fill-opacity:1" />
    <path
       id="path2882"
       d="m 525.85187,7.6348469 h 11.22751 V 97.452587 h 16.78676 V 107.6109 h -28.01427 z"
       inkscape:connector-curvature="0"
       style="fill:#ffffff;fill-opacity:1;stroke:none;stroke-opacity:1" />
    <path
       d="m 626.04662,7.6306769 c 1.82532,0 12.58667,0.46807 16.5636,11.3293701 v 77.31774 c 0,0 0.005,11.333113 -16.82837,11.333113 0,0 -0.21429,0.0116 -0.59509,0.0116 -2.822,0 -14.77789,-0.63669 -16.26917,-11.344643 0,-2.13835 0.10669,-77.15723 0,-77.31779 0,0 4.10267,-11.3252101 16.86426,-11.3252101 0,0 0.0926,-0.00416 0.26477,-0.00416 m -5.89815,89.8050501 h 11.23083 v -78.4757 h -11.23083 v 78.4757 M 626.0466,0.63074688 c -0.16131,0 -0.29065,0.002 -0.38568,0.0044 a 24.83569,24.83569 0 0 0 -23.32483,15.94077012 6.99619,6.99619 0 0 0 -0.40674,2.78961 c 0.0351,1.68477 0.0612,15.84623 -0.007,72.4613 -0.003,2.56053 -0.005,4.16351 -0.005,4.45106 a 6.99945,6.99945 0 0 0 0.0669,0.96556 c 1.78674,12.827523 13.61566,17.379013 23.20251,17.379013 0.32965,0 0.58295,-0.006 0.74841,-0.0119 11.505,-0.0403 17.33039,-4.63611 20.194,-8.49422 a 17.35207,17.35207 0 0 0 3.481,-9.841423 v -77.3149 a 6.99929,6.99929 0 0 0 -0.42682,-2.40682 C 644.88018,4.8007569 634.03026,0.63069688 626.04662,0.63069688 Z"
       id="path47"
       inkscape:connector-curvature="0"
       style="fill:none;fill-opacity:1;stroke:#00ffff;stroke-opacity:1;stroke-width:1.88976378;stroke-miterlimit:4;stroke-dasharray:none" />
    <path
       d="m 625.18747,111.12246 c -8.57422,0 -18.26172,-3.77295 -19.73633,-14.361813 a 3.47428,3.47428 0 0 1 -0.0332,-0.48291 l 0.005,-4.44678 c 0.0693,-57.40283 0.041,-71.27149 0.005,-72.61572 a 3.48886,3.48886 0 0 1 0.19922,-1.44727 c 0.20118,-0.55615 5.09864,-13.5966801 20.09278,-13.6333001 0.0703,-0.00195 0.18066,-0.00391 0.32715,-0.00391 6.85546,0 16.168,3.56836 19.85056,13.6260001 a 3.50847,3.50847 0 0 1 0.21291,1.20312 v 77.31785 a 13.8818,13.8818 0 0 1 -2.791,7.752443 c -2.39161,3.22168 -7.36036,7.06054 -17.457,7.08056 -0.12606,0.005 -0.35653,0.0117 -0.67485,0.0117 z m 2.69238,-17.186523 v -71.47609 h -4.23148 v 71.47608 z"
       id="path45"
       inkscape:connector-curvature="0"
       style="fill:#ffffff;fill-opacity:1" />
    <path
       id="path3662"
       d="m 625.78188,7.6348469 c -12.76164,0 -16.86426,11.3252001 -16.86426,11.3252001 0.10669,0.1606 0,75.17943 0,77.31779 1.69248,12.152923 16.86426,11.333063 16.86426,11.333063 v 0 c 16.83283,0 16.82834,-11.333073 16.82834,-11.333073 V 18.960047 C 638.25822,7.0744269 625.78188,7.6348469 625.78188,7.6348469 Z m -5.63341,11.3252001 h 11.23086 v 78.47569 h -11.23086 z"
       inkscape:connector-curvature="0"
       style="fill:#ffffff;fill-opacity:1;stroke:none;stroke-opacity:1" />
    <path
       id="path3735"
       d="M 500.39936,7.6236169 478.7103,107.50871 v 0.10557 h 11.1253 l 2.35174,-13.477003 h 15.68839 l 2.24617,13.477003 h 11.23087 z m 0,43.0984501 5.12353,34.42939 h -11.09048 z"
       inkscape:connector-curvature="0"
       style="fill:#ffffff;fill-opacity:1;stroke:none;stroke-opacity:1" />
    <path
       d="M 476.45177,7.6348269 V 96.275597 c 0,0 -3.63543,11.334173 -16.36,11.334173 -12.72457,0 -17.42914,-11.334173 -17.42914,-11.334173 V 7.6348269 h 11.33533 V 96.275597 h 11.33416 V 7.6348269 h 11.11965 m 0,-7.00000002 h -11.11969 a 6.99049,6.99049 0 0 0 -5.667,2.89012002 6.99061,6.99061 0 0 0 -5.66716,-2.89012002 h -11.33423 a 7.00093,7.00093 0 0 0 -7.0011,7.00000002 V 96.275597 a 6.99966,6.99966 0 0 0 0.53482,2.68355 26.089,26.089 0 0 0 23.89432,15.650623 24.22074,24.22074 0 0 0 23.02557,-16.196203 7.00069,7.00069 0 0 0 0.33447,-2.138 V 7.6348269 a 7,7 0 0 0 -7,-7.00000002 z"
       id="path51"
       inkscape:connector-curvature="0"
       style="fill:none;fill-opacity:1;stroke:#00ffff;stroke-opacity:1;stroke-width:1.88976378;stroke-miterlimit:4;stroke-dasharray:none" />
    <path
       d="m 588.8413,7.6224569 c 0,0 9.41376,3.1795001 11.12531,11.3364701 -0.0168,6.90582 0,33.58706 0,33.58706 0,0 -0.42676,4.29576 -4.38678,4.59788 -0.0135,0.95912 0,2.17653 0,2.17653 0,0 3.5849,0.146 4.371,4.50359 0,6.90362 0.0169,33.61176 0.0169,33.61176 0,0 -0.65026,7.450563 -11.1253,10.177363 H 566.27514 V 7.6224569 H 588.8413 M 577.54082,52.548157 h 11.30054 v -33.51738 h -11.30054 v 33.51738 m -0.0348,44.88868 h 11.33645 v -34.746 h -11.33644 v 34.746 M 588.8413,0.62245688 h -22.56616 a 7,7 0 0 0 -7,7.00000002 V 107.61311 a 7,7 0 0 0 7,7 h 22.56733 a 6.99988,6.99988 0 0 0 1.76343,-0.22577 c 12.04254,-3.13482 15.93432,-11.74788 16.33539,-16.343003 q 0.0267,-0.30578 0.0265,-0.61306 c 0,-1.7e-4 -0.0169,-26.70465 -0.0169,-33.60732 a 6.99545,6.99545 0 0 0 -0.11121,-1.2428 13.52386,13.52386 0 0 0 -1.525,-4.29521 12.888,12.888 0 0 0 1.61761,-5.048 q 0.0345,-0.34711 0.0343,-0.69641 c -1.9e-4,-0.26671 -0.0167,-26.74942 -7e-5,-33.56556 a 6.99962,6.99962 0 0 0 -0.1491,-1.45456 C 604.35558,5.7886669 592.43267,1.4469569 591.08123,0.99051688 a 6.99963,6.99963 0 0 0 -2.23993,-0.36806 z"
       id="path55"
       inkscape:connector-curvature="0"
       style="fill:none;fill-opacity:1;stroke:#00ffff;stroke-opacity:1;stroke-width:1.88976378;stroke-miterlimit:4;stroke-dasharray:none" />
    <path
       d="m 566.27532,111.11318 a 3.50017,3.50017 0 0 1 -3.5,-3.5 V 7.6234569 a 3.50017,3.50017 0 0 1 3.5,-3.5 l 22.56641,-10e-4 a 3.49754,3.49754 0 0 1 1.12011,0.18408 c 0.46192,0.15577 11.332,3.93457 13.43067,13.9336001 a 3.50027,3.50027 0 0 1 0.0742,0.727 c -0.0166,6.90381 0,33.57666 0,33.57666 a 3.45524,3.45524 0 0 1 -0.0176,0.34814 9.53679,9.53679 0 0 1 -2.47754,5.38623 9.19488,9.19488 0 0 1 2.42386,4.92485 3.481,3.481 0 0 1 0.0557,0.62109 c 0,6.90283 0.0166,33.60938 0.0166,33.60987 0,0.10205 -0.004,0.20459 -0.0137,0.30615 -0.0351,0.40478 -1.01074,9.948733 -13.72949,13.260253 a 3.51074,3.51074 0 0 1 -0.88184,0.1128 z M 585.3427,93.936907 v -27.7461 h -4.33691 v 27.7461 z m -0.001,-44.88868 v -26.51757 h -4.30078 v 26.51757 z"
       id="path53"
       inkscape:connector-curvature="0"
       style="fill:#ffffff;fill-opacity:1" />
    <path
       id="path3669"
       d="M 566.27514,7.6236169 V 107.61315 h 22.56733 c 10.475,-2.72686 11.12531,-10.177413 11.12531,-10.177413 0,0 -0.0169,-26.70812 -0.0169,-33.61174 -0.78617,-4.35758 -4.37105,-4.50358 -4.37105,-4.50358 0,0 -0.0135,-1.21743 0,-2.17654 3.96,-0.30211 4.38678,-4.59792 4.38678,-4.59792 0,0 -0.0169,-26.68117 0,-33.587 -1.71156,-8.15701 -11.1253,-11.3365001 -11.1253,-11.3365001 h -22.56617 z m 11.26569,11.4071901 h 11.30052 v 33.5174 h -11.30052 z m -0.0348,43.66 h 11.33644 v 34.74605 h -11.33646 z"
       inkscape:connector-curvature="0"
       style="fill:#ffffff;fill-opacity:1;stroke:none;stroke-opacity:1" />
    <path
       d="m 694.9919,7.6348469 h 0.005 m -0.005,0 -15.71761,58.8093301 V 107.6109 H 668.04675 V 66.444177 L 653.39838,7.6348469 h 10.265 l 10.4784,43.0906101 9.51587,-43.0905601 h 11.33425 m 0.005,-7.00000004 H 683.65765 A 7,7 0 0 0 676.82233,6.1254269 L 673.81348,19.750257 670.46521,5.9808469 a 7.00005,7.00005 0 0 0 -6.80182,-5.34600004 h -10.265 A 7,7 0 0 0 646.6059,9.3267269 l 14.44085,57.9761501 v 40.308003 a 7,7 0 0 0 7,7 h 11.22754 a 7,7 0 0 0 7,-7 V 67.363457 L 701.69324,9.6715469 A 7.0049,7.0049 0 0 0 694.9969,0.63484686 Z m -0.005,14.00000014 z"
       id="path43"
       inkscape:connector-curvature="0"
       style="fill:none;fill-opacity:1;stroke:#00ffff;stroke-opacity:1;stroke-width:1.88976378;stroke-miterlimit:4;stroke-dasharray:none" />
    <path
       d="m 668.04651,111.11073 a 3.50017,3.50017 0 0 1 -3.5,-3.5 V 66.873457 L 650.00159,8.4803569 a 3.50008,3.50008 0 0 1 3.39648,-4.3457 h 10.26563 a 3.50126,3.50126 0 0 1 3.40136,2.67285 l 6.91309,28.4301801 6.26175,-28.3579101 a 3.50022,3.50022 0 0 1 3.418,-2.74512 h 11.334 a 3.49927,3.49927 0 0 1 3.38078,4.4038 L 682.77405,66.903697 V 107.6107 a 3.50017,3.50017 0 0 1 -3.5,3.5 z"
       id="path41"
       inkscape:connector-curvature="0"
       style="fill:#ffffff;fill-opacity:1;stroke:none" />
    <path
       id="path3733"
       d="M 404.70562,7.6348469 H 438.2803 V 17.793167 H 427.05281 V 107.6109 H 415.82532 V 17.793167 H 404.70564 V 7.6348469 Z"
       inkscape:connector-curvature="0"
       style="fill:none;fill-opacity:1;stroke:#00ffff;stroke-opacity:1" />
    <path
       d="m 460.09173,111.10976 c -14.89063,0 -20.43262,-12.941413 -20.66114,-13.492193 a 3.4964,3.4964 0 0 1 -0.26757,-1.3418 V 7.6346569 a 3.50017,3.50017 0 0 1 3.5,-3.5 h 11.335 a 3.50017,3.50017 0 0 1 3.5,3.5 V 92.775767 h 4.334 V 7.6346569 a 3.50017,3.50017 0 0 1 3.5,-3.5 h 11.12012 a 3.50017,3.50017 0 0 1 3.5,3.5 V 96.275767 a 3.51209,3.51209 0 0 1 -0.167,1.06885 20.66261,20.66261 0 0 1 -19.69341,13.765143 z"
       id="path49"
       inkscape:connector-curvature="0"
       style="fill:#ffffff;fill-opacity:1;stroke:none;stroke-opacity:1" />
    <path
       d="m 415.82513,111.3308 a 3.49985,3.49985 0 0 1 -3.5,-3.5 V 21.513417 h -7.61966 a 3.49985,3.49985 0 0 1 -3.5,-3.5 V 7.8547273 a 3.49985,3.49985 0 0 1 3.5,-3.5 h 33.5747 a 3.50017,3.50017 0 0 1 3.5,3.5 V 18.013417 a 3.50017,3.50017 0 0 1 -3.5,3.5 h -7.72754 V 107.8308 a 3.50017,3.50017 0 0 1 -3.5,3.5 z"
       id="path29"
       inkscape:connector-curvature="0"
       style="fill:#ffffff;fill-opacity:1;stroke:none" />
  </g>
</svg>
