<?xml version="1.0" encoding="UTF-8" standalone="no"?>
<svg
   xmlns:dc="http://purl.org/dc/elements/1.1/"
   xmlns:cc="http://creativecommons.org/ns#"
   xmlns:rdf="http://www.w3.org/1999/02/22-rdf-syntax-ns#"
   xmlns:svg="http://www.w3.org/2000/svg"
   xmlns="http://www.w3.org/2000/svg"
   xmlns:sodipodi="http://sodipodi.sourceforge.net/DTD/sodipodi-0.dtd"
   xmlns:inkscape="http://www.inkscape.org/namespaces/inkscape"
   width="95"
   height="20"
   viewBox="0 0 95 20"
   version="1.1"
   id="svg3739"
   sodipodi:docname="system.svg"
   inkscape:version="0.92.4 (5da689c313, 2019-01-14)">
  <metadata
     id="metadata3743">
    <rdf:RDF>
      <cc:Work
         rdf:about="">
        <dc:format>image/svg+xml</dc:format>
        <dc:type
           rdf:resource="http://purl.org/dc/dcmitype/StillImage" />
        <dc:title>system</dc:title>
      </cc:Work>
    </rdf:RDF>
  </metadata>
  <sodipodi:namedview
     pagecolor="#ffffff"
     bordercolor="#666666"
     borderopacity="1"
     objecttolerance="10"
     gridtolerance="10"
     guidetolerance="10"
     inkscape:pageopacity="0"
     inkscape:pageshadow="2"
     inkscape:window-width="1920"
     inkscape:window-height="1137"
     id="namedview3741"
     showgrid="false"
     inkscape:zoom="3.7591671"
     inkscape:cx="82.29931"
     inkscape:cy="8.1535411"
     inkscape:window-x="-8"
     inkscape:window-y="344"
     inkscape:window-maximized="1"
     inkscape:current-layer="svg3739"
     scale-x="2" />
  <!-- Generator: Sketch 45 (43475) - http://www.bohemiancoding.com/sketch -->
  <title
     id="title3729">system</title>
  <desc
     id="desc3731">Created with Sketch.</desc>
  <defs
     id="defs3733" />
  <g
     inkscape:groupmode="layer"
     id="layer1"
     inkscape:label="Layer 1"
     transform="translate(0,2)" />
  <g
     inkscape:groupmode="layer"
     id="layer2"
     inkscape:label="Layer 2"
     transform="translate(0,2)" />
  <g
     aria-label="SPECTRUM"
     style="font-style:normal;font-variant:normal;font-weight:normal;font-stretch:normal;font-size:21.33333397px;line-height:1.25;font-family:Arial;-inkscape-font-specification:Arial;letter-spacing:0px;word-spacing:0px;fill:none;fill-opacity:1;stroke:#ffffff;stroke-width:0.5;stroke-miterlimit:4;stroke-dasharray:none;stroke-opacity:1"
     id="text4531">
    <path
       d="m 3.9168999,12.330067 1.4296875,-0.125 q 0.1015625,0.859375 0.46875,1.414062 0.375,0.546875 1.15625,0.890625 0.78125,0.335938 1.7578125,0.335938 0.8671875,0 1.5312501,-0.257813 0.664062,-0.257812 0.984375,-0.703125 0.328125,-0.453125 0.328125,-0.984375 0,-0.539062 -0.3125,-0.9375 -0.3125,-0.40625 -1.03125,-0.679687 Q 9.7684624,11.103504 8.1903374,10.728504 6.6122124,10.345692 5.9793999,10.009754 5.1590874,9.5800667 4.7528374,8.9472542 4.3543999,8.3066292 4.3543999,7.5175667 q 0,-0.8671875 0.4921875,-1.6171875 0.4921875,-0.7578125 1.4375,-1.1484375 0.9453125,-0.390625 2.1015625,-0.390625 1.2734375,0 2.2421871,0.4140625 0.976563,0.40625 1.5,1.203125 0.523438,0.796875 0.5625,1.8046875 l -1.453125,0.109375 Q 11.120025,6.8066292 10.440337,6.2519417 9.7684624,5.6972542 8.4481499,5.6972542 q -1.375,0 -2.0078125,0.5078125 -0.625,0.5 -0.625,1.2109375 0,0.6171875 0.4453125,1.015625 0.4375,0.3984375 2.28125,0.8203125 1.8515621,0.4140625 2.5390621,0.7265625 1,0.4609378 1.476563,1.1718748 0.476562,0.703125 0.476562,1.625 0,0.914063 -0.523437,1.726563 -0.523438,0.804687 -1.507813,1.257812 -0.976562,0.445313 -2.2031246,0.445313 -1.5546875,0 -2.609375,-0.453125 -1.046875,-0.453125 -1.6484375,-1.359375 -0.59375,-0.914063 -0.625,-2.0625 z"
       style="font-size:16px;fill:none;stroke:#ffffff;stroke-width:0.5;stroke-miterlimit:4;stroke-dasharray:none;stroke-opacity:1"
       id="path4818"
       inkscape:connector-curvature="0" />
    <path
       d="M 15.120025,16.009754 V 4.5566292 h 4.320312 q 1.140625,0 1.742188,0.109375 0.84375,0.140625 1.414062,0.5390625 0.570313,0.390625 0.914063,1.1015625 0.351562,0.7109375 0.351562,1.5625 0,1.4609375 -0.929687,2.4765628 -0.929688,1.007812 -3.359375,1.007812 h -2.9375 v 4.65625 z m 1.515625,-6.007812 h 2.960937 q 1.46875,0 2.085938,-0.5468753 0.617187,-0.546875 0.617187,-1.5390625 0,-0.71875 -0.367187,-1.2265625 Q 21.57315,6.1738167 20.9794,6.0097542 20.596587,5.9081917 19.565337,5.9081917 H 16.63565 Z"
       style="font-size:16px;fill:none;stroke:#ffffff;stroke-width:0.5;stroke-miterlimit:4;stroke-dasharray:none;stroke-opacity:1"
       id="path4820"
       inkscape:connector-curvature="0" />
    <path
       d="M 25.838775,16.009754 V 4.5566292 h 8.28125 V 5.9081917 H 27.3544 v 3.5078125 h 6.335937 V 10.759754 H 27.3544 v 3.898438 h 7.03125 v 1.351562 z"
       style="font-size:16px;fill:none;stroke:#ffffff;stroke-width:0.5;stroke-miterlimit:4;stroke-dasharray:none;stroke-opacity:1"
       id="path4822"
       inkscape:connector-curvature="0" />
    <path
       d="m 44.6669,11.994129 1.515625,0.382813 q -0.476563,1.867187 -1.71875,2.851562 -1.234375,0.976563 -3.023438,0.976563 -1.851562,0 -3.015625,-0.75 -1.15625,-0.757813 -1.765625,-2.1875 -0.601562,-1.429688 -0.601562,-3.070313 0,-1.7890623 0.679687,-3.1171873 0.6875,-1.3359375 1.945313,-2.0234375 1.265625,-0.6953125 2.78125,-0.6953125 1.71875,0 2.890625,0.875 1.171875,0.875 1.632812,2.4609375 l -1.492187,0.3515625 q -0.398438,-1.25 -1.15625,-1.8203125 -0.757813,-0.5703125 -1.90625,-0.5703125 -1.320313,0 -2.210938,0.6328125 -0.882812,0.6328125 -1.242187,1.703125 -0.359375,1.0625 -0.359375,2.1953128 0,1.460937 0.421875,2.554687 0.429687,1.085938 1.328125,1.625 0.898437,0.539063 1.945312,0.539063 1.273438,0 2.15625,-0.734375 0.882813,-0.734375 1.195313,-2.179688 z"
       style="font-size:16px;fill:none;stroke:#ffffff;stroke-width:0.5;stroke-miterlimit:4;stroke-dasharray:none;stroke-opacity:1"
       id="path4824"
       inkscape:connector-curvature="0" />
    <path
       d="M 50.971587,16.009754 V 5.9081917 H 47.19815 V 4.5566292 h 9.078125 V 5.9081917 H 52.487212 V 16.009754 Z"
       style="font-size:16px;fill:none;stroke:#ffffff;stroke-width:0.5;stroke-miterlimit:4;stroke-dasharray:none;stroke-opacity:1"
       id="path4826"
       inkscape:connector-curvature="0" />
    <path
       d="M 57.862212,16.009754 V 4.5566292 h 5.078125 q 1.53125,0 2.328125,0.3125 0.796875,0.3046875 1.273438,1.0859375 0.476562,0.78125 0.476562,1.7265625 0,1.21875 -0.789062,2.0546875 -0.789063,0.8359373 -2.4375,1.0625003 0.601562,0.289062 0.914062,0.570312 0.664063,0.609375 1.257813,1.523438 l 1.992187,3.117187 h -1.90625 l -1.515625,-2.382812 q -0.664062,-1.03125 -1.09375,-1.578125 -0.429687,-0.546875 -0.773437,-0.765625 -0.335938,-0.21875 -0.6875,-0.304688 -0.257813,-0.05469 -0.84375,-0.05469 h -1.757813 v 5.085937 z m 1.515625,-6.3984373 h 3.257813 q 1.039062,0 1.625,-0.2109375 0.585937,-0.21875 0.890625,-0.6875 0.304687,-0.4765625 0.304687,-1.03125 0,-0.8125 -0.59375,-1.3359375 -0.585937,-0.5234375 -1.859375,-0.5234375 h -3.625 z"
       style="font-size:16px;fill:none;stroke:#ffffff;stroke-width:0.5;stroke-miterlimit:4;stroke-dasharray:none;stroke-opacity:1"
       id="path4828"
       inkscape:connector-curvature="0" />
    <path
       d="m 76.9169,4.5566292 h 1.515625 v 6.6171878 q 0,1.726562 -0.390625,2.742187 -0.390625,1.015625 -1.414063,1.65625 -1.015625,0.632813 -2.671875,0.632813 -1.609375,0 -2.632812,-0.554688 -1.023438,-0.554687 -1.460938,-1.601562 -0.4375,-1.054688 -0.4375,-2.875 V 4.5566292 h 1.515625 v 6.6093748 q 0,1.492188 0.273438,2.203125 0.28125,0.703125 0.953125,1.085938 0.679687,0.382812 1.65625,0.382812 1.671875,0 2.382812,-0.757812 0.710938,-0.757813 0.710938,-2.914063 z"
       style="font-size:16px;fill:none;stroke:#ffffff;stroke-width:0.5;stroke-miterlimit:4;stroke-dasharray:none;stroke-opacity:1"
       id="path4830"
       inkscape:connector-curvature="0" />
    <path
       d="M 80.9169,16.009754 V 4.5566292 h 2.28125 l 2.710937,8.1093748 q 0.375,1.132813 0.546875,1.695313 0.195313,-0.625 0.609375,-1.835938 l 2.742188,-7.9687498 h 2.039062 V 16.009754 H 90.38565 V 6.4238167 l -3.328125,9.5859373 h -1.367188 l -3.3125,-9.7499998 v 9.7499998 z"
       style="font-size:16px;fill:none;stroke:#ffffff;stroke-width:0.5;stroke-miterlimit:4;stroke-dasharray:none;stroke-opacity:1"
       id="path4832"
       inkscape:connector-curvature="0" />
  </g>
</svg>
