<?xml version="1.0" encoding="UTF-8" standalone="no"?>
<svg
   xmlns:dc="http://purl.org/dc/elements/1.1/"
   xmlns:cc="http://creativecommons.org/ns#"
   xmlns:rdf="http://www.w3.org/1999/02/22-rdf-syntax-ns#"
   xmlns:svg="http://www.w3.org/2000/svg"
   xmlns="http://www.w3.org/2000/svg"
   xmlns:sodipodi="http://sodipodi.sourceforge.net/DTD/sodipodi-0.dtd"
   xmlns:inkscape="http://www.inkscape.org/namespaces/inkscape"
   width="119"
   height="20"
   viewBox="0 0 119 20"
   version="1.1"
   id="svg3739"
   sodipodi:docname="system.svg"
   inkscape:version="0.92.4 (5da689c313, 2019-01-14)">
  <metadata
     id="metadata3743">
    <rdf:RDF>
      <cc:Work
         rdf:about="">
        <dc:format>image/svg+xml</dc:format>
        <dc:type
           rdf:resource="http://purl.org/dc/dcmitype/StillImage" />
        <dc:title>system</dc:title>
      </cc:Work>
    </rdf:RDF>
  </metadata>
  <sodipodi:namedview
     pagecolor="#ffffff"
     bordercolor="#666666"
     borderopacity="1"
     objecttolerance="10"
     gridtolerance="10"
     guidetolerance="10"
     inkscape:pageopacity="0"
     inkscape:pageshadow="2"
     inkscape:window-width="1920"
     inkscape:window-height="1137"
     id="namedview3741"
     showgrid="false"
     inkscape:zoom="7.5183342"
     inkscape:cx="98.492563"
     inkscape:cy="8.1535411"
     inkscape:window-x="-8"
     inkscape:window-y="344"
     inkscape:window-maximized="1"
     inkscape:current-layer="svg3739"
     scale-x="2" />
  <!-- Generator: Sketch 45 (43475) - http://www.bohemiancoding.com/sketch -->
  <title
     id="title3729">system</title>
  <desc
     id="desc3731">Created with Sketch.</desc>
  <defs
     id="defs3733" />
  <g
     inkscape:groupmode="layer"
     id="layer1"
     inkscape:label="Layer 1"
     transform="translate(0,2)" />
  <g
     inkscape:groupmode="layer"
     id="layer2"
     inkscape:label="Layer 2"
     transform="translate(0,2)" />
  <g
     aria-label="PLAYSTATION"
     style="font-style:normal;font-variant:normal;font-weight:normal;font-stretch:normal;font-size:21.33333397px;line-height:1.25;font-family:Arial;-inkscape-font-specification:Arial;letter-spacing:0px;word-spacing:0px;fill:none;fill-opacity:1;stroke:#ffffff;stroke-width:0.5;stroke-miterlimit:4;stroke-dasharray:none;stroke-opacity:1"
     id="text4643">
    <path
       d="M 2.4678091,16.27577 V 3.8682176 h 4.6803387 q 1.2356771,0 1.8873699,0.1184896 0.9140625,0.1523438 1.5319013,0.5839844 0.617838,0.4231771 0.990234,1.1933595 0.38086,0.7701823 0.38086,1.6927083 0,1.5826824 -1.007162,2.6829426 -1.0071614,1.091797 -3.639323,1.091797 H 4.1097362 V 16.27577 Z M 4.1097362,9.7673064 h 3.2076824 q 1.5911459,0 2.2597658,-0.5924479 0.6686196,-0.592448 0.6686196,-1.6673178 0,-0.7786459 -0.3977863,-1.3287761 Q 9.4586948,5.6201708 8.8154656,5.4424365 8.400752,5.3324104 7.2835645,5.3324104 H 4.1097362 Z"
       style="font-size:17.33333397px;fill:none;fill-opacity:1;stroke:#ffffff;stroke-width:0.5;stroke-miterlimit:4;stroke-dasharray:none;stroke-opacity:1"
       id="path5436"
       inkscape:connector-curvature="0" />
    <path
       d="M 13.978226,16.27577 V 3.8682176 h 1.641927 V 14.811577 h 6.110677 v 1.464193 z"
       style="font-size:17.33333397px;fill:none;fill-opacity:1;stroke:#ffffff;stroke-width:0.5;stroke-miterlimit:4;stroke-dasharray:none;stroke-opacity:1"
       id="path5438"
       inkscape:connector-curvature="0" />
    <path
       d="M 22.331741,16.27577 27.096715,3.8682176 h 1.768881 L 33.943721,16.27577 h -1.870443 l -1.447266,-3.757812 h -5.188151 l -1.36263,3.757812 z M 25.91182,11.180718 H 30.1182 L 28.823278,7.7445199 Q 28.23083,6.1787646 27.94307,5.1716031 27.70609,6.3649625 27.27445,7.5413949 Z"
       style="font-size:17.33333397px;fill:none;fill-opacity:1;stroke:#ffffff;stroke-width:0.5;stroke-miterlimit:4;stroke-dasharray:none;stroke-opacity:1"
       id="path5440"
       inkscape:connector-curvature="0" />
    <path
       d="M 37.481482,16.27577 V 11.019911 L 32.699581,3.8682176 h 1.997396 l 2.445964,3.7408856 q 0.677083,1.0494792 1.261067,2.0989584 0.558594,-0.9733073 1.354167,-2.1920574 l 2.403646,-3.6477866 h 1.912761 L 39.12341,11.019911 v 5.255859 z"
       style="font-size:17.33333397px;fill:none;fill-opacity:1;stroke:#ffffff;stroke-width:0.5;stroke-miterlimit:4;stroke-dasharray:none;stroke-opacity:1"
       id="path5442"
       inkscape:connector-curvature="0" />
    <path
       d="m 45.005571,12.289442 1.548828,-0.135417 q 0.110026,0.93099 0.507812,1.531901 0.40625,0.592448 1.252605,0.964844 0.846354,0.363932 1.904297,0.363932 0.939453,0 1.658854,-0.279296 0.719401,-0.279297 1.066406,-0.761719 0.355469,-0.490886 0.355469,-1.066407 0,-0.583984 -0.338542,-1.015625 Q 52.622759,11.451551 51.844113,11.155327 51.344764,10.960666 49.635128,10.554416 47.925493,10.139702 47.239946,9.7757699 46.351274,9.3102751 45.91117,8.6247282 45.479529,7.9307178 45.479529,7.0759001 q 0,-0.9394532 0.533203,-1.7519532 0.533203,-0.8209636 1.557292,-1.2441407 1.024089,-0.4231771 2.276693,-0.4231771 1.379557,0 2.429036,0.4485677 1.057943,0.4401042 1.625,1.3033855 0.567058,0.8632813 0.609375,1.9550782 L 52.93591,7.4821501 Q 52.808956,6.3057177 52.072628,5.7048063 51.344764,5.1038948 49.914425,5.1038948 q -1.489583,0 -2.17513,0.5501302 -0.677084,0.5416667 -0.677084,1.311849 0,0.6686198 0.482422,1.1002605 0.473959,0.4316406 2.471355,0.8886719 2.005859,0.4485677 2.750651,0.7871094 1.083333,0.4993492 1.599609,1.2695312 0.516276,0.761719 0.516276,1.760417 0,0.990234 -0.567057,1.870443 -0.567057,0.871744 -1.633464,1.36263 -1.057942,0.482422 -2.386719,0.482422 -1.684244,0 -2.826823,-0.490886 -1.134114,-0.490885 -1.785807,-1.472656 -0.643229,-0.990234 -0.677083,-2.234375 z"
       style="font-size:17.33333397px;fill:none;fill-opacity:1;stroke:#ffffff;stroke-width:0.5;stroke-miterlimit:4;stroke-dasharray:none;stroke-opacity:1"
       id="path5444"
       inkscape:connector-curvature="0" />
    <path
       d="M 60.299191,16.27577 V 5.3324104 H 56.2113 V 3.8682176 h 9.834636 V 5.3324104 H 61.941118 V 16.27577 Z"
       style="font-size:17.33333397px;fill:none;fill-opacity:1;stroke:#ffffff;stroke-width:0.5;stroke-miterlimit:4;stroke-dasharray:none;stroke-opacity:1"
       id="path5446"
       inkscape:connector-curvature="0" />
    <path
       d="M 65.089554,16.27577 69.854528,3.8682176 h 1.76888 L 76.701533,16.27577 h -1.870442 l -1.447266,-3.757812 h -5.188151 l -1.362631,3.757812 z m 3.580078,-5.095052 h 4.20638 L 71.581091,7.7445199 Q 70.988643,6.1787646 70.700882,5.1716031 70.463903,6.3649625 70.032262,7.5413949 Z"
       style="font-size:17.33333397px;fill:none;fill-opacity:1;stroke:#ffffff;stroke-width:0.5;stroke-miterlimit:4;stroke-dasharray:none;stroke-opacity:1"
       id="path5448"
       inkscape:connector-curvature="0" />
    <path
       d="M 79.900757,16.27577 V 5.3324104 H 75.812866 V 3.8682176 h 9.834636 V 5.3324104 H 81.542684 V 16.27577 Z"
       style="font-size:17.33333397px;fill:none;fill-opacity:1;stroke:#ffffff;stroke-width:0.5;stroke-miterlimit:4;stroke-dasharray:none;stroke-opacity:1"
       id="path5450"
       inkscape:connector-curvature="0" />
    <path
       d="M 87.619504,16.27577 V 3.8682176 h 1.641927 V 16.27577 Z"
       style="font-size:17.33333397px;fill:none;fill-opacity:1;stroke:#ffffff;stroke-width:0.5;stroke-miterlimit:4;stroke-dasharray:none;stroke-opacity:1"
       id="path5452"
       inkscape:connector-curvature="0" />
    <path
       d="m 91.648148,10.232801 q 0,-3.0891926 1.658854,-4.8326823 1.658854,-1.7519531 4.282552,-1.7519531 1.718099,0 3.097656,0.8209635 1.37956,0.8209636 2.09896,2.2936199 0.72786,1.4641928 0.72786,3.326172 0,1.88737 -0.76172,3.376953 -0.76171,1.489584 -2.1582,2.259766 -1.396483,0.761719 -3.013019,0.761719 -1.751954,0 -3.131511,-0.846354 -1.379557,-0.846355 -2.090495,-2.310547 -0.710937,-1.464193 -0.710937,-3.097657 z m 1.692708,0.02539 q 0,2.242838 1.201823,3.53776 1.210286,1.286459 3.029948,1.286459 1.853516,0 3.046873,-1.303386 1.20183,-1.303385 1.20183,-3.698568 0,-1.5149736 -0.51628,-2.6406246 -0.50781,-1.1341147 -1.498048,-1.7519532 -0.981771,-0.6263021 -2.208984,-0.6263021 -1.74349,0 -3.004558,1.2018229 -1.252604,1.1933594 -1.252604,3.994792 z"
       style="font-size:17.33333397px;fill:none;fill-opacity:1;stroke:#ffffff;stroke-width:0.5;stroke-miterlimit:4;stroke-dasharray:none;stroke-opacity:1"
       id="path5454"
       inkscape:connector-curvature="0" />
    <path
       d="M 105.60453,16.27577 V 3.8682176 h 1.68425 l 6.51692,9.7415364 V 3.8682176 h 1.57422 V 16.27577 h -1.68424 L 107.17875,6.5257698 V 16.27577 Z"
       style="font-size:17.33333397px;fill:none;fill-opacity:1;stroke:#ffffff;stroke-width:0.5;stroke-miterlimit:4;stroke-dasharray:none;stroke-opacity:1"
       id="path5456"
       inkscape:connector-curvature="0" />
  </g>
</svg>
