<?xml version="1.0" encoding="UTF-8" standalone="no"?>
<svg
   xmlns:dc="http://purl.org/dc/elements/1.1/"
   xmlns:cc="http://creativecommons.org/ns#"
   xmlns:rdf="http://www.w3.org/1999/02/22-rdf-syntax-ns#"
   xmlns:svg="http://www.w3.org/2000/svg"
   xmlns="http://www.w3.org/2000/svg"
   xmlns:sodipodi="http://sodipodi.sourceforge.net/DTD/sodipodi-0.dtd"
   xmlns:inkscape="http://www.inkscape.org/namespaces/inkscape"
   viewBox="0 0 1000 114.00004"
   version="1.1"
   id="svg120"
   sodipodi:docname="system.svg"
   inkscape:version="0.92.4 (5da689c313, 2019-01-14)">
  <metadata
     id="metadata126">
    <rdf:RDF>
      <cc:Work
         rdf:about="">
        <dc:format>image/svg+xml</dc:format>
        <dc:type
           rdf:resource="http://purl.org/dc/dcmitype/StillImage" />
        <dc:title>logo</dc:title>
      </cc:Work>
    </rdf:RDF>
  </metadata>
  <defs
     id="defs124" />
  <sodipodi:namedview
     pagecolor="#ffffff"
     bordercolor="#666666"
     borderopacity="1"
     objecttolerance="10"
     gridtolerance="10"
     guidetolerance="10"
     inkscape:pageopacity="0"
     inkscape:pageshadow="2"
     inkscape:window-width="1920"
     inkscape:window-height="1017"
     id="namedview122"
     showgrid="false"
     inkscape:pagecheckerboard="true"
     inkscape:zoom="0.8032733"
     inkscape:cx="431.42659"
     inkscape:cy="45.762154"
     inkscape:window-x="-8"
     inkscape:window-y="-8"
     inkscape:window-maximized="1"
     inkscape:current-layer="svg120" />
  <title
     id="title2">logo</title>
  <g
     id="g913"
     transform="translate(18.673595)">
    <path
       d="m 296.38931,13.215171 23.18544,6.13728 c 14.85079,4.015743 23.94308,11.744223 23.79155,25.306848 -0.12125,12.671352 -4.80189,19.27813 -14.00479,19.27813 A 27.982584,27.982584 0 0 1 321.6205,62.692347 V 31.47548 c 0.0398,-1.944259 -1.8737,-2.932603 -3.70565,-2.932603 -1.66622,0 -3.26513,0.81792 -3.26513,2.478038 l -0.0445,39.78841 -0.0312,-0.0096 v 10.531944 l 0.0196,-0.0066 -0.007,6.905491 -0.0115,-0.0037 v 10.304568 l 3.6e-4,6.91e-4 -3.6e-4,0.3024 -18.18456,-5.910004 v -5.35572 c 0.025,-0.0086 0.0508,-0.01511 0.0757,-0.02382 v -5.076547 l -0.0757,-0.02462 V 13.215171 m -8e-4,-10.0800859 A 10.08013,10.08013 0 0 0 286.30931,13.215171 v 69.177197 a 10.147867,10.147867 0 0 0 0.0758,1.238098 v 2.70144 a 10.114171,10.114171 0 0 0 -0.0758,1.236557 v 5.355806 a 10.08,10.08 0 0 0 6.96442,9.586401 l 18.18453,5.91002 a 10.08,10.08 0 0 0 13.19559,-9.574421 l 3.6e-4,-0.3024 -3.6e-4,-9.824918 q 0.0115,-0.237874 0.0115,-0.477245 l 0.007,-6.905477 q 3.9e-4,-0.321811 -0.0196,-0.640584 v -7.034112 a 32.749229,32.749229 0 0 0 4.70757,0.35591 c 5.58421,0 23.82438,-2.110147 24.08436,-29.261592 0.1355,-12.128832 -5.17417,-28.085572 -31.23998,-35.1339115 L 298.96871,3.4708067 a 10.075378,10.075378 0 0 0 -2.57895,-0.3357216 z"
       id="path15"
       inkscape:connector-curvature="0"
       style="fill:none;stroke:#00ffff;stroke-width:1.44000006;stroke-opacity:1" />
    <path
       d="m 262.86388,71.797424 15.56814,4.912287 0.0354,-0.01282 0.0403,0.01282 -4.16726,1.439582 c -4.28256,1.574424 -1.70784,4.928558 2.45968,4.928558 a 8.3161008,8.3161008 0 0 0 2.69257,-0.458193 l 8.56193,-2.879194 8.33458,2.703067 0.0757,0.0246 v 5.076576 c -0.0249,0.0086 -0.0508,0.01521 -0.0757,0.02382 a 43.35264,43.35264 0 0 1 -14.27675,2.394619 47.703456,47.703456 0 0 1 -7.92362,-0.675734 c -8.71344,-1.363896 -20.00304,-2.57616 -20.30611,-7.501118 -0.30232,-4.912748 4.22045,-8.392133 8.98105,-9.988863 m 0,-10.08 a 10.079093,10.079093 0 0 0 -3.20544,0.523224 c -10.16444,3.409171 -16.38068,11.324333 -15.83663,20.164795 0.27764,4.511708 2.75616,10.56384 12.98674,13.774176 a 93.206203,93.206203 0 0 0 13.43299,2.701829 c 0.79174,0.119419 1.57315,0.237255 2.33463,0.356242 a 58.020638,58.020638 0 0 0 9.53635,0.805453 53.584387,53.584387 0 0 0 17.43376,-2.90084 q 0.11894,-0.03832 0.23645,-0.0792 a 10.08,10.08 0 0 0 6.76224,-9.5184 v -5.076576 a 10.08,10.08 0 0 0 -6.96766,-9.58752 l -0.0757,-0.0246 -8.33721,-2.703902 a 10.079899,10.079899 0 0 0 -5.23613,-0.26483 10.060589,10.060589 0 0 0 -4.38336,-2.789165 q -0.32622,-0.103104 -0.65839,-0.183831 l -14.9895,-4.729694 a 10.07928,10.07928 0 0 0 -3.03318,-0.467179 z"
       id="path19"
       inkscape:connector-curvature="0"
       style="fill:none;stroke:#00ffff;stroke-width:1.44000006;stroke-opacity:1" />
    <path
       d="m 296.38931,60.495123 v 4.621882 l -7.19807,-2.197282 7.19807,-2.424643 m -7.6e-4,-10.080072 a 10.073362,10.073362 0 0 0 -3.21696,0.527443 l -7.19806,2.424658 a 10.08,10.08 0 0 0 0.27478,19.193443 l 7.19807,2.197282 a 10.08,10.08 0 0 0 13.02298,-9.6408 V 60.495123 A 10.080158,10.080158 0 0 0 296.38859,50.415051 Z"
       id="path27"
       inkscape:connector-curvature="0"
       style="fill:none;stroke-width:1.44000006" />
    <path
       d="m 340.17063,65.595171 q 1.78328,0 3.57442,0.128045 c 13.03225,0.98496 21.51844,3.864211 22.7307,9.168048 0.75772,3.182271 -2.19726,6.591874 -9.16804,9.016531 l -0.30305,0.07574 -16.97229,-5.37958 4.69767,-1.5912 c 7.5774,-2.424744 6.57167,-4.994684 0.78314,-4.994684 a 29.213784,29.213784 0 0 0 -5.17776,0.524319 l -9.4711,3.1824 -16.21467,-5.000861 1.43964,-0.530323 a 75.977986,75.977986 0 0 1 24.08134,-4.598439 m 0,-10.08 c -8.22112,0 -16.89368,1.628108 -27.29303,5.123765 q -0.13709,0.04608 -0.27269,0.09602 l -1.43963,0.530324 a 10.08,10.08 0 0 0 0.51366,19.090929 l 16.21463,5.000803 a 10.07987,10.07987 0 0 0 4.89956,0.261447 10.059206,10.059206 0 0 0 4.19361,2.594347 l 16.97225,5.379595 a 10.080331,10.080331 0 0 0 5.49018,0.170237 l 0.30309,-0.07576 q 0.43906,-0.1098 0.867,-0.258581 C 374.6317,88.554339 377.90453,79.489554 376.29419,72.60981 373.23481,59.351946 356.68905,56.59279 344.50475,55.671867 c -1.44242,-0.104731 -2.89045,-0.156701 -4.3341,-0.156701 z m 5.96456,26.611661 z"
       id="path31"
       inkscape:connector-curvature="0"
       style="fill:none;fill-opacity:1;stroke:#00ffff;stroke-width:1.44000006;stroke-opacity:1" />
    <path
       d="m 340.08493,78.630054 17.22279,5.277727 -26.52011,9.273776 -16.0797,-5.051571 v -0.904695 l 25.37702,-8.59518 m 0,-10.030351 a 10.138012,10.030107 0 0 0 -3.28374,0.540678 l -25.37698,8.595124 a 10.138259,10.030351 0 0 0 -6.85456,9.489729 v 0.904724 a 10.138259,10.030351 0 0 0 7.06996,9.55997 l 16.07968,5.051565 a 10.138462,10.030552 0 0 0 6.44686,-0.10295 l 26.52012,-9.273774 A 10.138259,10.030351 0 0 0 360.3073,74.326532 L 343.08454,69.048776 A 10.137159,10.029263 0 0 0 340.085,68.599703 Z"
       id="path39"
       inkscape:connector-curvature="0"
       style="fill:none;fill-opacity:1;stroke:#00ffff;stroke-width:1.44059443;stroke-opacity:1" />
    <path
       d="m 289.19124,62.919767 7.19807,2.197267 v 5.15232 l -17.92186,6.427613 -0.0354,0.01282 -15.56814,-4.912301 -0.0403,-0.01267 a 3.2783184,3.2783184 0 0 0 0.37881,-0.07586 L 289.19123,62.9198 m 0,-10.08 a 10.078445,10.078445 0 0 0 -3.2293,0.531274 l -25.39412,8.588016 a 10.080922,10.080922 0 0 0 -0.76408,19.442664 l 15.5952,4.920768 a 10.08,10.08 0 0 0 6.44884,-0.129139 l 17.94456,-6.435821 a 10.08,10.08 0 0 0 6.67708,-9.48816 V 65.11701 a 10.08,10.08 0 0 0 -7.13708,-9.6408 l -7.19807,-2.197267 a 10.080216,10.080216 0 0 0 -2.9429,-0.4392 z"
       id="path47"
       inkscape:connector-curvature="0"
       style="fill:none;fill-opacity:1;stroke:#00ffff;stroke-width:1.44000006;stroke-opacity:1" />
    <path
       d="m 405.49064,36.646451 a 23.877,23.877 0 0 1 7.88531,1.298765 c 3.43238,1.577131 5.10212,6.215458 5.10212,10.853784 0,5.102251 -0.64932,8.905723 -3.4324,11.688667 -1.90837,1.908461 -6.06604,2.044714 -7.21474,2.044714 -0.19138,0 -0.29937,-0.0037 -0.29937,-0.0037 h -5.84428 V 58.72515 h 4.08174 a 4.8638736,4.8638736 0 0 0 4.63834,-2.319148 c 0.74215,-1.206029 0.92768,-4.638356 0.92768,-6.864783 0,-2.13372 -0.27824,-5.194944 -1.577,-6.864811 -1.48431,-1.948075 -5.93712,-1.948075 -5.93712,-1.948075 h -6.12264 v 38.312798 h -6.58656 v -42.39468 h 14.37886 m 0,-10.08 h -14.3788 a 10.08,10.08 0 0 0 -10.08,10.08 v 42.39468 a 10.08,10.08 0 0 0 10.08,10.08 h 6.58656 a 10.08,10.08 0 0 0 10.08,-10.08 v -6.428808 h 0.0527 c 4.26335,0 10.21241,-0.866981 14.34252,-4.997189 5.62608,-5.62582 6.38463,-12.668731 6.38463,-18.816192 0,-9.234446 -4.2048,-16.903036 -10.97355,-20.01312 a 31.95311,31.95311 0 0 0 -12.09389,-2.219371 z"
       id="path51"
       inkscape:connector-curvature="0"
       style="fill:none;stroke:#00ffff;stroke-width:1.88976383;stroke-miterlimit:4;stroke-dasharray:none;stroke-opacity:1" />
    <path
       d="m 430.35235,36.646451 v 42.39468 h -6.58656 v -42.39468 h 6.58656 m 0,-10.08 h -6.58656 a 10.08,10.08 0 0 0 -10.08,10.08 v 42.39468 a 10.08,10.08 0 0 0 10.08,10.08 h 6.58656 a 10.08,10.08 0 0 0 10.08,-10.08 v -42.39468 a 10.08,10.08 0 0 0 -10.08,-10.08 z"
       id="path55"
       inkscape:connector-curvature="0"
       style="fill:none;stroke:#00ffff;stroke-width:1.88976383;stroke-miterlimit:4;stroke-dasharray:none;stroke-opacity:1" />
    <path
       d="m 496.3099,46.572674 h 0.007 m -0.007,0 -20.03778,48.795465 h -5.47328 L 477.75643,78.29897 465.60391,46.572674 h 7.79248 l 8.07072,23.748393 8.72007,-23.748393 h 6.12273 m 0.007,-10.08 h -6.12993 a 10.081613,10.081613 0 0 0 -8.39535,4.5 10.080965,10.080965 0 0 0 -8.39544,-4.5 h -7.79248 a 10.08,10.08 0 0 0 -9.41306,13.685601 l 10.72731,28.005538 -5.45366,13.37963 a 10.08,10.08 0 0 0 9.33434,13.884697 h 5.47328 a 10.08,10.08 0 0 0 9.32444,-6.25094 L 505.51108,50.701758 A 10.083888,10.083888 0 0 0 496.3171,36.492616 Z m -0.007,20.16 z"
       id="path59"
       inkscape:connector-curvature="0"
       style="fill:none;stroke:#00ffff;stroke-width:1.88976383;stroke-miterlimit:4;stroke-dasharray:none;stroke-opacity:1" />
    <path
       d="m 511.80199,36.739288 9.27671,0.278251 v 3.989002 c 0,0 -6.77197,-0.278338 -8.25626,-0.278338 -3.24684,0 -4.17456,0.64944 -5.38048,1.94809 a 7.4336544,7.4336544 0 0 0 -1.29875,4.17456 16.816075,16.816075 0 0 0 0.64944,4.824 4.01616,4.01616 0 0 0 3.33958,2.226369 c 1.20597,0.09281 3.06132,0.37116 5.28776,0.463882 a 8.5721616,8.5721616 0 0 1 6.02983,2.87581 c 0.92768,1.113206 2.22644,3.617899 2.22644,8.8128 0,5.287766 -1.39148,9.091137 -2.78303,10.482624 a 9.094536,9.094536 0 0 1 -4.91662,2.226456 c -1.76265,0.278251 -4.63841,0.371073 -4.63841,0.371073 L 501.22652,78.76288 v -3.98903 c 0,0 6.9576,0.27828 8.4419,0.27828 3.24685,0 4.82387,-0.64934 6.0298,-1.948018 0.74217,-0.742133 1.39151,-4.267253 1.39151,-5.473282 a 18.182376,18.182376 0 0 0 -0.74215,-5.009529 4.1584896,4.1584896 0 0 0 -3.33959,-2.226442 c -1.20597,-0.09271 -3.06131,-0.371073 -5.28776,-0.463809 a 8.57232,8.57232 0 0 1 -6.02982,-2.875767 c -0.92769,-1.113206 -2.22645,-2.875766 -2.22645,-8.163446 0,-5.28768 1.39148,-8.256355 2.78304,-9.647856 a 9.0946224,9.0946224 0 0 1 4.91662,-2.226442 38.399112,38.399112 0 0 1 4.6384,-0.278251 m 0,-10.08 a 45.415541,45.415541 0 0 0 -6.21017,0.401544 q -0.0903,0.01426 -0.18043,0.03015 a 18.80051,18.80051 0 0 0 -10.29204,5.025355 c -2.6164,2.616278 -5.73542,7.650547 -5.73542,16.775496 0,8.102246 2.43847,12.067344 4.56283,14.616576 a 17.465256,17.465256 0 0 0 2.47089,2.406413 10.08059,10.08059 0 0 0 -5.27116,8.859024 v 3.989016 a 10.08,10.08 0 0 0 9.71045,10.073217 l 10.11168,0.370987 q 0.18472,0.0072 0.36958,0.0072 0.16262,0 0.32515,-0.0058 a 55.841098,55.841098 0 0 0 5.88502,-0.489124 q 0.0903,-0.0144 0.18027,-0.0301 a 18.800222,18.800222 0 0 0 10.29222,-5.025399 c 3.64488,-3.644726 5.7354,-10.063469 5.7354,-17.610264 0,-6.496617 -1.53517,-11.632838 -4.56281,-15.265987 a 17.074886,17.074886 0 0 0 -1.84921,-1.88496 q 0.37008,-0.293659 0.71424,-0.623707 a 10.08,10.08 0 0 0 3.10032,-7.272519 v -3.988987 a 10.08,10.08 0 0 0 -9.77778,-10.075478 l -9.27669,-0.278237 q -0.15109,-0.0046 -0.30224,-0.0046 z"
       id="path63"
       inkscape:connector-curvature="0"
       style="fill:none;stroke:#00ffff;stroke-width:1.88976383;stroke-miterlimit:4;stroke-dasharray:none;stroke-opacity:1" />
    <path
       d="m 537.31298,40.728304 h 0.007 m -0.007,0 -0.0929,5.751533 h 7.5142 v 3.989016 h -7.5142 v 18.36792 a 34.551533,34.551533 0 0 0 0.27835,4.17456 c 0.27825,1.855281 1.66982,1.948017 2.78304,1.948017 1.11322,0 2.96852,-0.09274 2.96852,-0.09274 v 3.989045 l -6.86478,0.09269 c -3.80347,0 -5.19496,-2.319149 -5.38048,-3.339562 -0.0927,-0.927691 -0.2782,-3.803371 -0.2782,-3.803371 V 40.728304 h 6.58643 m 0.007,-10.08 h -6.59363 a 10.08,10.08 0 0 0 -10.08,10.08 v 31.077115 q 0,0.324619 0.0209,0.648749 c 0.0328,0.509846 0.20223,3.106584 0.30744,4.158144 q 0.0403,0.401918 0.11246,0.799531 c 1.04953,5.772658 6.64128,11.61648 15.29793,11.61648 q 0.068,0 0.13608,-9.21e-4 l 6.86478,-0.09274 a 10.08,10.08 0 0 0 9.94396,-10.079007 v -3.989073 a 10.080547,10.080547 0 0 0 -6.02996,-9.23017 v -5.417021 a 10.083773,10.083773 0 0 0 7.51426,-9.750542 v -3.989016 a 10.08288,10.08288 0 0 0 -8.31986,-9.926842 10.076314,10.076314 0 0 0 -9.17433,-5.904691 z"
       id="path67"
       inkscape:connector-curvature="0"
       style="fill:none;stroke:#00ffff;stroke-width:1.88976383;stroke-miterlimit:4;stroke-dasharray:none;stroke-opacity:1" />
    <path
       d="m 607.81611,46.572573 v 32.468544 h -6.58656 V 46.572573 h 6.58656 m 0,-10.08 h -6.58656 a 10.08,10.08 0 0 0 -10.08,10.08 v 32.468544 a 10.08,10.08 0 0 0 10.08,10.08 h 6.58656 a 10.08,10.08 0 0 0 10.08,-10.08 V 46.572573 a 10.08,10.08 0 0 0 -10.08,-10.08 z"
       id="path71"
       inkscape:connector-curvature="0"
       style="fill:none;stroke:#00ffff;stroke-width:1.44000006;stroke-opacity:1" />
    <path
       d="m 607.81611,36.646466 v 5.937192 h -6.58656 v -5.937192 h 6.58656 m 0,-10.08 h -6.58656 a 10.08,10.08 0 0 0 -10.08,10.08 v 5.937192 a 10.08,10.08 0 0 0 10.08,10.08 h 6.58656 a 10.08,10.08 0 0 0 10.08,-10.08 v -5.937192 a 10.08,10.08 0 0 0 -10.08,-10.08 z"
       id="path75"
       inkscape:connector-curvature="0"
       style="fill:none;stroke:#00ffff;stroke-width:1.88976383;stroke-miterlimit:4;stroke-dasharray:none;stroke-opacity:1" />
    <path
       d="m 628.78146,46.294379 c 4.5456,0 7.978,1.020413 9.83337,2.504707 1.85537,1.484295 4.26727,4.731149 4.26727,14.007831 0,9.276681 -2.31917,12.52368 -4.26727,14.00783 -1.85537,1.484295 -5.38049,2.504707 -9.83337,2.504707 -4.54553,0 -7.97793,-1.020412 -9.92611,-2.504707 -1.85528,-1.484208 -4.17446,-4.731062 -4.17446,-14.00783 0,-9.276768 2.31918,-12.523536 4.17446,-14.007831 1.94818,-1.57703 5.38058,-2.504707 9.92611,-2.504707 m 0.18553,28.664986 a 6.047424,6.047424 0 0 0 4.73115,-1.855267 c 0.92769,-1.113236 2.04091,-3.432384 2.04091,-10.297181 0,-6.864797 -1.11322,-9.183946 -2.04091,-10.297095 a 6.9597792,6.9597792 0 0 0 -9.46224,0 c -0.92769,1.113236 -2.04091,3.432384 -2.04091,10.297095 0,6.86471 1.11322,9.184032 2.04091,10.297181 a 6.0473808,6.0473808 0 0 0 4.73106,1.855267 m -0.1855,-38.744986 c -6.90126,0 -12.37466,1.598112 -16.2683,4.749955 -5.30938,4.247568 -7.91227,11.404167 -7.91227,21.842583 0,10.438646 2.60298,17.59536 7.95754,21.878985 q 0.0932,0.07456 0.18808,0.14688 c 3.92124,2.987568 9.46604,4.566701 16.03495,4.566701 6.54468,0 12.2306,-1.644725 16.03019,-4.63415 5.48411,-4.232679 8.1504,-11.417098 8.1504,-21.958387 0,-10.388708 -2.63328,-17.545392 -8.05037,-21.879015 -3.85445,-3.083587 -9.43226,-4.713523 -16.13026,-4.713523 z"
       id="path79"
       inkscape:connector-curvature="0"
       style="fill:none;stroke:#00ffff;stroke-width:1.88976383;stroke-miterlimit:4;stroke-dasharray:none;stroke-opacity:1" />
    <path
       d="m 665.22587,46.561514 c 1.37176,0 5.02282,0.178243 7.24896,1.95922 1.94818,1.484338 3.24686,3.989031 3.24686,8.163562 v 22.264099 h -6.58638 V 57.240842 a 6.866568,6.866568 0 0 0 -1.48431,-4.731077 6.0941664,6.0941664 0 0 0 -4.63834,-1.669853 l -6.4937,0.278352 -0.0927,27.922954 H 649.8397 V 46.850925 l 14.84278,-0.27828 c 0,0 0.20031,-0.01109 0.54339,-0.01109 m 0,-10.08 c -0.38553,0 -0.68224,0.0082 -0.87042,0.01549 l -14.70468,0.275674 a 10.08,10.08 0 0 0 -9.89107,10.078257 v 32.190279 a 10.08,10.08 0 0 0 10.08,10.08 h 6.58656 a 10.040213,10.040213 0 0 0 6.41163,-2.30161 10.037765,10.037765 0 0 0 6.29745,2.208787 h 6.58643 a 10.08,10.08 0 0 0 10.08,-10.08 V 56.684296 c 0,-8.748 -3.85379,-13.583822 -7.12754,-16.11216 -4.51999,-3.55716 -10.35733,-4.090651 -13.44832,-4.090651 z"
       id="path83"
       inkscape:connector-curvature="0"
       style="fill:none;stroke:#00ffff;stroke-width:1.88976383;stroke-miterlimit:4;stroke-dasharray:none;stroke-opacity:1" />
    <path
       d="m 587.96395,40.728304 v 5.751533 h 7.4213 v 3.989016 h -7.4213 v 18.36792 a 34.563888,34.563888 0 0 0 0.27825,4.17456 c 0.27827,1.855281 1.66976,1.948017 2.78298,1.948017 1.11322,0 2.96859,-0.09274 2.96859,-0.09274 v 3.989045 l -6.86479,0.09269 c -3.80337,0 -5.19494,-2.319149 -5.38048,-3.339562 -0.0927,-0.927691 -0.27826,-3.803371 -0.27826,-3.803371 V 40.728304 h 6.49371 m 0,-10.08 h -6.49371 a 10.08,10.08 0 0 0 -10.08,10.08 v 31.077115 q 0,0.324763 0.0209,0.649051 c 0.033,0.50976 0.20228,3.105778 0.30727,4.156589 q 0.0403,0.402595 0.11275,0.801058 c 1.04968,5.772542 6.64146,11.616235 15.29789,11.616235 q 0.068,0 0.13608,-9.22e-4 l 6.86478,-0.09274 a 10.08,10.08 0 0 0 9.94389,-10.079064 v -3.989073 a 10.08049,10.08049 0 0 0 -6.02986,-9.230112 v -5.441947 a 10.084032,10.084032 0 0 0 7.4213,-9.725674 v -3.988987 a 10.082477,10.082477 0 0 0 -8.32439,-9.927634 10.081814,10.081814 0 0 0 -9.17688,-5.903899 z"
       id="path87"
       inkscape:connector-curvature="0"
       style="fill:none;stroke:#00ffff;stroke-width:1.88976383;stroke-miterlimit:4;stroke-dasharray:none;stroke-opacity:1" />
    <path
       d="m 451.43848,46.475819 c 1.12933,0 5.11554,0.134741 7.48617,1.952165 1.94807,1.577117 3.24685,3.98903 3.24685,8.163562 v 21.985776 l -12.70915,0.278265 a 32.141981,32.141981 0 0 1 -8.62737,-1.113235 c -2.78293,-1.113206 -4.36006,-4.267267 -4.36006,-8.627328 0,-4.17456 1.29878,-6.679238 3.24685,-8.163446 2.22643,-1.781151 5.87761,-1.959264 7.24912,-1.95925 0.34291,0 0.54335,0.01109 0.54335,0.01109 h 4.0818 v 3.71065 h -2.22643 a 5.4278352,5.4278352 0 0 0 -4.45279,1.577116 5.8559616,5.8559616 0 0 0 -1.39158,4.360004 c 0,2.875766 0.55659,4.267353 1.94819,5.194944 1.20595,0.927676 3.33959,1.113235 5.8443,1.113235 l 4.36006,-0.278266 -0.18553,-17.440329 a 6.8662944,6.8662944 0 0 0 -1.48431,-4.731063 6.09408,6.09408 0 0 0 -4.63834,-1.669824 l -8.72015,0.278352 v -4.360089 l 10.48271,-0.278352 c 0,0 0.10987,-0.004 0.30631,-0.004 m 0,-10.08 c -0.32131,0 -0.53803,0.0059 -0.62956,0.0091 l -10.42704,0.276868 a 10.08,10.08 0 0 0 -9.81243,10.076458 v 4.36009 a 10.077638,10.077638 0 0 0 0.77728,3.881476 20.051366,20.051366 0 0 0 -4.95183,14.115269 c 0,8.583322 3.99865,15.3072 10.69632,17.986349 l 0.10483,0.04118 a 38.19024,38.19024 0 0 0 12.26624,1.792973 q 0.11031,0 0.22064,-0.0029 l 12.70915,-0.278266 a 10.08,10.08 0 0 0 9.85936,-10.077581 V 56.591488 c 0,-6.863587 -2.34986,-12.246106 -6.98431,-15.997997 q -0.10368,-0.08398 -0.20964,-0.165197 c -4.57662,-3.508617 -10.4972,-4.032518 -13.61907,-4.032518 z"
       id="path91"
       inkscape:connector-curvature="0"
       style="fill:none;stroke:#00ffff;stroke-width:1.88976383;stroke-miterlimit:4;stroke-dasharray:none;stroke-opacity:1" />
    <path
       d="m 563.03721,46.475819 c 1.12759,0 5.10209,0.134741 7.39366,1.952165 1.94809,1.577117 3.24686,3.98903 3.24686,8.163562 v 21.985776 l -12.70908,0.278265 a 32.141707,32.141707 0 0 1 -8.62734,-1.113235 c -2.78306,-1.113206 -4.36008,-4.267267 -4.36008,-8.627328 0,-4.17456 1.29877,-6.679238 3.24685,-8.163446 2.22632,-1.781151 5.87755,-1.959264 7.24909,-1.95925 0.34291,0 0.54339,0.01109 0.54339,0.01109 h 4.08179 v 3.71065 h -2.31916 a 5.4281376,5.4281376 0 0 0 -4.4529,1.577116 5.8560048,5.8560048 0 0 0 -1.39148,4.360004 c 0,2.875766 0.55661,4.267353 1.9481,5.194944 1.20603,0.927676 3.43238,1.113235 5.84437,1.113235 l 4.36008,-0.278266 V 57.240813 a 6.8662944,6.8662944 0 0 0 -1.4843,-4.731063 6.229152,6.229152 0 0 0 -4.63834,-1.669824 l -8.72015,0.278352 v -4.360089 l 10.48271,-0.278352 c 0,0 0.10987,-0.004 0.306,-0.004 m 0,-10.08 c -0.32093,0 -0.53764,0.0059 -0.62916,0.0091 l -10.42704,0.276869 a 10.08,10.08 0 0 0 -9.81247,10.076457 v 4.36009 a 10.0764,10.0764 0 0 0 0.74866,3.812097 20.020867,20.020867 0 0 0 -5.01592,14.184648 c 0,8.583408 3.99872,15.307316 10.6965,17.986407 l 0.10469,0.04118 a 38.189491,38.189491 0 0 0 12.26624,1.793001 q 0.1103,0 0.22061,-0.0029 l 12.70912,-0.278265 A 10.08,10.08 0 0 0 583.75786,78.57694 V 56.591488 c 0,-6.863587 -2.34985,-12.246106 -6.98432,-15.997997 l -0.0789,-0.06336 c -4.53581,-3.597293 -10.50359,-4.134413 -13.65723,-4.134413 z"
       id="path95"
       inkscape:connector-curvature="0"
       style="fill:none;stroke:#00ffff;stroke-width:1.88976383;stroke-miterlimit:4;stroke-dasharray:none;stroke-opacity:1" />
    <g
       style="fill:#ffffff;fill-opacity:1;stroke:#ffffff;stroke-opacity:1"
       transform="matrix(1.44,0,0,1.44,-409.77006,3.1350851)"
       id="g4209">
      <g
         style="fill:#ffffff;fill-opacity:1;stroke:#ffffff;stroke-opacity:1"
         id="g4783">
        <path
           id="path97"
           d="m 503.06927,19.36516 -0.0526,47.09263 -12.62819,-4.10415 V 7.00006 l 16.10094,4.262 c 10.313,2.78872 16.62712,8.1557 16.52189,17.57423 -0.10524,10.997 -5.15652,15.41691 -15.10122,12.52295 V 19.68086 c 0.0526,-2.57824 -4.8408,-2.7361 -4.8408,-0.3157 z"
           inkscape:connector-curvature="0"
           style="fill:#ffffff;fill-opacity:1;stroke:#ffffff;stroke-opacity:1" />
        <path
           id="path99"
           d="m 484.60054,53.19819 -5.94578,1.99945 c -3.84107,1.31544 -7.156,-1.789 -3.578,-3.10442 l 2.894,-0.99973 -10.8392,-3.42014 c -3.3149,1.105 -6.47195,3.52538 -6.26148,6.94551 0.21047,3.42013 8.05047,4.262 14.10148,5.20913 a 30.80935,30.80935 0 0 0 15.46953,-1.2102 v -3.52537 l -5.84053,-1.89423 z m 18.52134,13.2596 11.04967,-3.84106 -11.1549,-3.52538 v 7.156 l 0.10523,0.21046 z"
           inkscape:connector-curvature="0"
           style="fill:#ffffff;fill-opacity:1;stroke:#ffffff;stroke-opacity:1" />
        <path
           id="path16"
           d="m 532.48243,56.14477 0.21047,-0.05262 c 4.84081,-1.68377 6.89289,-4.05155 6.36671,-6.26148 -0.84188,-3.68322 -6.735,-5.68268 -15.78524,-6.36671 -6.52456,-0.47356 -12.94389,0.99972 -19.20537,3.10442 l -0.99973,0.36833 11.26013,3.47276 6.57719,-2.20994 c 6.89288,-1.26282 9.629,0.99973 3.05181,3.10442 l -3.26228,1.105 11.78631,3.73585 z m -42.094,-16.31142 -4.99866,1.68377 4.99866,1.5259 z"
           inkscape:connector-curvature="0"
           style="fill:#ffffff;fill-opacity:1;stroke:#ffffff;stroke-opacity:1" />
        <path
           id="path102"
           d="M 514.17155,62.61673 532.48243,56.14478 520.59088,52.46156 503.06926,58.46 v 0.63141 l 11.10229,3.52537 z m -23.78309,-11.36538 -5.78792,1.94685 5.78792,1.84161 z m 12.62819,3.05181 v -7.31383 l 11.26014,3.47276 z M 477.91812,51.09349 490.38846,46.621 v -3.578 l -4.99866,-1.5259 -18.0478,6.10365 a 2.27875,2.27875 0 0 1 -0.26309,0.05262 l 10.8392,3.42012 z"
           inkscape:connector-curvature="0"
           style="fill:#ffffff;fill-opacity:1;stroke:#ffffff;stroke-opacity:1" />
      </g>
    </g>
    <g
       style="fill:#ffffff;fill-opacity:1;stroke:#ffffff;stroke-opacity:1"
       transform="matrix(1.44,0,0,1.44,-186.58325,-58.711861)"
       id="g4781">
      <path
         style="fill:#ffffff;fill-opacity:1;stroke:#ffffff;stroke-opacity:1"
         id="path3003"
         d="m 401.1771,66.22109 v 29.44073 h 4.5739 V 69.05566 h 4.25183 c 0,0 3.09225,0 4.123,1.35284 0.9019,1.15958 1.09516,3.28549 1.09516,4.76722 0,1.54614 -0.12884,3.92971 -0.64421,4.76722 a 3.37772,3.37772 0 0 1 -3.22109,1.61054 h -2.83456 v 2.64128 h 4.05857 c 0,0 3.672,0.12885 5.21816,-1.41729 1.93265,-1.93265 2.3836,-4.57392 2.3836,-8.11712 0,-3.22108 -1.15959,-6.44217 -3.54319,-7.53734 a 16.58094,16.58094 0 0 0 -5.47585,-0.90192 h -9.98532"
         inkscape:connector-curvature="0" />
      <path
         style="fill:#ffffff;fill-opacity:1;stroke:#ffffff;stroke-opacity:1"
         id="path3005"
         d="m 423.85355,95.66182 h 4.57394 V 66.22109 h -4.57394 z"
         inkscape:connector-curvature="0" />
      <path
         style="fill:#ffffff;fill-opacity:1;stroke:#ffffff;stroke-opacity:1"
         id="path3007"
         d="m 452.90773,73.11422 8.43927,22.03223 -4.83163,11.85361 h 3.80088 l 13.91509,-33.8858 h -4.25184 l -6.05565,16.49194 -5.60469,-16.49194 h -5.41143"
         inkscape:connector-curvature="0" />
      <path
         style="fill:#ffffff;fill-opacity:1;stroke:#ffffff;stroke-opacity:1"
         id="path3009"
         d="m 477.64567,95.46856 v -2.77013 c 0,0 4.83163,0.19326 5.86238,0.19326 2.25476,0 3.34993,-0.451 4.18741,-1.35284 0.51538,-0.51537 0.96633,-2.96338 0.96633,-3.8009 a 12.62724,12.62724 0 0 0 -0.51538,-3.47878 2.88788,2.88788 0 0 0 -2.31918,-1.54614 c -0.83749,-0.06441 -2.12592,-0.2577 -3.672,-0.32211 a 5.95312,5.95312 0 0 1 -4.18741,-1.99706 c -0.64422,-0.77307 -1.54612,-1.99705 -1.54612,-5.6691 0,-3.67205 0.96633,-5.73355 1.93266,-6.69987 a 6.31555,6.31555 0 0 1 3.41435,-1.54614 26.6611,26.6611 0 0 1 3.22108,-0.19326 l 6.44217,0.19326 v 2.77013 c 0,0 -4.70278,-0.19326 -5.73352,-0.19326 -2.25476,0 -2.899,0.451 -3.73646,1.35284 a 5.16224,5.16224 0 0 0 -0.9019,2.899 11.67868,11.67868 0 0 0 0.45095,3.34993 2.7891,2.7891 0 0 0 2.31918,1.54614 c 0.83748,0.0644 2.12592,0.2577 3.672,0.32211 a 5.95318,5.95318 0 0 1 4.18741,1.99705 c 0.64421,0.77307 1.54611,2.51247 1.54611,6.12007 0,3.672 -0.96632,6.31332 -1.93265,7.27964 a 6.31555,6.31555 0 0 1 -3.41435,1.54614 c -1.224,0.19326 -3.22109,0.2577 -3.22109,0.2577 l -7.022,-0.25766"
         inkscape:connector-curvature="0" />
      <path
         style="fill:#ffffff;fill-opacity:1;stroke:#ffffff;stroke-opacity:1"
         id="path3011"
         d="m 502.70571,69.05566 h -4.57394 v 21.58127 c 0,0 0.12884,1.99706 0.19327,2.64127 0.12884,0.70863 1.09516,2.31917 3.73646,2.31917 l 4.7672,-0.06441 v -2.77012 c 0,0 -1.28844,0.0644 -2.06149,0.0644 -0.77305,0 -1.73939,-0.0644 -1.93266,-1.35284 a 23.99891,23.99891 0 0 1 -0.19326,-2.899 V 75.81994 h 5.21816 v -2.77013 h -5.21816 l 0.0644,-3.99415"
         inkscape:connector-curvature="0" />
      <path
         style="fill:#ffffff;fill-opacity:1;stroke:#ffffff;stroke-opacity:1"
         id="path3013"
         d="m 547.09228,95.66182 h 4.57394 v -22.5476 h -4.57394 z"
         inkscape:connector-curvature="0" />
      <path
         style="fill:#ffffff;fill-opacity:1;stroke:#ffffff;stroke-opacity:1"
         id="path3015"
         d="m 547.09228,70.34409 h 4.57394 v -4.123 h -4.57394 z"
         inkscape:connector-curvature="0" />
      <path
         style="fill:#ffffff;fill-opacity:1;stroke:#ffffff;stroke-opacity:1"
         id="path3017"
         d="m 566.22551,72.921 c 3.15666,0 5.54027,0.70862 6.82871,1.73939 1.28844,1.03077 2.9634,3.2855 2.9634,9.72767 0,6.44217 -1.61054,8.69693 -2.9634,9.72766 -1.28844,1.03073 -3.73646,1.73939 -6.82871,1.73939 -3.15666,0 -5.54027,-0.70862 -6.89313,-1.73939 -1.28843,-1.03073 -2.899,-3.28549 -2.899,-9.72766 0,-6.44217 1.61055,-8.69693 2.899,-9.72767 1.35288,-1.09521 3.73647,-1.73939 6.89313,-1.73939 z m -3.15666,4.31626 c -0.64422,0.77307 -1.41728,2.38361 -1.41728,7.1508 0,4.76719 0.77306,6.37776 1.41728,7.15079 a 4.83326,4.83326 0 0 0 6.571,0 c 0.64422,-0.77307 1.41729,-2.38361 1.41729,-7.15079 0,-4.76718 -0.77307,-6.37777 -1.41729,-7.1508 a 4.83326,4.83326 0 0 0 -6.571,0"
         inkscape:connector-curvature="0" />
      <path
         style="fill:#ffffff;fill-opacity:1;stroke:#ffffff;stroke-opacity:1"
         id="path3019"
         d="m 585.48762,76.2709 4.50952,-0.19326 a 4.232,4.232 0 0 1 3.22108,1.15958 4.76858,4.76858 0 0 1 1.03075,3.28549 v 15.0747 h 4.57395 V 80.1362 c 0,-2.899 -0.9019,-4.63837 -2.25476,-5.6691 -1.93265,-1.54614 -5.41142,-1.35284 -5.41142,-1.35284 l -10.30747,0.19325 v 22.35434 h 4.57394 l 0.0644,-19.391"
         inkscape:connector-curvature="0" />
      <path
         style="fill:#ffffff;fill-opacity:1;stroke:#ffffff;stroke-opacity:1"
         id="path3021"
         d="m 537.94439,69.05566 h -4.57395 v 21.58127 c 0,0 0.12885,1.99706 0.19326,2.64127 0.12885,0.70863 1.09517,2.31917 3.73645,2.31917 l 4.7672,-0.06441 v -2.77012 c 0,0 -1.28843,0.0644 -2.0615,0.0644 -0.77307,0 -1.7394,-0.0644 -1.93265,-1.35284 a 23.99891,23.99891 0 0 1 -0.19326,-2.899 V 75.81994 h 5.15374 v -2.77013 h -5.15374 v -3.99415"
         inkscape:connector-curvature="0" />
      <path
         style="fill:#ffffff;fill-opacity:1;stroke:#ffffff;stroke-opacity:1"
         id="path3023"
         d="m 445.88577,80.52271 a 4.76848,4.76848 0 0 0 -1.03075,-3.28549 4.232,4.232 0 0 0 -3.22109,-1.15958 l -6.05564,0.19326 v -3.02783 l 7.27965,-0.19326 c 0,0 3.47877,-0.12885 5.41142,1.35284 1.35286,1.09518 2.25476,2.77013 2.25476,5.6691 v 15.268 l -8.82577,0.19325 a 22.32123,22.32123 0 0 1 -5.99122,-0.77306 c -1.93265,-0.77307 -3.02782,-2.96339 -3.02782,-5.99122 0,-2.899 0.9019,-4.63837 2.25476,-5.6691 1.93265,-1.54613 5.41142,-1.35284 5.41142,-1.35284 h 2.83456 v 2.57687 h -1.54612 a 3.76957,3.76957 0 0 0 -3.09224,1.09518 4.06679,4.06679 0 0 0 -0.96633,3.02783 c 0,1.99705 0.38653,2.96338 1.35286,3.6076 0.83748,0.64421 2.31918,0.77306 4.05856,0.77306 l 3.02782,-0.19325 -0.12883,-12.11132"
         inkscape:connector-curvature="0" />
      <path
         style="fill:#ffffff;fill-opacity:1;stroke:#ffffff;stroke-opacity:1"
         id="path3025"
         d="m 523.38508,80.52271 a 4.76843,4.76843 0 0 0 -1.03076,-3.28549 4.32565,4.32565 0 0 0 -3.22108,-1.15958 l -6.05564,0.19326 v -3.02783 l 7.27966,-0.19326 c 0,0 3.47878,-0.12885 5.347,1.35284 1.35286,1.09518 2.25476,2.77013 2.25476,5.6691 v 15.268 l -8.82577,0.19325 a 22.32123,22.32123 0 0 1 -5.99122,-0.77306 c -1.93265,-0.77307 -3.02782,-2.96339 -3.02782,-5.99122 0,-2.899 0.9019,-4.63837 2.25476,-5.6691 1.93265,-1.54613 5.41142,-1.35284 5.41142,-1.35284 h 2.83455 v 2.57687 h -1.61054 a 3.76959,3.76959 0 0 0 -3.09225,1.09518 4.06683,4.06683 0 0 0 -0.96632,3.02783 c 0,1.99705 0.38653,2.96338 1.35286,3.6076 0.83748,0.64421 2.3836,0.77306 4.05857,0.77306 l 3.02782,-0.19325 V 80.52271"
         inkscape:connector-curvature="0" />
    </g>
  </g>
</svg>
