<?xml version="1.0" encoding="UTF-8" standalone="no"?>
<svg
   xmlns:dc="http://purl.org/dc/elements/1.1/"
   xmlns:cc="http://creativecommons.org/ns#"
   xmlns:rdf="http://www.w3.org/1999/02/22-rdf-syntax-ns#"
   xmlns:svg="http://www.w3.org/2000/svg"
   xmlns="http://www.w3.org/2000/svg"
   xmlns:xlink="http://www.w3.org/1999/xlink"
   xmlns:sodipodi="http://sodipodi.sourceforge.net/DTD/sodipodi-0.dtd"
   xmlns:inkscape="http://www.inkscape.org/namespaces/inkscape"
   id="Layer_1"
   data-name="Layer 1"
   viewBox="0 0 1000 114"
   version="1.1"
   sodipodi:docname="system.svg"
   inkscape:version="0.92.4 (5da689c313, 2019-01-14)">
  <metadata
     id="metadata147">
    <rdf:RDF>
      <cc:Work
         rdf:about="">
        <dc:format>image/svg+xml</dc:format>
        <dc:type
           rdf:resource="http://purl.org/dc/dcmitype/StillImage" />
        <dc:title>logo</dc:title>
      </cc:Work>
    </rdf:RDF>
  </metadata>
  <sodipodi:namedview
     pagecolor="#ffffff"
     bordercolor="#666666"
     borderopacity="1"
     objecttolerance="10"
     gridtolerance="10"
     guidetolerance="10"
     inkscape:pageopacity="0"
     inkscape:pageshadow="2"
     inkscape:window-width="1920"
     inkscape:window-height="1017"
     id="namedview145"
     showgrid="false"
     inkscape:pagecheckerboard="true"
     inkscape:snap-global="false"
     inkscape:zoom="1.6065466"
     inkscape:cx="430.04779"
     inkscape:cy="57"
     inkscape:window-x="-8"
     inkscape:window-y="-8"
     inkscape:window-maximized="1"
     inkscape:current-layer="Layer_1" />
  <defs
     id="defs43">
    <linearGradient
       id="linear-gradient"
       x1="524.72338"
       y1="-123"
       x2="524.72338"
       y2="-222"
       gradientTransform="matrix(1, 0, 0, -1, -24.5, -115.5)"
       gradientUnits="userSpaceOnUse">
      <stop
         offset="0"
         stop-color="#d9dde9"
         id="stop2" />
      <stop
         offset="0.39"
         stop-color="#777489"
         id="stop4" />
      <stop
         offset="0.98"
         stop-color="#d9dde9"
         id="stop6" />
    </linearGradient>
    <linearGradient
       id="linear-gradient-2"
       x1="552.05019"
       y1="-87.69835"
       x2="552.05019"
       y2="-378.05535"
       xlink:href="#linear-gradient" />
    <linearGradient
       id="linear-gradient-3"
       x1="446.03823"
       y1="-157.0379"
       x2="494.83408"
       y2="-205.83374"
       gradientTransform="matrix(1, 0, 0, -1, -24.5, -115.5)"
       gradientUnits="userSpaceOnUse">
      <stop
         offset="0"
         id="stop10" />
      <stop
         offset="0.11"
         stop-color="#181c4e"
         id="stop12" />
      <stop
         offset="0.22"
         stop-color="#181818"
         id="stop14" />
      <stop
         offset="0.34"
         stop-color="#181c4e"
         id="stop16" />
      <stop
         offset="0.47"
         id="stop18" />
      <stop
         offset="0.59"
         stop-color="#181c4e"
         id="stop20" />
      <stop
         offset="0.72"
         id="stop22" />
      <stop
         offset="0.84"
         stop-color="#181c4e"
         id="stop24" />
      <stop
         offset="0.98"
         id="stop26" />
    </linearGradient>
    <linearGradient
       id="linear-gradient-4"
       x1="643.12764"
       y1="-167.66515"
       x2="694.55352"
       y2="-222.37068"
       xlink:href="#linear-gradient-3" />
    <linearGradient
       id="linear-gradient-5"
       x1="514.55101"
       y1="-157.21744"
       x2="563.91572"
       y2="-206.58215"
       xlink:href="#linear-gradient-3" />
    <linearGradient
       id="linear-gradient-6"
       x1="373.21798"
       y1="-157.21772"
       x2="422.58255"
       y2="-206.5823"
       xlink:href="#linear-gradient-3" />
    <linearGradient
       id="linear-gradient-7"
       x1="308.19186"
       y1="-161.52485"
       x2="356.80852"
       y2="-210.14153"
       xlink:href="#linear-gradient-3" />
    <linearGradient
       id="linear-gradient-8"
       x1="580.51809"
       y1="-156.85149"
       x2="630.02358"
       y2="-206.357"
       xlink:href="#linear-gradient-3" />
    <linearGradient
       id="linear-gradient-9"
       x1="682.51845"
       y1="-156.85187"
       x2="732.02396"
       y2="-206.35738"
       xlink:href="#linear-gradient-3" />
    <linearGradient
       id="linear-gradient-10"
       x1="524.72334"
       y1="-126.5"
       x2="524.72334"
       y2="-218.5"
       xlink:href="#linear-gradient" />
    <linearGradient
       id="linear-gradient-11"
       x1="448.48439"
       y1="-159.4844"
       x2="493.2288"
       y2="-204.2288"
       xlink:href="#linear-gradient-3" />
    <linearGradient
       id="linear-gradient-12"
       x1="645.51308"
       y1="-170.20271"
       x2="690.01129"
       y2="-217.53876"
       xlink:href="#linear-gradient-3" />
    <linearGradient
       id="linear-gradient-13"
       x1="517.64259"
       y1="-160.30927"
       x2="561.91107"
       y2="-204.57774"
       xlink:href="#linear-gradient-3" />
    <linearGradient
       id="linear-gradient-14"
       x1="376.3096"
       y1="-160.30959"
       x2="420.57806"
       y2="-204.57807"
       xlink:href="#linear-gradient-3" />
    <linearGradient
       id="linear-gradient-15"
       x1="310.66667"
       y1="-164"
       x2="354.33333"
       y2="-207.66667"
       xlink:href="#linear-gradient-3" />
    <linearGradient
       id="linear-gradient-16"
       x1="583.47284"
       y1="-159.80617"
       x2="628.07255"
       y2="-204.4059"
       xlink:href="#linear-gradient-3" />
    <linearGradient
       id="linear-gradient-17"
       x1="685.47317"
       y1="-159.80651"
       x2="730.0729"
       y2="-204.40624"
       xlink:href="#linear-gradient-3" />
  </defs>
  <title
     id="title45">logo</title>
  <path
     d="m 500.81769,3.0596496 h -74.55975 c -2.36313,-1.88e-5 -4.54789,1.2477614 -5.73562,3.2757888 L 406.64431,30.031047 H 258.18263 c -1.1394,6e-6 -2.25961,0.291307 -3.25268,0.845834 l -30.32938,16.935511 c -2.08908,1.166483 -3.3819,3.360845 -3.38187,5.740198 v 33.243758 c -3e-5,2.379353 1.29279,4.573715 3.38187,5.740198 l 30.32938,16.935504 c 0.99307,0.55453 2.11328,0.84583 3.25268,0.84584 h 410.07849 c 1.1394,0 2.2596,-0.2913 3.25265,-0.84584 l 30.32939,-16.935504 c 2.08909,-1.166474 3.38192,-3.360838 3.38189,-5.740198 V 53.55259 c 3e-5,-2.37936 -1.2928,-4.573724 -3.38189,-5.740198 L 671.51377,30.876881 c -0.99305,-0.554532 -2.11325,-0.845832 -3.25265,-0.845834 H 520.43126 L 506.55331,6.3354384 c -1.18775,-2.0280086 -3.3725,-3.2757794 -5.73562,-3.2757888 z"
     id="path51"
     style="fill:none;stroke:#00ffff;stroke-width:1.78454387;stroke-miterlimit:4;stroke-dasharray:none;stroke-opacity:1"
     inkscape:connector-curvature="0"
     sodipodi:nodetypes="ccccccccccccccccccccccc" />
  <path
     inkscape:connector-curvature="0"
     d="M 432.83848,93.935694 A 3.3174374,3.2931759 0 0 1 429.5212,90.642678 V 76.355185 L 407.08978,63.909899 v 26.732779 a 3.3174374,3.2931759 0 0 1 -3.31727,3.293016 h -15.1647 a 3.3174374,3.2931759 0 0 1 -3.31727,-3.293016 V 46.735955 a 3.3171435,3.2928843 0 0 1 3.31727,-3.293016 h 15.79687 a 3.3161294,3.2918776 0 0 1 1.61789,0.418063 L 429.5212,56.892943 V 46.735955 a 3.317153,3.2928937 0 0 1 3.31728,-3.293016 h 15.16469 a 3.3171435,3.2928843 0 0 1 3.31728,3.293016 v 43.906723 a 3.3174374,3.2931759 0 0 1 -3.31728,3.293016 z"
     id="path105"
     style="fill:none;stroke:#00ffff;stroke-width:1.78454387;stroke-miterlimit:4;stroke-dasharray:none;stroke-opacity:1" />
  <path
     inkscape:connector-curvature="0"
     id="rect109"
     d="m 586.38052,43.442939 h 15.1647 c 1.83777,0 3.31727,1.468685 3.31727,3.293016 v 43.906723 c 0,1.824331 -1.4795,3.293016 -3.31727,3.293016 h -15.1647 c -1.83777,0 -3.31727,-1.468685 -3.31727,-3.293016 V 46.735955 c 0,-1.824331 1.4795,-3.293016 3.31727,-3.293016 z"
     style="fill:none;stroke:#00ffff;stroke-width:1.78454387;stroke-miterlimit:4;stroke-dasharray:none;stroke-opacity:1" />
  <path
     inkscape:connector-curvature="0"
     d="m 455.58552,93.935694 a 3.3174374,3.2931759 0 0 1 -3.31728,-3.293016 V 56.771657 a 3.3168592,3.292602 0 0 1 1.47723,-2.739893 L 468.9097,43.996062 a 3.3167455,3.2924891 0 0 1 1.84004,-0.553123 h 39.80732 a 3.3174563,3.2931948 0 0 1 1.72529,6.105958 l -14.53252,8.781062 a 3.3194751,3.2951988 0 0 1 -1.72528,0.480545 h -21.95753 v 2.19503 h 27.01211 a 3.3171435,3.2928843 0 0 1 1.72528,6.105497 l -14.53251,8.782003 a 3.3194751,3.2951988 0 0 1 -1.72529,0.480536 h -12.47959 v 2.19503 h 37.75439 a 3.3173426,3.2930819 0 0 1 1.72435,6.106409 l -14.53346,8.781062 a 3.3215129,3.2972217 0 0 1 -1.72436,0.479623 z"
     id="path113"
     style="fill:none;stroke:#00ffff;stroke-width:1.78454387;stroke-miterlimit:4;stroke-dasharray:none;stroke-opacity:1" />
  <path
     inkscape:connector-curvature="0"
     d="m 321.63059,93.935694 a 3.3174374,3.2931759 0 0 1 -3.31727,-3.293016 V 56.771657 a 3.3168782,3.2926208 0 0 1 1.47722,-2.739893 l 15.16469,-10.035711 a 3.3167834,3.2925268 0 0 1 1.84006,-0.553114 h 39.80731 a 3.3172762,3.293016 0 0 1 1.72481,6.105958 l -14.53298,8.781062 a 3.3153806,3.2911343 0 0 1 -1.72482,0.480545 h -21.95705 v 2.19503 h 27.01211 a 3.3169729,3.2927149 0 0 1 1.72481,6.105497 l -14.53299,8.782003 a 3.3153806,3.2911343 0 0 1 -1.72481,0.480536 h -12.47912 v 2.19503 h 37.75391 a 3.3169729,3.2927149 0 0 1 1.72483,6.105496 l -14.53299,8.781063 a 3.3153806,3.2911343 0 0 1 -1.72481,0.480535 z"
     id="path117"
     style="fill:none;stroke:#00ffff;stroke-width:1.78454387;stroke-miterlimit:4;stroke-dasharray:none;stroke-opacity:1" />
  <path
     inkscape:connector-curvature="0"
     d="m 252.75777,93.935694 a 3.3174374,3.2931759 0 0 1 -3.31728,-3.293016 V 56.771657 a 3.3168592,3.292602 0 0 1 1.47723,-2.739893 l 15.1647,-10.035711 a 3.3167265,3.2924703 0 0 1 1.84004,-0.553123 h 46.12579 a 3.3172762,3.293016 0 0 1 1.72481,6.105957 l -14.53298,8.781063 a 3.3153806,3.2911343 0 0 1 -1.72482,0.480554 H 271.23975 V 78.5686 h 21.79924 V 74.491846 H 278.66381 A 3.3169729,3.2927149 0 0 1 276.939,68.38635 l 14.53298,-8.782003 a 3.315447,3.2912001 0 0 1 1.72482,-0.480536 h 18.32415 a 3.3174374,3.2931759 0 0 1 3.31728,3.293016 v 18.19062 A 3.3181008,3.2938346 0 0 1 313.361,83.34734 l -15.16469,10.035231 a 3.3141864,3.2899488 0 0 1 -1.84005,0.553123 z"
     id="path121"
     style="fill:none;fill-opacity:1;stroke:#00ffff;stroke-width:1.78454387;stroke-miterlimit:4;stroke-dasharray:none;stroke-opacity:1" />
  <path
     inkscape:connector-curvature="0"
     d="m 516.24382,93.935694 a 3.3173521,3.2930913 0 0 1 -1.72435,-6.106418 l 14.53346,-8.781062 a 3.3215318,3.2972405 0 0 1 1.72435,-0.479614 h 25.11652 v -2.19503 h -39.64998 a 3.3177406,3.293477 0 0 1 -3.31728,-3.293016 V 56.144572 a 3.316518,3.2922633 0 0 1 1.59293,-2.812932 l 14.53346,-8.781062 a 3.3133713,3.2891397 0 0 1 1.72436,-0.480075 h 45.49407 a 3.3171151,3.2928561 0 0 1 1.72435,6.105948 l -14.53346,8.781063 a 3.3137978,3.289563 0 0 1 -1.72436,0.480535 h -26.37993 v 1.567476 h 40.28121 a 3.3177406,3.293477 0 0 1 3.31728,3.293016 v 17.563075 a 3.3151911,3.2909461 0 0 1 -1.59293,2.81248 l -14.53251,8.781063 a 3.3137884,3.2895536 0 0 1 -1.72435,0.480535 z"
     id="path125"
     style="fill:none;stroke:#00ffff;stroke-width:1.78454387;stroke-miterlimit:4;stroke-dasharray:none;stroke-opacity:1" />
  <path
     inkscape:connector-curvature="0"
     d="m 612.91873,93.935694 a 3.3173521,3.2930913 0 0 1 -1.72435,-6.106418 l 14.53346,-8.781062 a 3.3215318,3.2972405 0 0 1 1.72435,-0.479614 h 25.11652 v -2.19503 h -39.64998 a 3.3177406,3.293477 0 0 1 -3.31728,-3.293016 V 56.144572 a 3.316518,3.2922633 0 0 1 1.59293,-2.812932 l 14.53346,-8.781062 a 3.3133713,3.2891397 0 0 1 1.72436,-0.480075 h 45.49407 a 3.3171151,3.2928561 0 0 1 1.72435,6.105948 l -14.53346,8.781063 a 3.3137978,3.289563 0 0 1 -1.72436,0.480535 h -26.37993 v 1.567476 h 40.28121 a 3.3177406,3.293477 0 0 1 3.31728,3.293016 v 17.563075 a 3.3151911,3.2909461 0 0 1 -1.59293,2.81248 l -14.53251,8.781063 a 3.3137884,3.2895536 0 0 1 -1.72435,0.480535 z"
     id="path129"
     style="fill:none;stroke:#00ffff;stroke-width:1.78454387;stroke-miterlimit:4;stroke-dasharray:none;stroke-opacity:1" />
  <path
     style="fill:#ffffff;fill-opacity:1;stroke:#00ffff;stroke-width:1.78454387;stroke-miterlimit:4;stroke-dasharray:none;stroke-opacity:1"
     inkscape:connector-curvature="0"
     d="m 483.382,14.536185 -5.92054,17.907732 h 2.92552 l 5.93381,-17.293039 a 1.6571406,1.6450214 0 0 1 3.26673,0 l 5.01636,14.627267 h -7.873 v 2.665772 h 11.71473 l -5.92056,-17.907732 a 4.7562254,4.7214417 0 0 0 -9.14305,0 z m 3.46892,11.120986 1.03626,-3.054668 1.08049,3.054668 z m -0.42966,-8.768831 -5.30134,15.555577 h 3.41838 l 2.19256,-6.448036 v 3.048392 h 6.8873 L 489.52938,16.88834 c -0.20789,-0.677421 -0.82774,-2.621862 -1.55439,-2.621862 -0.73232,0 -1.35155,1.944451 -1.55375,2.621862 z m -18.72208,-2.377238 h 10.24943 v -2.910406 h -10.49523 a 5.1290019,5.091492 0 0 0 -5.12439,5.093196 v 10.663115 a 5.1235995,5.0861291 0 0 0 5.12439,5.08691 H 477.9486 V 18.870415 h -8.29698 v 2.665781 h 5.36451 v 7.997325 h -7.31696 a 2.4358285,2.4180146 0 0 1 -2.43836,-2.421138 V 16.932259 a 2.4354684,2.4176571 0 0 1 2.43837,-2.421157 z m 1.95245,7.7527 v 2.910406 h 1.70603 v 0.727587 h -1.70603 a 0.73346873,0.72810466 0 0 1 -0.73297,-0.727597 v -6.303773 a 0.73389524,0.72852804 0 0 1 0.73297,-0.727606 h 8.29698 v -2.904121 h -9.51647 a 2.4418091,2.4239514 0 0 0 -2.4453,2.421148 v 8.724912 a 2.4418091,2.4239514 0 0 0 2.4453,2.421148 h 5.85736 v -6.542113 z m -18.79157,-7.7527 h 10.2488 v -2.910406 h -10.49523 a 5.1290019,5.091492 0 0 0 -5.1244,5.093196 v 10.543926 a 5.1290114,5.0915014 0 0 0 5.1244,5.093186 h 10.49522 v -2.910386 h -10.24879 a 2.4404538,2.422606 0 0 1 -2.43899,-2.421139 v -10.06722 a 2.4404633,2.4226154 0 0 1 2.43899,-2.421176 z m 8.04991,7.025094 v -2.665781 h -6.83043 a 0.73348769,0.72812347 0 0 1 0.73297,-0.727606 h 8.29635 V 15.23868 h -9.51585 a 2.4404443,2.4225966 0 0 0 -2.43898,2.421166 v 3.87635 h 9.75593 z m 0,0.972221 v 2.665772 h -6.83043 a 0.73346873,0.72810466 0 0 0 0.73297,0.727606 h 8.29635 v 2.904129 h -9.51585 a 2.4404538,2.422606 0 0 1 -2.43898,-2.421157 v -3.87635 h 9.75595 z m -25.07861,3.631726 h -6.15433 v 2.665772 h 9.51585 a 3.29633,3.272223 0 0 0 -0.12005,-6.542113 h -3.7027 a 4.2220586,4.1911814 0 0 1 -2.76756,-3.75718 4.241005,4.2099892 0 0 1 4.27139,-3.99552 h 9.15568 v -2.910406 h -9.52218 a 6.835987,6.7859933 0 0 0 -6.83043,6.786747 7.0463876,6.9948552 0 0 0 7.07686,6.786755 v -0.03133 l 0.019,0.03133 h 2.17992 a 0.48653069,0.48297254 0 0 1 0,0.965936 h -3.12142 z m 4.0376,-8.235682 h 6.16065 V 15.23868 h -9.52215 a 3.29633,3.272223 0 0 0 0.12638,6.54214 h 3.7027 a 4.2229495,4.1920658 0 0 1 2.76125,3.757153 4.2410144,4.2099986 0 0 1 -4.2714,3.995548 h -9.14936 v 2.910405 h 9.51585 a 6.8373233,6.78732 0 0 0 6.83674,-6.786755 7.0506337,6.9990703 0 0 0 -7.07686,-6.786746 v 0.03763 l -0.0253,-0.03763 h -2.17361 a 0.48654021,0.482982 0 0 1 0,-0.965964 h 3.11507 z"
     id="path16" />
  <path
     inkscape:connector-curvature="0"
     id="polygon37"
     d="M 448.00271,46.736426 V 90.642678 H 432.83802 V 74.422222 L 403.77299,58.296794 V 90.642678 H 388.6083 V 46.736426 h 15.79592 l 28.4338,15.768842 V 46.736426 Z"
     style="fill:#ffffff;fill-opacity:1;stroke-width:0.9443211" />
  <path
     inkscape:connector-curvature="0"
     id="rect58"
     d="M 586.38081,46.736115 H 601.5455 V 90.642998 H 586.38081 Z"
     style="fill:#ffffff;fill-opacity:1;stroke-width:0.9443211" />
  <path
     inkscape:connector-curvature="0"
     id="polygon79"
     d="m 496.02455,55.517488 h -25.27481 v 8.781062 h 30.32939 l -14.53252,8.782004 h -15.79687 v 8.781062 h 41.07167 l -14.53346,8.781062 h -41.7029 V 56.771657 l 15.16469,-10.035231 h 39.80732 z"
     style="fill:#ffffff;fill-opacity:1;stroke-width:0.9443211" />
  <path
     inkscape:connector-curvature="0"
     id="polygon100"
     d="m 362.07009,55.517488 h -25.2748 v 8.781062 h 30.32938 l -14.53251,8.782004 h -15.79687 v 8.781062 h 41.07072 L 363.3335,90.642678 H 321.63059 V 56.771657 l 15.1647,-10.035231 h 39.80731 z"
     style="fill:#ffffff;fill-opacity:1;stroke-width:0.9443211" />
  <path
     inkscape:connector-curvature="0"
     id="polygon121"
     d="M 252.75731,56.771657 267.922,46.736426 h 46.12625 l -14.53251,8.781062 H 267.922 v 26.344128 h 28.43379 V 71.19883 h -17.6915 l 14.53251,-8.782003 h 18.32368 v 18.19062 l -15.16469,10.035231 h -43.59848 z"
     style="fill:#ffffff;fill-opacity:1;stroke-width:0.9443211" />
  <path
     inkscape:connector-curvature="0"
     id="polygon142"
     d="M 559.21108,81.861616 V 73.080554 H 516.24382 V 56.145043 l 14.53346,-8.782003 h 45.49407 l -14.53346,8.782003 h -29.6972 v 8.153507 h 43.59848 v 17.563066 l -14.53251,8.781062 h -44.86284 l 14.53346,-8.781062 z"
     style="fill:#ffffff;fill-opacity:1;stroke-width:0.9443211" />
  <path
     inkscape:connector-curvature="0"
     id="polygon163"
     d="M 655.88598,81.861616 V 73.080554 H 612.91873 V 56.145043 l 14.53346,-8.782003 h 45.49407 l -14.53346,8.782003 h -29.69721 v 8.153507 h 43.59849 v 17.563066 l -14.53251,8.781062 h -44.86284 l 14.53346,-8.781062 z"
     style="fill:#ffffff;fill-opacity:1;stroke-width:0.9443211" />
</svg>
