<?xml version="1.0" encoding="UTF-8" standalone="no"?>
<svg
   xmlns:dc="http://purl.org/dc/elements/1.1/"
   xmlns:cc="http://creativecommons.org/ns#"
   xmlns:rdf="http://www.w3.org/1999/02/22-rdf-syntax-ns#"
   xmlns:svg="http://www.w3.org/2000/svg"
   xmlns="http://www.w3.org/2000/svg"
   xmlns:sodipodi="http://sodipodi.sourceforge.net/DTD/sodipodi-0.dtd"
   xmlns:inkscape="http://www.inkscape.org/namespaces/inkscape"
   id="Ebene_2"
   data-name="Ebene 2"
   viewBox="0 0 1000 114"
   version="1.1"
   sodipodi:docname="logo.svg"
   inkscape:version="0.92.4 (5da689c313, 2019-01-14)">
  <metadata
     id="metadata25">
    <rdf:RDF>
      <cc:Work
         rdf:about="">
        <dc:format>image/svg+xml</dc:format>
        <dc:type
           rdf:resource="http://purl.org/dc/dcmitype/StillImage" />
        <dc:title>logo</dc:title>
      </cc:Work>
    </rdf:RDF>
  </metadata>
  <defs
     id="defs23" />
  <sodipodi:namedview
     pagecolor="#ffffff"
     bordercolor="#666666"
     borderopacity="1"
     objecttolerance="10"
     gridtolerance="10"
     guidetolerance="10"
     inkscape:pageopacity="0"
     inkscape:pageshadow="2"
     inkscape:window-width="1920"
     inkscape:window-height="1017"
     id="namedview21"
     showgrid="false"
     inkscape:pagecheckerboard="true"
     inkscape:zoom="2.272"
     inkscape:cx="500"
     inkscape:cy="57"
     inkscape:window-x="-8"
     inkscape:window-y="-8"
     inkscape:window-maximized="1"
     inkscape:current-layer="Ebene_2" />
  <title
     id="title2">logo</title>
  <g
     id="g840">
    <path
       sodipodi:nodetypes="sssssssss"
       inkscape:connector-curvature="0"
       style="fill:none;stroke:#00fff1;stroke-width:1.88976383;stroke-miterlimit:4;stroke-dasharray:none;stroke-opacity:1"
       id="path4"
       d="M 750,14.68 H 250 c -3.86599,0 -7,3.134007 -7,7 v 70.64 c 0,3.865993 3.13401,7 7,7 h 500 c 3.86599,0 7,-3.134007 7,-7 V 21.68 c 0,-3.865993 -3.13401,-7 -7,-7 z" />
    <path
       style="fill:none;stroke:none"
       d="m 254.5,26.18 h 491 v 61.64 h -491 z"
       id="rect6" />
    <path
       style="fill:#ffffff;fill-opacity:1"
       fill="#b2ae85"
       id="path8"
       d="M320,46l-1.41-.66a3.89,3.89,0,0,0,.17-1c0-1-8.35-6.07-22.83-6.07-13.86,0-19.81,3.53-19.81,8,0,12,52.33-5.56,52.33,20.91,0,9.65-11.38,17.1-34.12,17.1-21.67,0-27.89-5.7-29.94-5.7-.53,0-.79.37-1.24.59L262,79l7.38-12.43,1.41.58a11.82,11.82,0,0,0-.18,1.17c0,4.32,11.47,7.39,22.83,7.39,16.17,0,21.68-3.8,21.68-7.83,0-14.32-51.61,3.44-51.61-20.83,0-12.28,15.72-17.4,33-17.4,15.45,0,26.29,5.56,27.36,5.56a2,2,0,0,0,1.6-.52l1.41.37Z" />
    <path
       style="fill:#ffffff;fill-opacity:1"
       id="path10"
       fill="#b2ae85"
       d="M335.3,82.59c2,0,2.31-.59,2.31-2.2V33.61c0-1.61-.35-2.2-2.31-2.2v-1H393c2.12,0,3-.58,3-1.6h1.24V40.92H396c0-1.32-.89-1.9-3-1.9H350.2v13h27.9c2.12,0,3-.58,3-1.9h1.24V62.41h-1.22a1.31,1.31,0,0,0-.7-1.31,4.42,4.42,0,0,0-2.31-.45H350.2V75h43.54c2.12,0,3-.58,3-1.75H398v12h-1.24c0-1-.89-1.6-3-1.6H335.3Z" />
    <path
       style="fill:#ffffff;fill-opacity:1"
       id="path12"
       fill="#b2ae85"
       d="M476.81,55.54v1c-.89.15-1.69.71-1.69,2.34V73.3c0,1.18.45,1.61,1.61,1.83v1c-5.61,2.62-19.29,8.18-34.62,8.18-20.43,0-38.37-8.33-38.37-27.34s21-27.34,39.44-27.34a78.05,78.05,0,0,1,19.28,2.7c4.7,1.68,8.17,3,8.79,3a2.68,2.68,0,0,0,2-.81l1.24.44-8.62,12-1.24-.66a4.33,4.33,0,0,0,.18-1.24c0-2.27-9.6-6.8-21.41-6.8-14.93,0-27,6.06-27,18.42,0,12.94,12.08,19,25.76,19,11.2,0,17.77-3.15,20.43-4.75V64.9H447.23c-1.77,0-2.83.7-2.83,1.75h-1.24V53.79h1.24c0,1,1.07,1.75,2.83,1.75Z" />
    <path
       style="fill:#ffffff;fill-opacity:1"
       id="path14"
       fill="#b2ae85"
       d="M481.25,83.62v-1c1.6-.07,2.12-.44,3.37-2.77l24.26-44.9a5.16,5.16,0,0,0,1-2.19c0-.81-.7-1.17-1.86-1.32v-1h19.37v1c-1.34.15-1.87.59-1.87,1.1a4.11,4.11,0,0,0,.79,1.89l25.77,45.42c1.24,2.26,1.6,2.77,3.46,2.77v1H537.85v-1c1.16,0,1.61-.37,1.61-.71,0-.79-.8-1.82-6.76-12.28H502.21c-5.15,9.48-6.5,10.94-6.5,11.9,0,.65.54,1,1.34,1.09v1Zm46.28-22.38L516.9,42.09,506.39,61.24Z" />
    <path
       style="fill:none"
       id="path16"
       fill="#b2ae85"
       d="M750,92.32H250V21.68H750Zm-495.5-4.5h491V26.18h-491Z" />
    <path
       style="fill:#ffffff;fill-opacity:1"
       id="path18"
       fill="#b2ae85"
       d="M570.92,30.38V83.62H741.86V30.38Zm7.25,37.37c-1.42-9.48,30.05-22.11,71.06-28.76l-2.72.7L641.37,41C620.45,46.07,605.79,55.28,607,63.44c1.25,8.37,18.73,12.89,41,11.34,1.23-.09,5.65-.3,6.57-.34C613.38,80.08,579.58,77.23,578.17,67.75Zm102.51,2c-9.09,2.06-20.49,3.81-20.49,3.81V49.87l5.86,19.32s14-2.26,24.62-6.68c9.18-3.84,14.93-8.66,14.55-13.8-.63-8.34-18.37-12.79-40.27-11.37-1.46.09-6.3.33-7.26.38,41.16-5.65,74.95-2.83,76.37,6.67C735.28,52.45,712.68,62.79,680.68,69.8Z" />
  </g>
</svg>
