<?xml version="1.0" encoding="UTF-8" standalone="no"?>
<svg
   xmlns:dc="http://purl.org/dc/elements/1.1/"
   xmlns:cc="http://creativecommons.org/ns#"
   xmlns:rdf="http://www.w3.org/1999/02/22-rdf-syntax-ns#"
   xmlns:svg="http://www.w3.org/2000/svg"
   xmlns="http://www.w3.org/2000/svg"
   xmlns:sodipodi="http://sodipodi.sourceforge.net/DTD/sodipodi-0.dtd"
   xmlns:inkscape="http://www.inkscape.org/namespaces/inkscape"
   id="Ebene_2"
   data-name="Ebene 2"
   viewBox="0 0 1000 114"
   version="1.1"
   sodipodi:docname="system.svg"
   inkscape:version="0.92.4 (5da689c313, 2019-01-14)">
  <metadata
     id="metadata25">
    <rdf:RDF>
      <cc:Work
         rdf:about="">
        <dc:format>image/svg+xml</dc:format>
        <dc:type
           rdf:resource="http://purl.org/dc/dcmitype/StillImage" />
        <dc:title>logo</dc:title>
      </cc:Work>
    </rdf:RDF>
  </metadata>
  <defs
     id="defs23" />
  <sodipodi:namedview
     pagecolor="#ffffff"
     bordercolor="#666666"
     borderopacity="1"
     objecttolerance="10"
     gridtolerance="10"
     guidetolerance="10"
     inkscape:pageopacity="0"
     inkscape:pageshadow="2"
     inkscape:window-width="1920"
     inkscape:window-height="1017"
     id="namedview21"
     showgrid="false"
     inkscape:pagecheckerboard="true"
     inkscape:zoom="2.272"
     inkscape:cx="473.39879"
     inkscape:cy="57"
     inkscape:window-x="-8"
     inkscape:window-y="-8"
     inkscape:window-maximized="1"
     inkscape:current-layer="Ebene_2" />
  <title
     id="title2">logo</title>
  <g
     id="g835">
    <path
       sodipodi:nodetypes="sssssssss"
       inkscape:connector-curvature="0"
       style="fill:none;stroke:#00fff1;stroke-width:1.88976383;stroke-miterlimit:4;stroke-dasharray:none;stroke-opacity:1"
       id="path4"
       d="M 750,14.68 H 250 c -3.86599,0 -7,3.134007 -7,7 v 70.64 c 0,3.865993 3.13401,7 7,7 h 500 c 3.86599,0 7,-3.134007 7,-7 V 21.68 c 0,-3.865993 -3.13401,-7 -7,-7 z" />
    <path
       style="fill:#ffffff;fill-opacity:1;stroke:none"
       id="path8"
       d="m 319.11972,45.559859 -1.41,-0.66 a 3.89,3.89 0 0 0 0.17,-1 c 0,-1 -8.35,-6.07 -22.83,-6.07 -13.86,0 -19.81,3.53 -19.81,8 0,12 52.33,-5.56 52.33,20.91 0,9.65 -11.38,17.1 -34.12,17.1 -21.67,0 -27.89,-5.7 -29.94,-5.7 -0.53,0 -0.79,0.37 -1.24,0.59 l -1.15,-0.17 7.38,-12.43 1.41,0.58 a 11.82,11.82 0 0 0 -0.18,1.17 c 0,4.32 11.47,7.39 22.83,7.39 16.17,0 21.68,-3.8 21.68,-7.83 0,-14.32 -51.61,3.44 -51.61,-20.83 0,-12.28 15.72,-17.4 33,-17.4 15.45,0 26.29,5.56 27.36,5.56 a 2,2 0 0 0 1.6,-0.52 l 1.41,0.37 z"
       inkscape:connector-curvature="0" />
    <path
       style="fill:#ffffff;fill-opacity:1;stroke:none"
       id="path10"
       d="m 334.41972,82.149859 c 2,0 2.31,-0.59 2.31,-2.2 v -46.78 c 0,-1.61 -0.35,-2.2 -2.31,-2.2 v -1 h 57.7 c 2.12,0 3,-0.58 3,-1.6 h 1.24 v 12.11 h -1.24 c 0,-1.32 -0.89,-1.9 -3,-1.9 h -42.8 v 13 h 27.9 c 2.12,0 3,-0.58 3,-1.9 h 1.24 v 12.29 h -1.22 a 1.31,1.31 0 0 0 -0.7,-1.31 4.42,4.42 0 0 0 -2.31,-0.45 h -27.91 v 14.35 h 43.54 c 2.12,0 3,-0.58 3,-1.75 h 1.26 v 12 h -1.24 c 0,-1 -0.89,-1.6 -3,-1.6 h -58.46 z"
       inkscape:connector-curvature="0" />
    <path
       style="fill:#ffffff;fill-opacity:1;stroke:none"
       id="path12"
       d="m 475.92972,55.099859 v 1 c -0.89,0.15 -1.69,0.71 -1.69,2.34 v 14.42 c 0,1.18 0.45,1.61 1.61,1.83 v 1 c -5.61,2.62 -19.29,8.18 -34.62,8.18 -20.43,0 -38.37,-8.33 -38.37,-27.34 0,-19.01 21,-27.34 39.44,-27.34 a 78.05,78.05 0 0 1 19.28,2.7 c 4.7,1.68 8.17,3 8.79,3 a 2.68,2.68 0 0 0 2,-0.81 l 1.24,0.44 -8.62,12 -1.24,-0.66 a 4.33,4.33 0 0 0 0.18,-1.24 c 0,-2.27 -9.6,-6.8 -21.41,-6.8 -14.93,0 -27,6.06 -27,18.42 0,12.94 12.08,19 25.76,19 11.2,0 17.77,-3.15 20.43,-4.75 v -6.03 h -15.36 c -1.77,0 -2.83,0.7 -2.83,1.75 h -1.24 v -12.86 h 1.24 c 0,1 1.07,1.75 2.83,1.75 z"
       inkscape:connector-curvature="0" />
    <path
       style="fill:#ffffff;fill-opacity:1;stroke:none"
       id="path14"
       d="m 480.36972,83.179859 v -1 c 1.6,-0.07 2.12,-0.44 3.37,-2.77 l 24.26,-44.9 a 5.16,5.16 0 0 0 1,-2.19 c 0,-0.81 -0.7,-1.17 -1.86,-1.32 v -1 h 19.37 v 1 c -1.34,0.15 -1.87,0.59 -1.87,1.1 a 4.11,4.11 0 0 0 0.79,1.89 l 25.77,45.42 c 1.24,2.26 1.6,2.77 3.46,2.77 v 1 h -17.69 v -1 c 1.16,0 1.61,-0.37 1.61,-0.71 0,-0.79 -0.8,-1.82 -6.76,-12.28 h -30.49 c -5.15,9.48 -6.5,10.94 -6.5,11.9 0,0.65 0.54,1 1.34,1.09 v 1 z m 46.28,-22.38 -10.63,-19.15 -10.51,19.15 z"
       inkscape:connector-curvature="0" />
    <path
       style="fill:#ffffff;fill-opacity:1;stroke:none"
       id="path18"
       d="m 570.03972,29.939859 v 53.24 h 170.94 v -53.24 z m 7.25,37.37 c -1.42,-9.48 30.05,-22.11 71.06,-28.76 l -2.72,0.7 -5.14,1.31 c -20.92,5.07 -35.58,14.28 -34.37,22.44 1.25,8.37 18.73,12.89 41,11.34 1.23,-0.09 5.65,-0.3 6.57,-0.34 -41.19,5.64 -74.99,2.79 -76.4,-6.69 z m 102.51,2 c -9.09,2.06 -20.49,3.81 -20.49,3.81 v -23.69 l 5.86,19.32 c 0,0 14,-2.26 24.62,-6.68 9.18,-3.84 14.93,-8.66 14.55,-13.8 -0.63,-8.34 -18.37,-12.79 -40.27,-11.37 -1.46,0.09 -6.3,0.33 -7.26,0.38 41.16,-5.65 74.95,-2.83 76.37,6.67 1.22,8.06 -21.38,18.4 -53.38,25.41 z"
       inkscape:connector-curvature="0" />
  </g>
</svg>
