<?xml version="1.0" encoding="UTF-8" standalone="no"?>
<svg
   xmlns:dc="http://purl.org/dc/elements/1.1/"
   xmlns:cc="http://creativecommons.org/ns#"
   xmlns:rdf="http://www.w3.org/1999/02/22-rdf-syntax-ns#"
   xmlns:svg="http://www.w3.org/2000/svg"
   xmlns="http://www.w3.org/2000/svg"
   xmlns:sodipodi="http://sodipodi.sourceforge.net/DTD/sodipodi-0.dtd"
   xmlns:inkscape="http://www.inkscape.org/namespaces/inkscape"
   viewBox="0 0 1000 114"
   version="1.1"
   id="svg50"
   sodipodi:docname="system.svg"
   inkscape:version="0.92.4 (5da689c313, 2019-01-14)">
  <metadata
     id="metadata56">
    <rdf:RDF>
      <cc:Work
         rdf:about="">
        <dc:format>image/svg+xml</dc:format>
        <dc:type
           rdf:resource="http://purl.org/dc/dcmitype/StillImage" />
        <dc:title>logo</dc:title>
      </cc:Work>
    </rdf:RDF>
  </metadata>
  <defs
     id="defs54" />
  <sodipodi:namedview
     pagecolor="#ffffff"
     bordercolor="#666666"
     borderopacity="1"
     objecttolerance="10"
     gridtolerance="10"
     guidetolerance="10"
     inkscape:pageopacity="0"
     inkscape:pageshadow="2"
     inkscape:window-width="1920"
     inkscape:window-height="1017"
     id="namedview52"
     showgrid="false"
     inkscape:pagecheckerboard="true"
     inkscape:zoom="1.6065466"
     inkscape:cx="500"
     inkscape:cy="57"
     inkscape:window-x="-8"
     inkscape:window-y="-8"
     inkscape:window-maximized="1"
     inkscape:current-layer="svg50" />
  <title
     id="title2">logo</title>
  <g
     id="g906">
    <path
       style="fill:#ffffff;fill-opacity:1"
       d="M 450.87,98.73 H 433 V 31.36 H 416.95 V 15.84 h 49.84 v 15.52 h -15.92 z"
       id="polygon37" />
    <path
       d="M 466.78,15.84 V 31.36 H 450.86 V 98.73 H 433 V 31.36 H 417 V 15.84 h 49.83 m 0,-7 H 417 a 7,7 0 0 0 -7,7 v 15.52 a 7,7 0 0 0 7,7 h 9 v 60.37 a 7,7 0 0 0 7,7 h 17.86 a 7,7 0 0 0 7,-7 V 38.36 h 8.92 a 7,7 0 0 0 7,-7 V 15.84 a 7,7 0 0 0 -7,-7 z"
       id="path17"
       inkscape:connector-curvature="0"
       style="fill:none;stroke:#00ffff;stroke-opacity:1;stroke-width:2.64566929;stroke-miterlimit:4;stroke-dasharray:none" />
    <path
       d="M 301.78,15.27 V 97.91 H 292 V 15.27 h 9.74 m 0,-7 H 292 a 7,7 0 0 0 -7,7 v 82.64 a 7,7 0 0 0 7,7 h 9.74 a 7,7 0 0 0 7,-7 V 15.27 a 7,7 0 0 0 -7,-7 z"
       id="path9"
       inkscape:connector-curvature="0"
       style="fill:none;stroke:#00ffff;stroke-opacity:1" />
    <path
       d="m 288.89,15.39 v 35.68 c 0,25.63 -16.61,46.49 -37.27,47 H 250 V 86.22 c 18.34,-3.38 32.41,-22.91 32.41,-46.51 V 15.39 h 6.48 m 0,-7 h -6.48 a 7,7 0 0 0 -7,7 v 24.32 c 0,19.79 -11.47,36.82 -26.68,39.63 A 7,7 0 0 0 243,86.22 v 11.86 a 7,7 0 0 0 6.95,7 h 1.85 c 12.11,-0.31 23.36,-6.26 31.68,-16.75 8,-10.08 12.41,-23.31 12.41,-37.27 V 15.39 a 7,7 0 0 0 -7,-7 z"
       id="path11"
       inkscape:connector-curvature="0"
       style="fill:none;stroke:#00ffff;stroke-opacity:1;stroke-width:2.64566929;stroke-miterlimit:4;stroke-dasharray:none" />
    <path
       d="m 311.57,15.39 v 24.32 c 0,23.6 14.06,43.13 32.4,46.51 v 11.86 h -1.62 C 321.7,97.55 305.09,76.69 305.09,51.08 V 15.39 h 6.48 m 0,-7 h -6.48 a 7,7 0 0 0 -7,7 v 35.68 c 0,14 4.4,27.19 12.4,37.27 8.32,10.49 19.58,16.44 31.68,16.75 H 344 a 7,7 0 0 0 7,-7 V 86.22 a 7,7 0 0 0 -5.73,-6.88 C 330,76.53 318.57,59.5 318.57,39.71 V 15.39 a 7,7 0 0 0 -7,-7 z"
       id="path13"
       inkscape:connector-curvature="0"
       style="fill:none;stroke:#00ffff;stroke-opacity:1;stroke-width:2.64566929;stroke-miterlimit:4;stroke-dasharray:none" />
    <path
       d="m 389.56,15.34 v 0 a 13,13 0 0 1 8.76,3.41 17,17 0 0 1 4.86,7.76 l 21.88,71.82 h -18.22 l -4.5,-15.63 h -24.56 l -4.73,15.63 h -18.24 l 22.73,-72.76 a 16.52,16.52 0 0 1 4.26,-7 11.06,11.06 0 0 1 7.76,-3.18 m -7.4,52.19 h 15.31 L 390.18,32 l -8,35.49 M 389.6,8.3 v 0 a 18,18 0 0 0 -12.66,5.18 23.6,23.6 0 0 0 -6,10 l -22.81,72.77 a 7,7 0 0 0 6.68,9.08 h 18.24 a 7,7 0 0 0 6.69,-5 L 383,89.7 h 14.09 l 3,10.57 a 7,7 0 0 0 6.73,5.06 h 18.23 a 7,7 0 0 0 6.69,-9 L 409.89,24.5 A 23.9,23.9 0 0 0 403,13.57 19.87,19.87 0 0 0 389.55,8.34 Z"
       id="path15"
       inkscape:connector-curvature="0"
       style="fill:none;stroke:#00ffff;stroke-opacity:1;stroke-width:2.64566929;stroke-miterlimit:4;stroke-dasharray:none" />
    <path
       d="m 493.89,15.34 v 0 a 12.94,12.94 0 0 1 8.75,3.41 16.93,16.93 0 0 1 4.87,7.76 l 21.87,71.82 h -18.22 l -4.5,-15.63 h -24.55 l -4.74,15.63 h -18.23 l 22.73,-72.76 a 16.5,16.5 0 0 1 4.25,-7 11.1,11.1 0 0 1 7.77,-3.18 m -7.4,52.19 H 501.8 L 494.51,32 l -8,35.49 M 493.9,8.34 v 0 a 18,18 0 0 0 -12.67,5.18 23.68,23.68 0 0 0 -6,10 l -22.77,72.73 a 7,7 0 0 0 6.68,9.08 h 18.23 a 7,7 0 0 0 6.7,-5 L 487.3,89.7 h 14.09 l 3.05,10.57 a 7,7 0 0 0 6.72,5.06 h 18.23 a 7,7 0 0 0 6.7,-9 L 514.22,24.5 A 23.9,23.9 0 0 0 507.36,13.57 19.88,19.88 0 0 0 493.9,8.34 Z"
       id="path19"
       inkscape:connector-curvature="0"
       style="fill:none;stroke:#00ffff;stroke-opacity:1;stroke-width:2.64566929;stroke-miterlimit:4;stroke-dasharray:none" />
    <path
       d="m 560.43,15.68 a 24.94,24.94 0 0 1 17.39,7.05 q 7.53,7.05 7.53,16.34 A 19.48,19.48 0 0 1 580.73,52 31.64,31.64 0 0 1 569.18,60.23 L 592,98.56 H 571.34 L 553,64.93 c -0.81,-1.56 -1.48,-3 -2,-4.23 a 8.17,8.17 0 0 1 -0.78,-2.94 q 0,-5.41 8.68,-8.87 8.68,-3.46 8.7,-8.64 a 9.86,9.86 0 0 0 -2.5,-6.24 q -2.49,-3 -5.41,-3 h -10.2 V 98.33 H 532.24 V 26.49 q 0,-3.76 3.52,-7.28 c 2.35,-2.36 4.7,-3.53 7,-3.53 h 17.62 m 0,-7 h -17.57 c -4.27,0 -8.31,1.88 -12,5.58 -3.69,3.7 -5.57,7.81 -5.57,12.23 v 71.84 a 7,7 0 0 0 7,7 h 17.25 a 7,7 0 0 0 7,-7 v -12.4 l 8.71,16 a 7,7 0 0 0 6.14,3.65 H 592 A 7,7 0 0 0 598,95 L 578.9,62.86 a 33.89,33.89 0 0 0 7.2,-6.36 26.55,26.55 0 0 0 6.25,-17.5 c 0,-8.13 -3.28,-15.31 -9.7,-21.35 a 31.85,31.85 0 0 0 -22.22,-9 z M 556.49,38 h 2.76 a 6.36,6.36 0 0 1 0.44,0.48 l 0.21,0.24 a 2.93,2.93 0 0 1 0.65,1.29 11.8,11.8 0 0 1 -4.06,2.35 V 38 Z"
       id="path21"
       inkscape:connector-curvature="0"
       style="fill:none;stroke:#00ffff;stroke-opacity:1;stroke-width:2.64566929;stroke-miterlimit:4;stroke-dasharray:none" />
    <path
       d="m 612.25,15.68 v 83 h -18 v -83 h 18 m 0,-7 h -18 a 7,7 0 0 0 -7,7 v 83 a 7,7 0 0 0 7,7 h 18 a 7,7 0 0 0 7,-7 v -83 a 7,7 0 0 0 -7,-7 z"
       id="path23"
       inkscape:connector-curvature="0"
       style="fill:none;stroke:#00ffff;stroke-opacity:1;stroke-width:2.64566929;stroke-miterlimit:4;stroke-dasharray:none" />
    <path
       d="m 665.47,15.49 a 81.18,81.18 0 0 1 11,0.75 46,46 0 0 1 11.06,3.27 v 18.66 c -4.36,-1.93 -5.58,-3.4 -8.75,-4.41 a 31.49,31.49 0 0 0 -9.53,-1.51 H 669 a 15.8,15.8 0 0 0 -7.86,2.09 q -3.58,2.08 -3.59,5.6 0,5.13 8.3,7.54 c 10.16,3 13.44,4.91 14.94,5.87 q 10,6.12 10,19.69 0,12.08 -9.59,18.58 -8.38,5.72 -21.41,5.71 v 0 A 66.15,66.15 0 0 1 647.87,96.25 96.63,96.63 0 0 1 635,92.84 V 74.19 c 4.77,1.38 5.9,2.46 8.47,3.28 q 8.63,2.41 13.48,2.42 6.41,0 9.12,-2.11 c 1.81,-1.41 2.72,-0.45 2.72,-2.55 q 0,-4 -9.71,-7.17 c -9.31,-2.74 -12.59,-4.85 -15,-6.33 -6.92,-4.25 -10.37,-13.37 -10.37,-21.91 q 0,-10.28 8.82,-17.3 8.82,-7.02 22.31,-7 h 0.61 m 0,-7 h -0.64 c -10.56,0 -19.53,2.88 -26.64,8.55 -7.5,6 -11.46,13.85 -11.46,22.78 0,12 5.25,22.67 13.71,27.87 l 0.09,0.06 a 45.08,45.08 0 0 0 6.31,3.38 l -1.37,-0.37 a 17.62,17.62 0 0 1 -1.81,-0.76 41.83,41.83 0 0 0 -6.74,-2.53 6.79,6.79 0 0 0 -1.94,-0.28 7,7 0 0 0 -7,7 v 18.62 a 7,7 0 0 0 4.74,6.62 101.26,101.26 0 0 0 13.8,3.66 h 0.06 a 72.85,72.85 0 0 0 13.18,1.2 v -7 7 c 10.07,0 18.6,-2.33 25.35,-6.92 8.27,-5.61 12.65,-14 12.65,-24.37 0,-14.41 -7.21,-21.88 -13.29,-25.62 -2.43,-1.55 -6.54,-3.71 -16.7,-6.66 a 17,17 0 0 1 -2.24,-0.81 8.74,8.74 0 0 1 3.44,-0.7 h 0.23 a 24.4,24.4 0 0 1 7.39,1.17 12.64,12.64 0 0 1 2.81,1.39 45.57,45.57 0 0 0 5.27,2.76 7,7 0 0 0 9.83,-6.4 V 19.51 A 7,7 0 0 0 690.29,13.1 52.52,52.52 0 0 0 677.54,9.33 h -0.17 a 88.72,88.72 0 0 0 -12,-0.82 z"
       id="path25"
       inkscape:connector-curvature="0"
       style="fill:none;stroke:#00ffff;stroke-opacity:1;stroke-width:2.64566929;stroke-miterlimit:4;stroke-dasharray:none" />
    <path
       d="m 750,18.17 v 19 H 733.47 V 98.32 H 708.63 V 37.14 H 692.1 v -19 H 750 m 0,-7 h -57.9 a 7,7 0 0 0 -7,7 v 19 a 7,7 0 0 0 7,7 h 9.53 v 54.18 a 7,7 0 0 0 7,7 h 24.84 a 7,7 0 0 0 7,-7 V 44.14 H 750 a 7,7 0 0 0 7,-7 v -19 a 7,7 0 0 0 -7,-7 z"
       id="path27"
       inkscape:connector-curvature="0"
       style="fill:none;stroke:#00ffff;stroke-opacity:1;stroke-width:2.64566929;stroke-miterlimit:4;stroke-dasharray:none" />
    <path
       style="fill:#ffffff;fill-opacity:1"
       d="m 292.04001,15.27 h 9.74 v 82.64 h -9.74 z"
       id="rect29" />
    <path
       d="m 250,98.08 h 1.62 c 20.66,-0.53 37.27,-21.39 37.27,-47 V 15.39 h -6.48 v 24.32 c 0,23.6 -14.07,43.13 -32.41,46.51 z"
       id="path31"
       inkscape:connector-curvature="0"
       style="fill:#ffffff;fill-opacity:1" />
    <path
       d="m 344,98.08 h -1.62 c -20.65,-0.53 -37.26,-21.39 -37.26,-47 V 15.39 h 6.48 v 24.32 c 0,23.6 14.06,43.13 32.4,46.51 z"
       id="path33"
       inkscape:connector-curvature="0"
       style="fill:#ffffff;fill-opacity:1" />
    <path
       d="M 397.47,67.53 390.18,32 l -8,35.49 z m 27.6,30.8 h -18.23 l -4.5,-15.63 h -24.56 l -4.73,15.63 h -18.24 l 22.73,-72.76 a 16.52,16.52 0 0 1 4.26,-7 11.08,11.08 0 0 1 7.77,-3.18 13,13 0 0 1 8.76,3.41 17,17 0 0 1 4.86,7.76 z"
       id="path35"
       inkscape:connector-curvature="0"
       style="fill:#ffffff;fill-opacity:1" />
    <path
       d="M 501.8,67.53 494.51,32 l -8,35.49 z m 27.59,30.8 h -18.23 l -4.5,-15.63 h -24.55 l -4.74,15.63 h -18.23 l 22.73,-72.76 a 16.5,16.5 0 0 1 4.25,-7 11.1,11.1 0 0 1 7.78,-3.18 12.94,12.94 0 0 1 8.75,3.41 16.93,16.93 0 0 1 4.87,7.76 z"
       id="path39"
       inkscape:connector-curvature="0"
       style="fill:#ffffff;fill-opacity:1" />
    <path
       d="M 592,98.56 H 571.34 L 553,64.93 c -0.81,-1.56 -1.48,-3 -2,-4.23 a 8.17,8.17 0 0 1 -0.78,-2.94 q 0,-5.41 8.68,-8.87 8.68,-3.46 8.7,-8.64 a 9.86,9.86 0 0 0 -2.5,-6.24 q -2.49,-3 -5.41,-3 h -10.2 V 98.33 H 532.24 V 26.49 q 0,-3.76 3.52,-7.28 c 2.35,-2.36 4.7,-3.53 7,-3.53 h 17.38 a 25,25 0 0 1 17.63,7.05 q 7.53,7.05 7.53,16.34 A 19.48,19.48 0 0 1 580.73,52 31.64,31.64 0 0 1 569.18,60.23 Z"
       id="path41"
       inkscape:connector-curvature="0"
       style="fill:#ffffff;fill-opacity:1" />
    <path
       style="fill:#ffffff;fill-opacity:1"
       d="m 594.27002,15.68 h 17.99 v 83.010002 h -17.99 z"
       id="rect43" />
    <path
       d="m 690.81,73 q 0,12.08 -9.59,18.58 -8.38,5.72 -21.41,5.71 a 66.78,66.78 0 0 1 -12,-1.08 A 96.63,96.63 0 0 1 635,92.84 V 74.19 c 4.77,1.38 5.9,2.46 8.47,3.28 q 8.63,2.41 13.48,2.42 6.41,0 9.12,-2.11 c 1.81,-1.41 2.72,-0.45 2.72,-2.55 q 0,-4 -9.71,-7.17 c -9.31,-2.74 -12.59,-4.85 -15,-6.33 -6.92,-4.25 -10.37,-13.37 -10.37,-21.91 q 0,-10.28 8.82,-17.3 8.82,-7.02 22.31,-7 a 80.84,80.84 0 0 1 11.63,0.75 46,46 0 0 1 11.06,3.27 v 18.63 c -4.36,-1.93 -5.58,-3.4 -8.75,-4.41 a 31.49,31.49 0 0 0 -9.53,-1.51 15.9,15.9 0 0 0 -8.11,2.09 q -3.58,2.08 -3.59,5.6 0,5.13 8.3,7.54 c 10.16,3 13.44,4.91 14.94,5.87 q 10.03,6.12 10.02,19.65 z"
       id="path45"
       inkscape:connector-curvature="0"
       style="fill:#ffffff;fill-opacity:1" />
    <path
       style="fill:#ffffff;fill-opacity:1"
       d="M 733.47,98.32 H 708.63 V 37.14 H 692.1 V 18.17 H 750 v 18.97 h -16.53 z"
       id="polygon47" />
  </g>
</svg>
