<?xml version="1.0" encoding="UTF-8" standalone="no"?>
<svg
   xmlns:dc="http://purl.org/dc/elements/1.1/"
   xmlns:cc="http://creativecommons.org/ns#"
   xmlns:rdf="http://www.w3.org/1999/02/22-rdf-syntax-ns#"
   xmlns:svg="http://www.w3.org/2000/svg"
   xmlns="http://www.w3.org/2000/svg"
   xmlns:sodipodi="http://sodipodi.sourceforge.net/DTD/sodipodi-0.dtd"
   xmlns:inkscape="http://www.inkscape.org/namespaces/inkscape"
   id="Layer_1"
   data-name="Layer 1"
   viewBox="0 0 1000 114"
   version="1.1"
   sodipodi:docname="system.svg"
   inkscape:version="0.92.4 (5da689c313, 2019-01-14)"
   inkscape:export-filename="D:\Redman\Desktop\logo-png\lynx.png"
   inkscape:export-xdpi="201.77"
   inkscape:export-ydpi="201.77">
  <metadata
     id="metadata17">
    <rdf:RDF>
      <cc:Work
         rdf:about="">
        <dc:format>image/svg+xml</dc:format>
        <dc:type
           rdf:resource="http://purl.org/dc/dcmitype/StillImage" />
        <dc:title>logo</dc:title>
      </cc:Work>
    </rdf:RDF>
  </metadata>
  <defs
     id="defs15" />
  <sodipodi:namedview
     pagecolor="#ffffff"
     bordercolor="#666666"
     borderopacity="1"
     objecttolerance="10"
     gridtolerance="10"
     guidetolerance="10"
     inkscape:pageopacity="0"
     inkscape:pageshadow="2"
     inkscape:window-width="1920"
     inkscape:window-height="1017"
     id="namedview13"
     showgrid="false"
     inkscape:pagecheckerboard="true"
     inkscape:zoom="0.8032733"
     inkscape:cx="487.71829"
     inkscape:cy="57"
     inkscape:window-x="1912"
     inkscape:window-y="-8"
     inkscape:window-maximized="1"
     inkscape:current-layer="Layer_1" />
  <title
     id="title2">logo</title>
  <g
     id="g825">
    <path
       style="fill:#ffffff;fill-opacity:1;stroke:#00ffff;stroke-opacity:1"
       id="path10"
       d="M 686.22,42.69 729,27.19 h -43 l -16.37,9 m 56.57,51.2 H 675.34 L 607.72,53.16 h 26.52 l 18.65,8.57 11.5,-4.68 M 271,26.58 h 33.67 V 67.71 H 271 Z m 0,46.18 h 86.32 V 85.34 H 271 Z m 54.71,-46.18 h 40 l 27.36,23.05 -19.77,14.53 m 2.94,2.29 V 85.34 H 407.8 V 66.45 l 61.07,-39.87 h -29.49 l -61,39.87 M 473,32.86 l 33.67,21 V 85.34 H 473 m 4.2,-58.76 86.29,58.78 h 18.94 V 26.58 H 566.05 V 67.89 L 504.61,26.58"
       inkscape:connector-curvature="0" />
    <path
       style="fill:none"
       id="path4"
       d="M 732.36,10.91 A 17.7,17.7 0 0 1 750,28.56 v 56.88 a 17.7,17.7 0 0 1 -17.64,17.65 H 267.63 A 17.69,17.69 0 0 1 250,85.44 V 28.56 a 17.69,17.69 0 0 1 17.63,-17.65 h 464.73 m 0,-7 H 267.63 A 24.76,24.76 0 0 0 243,28.54 v 56.9 a 24.76,24.76 0 0 0 24.61,24.65 H 732.36 A 24.75,24.75 0 0 0 757,85.46 V 28.56 A 24.76,24.76 0 0 0 732.38,3.91 Z"
       inkscape:connector-curvature="0" />
    <path
       style="fill:none;stroke:#00ffff;stroke-opacity:1"
       id="path6"
       d="m 750,85.44 a 17.7,17.7 0 0 1 -17.64,17.65 H 267.63 A 17.69,17.69 0 0 1 250,85.44 V 28.56 A 17.69,17.69 0 0 1 267.63,10.91 H 732.36 A 17.7,17.7 0 0 1 750,28.56 Z"
       inkscape:connector-curvature="0" />
    <path
       style="fill:#ffffff;fill-opacity:1;stroke:#00ffff;stroke-opacity:1"
       id="path8"
       d="m 631.54,71.75 -42.76,15.48 h 43 l 16.37,-9 M 591.61,27 h 50.8 L 710,61.27 h -26.48 l -18.65,-8.57 -11.5,4.68"
       inkscape:connector-curvature="0" />
  </g>
</svg>
