<?xml version="1.0" encoding="UTF-8" standalone="no"?>
<svg
   xmlns:dc="http://purl.org/dc/elements/1.1/"
   xmlns:cc="http://creativecommons.org/ns#"
   xmlns:rdf="http://www.w3.org/1999/02/22-rdf-syntax-ns#"
   xmlns:svg="http://www.w3.org/2000/svg"
   xmlns="http://www.w3.org/2000/svg"
   xmlns:sodipodi="http://sodipodi.sourceforge.net/DTD/sodipodi-0.dtd"
   xmlns:inkscape="http://www.inkscape.org/namespaces/inkscape"
   id="Layer_1"
   data-name="Layer 1"
   viewBox="0 0 1000 114"
   version="1.1"
   sodipodi:docname="logo.svg"
   inkscape:version="0.92.4 (5da689c313, 2019-01-14)">
  <metadata
     id="metadata17">
    <rdf:RDF>
      <cc:Work
         rdf:about="">
        <dc:format>image/svg+xml</dc:format>
        <dc:type
           rdf:resource="http://purl.org/dc/dcmitype/StillImage" />
        <dc:title>logo</dc:title>
      </cc:Work>
    </rdf:RDF>
  </metadata>
  <defs
     id="defs15" />
  <sodipodi:namedview
     pagecolor="#ffffff"
     bordercolor="#666666"
     borderopacity="1"
     objecttolerance="10"
     gridtolerance="10"
     guidetolerance="10"
     inkscape:pageopacity="0"
     inkscape:pageshadow="2"
     inkscape:window-width="1920"
     inkscape:window-height="1017"
     id="namedview13"
     showgrid="false"
     inkscape:pagecheckerboard="true"
     inkscape:zoom="1.6065466"
     inkscape:cx="500"
     inkscape:cy="57"
     inkscape:window-x="-8"
     inkscape:window-y="-8"
     inkscape:window-maximized="1"
     inkscape:current-layer="Layer_1" />
  <title
     id="title2">logo</title>
  <g
     id="g828">
    <path
       fill="#fc0"
       style="fill:#ffffff;fill-opacity:1;stroke:#00ffff;stroke-opacity:1"
       id="path10"
       d="M686.22,42.69,729,27.19H686l-16.37,9m56.57,51.2H675.34L607.72,53.16h26.52l18.65,8.57,11.5-4.68M271,26.58h33.67V67.71H271Zm0,46.18h86.32V85.34H271Zm54.71-46.18h40l27.36,23.05L373.3,64.16m2.94,2.29V85.34H407.8V66.45l61.07-39.87H439.38l-61,39.87M473,32.86l33.67,21V85.34H473m4.2-58.76,86.29,58.78h18.94V26.58H566.05V67.89L504.61,26.58" />
    <path
       style="fill:none"
       id="path4"
       fill="#fff"
       d="M732.36,10.91A17.7,17.7,0,0,1,750,28.56V85.44a17.7,17.7,0,0,1-17.64,17.65H267.63A17.69,17.69,0,0,1,250,85.44V28.56a17.69,17.69,0,0,1,17.63-17.65H732.36m0-7H267.63A24.76,24.76,0,0,0,243,28.54v56.9a24.76,24.76,0,0,0,24.61,24.65H732.36A24.75,24.75,0,0,0,757,85.46V28.56A24.76,24.76,0,0,0,732.38,3.91Z" />
    <path
       style="stroke:#00ffff;stroke-opacity:1;fill:none"
       id="path6"
       d="M750,85.44a17.7,17.7,0,0,1-17.64,17.65H267.63A17.69,17.69,0,0,1,250,85.44V28.56a17.69,17.69,0,0,1,17.63-17.65H732.36A17.7,17.7,0,0,1,750,28.56Z" />
    <path
       style="fill:#ffffff;fill-opacity:1;stroke:#00ffff;stroke-opacity:1"
       id="path8"
       fill="red"
       d="M631.54,71.75,588.78,87.23h43l16.37-9M591.61,27h50.8L710,61.27H683.52L664.87,52.7l-11.5,4.68" />
  </g>
</svg>
