<?xml version="1.0" encoding="UTF-8" standalone="no"?>
<svg
   xmlns:dc="http://purl.org/dc/elements/1.1/"
   xmlns:cc="http://creativecommons.org/ns#"
   xmlns:rdf="http://www.w3.org/1999/02/22-rdf-syntax-ns#"
   xmlns:svg="http://www.w3.org/2000/svg"
   xmlns="http://www.w3.org/2000/svg"
   xmlns:sodipodi="http://sodipodi.sourceforge.net/DTD/sodipodi-0.dtd"
   xmlns:inkscape="http://www.inkscape.org/namespaces/inkscape"
   width="100"
   height="20"
   viewBox="0 0 100 20"
   version="1.1"
   id="svg3739"
   sodipodi:docname="system.svg"
   inkscape:version="0.92.4 (5da689c313, 2019-01-14)">
  <metadata
     id="metadata3743">
    <rdf:RDF>
      <cc:Work
         rdf:about="">
        <dc:format>image/svg+xml</dc:format>
        <dc:type
           rdf:resource="http://purl.org/dc/dcmitype/StillImage" />
        <dc:title>system</dc:title>
      </cc:Work>
    </rdf:RDF>
  </metadata>
  <sodipodi:namedview
     pagecolor="#ffffff"
     bordercolor="#666666"
     borderopacity="1"
     objecttolerance="10"
     gridtolerance="10"
     guidetolerance="10"
     inkscape:pageopacity="0"
     inkscape:pageshadow="2"
     inkscape:window-width="1920"
     inkscape:window-height="1137"
     id="namedview3741"
     showgrid="false"
     inkscape:zoom="7.5183342"
     inkscape:cx="81.940675"
     inkscape:cy="8.1535411"
     inkscape:window-x="-8"
     inkscape:window-y="344"
     inkscape:window-maximized="1"
     inkscape:current-layer="svg3739"
     scale-x="2" />
  <!-- Generator: Sketch 45 (43475) - http://www.bohemiancoding.com/sketch -->
  <title
     id="title3729">system</title>
  <desc
     id="desc3731">Created with Sketch.</desc>
  <defs
     id="defs3733" />
  <g
     inkscape:groupmode="layer"
     id="layer1"
     inkscape:label="Layer 1"
     transform="translate(0,2)" />
  <g
     inkscape:groupmode="layer"
     id="layer2"
     inkscape:label="Layer 2"
     transform="translate(0,2)" />
  <g
     aria-label="ATARI LYNX"
     style="font-style:normal;font-variant:normal;font-weight:normal;font-stretch:normal;font-size:21.33333397px;line-height:1.25;font-family:Arial;-inkscape-font-specification:Arial;letter-spacing:0px;word-spacing:0px;fill:none;fill-opacity:1;stroke:#ffffff;stroke-width:0.5;stroke-miterlimit:4;stroke-dasharray:none;stroke-opacity:1"
     id="text4643">
    <path
       d="M 1.1051788,16.27577 5.870153,3.8682176 H 7.6390332 L 12.717158,16.27577 H 10.846716 L 9.39945,12.517958 H 4.2112987 L 2.8486685,16.27577 Z M 4.6852571,11.180718 H 8.8916375 L 7.5967155,7.7445199 Q 7.0042676,6.1787646 6.7165072,5.1716031 6.479528,6.3649625 6.0478873,7.5413949 Z"
       style="font-size:17.33333397px;fill:none;fill-opacity:1;stroke:#ffffff;stroke-width:0.5;stroke-miterlimit:4;stroke-dasharray:none;stroke-opacity:1"
       id="path5186"
       inkscape:connector-curvature="0" />
    <path
       d="M 15.916377,16.27577 V 5.3324104 H 11.828486 V 3.8682176 h 9.834636 V 5.3324104 H 17.558304 V 16.27577 Z"
       style="font-size:17.33333397px;fill:none;fill-opacity:1;stroke:#ffffff;stroke-width:0.5;stroke-miterlimit:4;stroke-dasharray:none;stroke-opacity:1"
       id="path5188"
       inkscape:connector-curvature="0" />
    <path
       d="M 20.706741,16.27577 25.471715,3.8682176 h 1.768881 L 32.318721,16.27577 h -1.870443 l -1.447266,-3.757812 h -5.188151 l -1.36263,3.757812 z M 24.28682,11.180718 H 28.4932 L 27.198278,7.7445199 Q 26.60583,6.1787646 26.31807,5.1716031 26.08109,6.3649625 25.64945,7.5413949 Z"
       style="font-size:17.33333397px;fill:none;fill-opacity:1;stroke:#ffffff;stroke-width:0.5;stroke-miterlimit:4;stroke-dasharray:none;stroke-opacity:1"
       id="path5190"
       inkscape:connector-curvature="0" />
    <path
       d="M 33.672887,16.27577 V 3.8682176 h 5.501303 q 1.658854,0 2.522135,0.3385417 0.863281,0.3300782 1.379557,1.1764324 0.516276,0.8463542 0.516276,1.8704427 0,1.3203126 -0.854817,2.2259116 -0.854818,0.905599 -2.640625,1.151042 0.651692,0.313151 0.990234,0.617838 0.719401,0.660157 1.36263,1.650391 l 2.158203,3.376953 h -2.065104 l -1.641927,-2.58138 q -0.719401,-1.117188 -1.184896,-1.709636 -0.465495,-0.592448 -0.83789,-0.829427 -0.363933,-0.236979 -0.744792,-0.330078 -0.279297,-0.05924 -0.914063,-0.05924 h -1.904297 v 5.509766 z m 1.641927,-6.9316407 h 3.529297 q 1.125651,0 1.760417,-0.2285156 0.634766,-0.2369792 0.964844,-0.7447917 0.330078,-0.5162761 0.330078,-1.1171876 0,-0.8802083 -0.643229,-1.4472656 -0.634766,-0.5670574 -2.014323,-0.5670574 h -3.927084 z"
       style="font-size:17.33333397px;fill:none;fill-opacity:1;stroke:#ffffff;stroke-width:0.5;stroke-miterlimit:4;stroke-dasharray:none;stroke-opacity:1"
       id="path5192"
       inkscape:connector-curvature="0" />
    <path
       d="M 46.452836,16.27577 V 3.8682176 h 1.641928 V 16.27577 Z"
       style="font-size:17.33333397px;fill:none;fill-opacity:1;stroke:#ffffff;stroke-width:0.5;stroke-miterlimit:4;stroke-dasharray:none;stroke-opacity:1"
       id="path5194"
       inkscape:connector-curvature="0" />
    <path
       d="M 55.720413,16.27577 V 3.8682176 H 57.36234 V 14.811577 h 6.110678 v 1.464193 z"
       style="font-size:17.33333397px;fill:none;fill-opacity:1;stroke:#ffffff;stroke-width:0.5;stroke-miterlimit:4;stroke-dasharray:none;stroke-opacity:1"
       id="path5196"
       inkscape:connector-curvature="0" />
    <path
       d="M 67.645545,16.27577 V 11.019911 L 62.863644,3.8682176 h 1.997396 l 2.445963,3.7408856 q 0.677084,1.0494792 1.261068,2.0989584 0.558594,-0.9733073 1.354167,-2.1920574 l 2.403646,-3.6477866 h 1.91276 l -4.951172,7.1516934 v 5.255859 z"
       style="font-size:17.33333397px;fill:none;fill-opacity:1;stroke:#ffffff;stroke-width:0.5;stroke-miterlimit:4;stroke-dasharray:none;stroke-opacity:1"
       id="path5198"
       inkscape:connector-curvature="0" />
    <path
       d="M 75.711304,16.27577 V 3.8682176 h 1.684245 l 6.516927,9.7415364 V 3.8682176 h 1.574219 V 16.27577 H 83.80245 L 77.285523,6.5257698 V 16.27577 Z"
       style="font-size:17.33333397px;fill:none;fill-opacity:1;stroke:#ffffff;stroke-width:0.5;stroke-miterlimit:4;stroke-dasharray:none;stroke-opacity:1"
       id="path5200"
       inkscape:connector-curvature="0" />
    <path
       d="M 86.993202,16.27577 91.792031,9.8096241 87.56026,3.8682176 h 1.955078 l 2.251302,3.1822918 q 0.702474,0.9902344 0.998698,1.5234376 0.414713,-0.6770834 0.981771,-1.4134115 l 2.496745,-3.2923179 h 1.785807 l -4.358724,5.8483076 4.697266,6.5592448 h -2.03125 l -3.123047,-4.426432 q -0.26237,-0.38086 -0.541667,-0.829427 -0.414714,0.677083 -0.592448,0.930989 l -3.114584,4.32487 z"
       style="font-size:17.33333397px;fill:none;fill-opacity:1;stroke:#ffffff;stroke-width:0.5;stroke-miterlimit:4;stroke-dasharray:none;stroke-opacity:1"
       id="path5202"
       inkscape:connector-curvature="0" />
  </g>
</svg>
