<?xml version="1.0" encoding="UTF-8" standalone="no"?>
<svg
   xmlns:dc="http://purl.org/dc/elements/1.1/"
   xmlns:cc="http://creativecommons.org/ns#"
   xmlns:rdf="http://www.w3.org/1999/02/22-rdf-syntax-ns#"
   xmlns:svg="http://www.w3.org/2000/svg"
   xmlns="http://www.w3.org/2000/svg"
   xmlns:sodipodi="http://sodipodi.sourceforge.net/DTD/sodipodi-0.dtd"
   xmlns:inkscape="http://www.inkscape.org/namespaces/inkscape"
   width="80"
   height="20"
   viewBox="0 0 80 20"
   version="1.1"
   id="svg3739"
   sodipodi:docname="system.svg"
   inkscape:version="0.92.4 (5da689c313, 2019-01-14)">
  <metadata
     id="metadata3743">
    <rdf:RDF>
      <cc:Work
         rdf:about="">
        <dc:format>image/svg+xml</dc:format>
        <dc:type
           rdf:resource="http://purl.org/dc/dcmitype/StillImage" />
        <dc:title>system</dc:title>
      </cc:Work>
    </rdf:RDF>
  </metadata>
  <sodipodi:namedview
     pagecolor="#ffffff"
     bordercolor="#666666"
     borderopacity="1"
     objecttolerance="10"
     gridtolerance="10"
     guidetolerance="10"
     inkscape:pageopacity="0"
     inkscape:pageshadow="2"
     inkscape:window-width="1920"
     inkscape:window-height="1137"
     id="namedview3741"
     showgrid="false"
     inkscape:zoom="7.5183342"
     inkscape:cx="93.441956"
     inkscape:cy="8.1535411"
     inkscape:window-x="-8"
     inkscape:window-y="344"
     inkscape:window-maximized="1"
     inkscape:current-layer="svg3739"
     scale-x="2" />
  <!-- Generator: Sketch 45 (43475) - http://www.bohemiancoding.com/sketch -->
  <title
     id="title3729">system</title>
  <desc
     id="desc3731">Created with Sketch.</desc>
  <defs
     id="defs3733" />
  <g
     inkscape:groupmode="layer"
     id="layer1"
     inkscape:label="Layer 1"
     transform="translate(0,2)" />
  <g
     inkscape:groupmode="layer"
     id="layer2"
     inkscape:label="Layer 2"
     transform="translate(0,2)" />
  <g
     aria-label="GENESIS"
     style="font-style:normal;font-variant:normal;font-weight:normal;font-stretch:normal;font-size:21.33333397px;line-height:1.25;font-family:Arial;-inkscape-font-specification:Arial;letter-spacing:0px;word-spacing:0px;fill:none;fill-opacity:1;stroke:#ffffff;stroke-width:0.5;stroke-miterlimit:4;stroke-dasharray:none;stroke-opacity:1"
     id="text4643">
    <path
       d="M 8.2737989,11.409234 V 9.9535043 l 5.2558591,-0.00846 v 4.6041677 q -1.210286,0.964843 -2.496744,1.455729 -1.2864588,0.482422 -2.6406255,0.482422 -1.8281251,0 -3.326172,-0.778646 -1.4895834,-0.78711 -2.2513022,-2.268229 -0.7617188,-1.48112 -0.7617188,-3.309245 0,-1.8111988 0.7532553,-3.376954 0.7617187,-1.5742188 2.1835938,-2.3359376 1.4218751,-0.7617188 3.2753907,-0.7617188 1.3457032,0 2.4290367,0.4401042 1.091797,0.4316406 1.709635,1.2102865 0.617839,0.7786458 0.939454,2.0312501 l -1.48112,0.40625 Q 11.583044,6.7966032 11.16833,6.2549365 10.753617,5.7132698 9.9834344,5.3916552 9.213252,5.0615771 8.2737989,5.0615771 q -1.1256511,0 -1.9466147,0.3470052 Q 5.5062207,5.747124 4.9984081,6.3057177 4.4990592,6.8643115 4.2197623,7.5329313 3.7458039,8.683973 3.7458039,10.029676 q 0,1.658854 0.5670573,2.776042 0.5755209,1.117188 1.6673178,1.658854 1.0917969,0.541667 2.3190105,0.541667 1.0664063,0 2.0820315,-0.40625 1.015625,-0.414714 1.540364,-0.880208 v -2.310547 z"
       style="font-size:17.33333397px;fill:none;fill-opacity:1;stroke:#ffffff;stroke-width:0.5;stroke-miterlimit:4;stroke-dasharray:none;stroke-opacity:1"
       id="path5291"
       inkscape:connector-curvature="0" />
    <path
       d="M 15.975622,16.27577 V 3.8682176 h 8.971355 v 1.4641928 h -7.329428 v 3.8001304 h 6.863933 V 10.58827 h -6.863933 v 4.223307 h 7.617188 v 1.464193 z"
       style="font-size:17.33333397px;fill:none;fill-opacity:1;stroke:#ffffff;stroke-width:0.5;stroke-miterlimit:4;stroke-dasharray:none;stroke-opacity:1"
       id="path5293"
       inkscape:connector-curvature="0" />
    <path
       d="M 27.502966,16.27577 V 3.8682176 h 1.684245 l 6.516927,9.7415364 V 3.8682176 h 1.574219 V 16.27577 H 35.594112 L 29.077185,6.5257698 V 16.27577 Z"
       style="font-size:17.33333397px;fill:none;fill-opacity:1;stroke:#ffffff;stroke-width:0.5;stroke-miterlimit:4;stroke-dasharray:none;stroke-opacity:1"
       id="path5295"
       inkscape:connector-curvature="0" />
    <path
       d="M 40.079788,16.27577 V 3.8682176 h 8.971355 v 1.4641928 h -7.329428 v 3.8001304 h 6.863933 V 10.58827 h -6.863933 v 4.223307 h 7.617188 v 1.464193 z"
       style="font-size:17.33333397px;fill:none;fill-opacity:1;stroke:#ffffff;stroke-width:0.5;stroke-miterlimit:4;stroke-dasharray:none;stroke-opacity:1"
       id="path5297"
       inkscape:connector-curvature="0" />
    <path
       d="m 51.065465,12.289442 1.548829,-0.135417 q 0.110026,0.93099 0.507812,1.531901 0.40625,0.592448 1.252604,0.964844 0.846354,0.363932 1.904297,0.363932 0.939453,0 1.658854,-0.279296 0.719401,-0.279297 1.066407,-0.761719 0.355468,-0.490886 0.355468,-1.066407 0,-0.583984 -0.338541,-1.015625 -0.338542,-0.440104 -1.117188,-0.736328 -0.499349,-0.194661 -2.208984,-0.600911 -1.709636,-0.414714 -2.395183,-0.7786461 -0.888672,-0.4654948 -1.328776,-1.1510417 -0.43164,-0.6940104 -0.43164,-1.5488281 0,-0.9394532 0.533203,-1.7519532 0.533203,-0.8209636 1.557292,-1.2441407 1.024088,-0.4231771 2.276692,-0.4231771 1.379558,0 2.429037,0.4485677 1.057943,0.4401042 1.625,1.3033855 0.567057,0.8632813 0.609375,1.9550782 L 58.995804,7.4821501 Q 58.868851,6.3057177 58.132523,5.7048063 57.404658,5.1038948 55.97432,5.1038948 q -1.489584,0 -2.175131,0.5501302 -0.677083,0.5416667 -0.677083,1.311849 0,0.6686198 0.482422,1.1002605 0.473958,0.4316406 2.471354,0.8886719 2.00586,0.4485677 2.750651,0.7871094 1.083334,0.4993492 1.59961,1.2695312 0.516276,0.761719 0.516276,1.760417 0,0.990234 -0.567058,1.870443 -0.567057,0.871744 -1.633463,1.36263 -1.057943,0.482422 -2.386719,0.482422 -1.684245,0 -2.826823,-0.490886 -1.134115,-0.490885 -1.785807,-1.472656 -0.64323,-0.990234 -0.677084,-2.234375 z"
       style="font-size:17.33333397px;fill:none;fill-opacity:1;stroke:#ffffff;stroke-width:0.5;stroke-miterlimit:4;stroke-dasharray:none;stroke-opacity:1"
       id="path5299"
       inkscape:connector-curvature="0" />
    <path
       d="M 63.481481,16.27577 V 3.8682176 h 1.641927 V 16.27577 Z"
       style="font-size:17.33333397px;fill:none;fill-opacity:1;stroke:#ffffff;stroke-width:0.5;stroke-miterlimit:4;stroke-dasharray:none;stroke-opacity:1"
       id="path5301"
       inkscape:connector-curvature="0" />
    <path
       d="m 67.450887,12.289442 1.548828,-0.135417 q 0.110026,0.93099 0.507813,1.531901 0.40625,0.592448 1.252604,0.964844 0.846354,0.363932 1.904297,0.363932 0.939453,0 1.658854,-0.279296 0.719401,-0.279297 1.066406,-0.761719 0.355469,-0.490886 0.355469,-1.066407 0,-0.583984 -0.338541,-1.015625 Q 75.068075,11.451551 74.289429,11.155327 73.79008,10.960666 72.080445,10.554416 70.370809,10.139702 69.685262,9.7757699 68.79659,9.3102751 68.356486,8.6247282 67.924845,7.9307178 67.924845,7.0759001 q 0,-0.9394532 0.533204,-1.7519532 0.533203,-0.8209636 1.557291,-1.2441407 1.024089,-0.4231771 2.276693,-0.4231771 1.379557,0 2.429037,0.4485677 1.057942,0.4401042 1.625,1.3033855 0.567057,0.8632813 0.609375,1.9550782 L 75.381226,7.4821501 Q 75.254273,6.3057177 74.517945,5.7048063 73.79008,5.1038948 72.359741,5.1038948 q -1.489583,0 -2.17513,0.5501302 -0.677083,0.5416667 -0.677083,1.311849 0,0.6686198 0.482422,1.1002605 0.473958,0.4316406 2.471354,0.8886719 2.005859,0.4485677 2.750651,0.7871094 1.083333,0.4993492 1.599609,1.2695312 0.516277,0.761719 0.516277,1.760417 0,0.990234 -0.567058,1.870443 -0.567057,0.871744 -1.633463,1.36263 -1.057943,0.482422 -2.386719,0.482422 -1.684245,0 -2.826823,-0.490886 -1.134115,-0.490885 -1.785808,-1.472656 -0.643229,-0.990234 -0.677083,-2.234375 z"
       style="font-size:17.33333397px;fill:none;fill-opacity:1;stroke:#ffffff;stroke-width:0.5;stroke-miterlimit:4;stroke-dasharray:none;stroke-opacity:1"
       id="path5303"
       inkscape:connector-curvature="0" />
  </g>
</svg>
