<?xml version="1.0" encoding="UTF-8" standalone="no"?>
<svg
   xmlns:dc="http://purl.org/dc/elements/1.1/"
   xmlns:cc="http://creativecommons.org/ns#"
   xmlns:rdf="http://www.w3.org/1999/02/22-rdf-syntax-ns#"
   xmlns:svg="http://www.w3.org/2000/svg"
   xmlns="http://www.w3.org/2000/svg"
   xmlns:xlink="http://www.w3.org/1999/xlink"
   xmlns:sodipodi="http://sodipodi.sourceforge.net/DTD/sodipodi-0.dtd"
   xmlns:inkscape="http://www.inkscape.org/namespaces/inkscape"
   id="Layer_1"
   data-name="Layer 1"
   viewBox="0 0 1000 114"
   version="1.1"
   sodipodi:docname="logo.svg"
   inkscape:version="0.92.4 (5da689c313, 2019-01-14)">
  <metadata
     id="metadata147">
    <rdf:RDF>
      <cc:Work
         rdf:about="">
        <dc:format>image/svg+xml</dc:format>
        <dc:type
           rdf:resource="http://purl.org/dc/dcmitype/StillImage" />
        <dc:title>logo</dc:title>
      </cc:Work>
    </rdf:RDF>
  </metadata>
  <sodipodi:namedview
     pagecolor="#ffffff"
     bordercolor="#666666"
     borderopacity="1"
     objecttolerance="10"
     gridtolerance="10"
     guidetolerance="10"
     inkscape:pageopacity="0"
     inkscape:pageshadow="2"
     inkscape:window-width="1920"
     inkscape:window-height="1017"
     id="namedview145"
     showgrid="false"
     inkscape:pagecheckerboard="true"
     inkscape:snap-global="false"
     inkscape:zoom="2.272"
     inkscape:cx="500"
     inkscape:cy="57"
     inkscape:window-x="-8"
     inkscape:window-y="-8"
     inkscape:window-maximized="1"
     inkscape:current-layer="Layer_1" />
  <defs
     id="defs43">
    <linearGradient
       id="linear-gradient"
       x1="524.72338"
       y1="-123"
       x2="524.72338"
       y2="-222"
       gradientTransform="matrix(1, 0, 0, -1, -24.5, -115.5)"
       gradientUnits="userSpaceOnUse">
      <stop
         offset="0"
         stop-color="#d9dde9"
         id="stop2" />
      <stop
         offset="0.39"
         stop-color="#777489"
         id="stop4" />
      <stop
         offset="0.98"
         stop-color="#d9dde9"
         id="stop6" />
    </linearGradient>
    <linearGradient
       id="linear-gradient-2"
       x1="552.05019"
       y1="-87.69835"
       x2="552.05019"
       y2="-378.05535"
       xlink:href="#linear-gradient" />
    <linearGradient
       id="linear-gradient-3"
       x1="446.03823"
       y1="-157.0379"
       x2="494.83408"
       y2="-205.83374"
       gradientTransform="matrix(1, 0, 0, -1, -24.5, -115.5)"
       gradientUnits="userSpaceOnUse">
      <stop
         offset="0"
         id="stop10" />
      <stop
         offset="0.11"
         stop-color="#181c4e"
         id="stop12" />
      <stop
         offset="0.22"
         stop-color="#181818"
         id="stop14" />
      <stop
         offset="0.34"
         stop-color="#181c4e"
         id="stop16" />
      <stop
         offset="0.47"
         id="stop18" />
      <stop
         offset="0.59"
         stop-color="#181c4e"
         id="stop20" />
      <stop
         offset="0.72"
         id="stop22" />
      <stop
         offset="0.84"
         stop-color="#181c4e"
         id="stop24" />
      <stop
         offset="0.98"
         id="stop26" />
    </linearGradient>
    <linearGradient
       id="linear-gradient-4"
       x1="643.12764"
       y1="-167.66515"
       x2="694.55352"
       y2="-222.37068"
       xlink:href="#linear-gradient-3" />
    <linearGradient
       id="linear-gradient-5"
       x1="514.55101"
       y1="-157.21744"
       x2="563.91572"
       y2="-206.58215"
       xlink:href="#linear-gradient-3" />
    <linearGradient
       id="linear-gradient-6"
       x1="373.21798"
       y1="-157.21772"
       x2="422.58255"
       y2="-206.5823"
       xlink:href="#linear-gradient-3" />
    <linearGradient
       id="linear-gradient-7"
       x1="308.19186"
       y1="-161.52485"
       x2="356.80852"
       y2="-210.14153"
       xlink:href="#linear-gradient-3" />
    <linearGradient
       id="linear-gradient-8"
       x1="580.51809"
       y1="-156.85149"
       x2="630.02358"
       y2="-206.357"
       xlink:href="#linear-gradient-3" />
    <linearGradient
       id="linear-gradient-9"
       x1="682.51845"
       y1="-156.85187"
       x2="732.02396"
       y2="-206.35738"
       xlink:href="#linear-gradient-3" />
    <linearGradient
       id="linear-gradient-10"
       x1="524.72334"
       y1="-126.5"
       x2="524.72334"
       y2="-218.5"
       xlink:href="#linear-gradient" />
    <linearGradient
       id="linear-gradient-11"
       x1="448.48439"
       y1="-159.4844"
       x2="493.2288"
       y2="-204.2288"
       xlink:href="#linear-gradient-3" />
    <linearGradient
       id="linear-gradient-12"
       x1="645.51308"
       y1="-170.20271"
       x2="690.01129"
       y2="-217.53876"
       xlink:href="#linear-gradient-3" />
    <linearGradient
       id="linear-gradient-13"
       x1="517.64259"
       y1="-160.30927"
       x2="561.91107"
       y2="-204.57774"
       xlink:href="#linear-gradient-3" />
    <linearGradient
       id="linear-gradient-14"
       x1="376.3096"
       y1="-160.30959"
       x2="420.57806"
       y2="-204.57807"
       xlink:href="#linear-gradient-3" />
    <linearGradient
       id="linear-gradient-15"
       x1="310.66667"
       y1="-164"
       x2="354.33333"
       y2="-207.66667"
       xlink:href="#linear-gradient-3" />
    <linearGradient
       id="linear-gradient-16"
       x1="583.47284"
       y1="-159.80617"
       x2="628.07255"
       y2="-204.4059"
       xlink:href="#linear-gradient-3" />
    <linearGradient
       id="linear-gradient-17"
       x1="685.47317"
       y1="-159.80651"
       x2="730.0729"
       y2="-204.40624"
       xlink:href="#linear-gradient-3" />
  </defs>
  <title
     id="title45">logo</title>
  <g
     id="g978">
    <path
       sodipodi:nodetypes="ccccccccccccccccccccccc"
       inkscape:connector-curvature="0"
       style="fill:none;stroke:#00ffff;stroke-width:1.88976383;stroke-miterlimit:4;stroke-dasharray:none;stroke-opacity:1"
       id="path51"
       d="M 540.54697,-1.7626986e-6 H 461.88029 C 459.38699,-2.1762699e-5 457.08189,1.3261882 455.82874,3.4816882 L 441.18629,28.66669 H 284.54697 c -1.20216,7e-6 -2.38407,0.309617 -3.43184,0.899 l -32,18 c -2.20415,1.239802 -3.56818,3.572092 -3.56815,6.101 V 89 c -3e-5,2.528908 1.364,4.861198 3.56815,6.101 l 32,18 c 1.04777,0.58938 2.22968,0.89899 3.43184,0.899 H 717.2136 c 1.20216,0 2.38406,-0.30961 3.43182,-0.899 l 32,-18 c 2.20416,-1.239793 3.56821,-3.572085 3.56818,-6.101 V 53.66669 c 3e-5,-2.528915 -1.36402,-4.861207 -3.56818,-6.101 l -32,-18 c -1.04776,-0.589388 -2.22966,-0.898998 -3.43182,-0.899 H 561.24091 L 546.59852,3.4816882 C 545.34535,1.3262082 543.04026,8.2373014e-6 540.54697,-1.7626986e-6 Z" />
    <path
       style="fill:none;fill-opacity:1"
       id="path53"
       fill="#c2c4d2"
       d="M283.88671,106.5a3.50465,3.50465,0,0,1-1.7124-.44727l-28.22021-15.833a3.5017,3.5017,0,0,1-1.7876-3.05274V55.5a3.49977,3.49977,0,0,1,1.7876-3.05225l28.22021-15.83349a3.49983,3.49983,0,0,1,1.7124-.44776H444.7666L460.42089,9.24072A3.50022,3.50022,0,0,1,463.44677,7.5H537a3.49823,3.49823,0,0,1,3.02539,1.74072L555.68066,36.1665H716.55957a3.503,3.503,0,0,1,1.71289.44776l28.2207,15.83349A3.50031,3.50031,0,0,1,748.28027,55.5V87.167a3.50224,3.50224,0,0,1-1.78711,3.05274l-28.2207,15.833a3.50786,3.50786,0,0,1-1.71289.44727ZM702.68554,90.833,715.5,83.0332V69.833H673a3.50048,3.50048,0,0,1-3.5-3.5V57.6665a3.50017,3.50017,0,0,1,3.5-3.5h30.35156l3.833-2.333H672.64843L659.833,59.63379V72.167h41.834a3.50049,3.50049,0,0,1,3.5,3.5V85a3.50048,3.50048,0,0,1-3.5,3.5H672.64843l-3.833,2.333Zm-61.85254,0V51.1665h-9V90.833Zm-40.14746,0L613.5,83.0332V69.833H571a3.50048,3.50048,0,0,1-3.5-3.5V57.6665a3.50017,3.50017,0,0,1,3.5-3.5h30.35156l3.833-2.333H570.64843L557.833,59.63379V72.167h41.834a3.50049,3.50049,0,0,1,3.5,3.5V85a3.50048,3.50048,0,0,1-3.5,3.5H570.64843l-3.833,2.333Zm-67.334,0,3.833-2.333H506.333a3.50049,3.50049,0,0,1-3.5-3.5V75.667a3.5005,3.5005,0,0,1,3.5-3.5h15.68555l3.834-2.334H506.333a3.50049,3.50049,0,0,1-3.5-3.5V57a3.50017,3.50017,0,0,1,3.5-3.5h25.68555l3.833-2.3335h-28.459l-13.55908,9.03955V90.833Zm-54.51807,0V51.1665h-9V64.42676a3.50023,3.50023,0,0,1-5.207,3.05566L435.42236,51.1665H423.1665V90.833h9V59.9541a3.49993,3.49993,0,0,1,5.20752-3.05517l30.667,17.13916a3.50143,3.50143,0,0,1,1.79248,3.05566V90.833Zm-86.81494,0,3.833-2.333H365a3.50017,3.50017,0,0,1-3.5-3.5V75.667a3.50017,3.50017,0,0,1,3.5-3.5h15.685l3.834-2.334H365a3.50017,3.50017,0,0,1-3.5-3.5V57a3.49985,3.49985,0,0,1,3.5-3.5h25.685l3.8335-2.3335h-28.459L352.5,60.20605V90.833Zm-70.74463,0L334.83349,81.794V67.833h-14.852l-3.834,2.334h6.186a3.50017,3.50017,0,0,1,3.5,3.5V85a3.50017,3.50017,0,0,1-3.5,3.5h-30a3.50017,3.50017,0,0,1-3.5-3.5V57a3.49986,3.49986,0,0,1,3.5-3.5h32.35156l3.8335-2.3335H293.39306l-13.55957,9.03955V90.833ZM527.51171,27.69385q.11427.041.22266.09033l-.125-.377Z" />
    <path
       style="fill:none;stroke:#00ffff;stroke-opacity:1;stroke-width:1.88976378;stroke-miterlimit:4;stroke-dasharray:none"
       id="path105"
       fill="url(#linear-gradient-3)"
       d="M466.33349,97.833a3.50017,3.50017,0,0,1-3.5-3.5V79.14746l-23.667-13.22754V94.333a3.50017,3.50017,0,0,1-3.5,3.5h-16a3.50017,3.50017,0,0,1-3.5-3.5V47.6665a3.49986,3.49986,0,0,1,3.5-3.5h16.667a3.49879,3.49879,0,0,1,1.707.44434l24.793,13.85107V47.6665a3.49987,3.49987,0,0,1,3.5-3.5h16a3.49986,3.49986,0,0,1,3.5,3.5V94.333a3.50017,3.50017,0,0,1-3.5,3.5Z" />
    <path
       style="fill:none;stroke:#00ffff;stroke-width:1.88976383;stroke-miterlimit:4;stroke-dasharray:none;stroke-opacity:1"
       d="m 628.33301,44.1665 h 16 c 1.939,0 3.5,1.561 3.5,3.5 V 94.333 c 0,1.939 -1.561,3.5 -3.5,3.5 h -16 c -1.939,0 -3.5,-1.561 -3.5,-3.5 V 47.6665 c 0,-1.939 1.561,-3.5 3.5,-3.5 z"
       id="rect109" />
    <path
       style="fill:none;stroke:#00ffff;stroke-opacity:1;stroke-width:1.88976378;stroke-miterlimit:4;stroke-dasharray:none"
       id="path113"
       fill="url(#linear-gradient-5)"
       d="M490.33349,97.833a3.50017,3.50017,0,0,1-3.5-3.5v-36a3.49956,3.49956,0,0,1,1.5586-2.91211L504.3916,44.75439a3.49944,3.49944,0,0,1,1.9414-.58789h42a3.50019,3.50019,0,0,1,1.82032,6.48975l-15.333,9.333A3.50232,3.50232,0,0,1,533,60.5H509.833v2.333h28.5a3.49986,3.49986,0,0,1,1.82032,6.48926l-15.333,9.334A3.50232,3.50232,0,0,1,523,79.167H509.833V81.5h39.834a3.50007,3.50007,0,0,1,1.81933,6.49023l-15.334,9.333a3.50447,3.50447,0,0,1-1.81934.50977Z" />
    <path
       style="fill:none;stroke:#00ffff;stroke-opacity:1;stroke-width:1.88976378;stroke-miterlimit:4;stroke-dasharray:none"
       id="path117"
       fill="url(#linear-gradient-6)"
       d="M349,97.833a3.50017,3.50017,0,0,1-3.5-3.5v-36a3.49958,3.49958,0,0,1,1.55859-2.91211l16-10.66651A3.49948,3.49948,0,0,1,365,44.1665h42a3.5,3.5,0,0,1,1.81982,6.48975l-15.3335,9.333A3.498,3.498,0,0,1,391.6665,60.5H368.5v2.333H397a3.49968,3.49968,0,0,1,1.81982,6.48926l-15.3335,9.334a3.498,3.498,0,0,1-1.81982.51074H368.5V81.5h39.83349a3.49968,3.49968,0,0,1,1.81983,6.48926l-15.3335,9.333A3.498,3.498,0,0,1,393,97.833Z" />
    <path
       style="fill:none;fill-opacity:1;stroke:#00ffff;stroke-opacity:1;stroke-width:1.88976378;stroke-miterlimit:4;stroke-dasharray:none"
       id="path121"
       fill="url(#linear-gradient-7)"
       d="M276.33349,97.833a3.50017,3.50017,0,0,1-3.5-3.5v-36a3.49956,3.49956,0,0,1,1.5586-2.91211l16-10.66651a3.49942,3.49942,0,0,1,1.9414-.58789H341a3.5,3.5,0,0,1,1.81982,6.48975l-15.3335,9.333A3.498,3.498,0,0,1,325.6665,60.5h-29.833v21h23V77.167h-15.167a3.49968,3.49968,0,0,1-1.81982-6.48926l15.33349-9.334A3.49807,3.49807,0,0,1,319,60.833h19.33349a3.50017,3.50017,0,0,1,3.5,3.5V83.667a3.50087,3.50087,0,0,1-1.55859,2.91211l-16,10.666a3.49674,3.49674,0,0,1-1.94141.58789Z" />
    <path
       style="fill:none;stroke:#00ffff;stroke-opacity:1;stroke-width:1.88976378;stroke-miterlimit:4;stroke-dasharray:none"
       id="path125"
       fill="url(#linear-gradient-8)"
       d="M554.333,97.833a3.50008,3.50008,0,0,1-1.81933-6.49024l15.334-9.333A3.50449,3.50449,0,0,1,569.667,81.5h26.5V79.167H554.333a3.50049,3.50049,0,0,1-3.5-3.5V57.6665a3.4992,3.4992,0,0,1,1.68067-2.98974l15.334-9.333a3.49588,3.49588,0,0,1,1.81934-.51025h48a3.49983,3.49983,0,0,1,1.81933,6.48974l-15.334,9.333a3.49633,3.49633,0,0,1-1.81934.51074H574.5v1.666H617a3.50049,3.50049,0,0,1,3.5,3.5V85a3.4978,3.4978,0,0,1-1.68067,2.98926l-15.333,9.333a3.49632,3.49632,0,0,1-1.81933.51074Z" />
    <path
       style="fill:none;stroke:#00ffff;stroke-opacity:1;stroke-width:1.88976378;stroke-miterlimit:4;stroke-dasharray:none"
       fill="url(#linear-gradient-9)"
       id="path129"
       d="M656.333,97.833a3.50008,3.50008,0,0,1-1.81933-6.49024l15.334-9.333A3.50449,3.50449,0,0,1,671.667,81.5h26.5V79.167H656.333a3.50049,3.50049,0,0,1-3.5-3.5V57.6665a3.4992,3.4992,0,0,1,1.68067-2.98974l15.334-9.333a3.49588,3.49588,0,0,1,1.81934-.51025h48a3.49983,3.49983,0,0,1,1.81933,6.48974l-15.334,9.333a3.49633,3.49633,0,0,1-1.81934.51074H676.5v1.666H719a3.50049,3.50049,0,0,1,3.5,3.5V85a3.4978,3.4978,0,0,1-1.68067,2.98926l-15.333,9.333a3.49632,3.49632,0,0,1-1.81933.51074Z" />
    <path
       id="path5"
       d="M 251.66666,53.66667 V 89 l 32,18 h 432.66667 l 32,-18 V 53.66667 l -32,-18 h -160 L 539.66666,7 H 461 L 444.33333,35.66667 H 283.66666 Z m 168,-6 h 16.66667 l 30,16.76 v -16.76 h 16 v 46.66666 h -16 v -17.24 L 435.66666,59.954 v 34.37933 h -16 z M 628.33333,94.33333 V 47.66667 h 16 v 46.66666 z m -138,0 v -36 l 16,-10.66666 h 42 L 533,57 h -26.66667 v 9.33333 h 32 L 523,75.66667 H 506.33333 V 85 h 43.33333 l -15.33333,9.33333 z m -141.33333,0 v -36 l 16,-10.66666 h 42 L 391.66666,57 H 365 v 9.33333 h 32 l -15.33334,9.33334 H 365 V 85 h 43.33333 L 393,94.33333 Z m -10.66667,-30 v 19.33334 l -16,10.66666 h -46 v -36 l 16,-10.66666 H 341 L 325.66666,57 h -33.33333 v 28 h 30 V 73.66667 H 303.66666 L 319,64.33333 Z M 617,85 601.66666,94.33333 H 554.33333 L 569.66666,85 h 30 v -9.33333 h -45.33333 v -18 l 15.33333,-9.33334 h 48 l -15.33333,9.33334 H 571 v 8.66666 h 46 z m 102,0 -15.33334,9.33333 H 656.33333 L 671.66666,85 h 30 v -9.33333 h -45.33333 v -18 l 15.33333,-9.33334 h 48 l -15.33333,9.33334 H 673 v 8.66666 h 46 z"
       inkscape:connector-curvature="0"
       style="fill:none" />
    <path
       id="path14"
       d="M 553.66666,39.66667 537,11 H 463.44667 L 446.78,39.66667 H 283.88666 L 255.66666,55.5 V 87.16667 L 283.88666,103 H 716.56 L 744.78,87.16667 V 55.5 L 716.56,39.66667 Z m -134,8 h 16.66667 l 30,16.76 v -16.76 h 16 v 46.66666 h -16 v -17.24 L 435.66666,59.954 v 34.37933 h -16 z M 628.33333,94.33333 V 47.66667 h 16 v 46.66666 z m -138,0 v -36 l 16,-10.66666 h 42 L 533,57 h -26.66667 v 9.33333 h 32 L 523,75.66667 H 506.33333 V 85 h 43.33333 l -15.33333,9.33333 z m -141.33333,0 v -36 l 16,-10.66666 h 42 L 391.66666,57 H 365 v 9.33333 h 32 l -15.33334,9.33334 H 365 V 85 h 43.33333 L 393,94.33333 Z m -10.66667,-30 v 19.33334 l -16,10.66666 h -46 v -36 l 16,-10.66666 H 341 L 325.66666,57 h -33.33333 v 28 h 30 V 73.66667 H 303.66666 L 319,64.33333 Z M 617,85 601.66666,94.33333 H 554.33333 L 569.66666,85 h 30 v -9.33333 h -45.33333 v -18 l 15.33333,-9.33334 h 48 l -15.33333,9.33334 H 571 v 8.66666 h 46 z m 102,0 -15.33334,9.33333 H 656.33333 L 671.66666,85 h 30 v -9.33333 h -45.33333 v -18 l 15.33333,-9.33334 h 48 l -15.33333,9.33334 H 673 v 8.66666 h 46 z"
       style="fill:none"
       inkscape:connector-curvature="0" />
    <path
       id="path16"
       d="m 522.77334,12.197887 -6.24666,19.03333 h 3.08667 l 6.26066,-18.38 a 1.74842,1.74842 0 0 1 3.44667,0 l 5.29267,15.54667 h -8.30666 v 2.83333 h 12.36 l -6.24668,-19.03333 a 5.01821,5.01821 0 0 0 -9.64667,0 z m 3.66,11.82 1.09334,-3.24667 1.14,3.24667 z m -0.45333,-9.32 -5.59335,16.53333 h 3.60667 l 2.31334,-6.85333 v 3.24 h 7.26666 l -4.314,-12.92 c -0.21934,-0.72 -0.87333,-2.78666 -1.64,-2.78666 -0.77266,0 -1.426,2.06667 -1.63934,2.78666 z m -19.75334,-2.52666 h 10.814 V 9.0778873 h -11.07334 a 5.41152,5.41152 0 0 0 -5.40665,5.4133297 v 11.33335 a 5.40582,5.40582 0 0 0 5.40665,5.40665 h 11.07333 v -14.42667 h -8.754 v 2.83334 h 5.66 v 8.5 h -7.72 a 2.57,2.57 0 0 1 -2.57267,-2.57332 v -10.82 a 2.56962,2.56962 0 0 1 2.57268,-2.57334 z m 2.06,8.24 v 3.09334 h 1.8 v 0.77332 h -1.8 a 0.77387,0.77387 0 0 1 -0.77334,-0.77333 v -6.7 a 0.77432,0.77432 0 0 1 0.77334,-0.77334 h 8.754 v -3.08666 h -10.04066 a 2.57631,2.57631 0 0 0 -2.58,2.57333 v 9.27332 a 2.57631,2.57631 0 0 0 2.58,2.57333 h 6.18 v -6.95332 z m -19.82666,-8.24 h 10.81333 V 9.0778873 h -11.07333 a 5.41152,5.41152 0 0 0 -5.40666,5.4133297 v 11.20667 a 5.41153,5.41153 0 0 0 5.40666,5.41332 h 11.07332 v -3.09332 h -10.81332 a 2.57488,2.57488 0 0 1 -2.57333,-2.57332 v -10.7 a 2.57489,2.57489 0 0 1 2.57333,-2.57336 z m 8.49332,7.46666 v -2.83334 h -7.20666 a 0.77389,0.77389 0 0 1 0.77334,-0.77334 h 8.75333 v -3.08667 h -10.04 a 2.57487,2.57487 0 0 0 -2.57333,2.57335 v 4.12 h 10.29331 z m 0,1.03333 v 2.83333 h -7.20666 a 0.77387,0.77387 0 0 0 0.77334,0.77334 h 8.75333 v 3.08667 h -10.04 a 2.57488,2.57488 0 0 1 -2.57333,-2.57334 v -4.12 h 10.29333 z m -26.46,3.86 h -6.49332 v 2.83333 h 10.04 a 3.4779,3.4779 0 0 0 -0.12666,-6.95332 h -3.90666 a 4.45462,4.45462 0 0 1 -2.92,-3.99334 4.47461,4.47461 0 0 1 4.50667,-4.24666 h 9.66 V 9.0778873 h -10.04669 a 7.21253,7.21253 0 0 0 -7.20666,7.2133297 7.43452,7.43452 0 0 0 7.46667,7.21334 v -0.03333 l 0.02,0.03333 h 2.3 a 0.51333,0.51333 0 0 1 0,1.02665 h -3.29336 z m 4.26,-8.75334 h 6.5 v -2.83334 h -10.04666 a 3.4779,3.4779 0 0 0 0.13334,6.95335 h 3.90666 a 4.45556,4.45556 0 0 1 2.91334,3.99331 4.47462,4.47462 0 0 1 -4.50668,4.24669 h -9.65332 v 3.09334 h 10.04 a 7.21394,7.21394 0 0 0 7.21333,-7.21334 7.439,7.439 0 0 0 -7.46667,-7.21333 v 0.04 l -0.0267,-0.04 h -2.29334 a 0.51334,0.51334 0 0 1 0,-1.02668 h 3.28666 z"
       inkscape:connector-curvature="0"
       style="fill:#ffffff;stroke:#00ffff;stroke-opacity:1;stroke-width:1.88976378;stroke-miterlimit:4;stroke-dasharray:none;fill-opacity:1" />
    <path
       style="fill:#ffffff;fill-opacity:1"
       d="m 482.333,47.667 v 46.666 h -16 V 77.093 L 435.667,59.954 v 34.379 h -16 V 47.667 h 16.666 l 30,16.76 v -16.76 z"
       id="polygon37" />
    <path
       style="fill:#ffffff;fill-opacity:1"
       d="m 628.33331,47.666672 h 16 v 46.666672 h -16 z"
       id="rect58" />
    <path
       style="fill:#ffffff;fill-opacity:1"
       d="m 533,57 h -26.667 v 9.333 h 32 L 523,75.667 H 506.333 V 85 h 43.334 l -15.334,9.333 h -44 v -36 l 16,-10.666 h 42 z"
       id="polygon79" />
    <path
       style="fill:#ffffff;fill-opacity:1"
       d="M 391.667,57 H 365 v 9.333 h 32 l -15.333,9.334 H 365 V 85 h 43.333 L 393,94.333 h -44 v -36 l 16,-10.666 h 42 z"
       id="polygon100" />
    <path
       style="fill:#ffffff;fill-opacity:1"
       d="m 276.333,58.333 16,-10.666 H 341 L 325.667,57 h -33.334 v 28 h 30 V 73.667 H 303.667 L 319,64.333 h 19.333 v 19.334 l -16,10.666 h -46 z"
       id="polygon121" />
    <path
       style="fill:#ffffff;fill-opacity:1"
       d="m 599.667,85 v -9.333 h -45.334 v -18 l 15.334,-9.334 h 48 l -15.334,9.334 H 571 v 8.666 h 46 V 85 l -15.333,9.333 H 554.333 L 569.667,85 Z"
       id="polygon142" />
    <path
       style="fill:#ffffff;fill-opacity:1"
       d="m 701.667,85 v -9.333 h -45.334 v -18 l 15.334,-9.334 h 48 l -15.334,9.334 H 673 v 8.666 h 46 V 85 l -15.333,9.333 H 656.333 L 671.667,85 Z"
       id="polygon163" />
  </g>
</svg>
