<?xml version="1.0" encoding="UTF-8" standalone="no"?>
<svg
   xmlns:dc="http://purl.org/dc/elements/1.1/"
   xmlns:cc="http://creativecommons.org/ns#"
   xmlns:rdf="http://www.w3.org/1999/02/22-rdf-syntax-ns#"
   xmlns:svg="http://www.w3.org/2000/svg"
   xmlns="http://www.w3.org/2000/svg"
   xmlns:sodipodi="http://sodipodi.sourceforge.net/DTD/sodipodi-0.dtd"
   xmlns:inkscape="http://www.inkscape.org/namespaces/inkscape"
   width="226"
   height="20"
   viewBox="0 0 226 20"
   version="1.1"
   id="svg3739"
   sodipodi:docname="system.svg"
   inkscape:version="0.92.4 (5da689c313, 2019-01-14)">
  <metadata
     id="metadata3743">
    <rdf:RDF>
      <cc:Work
         rdf:about="">
        <dc:format>image/svg+xml</dc:format>
        <dc:type
           rdf:resource="http://purl.org/dc/dcmitype/StillImage" />
        <dc:title>system</dc:title>
      </cc:Work>
    </rdf:RDF>
  </metadata>
  <sodipodi:namedview
     pagecolor="#ffffff"
     bordercolor="#666666"
     borderopacity="1"
     objecttolerance="10"
     gridtolerance="10"
     guidetolerance="10"
     inkscape:pageopacity="0"
     inkscape:pageshadow="2"
     inkscape:window-width="1920"
     inkscape:window-height="1137"
     id="namedview3741"
     showgrid="false"
     inkscape:zoom="7.5183342"
     inkscape:cx="187.87778"
     inkscape:cy="8.1535411"
     inkscape:window-x="-8"
     inkscape:window-y="344"
     inkscape:window-maximized="1"
     inkscape:current-layer="svg3739"
     scale-x="2" />
  <!-- Generator: Sketch 45 (43475) - http://www.bohemiancoding.com/sketch -->
  <title
     id="title3729">system</title>
  <desc
     id="desc3731">Created with Sketch.</desc>
  <defs
     id="defs3733" />
  <g
     inkscape:groupmode="layer"
     id="layer1"
     inkscape:label="Layer 1"
     transform="translate(0,2)" />
  <g
     inkscape:groupmode="layer"
     id="layer2"
     inkscape:label="Layer 2"
     transform="translate(0,2)" />
  <g
     aria-label="NEO GEO POCKET COLOR"
     style="font-style:normal;font-variant:normal;font-weight:normal;font-stretch:normal;font-size:21.33333397px;line-height:1.25;font-family:Arial;-inkscape-font-specification:Arial;letter-spacing:0px;word-spacing:0px;fill:none;fill-opacity:1;stroke:#ffffff;stroke-width:0.5;stroke-miterlimit:4;stroke-dasharray:none;stroke-opacity:1"
     id="text4643">
    <path
       d="M 2.450882,16.27577 V 3.8682176 H 4.1351269 L 10.652054,13.609754 V 3.8682176 h 1.574219 V 16.27577 H 10.542028 L 4.0251008,6.5257698 V 16.27577 Z"
       style="font-size:17.33333397px;fill:none;fill-opacity:1;stroke:#ffffff;stroke-width:0.5;stroke-miterlimit:4;stroke-dasharray:none;stroke-opacity:1"
       id="path5369"
       inkscape:connector-curvature="0" />
    <path
       d="M 15.027705,16.27577 V 3.8682176 h 8.971355 v 1.4641928 h -7.329428 v 3.8001304 h 6.863933 V 10.58827 h -6.863933 v 4.223307 h 7.617188 v 1.464193 z"
       style="font-size:17.33333397px;fill:none;fill-opacity:1;stroke:#ffffff;stroke-width:0.5;stroke-miterlimit:4;stroke-dasharray:none;stroke-opacity:1"
       id="path5371"
       inkscape:connector-curvature="0" />
    <path
       d="m 26.072628,10.232801 q 0,-3.0891926 1.658854,-4.8326823 1.658855,-1.7519531 4.282553,-1.7519531 1.718099,0 3.097656,0.8209635 1.379557,0.8209636 2.098958,2.2936199 0.727865,1.4641928 0.727865,3.326172 0,1.88737 -0.761719,3.376953 -0.761719,1.489584 -2.158203,2.259766 -1.396485,0.761719 -3.013021,0.761719 -1.751953,0 -3.131511,-0.846354 -1.379557,-0.846355 -2.090494,-2.310547 -0.710938,-1.464193 -0.710938,-3.097657 z m 1.692708,0.02539 q 0,2.242838 1.201823,3.53776 1.210287,1.286459 3.029948,1.286459 1.853516,0 3.046876,-1.303386 1.201823,-1.303385 1.201823,-3.698568 0,-1.5149736 -0.516277,-2.6406246 -0.507812,-1.1341147 -1.498046,-1.7519532 -0.981771,-0.6263021 -2.208985,-0.6263021 -1.74349,0 -3.004557,1.2018229 -1.252605,1.1933594 -1.252605,3.994792 z"
       style="font-size:17.33333397px;fill:none;fill-opacity:1;stroke:#ffffff;stroke-width:0.5;stroke-miterlimit:4;stroke-dasharray:none;stroke-opacity:1"
       id="path5373"
       inkscape:connector-curvature="0" />
    <path
       d="M 50.659217,11.409234 V 9.9535043 l 5.255859,-0.00846 v 4.6041677 q -1.210286,0.964843 -2.496744,1.455729 -1.286459,0.482422 -2.640626,0.482422 -1.828125,0 -3.326172,-0.778646 -1.489583,-0.78711 -2.251302,-2.268229 -0.761719,-1.48112 -0.761719,-3.309245 0,-1.8111988 0.753256,-3.376954 0.761718,-1.5742188 2.183594,-2.3359376 1.421875,-0.7617188 3.27539,-0.7617188 1.345703,0 2.429037,0.4401042 1.091797,0.4316406 1.709635,1.2102865 0.617839,0.7786458 0.939453,2.0312501 l -1.481119,0.40625 Q 53.968462,6.7966032 53.553748,6.2549365 53.139035,5.7132698 52.368852,5.3916552 51.59867,5.0615771 50.659217,5.0615771 q -1.125651,0 -1.946615,0.3470052 -0.820963,0.3385417 -1.328776,0.8971354 -0.499349,0.5585938 -0.778646,1.2272136 -0.473958,1.1510417 -0.473958,2.4967447 0,1.658854 0.567057,2.776042 0.575521,1.117188 1.667318,1.658854 1.091797,0.541667 2.31901,0.541667 1.066407,0 2.082032,-0.40625 1.015625,-0.414714 1.540364,-0.880208 v -2.310547 z"
       style="font-size:17.33333397px;fill:none;fill-opacity:1;stroke:#ffffff;stroke-width:0.5;stroke-miterlimit:4;stroke-dasharray:none;stroke-opacity:1"
       id="path5375"
       inkscape:connector-curvature="0" />
    <path
       d="M 58.361038,16.27577 V 3.8682176 h 8.971355 v 1.4641928 h -7.329428 v 3.8001304 h 6.863933 V 10.58827 h -6.863933 v 4.223307 h 7.617188 v 1.464193 z"
       style="font-size:17.33333397px;fill:none;fill-opacity:1;stroke:#ffffff;stroke-width:0.5;stroke-miterlimit:4;stroke-dasharray:none;stroke-opacity:1"
       id="path5377"
       inkscape:connector-curvature="0" />
    <path
       d="m 69.40596,10.232801 q 0,-3.0891926 1.658854,-4.8326823 1.658855,-1.7519531 4.282553,-1.7519531 1.718099,0 3.097656,0.8209635 1.379557,0.8209636 2.098958,2.2936199 0.727865,1.4641928 0.727865,3.326172 0,1.88737 -0.761719,3.376953 -0.761719,1.489584 -2.158203,2.259766 -1.396484,0.761719 -3.013021,0.761719 -1.751953,0 -3.13151,-0.846354 Q 70.827835,14.79465 70.116898,13.330458 69.40596,11.866265 69.40596,10.232801 Z m 1.692709,0.02539 q 0,2.242838 1.201822,3.53776 1.210287,1.286459 3.029948,1.286459 1.853516,0 3.046876,-1.303386 1.201823,-1.303385 1.201823,-3.698568 0,-1.5149736 -0.516276,-2.6406246 Q 78.555049,6.3057177 77.564815,5.6878792 76.583044,5.0615771 75.35583,5.0615771 q -1.74349,0 -3.004557,1.2018229 -1.252604,1.1933594 -1.252604,3.994791 z"
       style="font-size:17.33333397px;fill:none;fill-opacity:1;stroke:#ffffff;stroke-width:0.5;stroke-miterlimit:4;stroke-dasharray:none;stroke-opacity:1"
       id="path5379"
       inkscape:connector-curvature="0" />
    <path
       d="M 88.186559,16.27577 V 3.8682176 h 4.680339 q 1.235677,0 1.88737,0.1184896 0.914062,0.1523438 1.531901,0.5839844 0.617838,0.4231771 0.990234,1.1933595 0.38086,0.7701823 0.38086,1.6927083 0,1.5826824 -1.007162,2.6829426 -1.007161,1.091797 -3.639323,1.091797 h -3.182292 v 5.044271 z m 1.641927,-6.5084636 h 3.207683 q 1.591146,0 2.259765,-0.5924479 0.66862,-0.592448 0.66862,-1.6673178 0,-0.7786459 -0.397786,-1.3287761 Q 95.177445,5.6201708 94.534216,5.4424365 94.119502,5.3324104 93.002314,5.3324104 h -3.173828 z"
       style="font-size:17.33333397px;fill:none;fill-opacity:1;stroke:#ffffff;stroke-width:0.5;stroke-miterlimit:4;stroke-dasharray:none;stroke-opacity:1"
       id="path5381"
       inkscape:connector-curvature="0" />
    <path
       d="m 99.265335,10.232801 q 0,-3.0891926 1.658855,-4.8326823 1.65885,-1.7519531 4.28255,-1.7519531 1.7181,0 3.09766,0.8209635 1.37956,0.8209636 2.09896,2.2936199 0.72786,1.4641928 0.72786,3.326172 0,1.88737 -0.76172,3.376953 -0.76172,1.489584 -2.1582,2.259766 -1.39649,0.761719 -3.01302,0.761719 -1.75196,0 -3.13151,-0.846354 -1.37956,-0.846355 -2.090497,-2.310547 -0.710938,-1.464193 -0.710938,-3.097657 z m 1.692705,0.02539 q 0,2.242838 1.20183,3.53776 1.21028,1.286459 3.02994,1.286459 1.85352,0 3.04688,-1.303386 1.20182,-1.303385 1.20182,-3.698568 0,-1.5149736 -0.51627,-2.6406246 -0.50782,-1.1341147 -1.49805,-1.7519532 -0.98177,-0.6263021 -2.20898,-0.6263021 -1.74349,0 -3.00456,1.2018229 -1.25261,1.1933594 -1.25261,3.994792 z"
       style="font-size:17.33333397px;fill:none;fill-opacity:1;stroke:#ffffff;stroke-width:0.5;stroke-miterlimit:4;stroke-dasharray:none;stroke-opacity:1"
       id="path5383"
       inkscape:connector-curvature="0" />
    <path
       d="m 122.09151,11.92551 1.64193,0.414713 q -0.51628,2.022787 -1.86198,3.089193 -1.33724,1.057943 -3.27539,1.057943 -2.00586,0 -3.26693,-0.8125 -1.2526,-0.820964 -1.91276,-2.369792 -0.65169,-1.548828 -0.65169,-3.326172 0,-1.9381512 0.73632,-3.3769533 0.7448,-1.4472657 2.10743,-2.1920574 1.37109,-0.7532552 3.01302,-0.7532552 1.86198,0 3.13151,0.9479167 1.26953,0.9479167 1.76888,2.6660157 l -1.61654,0.3808594 q -0.43164,-1.3541667 -1.2526,-1.9720053 -0.82097,-0.6178385 -2.06511,-0.6178385 -1.43034,0 -2.39518,0.6855469 -0.95638,0.6855469 -1.3457,1.8450521 -0.38932,1.1510417 -0.38932,2.3782553 0,1.5826826 0.45703,2.7675786 0.46549,1.176432 1.4388,1.760416 0.97331,0.583985 2.10742,0.583985 1.37956,0 2.33594,-0.795573 0.95638,-0.795573 1.29492,-2.361328 z"
       style="font-size:17.33333397px;fill:none;fill-opacity:1;stroke:#ffffff;stroke-width:0.5;stroke-miterlimit:4;stroke-dasharray:none;stroke-opacity:1"
       id="path5385"
       inkscape:connector-curvature="0" />
    <path
       d="M 125.69698,16.27577 V 3.8682176 h 1.64192 v 6.1529954 l 6.16146,-6.1529954 h 2.22591 l -5.20508,5.027344 5.4336,7.3802084 h -2.16667 l -4.41797,-6.279948 -2.03125,1.980469 v 4.299479 z"
       style="font-size:17.33333397px;fill:none;fill-opacity:1;stroke:#ffffff;stroke-width:0.5;stroke-miterlimit:4;stroke-dasharray:none;stroke-opacity:1"
       id="path5387"
       inkscape:connector-curvature="0" />
    <path
       d="M 137.37666,16.27577 V 3.8682176 h 8.97136 v 1.4641928 h -7.32943 v 3.8001304 h 6.86393 V 10.58827 h -6.86393 v 4.223307 h 7.61719 v 1.464193 z"
       style="font-size:17.33333397px;fill:none;fill-opacity:1;stroke:#ffffff;stroke-width:0.5;stroke-miterlimit:4;stroke-dasharray:none;stroke-opacity:1"
       id="path5389"
       inkscape:connector-curvature="0" />
    <path
       d="M 152.07784,16.27577 V 5.3324104 h -4.0879 V 3.8682176 h 9.83464 v 1.4641928 h -4.10482 V 16.27577 Z"
       style="font-size:17.33333397px;fill:none;fill-opacity:1;stroke:#ffffff;stroke-width:0.5;stroke-miterlimit:4;stroke-dasharray:none;stroke-opacity:1"
       id="path5391"
       inkscape:connector-curvature="0" />
    <path
       d="m 172.87277,11.92551 1.64192,0.414713 q -0.51627,2.022787 -1.86197,3.089193 -1.33724,1.057943 -3.2754,1.057943 -2.00585,0 -3.26692,-0.8125 -1.25261,-0.820964 -1.91276,-2.369792 -0.6517,-1.548828 -0.6517,-3.326172 0,-1.9381512 0.73633,-3.3769533 0.74479,-1.4472657 2.10742,-2.1920574 1.3711,-0.7532552 3.01303,-0.7532552 1.86197,0 3.13151,0.9479167 1.26953,0.9479167 1.76888,2.6660157 l -1.61654,0.3808594 q -0.43164,-1.3541667 -1.2526,-1.9720053 -0.82097,-0.6178385 -2.06511,-0.6178385 -1.43034,0 -2.39518,0.6855469 -0.95638,0.6855469 -1.3457,1.8450521 -0.38933,1.1510417 -0.38933,2.3782553 0,1.5826826 0.45703,2.7675786 0.4655,1.176432 1.43881,1.760416 0.9733,0.583985 2.10742,0.583985 1.37956,0 2.33594,-0.795573 0.95638,-0.795573 1.29492,-2.361328 z"
       style="font-size:17.33333397px;fill:none;fill-opacity:1;stroke:#ffffff;stroke-width:0.5;stroke-miterlimit:4;stroke-dasharray:none;stroke-opacity:1"
       id="path5393"
       inkscape:connector-curvature="0" />
    <path
       d="m 176.04659,10.232801 q 0,-3.0891926 1.65885,-4.8326823 1.65885,-1.7519531 4.28255,-1.7519531 1.7181,0 3.09766,0.8209635 1.37956,0.8209636 2.09896,2.2936199 0.72786,1.4641928 0.72786,3.326172 0,1.88737 -0.76172,3.376953 -0.76172,1.489584 -2.1582,2.259766 -1.39649,0.761719 -3.01302,0.761719 -1.75196,0 -3.13151,-0.846354 -1.37956,-0.846355 -2.0905,-2.310547 -0.71093,-1.464193 -0.71093,-3.097657 z m 1.6927,0.02539 q 0,2.242838 1.20183,3.53776 1.21028,1.286459 3.02994,1.286459 1.85352,0 3.04688,-1.303386 1.20182,-1.303385 1.20182,-3.698568 0,-1.5149736 -0.51627,-2.6406246 -0.50782,-1.1341147 -1.49805,-1.7519532 -0.98177,-0.6263021 -2.20898,-0.6263021 -1.74349,0 -3.00456,1.2018229 -1.25261,1.1933594 -1.25261,3.994792 z"
       style="font-size:17.33333397px;fill:none;fill-opacity:1;stroke:#ffffff;stroke-width:0.5;stroke-miterlimit:4;stroke-dasharray:none;stroke-opacity:1"
       id="path5395"
       inkscape:connector-curvature="0" />
    <path
       d="M 189.95219,16.27577 V 3.8682176 h 1.64193 V 14.811577 h 6.11068 v 1.464193 z"
       style="font-size:17.33333397px;fill:none;fill-opacity:1;stroke:#ffffff;stroke-width:0.5;stroke-miterlimit:4;stroke-dasharray:none;stroke-opacity:1"
       id="path5397"
       inkscape:connector-curvature="0" />
    <path
       d="m 199.16899,10.232801 q 0,-3.0891926 1.65886,-4.8326823 1.65885,-1.7519531 4.28255,-1.7519531 1.7181,0 3.09765,0.8209635 1.37956,0.8209636 2.09896,2.2936199 0.72787,1.4641928 0.72787,3.326172 0,1.88737 -0.76172,3.376953 -0.76172,1.489584 -2.15821,2.259766 -1.39648,0.761719 -3.01302,0.761719 -1.75195,0 -3.13151,-0.846354 -1.37955,-0.846355 -2.09049,-2.310547 -0.71094,-1.464193 -0.71094,-3.097657 z m 1.69271,0.02539 q 0,2.242838 1.20182,3.53776 1.21029,1.286459 3.02995,1.286459 1.85352,0 3.04688,-1.303386 1.20182,-1.303385 1.20182,-3.698568 0,-1.5149736 -0.51628,-2.6406246 -0.50781,-1.1341147 -1.49804,-1.7519532 -0.98178,-0.6263021 -2.20899,-0.6263021 -1.74349,0 -3.00456,1.2018229 -1.2526,1.1933594 -1.2526,3.994792 z"
       style="font-size:17.33333397px;fill:none;fill-opacity:1;stroke:#ffffff;stroke-width:0.5;stroke-miterlimit:4;stroke-dasharray:none;stroke-opacity:1"
       id="path5399"
       inkscape:connector-curvature="0" />
    <path
       d="M 213.16768,16.27577 V 3.8682176 h 5.50131 q 1.65885,0 2.52213,0.3385417 0.86328,0.3300782 1.37956,1.1764324 0.51628,0.8463542 0.51628,1.8704427 0,1.3203126 -0.85482,2.2259116 -0.85482,0.905599 -2.64063,1.151042 0.6517,0.313151 0.99024,0.617838 0.7194,0.660157 1.36263,1.650391 l 2.1582,3.376953 h -2.0651 l -1.64193,-2.58138 q -0.7194,-1.117188 -1.1849,-1.709636 -0.46549,-0.592448 -0.83789,-0.829427 -0.36393,-0.236979 -0.74479,-0.330078 -0.2793,-0.05924 -0.91406,-0.05924 h -1.9043 v 5.509766 z m 1.64193,-6.9316407 h 3.5293 q 1.12565,0 1.76041,-0.2285156 0.63477,-0.2369792 0.96485,-0.7447917 0.33008,-0.5162761 0.33008,-1.1171876 0,-0.8802083 -0.64323,-1.4472656 -0.63477,-0.5670574 -2.01433,-0.5670574 h -3.92708 z"
       style="font-size:17.33333397px;fill:none;fill-opacity:1;stroke:#ffffff;stroke-width:0.5;stroke-miterlimit:4;stroke-dasharray:none;stroke-opacity:1"
       id="path5401"
       inkscape:connector-curvature="0" />
  </g>
</svg>
