<?xml version="1.0" encoding="UTF-8" standalone="no"?>
<svg
   xmlns:dc="http://purl.org/dc/elements/1.1/"
   xmlns:cc="http://creativecommons.org/ns#"
   xmlns:rdf="http://www.w3.org/1999/02/22-rdf-syntax-ns#"
   xmlns:svg="http://www.w3.org/2000/svg"
   xmlns="http://www.w3.org/2000/svg"
   xmlns:sodipodi="http://sodipodi.sourceforge.net/DTD/sodipodi-0.dtd"
   xmlns:inkscape="http://www.inkscape.org/namespaces/inkscape"
   viewBox="0 0 1000 114.00091"
   version="1.1"
   id="svg138"
   sodipodi:docname="logo.svg"
   inkscape:version="0.92.4 (5da689c313, 2019-01-14)">
  <metadata
     id="metadata144">
    <rdf:RDF>
      <cc:Work
         rdf:about="">
        <dc:format>image/svg+xml</dc:format>
        <dc:type
           rdf:resource="http://purl.org/dc/dcmitype/StillImage" />
        <dc:title>logo</dc:title>
      </cc:Work>
    </rdf:RDF>
  </metadata>
  <defs
     id="defs142" />
  <sodipodi:namedview
     pagecolor="#ffffff"
     bordercolor="#666666"
     borderopacity="1"
     objecttolerance="10"
     gridtolerance="10"
     guidetolerance="10"
     inkscape:pageopacity="0"
     inkscape:pageshadow="2"
     inkscape:window-width="1920"
     inkscape:window-height="1017"
     id="namedview140"
     showgrid="false"
     inkscape:pagecheckerboard="true"
     inkscape:snap-global="false"
     inkscape:zoom="2.272"
     inkscape:cx="574.79924"
     inkscape:cy="86.507372"
     inkscape:window-x="-8"
     inkscape:window-y="-8"
     inkscape:window-maximized="1"
     inkscape:current-layer="svg138" />
  <title
     id="title2">logo</title>
  <polygon
     style="fill:#1d1d1b"
     id="polygon53"
     points="" />
  <path
     style="opacity:1;vector-effect:none;fill:#fffffe;fill-opacity:1;stroke:none;stroke-width:0.20794056;stroke-linecap:butt;stroke-linejoin:miter;stroke-miterlimit:4;stroke-dasharray:none;stroke-dashoffset:0;stroke-opacity:1"
     d=""
     id="path1021"
     inkscape:connector-curvature="0" />
  <g
     id="g1095">
    <path
       d="M 541.7862,49.62347 A 12.45951,12.45951 0 1 1 529.60954,62.08019 V 62.039 A 12.12194,12.12194 0 0 1 541.7862,49.62347 m 0,-7 A 19.0919,19.0919 0 0 0 522.60954,62.039 19.1984,19.1984 0 1 0 561.00226,62.0802 19.13178,19.13178 0 0 0 541.7862,42.62347 Z"
       id="path21"
       inkscape:connector-curvature="0"
       style="fill:#ffffff" />
    <path
       d="m 541.78618,46.69037 a 15.39027,15.39027 0 1 1 -15.511,15.50981 v -0.03941 a 15.20862,15.20862 0 0 1 15.511,-15.4704 m 0.04,27.84654 A 12.45951,12.45951 0 1 0 529.60956,62.039 v 0.04119 a 12.14047,12.14047 0 0 0 12.2166,12.45673 m -0.04,-34.84654 a 22.39012,22.39012 0 1 0 22.511,22.38977 22.25148,22.25148 0 0 0 -22.511,-22.38977 z m 0.04,27.84654 a 5.46329,5.46329 0 1 1 5.17612,-5.45673 5.22056,5.22056 0 0 1 -5.17612,5.45673 z"
       id="path39"
       inkscape:connector-curvature="0"
       style="fill:none;stroke:#00ffff;stroke-opacity:1;stroke-width:1.88976378;stroke-miterlimit:4;stroke-dasharray:none" />
    <path
       d="m 533.97394,89.64116 c 4.11426,0 6.51294,3.54456 6.51294,6.92316 A 6.53578,6.53578 0 1 1 527.4336,96.53626 V 96.5094 a 6.59379,6.59379 0 0 1 6.54034,-6.86824 m 0,-7 a 13.89936,13.89936 0 0 0 0.0269,27.79012 c 8.4416,0 13.486,-7.05058 13.486,-13.867 A 13.57662,13.57662 0 0 0 533.97392,82.64112 Z"
       id="path23"
       inkscape:connector-curvature="0"
       style="fill:#ffffff" />
    <path
       d="m 557.17557,86.892649 5.69775,0.002 7e-5,1.2e-4 c 2.26849,0.0573 4.27307,0.17372 6.07635,1.68452 a 6.09917,6.09917 0 0 1 1.22113,1.36682 6.81337,6.81337 0 0 1 1.01752,3.57678 6.20547,6.20547 0 0 1 -0.8133,3.11048 5.60034,5.60034 0 0 1 -1.076,1.30652 6.47178,6.47178 0 0 1 -1.629,1.01744 11.32793,11.32793 0 0 1 -2.06366,0.58162 l 5.93127,7.877921 h -4.56503 l -5.69837,-7.761431 v 7.761481 h -4.09873 V 86.892949 m 4.09686,9.741 h 2.03687 a 5.12166,5.12166 0 0 0 0.66937,-0.0293 3.70142,3.70142 0 0 0 2.84894,-1.22112 2.94284,2.94284 0 0 0 0.63946,-1.8905 3.10649,3.10649 0 0 0 -0.55291,-1.8296 c -0.90229,-1.22228 -2.29773,-1.33758 -3.69385,-1.368 h -1.94784 v 6.33856 m -4.09689,-16.741 a 7,7 0 0 0 -7,7 v 20.523921 a 7,7 0 0 0 7,7 h 4.09869 a 6.97657,6.97657 0 0 0 2.85132,-0.60513 6.99551,6.99551 0 0 0 2.847,0.60513 h 4.56506 a 7,7 0 0 0 5.5922,-11.21036 l -1.45041,-1.92645 c 0.2493,-0.33781 0.428,-0.61751 0.55307,-0.81329 l 0.0305,-0.0476 q 0.0533,-0.083 0.10431,-0.16736 a 13.05517,13.05517 0 0 0 1.82105,-6.728901 13.75149,13.75149 0 0 0 -2.15607,-7.40344 13.01154,13.01154 0 0 0 -2.61932,-2.93274 c -3.75012,-3.12264 -7.888,-3.22724 -10.363,-3.28972 q -0.0872,-0.002 -0.17438,-0.002 l -5.69783,-0.002 z"
       id="path103"
       inkscape:connector-curvature="0"
       style="fill:none;stroke:#00ffff;stroke-width:1.88976383;stroke-miterlimit:4;stroke-dasharray:none;stroke-opacity:1" />
    <path
       d="m 390.57881,49.62346 a 12.4595,12.4595 0 1 1 -12.176,12.45666 l -8e-5,-0.04118 a 12.12111,12.12111 0 0 1 12.17611,-12.41548 m 0,-7 A 19.09162,19.09162 0 0 0 371.4027,62.03894 l 1.3e-4,0.04118 v 0 a 19.19749,19.19749 0 1 0 38.39148,0 19.13147,19.13147 0 0 0 -19.21545,-19.45666 z"
       id="path25"
       inkscape:connector-curvature="0"
       style="fill:#ffffff" />
    <path
       d="m 480.14221,89.64116 c 4.11538,0 6.51343,3.54456 6.51343,6.92316 A 6.53634,6.53634 0 1 1 473.6012,96.53626 h 6e-5 V 96.5094 a 6.59425,6.59425 0 0 1 6.54095,-6.86824 m 0,-7 a 13.56168,13.56168 0 0 0 -13.54095,13.86824 14.12886,14.12886 0 0 0 3.63794,9.56862 13.26819,13.26819 0 0 0 9.93042,4.35326 c 8.4416,0 13.486,-7.05058 13.486,-13.867 A 13.57683,13.57683 0 0 0 480.14219,82.64112 Z"
       id="path27"
       inkscape:connector-curvature="0"
       style="fill:#ffffff" />
    <path
       d="M 474.06819,49.62347 A 12.45953,12.45953 0 1 1 461.8927,62.08019 V 62.039 a 12.12064,12.12064 0 0 1 12.17549,-12.41552 m 0,-7 A 19.09134,19.09134 0 0 0 454.8927,62.039 19.19752,19.19752 0 1 0 493.28363,62.0802 19.13149,19.13149 0 0 0 474.06819,42.62348 Z"
       id="path29"
       inkscape:connector-curvature="0"
       style="fill:#ffffff" />
    <path
       d="m 562.41884,85.134652 c 2.9637,0.07083 5.58257,0.214737 7.93853,2.081869 a 7.970702,7.5402105 0 0 1 1.59536,1.689247 8.9014751,8.4207132 0 0 1 1.32932,4.420558 8.1072791,7.6694111 0 0 1 -1.06252,3.84421 7.3149515,6.9198765 0 0 1 -1.40575,1.614713 8.4539871,7.9973935 0 0 1 -2.12821,1.257541 14.806262,14.006587 0 0 1 -2.69613,0.71879 l 7.74896,9.73632 h -5.96398 l -7.44482,-9.59236 v 9.59239 h -5.35479 V 85.132428 l 7.44394,0.002 z m -2.08915,12.036601 h 2.65864 a 6.696474,6.3348025 0 0 0 0.87451,-0.0362 4.8357508,4.5745756 0 0 0 3.72196,-1.509192 3.8448022,3.6371473 0 0 0 0.83552,-2.336464 4.0589046,3.8396863 0 0 0 -0.72241,-2.261198 c -1.17877,-1.510674 -3.00189,-1.653111 -4.82586,-1.690708 h -2.54477 v 7.833761 h 0.002 z"
       id="path127"
       inkscape:connector-curvature="0"
       style="fill:#ffffff;fill-opacity:1;stroke:#ffffff;stroke-width:2.601;stroke-miterlimit:4;stroke-dasharray:none;stroke-opacity:1" />
    <path
       d="m 541.78613,80.96957 a 18.89,18.89 0 1 1 19.01075,-18.88965 18.6901,18.6901 0 0 1 -19.01075,18.88965 z m 0,-27.8462 a 8.60571,8.60571 0 0 0 -8.67675,8.91553 8.69953,8.69953 0 1 0 8.67675,-8.91553 z"
       id="path37"
       inkscape:connector-curvature="0"
       style="fill:#ffffff;fill-opacity:1" />
    <path
       style="fill:none;stroke:#ffffff;stroke-width:7;stroke-linecap:round;stroke-linejoin:round"
       d="m 526.27515,62.160759 v -5.7e-5"
       id="line33" />
    <path
       style="fill:none;stroke:#ffffff;stroke-width:7;stroke-linecap:round;stroke-linejoin:round"
       d="m 458.55774,62.160759 v -5.7e-5"
       id="line35" />
    <path
       d="m 514.52606,7.00091 c 2.34967,0.34278 4.6767,0.68371 7.04078,1.02948 -1.82428,4.949 -3.6383,9.86994 -5.459,14.81 -1.291,-0.26574 -2.54618,-0.52491 -3.83535,-0.79059 q 1.12582,-7.5194 2.25354,-15.04889 M 514.51741,0 a 7.00121,7.00121 0 0 0 -6.91415,5.96423 l -0.73906,4.93514 -1.51453,10.11392 a 7,7 0 0 0 5.51,7.89243 l 1.45381,0.29977 2.38315,0.49116 a 6.99452,6.99452 0 0 0 7.9794,-4.43556 l 4.62254,-12.54091 0.83629,-2.26871 a 7,7 0 0 0 -5.55494,-9.34741 l -2.04884,-0.29973 -4.99453,-0.7301 A 7.06124,7.06124 0 0 0 514.51741,0 Z"
       id="path107"
       inkscape:connector-curvature="0"
       style="fill:none;stroke:#00ffff;stroke-opacity:1;stroke-width:1.88976378;stroke-miterlimit:4;stroke-dasharray:none" />
    <path
       d="m 537.06708,18.75183 c 1.24683,2.01892 2.47632,4.0127 3.72668,6.03814 q -6.10775,3.78168 -12.22442,7.56622 c -0.85626,-1.27782 -1.6958,-2.5324 -2.55451,-3.81622 q 5.52189,-4.88955 11.05225,-9.78814 m -2.1e-4,-7.00005 a 7,7 0 0 0 -4.64087,1.75979 l -2.644,2.34168 -8.4078,7.446 a 7,7 0 0 0 -1.17785,9.13246 l 2.5578,3.82116 a 6.99788,6.99788 0 0 0 9.49869,2.05576 l 12.22583,-7.5671 a 7,7 0 0 0 2.27148,-9.62864 l -1.57712,-2.5555 -2.15021,-3.48366 a 7.00059,7.00059 0 0 0 -5.956,-3.32195 z"
       id="path115"
       inkscape:connector-curvature="0"
       style="fill:none;stroke:#00ffff;stroke-opacity:1;stroke-width:1.88976378;stroke-miterlimit:4;stroke-dasharray:none;fill-opacity:1" />
    <path
       d="m 576.78394,46.6922 a 15.11318,15.11318 0 0 1 13.70172,8.67925 h -3.57678 a 11.932,11.932 0 0 0 -10.12494,-5.74614 12.1211,12.1211 0 0 0 -12.17548,12.41606 12.10641,12.10641 0 0 0 22.30042,6.91175 l 3.57837,-7.9e-4 a 14.77627,14.77627 0 0 1 -13.6615,8.51946 15.39013,15.39013 0 1 1 -0.0418,-30.77959 m 13.70331,22.26013 h 0.005 M 576.78394,39.6922 a 22.39,22.39 0 1 0 0.0418,44.77958 c 8.70849,0 16.70886,-5.03061 20.0032,-12.54761 a 7.00519,7.00519 0 0 0 -4.63644,-9.76388 7.00018,7.00018 0 0 0 4.65924,-9.69967 22.09842,22.09842 0 0 0 -20.06781,-12.76842 z m 0,27.84648 a 5.46432,5.46432 0 0 1 0,-10.91337 4.9186,4.9186 0 0 1 4.04272,2.21116 6.99071,6.99071 0 0 0 4.38239,3.326 7.00057,7.00057 0 0 0 -4.1886,3.00557 5.0279,5.0279 0 0 1 -4.23651,2.3706 z"
       id="path43"
       inkscape:connector-curvature="0"
       style="fill:none;stroke:#00ffff;stroke-opacity:1;stroke-width:1.88976378;stroke-miterlimit:4;stroke-dasharray:none" />
    <path
       d="m 576.82617,80.97152 a 18.89043,18.89043 0 1 1 16.84283,-27.05518 3.50032,3.50032 0 0 1 -3.1836,4.95459 h -3.57617 a 3.49955,3.49955 0 0 1 -3.042,-1.76855 8.41457,8.41457 0 0 0 -7.083,-3.977 8.60545,8.60545 0 0 0 -8.67578,8.9165 8.64668,8.64668 0 0 0 8.67578,8.99707 8.49025,8.49025 0 0 0 7.18164,-3.97949 3.49813,3.49813 0 0 1 2.94239,-1.60645 l 3.5791,-0.001 a 3.50036,3.50036 0 0 1 3.22558,4.8584 c -2.68462,6.37693 -9.47075,10.66111 -16.88677,10.66111 z"
       id="path41"
       inkscape:connector-curvature="0"
       style="fill:#ffffff;fill-opacity:1" />
    <path
       d="m 617.60724,47.2122 h 0.005 m -0.005,0 -14.20154,14.82673 15.44837,14.90907 h -4.13935 L 601.437,64.08948 598.40362,67.25781 V 76.948 h -3.295 V 47.21277 h 3.295 V 63.3335 l 15.58807,-16.1213 h 3.6156 m 0.005,-7 h -3.62061 a 7.00007,7.00007 0 0 0 -5.03229,2.13417 l -3.64172,3.76632 a 7.00163,7.00163 0 0 0 -6.91406,-5.89992 h -3.295 a 7,7 0 0 0 -7,7 V 76.948 a 7,7 0 0 0 7,7 h 3.295 a 7.00079,7.00079 0 0 0 6.966,-6.30562 l 4.47539,4.33412 a 7.00007,7.00007 0 0 0 4.86972,1.9715 h 4.13935 a 7,7 0 0 0 4.861,-12.0369 L 613.28467,61.8448 622.585,52.135 a 6.99912,6.99912 0 0 0 -4.97277,-11.92284 z m -0.005,14 z"
       id="path99"
       inkscape:connector-curvature="0"
       style="fill:none;stroke:#00ffff;stroke-opacity:1;stroke-width:1.88976378;stroke-miterlimit:4;stroke-dasharray:none" />
    <path
       d="m 614.71485,80.44808 a 3.49913,3.49913 0 0 1 -2.43457,-0.98535 l -10.377,-10.04883 v 7.53418 a 3.50048,3.50048 0 0 1 -3.5,3.5 h -3.29488 a 3.50048,3.50048 0 0 1 -3.5,-3.5 V 47.21273 a 3.50017,3.50017 0 0 1 3.5,-3.5 h 3.29492 a 3.50017,3.50017 0 0 1 3.5,3.5 V 54.679 l 9.57129,-9.8999 a 3.50425,3.50425 0 0 1 2.5166,-1.0669 h 3.61621 a 3.5,3.5 0 0 1 2.52735,5.9209 l -11.79,12.30908 12.94043,12.48731 a 3.50028,3.50028 0 0 1 -2.43067,6.01855 z"
       id="path97"
       inkscape:connector-curvature="0"
       style="fill:#ffffff;fill-opacity:1" />
    <path
       d="m 423.37074,46.68914 c 6.02739,0 11.613,3.37554 13.94353,8.23742 h -3.77679 v 0.0012 a 12.681,12.681 0 0 0 -3.33557,-3.21435 12.24538,12.24538 0 0 0 -19.08667,10.32556 12.13371,12.13371 0 0 0 12.21552,12.53736 12.89414,12.89414 0 0 0 7.95609,-2.6919 10.95465,10.95465 0 0 0 4.01869,-6.22925 H 419.121 v -2.73241 h 20.042 a 14.702,14.702 0 0 1 -1.32624,5.74676 c -2.57182,5.5855 -8.51922,8.8399 -14.506,8.8399 a 15.2933,15.2933 0 0 1 -15.55048,-15.4705 c 0,-8.91992 6.99181,-15.34979 15.59046,-15.34979 M 439.163,62.92273 h 0.005 M 423.37074,39.68914 a 22.4107,22.4107 0 1 0 -0.04,44.82025 22.82775,22.82775 0 0 0 20.84333,-12.86661 21.62652,21.62652 0 0 0 1.97992,-8.31533 q 0.0115,-0.201 0.0115,-0.40472 a 6.985,6.985 0 0 0 -2.40039,-5.27808 7.00082,7.00082 0 0 0 -0.13861,-5.74391 c -3.50127,-7.30412 -11.64147,-12.2116 -20.25579,-12.2116 z"
       id="path47"
       inkscape:connector-curvature="0"
       style="fill:none;stroke:#00ffff;stroke-opacity:1;stroke-width:1.88976378;stroke-miterlimit:4;stroke-dasharray:none" />
    <path
       d="m 423.33057,81.00961 a 18.91084,18.91084 0 1 1 0.04,-37.82032 c 7.29638,0 14.16845,4.10889 17.1001,10.22461 a 3.5,3.5 0 0 1 -3.15625,5.0127 h -3.77682 a 3.49928,3.49928 0 0 1 -2.84082,-1.45606 9.19262,9.19262 0 0 0 -2.41553,-2.33154 8.74634,8.74634 0 0 0 -13.666,7.3999 9.40688,9.40688 0 0 0 1.18359,4.71973 3.493,3.493 0 0 1 -0.17773,-1.10352 v -2.73242 a 3.50017,3.50017 0 0 1 3.5,-3.5 h 20.042 a 3.49945,3.49945 0 0 1 3.499,3.58106 18.21314,18.21314 0 0 1 -1.66748,7.17578 19.30166,19.30166 0 0 1 -17.66406,10.83008 z M 417.207,68.58578 a 8.81781,8.81781 0 0 0 6.12354,2.49023 9.41629,9.41629 0 0 0 5.76514,-1.9209 h -9.97458 a 3.481,3.481 0 0 1 -1.9141,-0.56933 z"
       id="path45"
       inkscape:connector-curvature="0"
       style="fill:#ffffff;fill-opacity:1" />
    <path
       d="m 390.57879,46.69031 a 15.39027,15.39027 0 1 1 -15.511,15.50981 v -0.03941 a 15.20894,15.20894 0 0 1 15.511,-15.4704 m 0.04,27.84654 A 12.45949,12.45949 0 1 0 378.40266,62.03893 l 6e-5,0.04119 a 12.14,12.14 0 0 0 12.21607,12.45673 m -0.04,-34.84654 a 22.39011,22.39011 0 1 0 22.51045,22.38981 22.25146,22.25146 0 0 0 -22.51045,-22.38981 z m -5.17606,22.36609 a 5.20147,5.20147 0 1 1 10.39152,0.02372 5.22025,5.22025 0 0 1 -5.17541,5.45673 5.16513,5.16513 0 0 1 -5.21607,-5.45673 V 62.0564 Z"
       id="path51"
       inkscape:connector-curvature="0"
       style="fill:none;stroke:#00ffff;stroke-opacity:1;stroke-width:1.88976378;stroke-miterlimit:4;stroke-dasharray:none;fill-opacity:1" />
    <path
       d="m 390.57862,80.96957 a 18.89,18.89 0 1 1 19.01074,-18.88965 18.6901,18.6901 0 0 1 -19.01074,18.88965 z m 0,-27.8462 a 8.60521,8.60521 0 0 0 -8.67579,8.91553 8.69906,8.69906 0 1 0 8.67579,-8.91553 z"
       id="path49"
       inkscape:connector-curvature="0"
       style="fill:#fffffe;fill-opacity:1" />
    <path
       style="fill:#ffffff"
       d="m 590.487,68.952 v 0 0 0"
       id="polyline55" />
    <path
       d="m 373.56721,47.21275 v 2.93312 H 361.086 v 10.32677 h 12.40058 v 2.93311 H 361.086 v 10.60919 h 12.48121 V 76.948 H 357.79162 V 47.21275 h 15.77559 m 0,-7 h -15.77559 a 7,7 0 0 0 -7,7 V 76.948 a 7,7 0 0 0 7,7 h 15.77559 a 7,7 0 0 0 7,-7 v -2.93306 a 6.98521,6.98521 0 0 0 -2.473,-5.33934 6.98376,6.98376 0 0 0 2.39239,-5.26985 v -2.93311 a 6.981,6.981 0 0 0 -2.23347,-5.12646 6.98178,6.98178 0 0 0 2.3141,-5.20031 v -2.93312 a 7,7 0 0 0 -7,-7 z"
       id="path59"
       inkscape:connector-curvature="0"
       style="fill:none;stroke:#00ffff;stroke-opacity:1;stroke-width:1.88976378;stroke-miterlimit:4;stroke-dasharray:none" />
    <path
       d="m 357.79151,80.44808 a 3.50017,3.50017 0 0 1 -3.5,-3.5 V 47.21273 a 3.49985,3.49985 0 0 1 3.5,-3.5 h 15.77587 a 3.49985,3.49985 0 0 1 3.5,3.5 v 2.93311 a 3.49986,3.49986 0 0 1 -3.5,3.5 h -8.98144 v 3.32666 h 8.90039 a 3.50017,3.50017 0 0 1 3.5,3.5 v 2.93359 a 3.50017,3.50017 0 0 1 -3.5,3.5 h -8.90039 v 3.6084 h 8.98144 a 3.50017,3.50017 0 0 1 3.5,3.5 v 2.93359 a 3.50017,3.50017 0 0 1 -3.5,3.5 z"
       id="path57"
       inkscape:connector-curvature="0"
       style="fill:#ffffff;fill-opacity:1" />
    <path
       d="m 474.06818,46.69037 a 15.39027,15.39027 0 1 1 -15.51044,15.50981 v -0.03941 a 15.20886,15.20886 0 0 1 15.51044,-15.4704 m 0.04,27.84654 A 12.45953,12.45953 0 1 0 461.8927,62.039 v 0.04119 a 12.1399,12.1399 0 0 0 12.21546,12.45673 m -0.04,-34.84654 A 22.39011,22.39011 0 1 0 496.5786,62.08015 22.2512,22.2512 0 0 0 474.06816,39.69038 Z m 0.04,27.84654 a 5.46333,5.46333 0 1 1 5.17547,-5.45673 5.22027,5.22027 0 0 1 -5.17547,5.45673 z"
       id="path63"
       inkscape:connector-curvature="0"
       style="fill:none;stroke:#00ffff;stroke-opacity:1;stroke-width:1.88976378;stroke-miterlimit:4;stroke-dasharray:none;fill-opacity:1" />
    <path
       d="m 474.06836,80.96957 a 18.89,18.89 0 1 1 19.01026,-18.88965 18.6901,18.6901 0 0 1 -19.01026,18.88965 z m 0,-27.8462 a 8.60521,8.60521 0 0 0 -8.67578,8.91553 8.69882,8.69882 0 1 0 8.67578,-8.91553 z"
       id="path61"
       inkscape:connector-curvature="0"
       style="fill:#ffffff;fill-opacity:1" />
    <path
       d="M 639.59235,47.21288 V 50.146 h -13.17987 v 10.32671 h 13.09863 v 2.9331 H 626.41248 V 74.015 h 13.17987 v 2.93312 h -16.476 V 47.21288 h 16.476 m 0,-7 h -16.476 a 7,7 0 0 0 -7,7 v 29.73524 a 7,7 0 0 0 7,7 h 16.476 a 7,7 0 0 0 7,-7 V 74.015 a 6.98472,6.98472 0 0 0 -2.47333,-5.3396 6.983,6.983 0 0 0 2.39209,-5.26959 v -2.9331 a 6.98144,6.98144 0 0 0 -2.23315,-5.12616 6.98254,6.98254 0 0 0 2.31439,-5.20055 v -2.93312 a 7,7 0 0 0 -7,-7 z"
       id="path67"
       inkscape:connector-curvature="0"
       style="fill:none;stroke:#00ffff;stroke-opacity:1;stroke-width:1.88976378;stroke-miterlimit:4;stroke-dasharray:none" />
    <path
       d="m 623.11621,80.44808 a 3.50049,3.50049 0 0 1 -3.5,-3.5 V 47.21273 a 3.50017,3.50017 0 0 1 3.5,-3.5 h 16.47657 a 3.50017,3.50017 0 0 1 3.5,3.5 v 2.93311 a 3.50018,3.50018 0 0 1 -3.5,3.5 h -9.68067 v 3.32666 h 9.59863 a 3.50048,3.50048 0 0 1 3.5,3.5 v 2.93359 a 3.50048,3.50048 0 0 1 -3.5,3.5 h -9.59863 v 3.60937 h 9.68067 a 3.5005,3.5005 0 0 1 3.5,3.5 v 2.93262 a 3.50049,3.50049 0 0 1 -3.5,3.5 z"
       id="path65"
       inkscape:connector-curvature="0"
       style="fill:#ffffff;fill-opacity:1" />
    <path
       d="M 669.26428,47.21288 V 50.146 h -9.62152 v 26.80212 h -3.33557 V 50.146 H 646.725 v -2.93312 h 22.53924 m 0,-7 H 646.725 a 7,7 0 0 0 -7,7 V 50.146 a 7,7 0 0 0 7,7 h 2.58212 v 19.80214 a 7,7 0 0 0 7,7 h 3.33557 a 7,7 0 0 0 7,-7 V 57.146 h 2.62152 a 7,7 0 0 0 7,-7 v -2.93312 a 7,7 0 0 0 -7,-7 z"
       id="path71"
       inkscape:connector-curvature="0"
       style="fill:none;stroke:#00ffff;stroke-opacity:1;stroke-width:1.88976378;stroke-miterlimit:4;stroke-dasharray:none" />
    <path
       d="m 656.30762,80.44808 a 3.50048,3.50048 0 0 1 -3.5,-3.5 V 53.64584 h -6.083 a 3.50017,3.50017 0 0 1 -3.5,-3.5 v -2.93311 a 3.50017,3.50017 0 0 1 3.5,-3.5 h 22.54 a 3.50017,3.50017 0 0 1 3.5,3.5 v 2.93311 a 3.50017,3.50017 0 0 1 -3.5,3.5 h -6.12207 v 23.30224 a 3.50048,3.50048 0 0 1 -3.5,3.5 z"
       id="path69"
       inkscape:connector-curvature="0"
       style="fill:#ffffff;fill-opacity:1" />
    <path
       d="M 354.20051,47.21275 V 76.948 h -3.215 l -17.11546,-25.034 0.0806,25.034 h -3.215 V 47.21275 h 3.375 l 16.91547,24.83284 -0.0407,-24.83284 h 3.215 m 0,-7 h -3.215 a 7.00005,7.00005 0 0 0 -7,7.01146 l 0.003,2.05625 -4.09284,-6.00853 a 7,7 0 0 0 -5.78533,-3.05918 h -3.375 a 7,7 0 0 0 -7,7 V 76.948 a 7,7 0 0 0 7,7 h 3.215 a 7,7 0 0 0 7,-7.02254 l -0.007,-2.2629 4.2636,6.23617 a 7,7 0 0 0 5.77857,3.04927 h 3.215 a 7,7 0 0 0 7,-7 V 47.21275 a 7,7 0 0 0 -7,-7 z"
       id="path75"
       inkscape:connector-curvature="0"
       style="fill:none;stroke:#00ffff;stroke-opacity:1;stroke-width:1.88976378;stroke-miterlimit:4;stroke-dasharray:none" />
    <path
       d="m 350.98535,80.44808 a 3.49959,3.49959 0 0 1 -2.88916,-1.52441 l -10.68945,-15.63574 0.0439,13.64843 a 3.50009,3.50009 0 0 1 -3.5,3.51172 h -3.21485 a 3.50017,3.50017 0 0 1 -3.5,-3.5 V 47.21273 a 3.49986,3.49986 0 0 1 3.5,-3.5 h 3.375 a 3.5,3.5 0 0 1 2.89258,1.52979 l 10.50391,15.42041 -0.022,-13.44434 a 3.50007,3.50007 0 0 1 3.5,-3.50586 h 3.21534 a 3.49986,3.49986 0 0 1 3.5,3.5 v 29.73535 a 3.50017,3.50017 0 0 1 -3.5,3.5 z"
       id="path73"
       inkscape:connector-curvature="0"
       style="fill:#ffffff;fill-opacity:1" />
    <path
       d="M 480.11469,86.071 A 10.46425,10.46425 0 1 1 469.54076,96.72616 V 96.6993 A 10.37374,10.37374 0 0 1 480.11469,86.071 m 0.0549,17.3603 a 6.64192,6.64192 0 0 0 6.486,-6.86694 c 0,-3.3786 -2.39807,-6.92316 -6.51344,-6.92316 a 6.59424,6.59424 0 0 0 -6.54094,6.86822 v 0.02686 h -6e-5 a 6.62758,6.62758 0 0 0 6.56842,6.895 m -0.0549,-24.3603 A 17.46443,17.46443 0 1 0 497.71553,96.535 17.41394,17.41394 0 0 0 480.11469,79.071 Z"
       id="path83"
       inkscape:connector-curvature="0"
       style="fill:none;stroke:#00ffff;stroke-opacity:1;stroke-width:1.88976378;stroke-miterlimit:4;stroke-dasharray:none" />
    <path
       d="M 480.0874,110.49886 A 13.96467,13.96467 0 1 1 494.21533,96.535 13.92752,13.92752 0 0 1 480.0874,110.49886 Z m 0.0547,-17.35742 a 3.414,3.414 0 0 0 0.0274,6.79 c 2.06,0 2.98632,-1.96875 2.98632,-3.36719 0,-1.3232 -0.81836,-3.42281 -3.01367,-3.42281 z"
       id="path81"
       inkscape:connector-curvature="0"
       style="fill:#ffffff;fill-opacity:1" />
    <path
       d="m 457.23151,47.21281 v 2.93313 h -13.17922 v 10.3267 h 13.0992 v 2.93311 h -13.0992 v 10.60919 h 13.17922 v 2.93312 H 440.75672 V 47.21281 h 16.47479 m 0,-7 h -16.47479 a 7,7 0 0 0 -7,7 v 29.73525 a 7,7 0 0 0 7,7 h 16.47479 a 7,7 0 0 0 7,-7 v -2.93312 a 6.98435,6.98435 0 0 0 -2.47272,-5.33908 6.9832,6.9832 0 0 0 2.3927,-5.27011 v -2.93311 a 6.98038,6.98038 0 0 0 -2.23373,-5.1267 6.98218,6.98218 0 0 0 2.31375,-5.2 v -2.93313 a 7,7 0 0 0 -7,-7 z"
       id="path79"
       inkscape:connector-curvature="0"
       style="fill:none;stroke:#00ffff;stroke-opacity:1;stroke-width:1.88976378;stroke-miterlimit:4;stroke-dasharray:none" />
    <path
       d="m 440.75684,80.44808 a 3.50017,3.50017 0 0 1 -3.5,-3.5 V 47.21273 a 3.49985,3.49985 0 0 1 3.5,-3.5 h 16.47461 a 3.49986,3.49986 0 0 1 3.5,3.5 v 2.93311 a 3.49987,3.49987 0 0 1 -3.5,3.5 h -9.6792 v 3.32666 h 9.59912 a 3.50017,3.50017 0 0 1 3.5,3.5 v 2.93359 a 3.50017,3.50017 0 0 1 -3.5,3.5 h -9.59912 v 3.6084 h 9.6792 a 3.50017,3.50017 0 0 1 3.5,3.5 v 2.93359 a 3.50017,3.50017 0 0 1 -3.5,3.5 z"
       id="path77"
       inkscape:connector-curvature="0"
       style="fill:#ffffff;fill-opacity:1" />
    <path
       d="M 533.94647,86.071 A 10.46424,10.46424 0 1 1 523.37311,96.72616 V 96.6993 A 10.37364,10.37364 0 0 1 533.94647,86.071 m 0.0544,17.3603 a 6.642,6.642 0 0 0 6.486,-6.86694 c 0,-3.3786 -2.39868,-6.92316 -6.513,-6.92316 a 6.59377,6.59377 0 0 0 -6.54032,6.86822 v 0.02686 a 6.62773,6.62773 0 0 0 6.56726,6.895 m -0.0544,-24.3603 A 17.46443,17.46443 0 1 0 551.54791,96.535 17.41367,17.41367 0 0 0 533.94647,79.071 Z"
       id="path87"
       inkscape:connector-curvature="0"
       style="fill:none;stroke:#00ffff;stroke-opacity:1;stroke-width:1.88976378;stroke-miterlimit:4;stroke-dasharray:none" />
    <path
       d="M 533.91992,110.49886 A 13.96468,13.96468 0 1 1 548.04785,96.535 13.92795,13.92795 0 0 1 533.91992,110.49886 Z m 0.0537,-17.35742 a 3.41411,3.41411 0 0 0 0.0274,6.79 c 2.05957,0 2.98633,-1.96875 2.98633,-3.36719 0,-1.3232 -0.81831,-3.42281 -3.01368,-3.42281 z"
       id="path85"
       inkscape:connector-curvature="0"
       style="fill:#ffffff;fill-opacity:1" />
    <path
       d="m 448.77556,86.07275 a 10.27458,10.27458 0 0 1 9.892,7.25036 h -4.27838 a 6.26936,6.26936 0 0 0 -5.64111,-3.6795 6.90887,6.90887 0 0 0 0.0274,13.7901 6.35582,6.35582 0 0 0 5.61366,-3.57026 l 4.27838,-0.0026 v 1.8e-4 a 10.12811,10.12811 0 0 1 -9.86511,7.13984 10.46452,10.46452 0 1 1 -0.0269,-20.92816 m 0,-7 a 17.46435,17.46435 0 1 0 0.0269,34.92816 17.044,17.044 0 0 0 16.58081,-12.16514 6.9999,6.9999 0 0 0 -0.5258,-5.24369 7.00047,7.00047 0 0 0 0.571,-5.08287 17.15682,17.15682 0 0 0 -16.619,-12.43638 l -0.034,-8e-5 z"
       id="path91"
       inkscape:connector-curvature="0"
       style="fill:none;stroke:#00ffff;stroke-opacity:1;stroke-width:1.88976378;stroke-miterlimit:4;stroke-dasharray:none" />
    <path
       d="m 448.80274,110.50082 a 13.96413,13.96413 0 1 1 13.24511,-18.085 3.499,3.499 0 0 1 -2.12988,4.17578 3.50126,3.50126 0 0 1 2.10742,4.25683 13.5686,13.5686 0 0 1 -13.22265,9.65239 z m -0.0854,-17.35743 c -2.13965,0 -2.92774,2.01368 -2.92774,3.36719 a 3.17306,3.17306 0 0 0 2.98584,3.42285 2.79388,2.79388 0 0 0 2.50489,-1.67871 3.49655,3.49655 0 0 1 1.86084,-1.66113 3.50268,3.50268 0 0 1 -1.94288,-1.832 2.79819,2.79819 0 0 0 -2.48095,-1.6182 z"
       id="path89"
       inkscape:connector-curvature="0"
       style="fill:#ffffff;fill-opacity:1" />
    <path
       d="m 506.76636,86.45434 v 16.596 h 6.62219 v 3.5702 h -10.68207 v -20.1662 h 4.05988 m 0,-7 h -4.05988 a 7,7 0 0 0 -7,7 v 20.1662 a 7,7 0 0 0 7,7 h 10.68207 a 7,7 0 0 0 7,-7 v -3.5702 a 7.00018,7.00018 0 0 0 -6.62219,-6.99 v -9.606 a 7,7 0 0 0 -7,-7 z"
       id="path95"
       inkscape:connector-curvature="0"
       style="fill:none;stroke:#00ffff;stroke-opacity:1;stroke-width:1.88976378;stroke-miterlimit:4;stroke-dasharray:none" />
    <path
       d="m 502.70606,110.12093 a 3.50017,3.50017 0 0 1 -3.5,-3.5 v -20.167 a 3.50017,3.50017 0 0 1 3.5,-3.5 h 4.06054 a 3.50048,3.50048 0 0 1 3.5,3.5 v 13.09669 h 3.12207 a 3.50048,3.50048 0 0 1 3.5,3.5 v 3.57031 a 3.50048,3.50048 0 0 1 -3.5,3.5 z"
       id="path93"
       inkscape:connector-curvature="0"
       style="fill:#ffffff;fill-opacity:1" />
    <path
       d="m 527.23236,10.87151 c 1.8015,1.245 3.57025,2.46852 5.34668,3.69624 -3.21075,3.8288 -6.41192,7.64624 -9.63525,11.48816 -1.12738,-0.69562 -2.24462,-1.38472 -3.3935,-2.09413 q 3.82554,-6.51617 7.68207,-13.09027 m -1.2e-4,-7 a 7.00027,7.00027 0 0 0 -6.03717,3.45729 l -1.95532,3.3322 -5.726,9.75678 a 7,7 0 0 0 2.35889,9.5 l 2.54114,1.56822 0.85429,0.52708 a 6.99889,6.99889 0 0 0 9.03836,-1.45808 l 9.32557,-11.11885 0.3107,-0.37052 A 7,7 0 0 0 536.55883,8.80919 l -2.608,-1.803 -2.73871,-1.89331 a 7.00006,7.00006 0 0 0 -3.97987,-1.2414 z"
       id="path119"
       inkscape:connector-curvature="0"
       style="fill:none;stroke:#00ffff;stroke-opacity:1;stroke-width:1.88976378;stroke-miterlimit:4;stroke-dasharray:none" />
    <path
       d="m 516.10938,26.34066 a 3.4891,3.4891 0 0 1 -0.707,-0.07227 l -3.83594,-0.79052 a 3.49985,3.49985 0 0 1 -2.75488,-3.94678 l 2.2539,-15.04883 a 3.49578,3.49578 0 0 1 3.96582,-2.94482 l 7.042,1.03027 a 3.50031,3.50031 0 0 1 2.77735,4.67334 l -5.459,14.81006 a 3.50287,3.50287 0 0 1 -3.28225,2.28955 z"
       id="path105"
       inkscape:connector-curvature="0"
       style="fill:none;fill-opacity:1" />
    <path
       d="m 510.45445,26.77889 q 0.27017,0 0.5426,0.0097 a 16.02545,16.02545 0 0 1 11.39441,5.14789 14.9412,14.9412 0 0 1 3.43593,6.06978 17.02829,17.02829 0 0 1 0.77562,5.26847 16.01,16.01 0 0 1 -2.26673,8.09651 19.84043,19.84043 0 0 1 -6.37312,6.49731 27.489,27.489 0 0 1 -5.20158,2.619 q -6.91029,-5.71629 -13.82891,-11.4386 c 1.43132,-4.04676 2.86205,-8.08568 4.29931,-12.14678 3.94523,-0.03883 7.89288,-0.077 11.8811,-0.11524 v 5.86559 h -7.72687 c -0.50519,1.84693 -1.00792,3.6891 -1.51611,5.54794 2.68109,1.90069 5.3509,3.79294 8.07979,5.72826 0.74516,-0.65388 1.5137,-1.28565 2.23266,-1.96991 a 17.76271,17.76271 0 0 0 2.71269,-3.33443 9.8824,9.8824 0 0 0 0.60134,-10.36254 10.14622,10.14622 0 0 0 -2.948,-3.76551 8.5269,8.5269 0 0 0 -5.02247,-1.72869 c -0.1458,-0.0047 -0.29065,-0.007 -0.4353,-0.007 a 15.57456,15.57456 0 0 0 -7.1787,1.88564 q -3.409,1.752 -6.827,3.48664 -2.41562,1.23422 -4.83135,2.47088 a 0.899,0.899 0 0 0 -0.0973,0.06567 q 9.69221,19.26729 19.38635,38.55129 c -1.8194,0.78283 -3.60187,1.55009 -5.42548,2.33354 q -10.77069,-21.97045 -21.55878,-43.963 1.07575,-0.51051 2.14966,-1.02112 3.17709,-1.5065 6.35468,-3.01367 c 2.40161,-1.14109 4.808,-2.27447 7.20257,-3.4323 1.07483,-0.52069 2.121,-1.10108 3.18929,-1.63848 a 15.425,15.425 0 0 1 6.99968,-1.70675 m 0,-7 a 22.41908,22.41908 0 0 0 -10.14286,2.452 c -0.48909,0.246 -0.97156,0.49876 -1.45376,0.75174 -0.54553,0.28619 -1.09031,0.57333 -1.64416,0.84164 q -2.66526,1.28875 -5.35272,2.5544 l -1.80213,0.855 -4.42054,2.09681 -1.92919,0.91452 -1.1799,0.5604 -0.97169,0.46162 a 7,7 0 0 0 -3.28382,9.40627 l 5.43852,11.08931 q 8.065,16.44441 16.11982,32.8728 a 6.9951,6.9951 0 0 0 9.04847,3.35026 l 4.47675,-1.92531 0.95225,-0.40976 a 7,7 0 0 0 3.48739,-9.57445 q -2.169,-4.314 -4.33585,-8.62361 a 6.993,6.993 0 0 0 1.79425,-0.42439 34.66632,34.66632 0 0 0 6.51926,-3.28836 26.88265,26.88265 0 0 0 8.57452,-8.7845 22.97507,22.97507 0 0 0 3.25327,-11.5825 24.09906,24.09906 0 0 0 -1.08388,-7.42338 21.9704,21.9704 0 0 0 -5.06752,-8.85069 23.1517,23.1517 0 0 0 -16.20482,-7.30582 q -0.39738,-0.01414 -0.79164,-0.0141 z"
       id="path111"
       inkscape:connector-curvature="0"
       style="fill:none;fill-opacity:1;stroke:#00ffff;stroke-width:1.89;stroke-miterlimit:4;stroke-dasharray:none;stroke-opacity:1" />
    <path
       d="m 528.57227,35.85677 a 3.498,3.498 0 0 1 -2.91016,-1.55175 l -2.55664,-3.81983 a 3.49937,3.49937 0 0 1 0.58887,-4.56592 l 11.05273,-9.78759 a 3.50035,3.50035 0 0 1 2.32031,-0.87989 3.45728,3.45728 0 0 1 0.51075,0.0376 3.5006,3.5006 0 0 1 2.46777,1.624 l 3.72559,6.03711 a 3.49975,3.49975 0 0 1 -1.13575,4.81543 l -12.22461,7.5669 a 3.49172,3.49172 0 0 1 -1.83886,0.52394 z"
       id="path113"
       inkscape:connector-curvature="0"
       style="fill:none;fill-opacity:1" />
    <path
       d="m 511.5428,79.2207 c -1.81944,0.78283 -3.60187,1.55013 -5.42551,2.33357 q -10.77072,-21.97047 -21.55874,-43.963 1.07571,-0.51054 2.14966,-1.02109 3.177,-1.50656 6.35465,-3.01371 c 2.40165,-1.14111 4.80808,-2.27446 7.20256,-3.4323 1.07483,-0.52069 2.121,-1.1011 3.18927,-1.63852 a 15.36967,15.36967 0 0 1 7.54232,-1.697 16.0253,16.0253 0 0 1 11.39441,5.14785 14.94045,14.94045 0 0 1 3.43589,6.06982 17.02748,17.02748 0 0 1 0.77567,5.26847 16.00972,16.00972 0 0 1 -2.26671,8.09647 19.84128,19.84128 0 0 1 -6.37316,6.49736 27.49334,27.49334 0 0 1 -5.20157,2.619 q -6.91027,-5.71632 -13.82892,-11.4386 c 1.43132,-4.04675 2.862,-8.08573 4.29933,-12.1468 3.94524,-0.03881 7.89285,-0.077 11.88108,-0.11525 v 5.8656 h -7.72685 c -0.50517,1.84692 -1.008,3.68907 -1.51611,5.54793 2.6811,1.90066 5.35087,3.793 8.07975,5.72826 0.7452,-0.65385 1.51372,-1.28563 2.23266,-1.96993 a 17.76209,17.76209 0 0 0 2.71275,-3.33437 9.88275,9.88275 0 0 0 0.60131,-10.36257 10.14632,10.14632 0 0 0 -2.948,-3.7655 8.52673,8.52673 0 0 0 -5.02245,-1.72869 15.38693,15.38693 0 0 0 -7.614,1.87857 q -3.409,1.752 -6.827,3.48664 -2.41569,1.23426 -4.83136,2.47092 a 0.89943,0.89943 0 0 0 -0.0973,0.06568 q 9.69231,19.26726 19.38638,38.55125 z m 4.56506,-56.38033 c -1.291,-0.26572 -2.54616,-0.52488 -3.83536,-0.7906 q 1.12588,-7.51935 2.25356,-15.04884 c 2.3497,0.34275 4.6767,0.68371 7.04075,1.02945 -1.82423,4.949 -3.63831,9.86994 -5.45895,14.80999 z"
       id="path131"
       inkscape:connector-curvature="0"
       style="fill:#ffffff;fill-opacity:1;stroke:#ffffff;stroke-opacity:1;stroke-width:1.88976378;stroke-miterlimit:4;stroke-dasharray:none" />
    <path
       d="m 522.94141,29.556 a 3.48818,3.48818 0 0 1 -1.83692,-0.522 l -3.39355,-2.09473 a 3.49967,3.49967 0 0 1 -1.17871,-4.749 L 524.21387,9.09994 A 3.50051,3.50051 0 0 1 529.22266,7.992 l 5.34668,3.69629 a 3.5,3.5 0 0 1 0.6914,5.12841 L 525.625,28.3055 a 3.49663,3.49663 0 0 1 -2.68359,1.2505 z"
       id="path117"
       inkscape:connector-curvature="0"
       style="fill:none;fill-opacity:1" />
    <path
       d="m 614.71475,76.948 h 4.1393 L 603.40571,62.0389 617.60724,47.21219 h -3.61562 L 598.40356,63.33348 V 47.21279 h -3.295 V 76.948 h 3.295 v -9.69019 l 3.03341,-3.16836 13.27775,12.85855 z"
       id="path125"
       inkscape:connector-curvature="0"
       style="fill:#ffffff;stroke:none;fill-opacity:1" />
    <path
       d="M 511.5428,79.2207 Q 501.83528,59.91491 492.1594,40.66885 a 0.79556,0.79556 0 0 1 0.0973,-0.06568 q 2.41569,-1.23606 4.83138,-2.47092 3.41438,-1.743 6.827,-3.48664 a 15.3932,15.3932 0 0 1 7.614,-1.87857 8.52273,8.52273 0 0 1 5.02245,1.72869 10.16478,10.16478 0 0 1 2.948,3.7655 9.8842,9.8842 0 0 1 -0.60071,10.36257 17.78811,17.78811 0 0 1 -2.71336,3.33437 c -0.71893,0.68431 -1.48745,1.31607 -2.23266,1.96993 -2.72828,-1.9353 -5.39865,-3.8276 -8.07975,-5.72826 0.50935,-1.85886 1.01094,-3.701 1.51611,-5.54793 h 7.72681 v -5.86559 c -3.99,0.03821 -7.93586,0.07584 -11.88109,0.11524 -1.43728,4.06108 -2.868,8.10006 -4.29932,12.1468 q 6.9282,5.73066 13.82891,11.4392 a 27.47078,27.47078 0 0 0 5.20278,-2.6196 19.82642,19.82642 0 0 0 6.372,-6.49737 16.02113,16.02113 0 0 0 2.26669,-8.09647 17.048,17.048 0 0 0 -0.77507,-5.26847 14.9525,14.9525 0 0 0 -3.43648,-6.06981 16.025,16.025 0 0 0 -11.39382,-5.14784 15.37712,15.37712 0 0 0 -7.54293,1.697 c -1.06826,0.53742 -2.11444,1.11782 -3.18927,1.63852 -2.39448,1.15783 -4.80091,2.29119 -7.20256,3.4323 q -3.177,1.51014 -6.35466,3.01371 -1.07393,0.50965 -2.14965,1.02109 10.78947,21.99915 21.55874,43.96366 c 1.82065,-0.78344 3.60367,-1.55134 5.42252,-2.33358 z"
       id="path129"
       inkscape:connector-curvature="0"
       style="fill:none" />
    <path
       d="m 537.06709,18.75183 c 1.2468,2.01889 2.47629,4.01271 3.72668,6.03817 q -6.10773,3.78162 -12.22442,7.56622 c -0.85627,-1.27786 -1.69584,-2.53242 -2.55452,-3.81625 q 5.52197,-4.8896 11.05226,-9.78814 z"
       id="path133"
       inkscape:connector-curvature="0"
       style="fill:none;fill-opacity:0.98139536" />
    <path
       d="m 527.23235,10.87152 c 1.80153,1.245 3.57024,2.46853 5.34669,3.69623 -3.21075,3.82879 -6.412,7.64623 -9.63527,11.48816 -1.12739,-0.69566 -2.24462,-1.38474 -3.39349,-2.09413 q 3.82551,-6.51616 7.68207,-13.09026 z"
       id="path135"
       inkscape:connector-curvature="0"
       style="fill:#ffffff;fill-opacity:1;stroke:#ffffff;stroke-opacity:1" />
    <path
       inkscape:connector-curvature="0"
       id="path1019"
       d="m 530.65741,29.600385 c -0.13029,-0.156982 0.70327,-1.194915 5.88746,-7.331012 l 0.89035,-1.053828 1.00008,1.628074 1.00008,1.628075 -4.26981,2.644283 c -2.34839,1.454356 -4.29358,2.644284 -4.32264,2.644284 -0.0291,0 -0.11255,-0.07194 -0.18552,-0.159876 z"
       style="opacity:1;vector-effect:none;fill:#fffffe;fill-opacity:1;stroke:#ffffff;stroke-width:0.20787402;stroke-linecap:butt;stroke-linejoin:miter;stroke-miterlimit:4;stroke-dasharray:none;stroke-dashoffset:0;stroke-opacity:1" />
    <path
       inkscape:connector-curvature="0"
       id="path1023"
       d="m 529.1342,27.523536 -0.22086,-0.239067 1.39215,-1.229132 c 0.76568,-0.676022 1.40954,-1.211736 1.4308,-1.190475 0.0213,0.02126 -0.50582,0.68195 -1.17129,1.468199 l -1.20995,1.429542 z"
       style="opacity:1;vector-effect:none;fill:#fffffe;fill-opacity:1;stroke:none;stroke-width:0.20794056;stroke-linecap:butt;stroke-linejoin:miter;stroke-miterlimit:4;stroke-dasharray:none;stroke-dashoffset:0;stroke-opacity:1" />
    <path
       d="m 537.51922,19.024243 c 1.38627,1.69523 2.74694,3.360741 4.1139,5.032402 -4.14554,2.78982 -8.2788,5.571365 -12.44,8.370344 -0.89063,-0.980677 -1.77332,-1.952217 -2.68079,-2.952036 q 5.4805,-5.201818 11.00689,-10.45071 z"
       id="path135-8"
       inkscape:connector-curvature="0"
       style="fill:#ffffff;fill-opacity:1;stroke:#ffffff;stroke-opacity:1" />
  </g>
</svg>
