<?xml version="1.0" encoding="UTF-8" standalone="no"?>
<svg
   xmlns:dc="http://purl.org/dc/elements/1.1/"
   xmlns:cc="http://creativecommons.org/ns#"
   xmlns:rdf="http://www.w3.org/1999/02/22-rdf-syntax-ns#"
   xmlns:svg="http://www.w3.org/2000/svg"
   xmlns="http://www.w3.org/2000/svg"
   xmlns:sodipodi="http://sodipodi.sourceforge.net/DTD/sodipodi-0.dtd"
   xmlns:inkscape="http://www.inkscape.org/namespaces/inkscape"
   viewBox="0 0 1000 114"
   version="1.1"
   id="svg33"
   sodipodi:docname="logo.svg"
   inkscape:version="0.92.4 (5da689c313, 2019-01-14)">
  <metadata
     id="metadata39">
    <rdf:RDF>
      <cc:Work
         rdf:about="">
        <dc:format>image/svg+xml</dc:format>
        <dc:type
           rdf:resource="http://purl.org/dc/dcmitype/StillImage" />
        <dc:title>logo</dc:title>
      </cc:Work>
    </rdf:RDF>
  </metadata>
  <defs
     id="defs37" />
  <sodipodi:namedview
     pagecolor="#ffffff"
     bordercolor="#666666"
     borderopacity="1"
     objecttolerance="10"
     gridtolerance="10"
     guidetolerance="10"
     inkscape:pageopacity="0"
     inkscape:pageshadow="2"
     inkscape:window-width="1920"
     inkscape:window-height="1017"
     id="namedview35"
     showgrid="false"
     inkscape:pagecheckerboard="true"
     inkscape:zoom="2.272"
     inkscape:cx="500"
     inkscape:cy="57"
     inkscape:window-x="-8"
     inkscape:window-y="-8"
     inkscape:window-maximized="1"
     inkscape:current-layer="svg33" />
  <title
     id="title2">logo</title>
  <g
     id="g933">
    <g
       style="stroke:#00ffff;stroke-opacity:1;fill:none"
       id="g917">
      <g
         style="stroke:#00ffff;stroke-opacity:1;fill:none"
         id="g909">
        <path
           d="m 305.74,12.54 a 63.67,63.67 0 0 1 21,3.69 C 325.6,24.61 324,33.5 324,33.5 a 38.71,38.71 0 0 0 -15.93,-3.08 c -10.43,0 -21.87,3.26 -29.66,10.06 -15,13.15 -11.72,27.41 -8.16,33.8 3.88,7 11.35,9.68 18.16,9.68 a 23.13,23.13 0 0 0 8.43,-1.53 l 1.55,-8.53 h -13.51 l 2.51,-16 h 32.41 l -4.87,31 32.62,-74 h 21.53 l 11.46,68.69 22.31,-68.69 h 17.27 l 8.54,46.58 19.8,-46.58 h 21 l 3.68,85 H 455.63 L 453.3,47.28 430.6,99.86 H 419 l -9.71,-47.54 -15.16,47.54 h -29.7 L 360,74.45 H 339.8 L 328.34,99.86 H 310.1 l 2.55,-5.8 -0.62,0.37 a 46,46 0 0 1 -23,6.32 c -19.65,0 -36.84,-13.1 -38.63,-31 -2.13,-21.34 5.87,-37 22.51,-47.34 v 0 c 8.28,-5.15 19.34,-9.92 32.92,-9.92 m 41,45.41 h 10.58 L 354.2,41.4 346.77,58 m -41,-52.41 v 0 c -12.52,0 -24.8,3.66 -36.49,10.88 l -0.1,0.07 c -19.22,11.89 -28.13,30.56 -25.79,54 a 39.33,39.33 0 0 0 15.24,27 49,49 0 0 0 30.37,10.21 52.19,52.19 0 0 0 16.44,-2.69 7,7 0 0 0 4.7,1.8 h 18.24 a 7,7 0 0 0 6.38,-4.12 l 9.6,-21.29 h 9.79 l 3.43,19.62 a 7,7 0 0 0 6.89,5.79 h 29.7 A 7,7 0 0 0 400.8,102 l 7,-21.92 4.33,21.2 a 7,7 0 0 0 6.86,5.59 h 11.61 a 7,7 0 0 0 6.42,-4.22 L 447.66,78 l 1,22.16 a 7,7 0 0 0 7,6.69 h 17.46 a 7.05,7.05 0 0 0 5.06,-2.15 7,7 0 0 0 1.93,-5.15 l -3.68,-85 a 7,7 0 0 0 -7,-6.7 h -21 A 7,7 0 0 0 442,12.13 L 431.34,37.25 427,13.61 a 7,7 0 0 0 -6.89,-5.74 h -17.26 a 7,7 0 0 0 -6.66,4.84 L 382.73,54.16 376,13.72 a 7,7 0 0 0 -6.91,-5.85 h -21.54 a 7,7 0 0 0 -6.41,4.18 l -10.61,24.08 a 7.7,7.7 0 0 0 0.41,-1.42 C 331,34.34 332.53,25.6 333.7,17.2 A 7,7 0 0 0 329.06,9.62 71.24,71.24 0 0 0 305.75,5.54 Z M 324,40.5 a 7,7 0 0 0 6.32,-4 L 323.53,52 a 7,7 0 0 0 -3.73,-1 h -32.41 a 7,7 0 0 0 -6.91,5.91 l -2.51,16 v 0.18 A 10.3,10.3 0 0 1 276.44,71 c -1.7,-3 -6.23,-13.85 6.65,-25.12 6,-5.21 15.34,-8.33 25.05,-8.33 a 32,32 0 0 1 13,2.44 7.06,7.06 0 0 0 2.93,0.64 z"
           id="path9"
           style="fill:none;fill-opacity:1;stroke:#00ffff;stroke-opacity:1"
           inkscape:connector-curvature="0" />
        <path
           d="m 536.35,14.87 v 0 m 0,0 -2.91,18.24 H 503 l -2.33,15.14 h 26.78 l -2.91,18.24 H 498 l -2.4,15.13 h 30.47 l -2.91,18.24 h -48.71 l 13.58,-85 h 48.32 m 0,-7 H 488 a 7,7 0 0 0 -6.91,5.9 l -13.58,85 a 7,7 0 0 0 5.81,8 6.8,6.8 0 0 0 1.1,0.09 h 48.71 A 7,7 0 0 0 530,101 l 3,-18.24 a 7,7 0 0 0 -6.92,-8.11 h -22.27 l 0.18,-1.13 h 20.53 a 7,7 0 0 0 6.91,-5.9 l 2.91,-18.24 a 7,7 0 0 0 -5.81,-8 6.8,6.8 0 0 0 -1.1,-0.09 h -18.62 l 0.17,-1.14 h 24.46 a 7,7 0 0 0 6.91,-5.9 l 2.87,-18 a 6.59,6.59 0 0 0 0.13,-1.33 7,7 0 0 0 -7,-7 z"
           id="path11"
           style="fill:none;fill-opacity:1;stroke:#00ffff;stroke-opacity:1"
           inkscape:connector-curvature="0" />
        <path
           d="m 750,14.87 v 0 m 0,0 -31.44,49.48 -5.36,35.51 H 695.73 L 702.06,59.69 681.5,14.87 h 20 l 10.87,27.75 17.27,-27.75 H 750 m 0,-7 h -20.38 a 7,7 0 0 0 -5.94,3.3 L 713.78,27.08 708,12.32 a 7,7 0 0 0 -6.52,-4.45 h -20 a 7,7 0 0 0 -6.36,9.92 l 19.68,42.9 -6,38.08 a 7,7 0 0 0 5.82,8 6.8,6.8 0 0 0 1.1,0.09 h 17.48 a 7,7 0 0 0 6.92,-6 l 5.14,-34 30.55,-48.09 A 7,7 0 0 0 750,7.87 Z"
           id="path13"
           style="fill:none;fill-opacity:1;stroke:#00ffff;stroke-opacity:1"
           inkscape:connector-curvature="0" />
        <path
           d="m 658,14.84 a 30.23,30.23 0 0 1 6.77,0.77 c 19.35,4.47 30.64,27.16 25.23,50.64 -4.79,20.75 -21,35.21 -38.13,35.21 a 30.23,30.23 0 0 1 -6.77,-0.77 C 625.7,96.22 614.45,73.55 619.88,50.05 v 0 c 4.79,-20.75 21,-35.21 38.09,-35.21 m -6.61,69.92 c 8,0 16.34,-7.55 20.21,-19.19 4.7,-14.13 1,-28.95 -8.19,-33.09 a 12.32,12.32 0 0 0 -5,-1.08 c -8,0 -16.33,7.56 -20.21,19.2 -4.71,14.14 -1.06,28.94 8.19,33.08 a 12.39,12.39 0 0 0 5,1.08 M 658,7.84 c -20.37,0 -39.09,16.75 -44.74,39.93 -0.08,0.23 -0.15,0.47 -0.21,0.71 -3,13 -1.61,26.14 3.86,37.14 5.71,11.48 15.16,19.25 26.61,21.89 a 37.26,37.26 0 0 0 8.35,0.95 c 20.61,0 39.52,-17.09 45,-40.64 6.28,-27.21 -7.39,-53.69 -30.48,-59 A 37.13,37.13 0 0 0 658,7.84 Z m -6.61,69.92 A 5.32,5.32 0 0 1 649.2,77.29 C 644,75 640.9,64.35 644.75,52.81 647.87,43.45 654.07,38.4 658.32,38.4 a 5.36,5.36 0 0 1 2.19,0.47 c 5.16,2.31 8.14,13.27 4.41,24.49 -3.12,9.35 -9.32,14.4 -13.57,14.4 z"
           id="path15"
           style="fill:none;fill-opacity:1;stroke:#00ffff;stroke-opacity:1"
           inkscape:connector-curvature="0" />
        <path
           d="m 582.79,15.27 c 4.85,0 9.53,0 12.68,0.07 11.75,0.19 33.7,18.1 11.56,41 21.54,19.48 -2.12,43.33 -18.29,43.33 h -39.28 l 13.47,-84.34 h -0.2 c 0,0 10.36,-0.07 20.06,-0.07 M 575.25,49 h 12.11 c 11.71,0 14.25,-15.79 1.93,-15.79 H 577.92 L 575.25,49 m -5.39,34.23 h 15.4 c 15.41,0 15.79,-16.9 1.93,-16.9 h -14.66 l -2.67,16.9 m 12.93,-75 c -9.62,0 -20,0.07 -20.11,0.07 a 7,7 0 0 0 -6.95,7 v 0.52 l -13.19,82.76 a 7,7 0 0 0 6.92,8.11 h 39.28 c 12.72,0 27.08,-10.4 32,-23.19 3.63,-9.41 2,-19.08 -4.35,-27.32 9.58,-12.78 7.5,-23.6 5.15,-29.27 -4.75,-11.44 -16.93,-18.42 -26,-18.57 -2.82,0 -7.12,-0.07 -12.79,-0.07 z m 1.05,32 h 5.45 a 4.27,4.27 0 0 1 1.07,0.1 1.89,1.89 0 0 1 -0.41,0.73 3.31,3.31 0 0 1 -2.59,1 h -3.82 l 0.3,-1.79 z m -5.33,33.12 h 8.68 c 2.13,0 3,0.68 3,1 a 1.16,1.16 0 0 1 -0.51,0.78 c -0.41,0.35 -1.67,1.17 -4.45,1.17 H 578 l 0.45,-2.9 z"
           id="path17"
           style="fill:none;fill-opacity:1;stroke:#00ffff;stroke-opacity:1"
           inkscape:connector-curvature="0" />
      </g>
    </g>
    <g
       style="fill:#ffffff;fill-opacity:1;stroke:none;stroke-opacity:1"
       id="Capa_1"
       data-name="Capa 1">
      <path
         d="M 357.35,58 354.14,41.5 346.77,58 h 10.58 M 473.09,99.86 H 455.63 L 453.3,47.28 430.6,99.86 H 419 l -9.71,-47.54 -15.16,47.54 h -29.7 L 360,74.45 H 339.8 L 328.34,99.86 H 310.1 l 37.45,-85 h 21.53 l 11.46,68.69 22.31,-68.69 h 17.27 l 8.54,46.58 19.8,-46.58 h 21 l 3.68,85"
         id="path19"
         inkscape:connector-curvature="0"
         style="fill:#ffffff;fill-opacity:1;stroke:none;stroke-opacity:1" />
      <path
         style="fill:#ffffff;fill-opacity:1;stroke:none;stroke-opacity:1"
         d="m 523.16,99.86 2.92,-18.23 H 495.6 l 2.42,-15.14 h 26.5 l 2.91,-18.24 h -26.78 l 2.33,-15.14 h 30.46 l 2.91,-18.24 h -48.32 l -13.58,84.99 h 48.71"
         id="polyline21" />
      <path
         style="fill:#ffffff;fill-opacity:1;stroke:none;stroke-opacity:1"
         d="M 750,14.87 H 729.62 L 712.35,42.62 701.48,14.87 H 681.5 l 20.56,44.82 -6.33,40.17 H 713.2 L 718.56,64.35 750,14.87"
         id="polyline23" />
      <path
         d="m 646.3,83.68 c 9.24,4.13 20.55,-4 25.26,-18.11 4.71,-14.11 1.05,-28.95 -8.19,-33.09 -9.24,-4.14 -20.55,4 -25.26,18.12 -4.71,14.12 -1.06,28.94 8.19,33.08 M 619.87,50.05 c 5.43,-23.48 25.51,-38.91 44.86,-34.44 19.35,4.47 30.64,27.16 25.27,50.64 -5.37,23.48 -25.51,38.91 -44.9,34.44 -19.39,-4.47 -30.65,-27.14 -25.22,-50.64"
         id="path25"
         inkscape:connector-curvature="0"
         style="fill:#ffffff;fill-opacity:1;stroke:none;stroke-opacity:1" />
      <path
         d="m 272.84,22.44 c -16.64,10.3 -24.64,26 -22.51,47.34 2.48,24.77 34.54,40.36 61.7,24.65 2.38,-1.38 1.45,-1.16 2.33,-2 L 319.8,58 h -32.41 l -2.51,16 h 13.55 l -1.55,8.53 c -7.76,3.12 -21,2 -26.59,-8.15 -3.56,-6.39 -6.87,-20.65 8.16,-33.8 12.21,-10.67 33.37,-12.61 45.59,-7 0,0 1.56,-8.89 2.72,-17.27 C 303.28,8.17 285,15 272.82,22.54"
         id="path27"
         inkscape:connector-curvature="0"
         style="fill:#ffffff;fill-opacity:1;stroke:none;stroke-opacity:1" />
      <path
         d="m 562.93,15.35 -13.47,84.34 h 39.28 c 16.17,0 39.83,-23.85 18.29,-43.33 22.14,-22.92 0.19,-40.83 -11.56,-41 -9.44,-0.16 -32.74,0 -32.74,0 h 0.19 m 9.63,51 h 14.64 c 13.86,0 13.48,16.9 -1.93,16.9 h -15.4 l 2.67,-16.9 m 5.39,-33.12 h 11.37 c 12.32,0 9.78,15.79 -1.93,15.79 h -12.11 l 2.67,-15.79"
         id="path29"
         inkscape:connector-curvature="0"
         style="fill:#ffffff;fill-opacity:1;stroke:none;stroke-opacity:1" />
    </g>
  </g>
</svg>
