<?xml version="1.0" encoding="UTF-8" standalone="no"?>
<svg
   xmlns:dc="http://purl.org/dc/elements/1.1/"
   xmlns:cc="http://creativecommons.org/ns#"
   xmlns:rdf="http://www.w3.org/1999/02/22-rdf-syntax-ns#"
   xmlns:svg="http://www.w3.org/2000/svg"
   xmlns="http://www.w3.org/2000/svg"
   xmlns:xlink="http://www.w3.org/1999/xlink"
   xmlns:sodipodi="http://sodipodi.sourceforge.net/DTD/sodipodi-0.dtd"
   xmlns:inkscape="http://www.inkscape.org/namespaces/inkscape"
   id="Calque_1"
   data-name="Calque 1"
   viewBox="0 0 1000 114.0006"
   version="1.1"
   sodipodi:docname="system.svg"
   inkscape:version="0.92.4 (5da689c313, 2019-01-14)">
  <metadata
     id="metadata255">
    <rdf:RDF>
      <cc:Work
         rdf:about="">
        <dc:format>image/svg+xml</dc:format>
        <dc:type
           rdf:resource="http://purl.org/dc/dcmitype/StillImage" />
        <dc:title>logo</dc:title>
      </cc:Work>
    </rdf:RDF>
  </metadata>
  <sodipodi:namedview
     pagecolor="#ffffff"
     bordercolor="#666666"
     borderopacity="1"
     objecttolerance="10"
     gridtolerance="10"
     guidetolerance="10"
     inkscape:pageopacity="0"
     inkscape:pageshadow="2"
     inkscape:window-width="1920"
     inkscape:window-height="1017"
     id="namedview253"
     showgrid="false"
     inkscape:zoom="2.272"
     inkscape:cx="474.52321"
     inkscape:cy="57.000301"
     inkscape:window-x="-8"
     inkscape:window-y="-8"
     inkscape:window-maximized="1"
     inkscape:current-layer="Calque_1"
     inkscape:pagecheckerboard="true" />
  <defs
     id="defs55">
    <linearGradient
       id="Degradado_sin_nombre_33"
       x1="301.86536"
       y1="110.45096"
       x2="301.86536"
       y2="3.50223"
       gradientUnits="userSpaceOnUse">
      <stop
         offset="0"
         stop-color="#6c4d9d"
         id="stop2" />
      <stop
         offset="0.04305"
         stop-color="#6855a2"
         id="stop4" />
      <stop
         offset="0.10946"
         stop-color="#5b6bb1"
         id="stop6" />
      <stop
         offset="0.19045"
         stop-color="#488ec9"
         id="stop8" />
      <stop
         offset="0.25556"
         stop-color="#35afdf"
         id="stop10" />
      <stop
         offset="0.48461"
         stop-color="#9ecf81"
         id="stop12" />
      <stop
         offset="0.65214"
         stop-color="#fdd255"
         id="stop14" />
      <stop
         offset="0.69798"
         stop-color="#fccc55"
         id="stop16" />
      <stop
         offset="0.7587"
         stop-color="#fbbb55"
         id="stop18" />
      <stop
         offset="0.82776"
         stop-color="#f8a056"
         id="stop20" />
      <stop
         offset="0.90299"
         stop-color="#f47a56"
         id="stop22" />
      <stop
         offset="0.98239"
         stop-color="#ef4957"
         id="stop24" />
      <stop
         offset="1"
         stop-color="#ee3d57"
         id="stop26" />
    </linearGradient>
    <linearGradient
       id="Degradado_sin_nombre_33-2"
       x1="337.93149"
       y1="110.47049"
       x2="337.93149"
       y2="-17904.03968"
       xlink:href="#Degradado_sin_nombre_33" />
    <linearGradient
       id="Degradado_sin_nombre_33-3"
       x1="330.94364"
       y1="113.2226"
       x2="330.94364"
       y2="3.49919"
       xlink:href="#Degradado_sin_nombre_33" />
    <linearGradient
       id="Degradado_sin_nombre_33-4"
       x1="381.92946"
       y1="113.75141"
       x2="381.92946"
       y2="-101.0624"
       xlink:href="#Degradado_sin_nombre_33" />
    <linearGradient
       id="Degradado_sin_nombre_33-5"
       x1="394.19502"
       y1="110.43924"
       x2="394.19502"
       y2="-235.83695"
       xlink:href="#Degradado_sin_nombre_33" />
    <linearGradient
       id="Degradado_sin_nombre_33-6"
       x1="397.01987"
       y1="184.67124"
       x2="397.01987"
       y2="-411.88499"
       xlink:href="#Degradado_sin_nombre_33" />
    <linearGradient
       id="Degradado_sin_nombre_33-7"
       x1="348.74834"
       y1="126.98286"
       x2="348.74834"
       y2="-4.743"
       xlink:href="#Degradado_sin_nombre_33" />
    <linearGradient
       id="Degradado_sin_nombre_33-8"
       x1="352.53392"
       y1="126.43062"
       x2="352.53392"
       y2="3.50078"
       xlink:href="#Degradado_sin_nombre_33" />
    <linearGradient
       id="Degradado_sin_nombre_33-9"
       x1="369.97384"
       y1="119.18463"
       x2="369.97384"
       y2="-14.76526"
       xlink:href="#Degradado_sin_nombre_33" />
    <linearGradient
       id="Degradado_sin_nombre_33-10"
       x1="342.09994"
       y1="28026.13065"
       x2="342.09994"
       y2="-28005.11935"
       xlink:href="#Degradado_sin_nombre_33" />
    <linearGradient
       id="Degradado_sin_nombre_33-11"
       x1="330.95694"
       y1="110.47674"
       x2="330.95694"
       y2="-11.4641"
       xlink:href="#Degradado_sin_nombre_33" />
    <linearGradient
       id="Degradado_sin_nombre_33-12"
       x1="337.91585"
       y1="110.46854"
       x2="337.91585"
       y2="3.49979"
       xlink:href="#Degradado_sin_nombre_33" />
    <linearGradient
       id="Degradado_sin_nombre_33-14"
       x1="348.03738"
       y1="130.43365"
       x2="348.03738"
       y2="3.50076"
       xlink:href="#Degradado_sin_nombre_33" />
    <linearGradient
       id="Degradado_sin_nombre_33-15"
       x1="388.30593"
       y1="606.29408"
       x2="388.30593"
       y2="-16941.3478"
       xlink:href="#Degradado_sin_nombre_33" />
    <linearGradient
       id="Degradado_sin_nombre_33-16"
       x1="371.40439"
       y1="119.91775"
       x2="371.40439"
       y2="-85.60818"
       xlink:href="#Degradado_sin_nombre_33" />
    <linearGradient
       id="Degradado_sin_nombre_33-17"
       x1="361.54119"
       y1="166.49692"
       x2="361.54119"
       y2="-54.52141"
       xlink:href="#Degradado_sin_nombre_33" />
    <linearGradient
       id="Degradado_sin_nombre_33-18"
       x1="355.03566"
       y1="120.47615"
       x2="355.03566"
       y2="-19.88597"
       xlink:href="#Degradado_sin_nombre_33" />
    <linearGradient
       id="Degradado_sin_nombre_33-19"
       x1="373.99861"
       y1="110.43924"
       x2="373.99861"
       y2="3.50125"
       xlink:href="#Degradado_sin_nombre_33" />
    <linearGradient
       id="Degradado_sin_nombre_33-21"
       x1="360.14015"
       y1="162.10406"
       x2="360.14015"
       y2="-174.10453"
       xlink:href="#Degradado_sin_nombre_33" />
    <linearGradient
       id="Degradado_sin_nombre_33-22"
       x1="360.14015"
       y1="162.10398"
       x2="360.14015"
       y2="-174.10454"
       xlink:href="#Degradado_sin_nombre_33" />
    <linearGradient
       id="Degradado_sin_nombre_33-24"
       x1="350.80633"
       y1="242.22792"
       x2="350.80633"
       y2="-170.38808"
       xlink:href="#Degradado_sin_nombre_33" />
    <linearGradient
       id="Degradado_sin_nombre_33-25"
       x1="350.80633"
       y1="242.22782"
       x2="350.80633"
       y2="-170.38809"
       xlink:href="#Degradado_sin_nombre_33" />
    <linearGradient
       id="Degradado_sin_nombre_33-27"
       x1="301.86533"
       y1="106.95079"
       x2="301.86533"
       y2="7.00233"
       xlink:href="#Degradado_sin_nombre_33" />
    <linearGradient
       id="Degradado_sin_nombre_33-28"
       x1="337.91591"
       y1="106.97016"
       x2="337.91591"
       y2="7.00062"
       xlink:href="#Degradado_sin_nombre_33" />
    <linearGradient
       id="Degradado_sin_nombre_33-29"
       x1="373.99773"
       y1="106.93917"
       x2="373.99773"
       y2="7.00076"
       xlink:href="#Degradado_sin_nombre_33" />
    <linearGradient
       id="Degradado_sin_nombre_33-30"
       x1="337.91591"
       y1="106.96822"
       x2="337.91591"
       y2="7.00135"
       xlink:href="#Degradado_sin_nombre_33" />
    <linearGradient
       id="Degradado_sin_nombre_33-31"
       x1="373.99771"
       y1="106.93916"
       x2="373.99771"
       y2="7.00156"
       xlink:href="#Degradado_sin_nombre_33" />
  </defs>
  <title
     id="title57">logo</title>
  <g
     id="g1001">
    <g
       id="g998">
      <path
         d="m 718.60186,68.4052 a 3.2270353,3.08651 0 0 1 2.62072,1.533 6.280816,6.00731 0 0 1 0,6.95 3.226753,3.08624 0 0 1 -2.62072,1.533 4.3043796,4.11694 0 0 1 -3.0864,-1.27753 5.3501907,5.11721 0 0 1 -1.48993,-3.74322 5.1838889,4.95815 0 0 1 1.48993,-3.71772 4.3044423,4.117 0 0 1 3.0864,-1.27752 m 0,-7 a 11.566571,11.06289 0 0 0 -8.19544,3.26544 12.434234,11.89277 0 0 0 -3.69956,8.7298 12.611692,12.0625 0 0 0 3.58897,8.65 q 0.0548,0.05324 0.11059,0.10535 a 11.566571,11.06289 0 0 0 8.19544,3.26544 10.411868,9.95847 0 0 0 8.57208,-4.45877 13.599591,13.00738 0 0 0 0.002,-15.09525 10.413467,9.96 0 0 0 -8.57444,-4.462 z"
         id="path70"
         inkscape:connector-curvature="0"
         style="fill:none;stroke-width:1.02251101;fill-opacity:1;stroke:#00ffff;stroke-opacity:1" />
      <path
         d="m 562.21272,39.85759 9.13765,28.20361 h -18.27543 l 9.13778,-28.20361 m 0,-7 a 7.3187648,7.00006 0 0 0 -6.99076,4.928 l -9.13778,28.20364 a 7.318702,7 0 0 0 6.99076,9.072 h 18.27543 a 7.318702,7 0 0 0 6.99076,-9.072 l -9.13765,-28.20361 a 7.318702,7 0 0 0 -6.99076,-4.928 z"
         id="path72"
         inkscape:connector-curvature="0"
         style="fill:none;stroke-width:1.02251101;fill-opacity:1;stroke:#00ffff;stroke-opacity:1" />
      <path
         d="m 729.85578,68.06279 a 4.5353265,4.33783 0 0 1 3.31157,1.365 5.5466979,5.30516 0 0 1 1.60606,3.9718 5.7259956,5.47665 0 0 1 -1.60606,3.99915 4.5358074,4.33829 0 0 1 -3.31157,1.365 3.4641926,3.31334 0 0 1 -2.78574,-1.63794 6.7742115,6.47922 0 0 1 0,-7.42517 3.4641821,3.31333 0 0 1 2.78574,-1.63782 m 0,-7 a 10.598589,10.13706 0 0 0 -8.71923,4.53989 l -0.0354,0.04727 a 14.092558,13.47888 0 0 0 0,15.52646 l 0.0353,0.04712 a 10.598526,10.137 0 0 0 8.71936,4.54019 11.781396,11.26836 0 0 0 8.49741,-3.42551 13.014743,12.448 0 0 0 3.73893,-8.93863 12.796719,12.23947 0 0 0 -3.77268,-8.94354 11.776408,11.26359 0 0 0 -8.46366,-3.39325 z"
         id="path74"
         inkscape:connector-curvature="0"
         style="fill:none;stroke-width:1.02251101;fill-opacity:1;stroke:#00ffff;stroke-opacity:1" />
      <path
         d="m 724.23402,39.06725 a 8.2718584,7.91165 0 1 1 -8.23839,7.91156 8.258047,7.89844 0 0 1 8.23839,-7.91156 m 0,-7 a 15.59054,14.91163 0 1 0 15.55703,14.91158 15.59147,14.91252 0 0 0 -15.55703,-14.91158 z"
         id="path76"
         inkscape:connector-curvature="0"
         style="fill:none;stroke-width:1.02251101;fill-opacity:1;stroke:#00ffff;stroke-opacity:1" />
      <path
         d="m 451.95499,39.85759 9.13779,28.20361 h -18.27545 l 9.13766,-28.20361 m 0,-7 a 7.318702,7 0 0 0 -6.99073,4.928 L 435.8266,65.9892 a 7.318702,7 0 0 0 6.99076,9.072 h 18.27545 a 7.318702,7 0 0 0 6.99073,-9.072 l -9.13782,-28.2036 a 7.318702,7 0 0 0 -6.99076,-4.928 z"
         id="path80"
         inkscape:connector-curvature="0"
         style="fill:none;stroke-width:1.02251101;fill-opacity:1;stroke:#00ffff;stroke-opacity:1" />
      <path
         d="m 724.23402,11.76183 a 8.2718898,7.91168 0 1 1 -8.23839,7.91168 8.2581202,7.89851 0 0 1 8.23839,-7.91168 m 0,-7 A 15.59056,14.91165 0 1 0 739.79105,19.67351 15.591522,14.91257 0 0 0 724.23402,4.76183 Z"
         id="path82"
         inkscape:connector-curvature="0"
         style="fill:none;stroke-width:1.02251101;fill-opacity:1;stroke:#00ffff;stroke-opacity:1" />
      <path
         d="m 451.95499,7.0006 q 9.79848,0 13.34849,10.59411 l 28.80845,89.40589 h -20.49801 l -7.0757,-21.83771 h -29.24061 l -7.16197,21.83771 h -20.33763 l 28.82091,-89.40589 q 3.46355,-10.594 13.3361,-10.59411 m -9.13766,61.0606 h 18.27545 L 451.95502,39.85759 442.81733,68.0612 M 451.95499,6e-4 c -5.6962,0 -15.91069,2.01432 -20.32125,15.505 l -28.82959,89.43256 a 7.318702,7 0 0 0 6.99382,9.06244 h 20.33763 a 7.318702,7 0 0 0 6.98319,-4.90488 l 5.55346,-16.93283 h 18.47199 l 5.47899,16.90982 a 7.318702,7 0 0 0 6.9907,4.92789 h 20.49801 a 7.318702,7 0 0 0 6.99412,-9.06165 L 472.29755,15.53307 472.27181,15.4548 C 467.75799,2.00833 457.60521,6e-4 451.95499,6e-4 Z"
         id="path86"
         inkscape:connector-curvature="0"
         style="fill:none;stroke-width:1.02251101;fill-opacity:1;stroke:#00ffff;stroke-opacity:1" />
      <path
         d="m 465.30347,17.59472 q -3.55633,-10.594 -13.3485,-10.5941 -9.87243,0 -13.33607,10.5941 l -28.82092,89.4059 h 20.33763 l 7.16199,-21.83771 h 29.24061 l 7.07568,21.83771 h 20.49807 z m -22.48619,50.4665 9.13765,-28.20362 9.13778,28.20362 z"
         id="path224"
         style="fill:#fff9ff;fill-opacity:1;stroke-width:1.02251101;stroke:#00ffff;stroke-opacity:1"
         inkscape:connector-curvature="0" />
      <path
         d="M 539.31893,7.0006 V 24.10226 H 516.84521 V 107.0006 H 497.16208 V 24.10226 H 474.68822 V 7.0006 h 64.63071 m 0,-7 h -64.63071 a 7.318702,7 0 0 0 -7.3187,7 v 17.10166 a 7.318702,7 0 0 0 7.3187,7 h 15.15516 v 75.89834 a 7.318702,7 0 0 0 7.3187,7 h 19.68313 a 7.318702,7 0 0 0 7.3187,-7 V 31.10226 h 15.15507 a 7.318702,7 0 0 0 7.3187,-7 V 7.0006 a 7.318702,7 0 0 0 -7.3187,-7 z"
         id="path90"
         inkscape:connector-curvature="0"
         style="fill:none;stroke-width:1.02251101;fill-opacity:1;stroke:#00ffff;stroke-opacity:1" />
      <path
         d="m 562.21272,7.0006 q 9.79829,0 13.33611,10.59411 l 28.8209,89.40589 h -20.51052 l -7.07558,-21.83771 h -29.22829 l -7.1621,21.83771 h -20.33753 l 28.82097,-89.40589 q 3.44509,-10.594 13.33604,-10.59411 m -9.13778,61.0606 h 18.27543 L 562.21272,39.85759 553.07494,68.0612 M 562.21272,6e-4 c -5.70625,0 -15.93455,2.01564 -20.3245,15.51512 l -28.82633,89.42241 a 7.318702,7 0 0 0 6.99382,9.06247 h 20.33753 a 7.318702,7 0 0 0 6.98317,-4.90485 l 5.55348,-16.93286 h 18.45973 l 5.47889,16.90976 a 7.318702,7 0 0 0 6.9907,4.928 h 20.51052 a 7.3187648,7.00006 0 0 0 6.99383,-9.06244 l -28.8209,-89.40594 -0.0221,-0.06735 C 578.02724,2.00966 567.86836,6e-4 562.21272,6e-4 Z"
         id="path94"
         inkscape:connector-curvature="0"
         style="fill:none;stroke-width:1.02251101;fill-opacity:1;stroke:#00ffff;stroke-opacity:1" />
      <path
         d="m 639.52526,7.0006 a 33.711918,32.24389 0 0 1 22.47389,7.94856 q 9.79829,7.86573 9.80451,18.89676 0,10.23992 -7.693,18.68434 a 42.009946,40.18057 0 0 1 -19.23857,11.95227 l 30.88294,42.51807 h -22.96769 l -23.5729,-32.06568 q -5.1678,-6.94473 -5.17398,-10.88934 0,-7.36982 7.31022,-12.02313 3.44519,-1.64749 6.72976,-3.29511 c 2.19808,-1.09839 4.43304,-2.18494 6.74215,-3.28339 q 7.29786,-4.23412 7.29796,-10.3814 a 10.543259,10.08414 0 0 0 -3.85272,-7.5942 12.707536,12.15417 0 0 0 -8.79196,-3.36609 H 624.04046 V 107.0006 H 604.36973 V 17.9491 a 10.537478,10.07861 0 0 1 3.77854,-7.65332 12.818341,12.26015 0 0 1 8.9032,-3.29518 h 22.47379 m 0,-6.999996 H 617.05143 A 20.260143,19.37789 0 0 0 603.23058,5.11142 17.862411,17.08457 0 0 0 597.05102,17.9491 v 89.0515 a 7.318702,7 0 0 0 7.31871,7 h 19.67073 a 7.318702,7 0 0 0 7.31871,-7 V 90.02232 l 15.44126,21.00455 a 7.3187543,7.00005 0 0 0 5.98691,2.97373 h 22.96769 a 7.318702,7 0 0 0 6.01058,-10.99387 L 656.00488,67.54079 A 48.406679,46.29875 0 0 0 669.63015,57.127 c 6.29921,-6.92462 9.49221,-14.75681 9.49221,-23.28108 0,-9.48191 -4.1781,-17.64365 -12.41814,-24.2585 A 40.981595,39.197 0 0 0 639.52526,6.04e-4 Z m -8.16609,31.101656 h 8.1167 a 5.4568974,5.21927 0 0 1 3.86884,1.54566 c 1.45713,1.273 1.45713,2.073 1.45713,2.41463 0,0.59036 -6e-5,2.13748 -3.53567,4.25534 -2.33336,1.112 -4.48715,2.162 -6.57477,3.20517 q -1.60848,0.80837 -3.33223,1.65158 z"
         id="path98"
         inkscape:connector-curvature="0"
         style="fill:none;fill-opacity:1;stroke:#00ffff;stroke-width:1.02251101;stroke-opacity:1" />
      <path
         d="m 702.26688,7.0006 v 100 H 682.5837 v -100 h 19.68318 m 0,-7 H 682.5837 a 7.318702,7 0 0 0 -7.3187,7 v 100 a 7.318702,7 0 0 0 7.3187,7 h 19.68318 a 7.318702,7 0 0 0 7.3187,-7 v -100 a 7.318702,7 0 0 0 -7.3187,-7 z"
         id="path102"
         inkscape:connector-curvature="0"
         style="fill:none;stroke-width:1.02251101;fill-opacity:1;stroke:#00ffff;stroke-opacity:1" />
      <path
         d="m 712.85164,86.93523 a 3.4627916,3.312 0 0 1 1.56453,0.41369 l 24.39713,12.20471 v 6.66309 l -24.17033,-12.085 v 12.86888 h -4.98822 V 91.35551 a 5.2919548,5.06151 0 0 1 0.96365,-3.05938 2.6882638,2.5712 0 0 1 2.23325,-1.3609 m 0,-7 a 9.9497754,9.5165 0 0 0 -8.2426,4.36422 12.664679,12.11318 0 0 0 -2.27298,7.05606 v 15.64509 a 7.318702,7 0 0 0 7.3187,7 h 4.98822 a 7.318702,7 0 0 0 7.3187,-7 v -1.3108 l 13.46106,6.73041 a 7.318702,7 0 0 0 10.70927,-6.20349 v -6.66309 a 7.318702,7 0 0 0 -3.92674,-6.20282 l -24.39714,-12.20468 -0.0555,-0.02749 a 10.694788,10.22907 0 0 0 -4.90098,-1.18341 z"
         id="path106"
         inkscape:connector-curvature="0"
         style="fill:none;stroke-width:1.02251101;fill-opacity:1;stroke:#00ffff;stroke-opacity:1" />
      <path
         d="m 730.67337,62.50407 c 2.18799,0 4.09264,1.09974 5.71382,3.27716 a 14.335466,13.71121 0 0 1 0,15.264 c -1.6212,2.17743 -3.52585,3.277 -5.71382,3.277 h -0.72559 c -2.19922,0 -4.10388,-1.09961 -5.70242,-3.277 a 7.5743652,7.24453 0 0 1 -6.40533,3.277 c -2.18805,0 -4.09259,-1.09961 -5.72514,-3.277 a 14.171098,13.554 0 0 1 0,-15.264 c 1.63255,-2.17742 3.53709,-3.27716 5.72514,-3.27716 h 0.70291 q 3.29893,0 5.70242,3.25538 a 7.6608514,7.32725 0 0 1 6.42805,-3.25538 m -0.8176,16.25965 a 4.5358074,4.33829 0 0 0 3.31157,-1.365 5.7259956,5.47665 0 0 0 1.60607,-3.99915 5.5466979,5.30516 0 0 0 -1.60607,-3.9718 4.5353265,4.33783 0 0 0 -3.31157,-1.365 3.4641821,3.31333 0 0 0 -2.78574,1.63782 6.7742115,6.47922 0 0 0 0,7.42517 3.4641926,3.31334 0 0 0 2.78574,1.63794 M 718.6019,78.42117 a 3.226753,3.08624 0 0 0 2.62071,-1.533 6.280816,6.00731 0 0 0 0,-6.95 3.2270353,3.08651 0 0 0 -2.62071,-1.533 4.3044423,4.117 0 0 0 -3.08641,1.27752 5.1838889,4.95815 0 0 0 -1.48993,3.71772 5.3501907,5.11721 0 0 0 1.48993,3.74322 4.3043796,4.11694 0 0 0 3.08641,1.27753 m 12.0715,-22.91712 a 14.873066,14.2254 0 0 0 -6.28645,1.30326 13.12398,12.55248 0 0 0 -5.84402,-1.30326 h -0.70291 c -3.20512,0 -7.8319,1.07526 -11.67261,6.19782 a 21.481624,20.54618 0 0 0 0.004,23.42767 c 3.83695,5.1175 8.46379,6.19275 11.66891,6.19275 a 14.814653,14.16953 0 0 0 6.27606,-1.30215 13.080915,12.51129 0 0 0 5.83163,1.30218 h 0.7256 c 4.54426,0 8.69063,-2.20773 11.67535,-6.21652 a 21.645208,20.70264 0 0 0 0.0298,-23.34479 c -3.01452,-4.04913 -7.16096,-6.25693 -11.70515,-6.25693 z"
         id="path110"
         inkscape:connector-curvature="0"
         style="fill:none;stroke-width:1.02251101;fill-opacity:1;stroke:#00ffff;stroke-opacity:1" />
      <path
         d="M 724.23402,34.306 A 13.249904,12.67292 0 1 1 711.0378,46.97879 13.221037,12.64531 0 0 1 724.23402,34.306 m 0,20.58441 a 8.2718584,7.91165 0 1 0 -8.23839,-7.91162 8.2580574,7.89845 0 0 0 8.23839,7.91162 m 0,-27.58441 A 20.568574,19.67289 0 1 0 744.74889,46.97879 20.565009,19.66948 0 0 0 724.23402,27.306 Z m 0,20.58441 a 0.95370006,0.91217 0 1 1 0.91963,-0.91162 0.93790212,0.89706 0 0 1 -0.91963,0.91162 z"
         id="path114"
         inkscape:connector-curvature="0"
         style="fill:none;stroke-width:1.02251101;fill-opacity:1;stroke:#00ffff;stroke-opacity:1" />
      <path
         d="M 724.23402,7.00058 A 13.249987,12.673 0 1 1 711.0378,19.67351 13.221089,12.64536 0 0 1 724.23402,7.00058 m 0,20.58449 a 8.2718898,7.91168 0 1 0 -8.23839,-7.91156 8.2580574,7.89845 0 0 0 8.23839,7.91156 m 0,-27.58449 A 20.568616,19.67293 0 1 0 744.74889,19.67351 20.565072,19.66954 0 0 0 724.23402,5.8e-4 Z m 0,20.58449 a 0.95373143,0.9122 0 1 1 0.91963,-0.91156 0.93783939,0.897 0 0 1 -0.91963,0.91156 z"
         id="path118"
         inkscape:connector-curvature="0"
         style="fill:none;stroke-width:1.02251101;fill-opacity:1;stroke:#00ffff;stroke-opacity:1" />
      <path
         fill="#fff"
         d="M336.50638,7q1.40112,0,2.80261.00195,1.97411.00225,3.94834.00359.81673,0,1.63381-.00127.00294,49.97028,0,99.94066-1.35525.00339-2.71008.003-2.42336,0-4.84744-.00232-3.181,0-6.36148.02259l-.00006-.03711c-.0578-10.60987-.00769-21.22553-.02515-31.83149v-.002q-.0087-34.037-.00775-68.08179,2.78316-.01856,5.5672-.01585m0-7q-2.8075,0-5.61389.016a7,7,0,0,0-6.95331,7.00465q.014,20.43141.007,40.862-.00114,13.6091.00076,27.2168.01006,6.13549.00015,12.251c-.00521,6.427-.01056,13.07284.02512,19.61871a7.032,7.032,0,0,0,7.0014,6.999l.05991-.00028c2.09973-.0184,4.2-.02231,6.30011-.02231l2.41876.00113,2.42865.00119q1.36428,0,2.72769-.003a7,7,0,0,0,6.98242-6.99957q.00294-49.96482,0-99.94147a7,7,0,0,0-7-6.9996h-.01165l-1.62213.00127L340.18549.003,339.317.002,336.50638,0Z"
         id="path170"
         style="fill:none;fill-opacity:1;stroke:#00ffff;stroke-opacity:1" />
      <path
         fill="#fff"
         d="M336.50638,7q1.40112,0,2.80261.00195,1.97411.00225,3.94834.00359.81673,0,1.63381-.00127.00294,49.97028,0,99.94066-1.35525.00339-2.71008.003-2.42336,0-4.84744-.00232-3.181,0-6.36148.02259l-.00006-.03711c-.0578-10.60987-.00769-21.22553-.02515-31.83149v-.002q-.0087-34.037-.00775-68.08179,2.78316-.01856,5.5672-.01585m0-7q-2.8075,0-5.61389.016a7,7,0,0,0-6.95331,7.00465q.014,20.43141.007,40.862-.00114,13.6091.00076,27.2168.01006,6.13549.00015,12.251c-.00521,6.427-.01056,13.07284.02512,19.61871a7.032,7.032,0,0,0,7.0014,6.999l.05991-.00028c2.09973-.0184,4.2-.02231,6.30011-.02231l2.41876.00113,2.42865.00119q1.36428,0,2.72769-.003a7,7,0,0,0,6.98242-6.99957q.00294-49.96482,0-99.94147a7,7,0,0,0-7-6.9996h-.01165l-1.62213.00127L340.18549.003,339.317.002,336.50638,0Z"
         id="path166"
         style="fill:none;fill-opacity:1;stroke:#00ffff;stroke-opacity:1" />
      <path
         fill="url(#Degradado_sin_nombre_33-2)"
         d="M330.97151,110.47049a3.5,3.5,0,0,1-3.49951-3.4668v-.07226a3.50017,3.50017,0,0,1,3.5-3.5,3.56279,3.56279,0,0,1,.49268.03418c1.95654-.0166,3.9126-.01953,5.86914-.01953l7.55713-.001a3.5,3.5,0,0,1,.01709,7q-1.26929.00587-2.53809.00488l-5.166-.00293c-2.0669,0-4.1333.00391-6.19971.02344Z"
         id="path124"
         style="fill:#fff9ff;fill-opacity:1;stroke:#00ffff;stroke-opacity:1" />
      <path
         fill="url(#Degradado_sin_nombre_33-3)"
         d="M330.9471,78.241a3.50063,3.50063,0,0,1-3.48193-3.1416h-.01807l-.001-27.23242q.0022-20.42359-.00683-40.84864a3.49986,3.49986,0,0,1,3.49756-3.50244h.00244a3.49986,3.49986,0,0,1,3.5,3.49707q.01611,20.66969.00732,41.33838l.00049,26.74512H334.429a3.50081,3.50081,0,0,1-3.481,3.14453Z"
         id="path128"
         style="fill:#fff9ff;fill-opacity:1;stroke:#00ffff;stroke-opacity:1" />
      <path
         fill="#fff"
         d="M352.31912,7.00075q1.60561,0,3.21045.00546a239.56089,239.56089,0,0,0,1.47461,30.425,239.21222,239.21222,0,0,1-1.47467-30.425q-1.71035-.00528-3.42062-.00465-2.05665,0-4.11344.00268,2.16294-.00165,4.32367-.00349"
         id="path150"
         style="fill:#fff9ff;fill-opacity:1;stroke:#00ffff;stroke-opacity:1" />
      <path
         fill="url(#Degradado_sin_nombre_33-10)"
         d="M339.30452,10.50174a3.5,3.5,0,0,1,.0044-7l5.582.00049a3.5,3.5,0,0,1,.01855,7l-1.70556.00342Z"
         id="path156"
         style="fill:#fff9ff;fill-opacity:1;stroke:#00ffff;stroke-opacity:1" />
      <path
         fill="url(#Degradado_sin_nombre_33-11)"
         d="M330.97151,110.43143A3.49971,3.49971,0,0,1,327.472,106.951c-.03759-6.665-.03174-13.332-.02588-19.998q.00513-5.92089.001-11.84082v-.00683a3.50206,3.50206,0,0,1,3.49316-3.50391h.00684a3.49809,3.49809,0,0,1,3.5,3.49024v.00976q.00952,6.10547,0,12.21387c-.00537,6.53222-.01074,13.06543.0249,19.59765a3.5,3.5,0,0,1-3.48047,3.51856Z"
         id="path160"
         style="fill:#fff9ff;fill-opacity:1;stroke:#00ffff;stroke-opacity:1" />
      <path
         fill="url(#Degradado_sin_nombre_33-12)"
         d="M330.972,110.46854a3.50084,3.50084,0,0,1-3.5-3.5v-.03711c-.03564-6.52734-.03027-13.0752-.0249-19.62207q.00513-6.10254,0-12.2041l-.001-27.23242q.0022-20.42725-.00683-40.8545a3.49983,3.49983,0,0,1,3.47656-3.50244q2.83008-.019,5.66162-.01611l8.31348.00439a3.50008,3.50008,0,0,1,3.5,3.5q.00293,49.97022,0,99.94092a3.49987,3.49987,0,0,1-3.49121,3.5l-7.56592.001c-2.10986,0-4.2207.0039-6.33106.02246Z"
         id="path164"
         style="fill:#fff9ff;fill-opacity:1;stroke:#00ffff;stroke-opacity:1" />
      <path
         fill="#fff"
         d="M352.10614,7.00157q1.71153,0,3.42337.00464a239.21222,239.21222,0,0,0,1.47467,30.425q.186,1.4697.39362,2.94086c.2785,1.96075.59265,3.92016.963,5.86791a79.20257,79.20257,0,0,0,2.11585,8.65162,57.314,57.314,0,0,0,2.03857,5.57782c.02844.06793.0614.134.09009.2019a55.73676,55.73676,0,0,0,12.69531,18.72626q.99555.9494,2.04266,1.84289a48.73452,48.73452,0,0,0,16.68982,9.35163,37.434,37.434,0,0,0,5.97418,1.40875q-.00293,7.47015,0,14.93829a63.09378,63.09378,0,0,1-11.62384-2.84015c-.02276-.00769-.04589-.01422-.06866-.02191-.01624-.00561-.032-.01251-.04822-.01819a59.74622,59.74622,0,0,1-12.67425-6.09118c-.06757-.04352-.139-.08057-.20636-.12445a60.96485,60.96485,0,0,1-8.16968-6.50122A63.28263,63.28263,0,0,1,361.27,85.08592c-.78955-.959-1.53949-1.94928-2.25952-2.96087a47.55134,47.55134,0,0,1-2.64765-4.13233,58.71055,58.71055,0,0,1-5.11572-12.4328c-.06634-.24652-.12378-.495-.18561-.74255-.18536-.74256-.35772-1.488-.51031-2.2378q-.06015-.296-.11762-.59246c-.28338-1.47162-.51251-2.95423-.70752-4.44172q-.17129-1.30682-.31481-2.61663-.14566-1.30911-.27631-2.61743c-.58612-6.44874-.90839-12.91956-1.05029-19.3926-.06964-3.1779-.10956-6.35638-.08912-9.53447q-.00009-8.18808-.00006-16.38,2.05555-.00162,4.11069-.0027m0-7-3.103.00186L347.9899.00427a7,7,0,0,0-6.99445,6.99759q-.00192,5.52194-.00039,11.03977l.00045,5.34272c-.01858,2.86631.011,6.04995.09079,9.68776.15592,7.11162.50834,13.61208,1.07737,19.87282l.00711.07388q.13619,1.34074.28335,2.68387.15312,1.37682.33127,2.75232c.23053,1.75852.48386,3.34674.77445,4.85578q.06395.332.13147.66244c.16464.809.35376,1.63892.57867,2.53973l.0506.20624c.05365.22028.108.4404.16693.65946q.02211.08231.04626.16409a65.24959,65.24959,0,0,0,5.74341,13.909,54.05735,54.05735,0,0,0,3.03046,4.7326c.861,1.20972,1.69787,2.30585,2.55823,3.35083a70.54343,70.54343,0,0,0,6.60254,6.95062,68.36726,68.36726,0,0,0,9.13479,7.24735c.079.0516.18479.11645.29627.18228a66.9193,66.9193,0,0,0,13.97577,6.72287q.07511.02782.1506.054c.04837.01672.11264.038.17163.05691a69.4647,69.4647,0,0,0,12.85867,3.12506,7,7,0,0,0,7.95114-6.94061q-.00585-7.46591,0-14.93a7,7,0,0,0-5.9934-6.93,30.21023,30.21023,0,0,1-4.85489-1.15088,41.9553,41.9553,0,0,1-14.27191-8.00708c-.59726-.50964-1.18787-1.04248-1.75553-1.58383a49.04592,49.04592,0,0,1-11.07892-16.38666c-.038-.08993-.07733-.17825-.11743-.266a50.65564,50.65564,0,0,1-1.77209-4.859,71.8572,71.8572,0,0,1-1.92557-7.88778c-.32388-1.70349-.62134-3.51722-.9093-5.54462q-.20156-1.41821-.37949-2.83557a232.05511,232.05511,0,0,1-1.41949-29.48984,7,7,0,0,0-6.9783-7.056q-1.72221-.00531-3.44483-.00468Z"
         id="path194"
         style="fill:none;fill-opacity:1;stroke:#00ffff;stroke-opacity:1" />
      <path
         fill="url(#Degradado_sin_nombre_33-19)"
         d="M400.00716,110.43924a3.54366,3.54366,0,0,1-.47559-.03222,66.17723,66.17723,0,0,1-12.27-2.99219c-.01953-.00684-.084-.02832-.12109-.041.02637.00879.07471.02442.125.03906-.05176-.01562-.10352-.03222-.15479-.0498a63.38574,63.38574,0,0,1-13.41455-6.4541c-.04736-.02442-.13574-.07715-.22168-.13379a64.98492,64.98492,0,0,1-8.62451-6.85449,67.13207,67.13207,0,0,1-6.28222-6.61035c-.80957-.9834-1.59766-2.01563-2.40918-3.15625a50.7031,50.7031,0,0,1-2.84082-4.43555,61.817,61.817,0,0,1-5.42725-13.167c-.0752-.27637-.12109-.46387-.167-.65137l-.05762-.23438c-.19775-.793-.38135-1.58789-.54394-2.38574l-.12549-.63281c-.27686-1.43652-.519-2.957-.74073-4.64648q-.17577-1.34181-.32275-2.68653-.14794-1.32348-.27978-2.6499c-.56592-6.2168-.91358-12.63916-1.06739-19.669-.07959-3.604-.10888-6.75537-.09033-9.63379V7.00272a3.49987,3.49987,0,0,1,3.49707-3.49854l4.12061-.00293q1.71386,0,3.42724.00489a3.50015,3.50015,0,0,1,3.48926,3.52832,235.4805,235.4805,0,0,0,1.44971,29.98c.11914.93945.24707,1.90283.38379,2.86523.29443,2.0752.60058,3.9419.936,5.707a75.25771,75.25771,0,0,0,2.021,8.26856,54.02985,54.02985,0,0,0,1.91308,5.2373l.09766.22071a51.84659,51.84659,0,0,0,11.88232,17.54882c.61963.58985,1.2583,1.166,1.90137,1.71485a45.51018,45.51018,0,0,0,15.48731,8.68261,33.68522,33.68522,0,0,0,5.40918,1.27735,3.50107,3.50107,0,0,1,2.99609,3.46484c-.002,5.0166-.00391,9.97461,0,14.93457a3.49987,3.49987,0,0,1-3.5,3.50293Z"
         id="path192"
         style="fill:none;fill-opacity:1;stroke:#00ffff;stroke-opacity:1" />
      <path
         d="m 473.61409,110.50077 a 3.6601143,3.50073 0 0 1 -3.49548,-2.46387 l -6.27725,-19.374 h -23.85623 l -6.35792,19.38575 a 3.6592151,3.49987 0 0 1 -3.49139,2.45215 h -20.33779 a 3.6599156,3.50054 0 0 1 -3.49701,-4.53125 L 435.12199,16.5633 c 3.53075,-10.79883 11.1021,-13.0625 16.83312,-13.0625 5.68454,0 13.21919,2.25927 16.8326,13.02392 l 28.82147,89.44483 a 3.6590269,3.49969 0 0 1 -3.497,4.53125 z m -17.48606,-45.93946 -4.17292,-12.8789 -4.17293,12.8789 z"
         id="path84"
         inkscape:connector-curvature="0"
         style="fill:#fff9ff;stroke-width:1.02251101;fill-opacity:1;stroke:#00ffff;stroke-opacity:1" />
      <path
         d="m 474.68821,7.00062 v 17.1017 h 22.47387 v 82.8983 h 19.68313 v -82.8983 h 22.47373 V 7.00062 Z"
         id="path226"
         style="fill:none;fill-opacity:1;stroke-width:1.02251101;stroke:#00ffff;stroke-opacity:1"
         inkscape:connector-curvature="0" />
      <path
         d="m 497.16198,110.50077 a 3.6595288,3.50017 0 0 1 -3.65935,-3.5 V 27.60233 h -18.81442 a 3.6592046,3.49986 0 0 1 -3.65935,-3.5 V 7.00077 a 3.6591942,3.49985 0 0 1 3.65935,-3.5 h 64.63033 a 3.6595288,3.50017 0 0 1 3.65935,3.5 v 17.10156 a 3.6595288,3.50017 0 0 1 -3.65935,3.5 h -18.81442 v 79.39844 a 3.6598633,3.50049 0 0 1 -3.65935,3.5 z"
         id="path88"
         inkscape:connector-curvature="0"
         style="fill:#fff9ff;stroke-width:1.02251101;fill-opacity:1;stroke:#00ffff;stroke-opacity:1" />
      <path
         d="m 575.5488,17.59472 q -3.53773,-10.594 -13.33609,-10.5941 -9.89104,0 -13.33606,10.5941 l -28.82092,89.4059 h 20.33752 l 7.1621,-21.83771 h 29.22831 l 7.07557,21.83771 h 20.51047 z m -22.47385,50.4665 9.13776,-28.20362 9.13766,28.20362 z"
         id="path228"
         style="fill:none;fill-opacity:1;stroke-width:1.02251101;stroke:#00ffff;stroke-opacity:1"
         inkscape:connector-curvature="0" />
      <path
         d="m 583.8597,110.50077 a 3.6589955,3.49966 0 0 1 -3.49496,-2.46387 l -6.27727,-19.374 h -23.845 l -6.3569,19.38575 a 3.6603024,3.50091 0 0 1 -3.49189,2.45215 h -20.33779 a 3.659351,3.5 0 0 1 -3.49701,-4.53125 L 545.37933,16.5633 C 548.89171,5.76541 556.4718,3.50077 562.21296,3.50077 c 5.68915,0 13.22533,2.26025 16.82138,13.0288 l 28.8327,89.44 a 3.659351,3.5 0 0 1 -3.497,4.53125 z m -17.47484,-45.93946 -4.1719,-12.8789 -4.17287,12.8789 z"
         id="path92"
         inkscape:connector-curvature="0"
         style="fill:#fff9ff;stroke-width:1.02251101;fill-opacity:1;stroke:#00ffff;stroke-opacity:1" />
      <path
         d="m 652.03052,111.2453 a 3.65841,3.4991 0 0 1 -2.99364,-1.48731 L 626.94293,79.704276 v 28.041004 a 3.6598633,3.50049 0 0 1 -3.65935,3.5 h -19.67002 a 3.6598633,3.50049 0 0 1 -3.65936,-3.5 V 18.693526 a 14.100703,13.48667 0 0 1 4.97137,-10.2397495 16.447769,15.73153 0 0 1 11.36908,-4.20849 h 22.47379 a 37.442961,35.81246 0 0 1 24.84152,8.7797795 c 7.3575,5.90674 11.09649,13.1665 11.09649,21.56543 0,7.65479 -2.89052,14.71436 -8.59192,20.98145 a 45.117226,43.15254 0 0 1 -16.31291,11.34912 l 28.20172,38.827144 a 3.6590164,3.49968 0 0 1 -3.00485,5.49708 z M 626.94293,50.974786 q 0.77036,-0.57642 1.61935,-1.11914 a 3.7139172,3.55219 0 0 1 0.39514,-0.21924 c 2.3555,-1.12647 4.59767,-2.22412 6.6642,-3.2627 2.13497,-1.06689 4.31689,-2.12988 6.67137,-3.251 5.41143,-3.186 5.41143,-6.29 5.41143,-7.31543 a 6.9235758,6.62208 0 0 0 -2.66079,-5.01026 9.0934141,8.69743 0 0 0 -6.32423,-2.45019 h -11.77647 z"
         id="path96"
         inkscape:connector-curvature="0"
         style="fill:#fff9ff;fill-opacity:1;stroke:#00ffff;stroke-width:1.02251101;stroke-opacity:1" />
      <path
         d="m 682.58371,7.00062 v 100 h 19.68312 v -100 z"
         id="path232"
         style="fill:none;fill-opacity:1;stroke-width:1.02251101;stroke:#00ffff;stroke-opacity:1"
         inkscape:connector-curvature="0" />
      <path
         style="fill:#fff9ff;fill-opacity:1;stroke:#00ffff;stroke-width:1.02251101;stroke-opacity:1"
         d="m 682.58355,3.5007701 h 19.6833 c 2.02728,0 3.65935,1.6320706 3.65935,3.6593511 V 106.84142 c 0,2.02728 -1.63207,3.65935 -3.65935,3.65935 h -19.6833 c -2.02729,0 -3.65936,-1.63207 -3.65936,-3.65935 V 7.1601212 c 0,-2.0272805 1.63207,-3.6593511 3.65936,-3.6593511 z"
         id="rect100" />
      <path
         d="m 714.41616,87.349 a 3.4622061,3.31144 0 0 0 -1.56449,-0.41372 2.6882638,2.5712 0 0 0 -2.23325,1.36093 5.2919757,5.06153 0 0 0 -0.96362,3.05939 v 15.64506 h 4.98822 V 94.13178 l 24.17031,12.08495 v -6.66307 z"
         id="path234"
         style="fill:none;fill-opacity:1;stroke-width:1.02251101;stroke:#00ffff;stroke-opacity:1"
         inkscape:connector-curvature="0" />
      <path
         d="m 709.65499,110.50077 a 3.6598738,3.5005 0 0 1 -3.65935,-3.5 V 91.35526 a 8.9086482,8.52071 0 0 1 1.61731,-5.05762 6.2278704,5.95667 0 0 1 5.23887,-2.8623 7.0829039,6.77447 0 0 1 3.23461,0.7998 l 24.4229,12.2168 a 3.659466,3.50011 0 0 1 1.96343,3.10156 v 6.66309 a 3.6587446,3.49942 0 0 1 -5.35426,3.10156 l -18.81645,-9.40723 v 7.08985 a 3.6598633,3.50049 0 0 1 -3.65935,3.5 z"
         id="path104"
         inkscape:connector-curvature="0"
         style="fill:#fff9ff;stroke-width:1.02251101;fill-opacity:1;stroke:#00ffff;stroke-opacity:1" />
      <path
         d="m 736.38721,65.78128 c -1.62122,-2.17747 -3.52587,-3.27717 -5.71382,-3.27717 a 7.66082,7.32722 0 0 0 -6.42804,3.25534 q -2.39777,-3.24983 -5.70242,-3.25534 h -0.70292 c -2.18807,0 -4.09261,1.0997 -5.72513,3.27717 a 14.171004,13.55391 0 0 0 0,15.264 c 1.63252,2.17747 3.53702,3.27706 5.72513,3.27706 a 7.5742607,7.24443 0 0 0 6.40534,-3.27706 c 1.59853,2.17747 3.50318,3.27706 5.70242,3.27706 h 0.72559 c 2.18797,0 4.09262,-1.09959 5.71382,-3.27706 a 14.335466,13.71121 0 0 0 0,-15.264 z M 721.2226,76.88819 a 3.2269203,3.0864 0 0 1 -2.62075,1.533 4.3042019,4.11677 0 0 1 -3.08632,-1.27753 5.3501176,5.11714 0 0 1 -1.48988,-3.74324 5.1837321,4.958 0 0 1 1.48988,-3.71771 4.3041914,4.11676 0 0 1 3.08632,-1.27752 3.2271712,3.08664 0 0 1 2.62075,1.533 6.2810251,6.00751 0 0 1 0,6.94994 z m 11.94477,0.51058 a 4.5359956,4.33847 0 0 1 -3.31159,1.365 3.4642449,3.31339 0 0 1 -2.78573,-1.63795 6.7741906,6.4792 0 0 1 0,-7.42513 3.4641194,3.31327 0 0 1 2.78573,-1.63784 4.5355042,4.338 0 0 1 3.31159,1.365 5.5468652,5.30532 0 0 1 1.60604,3.97183 5.7261002,5.47675 0 0 1 -1.60604,3.99909 z"
         id="path236"
         style="fill:none;fill-opacity:1;stroke-width:1.02251101;stroke:#00ffff;stroke-opacity:1"
         inkscape:connector-curvature="0" />
      <path
         d="m 729.94785,87.82205 a 9.6086193,9.1902 0 0 1 -5.77287,-1.84179 10.98097,10.50279 0 0 1 -6.33545,1.84179 c -2.34734,0 -5.76267,-0.82128 -8.69811,-4.73632 a 17.827689,17.05136 0 0 1 0.0112,-19.36036 c 2.92524,-3.89941 6.33954,-4.72168 8.68688,-4.72168 h 0.70348 a 9.6492904,9.2291 0 0 1 5.78308,1.83985 11.046169,10.56515 0 0 1 6.34771,-1.83985 c 2.35349,0 5.77185,0.82325 8.69402,4.7461 a 17.991272,17.20782 0 0 1 0.0153,19.30566 c -2.93647,3.94336 -6.35587,4.7666 -8.70934,4.7666 z m 0.0878,-16.07128 a 2.8222379,2.69934 0 0 0 -0.52889,1.64843 2.9278781,2.80038 0 0 0 0.54727,1.70117 c 0.0347,0.04688 0.0674,0.08594 0.096,0.11915 a 1.1937221,1.14174 0 0 0 0.42373,-0.29 2.0534187,1.964 0 0 0 0.54012,-1.53028 1.8731904,1.79162 0 0 0 -0.50438,-1.46777 1.3767733,1.31682 0 0 0 -0.45947,-0.32227 c -0.0337,0.03805 -0.0715,0.0859 -0.11436,0.14157 z m -11.75709,0.26757 a 1.7799397,1.70243 0 0 0 -0.20931,0.1709 c -0.11232,0.10449 -0.38391,0.35938 -0.38391,1.21094 a 1.7174589,1.64267 0 0 0 0.44007,1.29 1.4388882,1.37623 0 0 0 0.15008,0.12207 2.4360822,2.33 0 0 0 0.44517,-1.41211 2.3721168,2.26882 0 0 0 -0.44211,-1.3818 z"
         id="path108"
         inkscape:connector-curvature="0"
         style="fill:#fff9ff;stroke-width:1.02251101;fill-opacity:1;stroke:#00ffff;stroke-opacity:1" />
      <path
         d="M 724.23402,34.306 A 13.249935,12.67295 0 1 0 737.43019,46.97879 13.221131,12.6454 0 0 0 724.23402,34.306 Z m 0,20.58445 a 8.2718793,7.91167 0 1 1 8.2383,-7.91166 8.2580888,7.89848 0 0 1 -8.2383,7.91166 z"
         id="path238"
         style="fill:none;fill-opacity:1;stroke-width:1.02251101;stroke:#00ffff;stroke-opacity:1"
         inkscape:connector-curvature="0" />
      <path
         d="m 724.23422,63.15213 a 16.909526,16.17318 0 1 1 16.85507,-16.17334 16.902166,16.16614 0 0 1 -16.85507,16.17334 z m 0,-20.585 a 4.6126015,4.41174 0 1 0 4.57929,4.41162 4.6011739,4.40081 0 0 0 -4.57929,-4.41158 z"
         id="path112"
         inkscape:connector-curvature="0"
         style="fill:#fff9ff;stroke-width:1.02251101;fill-opacity:1;stroke:#00ffff;stroke-opacity:1" />
      <path
         d="m 724.23402,7.00062 a 13.249935,12.67295 0 1 0 13.19617,12.6729 13.221152,12.64542 0 0 0 -13.19617,-12.6729 z m 0,20.58446 a 8.2718898,7.91168 0 1 1 8.2383,-7.91156 8.2580679,7.89846 0 0 1 -8.2383,7.91156 z"
         id="path240"
         style="fill:none;fill-opacity:1;stroke-width:1.02251101;stroke:#00ffff;stroke-opacity:1"
         inkscape:connector-curvature="0" />
      <path
         d="m 724.23422,35.84647 a 16.909265,16.17293 0 1 1 16.85507,-16.17285 16.901727,16.16572 0 0 1 -16.85507,16.17285 z m 0,-20.58447 a 4.6126015,4.41174 0 1 0 4.57929,4.41162 4.6011739,4.40081 0 0 0 -4.57929,-4.41162 z"
         id="path116"
         inkscape:connector-curvature="0"
         style="fill:#fff9ff;stroke-width:1.02251101;fill-opacity:1;stroke:#00ffff;stroke-opacity:1" />
      <path
         fill="url(#Degradado_sin_nombre_33-27)"
         d="M320.31244,7.0062c2.52492-.00775,5.04984,0,7.57863-.00387.00969,5.93734,0,11.88049.00388,17.81783.02519,4.95877-.11433,9.91365-.31974,14.86854a181.32138,181.32138,0,0,1-1.97071,21.38722A54.52849,54.52849,0,0,1,321.01391,75.117c-3.41242,7.19107-8.77424,13.27763-14.80265,18.39335A55.40456,55.40456,0,0,1,287.61444,104.048a63.432,63.432,0,0,1-11.78167,2.90279q.00581-7.47592,0-14.946A43.833,43.833,0,0,0,289.6181,87.296a49.71041,49.71041,0,0,0,13.60124-10.63451,56.60216,56.60216,0,0,0,9.61717-15.00225,74.77528,74.77528,0,0,0,5.41608-19.79436,205.78643,205.78643,0,0,0,2.04435-26.01462C320.32988,12.90479,320.30469,9.9555,320.31244,7.0062Z"
         id="path242"
         style="fill:#fff9ff;fill-opacity:1;stroke:#00ffff;stroke-opacity:1" />
      <path
         fill="url(#Degradado_sin_nombre_33-28)"
         d="M330.9392,7.01589c4.64871-.031,9.29937-.00387,13.952-.01162q.00291,49.97132,0,99.94263c-4.641.01162-9.28-.01938-13.919.02326-.05813-10.62288-.00775-21.25157-.02519-31.87057Q330.93822,41.05967,330.9392,7.01589Z"
         id="path244"
         style="fill:#fff9ff;fill-opacity:1;stroke:#00ffff;stroke-opacity:1" />
      <path
         fill="#fff"
         d="M327.89108,7.0023c.00971,5.93732,0,11.8805.00385,17.81789.02521,4.95873-.11432,9.91362-.3197,14.86852a181.32569,181.32569,0,0,1-1.97071,21.3872A54.52953,54.52953,0,0,1,321.01389,75.117c-3.41242,7.1911-8.77423,13.27765-14.80262,18.39337A55.40518,55.40518,0,0,1,287.61441,104.048a63.43826,63.43826,0,0,1-11.78161,2.90277q.00576-7.47592,0-14.946a43.83235,43.83235,0,0,0,13.78527-4.70881,49.71,49.71,0,0,0,13.60126-10.63452,56.60182,56.60182,0,0,0,9.61719-15.00226,74.77518,74.77518,0,0,0,5.41608-19.79437A205.78723,205.78723,0,0,0,320.297,15.85022c.0329-2.94545.00775-5.89475.01544-8.844q1.40067-.00431,2.80112-.00362,1.52321,0,3.04733.00089.86467,0,1.73022-.00118m.00025-7h-.011l-1.71948.00118L324.63971.003,323.11353.00259q-1.41176,0-2.82273.00365A7,7,0,0,0,313.31244,6.988q-.00421,1.61187.00024,3.22364c.00257,1.8163.00522,3.694-.0148,5.51833a196.42789,196.42789,0,0,1-1.96652,25.08772c-1.14233,7.46006-2.68866,13.1641-4.86453,17.93857l-.026.05783a49.49806,49.49806,0,0,1-8.41266,13.15137,42.48957,42.48957,0,0,1-11.68131,9.14188,36.82264,36.82264,0,0,1-11.55572,3.97534,7,7,0,0,0-5.95831,6.92746q.00576,7.46466,0,14.93524a6.99968,6.99968,0,0,0,7.98114,6.93631,70.67666,70.67666,0,0,0,13.08425-3.21674A62.10237,62.10237,0,0,0,310.788,98.8073c7.48612-6.36234,13.05457-13.32331,16.55-20.68936a61.039,61.039,0,0,0,5.171-15.88938,188.96094,188.96094,0,0,0,2.05841-22.20822c.24668-5.94812.35013-10.77612.32746-15.23575-.0015-2.4084-.0008-4.84881-.00009-7.28941q.00155-5.25282-.00367-10.50432A7.0002,7.0002,0,0,0,327.89133.00229Z"
         id="path122"
         style="fill:none;fill-opacity:1;stroke:#00ffff;stroke-opacity:1" />
      <path
         fill="url(#Degradado_sin_nombre_33-30)"
         d="M330.9392,7.01589q.02325,34.04281.00775,68.08176c.0155,10.619-.03488,21.2477.02519,31.87057,4.639-.0407,9.28-.01162,13.919-.02325q.00291-49.9626,0-99.94265c-4.65066.0097-9.30132-.0155-13.952.01357"
         id="path248"
         style="fill:#fff9ff;fill-opacity:1;stroke:#00ffff;stroke-opacity:1" />
      <path
         fill="url(#Degradado_sin_nombre_33-19)"
         d="M400.00716,110.43924a3.54366,3.54366,0,0,1-.47559-.03222,66.17723,66.17723,0,0,1-12.27-2.99219c-.01953-.00684-.084-.02832-.12109-.041.02637.00879.07471.02442.125.03906-.05176-.01562-.10352-.03222-.15479-.0498a63.38574,63.38574,0,0,1-13.41455-6.4541c-.04736-.02442-.13574-.07715-.22168-.13379a64.98492,64.98492,0,0,1-8.62451-6.85449,67.13207,67.13207,0,0,1-6.28222-6.61035c-.80957-.9834-1.59766-2.01563-2.40918-3.15625a50.7031,50.7031,0,0,1-2.84082-4.43555,61.817,61.817,0,0,1-5.42725-13.167c-.0752-.27637-.12109-.46387-.167-.65137l-.05762-.23438c-.19775-.793-.38135-1.58789-.54394-2.38574l-.12549-.63281c-.27686-1.43652-.519-2.957-.74073-4.64648q-.17577-1.34181-.32275-2.68653-.14794-1.32348-.27978-2.6499c-.56592-6.2168-.91358-12.63916-1.06739-19.669-.07959-3.604-.10888-6.75537-.09033-9.63379V7.00272a3.49987,3.49987,0,0,1,3.49707-3.49854l4.12061-.00293q1.71386,0,3.42724.00489a3.50015,3.50015,0,0,1,3.48926,3.52832,235.4805,235.4805,0,0,0,1.44971,29.98c.11914.93945.24707,1.90283.38379,2.86523.29443,2.0752.60058,3.9419.936,5.707a75.25771,75.25771,0,0,0,2.021,8.26856,54.02985,54.02985,0,0,0,1.91308,5.2373l.09766.22071a51.84659,51.84659,0,0,0,11.88232,17.54882c.61963.58985,1.2583,1.166,1.90137,1.71485a45.51018,45.51018,0,0,0,15.48731,8.68261,33.68522,33.68522,0,0,0,5.40918,1.27735,3.50107,3.50107,0,0,1,2.99609,3.46484c-.002,5.0166-.00391,9.97461,0,14.93457a3.49987,3.49987,0,0,1-3.5,3.50293Z"
         id="path196"
         style="fill:#ffffff;fill-opacity:1;stroke:#00ffff;stroke-opacity:1" />
      <path
         fill="url(#Degradado_sin_nombre_33)"
         d="M275.83284,110.451a3.50028,3.50028,0,0,1-3.5-3.50293q.00587-7.47363,0-14.94043a3.49964,3.49964,0,0,1,2.9795-3.46387A40.29815,40.29815,0,0,0,287.9886,84.198a45.96733,45.96733,0,0,0,12.63379-9.88281,53.00983,53.00983,0,0,0,9.01661-14.0791c2.32568-5.10352,3.95947-11.10059,5.15429-18.90088a199.98115,199.98115,0,0,0,2.00488-25.56592c.02-1.81787.01709-3.6792.01465-5.541q-.00292-1.61571-.00048-3.23144a3.49969,3.49969,0,0,1,3.48925-3.49072l7.58936-.00391a3.49987,3.49987,0,0,1,3.5,3.49414q.00879,5.24121.0039,10.48584v7.33545c.02247,4.38818-.08007,9.16455-.32275,15.01611a185.99493,185.99493,0,0,1-2.01562,21.82032,57.5327,57.5327,0,0,1-4.87256,14.94628c-3.2959,6.94629-8.57813,13.52735-15.708,19.57911a58.55492,58.55492,0,0,1-19.71924,11.17675,67.20177,67.20177,0,0,1-12.43262,3.06055A3.622,3.622,0,0,1,275.83284,110.451Z"
         id="path120"
         style="fill:#fff9ff;fill-opacity:1;stroke:#00ffff;stroke-opacity:1" />
      <path
         fill="url(#Degradado_sin_nombre_33-12)"
         d="M330.972,110.46854a3.50084,3.50084,0,0,1-3.5-3.5v-.03711c-.03564-6.52734-.03027-13.0752-.0249-19.62207q.00513-6.10254,0-12.2041l-.001-27.23242q.0022-20.42725-.00683-40.8545a3.49983,3.49983,0,0,1,3.47656-3.50244q2.83008-.019,5.66162-.01611l8.31348.00439a3.50008,3.50008,0,0,1,3.5,3.5q.00293,49.97022,0,99.94092a3.49987,3.49987,0,0,1-3.49121,3.5l-7.56592.001c-2.10986,0-4.2207.0039-6.33106.02246Z"
         id="path168"
         style="fill:#ffffff;fill-opacity:1;stroke:#00ffff;stroke-opacity:1" />
    </g>
  </g>
</svg>
