<?xml version="1.0" encoding="UTF-8" standalone="no"?>
<svg
   xmlns:dc="http://purl.org/dc/elements/1.1/"
   xmlns:cc="http://creativecommons.org/ns#"
   xmlns:rdf="http://www.w3.org/1999/02/22-rdf-syntax-ns#"
   xmlns:svg="http://www.w3.org/2000/svg"
   xmlns="http://www.w3.org/2000/svg"
   xmlns:xlink="http://www.w3.org/1999/xlink"
   xmlns:sodipodi="http://sodipodi.sourceforge.net/DTD/sodipodi-0.dtd"
   xmlns:inkscape="http://www.inkscape.org/namespaces/inkscape"
   id="Calque_1"
   data-name="Calque 1"
   viewBox="0 0 1000 114.0006"
   version="1.1"
   sodipodi:docname="system.svg"
   inkscape:version="0.92.4 (5da689c313, 2019-01-14)"
   inkscape:export-filename="D:\Redman\Desktop\logo-png\atari7800.png"
   inkscape:export-xdpi="212.19"
   inkscape:export-ydpi="212.19">
  <metadata
     id="metadata255">
    <rdf:RDF>
      <cc:Work
         rdf:about="">
        <dc:format>image/svg+xml</dc:format>
        <dc:type
           rdf:resource="http://purl.org/dc/dcmitype/StillImage" />
        <dc:title>logo</dc:title>
      </cc:Work>
    </rdf:RDF>
  </metadata>
  <sodipodi:namedview
     pagecolor="#ffffff"
     bordercolor="#666666"
     borderopacity="1"
     objecttolerance="10"
     gridtolerance="10"
     guidetolerance="10"
     inkscape:pageopacity="0"
     inkscape:pageshadow="2"
     inkscape:window-width="1920"
     inkscape:window-height="1017"
     id="namedview253"
     showgrid="false"
     inkscape:zoom="1.4142136"
     inkscape:cx="347.05256"
     inkscape:cy="25.501205"
     inkscape:window-x="1912"
     inkscape:window-y="-8"
     inkscape:window-maximized="1"
     inkscape:current-layer="Calque_1"
     inkscape:pagecheckerboard="true"
     inkscape:snap-global="false" />
  <defs
     id="defs55">
    <linearGradient
       id="Degradado_sin_nombre_33"
       x1="301.86536"
       y1="110.45096"
       x2="301.86536"
       y2="3.50223"
       gradientUnits="userSpaceOnUse">
      <stop
         offset="0"
         stop-color="#6c4d9d"
         id="stop2" />
      <stop
         offset="0.04305"
         stop-color="#6855a2"
         id="stop4" />
      <stop
         offset="0.10946"
         stop-color="#5b6bb1"
         id="stop6" />
      <stop
         offset="0.19045"
         stop-color="#488ec9"
         id="stop8" />
      <stop
         offset="0.25556"
         stop-color="#35afdf"
         id="stop10" />
      <stop
         offset="0.48461"
         stop-color="#9ecf81"
         id="stop12" />
      <stop
         offset="0.65214"
         stop-color="#fdd255"
         id="stop14" />
      <stop
         offset="0.69798"
         stop-color="#fccc55"
         id="stop16" />
      <stop
         offset="0.7587"
         stop-color="#fbbb55"
         id="stop18" />
      <stop
         offset="0.82776"
         stop-color="#f8a056"
         id="stop20" />
      <stop
         offset="0.90299"
         stop-color="#f47a56"
         id="stop22" />
      <stop
         offset="0.98239"
         stop-color="#ef4957"
         id="stop24" />
      <stop
         offset="1"
         stop-color="#ee3d57"
         id="stop26" />
    </linearGradient>
    <linearGradient
       id="Degradado_sin_nombre_33-2"
       x1="337.93149"
       y1="110.47049"
       x2="337.93149"
       y2="-17904.03968"
       xlink:href="#Degradado_sin_nombre_33" />
    <linearGradient
       id="Degradado_sin_nombre_33-3"
       x1="330.94364"
       y1="113.2226"
       x2="330.94364"
       y2="3.49919"
       xlink:href="#Degradado_sin_nombre_33" />
    <linearGradient
       id="Degradado_sin_nombre_33-4"
       x1="381.92946"
       y1="113.75141"
       x2="381.92946"
       y2="-101.0624"
       xlink:href="#Degradado_sin_nombre_33" />
    <linearGradient
       id="Degradado_sin_nombre_33-5"
       x1="394.19502"
       y1="110.43924"
       x2="394.19502"
       y2="-235.83695"
       xlink:href="#Degradado_sin_nombre_33" />
    <linearGradient
       id="Degradado_sin_nombre_33-6"
       x1="397.01987"
       y1="184.67124"
       x2="397.01987"
       y2="-411.88499"
       xlink:href="#Degradado_sin_nombre_33" />
    <linearGradient
       id="Degradado_sin_nombre_33-7"
       x1="348.74834"
       y1="126.98286"
       x2="348.74834"
       y2="-4.743"
       xlink:href="#Degradado_sin_nombre_33" />
    <linearGradient
       id="Degradado_sin_nombre_33-8"
       x1="352.53392"
       y1="126.43062"
       x2="352.53392"
       y2="3.50078"
       xlink:href="#Degradado_sin_nombre_33" />
    <linearGradient
       id="Degradado_sin_nombre_33-9"
       x1="369.97384"
       y1="119.18463"
       x2="369.97384"
       y2="-14.76526"
       xlink:href="#Degradado_sin_nombre_33" />
    <linearGradient
       id="Degradado_sin_nombre_33-10"
       x1="342.09994"
       y1="28026.13065"
       x2="342.09994"
       y2="-28005.11935"
       xlink:href="#Degradado_sin_nombre_33" />
    <linearGradient
       id="Degradado_sin_nombre_33-11"
       x1="330.95694"
       y1="110.47674"
       x2="330.95694"
       y2="-11.4641"
       xlink:href="#Degradado_sin_nombre_33" />
    <linearGradient
       id="Degradado_sin_nombre_33-12"
       x1="337.91585"
       y1="110.46854"
       x2="337.91585"
       y2="3.49979"
       xlink:href="#Degradado_sin_nombre_33" />
    <linearGradient
       id="Degradado_sin_nombre_33-14"
       x1="348.03738"
       y1="130.43365"
       x2="348.03738"
       y2="3.50076"
       xlink:href="#Degradado_sin_nombre_33" />
    <linearGradient
       id="Degradado_sin_nombre_33-15"
       x1="388.30593"
       y1="606.29408"
       x2="388.30593"
       y2="-16941.3478"
       xlink:href="#Degradado_sin_nombre_33" />
    <linearGradient
       id="Degradado_sin_nombre_33-16"
       x1="371.40439"
       y1="119.91775"
       x2="371.40439"
       y2="-85.60818"
       xlink:href="#Degradado_sin_nombre_33" />
    <linearGradient
       id="Degradado_sin_nombre_33-17"
       x1="361.54119"
       y1="166.49692"
       x2="361.54119"
       y2="-54.52141"
       xlink:href="#Degradado_sin_nombre_33" />
    <linearGradient
       id="Degradado_sin_nombre_33-18"
       x1="355.03566"
       y1="120.47615"
       x2="355.03566"
       y2="-19.88597"
       xlink:href="#Degradado_sin_nombre_33" />
    <linearGradient
       id="Degradado_sin_nombre_33-19"
       x1="373.99861"
       y1="110.43924"
       x2="373.99861"
       y2="3.50125"
       xlink:href="#Degradado_sin_nombre_33" />
    <linearGradient
       id="Degradado_sin_nombre_33-21"
       x1="360.14015"
       y1="162.10406"
       x2="360.14015"
       y2="-174.10453"
       xlink:href="#Degradado_sin_nombre_33" />
    <linearGradient
       id="Degradado_sin_nombre_33-22"
       x1="360.14015"
       y1="162.10398"
       x2="360.14015"
       y2="-174.10454"
       xlink:href="#Degradado_sin_nombre_33" />
    <linearGradient
       id="Degradado_sin_nombre_33-24"
       x1="350.80633"
       y1="242.22792"
       x2="350.80633"
       y2="-170.38808"
       xlink:href="#Degradado_sin_nombre_33" />
    <linearGradient
       id="Degradado_sin_nombre_33-25"
       x1="350.80633"
       y1="242.22782"
       x2="350.80633"
       y2="-170.38809"
       xlink:href="#Degradado_sin_nombre_33" />
    <linearGradient
       id="Degradado_sin_nombre_33-27"
       x1="301.86533"
       y1="106.95079"
       x2="301.86533"
       y2="7.00233"
       xlink:href="#Degradado_sin_nombre_33" />
    <linearGradient
       id="Degradado_sin_nombre_33-28"
       x1="337.91591"
       y1="106.97016"
       x2="337.91591"
       y2="7.00062"
       xlink:href="#Degradado_sin_nombre_33" />
    <linearGradient
       id="Degradado_sin_nombre_33-29"
       x1="373.99773"
       y1="106.93917"
       x2="373.99773"
       y2="7.00076"
       xlink:href="#Degradado_sin_nombre_33" />
    <linearGradient
       id="Degradado_sin_nombre_33-30"
       x1="337.91591"
       y1="106.96822"
       x2="337.91591"
       y2="7.00135"
       xlink:href="#Degradado_sin_nombre_33" />
    <linearGradient
       id="Degradado_sin_nombre_33-31"
       x1="373.99771"
       y1="106.93916"
       x2="373.99771"
       y2="7.00156"
       xlink:href="#Degradado_sin_nombre_33" />
  </defs>
  <title
     id="title57">logo</title>
  <path
     d="M 531.54076,7.0006 V 24.10226 H 509.06704 V 107.0006 H 489.38391 V 24.10226 H 466.91005 V 7.0006 h 64.63071 m 0,-7 h -64.63071 a 7.318702,7 0 0 0 -7.3187,7 v 17.10166 a 7.318702,7 0 0 0 7.3187,7 h 15.15516 v 75.89834 a 7.318702,7 0 0 0 7.3187,7 h 19.68313 a 7.318702,7 0 0 0 7.3187,-7 V 31.10226 h 15.15507 a 7.318702,7 0 0 0 7.3187,-7 V 7.0006 a 7.318702,7 0 0 0 -7.3187,-7 z"
     id="path90"
     inkscape:connector-curvature="0"
     style="fill:none;fill-opacity:1;stroke:#00ffff;stroke-width:1.02251101;stroke-opacity:1" />
  <path
     d="m 444.17682,39.85759 9.13779,28.20361 h -18.27545 l 9.13766,-28.20361 m 0,-7 a 7.318702,7 0 0 0 -6.99073,4.928 l -9.13766,28.20361 a 7.318702,7 0 0 0 6.99076,9.072 h 18.27545 a 7.318702,7 0 0 0 6.99073,-9.072 l -9.13782,-28.2036 a 7.318702,7 0 0 0 -6.99076,-4.928 z"
     id="path80"
     inkscape:connector-curvature="0"
     style="fill:none;fill-opacity:1;stroke:#00ffff;stroke-width:1.02251101;stroke-opacity:1" />
  <path
     d="m 457.5253,17.59472 q -3.55633,-10.594 -13.3485,-10.5941 -9.87243,0 -13.33607,10.5941 l -28.82092,89.4059 h 20.33763 l 7.16199,-21.83771 h 29.24061 l 7.07568,21.83771 h 20.49807 z m -22.48619,50.4665 9.13765,-28.20362 9.13778,28.20362 z"
     id="path224"
     style="fill:#fff9ff;fill-opacity:1;stroke:#00ffff;stroke-width:1.02251101;stroke-opacity:1"
     inkscape:connector-curvature="0" />
  <path
     d="m 631.74706,7.00062 a 33.711918,32.24389 0 0 1 22.47389,7.94856 q 9.79829,7.86573 9.80451,18.89676 0,10.23992 -7.693,18.68434 a 42.009946,40.18057 0 0 1 -19.23857,11.95227 l 30.88294,42.51807 h -22.96769 l -23.5729,-32.06568 q -5.1678,-6.94473 -5.17398,-10.88934 0,-7.36982 7.31022,-12.02313 3.44519,-1.64749 6.72976,-3.29511 c 2.19808,-1.09839 4.43304,-2.18494 6.74215,-3.28339 q 7.29786,-4.23412 7.29796,-10.3814 a 10.543259,10.08414 0 0 0 -3.85272,-7.5942 12.707536,12.15417 0 0 0 -8.79196,-3.36609 h -15.43541 v 82.89834 h -19.67073 v -89.0515 a 10.537478,10.07861 0 0 1 3.77854,-7.65332 12.818341,12.26015 0 0 1 8.9032,-3.29518 h 22.47379 m 0,-6.999996 h -22.47383 a 20.260143,19.37789 0 0 0 -13.82085,5.110816 17.862411,17.08457 0 0 0 -6.17956,12.83768 v 89.0515 a 7.318702,7 0 0 0 7.31871,7 h 19.67073 a 7.318702,7 0 0 0 7.31871,-7 V 90.02234 l 15.44126,21.00455 a 7.3187543,7.00005 0 0 0 5.98691,2.97373 h 22.96769 a 7.318702,7 0 0 0 6.01058,-10.99387 L 648.22668,67.54081 a 48.406679,46.29875 0 0 0 13.62527,-10.41379 c 6.29921,-6.92462 9.49221,-14.75681 9.49221,-23.28108 0,-9.48191 -4.1781,-17.64365 -12.41814,-24.2585 A 40.981595,39.197 0 0 0 631.74706,6.24e-4 Z m -8.16609,31.101656 h 8.1167 a 5.4568974,5.21927 0 0 1 3.86884,1.54566 c 1.45713,1.273 1.45713,2.073 1.45713,2.41463 0,0.59036 -6e-5,2.13748 -3.53567,4.25534 -2.33336,1.112 -4.48715,2.162 -6.57477,3.20517 q -1.60848,0.80837 -3.33223,1.65158 z"
     id="path98"
     inkscape:connector-curvature="0"
     style="fill:none;fill-opacity:1;stroke:#00ffff;stroke-width:1.02251101;stroke-opacity:1" />
  <g
     id="g1038"
     transform="translate(-7.4246212,-65.407377)">
    <g
       id="g1033">
      <path
         d="m 560.44495,72.761531 q 9.79829,0 13.33611,10.59411 l 28.8209,89.405889 h -20.51052 l -7.07558,-21.83771 h -29.22829 l -7.1621,21.83771 h -20.33753 l 28.82097,-89.405889 q 3.44509,-10.594 13.33604,-10.59411 m -9.13778,61.060599 h 18.27543 l -9.13765,-28.20361 -9.13778,28.20361 m 9.13778,-68.060599 c -5.70625,0 -15.93455,2.01564 -20.3245,15.51512 l -28.82633,89.422409 a 7.318702,7 0 0 0 6.99382,9.06247 h 20.33753 a 7.318702,7 0 0 0 6.98317,-4.90485 l 5.55348,-16.93286 h 18.45973 l 5.47889,16.90976 a 7.318702,7 0 0 0 6.9907,4.928 h 20.51052 a 7.3187648,7.00006 0 0 0 6.99383,-9.06244 l -28.8209,-89.405939 -0.0221,-0.06735 c -4.49332,-13.45526 -14.6522,-15.46432 -20.30784,-15.46432 z"
         id="path94"
         inkscape:connector-curvature="0"
         style="fill:none;fill-opacity:1;stroke:#00ffff;stroke-width:1.02251101;stroke-opacity:1" />
    </g>
    <path
       inkscape:connector-curvature="0"
       id="path1030"
       d="m 519.36622,171.83221 c 0,-0.43897 28.06525,-87.468101 28.9884,-89.891782 1.51028,-3.965163 4.5054,-6.912899 8.07985,-7.952018 2.66051,-0.773432 7.03278,-0.515579 9.4996,0.560235 2.33807,1.019667 4.78389,3.609847 6.12124,6.482528 0.56337,1.210153 7.45927,22.167207 15.32422,46.571227 l 14.29991,44.37095 -9.40162,0.0943 c -5.17089,0.0519 -9.51356,-0.0277 -9.65038,-0.17678 -0.13681,-0.14908 -1.80724,-5.08381 -3.71207,-10.96605 l -3.46331,-10.69499 h -15.07198 -15.07197 l -3.53093,10.87177 -3.53092,10.87176 -9.44002,0.0942 c -5.66495,0.0565 -9.44002,-0.0376 -9.44002,-0.2353 z m 50.82484,-38.13101 c -1.09832,-4.01348 -9.66312,-29.71653 -9.83681,-29.52039 -0.50259,0.56752 -9.55586,29.18678 -9.37878,29.64825 0.1543,0.40209 1.92405,0.49086 9.78664,0.49086 8.97001,0 9.58719,-0.0405 9.42895,-0.61872 z"
       style="opacity:1;vector-effect:none;fill:#fffffe;fill-opacity:1;stroke:none;stroke-width:0.66813242;stroke-linecap:butt;stroke-linejoin:miter;stroke-miterlimit:4;stroke-dasharray:none;stroke-dashoffset:0;stroke-opacity:1" />
  </g>
  <path
     style="opacity:1;vector-effect:none;fill:#fffffe;fill-opacity:1;stroke:none;stroke-width:0.47244096;stroke-linecap:butt;stroke-linejoin:miter;stroke-miterlimit:4;stroke-dasharray:none;stroke-dashoffset:0;stroke-opacity:1"
     d="m 597.28822,61.081607 0.0652,-45.317807 0.81692,-1.659361 c 1.45549,-2.956428 4.78965,-5.444636 8.30808,-6.200139 1.0011,-0.214963 5.35193,-0.267389 16,-0.192794 13.81203,0.09676 14.74492,0.131653 16.78239,0.627713 5.97523,1.454785 10.17699,3.530191 14.88038,7.349987 4.38195,3.558742 7.28055,7.875282 8.61897,12.835211 0.8136,3.01503 0.76531,8.109228 -0.10831,11.426453 -1.23853,4.70283 -3.58255,8.740352 -7.42343,12.786725 -4.5238,4.765817 -10.0447,8.297007 -16.5,10.553465 -1.30625,0.456602 -2.34526,0.953895 -2.3089,1.105095 0.0364,0.1512 3.06655,4.404415 6.73376,9.451587 11.45858,15.77044 21.79599,30.009948 22.72765,31.306748 l 0.89439,1.24493 H 656.0499 645.3245 L 633.05893,89.711917 c -13.12292,-17.853942 -13.64785,-18.605132 -15.04374,-21.52816 -0.87892,-1.840472 -0.9118,-2.009007 -0.9118,-4.67264 0,-2.70636 0.0201,-2.804237 0.97571,-4.75 0.7289,-1.484165 1.4431,-2.449145 2.82347,-3.81491 1.79872,-1.779685 2.04487,-1.925095 9.27429,-5.478512 8.2581,-4.059043 9.52979,-4.828163 11.62428,-7.030423 3.24978,-3.416975 3.9846,-7.704027 2.0178,-11.772061 -0.8463,-1.750457 -3.51094,-4.388985 -5.49138,-5.437569 -3.05984,-1.6201 -3.3248,-1.655026 -13.41167,-1.767854 l -9.1875,-0.102768 v 41.5212 41.5212 h -9.25267 -9.25266 z"
     id="path1010"
     inkscape:connector-curvature="0" />
  <path
     d="m 716.07468,87.117176 a 3.3863635,3.1694055 0 0 1 1.53001,0.395879 l 23.85866,11.67925 v 6.376225 L 717.82648,94.003829 v 12.314821 h -4.87813 V 91.347146 a 5.1751549,4.8435923 0 0 1 0.94238,-2.927662 2.6289305,2.4604998 0 0 1 2.18397,-1.302308 m 0,-6.698622 a 9.7301718,9.1067777 0 0 0 -8.06067,4.176323 12.385154,11.59166 0 0 0 -2.22283,6.752269 v 14.971504 a 7.1571693,6.6986227 0 0 0 7.15718,6.69862 h 4.87813 a 7.1571693,6.6986227 0 0 0 7.15716,-6.69862 v -1.25437 l 13.16396,6.44065 a 7.1571693,6.6986227 0 0 0 10.4729,-5.9364 v -6.376225 a 7.1571693,6.6986227 0 0 0 -3.84008,-5.935764 l -23.85867,-11.679221 -0.0543,-0.0263 a 10.458741,9.7886687 0 0 0 -4.79281,-1.132459 z"
     id="path106"
     inkscape:connector-curvature="0"
     style="fill:none;fill-opacity:1;stroke:#00ffff;stroke-width:0.98915726;stroke-opacity:1" />
  <path
     d="m 328.72821,7 q 1.40112,0 2.80261,0.00195 1.97411,0.00225 3.94834,0.00359 0.81673,0 1.63381,-0.00127 0.003,49.97028 0,99.94066 -1.35525,0.003 -2.71008,0.003 -2.42336,0 -4.84744,-0.002 -3.181,0 -6.36148,0.0226 l -6e-5,-0.0371 c -0.0578,-10.60987 -0.008,-21.22553 -0.0251,-31.83149 v -0.002 q -0.009,-34.037 -0.008,-68.08179 2.78316,-0.01856 5.5672,-0.01585 m 0,-7 q -2.8075,0 -5.61389,0.016 a 7,7 0 0 0 -6.95331,7.00465 q 0.014,20.43141 0.007,40.862 -10e-4,13.6091 7.6e-4,27.2168 0.0101,6.13549 1.5e-4,12.251 c -0.005,6.427 -0.0106,13.07284 0.0251,19.61871 a 7.032,7.032 0 0 0 7.0014,6.999 l 0.0599,-2.8e-4 c 2.09973,-0.0184 4.2,-0.0223 6.30011,-0.0223 l 2.41876,10e-4 2.42865,0.001 q 1.36428,0 2.72769,-0.003 a 7,7 0 0 0 6.98242,-6.99957 q 0.003,-49.96482 0,-99.94147 a 7,7 0 0 0 -7,-6.9996 h -0.0116 L 335.4792,0.00548 332.40732,0.003 331.53883,0.002 328.72821,0 Z"
     id="path170"
     style="fill:none;fill-opacity:1;stroke:#00ffff;stroke-opacity:1"
     inkscape:connector-curvature="0" />
  <path
     d="m 320.11291,7.0023 c 0.01,5.93732 0,11.8805 0.004,17.81789 0.0252,4.95873 -0.11432,9.91362 -0.3197,14.86852 a 181.32569,181.32569 0 0 1 -1.97071,21.3872 54.52953,54.52953 0 0 1 -4.59063,14.04109 c -3.41242,7.1911 -8.77423,13.27765 -14.80262,18.39337 a 55.40518,55.40518 0 0 1 -18.59686,10.53763 63.43826,63.43826 0 0 1 -11.78161,2.90277 q 0.006,-7.47592 0,-14.946 a 43.83235,43.83235 0 0 0 13.78527,-4.70881 49.71,49.71 0 0 0 13.60126,-10.63452 56.60182,56.60182 0 0 0 9.61719,-15.00226 74.77518,74.77518 0 0 0 5.41608,-19.79437 205.78723,205.78723 0 0 0 2.0444,-26.01459 c 0.0329,-2.94545 0.008,-5.89475 0.0154,-8.844 q 1.40067,-0.00431 2.80112,-0.00362 1.52321,0 3.04733,8.9e-4 0.86467,0 1.73022,-0.00118 m 2.5e-4,-7 h -0.011 l -1.71948,0.00118 -1.52117,-4.9e-4 -1.52618,-4.1e-4 q -1.41176,0 -2.82273,0.00365 A 7,7 0 0 0 305.53427,6.988 q -0.004,1.61187 2.4e-4,3.22364 c 0.003,1.8163 0.005,3.694 -0.0148,5.51833 a 196.42789,196.42789 0 0 1 -1.96652,25.08772 c -1.14233,7.46006 -2.68866,13.1641 -4.86453,17.93857 l -0.026,0.05783 a 49.49806,49.49806 0 0 1 -8.41266,13.15137 42.48957,42.48957 0 0 1 -11.68131,9.14188 36.82264,36.82264 0 0 1 -11.55572,3.97534 7,7 0 0 0 -5.95831,6.92746 q 0.006,7.46466 0,14.93524 a 6.99968,6.99968 0 0 0 7.98114,6.93631 70.67666,70.67666 0 0 0 13.08425,-3.21674 62.10237,62.10237 0 0 0 20.88978,-11.85765 c 7.48612,-6.36234 13.05457,-13.32331 16.55,-20.68936 a 61.039,61.039 0 0 0 5.171,-15.88938 188.96094,188.96094 0 0 0 2.05841,-22.20822 c 0.24668,-5.94812 0.35013,-10.77612 0.32746,-15.23575 -0.002,-2.4084 -8e-4,-4.84881 -9e-5,-7.28941 q 0.002,-5.25282 -0.004,-10.50432 a 7.0002,7.0002 0 0 0 -6.99978,-6.98857 z"
     id="path122"
     style="fill:none;fill-opacity:1;stroke:#00ffff;stroke-opacity:1"
     inkscape:connector-curvature="0" />
  <path
     d="m 323.19334,110.47049 a 3.5,3.5 0 0 1 -3.49951,-3.4668 v -0.0723 a 3.50017,3.50017 0 0 1 3.5,-3.5 3.56279,3.56279 0 0 1 0.49268,0.0342 c 1.95654,-0.0166 3.9126,-0.0195 5.86914,-0.0195 l 7.55713,-0.001 a 3.5000104,3.5000104 0 0 1 0.0171,7 q -1.26929,0.006 -2.53809,0.005 l -5.166,-0.003 c -2.0669,0 -4.1333,0.004 -6.19971,0.0234 z"
     id="path124"
     style="fill:#fff9ff;fill-opacity:1;stroke:#00ffff;stroke-opacity:1"
     inkscape:connector-curvature="0" />
  <path
     d="M 323.16893,78.241 A 3.50063,3.50063 0 0 1 319.687,75.0994 h -0.0181 l -0.001,-27.23242 q 0.002,-20.42359 -0.007,-40.84864 a 3.49986,3.49986 0 0 1 3.49756,-3.50244 h 0.002 a 3.49986,3.49986 0 0 1 3.5,3.49707 q 0.0161,20.66969 0.007,41.33838 l 4.9e-4,26.74512 h -0.0181 a 3.50081,3.50081 0 0 1 -3.481,3.14453 z"
     id="path128"
     style="fill:#fff9ff;fill-opacity:1;stroke:#00ffff;stroke-opacity:1"
     inkscape:connector-curvature="0" />
  <path
     d="m 331.52635,10.50174 a 3.5000007,3.5000007 0 0 1 0.004,-7 l 5.582,4.9e-4 a 3.5000124,3.5000124 0 0 1 0.0186,7 l -1.70556,0.0034 z"
     id="path156"
     style="fill:#fff9ff;fill-opacity:1;stroke:#00ffff;stroke-opacity:1"
     inkscape:connector-curvature="0" />
  <path
     d="m 444.17682,7.0006 q 9.79848,0 13.34849,10.59411 l 28.80845,89.40589 h -20.49801 l -7.0757,-21.83771 h -29.24061 l -7.16197,21.83771 h -20.33763 l 28.82091,-89.40589 q 3.46355,-10.594 13.3361,-10.59411 m -9.13766,61.0606 h 18.27545 L 444.17685,39.85759 435.03916,68.0612 M 444.17682,6e-4 c -5.6962,0 -15.91069,2.01432 -20.32125,15.505 l -28.82959,89.43256 a 7.318702,7 0 0 0 6.99382,9.06244 h 20.33763 a 7.318702,7 0 0 0 6.98319,-4.90488 l 5.55346,-16.93283 h 18.47199 l 5.47899,16.90982 a 7.318702,7 0 0 0 6.9907,4.92789 h 20.49801 a 7.318702,7 0 0 0 6.99412,-9.06165 L 464.51938,15.53307 464.49364,15.4548 C 459.97982,2.00833 449.82704,6e-4 444.17682,6e-4 Z"
     id="path86"
     inkscape:connector-curvature="0"
     style="fill:none;fill-opacity:1;stroke:#00ffff;stroke-width:1.02251101;stroke-opacity:1" />
  <path
     d="m 341.22363,7.00158 q 1.71153,0 3.42337,0.005 a 239.21222,239.21222 0 0 0 1.47467,30.425 q 0.186,1.4697 0.39362,2.94086 c 0.2785,1.96075 0.59265,3.92016 0.963,5.86791 a 79.20257,79.20257 0 0 0 2.11585,8.65162 57.314,57.314 0 0 0 2.03857,5.57782 c 0.0284,0.06793 0.0614,0.134 0.0901,0.2019 a 55.73676,55.73676 0 0 0 12.69531,18.72626 q 0.99555,0.9494 2.04266,1.84289 a 48.73452,48.73452 0 0 0 16.68982,9.35163 37.434,37.434 0 0 0 5.97418,1.40875 q -0.003,7.47015 0,14.93829 a 63.09378,63.09378 0 0 1 -11.62384,-2.84015 c -0.0228,-0.008 -0.0459,-0.0142 -0.0687,-0.0219 -0.0162,-0.006 -0.032,-0.0125 -0.0482,-0.0182 a 59.74622,59.74622 0 0 1 -12.67425,-6.09154 c -0.0676,-0.04352 -0.139,-0.08057 -0.20636,-0.12445 a 60.96485,60.96485 0 0 1 -8.16967,-6.50122 63.28263,63.28263 0 0 1 -5.94627,-6.25612 c -0.78955,-0.959 -1.53949,-1.94928 -2.25952,-2.96087 a 47.55134,47.55134 0 0 1 -2.64765,-4.13233 58.71055,58.71055 0 0 1 -5.11572,-12.4328 c -0.0663,-0.24652 -0.12378,-0.495 -0.18561,-0.74255 -0.18536,-0.74256 -0.35772,-1.488 -0.51031,-2.2378 q -0.0602,-0.296 -0.11762,-0.59246 c -0.28338,-1.47162 -0.51251,-2.95423 -0.70752,-4.44172 q -0.17129,-1.30682 -0.31481,-2.61663 -0.14566,-1.30911 -0.27631,-2.61743 c -0.58612,-6.44874 -0.90839,-12.91956 -1.05029,-19.3926 -0.0696,-3.1779 -0.10956,-6.35638 -0.0891,-9.53447 q -9e-5,-8.18808 -6e-5,-16.38 2.05555,-0.002 4.11069,-0.003 m 0,-7 -3.103,0.002 -1.01325,8.5e-4 a 7,7 0 0 0 -6.99445,6.99759 q -0.002,5.52194 -3.9e-4,11.03977 l 4.5e-4,5.34272 c -0.0186,2.86631 0.011,6.04995 0.0908,9.68776 0.15592,7.11162 0.50834,13.61208 1.07737,19.87282 l 0.007,0.07388 q 0.13619,1.34074 0.28335,2.68387 0.15312,1.37682 0.33127,2.75232 c 0.23053,1.75852 0.48386,3.34674 0.77445,4.85578 q 0.064,0.332 0.13147,0.66244 c 0.16464,0.809 0.35376,1.63892 0.57867,2.53973 l 0.0506,0.20624 c 0.0537,0.22028 0.108,0.4404 0.16693,0.65946 q 0.0221,0.08231 0.0463,0.16409 a 65.24959,65.24959 0 0 0 5.74341,13.909 54.05735,54.05735 0 0 0 3.03046,4.7326 c 0.861,1.20972 1.69787,2.30585 2.55823,3.35083 a 70.54343,70.54343 0 0 0 6.60254,6.95062 68.36726,68.36726 0 0 0 9.13479,7.24735 c 0.079,0.0516 0.18479,0.11645 0.29627,0.18228 a 66.9193,66.9193 0 0 0 13.97577,6.72287 q 0.0751,0.0278 0.1506,0.054 c 0.0484,0.0167 0.11264,0.038 0.17163,0.0569 a 69.4647,69.4647 0 0 0 12.85867,3.12506 7,7 0 0 0 7.95114,-6.94061 q -0.006,-7.46591 0,-14.93 a 7,7 0 0 0 -5.9934,-6.93 30.21023,30.21023 0 0 1 -4.85489,-1.15088 41.9553,41.9553 0 0 1 -14.27191,-8.00708 c -0.59726,-0.50964 -1.18787,-1.04248 -1.75553,-1.58383 A 49.04592,49.04592 0 0 1 358.17013,57.94521 c -0.038,-0.08993 -0.0773,-0.17825 -0.11743,-0.266 a 50.65564,50.65564 0 0 1 -1.77209,-4.859 71.8572,71.8572 0 0 1 -1.92557,-7.88778 c -0.32388,-1.70349 -0.62134,-3.51722 -0.9093,-5.54462 q -0.20156,-1.41821 -0.37949,-2.83557 a 232.05511,232.05511 0 0 1 -1.41949,-29.48984 7,7 0 0 0 -6.9783,-7.056 q -1.72221,-0.005 -3.44483,-0.005 z"
     id="path194"
     style="fill:none;fill-opacity:1;stroke:#00ffff;stroke-opacity:1"
     inkscape:connector-curvature="0" />
  <path
     d="m 323.19334,110.43143 a 3.49971,3.49971 0 0 1 -3.49951,-3.48043 c -0.0376,-6.665 -0.0317,-13.332 -0.0259,-19.998 q 0.005,-5.92089 10e-4,-11.84082 v -0.0068 a 3.50206,3.50206 0 0 1 3.49316,-3.50391 h 0.007 a 3.49809,3.49809 0 0 1 3.5,3.49024 v 0.0098 q 0.01,6.10547 0,12.21387 c -0.005,6.53222 -0.0107,13.06543 0.0249,19.59765 a 3.5,3.5 0 0 1 -3.48047,3.51856 z"
     id="path160"
     style="fill:#fff9ff;fill-opacity:1;stroke:#00ffff;stroke-opacity:1"
     inkscape:connector-curvature="0" />
  <path
     d="m 323.19383,110.46854 a 3.50084,3.50084 0 0 1 -3.5,-3.5 v -0.0371 c -0.0356,-6.52734 -0.0303,-13.0752 -0.0249,-19.62207 q 0.005,-6.10254 0,-12.2041 l -10e-4,-27.23242 q 0.002,-20.42725 -0.007,-40.8545 a 3.49983,3.49983 0 0 1 3.47656,-3.50244 q 2.83008,-0.019 5.66162,-0.01611 l 8.31348,0.00439 a 3.50008,3.50008 0 0 1 3.5,3.5 q 0.003,49.97022 0,99.94092 a 3.49987,3.49987 0 0 1 -3.49121,3.5 l -7.56592,0.001 c -2.10986,0 -4.2207,0.004 -6.33106,0.0225 z"
     id="path164"
     style="fill:#fff9ff;fill-opacity:1;stroke:#00ffff;stroke-opacity:1"
     inkscape:connector-curvature="0" />
  <path
     d="m 466.91004,7.00062 v 17.1017 h 22.47387 v 82.8983 h 19.68313 v -82.8983 h 22.47373 V 7.00062 Z"
     id="path226"
     style="fill:#fff9ff;fill-opacity:1;stroke:#00ffff;stroke-width:1.02251101;stroke-opacity:1"
     inkscape:connector-curvature="0" />
  <path
     d="m 674.80554,7.00062 v 100 h 19.68312 v -100 z"
     id="path232"
     style="fill:none;fill-opacity:1;stroke:#00ffff;stroke-width:1.02251101;stroke-opacity:1"
     inkscape:connector-curvature="0" />
  <path
     d="m 694.48871,7.0006 v 100 h -19.68318 v -100 h 19.68318 m 0,-7 h -19.68318 a 7.318702,7 0 0 0 -7.3187,7 v 100 a 7.318702,7 0 0 0 7.3187,7 h 19.68318 a 7.318702,7 0 0 0 7.3187,-7 v -100 a 7.318702,7 0 0 0 -7.3187,-7 z"
     id="path102"
     inkscape:connector-curvature="0"
     style="fill:none;fill-opacity:1;stroke:#00ffff;stroke-width:1.02251101;stroke-opacity:1" />
  <path
     d="m 328.72821,7 q 1.40112,0 2.80261,0.00195 1.97411,0.00225 3.94834,0.00359 0.81673,0 1.63381,-0.00127 0.003,49.97028 0,99.94066 -1.35525,0.003 -2.71008,0.003 -2.42336,0 -4.84744,-0.002 -3.181,0 -6.36148,0.0226 l -6e-5,-0.0371 c -0.0578,-10.60987 -0.008,-21.22553 -0.0251,-31.83149 v -0.002 q -0.009,-34.037 -0.008,-68.08179 2.78316,-0.01856 5.5672,-0.01585 m 0,-7 q -2.8075,0 -5.61389,0.016 a 7,7 0 0 0 -6.95331,7.00465 q 0.014,20.43141 0.007,40.862 -10e-4,13.6091 7.6e-4,27.2168 0.0101,6.13549 1.5e-4,12.251 c -0.005,6.427 -0.0106,13.07284 0.0251,19.61871 a 7.032,7.032 0 0 0 7.0014,6.999 l 0.0599,-2.8e-4 c 2.09973,-0.0184 4.2,-0.0223 6.30011,-0.0223 l 2.41876,10e-4 2.42865,0.001 q 1.36428,0 2.72769,-0.003 a 7,7 0 0 0 6.98242,-6.99957 q 0.003,-49.96482 0,-99.94147 a 7,7 0 0 0 -7,-6.9996 h -0.0116 L 335.4792,0.00548 332.40732,0.003 331.53883,0.002 328.72821,0 Z"
     id="path166"
     style="fill:none;fill-opacity:1;stroke:#00ffff;stroke-opacity:1"
     inkscape:connector-curvature="0" />
  <path
     d="m 323.19383,110.46854 a 3.50084,3.50084 0 0 1 -3.5,-3.5 v -0.0371 c -0.0356,-6.52734 -0.0303,-13.0752 -0.0249,-19.62207 q 0.005,-6.10254 0,-12.2041 l -10e-4,-27.23242 q 0.002,-20.42725 -0.007,-40.8545 a 3.49983,3.49983 0 0 1 3.47656,-3.50244 q 2.83008,-0.019 5.66162,-0.01611 l 8.31348,0.00439 a 3.50008,3.50008 0 0 1 3.5,3.5 q 0.003,49.97022 0,99.94092 a 3.49987,3.49987 0 0 1 -3.49121,3.5 l -7.56592,0.001 c -2.10986,0 -4.2207,0.004 -6.33106,0.0225 z"
     id="path168"
     style="fill:#fffffe;fill-opacity:1;stroke:#00ffff;stroke-opacity:1"
     inkscape:connector-curvature="0" />
  <path
     d="m 268.05467,110.451 a 3.50028,3.50028 0 0 1 -3.5,-3.50293 q 0.006,-7.47363 0,-14.94043 a 3.49964,3.49964 0 0 1 2.9795,-3.46387 40.29815,40.29815 0 0 0 12.67626,-4.34577 45.96733,45.96733 0 0 0 12.63379,-9.88281 53.00983,53.00983 0 0 0 9.01661,-14.0791 c 2.32568,-5.10352 3.95947,-11.10059 5.15429,-18.90088 A 199.98115,199.98115 0 0 0 309.02,15.76929 c 0.02,-1.81787 0.0171,-3.6792 0.0146,-5.541 q -0.003,-1.61571 -4.8e-4,-3.23144 a 3.49969,3.49969 0 0 1 3.48925,-3.49072 l 7.58936,-0.00391 a 3.49987,3.49987 0 0 1 3.5,3.49414 q 0.009,5.24121 0.004,10.48584 v 7.33545 c 0.0225,4.38818 -0.0801,9.16455 -0.32275,15.01611 a 185.99493,185.99493 0 0 1 -2.01562,21.82032 57.5327,57.5327 0 0 1 -4.87256,14.94628 c -3.2959,6.94629 -8.57813,13.52735 -15.708,19.57911 a 58.55492,58.55492 0 0 1 -19.71924,11.17675 67.20177,67.20177 0 0 1 -12.43262,3.06055 3.622,3.622 0 0 1 -0.49122,0.0342 z"
     id="path120"
     style="fill:#fff9ff;fill-opacity:1;stroke:#00ffff;stroke-opacity:1"
     inkscape:connector-curvature="0" />
  <path
     d="m 389.12465,110.43925 a 3.54366,3.54366 0 0 1 -0.47559,-0.0322 66.17723,66.17723 0 0 1 -12.27,-2.99219 c -0.0195,-0.007 -0.084,-0.0283 -0.12109,-0.041 0.0264,0.009 0.0747,0.0244 0.125,0.0391 -0.0518,-0.0156 -0.10352,-0.0322 -0.15479,-0.0498 a 63.38574,63.38574 0 0 1 -13.41455,-6.4541 c -0.0474,-0.0244 -0.13574,-0.0772 -0.22168,-0.13379 a 64.98492,64.98492 0 0 1 -8.62451,-6.85449 67.13207,67.13207 0 0 1 -6.28222,-6.61035 c -0.80957,-0.9834 -1.59766,-2.01563 -2.40918,-3.15625 a 50.7031,50.7031 0 0 1 -2.84082,-4.43555 61.817,61.817 0 0 1 -5.42725,-13.167 c -0.0752,-0.27637 -0.12109,-0.46387 -0.167,-0.65137 l -0.0576,-0.23438 c -0.19775,-0.793 -0.38135,-1.58789 -0.54394,-2.38574 l -0.12549,-0.63281 c -0.27686,-1.43652 -0.519,-2.957 -0.74073,-4.64648 q -0.17577,-1.34181 -0.32275,-2.68653 -0.14794,-1.32348 -0.27978,-2.6499 c -0.56592,-6.2168 -0.91358,-12.63916 -1.06739,-19.669 -0.0796,-3.604 -0.10888,-6.75537 -0.0903,-9.63379 V 7.00273 a 3.49987,3.49987 0 0 1 3.49707,-3.49854 l 4.12061,-0.003 q 1.71386,0 3.42724,0.005 a 3.50015,3.50015 0 0 1 3.48926,3.52832 235.4805,235.4805 0 0 0 1.44971,29.98 c 0.11914,0.93945 0.24707,1.90283 0.38379,2.86523 0.29443,2.0752 0.60058,3.9419 0.936,5.707 a 75.25771,75.25771 0 0 0 2.021,8.26856 54.02985,54.02985 0 0 0 1.91308,5.2373 l 0.0977,0.22071 a 51.84659,51.84659 0 0 0 11.88232,17.54882 c 0.61963,0.58985 1.2583,1.166 1.90137,1.71485 a 45.51018,45.51018 0 0 0 15.48731,8.68261 33.68522,33.68522 0 0 0 5.40918,1.27735 3.50107,3.50107 0 0 1 2.99609,3.46484 c -0.002,5.0166 -0.004,9.97461 0,14.93457 a 3.49987,3.49987 0 0 1 -3.5,3.50293 z"
     id="path192"
     style="fill:#fffffe;fill-opacity:1;stroke:#00ffff;stroke-opacity:1"
     inkscape:connector-curvature="0" />
  <path
     style="opacity:1;vector-effect:none;fill:#fffffe;fill-opacity:1;stroke:none;stroke-width:0.47244096;stroke-linecap:butt;stroke-linejoin:miter;stroke-miterlimit:4;stroke-dasharray:none;stroke-dashoffset:0;stroke-opacity:1"
     d="m 675.71222,105.4619 c -0.0852,-0.51563 -0.1562,-22.734378 -0.15771,-49.375003 l -0.003,-48.4374996 h 9.125 9.125 V 57.024397 106.3994 h -8.96729 -8.96729 z"
     id="path1012"
     inkscape:connector-curvature="0" />
  <g
     id="g1028"
     transform="matrix(0.9889308,0,0,0.92493999,-0.1377441,1.614997)">
    <path
       style="fill:#fff9ff;fill-opacity:1;stroke:#00ffff;stroke-width:1.02251101;stroke-opacity:1"
       inkscape:connector-curvature="0"
       id="path82"
       d="m 735.48402,10.51183 a 8.2718898,7.91168 0 1 1 -8.23839,7.91168 8.2581202,7.89851 0 0 1 8.23839,-7.91168 m 0,-7 A 15.59056,14.91165 0 1 0 751.04105,18.42351 15.591522,14.91257 0 0 0 735.48402,3.51183 Z" />
    <path
       sodipodi:nodetypes="cscc"
       style="fill:none;fill-opacity:1;stroke:#00ffff;stroke-width:1.02251101;stroke-opacity:1"
       inkscape:connector-curvature="0"
       id="path118"
       d="m 735.48402,-1.49942 c -18.33884,-0.045833 -27.56523,21.14723 -14.61622,33.564804 12.949,12.417575 35.13103,3.648442 35.13109,-13.891874 0.002,-10.8457864 -9.17532,-19.6464542 -20.51487,-19.67293 z" />
  </g>
  <g
     id="g1024"
     transform="matrix(0.96488918,0,0,0.93777102,-42.771566,1.6275172)">
    <path
       style="fill:#fff9ff;fill-opacity:1;stroke:#00ffff;stroke-width:1.02251101;stroke-opacity:1"
       inkscape:connector-curvature="0"
       id="path76"
       d="m 797.98402,38.06725 a 8.2718584,7.91165 0 1 1 -8.23839,7.91156 8.258047,7.89844 0 0 1 8.23839,-7.91156 m 0,-7 a 15.59054,14.91163 0 1 0 15.55703,14.91158 15.59147,14.91252 0 0 0 -15.55703,-14.91158 z" />
    <path
       sodipodi:nodetypes="cscc"
       style="fill:none;fill-opacity:1;stroke:#00ffff;stroke-width:1.02251101;stroke-opacity:1"
       inkscape:connector-curvature="0"
       id="path114"
       d="m 797.73402,26.556 c -18.33882,-0.0458 -27.56514,21.14727 -14.6161,33.564786 12.94904,12.417516 35.131,3.648299 35.13097,-13.891996 0.002,-10.845745 -9.17536,-19.646347 -20.51487,-19.67279 z" />
  </g>
  <g
     id="g1020"
     transform="matrix(0.99909127,0,0,1.0876999,-7.859957,0.35905956)">
    <path
       style="fill:none;fill-opacity:1;stroke:#00ffff;stroke-width:0.95035475;stroke-opacity:1"
       inkscape:connector-curvature="0"
       id="path110"
       d="m 741.78102,56.337975 c 2.19159,0 4.09937,0.948446 5.72321,2.826312 a 14.359022,11.824921 0 0 1 0,13.16409 c -1.62386,1.877874 -3.53164,2.826174 -5.72321,2.826174 h -0.72678 c -2.20284,0 -4.11063,-0.948334 -5.71179,-2.826174 a 7.5868113,6.2478799 0 0 1 -6.41586,2.826174 c -2.19164,0 -4.09931,-0.948334 -5.73454,-2.826174 a 14.194384,11.689339 0 0 1 0,-13.16409 c 1.63523,-1.877866 3.5429,-2.826312 5.73454,-2.826312 h 0.70407 q 3.30435,0 5.71179,2.807529 a 7.6734396,6.3192199 0 0 1 6.43861,-2.807529 m -0.81894,14.022765 a 4.5432606,3.7414594 0 0 0 3.31701,-1.177213 5.7354045,4.7232121 0 0 0 1.60871,-3.448976 5.5558121,4.5753144 0 0 0 -1.60871,-3.425388 4.5427789,3.7410627 0 0 0 -3.31701,-1.177213 3.4698744,2.857506 0 0 0 -2.79032,1.4125 6.7853428,5.5878557 0 0 0 0,6.403669 3.4698849,2.8575146 0 0 0 2.79032,1.412604 m -11.27241,-0.295407 a 3.2320551,2.6616574 0 0 0 2.62502,-1.322101 6.2911365,5.1808677 0 0 0 0,-5.993869 3.2323379,2.6618903 0 0 0 -2.62502,-1.322101 4.3115153,3.5506129 0 0 0 -3.09148,1.101768 5.192407,4.2760436 0 0 0 -1.49237,3.206263 5.358982,4.4132212 0 0 0 1.49237,3.228254 4.3114525,3.5505611 0 0 0 3.09148,1.101777 m 12.09134,-19.764348 a 14.897505,12.268372 0 0 0 -6.29678,1.123967 13.145545,10.825601 0 0 0 -5.85362,-1.123967 h -0.70407 c -3.21038,0 -7.84477,0.927333 -11.69179,5.345169 a 21.516922,17.719585 0 0 0 0.004,20.20466 c 3.84325,4.413471 8.4777,5.340796 11.68808,5.340796 a 14.838996,12.220188 0 0 0 6.28638,-1.123009 13.102409,10.790077 0 0 0 5.84121,1.123035 h 0.72679 c 4.55173,0 8.70491,-1.904006 11.69454,-5.361296 a 21.680775,17.85452 0 0 0 0.0298,-20.133182 c -3.01947,-3.49208 -7.17272,-5.396147 -11.72438,-5.396147 z" />
    <path
       inkscape:connector-curvature="0"
       id="path1014"
       d="m 727.10576,74.293363 c -2.47255,-0.805849 -4.60967,-3.200265 -5.45658,-6.11353 -0.86554,-2.977381 0.16811,-6.799988 2.45685,-9.085814 1.65462,-1.652511 2.70034,-2.067338 5.2064,-2.065327 2.43264,0.002 3.58534,0.461113 5.1171,2.038315 l 0.89525,0.921806 0.93132,-0.90737 c 1.48267,-1.444533 3.08136,-2.048914 5.43133,-2.053307 1.72561,-0.0032 2.15721,0.08868 3.14591,0.669927 3.6232,2.130029 5.30362,6.676462 4.0161,10.865659 -1.31285,4.271638 -5.06566,6.710733 -9.02026,5.862622 -1.46924,-0.315095 -2.25739,-0.754894 -3.57925,-1.997285 l -0.9375,-0.881136 -0.9375,0.9134 c -1.81488,1.768229 -5.0011,2.571246 -7.26917,1.83204 z m 16.47408,-4.081466 c 3.85964,-1.955319 3.80443,-7.151865 -0.096,-9.040052 -2.17744,-1.054082 -4.63049,-0.514783 -5.95116,1.308354 -1.03781,1.432652 -1.34185,2.754153 -0.98798,4.294198 0.81822,3.560873 3.85893,5.046611 7.03518,3.4375 z m -12.42818,0.09356 c 1.05911,-0.442525 2.34949,-2.008709 2.68862,-3.263283 0.55941,-2.069482 -0.4707,-4.597061 -2.29031,-5.619741 -2.70585,-1.520773 -6.62741,0.566999 -6.9273,3.687978 -0.22167,2.307001 0.72334,3.978192 2.79504,4.942868 1.44686,0.673721 2.5472,0.748033 3.73395,0.252178 z"
       style="opacity:1;vector-effect:none;fill:#fffffe;fill-opacity:1;stroke:none;stroke-width:0.47244096;stroke-linecap:butt;stroke-linejoin:miter;stroke-miterlimit:4;stroke-dasharray:none;stroke-dashoffset:0;stroke-opacity:1" />
  </g>
  <path
     style="opacity:1;vector-effect:none;fill:#fffffe;fill-opacity:1;stroke:none;stroke-width:0.47244096;stroke-linecap:butt;stroke-linejoin:miter;stroke-miterlimit:4;stroke-dasharray:none;stroke-dashoffset:0;stroke-opacity:1"
     d="m 713.53426,98.014438 c 0,-7.157863 0.0314,-7.696597 0.50322,-8.621344 0.6345,-1.243732 1.52526,-1.853497 2.39043,-1.636354 0.35602,0.08935 5.98184,2.767955 12.50182,5.952446 l 11.85453,5.789986 v 2.450108 c 0,1.34757 -0.0984,2.45012 -0.21875,2.45012 -0.12031,0 -5.36438,-2.53125 -11.65348,-5.625002 -6.28911,-3.093751 -11.47817,-5.625001 -11.53125,-5.625001 -0.0531,0 -0.0965,2.8125 -0.0965,6.250001 v 6.250002 h -1.875 -1.875 z"
     id="path1016"
     inkscape:connector-curvature="0" />
</svg>
