<?xml version="1.0" encoding="UTF-8" standalone="no"?>
<svg
   xmlns:dc="http://purl.org/dc/elements/1.1/"
   xmlns:cc="http://creativecommons.org/ns#"
   xmlns:rdf="http://www.w3.org/1999/02/22-rdf-syntax-ns#"
   xmlns:svg="http://www.w3.org/2000/svg"
   xmlns="http://www.w3.org/2000/svg"
   xmlns:sodipodi="http://sodipodi.sourceforge.net/DTD/sodipodi-0.dtd"
   xmlns:inkscape="http://www.inkscape.org/namespaces/inkscape"
   width="135"
   height="20"
   viewBox="0 0 135 20"
   version="1.1"
   id="svg3739"
   sodipodi:docname="system.svg"
   inkscape:version="0.92.4 (5da689c313, 2019-01-14)">
  <metadata
     id="metadata3743">
    <rdf:RDF>
      <cc:Work
         rdf:about="">
        <dc:format>image/svg+xml</dc:format>
        <dc:type
           rdf:resource="http://purl.org/dc/dcmitype/StillImage" />
        <dc:title>system</dc:title>
      </cc:Work>
    </rdf:RDF>
  </metadata>
  <sodipodi:namedview
     pagecolor="#ffffff"
     bordercolor="#666666"
     borderopacity="1"
     objecttolerance="10"
     gridtolerance="10"
     guidetolerance="10"
     inkscape:pageopacity="0"
     inkscape:pageshadow="2"
     inkscape:window-width="1920"
     inkscape:window-height="1137"
     id="namedview3741"
     showgrid="false"
     inkscape:zoom="3.7591671"
     inkscape:cx="36.943518"
     inkscape:cy="8.1535411"
     inkscape:window-x="-8"
     inkscape:window-y="344"
     inkscape:window-maximized="1"
     inkscape:current-layer="svg3739"
     scale-x="2"
     inkscape:pagecheckerboard="true" />
  <!-- Generator: Sketch 45 (43475) - http://www.bohemiancoding.com/sketch -->
  <title
     id="title3729">system</title>
  <desc
     id="desc3731">Created with Sketch.</desc>
  <defs
     id="defs3733" />
  <g
     inkscape:groupmode="layer"
     id="layer1"
     inkscape:label="Layer 1"
     transform="translate(0,2)" />
  <g
     inkscape:groupmode="layer"
     id="layer2"
     inkscape:label="Layer 2"
     transform="translate(0,2)" />
  <g
     aria-label="ODYSSEY 2"
     style="font-style:normal;font-variant:normal;font-weight:normal;font-stretch:normal;font-size:16px;line-height:1.25;font-family:Durandal;-inkscape-font-specification:Durandal;letter-spacing:0px;word-spacing:0px;fill:none;fill-opacity:1;stroke:#ffffff;stroke-opacity:1"
     id="text833"
     transform="translate(-0.26601637,-1.0640655)">
    <path
       d="m 21.178574,10.619522 q 0,-1.7499999 0.523437,-2.9374999 0.390625,-0.875 1.0625,-1.5703125 0.679688,-0.6953125 1.484375,-1.03125 1.070313,-0.453125 2.46875,-0.453125 2.53125,0 4.046875,1.5703125 1.523438,1.5703125 1.523438,4.3671879 0,2.773437 -1.507813,4.34375 -1.507812,1.5625 -4.03125,1.5625 -2.554687,0 -4.0625,-1.554688 -1.507812,-1.5625 -1.507812,-4.296875 z m 2.382812,-0.07813 q 0,1.945313 0.898438,2.953125 0.898437,1 2.28125,1 1.382812,0 2.265625,-0.992187 0.890625,-1 0.890625,-2.992188 0,-1.9687499 -0.867188,-2.9374999 -0.859375,-0.96875 -2.289062,-0.96875 -1.429688,0 -2.304688,0.984375 -0.875,0.9765625 -0.875,2.9531249 z"
       style="font-style:normal;font-variant:normal;font-weight:bold;font-stretch:normal;font-family:Arial;-inkscape-font-specification:'Arial Bold';fill:none;stroke:#ffffff;stroke-opacity:1"
       id="path835"
       inkscape:connector-curvature="0" />
    <path
       d="m 34.077011,4.8226471 h 4.226563 q 1.429687,0 2.179687,0.21875 1.007813,0.296875 1.726563,1.0546875 0.71875,0.7578125 1.09375,1.859375 0.375,1.09375 0.375,2.7031254 0,1.414062 -0.351563,2.4375 -0.429687,1.25 -1.226562,2.023437 -0.601563,0.585938 -1.625,0.914063 -0.765625,0.242187 -2.046875,0.242187 h -4.351563 z m 2.3125,1.9375 v 7.5859379 h 1.726563 q 0.96875,0 1.398437,-0.109375 0.5625,-0.140625 0.929688,-0.476563 0.375,-0.335937 0.609375,-1.101562 0.234375,-0.773438 0.234375,-2.101563 0,-1.3281249 -0.234375,-2.0390624 -0.234375,-0.7109375 -0.65625,-1.109375 -0.421875,-0.3984375 -1.070313,-0.5390625 -0.484375,-0.109375 -1.898437,-0.109375 z"
       style="font-style:normal;font-variant:normal;font-weight:bold;font-stretch:normal;font-family:Arial;-inkscape-font-specification:'Arial Bold';fill:none;stroke:#ffffff;stroke-opacity:1"
       id="path837"
       inkscape:connector-curvature="0" />
    <path
       d="M 48.655136,16.275772 V 11.45546 L 44.459824,4.8226471 h 2.710937 l 2.695313,4.53125 2.640625,-4.53125 h 2.664062 l -4.210937,6.6484379 v 4.804687 z"
       style="font-style:normal;font-variant:normal;font-weight:bold;font-stretch:normal;font-family:Arial;-inkscape-font-specification:'Arial Bold';fill:none;stroke:#ffffff;stroke-opacity:1"
       id="path839"
       inkscape:connector-curvature="0" />
    <path
       d="m 55.748886,12.54921 2.25,-0.21875 q 0.203125,1.132812 0.820313,1.664062 0.625,0.53125 1.679687,0.53125 1.117188,0 1.679688,-0.46875 0.570312,-0.476562 0.570312,-1.109375 0,-0.40625 -0.242187,-0.6875 -0.234375,-0.289062 -0.828125,-0.5 -0.40625,-0.140625 -1.851563,-0.5 -1.859375,-0.460937 -2.609375,-1.132812 -1.054687,-0.9453129 -1.054687,-2.3046879 0,-0.875 0.492187,-1.6328125 0.5,-0.765625 1.429688,-1.1640625 0.9375,-0.3984375 2.257812,-0.3984375 2.15625,0 3.242188,0.9453125 1.09375,0.9453125 1.148437,2.5234375 l -2.3125,0.1015625 q -0.148437,-0.8828125 -0.640625,-1.265625 -0.484375,-0.390625 -1.460937,-0.390625 -1.007813,0 -1.578125,0.4140625 -0.367188,0.265625 -0.367188,0.7109375 0,0.40625 0.34375,0.6953125 0.4375,0.3671875 2.125,0.765625 1.6875,0.3984375 2.492188,0.828125 0.8125,0.4218754 1.265625,1.1640624 0.460937,0.734375 0.460937,1.820313 0,0.984375 -0.546875,1.84375 -0.546875,0.859375 -1.546875,1.28125 -1,0.414062 -2.492187,0.414062 -2.171875,0 -3.335938,-1 -1.164062,-1.007812 -1.390625,-2.929687 z"
       style="font-style:normal;font-variant:normal;font-weight:bold;font-stretch:normal;font-family:Arial;-inkscape-font-specification:'Arial Bold';fill:none;stroke:#ffffff;stroke-opacity:1"
       id="path841"
       inkscape:connector-curvature="0" />
    <path
       d="m 66.436386,12.54921 2.25,-0.21875 q 0.203125,1.132812 0.820313,1.664062 0.625,0.53125 1.679687,0.53125 1.117188,0 1.679688,-0.46875 0.570312,-0.476562 0.570312,-1.109375 0,-0.40625 -0.242187,-0.6875 -0.234375,-0.289062 -0.828125,-0.5 -0.40625,-0.140625 -1.851563,-0.5 -1.859375,-0.460937 -2.609375,-1.132812 -1.054687,-0.9453129 -1.054687,-2.3046879 0,-0.875 0.492187,-1.6328125 0.5,-0.765625 1.429688,-1.1640625 0.9375,-0.3984375 2.257812,-0.3984375 2.15625,0 3.242188,0.9453125 1.09375,0.9453125 1.148437,2.5234375 l -2.3125,0.1015625 q -0.148437,-0.8828125 -0.640625,-1.265625 -0.484375,-0.390625 -1.460937,-0.390625 -1.007813,0 -1.578125,0.4140625 -0.367188,0.265625 -0.367188,0.7109375 0,0.40625 0.34375,0.6953125 0.4375,0.3671875 2.125,0.765625 1.6875,0.3984375 2.492188,0.828125 0.8125,0.4218754 1.265625,1.1640624 0.460937,0.734375 0.460937,1.820313 0,0.984375 -0.546875,1.84375 -0.546875,0.859375 -1.546875,1.28125 -1,0.414062 -2.492187,0.414062 -2.171875,0 -3.335938,-1 -1.164062,-1.007812 -1.390625,-2.929687 z"
       style="font-style:normal;font-variant:normal;font-weight:bold;font-stretch:normal;font-family:Arial;-inkscape-font-specification:'Arial Bold';fill:none;stroke:#ffffff;stroke-opacity:1"
       id="path843"
       inkscape:connector-curvature="0" />
    <path
       d="M 77.709824,16.275772 V 4.8226471 h 8.492187 v 1.9375 h -6.179687 v 2.5390625 h 5.75 v 1.9296874 h -5.75 v 3.117188 h 6.398437 v 1.929687 z"
       style="font-style:normal;font-variant:normal;font-weight:bold;font-stretch:normal;font-family:Arial;-inkscape-font-specification:'Arial Bold';fill:none;stroke:#ffffff;stroke-opacity:1"
       id="path845"
       inkscape:connector-curvature="0" />
    <path
       d="M 91.405136,16.275772 V 11.45546 L 87.209824,4.8226471 h 2.710937 l 2.695313,4.53125 2.640625,-4.53125 h 2.664062 l -4.210937,6.6484379 v 4.804687 z"
       style="font-style:normal;font-variant:normal;font-weight:bold;font-stretch:normal;font-family:Arial;-inkscape-font-specification:'Arial Bold';fill:none;stroke:#ffffff;stroke-opacity:1"
       id="path847"
       inkscape:connector-curvature="0" />
    <path
       d="m 110.17076,14.23671 v 2.039062 h -7.69531 q 0.125,-1.15625 0.75,-2.1875 0.625,-1.039062 2.46875,-2.75 1.48437,-1.3828124 1.82031,-1.8749999 0.45313,-0.6796875 0.45313,-1.34375 0,-0.734375 -0.39844,-1.125 -0.39063,-0.3984375 -1.08594,-0.3984375 -0.6875,0 -1.09375,0.4140625 -0.40625,0.4140625 -0.46875,1.375 l -2.1875,-0.21875 q 0.19531,-1.8125 1.22656,-2.6015625 1.03125,-0.7890625 2.57813,-0.7890625 1.69531,0 2.66406,0.9140625 0.96875,0.9140625 0.96875,2.2734375 0,0.7734375 -0.28125,1.4765625 -0.27344,0.6953124 -0.875,1.4609374 -0.39844,0.507813 -1.4375,1.460938 -1.03906,0.953125 -1.32031,1.265625 -0.27344,0.3125 -0.44531,0.609375 z"
       style="font-style:normal;font-variant:normal;font-weight:bold;font-stretch:normal;font-family:Arial;-inkscape-font-specification:'Arial Bold';fill:none;stroke:#ffffff;stroke-opacity:1"
       id="path849"
       inkscape:connector-curvature="0" />
  </g>
</svg>
