<?xml version="1.0" encoding="UTF-8" standalone="no"?>
<!-- Created with Inkscape (http://www.inkscape.org/) -->

<svg
   xmlns:dc="http://purl.org/dc/elements/1.1/"
   xmlns:cc="http://creativecommons.org/ns#"
   xmlns:rdf="http://www.w3.org/1999/02/22-rdf-syntax-ns#"
   xmlns:svg="http://www.w3.org/2000/svg"
   xmlns="http://www.w3.org/2000/svg"
   xmlns:sodipodi="http://sodipodi.sourceforge.net/DTD/sodipodi-0.dtd"
   xmlns:inkscape="http://www.inkscape.org/namespaces/inkscape"
   width="1000"
   height="114"
   viewBox="0 0 264.58333 30.162499"
   version="1.1"
   id="svg833"
   inkscape:version="0.92.4 (5da689c313, 2019-01-14)"
   sodipodi:docname="system.svg">
  <defs
     id="defs827" />
  <sodipodi:namedview
     id="base"
     pagecolor="#ffffff"
     bordercolor="#666666"
     borderopacity="1.0"
     inkscape:pageopacity="0.0"
     inkscape:pageshadow="2"
     inkscape:zoom="1.979899"
     inkscape:cx="440.88586"
     inkscape:cy="83.316171"
     inkscape:document-units="mm"
     inkscape:current-layer="layer1"
     showgrid="false"
     inkscape:pagecheckerboard="true"
     units="px"
     inkscape:window-width="1920"
     inkscape:window-height="1017"
     inkscape:window-x="-8"
     inkscape:window-y="-8"
     inkscape:window-maximized="1"
     inkscape:snap-global="false" />
  <metadata
     id="metadata830">
    <rdf:RDF>
      <cc:Work
         rdf:about="">
        <dc:format>image/svg+xml</dc:format>
        <dc:type
           rdf:resource="http://purl.org/dc/dcmitype/StillImage" />
        <dc:title />
      </cc:Work>
    </rdf:RDF>
  </metadata>
  <g
     inkscape:label="Layer 1"
     inkscape:groupmode="layer"
     id="layer1"
     transform="translate(0,-266.8375)">
    <g
       id="g926">
      <g
         aria-label="r"
         transform="scale(1.0916096,0.91607838)"
         style="font-style:normal;font-variant:normal;font-weight:normal;font-stretch:normal;font-size:47.36471939px;line-height:1.25;font-family:'SF Atarian System';-inkscape-font-specification:'SF Atarian System';letter-spacing:0px;word-spacing:0px;fill:none;fill-opacity:0.99803922;stroke:#00ffff;stroke-width:0.64608538;stroke-miterlimit:4;stroke-dasharray:none;stroke-opacity:1"
         id="text923">
        <path
           sodipodi:nodetypes="cccscscssscccscsscccc"
           d="m 96.884258,319.54117 h -4.417315 l -5.226771,-8.16394 c -0.740074,-1.15637 -1.110111,-2.04291 -1.110111,-2.65964 0,-1.15637 0.539637,-2.12771 1.618912,-2.91404 0.524219,-0.29295 1.040728,-0.58589 1.549529,-0.87884 0.508801,-0.29295 1.02531,-0.5936 1.549529,-0.90196 1.079275,-0.75549 1.618912,-1.6883 1.618912,-2.79841 0,-0.83258 -0.316073,-1.56494 -0.94822,-2.19709 -0.632146,-0.63215 -1.37222,-0.94822 -2.220221,-0.94822 h -3.792878 v 21.46214 h -3.792878 v -22.73414 c 0,-0.66299 0.2544,-1.24888 0.763201,-1.75768 0.524219,-0.5088 1.11782,-0.7632 1.780803,-0.7632 h 5.041752 c 1.80393,0 3.407423,0.65527 4.810479,1.96582 1.418475,1.32597 2.250132,4.18839 2.250132,5.96148 -0.883743,3.36671 -1.898798,4.3274 -4.502698,6.64106 z"
           style="fill:none;fill-opacity:0.99803922;stroke:#00ffff;stroke-width:0.64608538;stroke-miterlimit:4;stroke-dasharray:none;stroke-opacity:1"
           id="path850"
           inkscape:connector-curvature="0" />
      </g>
      <g
         aria-label="e"
         transform="scale(1.0829865,0.92337255)"
         style="font-style:normal;font-variant:normal;font-weight:normal;font-stretch:normal;font-size:47.84780121px;line-height:1.25;font-family:'SF Atarian System';-inkscape-font-specification:'SF Atarian System';letter-spacing:0px;word-spacing:0px;fill:none;fill-opacity:0.99803922;stroke:#00ffff;stroke-width:0.6614992;stroke-miterlimit:4;stroke-dasharray:none;stroke-opacity:1"
         id="text927">
        <path
           sodipodi:nodetypes="cscsscscccccccccc"
           d="m 110.02083,317.32455 h -9.88263 c -0.669743,0 -1.269397,-0.25699 -1.798962,-0.77098 -0.51399,-0.52957 -0.770985,-1.12143 -0.770985,-1.7756 v -20.41943 c 0,-0.66974 0.256995,-1.26161 0.770985,-1.7756 0.529565,-0.51399 1.129219,-0.77098 1.798962,-0.77098 h 9.88263 l -0.0872,6.08295 h -7.05046 l -0.0873,3.12019 4.0242,0.10233 -0.0872,6.38997 -4.0242,-0.10234 0.1745,3.22253 h 7.05046 z"
           style="fill:none;fill-opacity:0.99803922;stroke:#00ffff;stroke-width:0.6614992;stroke-miterlimit:4;stroke-dasharray:none;stroke-opacity:1"
           id="path853"
           inkscape:connector-curvature="0" />
      </g>
      <g
         aria-label="c"
         transform="scale(1.1178698,0.89455855)"
         style="font-style:normal;font-variant:normal;font-weight:normal;font-stretch:normal;font-size:50.12077713px;line-height:1.25;font-family:'SF Atarian System';-inkscape-font-specification:'SF Atarian System';letter-spacing:0px;word-spacing:0px;fill:none;fill-opacity:0.99803922;stroke:#00ffff;stroke-width:0.67701775;stroke-miterlimit:4;stroke-dasharray:none;stroke-opacity:1"
         id="text931">
        <path
           sodipodi:nodetypes="ccscsscsccc"
           d="m 120.96923,319.26915 c -0.0489,1.94153 -0.62828,4.82501 -2.09667,6.30971 -1.46839,1.46838 -3.15703,2.20257 -5.06592,2.20257 -1.94153,0 -3.65464,-0.74235 -5.13934,-2.22704 -1.4847,-1.4847 -2.22705,-3.18966 -2.22705,-5.11487 v -12.04073 c 0,-1.92521 0.74235,-3.63017 2.22705,-5.11487 1.4847,-1.48469 3.19781,-2.22704 5.13934,-2.22704 1.90889,0 3.59753,0.74235 5.06592,2.22704 1.46838,1.46839 1.97345,6.13104 2.0224,8.07257 0.0969,5.22417 -0.066,1.93744 0.0743,7.91266 z"
           style="fill:none;fill-opacity:0.99803922;stroke:#00ffff;stroke-width:0.67701775;stroke-miterlimit:4;stroke-dasharray:none;stroke-opacity:1"
           id="path856"
           inkscape:connector-curvature="0" />
      </g>
      <path
         inkscape:connector-curvature="0"
         id="path1424"
         style="font-style:normal;font-variant:normal;font-weight:normal;font-stretch:normal;font-size:35.27777863px;line-height:1.25;font-family:'SF Atarian System';-inkscape-font-specification:'SF Atarian System';letter-spacing:0px;word-spacing:0px;fill:#fffff8;fill-opacity:0.99803922;stroke:none;stroke-width:1.09296513;stroke-miterlimit:4;stroke-dasharray:none;stroke-opacity:1"
         d="m 104.09181,291.17676 h -3.9195 l -4.637734,-6.5495 q -0.985005,-1.39155 -0.985005,-2.1337 0,-1.39153 1.436466,-2.33778 0.69771,-0.35253 1.374891,-0.70505 0.677197,-0.35252 1.374918,-0.7236 1.436464,-0.90914 1.436464,-2.24502 0,-1.00191 -0.841364,-1.76262 -0.84136,-0.7607 -1.970018,-0.7607 h -3.365422 v 17.21797 h -3.365433 v -18.23844 q 0,-0.79782 0.67719,-1.41009 0.697712,-0.61227 1.580112,-0.61227 h 4.473553 q 2.400965,0 4.268362,1.57707 1.88793,1.59564 1.88793,3.72934 0,2.13368 -1.60063,3.8592 -1.5596,1.70694 -3.898979,2.35632 z" />
      <path
         inkscape:connector-curvature="0"
         id="path1426"
         style="font-style:normal;font-variant:normal;font-weight:normal;font-stretch:normal;font-size:35.27777863px;line-height:1.25;font-family:'SF Atarian System';-inkscape-font-specification:'SF Atarian System';letter-spacing:0px;word-spacing:0px;fill:#fffff8;fill-opacity:0.99803922;stroke:none;stroke-width:1.09296513;stroke-miterlimit:4;stroke-dasharray:none;stroke-opacity:1"
         d="m 117.65615,291.17676 h -8.68037 q -0.88238,0 -1.58011,-0.61228 -0.67718,-0.63083 -0.67718,-1.41009 v -16.21607 q 0,-0.79782 0.67718,-1.41009 0.69773,-0.61227 1.58011,-0.61227 h 8.68037 v 3.04283 h -7.57223 v 5.56615 h 4.76085 v 3.04283 h -4.76085 v 5.56616 h 7.57223 z" />
      <g
         aria-label="n"
         transform="scale(1.0879094,0.91919422)"
         style="font-style:normal;font-variant:normal;font-weight:normal;font-stretch:normal;font-size:49.24957275px;line-height:1.25;font-family:'SF Atarian System';-inkscape-font-specification:'SF Atarian System';letter-spacing:0px;word-spacing:0px;fill:none;fill-opacity:0.99803922;stroke:#00ffff;stroke-width:0.66433156;stroke-miterlimit:4;stroke-dasharray:none;stroke-opacity:1"
         id="text939">
        <path
           sodipodi:nodetypes="scsccccscsccccs"
           d="m 151.72296,316.69946 c 0,0.67333 -0.24849,1.28254 -0.74548,1.82762 -0.48095,0.52905 -1.05008,0.79357 -1.70738,0.79357 -1.01001,0 -2.4677,-0.66813 -3.15706,-2.41559 l -2.38001,-5.38267 -0.0869,7.69546 -6.37585,0.1028 v -23.63883 c 0,-0.7054 0.24849,-1.31461 0.74548,-1.82763 0.49699,-0.52905 1.07413,-0.79357 1.73143,-0.79357 0.97794,0 3.1305,0.15413 3.85193,1.90159 l 2.8771,8.2611 -0.43429,-10.05989 5.68099,-0.1028 z"
           style="fill:none;fill-opacity:0.99803922;stroke:#00ffff;stroke-width:0.66433156;stroke-miterlimit:4;stroke-dasharray:none;stroke-opacity:1"
           id="path862"
           inkscape:connector-curvature="0" />
      </g>
      <path
         inkscape:connector-curvature="0"
         id="path1428"
         style="font-style:normal;font-variant:normal;font-weight:normal;font-stretch:normal;font-size:35.27777863px;line-height:1.25;font-family:'SF Atarian System';-inkscape-font-specification:'SF Atarian System';letter-spacing:0px;word-spacing:0px;fill:#fffff8;fill-opacity:0.99803922;stroke:none;stroke-width:1.09296513;stroke-miterlimit:4;stroke-dasharray:none;stroke-opacity:1"
         d="m 133.49829,285.61061 q -0.0615,2.20791 -1.90844,3.89631 -1.84688,1.66984 -4.24783,1.66984 -2.44198,0 -4.30939,-1.6884 -1.86741,-1.68841 -1.86741,-3.87775 v -9.1285 q 0,-2.18934 1.86741,-3.87775 1.86741,-1.6884 4.30939,-1.6884 2.40095,0 4.24783,1.6884 1.84689,1.66985 1.90844,3.87775 h -3.36542 q -0.14365,-1.02047 -0.86188,-1.74406 -0.84136,-0.77926 -1.92897,-0.77926 -1.12865,0 -1.97001,0.7607 -0.84136,0.76071 -0.84136,1.76262 v 9.1285 q 0,1.0019 0.84136,1.76261 0.84136,0.76071 1.97001,0.76071 1.10812,0 1.92897,-0.79781 0.69772,-0.72361 0.86188,-1.72551 z" />
      <g
         aria-label="t"
         transform="scale(1.1331899,0.88246462)"
         style="font-style:normal;font-variant:normal;font-weight:normal;font-stretch:normal;font-size:48.81746674px;line-height:1.25;font-family:'SF Atarian System';-inkscape-font-specification:'SF Atarian System';letter-spacing:0px;word-spacing:0px;fill:none;fill-opacity:0.99803922;stroke:#00ffff;stroke-width:0.66565573;stroke-miterlimit:4;stroke-dasharray:none;stroke-opacity:1"
         id="text943">
        <path
           sodipodi:nodetypes="ccccccccc"
           d="m 159.04666,311.84515 h -4.0528 l -0.16676,19.65758 h -6.05346 v -19.5505 h -4.05279 v -6.69328 h 14.32582 z"
           style="fill:none;fill-opacity:0.99803922;stroke:#00ffff;stroke-width:0.66565573;stroke-miterlimit:4;stroke-dasharray:none;stroke-opacity:1"
           id="path865"
           inkscape:connector-curvature="0" />
      </g>
      <path
         inkscape:connector-curvature="0"
         id="path1430"
         style="font-style:normal;font-variant:normal;font-weight:normal;font-stretch:normal;font-size:35.27777863px;line-height:1.25;font-family:'SF Atarian System';-inkscape-font-specification:'SF Atarian System';letter-spacing:0px;word-spacing:0px;fill:#fffff8;fill-opacity:0.99803922;stroke:none;stroke-width:1.09296513;stroke-miterlimit:4;stroke-dasharray:none;stroke-opacity:1"
         d="m 147.94504,291.17676 h -8.68035 q -0.88241,0 -1.58011,-0.61228 -0.6772,-0.63083 -0.6772,-1.41009 v -16.21607 q 0,-0.79782 0.6772,-1.41009 0.6977,-0.61227 1.58011,-0.61227 h 8.68035 v 3.04283 h -7.57222 v 5.56615 h 4.76085 v 3.04283 h -4.76085 v 5.56616 h 7.57222 z" />
      <path
         inkscape:connector-curvature="0"
         id="path1432"
         style="font-style:normal;font-variant:normal;font-weight:normal;font-stretch:normal;font-size:35.27777863px;line-height:1.25;font-family:'SF Atarian System';-inkscape-font-specification:'SF Atarian System';letter-spacing:0px;word-spacing:0px;fill:#fffff8;fill-opacity:0.99803922;stroke:none;stroke-width:1.09296513;stroke-miterlimit:4;stroke-dasharray:none;stroke-opacity:1"
         d="m 163.78719,289.15439 q 0,0.77926 -0.63614,1.41009 -0.61564,0.61228 -1.45699,0.61228 -1.29283,0 -2.17521,-2.02237 l -4.6993,-10.26028 v 12.28265 h -3.36543 v -18.23844 q 0,-0.81635 0.63615,-1.41009 0.63614,-0.61227 1.4775,-0.61227 1.25178,0 2.17522,2.02236 l 4.67877,10.26028 v -12.28264 h 3.36543 z" />
      <path
         inkscape:connector-curvature="0"
         id="path1434"
         style="font-style:normal;font-variant:normal;font-weight:normal;font-stretch:normal;font-size:35.27777863px;line-height:1.25;font-family:'SF Atarian System';-inkscape-font-specification:'SF Atarian System';letter-spacing:0px;word-spacing:0px;fill:#fffff8;fill-opacity:0.99803922;stroke:none;stroke-width:1.09296513;stroke-miterlimit:4;stroke-dasharray:none;stroke-opacity:1"
         d="m 178.23393,273.95879 h -4.49408 v 17.21797 h -3.34492 v -17.21797 h -4.49408 v -3.04283 h 12.33308 z" />
      <g
         aria-label="e"
         transform="matrix(1.0829865,0,0,0.92337255,30.558821,0.36750414)"
         style="font-style:normal;font-variant:normal;font-weight:normal;font-stretch:normal;font-size:47.84780121px;line-height:1.25;font-family:'SF Atarian System';-inkscape-font-specification:'SF Atarian System';letter-spacing:0px;word-spacing:0px;fill:none;fill-opacity:0.99803922;stroke:#00ffff;stroke-width:0.6614992;stroke-miterlimit:4;stroke-dasharray:none;stroke-opacity:1"
         id="text927-8">
        <path
           sodipodi:nodetypes="cscsscscccccccccc"
           d="m 110.02083,317.32455 h -9.88263 c -0.669743,0 -1.269397,-0.25699 -1.798962,-0.77098 -0.51399,-0.52957 -0.770985,-1.12143 -0.770985,-1.7756 v -20.41943 c 0,-0.66974 0.256995,-1.26161 0.770985,-1.7756 0.529565,-0.51399 1.129219,-0.77098 1.798962,-0.77098 h 9.88263 l -0.0872,6.08295 h -7.05046 l -0.0873,3.12019 4.0242,0.10233 -0.0872,6.38997 -4.0242,-0.10234 0.1745,3.22253 h 7.05046 z"
           style="fill:none;fill-opacity:0.99803922;stroke:#00ffff;stroke-width:0.6614992;stroke-miterlimit:4;stroke-dasharray:none;stroke-opacity:1"
           id="path853-1"
           inkscape:connector-curvature="0" />
      </g>
    </g>
  </g>
</svg>
