<?xml version="1.0" encoding="UTF-8" standalone="no"?>
<svg
   xmlns:dc="http://purl.org/dc/elements/1.1/"
   xmlns:cc="http://creativecommons.org/ns#"
   xmlns:rdf="http://www.w3.org/1999/02/22-rdf-syntax-ns#"
   xmlns:svg="http://www.w3.org/2000/svg"
   xmlns="http://www.w3.org/2000/svg"
   xmlns:sodipodi="http://sodipodi.sourceforge.net/DTD/sodipodi-0.dtd"
   xmlns:inkscape="http://www.inkscape.org/namespaces/inkscape"
   width="117"
   height="20"
   viewBox="0 0 117 20"
   version="1.1"
   id="svg3739"
   sodipodi:docname="system.svg"
   inkscape:version="0.92.4 (5da689c313, 2019-01-14)">
  <metadata
     id="metadata3743">
    <rdf:RDF>
      <cc:Work
         rdf:about="">
        <dc:format>image/svg+xml</dc:format>
        <dc:type
           rdf:resource="http://purl.org/dc/dcmitype/StillImage" />
        <dc:title>system</dc:title>
      </cc:Work>
    </rdf:RDF>
  </metadata>
  <sodipodi:namedview
     pagecolor="#ffffff"
     bordercolor="#666666"
     borderopacity="1"
     objecttolerance="10"
     gridtolerance="10"
     guidetolerance="10"
     inkscape:pageopacity="0"
     inkscape:pageshadow="2"
     inkscape:window-width="1920"
     inkscape:window-height="1137"
     id="namedview3741"
     showgrid="false"
     inkscape:zoom="7.5183342"
     inkscape:cx="98.492563"
     inkscape:cy="8.1535411"
     inkscape:window-x="-8"
     inkscape:window-y="344"
     inkscape:window-maximized="1"
     inkscape:current-layer="svg3739"
     scale-x="2" />
  <!-- Generator: Sketch 45 (43475) - http://www.bohemiancoding.com/sketch -->
  <title
     id="title3729">system</title>
  <desc
     id="desc3731">Created with Sketch.</desc>
  <defs
     id="defs3733" />
  <g
     inkscape:groupmode="layer"
     id="layer1"
     inkscape:label="Layer 1"
     transform="translate(0,2)" />
  <g
     inkscape:groupmode="layer"
     id="layer2"
     inkscape:label="Layer 2"
     transform="translate(0,2)" />
  <g
     aria-label="LAST PLAYED"
     style="font-style:normal;font-variant:normal;font-weight:normal;font-stretch:normal;font-size:21.33333397px;line-height:1.25;font-family:Arial;-inkscape-font-specification:Arial;letter-spacing:0px;word-spacing:0px;fill:none;fill-opacity:1;stroke:#ffffff;stroke-width:0.5;stroke-miterlimit:4;stroke-dasharray:none;stroke-opacity:1"
     id="text4643">
    <path
       d="M 2.4001008,16.27577 V 3.8682176 H 4.0420279 V 14.811577 h 6.1106771 v 1.464193 z"
       style="font-size:17.33333397px;fill:none;fill-opacity:1;stroke:#ffffff;stroke-width:0.5;stroke-miterlimit:4;stroke-dasharray:none;stroke-opacity:1"
       id="path5567"
       inkscape:connector-curvature="0" />
    <path
       d="M 10.753616,16.27577 15.51859,3.8682176 h 1.768881 L 22.365596,16.27577 h -1.870443 l -1.447266,-3.757812 h -5.188151 l -1.36263,3.757812 z m 3.580079,-5.095052 h 4.20638 L 17.245153,7.7445199 q -0.592448,-1.5657553 -0.880208,-2.5729168 -0.23698,1.1933594 -0.66862,2.3697918 z"
       style="font-size:17.33333397px;fill:none;fill-opacity:1;stroke:#ffffff;stroke-width:0.5;stroke-miterlimit:4;stroke-dasharray:none;stroke-opacity:1"
       id="path5569"
       inkscape:connector-curvature="0" />
    <path
       d="m 23.135778,12.289442 1.548828,-0.135417 q 0.110026,0.93099 0.507813,1.531901 0.40625,0.592448 1.252604,0.964844 0.846354,0.363932 1.904297,0.363932 0.939453,0 1.658854,-0.279296 0.719401,-0.279297 1.066406,-0.761719 0.355469,-0.490886 0.355469,-1.066407 0,-0.583984 -0.338542,-1.015625 Q 30.752966,11.451551 29.97432,11.155327 29.474971,10.960666 27.765335,10.554416 26.0557,10.139702 25.370153,9.7757699 24.481481,9.3102751 24.041377,8.6247282 23.609736,7.9307178 23.609736,7.0759001 q 0,-0.9394532 0.533203,-1.7519532 0.533203,-0.8209636 1.557292,-1.2441407 1.024089,-0.4231771 2.276693,-0.4231771 1.379557,0 2.429036,0.4485677 1.057943,0.4401042 1.625,1.3033855 0.567058,0.8632813 0.609375,1.9550782 L 31.066117,7.4821501 Q 30.939164,6.3057177 30.202835,5.7048063 29.474971,5.1038948 28.044632,5.1038948 q -1.489583,0 -2.17513,0.5501302 -0.677083,0.5416667 -0.677083,1.311849 0,0.6686198 0.482421,1.1002605 0.473959,0.4316406 2.471355,0.8886719 2.005859,0.4485677 2.750651,0.7871094 1.083333,0.4993492 1.599609,1.2695312 0.516276,0.761719 0.516276,1.760417 0,0.990234 -0.567057,1.870443 -0.567057,0.871744 -1.633464,1.36263 -1.057942,0.482422 -2.386718,0.482422 -1.684245,0 -2.826823,-0.490886 -1.134115,-0.490885 -1.785808,-1.472656 -0.643229,-0.990234 -0.677083,-2.234375 z"
       style="font-size:17.33333397px;fill:none;fill-opacity:1;stroke:#ffffff;stroke-width:0.5;stroke-miterlimit:4;stroke-dasharray:none;stroke-opacity:1"
       id="path5571"
       inkscape:connector-curvature="0" />
    <path
       d="M 38.429398,16.27577 V 5.3324104 H 34.341507 V 3.8682176 h 9.834636 V 5.3324104 H 40.071325 V 16.27577 Z"
       style="font-size:17.33333397px;fill:none;fill-opacity:1;stroke:#ffffff;stroke-width:0.5;stroke-miterlimit:4;stroke-dasharray:none;stroke-opacity:1"
       id="path5573"
       inkscape:connector-curvature="0" />
    <path
       d="M 50.371457,16.27577 V 3.8682176 h 4.680339 q 1.235677,0 1.88737,0.1184896 0.914063,0.1523438 1.531901,0.5839844 0.617839,0.4231771 0.990235,1.1933595 0.380859,0.7701823 0.380859,1.6927083 0,1.5826824 -1.007162,2.6829426 -1.007161,1.091797 -3.639323,1.091797 h -3.182291 v 5.044271 z m 1.641928,-6.5084636 h 3.207682 q 1.591146,0 2.259766,-0.5924479 0.66862,-0.592448 0.66862,-1.6673178 0,-0.7786459 -0.397787,-1.3287761 Q 57.362343,5.6201708 56.719114,5.4424365 56.3044,5.3324104 55.187213,5.3324104 h -3.173828 z"
       style="font-size:17.33333397px;fill:none;fill-opacity:1;stroke:#ffffff;stroke-width:0.5;stroke-miterlimit:4;stroke-dasharray:none;stroke-opacity:1"
       id="path5575"
       inkscape:connector-curvature="0" />
    <path
       d="M 61.881874,16.27577 V 3.8682176 h 1.641927 V 14.811577 h 6.110678 v 1.464193 z"
       style="font-size:17.33333397px;fill:none;fill-opacity:1;stroke:#ffffff;stroke-width:0.5;stroke-miterlimit:4;stroke-dasharray:none;stroke-opacity:1"
       id="path5577"
       inkscape:connector-curvature="0" />
    <path
       d="M 70.23539,16.27577 75.000364,3.8682176 h 1.76888 L 81.847369,16.27577 H 79.976927 L 78.529661,12.517958 H 73.34151 l -1.362631,3.757812 z m 3.580078,-5.095052 h 4.20638 L 76.726926,7.7445199 Q 76.134478,6.1787646 75.846718,5.1716031 75.609739,6.3649625 75.178098,7.5413949 Z"
       style="font-size:17.33333397px;fill:none;fill-opacity:1;stroke:#ffffff;stroke-width:0.5;stroke-miterlimit:4;stroke-dasharray:none;stroke-opacity:1"
       id="path5579"
       inkscape:connector-curvature="0" />
    <path
       d="M 85.385127,16.27577 V 11.019911 L 80.603226,3.8682176 h 1.997396 l 2.445963,3.7408856 q 0.677084,1.0494792 1.261068,2.0989584 0.558594,-0.9733073 1.354167,-2.1920574 l 2.403646,-3.6477866 h 1.91276 l -4.951172,7.1516934 v 5.255859 z"
       style="font-size:17.33333397px;fill:none;fill-opacity:1;stroke:#ffffff;stroke-width:0.5;stroke-miterlimit:4;stroke-dasharray:none;stroke-opacity:1"
       id="path5581"
       inkscape:connector-curvature="0" />
    <path
       d="M 93.501663,16.27577 V 3.8682176 h 8.971357 v 1.4641928 h -7.32943 v 3.8001304 h 6.86393 V 10.58827 h -6.86393 v 4.223307 h 7.61719 v 1.464193 z"
       style="font-size:17.33333397px;fill:none;fill-opacity:1;stroke:#ffffff;stroke-width:0.5;stroke-miterlimit:4;stroke-dasharray:none;stroke-opacity:1"
       id="path5583"
       inkscape:connector-curvature="0" />
    <path
       d="M 105.04593,16.27577 V 3.8682176 h 4.27409 q 1.44727,0 2.20899,0.1777344 1.0664,0.2454427 1.81966,0.8886719 0.98177,0.8294272 1.46419,2.1243491 0.49089,1.2864584 0.49089,2.945313 0,1.413411 -0.33008,2.505208 -0.33008,1.091797 -0.84636,1.811198 -0.51627,0.710938 -1.13411,1.125651 -0.60938,0.40625 -1.48112,0.617839 -0.86328,0.211588 -1.98893,0.211588 z m 1.64193,-1.464193 h 2.64909 q 1.22721,0 1.92122,-0.228515 0.70248,-0.228516 1.11719,-0.643229 0.58399,-0.583985 0.9056,-1.565756 0.33008,-0.990234 0.33008,-2.395182 0,-1.9466147 -0.64323,-2.9876304 -0.63477,-1.0494792 -1.54883,-1.4049479 -0.66016,-0.2539063 -2.12435,-0.2539063 h -2.60677 z"
       style="font-size:17.33333397px;fill:none;fill-opacity:1;stroke:#ffffff;stroke-width:0.5;stroke-miterlimit:4;stroke-dasharray:none;stroke-opacity:1"
       id="path5585"
       inkscape:connector-curvature="0" />
  </g>
</svg>
