<?xml version="1.0" encoding="UTF-8" standalone="no"?>
<!-- Created with Inkscape (http://www.inkscape.org/) -->

<svg
   xmlns:dc="http://purl.org/dc/elements/1.1/"
   xmlns:cc="http://creativecommons.org/ns#"
   xmlns:rdf="http://www.w3.org/1999/02/22-rdf-syntax-ns#"
   xmlns:svg="http://www.w3.org/2000/svg"
   xmlns="http://www.w3.org/2000/svg"
   xmlns:sodipodi="http://sodipodi.sourceforge.net/DTD/sodipodi-0.dtd"
   xmlns:inkscape="http://www.inkscape.org/namespaces/inkscape"
   width="1000"
   height="114"
   viewBox="0 0 264.58333 30.162499"
   version="1.1"
   id="svg833"
   inkscape:version="0.92.4 (5da689c313, 2019-01-14)"
   sodipodi:docname="system.svg">
  <defs
     id="defs827" />
  <sodipodi:namedview
     id="base"
     pagecolor="#ffffff"
     bordercolor="#666666"
     borderopacity="1.0"
     inkscape:pageopacity="0.0"
     inkscape:pageshadow="2"
     inkscape:zoom="0.7"
     inkscape:cx="307.91961"
     inkscape:cy="20.29228"
     inkscape:document-units="mm"
     inkscape:current-layer="layer1"
     showgrid="false"
     inkscape:pagecheckerboard="true"
     units="px"
     inkscape:window-width="1920"
     inkscape:window-height="1017"
     inkscape:window-x="-8"
     inkscape:window-y="-8"
     inkscape:window-maximized="1"
     inkscape:snap-global="false" />
  <metadata
     id="metadata830">
    <rdf:RDF>
      <cc:Work
         rdf:about="">
        <dc:format>image/svg+xml</dc:format>
        <dc:type
           rdf:resource="http://purl.org/dc/dcmitype/StillImage" />
        <dc:title />
      </cc:Work>
    </rdf:RDF>
  </metadata>
  <g
     inkscape:label="Layer 1"
     inkscape:groupmode="layer"
     id="layer1"
     transform="translate(0,-266.8375)">
    <g
       id="g870"
       transform="matrix(1.1044425,0,0,1.2843964,-22.526248,-79.136145)">
      <path
         inkscape:connector-curvature="0"
         id="path1500"
         style="font-style:normal;font-variant:normal;font-weight:normal;font-stretch:normal;font-size:31.75px;line-height:1.25;font-family:'SF Atarian System';-inkscape-font-specification:'SF Atarian System';letter-spacing:0px;word-spacing:0px;fill:none;fill-opacity:1;stroke:#00ffff;stroke-width:0.62284267;stroke-miterlimit:4;stroke-dasharray:none;stroke-opacity:1"
         d="m 189.76434,285.38349 q 0,2.19919 -1.8254,3.92845 -1.80558,1.71046 -4.12701,1.71046 -2.34129,0 -4.12702,-1.69166 -1.76586,-1.71048 -1.84524,-3.94725 h 3.25399 q 0.15872,1.03381 0.89285,1.78567 0.77382,0.77063 1.82542,0.77063 1.21033,0 1.98413,-0.99618 0.7143,-0.90224 0.7143,-2.0864 0,-1.015 -0.81351,-1.78564 -0.8135,-0.77065 -1.88492,-0.77065 -2.53971,0 -4.26591,-1.86083 -1.70635,-1.87964 -1.70635,-4.30436 0,-2.21796 1.80555,-3.92843 1.80557,-1.71046 4.16671,-1.71046 2.32143,0 4.10715,1.71046 1.78574,1.69167 1.84526,3.92843 h -3.25398 q -0.1389,-1.01501 -0.89287,-1.78566 -0.75397,-0.77064 -1.80556,-0.77064 -1.23018,0 -1.98416,0.93981 -0.73411,0.92101 -0.73411,2.12398 0,1.0338 0.81349,1.80445 0.8135,0.77064 1.90478,0.77064 2.51984,0 4.28574,1.89844 1.66667,1.84205 1.66667,4.26674 z" />
      <path
         inkscape:connector-curvature="0"
         id="path1484"
         style="font-style:normal;font-variant:normal;font-weight:normal;font-stretch:normal;font-size:31.75px;line-height:1.25;font-family:'SF Atarian System';-inkscape-font-specification:'SF Atarian System';letter-spacing:0px;word-spacing:0px;fill:none;fill-opacity:1;stroke:#00ffff;stroke-width:0.68007183;stroke-miterlimit:4;stroke-dasharray:none;stroke-opacity:1"
         d="m 102.27032,273.93118 h -8.757579 v 5.62031 h 5.506135 v 3.07244 h -5.506135 v 8.69276 H 89.62048 v -18.4159 q 0,-0.80557 0.7832,-1.42379 0.806932,-0.61825 1.827462,-0.61825 h 10.039178 z" />
      <path
         inkscape:connector-curvature="0"
         id="path1486"
         style="font-style:normal;font-variant:normal;font-weight:normal;font-stretch:normal;font-size:31.75px;line-height:1.25;font-family:'SF Atarian System';-inkscape-font-specification:'SF Atarian System';letter-spacing:0px;word-spacing:0px;fill:none;fill-opacity:1;stroke:#00ffff;stroke-width:0.62372404;stroke-miterlimit:4;stroke-dasharray:none;stroke-opacity:1"
         d="m 114.11327,291.01962 h -3.38349 l -1.37332,-4.62264 h -6.0704 l -1.39319,4.62264 h -3.363606 l 5.473316,-18.47177 q 0.61699,-2.04824 2.30875,-2.04824 1.69176,0 2.30873,2.04824 z m -5.67233,-7.70441 -2.12961,-7.10308 -2.10971,7.10308 z" />
      <path
         inkscape:connector-curvature="0"
         id="path1488"
         style="font-style:normal;font-variant:normal;font-weight:normal;font-stretch:normal;font-size:31.75px;line-height:1.25;font-family:'SF Atarian System';-inkscape-font-specification:'SF Atarian System';letter-spacing:0px;word-spacing:0px;fill:none;fill-opacity:1;stroke:#00ffff;stroke-width:0.62732875;stroke-miterlimit:4;stroke-dasharray:none;stroke-opacity:1"
         d="m 126.2638,270.50151 -5.55792,18.46835 q -0.62425,2.04786 -2.33594,2.04786 -1.71168,0 -2.33593,-2.04786 l -5.53778,-18.46835 h 3.40322 l 4.47049,14.80474 4.47051,-14.80474 z" />
      <path
         inkscape:connector-curvature="0"
         id="path1490"
         style="font-style:normal;font-variant:normal;font-weight:normal;font-stretch:normal;font-size:31.75px;line-height:1.25;font-family:'SF Atarian System';-inkscape-font-specification:'SF Atarian System';letter-spacing:0px;word-spacing:0px;fill:none;fill-opacity:1;stroke:#00ffff;stroke-width:0.627689;stroke-miterlimit:4;stroke-dasharray:none;stroke-opacity:1"
         d="m 136.35721,285.3826 q 0,2.21753 -1.83415,3.92766 -1.83413,1.71013 -4.21246,1.71013 -2.37833,0 -4.21245,-1.71013 -1.83415,-1.71013 -1.83415,-3.92766 v -9.24597 q 0,-2.21753 1.83415,-3.92765 1.83412,-1.71013 4.21245,-1.71013 2.37833,0 4.21246,1.71013 1.83415,1.71012 1.83415,3.92765 z m -3.28532,0 v -9.24597 q 0,-1.01481 -0.82637,-1.7853 -0.82637,-0.77049 -1.93492,-0.77049 -1.10854,0 -1.93491,0.77049 -0.80621,0.75171 -0.80621,1.7853 v 9.24597 q 0,1.03359 0.80621,1.7853 0.82637,0.77049 1.93491,0.77049 1.10855,0 1.93492,-0.77049 0.82637,-0.77049 0.82637,-1.7853 z" />
      <path
         inkscape:connector-curvature="0"
         id="path1492"
         style="font-style:normal;font-variant:normal;font-weight:normal;font-stretch:normal;font-size:31.75px;line-height:1.25;font-family:'SF Atarian System';-inkscape-font-specification:'SF Atarian System';letter-spacing:0px;word-spacing:0px;fill:none;fill-opacity:1;stroke:#00ffff;stroke-width:0.64415622;stroke-miterlimit:4;stroke-dasharray:none;stroke-opacity:1"
         d="m 150.11839,291.00794 h -4.05924 l -4.80305,-6.62575 q -1.02012,-1.40774 -1.02012,-2.15853 0,-1.40773 1.48768,-2.365 0.72258,-0.35662 1.42391,-0.71324 0.70135,-0.35662 1.42392,-0.73202 1.48766,-0.91974 1.48766,-2.27115 0,-1.01359 -0.87134,-1.78315 -0.87136,-0.76955 -2.04024,-0.76955 h -3.4854 v 17.41839 h -3.4854 V 272.5572 q 0,-0.8071 0.70133,-1.42649 0.72258,-0.61942 1.63642,-0.61942 h 4.63305 q 2.48655,0 4.42051,1.59544 1.95523,1.61421 1.95523,3.77273 0,2.15854 -1.65769,3.90413 -1.61519,1.72681 -4.03796,2.38376 z" />
      <path
         inkscape:connector-curvature="0"
         id="path1494"
         style="font-style:normal;font-variant:normal;font-weight:normal;font-stretch:normal;font-size:31.75px;line-height:1.25;font-family:'SF Atarian System';-inkscape-font-specification:'SF Atarian System';letter-spacing:0px;word-spacing:0px;fill:none;fill-opacity:1;stroke:#00ffff;stroke-width:0.78647476;stroke-miterlimit:4;stroke-dasharray:none;stroke-opacity:1"
         d="m 154.50777,290.94643 h -5.22703 V 270.5728 h 5.22703 z" />
      <path
         inkscape:connector-curvature="0"
         id="path1496"
         style="font-style:normal;font-variant:normal;font-weight:normal;font-stretch:normal;font-size:31.75px;line-height:1.25;font-family:'SF Atarian System';-inkscape-font-specification:'SF Atarian System';letter-spacing:0px;word-spacing:0px;fill:none;fill-opacity:1;stroke:#00ffff;stroke-width:0.61334336;stroke-miterlimit:4;stroke-dasharray:none;stroke-opacity:1"
         d="m 166.08313,273.57616 h -4.2118 v 17.4509 h -3.13483 v -17.4509 h -4.2118 v -3.08399 h 11.55843 z" />
      <path
         inkscape:connector-curvature="0"
         id="path1498"
         style="font-style:normal;font-variant:normal;font-weight:normal;font-stretch:normal;font-size:31.75px;line-height:1.25;font-family:'SF Atarian System';-inkscape-font-specification:'SF Atarian System';letter-spacing:0px;word-spacing:0px;fill:none;fill-opacity:1;stroke:#00ffff;stroke-width:0.61209679;stroke-miterlimit:4;stroke-dasharray:none;stroke-opacity:1"
         d="m 177.71045,291.02764 h -8.10162 q -0.82359,0 -1.4748,-0.62058 -0.63206,-0.63941 -0.63206,-1.42926 v -16.43637 q 0,-0.80865 0.63206,-1.42924 0.65121,-0.6206 1.4748,-0.6206 h 8.10162 v 3.08417 h -7.0674 v 5.64176 h 4.44345 v 3.08419 h -4.44345 v 5.64176 h 7.0674 z" />
      <path
         inkscape:connector-curvature="0"
         id="path1503"
         style="font-style:normal;font-variant:normal;font-weight:normal;font-stretch:normal;font-size:31.75px;line-height:1.25;font-family:'SF Atarian System';-inkscape-font-specification:'SF Atarian System';letter-spacing:0px;word-spacing:0px;fill:#ffffff;fill-opacity:1;stroke:none;stroke-width:0.26458332"
         d="m 99.048626,275.41565 h -5.720578 v 4.65088 h 3.596678 v 2.54248 h -3.596678 v 7.19336 h -2.542481 v -15.23938 q 0,-0.66662 0.511597,-1.17822 0.5271,-0.5116 1.193726,-0.5116 h 6.557736 z" />
      <path
         inkscape:connector-curvature="0"
         id="path1505"
         style="font-style:normal;font-variant:normal;font-weight:normal;font-stretch:normal;font-size:31.75px;line-height:1.25;font-family:'SF Atarian System';-inkscape-font-specification:'SF Atarian System';letter-spacing:0px;word-spacing:0px;fill:#ffffff;fill-opacity:1;stroke:none;stroke-width:0.26458332"
         d="m 112.51341,289.59559 h -2.6355 l -1.0697,-3.81372 h -4.72839 l -1.08521,3.81372 h -2.61999 l 4.2633,-15.23938 q 0.48059,-1.68982 1.79834,-1.68982 1.31775,0 1.79834,1.68982 z m -4.41834,-6.3562 -1.65881,-5.86011 -1.64331,5.86011 z" />
      <path
         inkscape:connector-curvature="0"
         id="path1507"
         style="font-style:normal;font-variant:normal;font-weight:normal;font-stretch:normal;font-size:31.75px;line-height:1.25;font-family:'SF Atarian System';-inkscape-font-specification:'SF Atarian System';letter-spacing:0px;word-spacing:0px;fill:#ffffff;fill-opacity:1;stroke:none;stroke-width:0.26458332"
         d="m 124.68838,272.66639 -4.27881,15.23938 q -0.48059,1.68982 -1.79834,1.68982 -1.31775,0 -1.79834,-1.68982 l -4.2633,-15.23938 h 2.61999 l 3.44165,12.21631 3.44165,-12.21631 z" />
      <path
         inkscape:connector-curvature="0"
         id="path1509"
         style="font-style:normal;font-variant:normal;font-weight:normal;font-stretch:normal;font-size:31.75px;line-height:1.25;font-family:'SF Atarian System';-inkscape-font-specification:'SF Atarian System';letter-spacing:0px;word-spacing:0px;fill:#ffffff;fill-opacity:1;stroke:none;stroke-width:0.26458332"
         d="m 135.13957,284.37775 q 0,1.82935 -1.41077,3.24012 -1.41076,1.41076 -3.24011,1.41076 -1.82934,0 -3.24011,-1.41076 -1.41077,-1.41077 -1.41077,-3.24012 v -7.62744 q 0,-1.82934 1.41077,-3.24011 1.41077,-1.41077 3.24011,-1.41077 1.82935,0 3.24011,1.41077 1.41077,1.41077 1.41077,3.24011 z m -2.52698,0 v -7.62744 q 0,-0.83716 -0.63562,-1.47278 -0.63562,-0.63562 -1.48828,-0.63562 -0.85266,0 -1.48828,0.63562 -0.62012,0.62012 -0.62012,1.47278 v 7.62744 q 0,0.85266 0.62012,1.47278 0.63562,0.63562 1.48828,0.63562 0.85266,0 1.48828,-0.63562 0.63562,-0.63562 0.63562,-1.47278 z" />
      <path
         inkscape:connector-curvature="0"
         id="path1511"
         style="font-style:normal;font-variant:normal;font-weight:normal;font-stretch:normal;font-size:31.75px;line-height:1.25;font-family:'SF Atarian System';-inkscape-font-specification:'SF Atarian System';letter-spacing:0px;word-spacing:0px;fill:#ffffff;fill-opacity:1;stroke:none;stroke-width:0.26458332"
         d="m 147.89183,288.83964 h -2.96106 l -3.50366,-5.47253 q -0.74414,-1.16272 -0.74414,-1.78284 0,-1.16272 1.08521,-1.95337 0.5271,-0.29455 1.03869,-0.58911 0.5116,-0.29455 1.0387,-0.60461 1.0852,-0.75965 1.0852,-1.87586 0,-0.83716 -0.63562,-1.47278 -0.63562,-0.63562 -1.48828,-0.63562 h -2.54248 v 14.38672 h -2.54248 v -15.23938 q 0,-0.66662 0.5116,-1.17822 0.5271,-0.5116 1.19372,-0.5116 h 3.37964 q 1.81385,0 3.22461,1.31775 1.42627,1.33325 1.42627,3.11609 0,1.78284 -1.20923,3.22461 -1.17822,1.42627 -2.94555,1.96887 z" />
      <path
         inkscape:connector-curvature="0"
         id="path1513"
         style="font-style:normal;font-variant:normal;font-weight:normal;font-stretch:normal;font-size:31.75px;line-height:1.25;font-family:'SF Atarian System';-inkscape-font-specification:'SF Atarian System';letter-spacing:0px;word-spacing:0px;fill:#ffffff;fill-opacity:1;stroke:none;stroke-width:0.26458332"
         d="m 153.36363,288.83964 h -2.54248 v -16.9292 h 2.54248 z" />
      <path
         inkscape:connector-curvature="0"
         id="path1515"
         style="font-style:normal;font-variant:normal;font-weight:normal;font-stretch:normal;font-size:31.75px;line-height:1.25;font-family:'SF Atarian System';-inkscape-font-specification:'SF Atarian System';letter-spacing:0px;word-spacing:0px;fill:#ffffff;fill-opacity:1;stroke:none;stroke-width:0.26458332"
         d="M 165.04915,274.45292 H 161.654 v 14.38672 h -2.52697 v -14.38672 h -3.39515 v -2.54248 h 9.31727 z" />
      <path
         inkscape:connector-curvature="0"
         id="path1517"
         style="font-style:normal;font-variant:normal;font-weight:normal;font-stretch:normal;font-size:31.75px;line-height:1.25;font-family:'SF Atarian System';-inkscape-font-specification:'SF Atarian System';letter-spacing:0px;word-spacing:0px;fill:#ffffff;fill-opacity:1;stroke:none;stroke-width:0.26458332"
         d="m 176.23193,288.65065 h -6.55774 q -0.66663,0 -1.19373,-0.51159 -0.51159,-0.5271 -0.51159,-1.17823 v -13.54956 q 0,-0.66662 0.51159,-1.17822 0.5271,-0.5116 1.19373,-0.5116 h 6.55774 v 2.54248 h -5.72058 v 4.65088 h 3.59668 v 2.54248 h -3.59668 v 4.65088 h 5.72058 z" />
      <path
         inkscape:connector-curvature="0"
         id="path1519"
         style="font-style:normal;font-variant:normal;font-weight:normal;font-stretch:normal;font-size:31.75px;line-height:1.25;font-family:'SF Atarian System';-inkscape-font-specification:'SF Atarian System';letter-spacing:0px;word-spacing:0px;fill:#ffffff;fill-opacity:1;stroke:none;stroke-width:0.26458332"
         d="m 188.57817,283.99977 q 0,1.81385 -1.42627,3.24012 -1.41077,1.41076 -3.22461,1.41076 -1.82934,0 -3.22461,-1.39526 -1.37976,-1.41077 -1.44177,-3.25562 h 2.54248 q 0.12402,0.85266 0.69763,1.47278 0.60462,0.63562 1.42627,0.63562 0.94568,0 1.55029,-0.82165 0.55811,-0.74414 0.55811,-1.72083 0,-0.83716 -0.63562,-1.47278 -0.63562,-0.63562 -1.47278,-0.63562 -1.98437,0 -3.33313,-1.53479 -1.33325,-1.55029 -1.33325,-3.55017 0,-1.82934 1.41077,-3.24011 1.41076,-1.41077 3.25561,-1.41077 1.81384,0 3.20911,1.41077 1.39526,1.39526 1.44177,3.24011 h -2.54248 q -0.10852,-0.83716 -0.69763,-1.47278 -0.58911,-0.63562 -1.41077,-0.63562 -0.96118,0 -1.55029,0.77515 -0.57361,0.75964 -0.57361,1.75183 0,0.85266 0.63562,1.48828 0.63562,0.63562 1.48828,0.63562 1.96887,0 3.34863,1.5658 1.30225,1.51929 1.30225,3.51916 z" />
    </g>
  </g>
</svg>
